#N canvas 7 23 1913 1004 10;
#X obj 161 -1589 / 2;
#N canvas 1526 263 908 609 clock 0;
#X obj 210 -42 midirealtimein;
#X obj 208 -22 sel 248 251 252 250;
#X obj 198 4 bng 15 250 50 0 empty empty empty 17 7 0 10 -262144 -1
-1;
#X obj 232 3 bng 15 250 50 0 empty empty empty 17 7 0 10 -262144 -1
-1;
#X obj 269 3 bng 15 250 50 0 empty empty empty 17 7 0 10 -262144 -1
-1;
#X obj 303 2 bng 14 250 50 0 empty empty empty 17 7 0 10 -262144 -1
-1;
#X obj 219 123 f;
#X obj 273 123 + 1;
#X floatatom 221 150 5 0 0 0 - - -, f 5;
#X obj 220 178 sel 0;
#X obj 219 209 s clock;
#X msg 238 26 0;
#X msg 281 25 1;
#X obj 319 87 s reset;
#X obj 271 146 mod 6;
#X obj 191 236 s stepclk;
#X msg 198 26 1;
#X obj 235 84 s isplaying;
#X obj 323 7 loadbang;
#X obj 123 117 tgl 15 0 empty empty empty 17 7 0 10 -262144 -1 -1 0
1;
#X obj 403 88 metro 23;
#X obj 384 26 sel 0;
#X floatatom 151 113 5 0 0 0 - - -, f 5;
#X floatatom 743 153 5 0 0 0 - - -, f 5;
#X floatatom 763 173 5 0 0 0 - - -, f 5;
#N canvas 575 303 649 504 pagesel 0;
#X obj 90 163 outlet;
#X obj 93 78 r page;
#X obj 93 101 sel 0;
#X obj 93 124 delay 200;
#X obj 97 30 inlet;
#X obj 233 86 r page&pots;
#X obj 233 109 route 0;
#X obj 233 132 unpack 0 0;
#X obj 220 174 outlet;
#X obj 285 172 outlet;
#X obj 370 104 route 0;
#X obj 370 81 r page&button;
#X obj 370 127 sel 0 1 2 3;
#X obj 357 184 outlet;
#X obj 399 192 outlet;
#X obj 428 212 outlet;
#X obj 470 220 outlet;
#X obj 292 442 s tolcd;
#X obj 287 412 spigot;
#X obj 311 363 r page;
#X obj 316 387 == 2;
#N canvas 710 340 537 429 lcdnumformat 0;
#X obj 170 149 mod 1000;
#X obj 170 195 i;
#X floatatom 170 218 5 0 0 0 - - -, f 5;
#X obj 230 195 i;
#X floatatom 230 218 5 0 0 0 - - -, f 5;
#X floatatom 290 218 5 0 0 0 - - -, f 5;
#X obj 230 149 mod 100;
#X obj 290 149 mod 10;
#X obj 196 83 inlet;
#X obj 257 292 outlet;
#X obj 267 302 outlet;
#X obj 277 312 outlet;
#X floatatom 294 49 5 0 0 0 - - -, f 5;
#X obj 231 172 / 10;
#X obj 171 172 / 100;
#X obj 169 242 change;
#X obj 229 240 change;
#X obj 286 242 change;
#X connect 0 0 14 0;
#X connect 1 0 2 0;
#X connect 1 0 15 0;
#X connect 3 0 4 0;
#X connect 3 0 16 0;
#X connect 6 0 13 0;
#X connect 7 0 5 0;
#X connect 7 0 17 0;
#X connect 8 0 0 0;
#X connect 8 0 6 0;
#X connect 8 0 7 0;
#X connect 12 0 7 0;
#X connect 12 0 6 0;
#X connect 12 0 0 0;
#X connect 13 0 3 0;
#X connect 14 0 1 0;
#X connect 15 0 9 0;
#X connect 16 0 10 0;
#X connect 17 0 11 0;
#X restore 152 202 pd lcdnumformat;
#N canvas 710 340 537 429 lcdnumformat 0;
#X obj 170 149 mod 1000;
#X obj 170 195 i;
#X floatatom 170 218 5 0 0 0 - - -, f 5;
#X obj 230 195 i;
#X floatatom 230 218 5 0 0 0 - - -, f 5;
#X floatatom 290 218 5 0 0 0 - - -, f 5;
#X obj 230 149 mod 100;
#X obj 290 149 mod 10;
#X obj 196 83 inlet;
#X obj 257 292 outlet;
#X obj 267 302 outlet;
#X obj 277 312 outlet;
#X floatatom 294 49 5 0 0 0 - - -, f 5;
#X obj 231 172 / 10;
#X obj 171 172 / 100;
#X obj 169 242 change;
#X obj 229 240 change;
#X obj 286 242 change;
#X connect 0 0 14 0;
#X connect 1 0 2 0;
#X connect 1 0 15 0;
#X connect 3 0 4 0;
#X connect 3 0 16 0;
#X connect 6 0 13 0;
#X connect 7 0 5 0;
#X connect 7 0 17 0;
#X connect 8 0 0 0;
#X connect 8 0 6 0;
#X connect 8 0 7 0;
#X connect 12 0 7 0;
#X connect 12 0 6 0;
#X connect 12 0 0 0;
#X connect 13 0 3 0;
#X connect 14 0 1 0;
#X connect 15 0 9 0;
#X connect 16 0 10 0;
#X connect 17 0 11 0;
#X restore 259 204 pd lcdnumformat;
#X obj 174 137 + 60;
#X msg 21 437 0 0 BPM_xxx_SHFL_xxxPLAY_SYNC_MAN+/-;
#X msg 260 246 13 0 \$1;
#X msg 280 266 14 0 \$1;
#X msg 290 297 15 0 \$1;
#X msg 186 291 6 0 \$1;
#X msg 167 267 5 0 \$1;
#X msg 130 243 4 0 \$1;
#X connect 1 0 2 0;
#X connect 2 0 3 0;
#X connect 3 0 0 0;
#X connect 3 0 24 0;
#X connect 4 0 2 1;
#X connect 4 0 10 1;
#X connect 4 0 6 1;
#X connect 4 0 20 1;
#X connect 5 0 6 0;
#X connect 6 0 7 0;
#X connect 7 0 23 0;
#X connect 7 1 9 0;
#X connect 7 1 22 0;
#X connect 10 0 12 0;
#X connect 11 0 10 0;
#X connect 12 0 13 0;
#X connect 12 1 14 0;
#X connect 12 2 15 0;
#X connect 12 3 16 0;
#X connect 18 0 17 0;
#X connect 19 0 20 0;
#X connect 20 0 18 1;
#X connect 21 0 30 0;
#X connect 21 1 29 0;
#X connect 21 2 28 0;
#X connect 22 0 25 0;
#X connect 22 1 26 0;
#X connect 22 2 27 0;
#X connect 23 0 8 0;
#X connect 23 0 21 0;
#X connect 24 0 18 0;
#X connect 25 0 18 0;
#X connect 26 0 18 0;
#X connect 27 0 18 0;
#X connect 28 0 18 0;
#X connect 29 0 18 0;
#X connect 30 0 18 0;
#X restore 651 -20 pd pagesel;
#X obj 733 64 loadbang;
#X msg 733 87 2, f 4;
#X obj 779 149 bng 15 250 50 0 empty empty empty 17 7 0 10 -262144
-1 -1;
#X obj 800 149 bng 15 250 50 0 empty empty empty 17 7 0 10 -262144
-1 -1;
#X obj 822 148 bng 15 250 50 0 empty empty empty 17 7 0 10 -262144
-1 -1;
#X obj 843 148 bng 15 250 50 0 empty empty empty 17 7 0 10 -262144
-1 -1;
#X obj 315 287 sel 0 1;
#X obj 103 117 tgl 15 0 empty empty empty 17 7 0 10 -262144 -1 -1 0
1;
#X obj 449 219 spigot;
#X obj 496 219 spigot;
#X obj 529 193 invert;
#X obj 400 407 s tolcd;
#X obj 591 195 sel 0 1;
#X obj 544 72 /;
#X msg 545 34 15000;
#X obj 547 3 t b f;
#X floatatom 512 122 5 0 0 0 - - -, f 5;
#X obj 544 95 / 6;
#X obj 402 377 spigot;
#X obj 431 348 == 2;
#X obj 430 321 r page;
#X msg 303 312 send 0 1 PLAY;
#X msg 328 334 send 0 1 STOP;
#X obj 508 363 sel 2;
#X msg 630 332 send 0 0 BPM_xxx_SHFL_xxxPLAY_SYNC_MAN+/-;
#X msg 580 220 send 4 1 INT_;
#X msg 604 244 send 4 1 MIDI;
#X msg 625 120 send 6 0 \$1;
#X connect 0 0 1 0;
#X connect 1 0 2 0;
#X connect 1 0 34 0;
#X connect 1 1 3 0;
#X connect 1 2 4 0;
#X connect 1 2 13 0;
#X connect 1 3 5 0;
#X connect 3 0 16 0;
#X connect 3 0 48 0;
#X connect 4 0 11 0;
#X connect 4 0 47 0;
#X connect 5 0 12 0;
#X connect 5 0 48 0;
#X connect 6 0 7 0;
#X connect 6 0 8 0;
#X connect 6 0 9 0;
#X connect 6 0 15 0;
#X connect 7 0 14 0;
#X connect 9 0 10 0;
#X connect 11 0 17 0;
#X connect 12 0 17 0;
#X connect 14 0 6 1;
#X connect 16 0 17 0;
#X connect 18 0 11 0;
#X connect 19 0 20 0;
#X connect 19 0 17 0;
#X connect 19 0 21 0;
#X connect 19 0 32 0;
#X connect 20 0 35 0;
#X connect 21 0 13 0;
#X connect 22 0 41 0;
#X connect 22 0 53 0;
#X connect 25 1 23 0;
#X connect 25 1 22 0;
#X connect 25 2 24 0;
#X connect 25 3 28 0;
#X connect 25 3 19 0;
#X connect 25 4 29 0;
#X connect 25 4 33 0;
#X connect 25 5 30 0;
#X connect 25 6 31 0;
#X connect 26 0 27 0;
#X connect 27 0 25 0;
#X connect 32 0 47 0;
#X connect 32 1 48 0;
#X connect 33 0 36 0;
#X connect 33 0 38 0;
#X connect 33 0 34 1;
#X connect 33 0 52 0;
#X connect 34 0 6 0;
#X connect 35 0 6 0;
#X connect 36 0 35 1;
#X connect 38 0 51 0;
#X connect 38 1 52 0;
#X connect 39 0 43 0;
#X connect 40 0 39 0;
#X connect 41 0 40 0;
#X connect 41 1 39 1;
#X connect 43 0 42 0;
#X connect 43 0 20 1;
#X connect 44 0 37 0;
#X connect 45 0 44 1;
#X connect 46 0 45 0;
#X connect 46 0 49 0;
#X connect 47 0 44 0;
#X connect 48 0 44 0;
#X connect 49 0 50 0;
#X connect 50 0 44 0;
#X connect 51 0 44 0;
#X connect 52 0 44 0;
#X connect 53 0 44 0;
#X coords 0 -1 1 1 85 35 1 100 100;
#X restore 600 -658 pd clock;
#N canvas 0 51 1920 994 scalemaker 0;
#X msg 482 312 0 2 4 5 7 9 11;
#X msg 515 339 0 2 3 5 7 8 10;
#X msg 567 393 0 2 4 6 7 9 11;
#X msg 542 366 0 1 3 5 7 8 10;
#X text 583 312 Major (Ionian);
#X text 615 336 Minor (Aeolian);
#X text 667 393 Lydian;
#X msg 607 422 0 2 4 6 8 10;
#X text 643 365 Phrygian;
#X text 694 421 Whole Tone;
#X obj 485 412 t l l;
#X obj 511 440 list length;
#X msg 513 492 resize \$1;
#X text 526 527 <-- this tells the array \$0-scale to fill the array
elements starting at element 0;
#X text 584 491 <-- set the array size to the number of tones in the
scale octave.;
#X floatatom -370 96 5 0 0 0 - - -, f 5;
#X obj -370 186 mod 7;
#X text -327 185 <-- [mod ] handles negative numbers differently than
[% ];
#X obj -295 229 div 7;
#X obj -370 129 t f f;
#X floatatom -238 273 5 0 0 0 - - -, f 5;
#X floatatom -363 520 5 0 0 0 - - -, f 5;
#X obj 485 279 sel 0 1 2 3 4;
#X floatatom -407 247 5 0 0 0 - - -, f 5;
#X obj -295 282 * 12;
#X obj -363 418 +;
#X obj -363 460 + 48;
#X text -248 225 <-- division that discards the remainder. This tells
you what octave to use.;
#X text -319 458 <-- offset;
#X obj 415 531 list prepend 0;
#X obj 438 560 list trim;
#X obj -363 344 tabread scale;
#X obj 517 561 s scale;
#X obj 511 464 s scale_length;
#X obj -270 110 r scale_length;
#X obj 462 186 receive fromGUI;
#X obj 461 214 route list;
#X obj 461 239 route /scaleslide;
#X msg 612 221 0 1 2 3 4 5 6 7 8 9 10 11;
#X obj 610 189 loadbang;
#X obj 632 68 sel 1;
#X obj 711 66 sel 1;
#X obj 756 66 sel 1;
#X obj 811 68 sel 1;
#X obj 863 69 sel 1;
#X obj 925 70 sel 1;
#X obj 992 71 sel 1;
#X obj 1047 70 sel 1;
#X obj 1112 70 sel 1;
#X obj 1167 70 sel 1;
#X msg 698 92 1;
#X msg 756 92 2;
#X msg 807 92 3;
#X msg 869 93 4;
#X msg 925 93 5;
#X msg 992 94 6;
#X msg 1049 94 7;
#X msg 1107 97 8;
#X msg 1168 97 9;
#X obj 1226 69 sel 1;
#X msg 1227 96 10;
#X obj 1284 71 sel 1;
#X msg 1285 98 11;
#X obj 651 122 f;
#X obj 713 119 f;
#X obj 768 121 f;
#X obj 821 121 f;
#X obj 877 122 f;
#X obj 937 121 f;
#X obj 1007 123 f;
#X obj 1061 125 f;
#X obj 1122 127 f;
#X obj 1182 128 f;
#X obj 1233 128 f;
#X obj 1283 131 f;
#X msg 632 91 0;
#X msg 663 91 99;
#X msg 726 93 99;
#X msg 782 92 99;
#X msg 837 93 99;
#X msg 894 94 99;
#X msg 954 94 99;
#X msg 1016 95 99;
#X msg 1074 95 99;
#X msg 1137 97 99;
#X msg 1196 97 99;
#X msg 1255 96 99;
#X msg 1313 98 99;
#X obj 712 20 t b f;
#X obj 771 20 t b f;
#X obj 823 20 t b f;
#X obj 865 20 t b f;
#X obj 927 19 t b f;
#X obj 995 24 t b f;
#X obj 1054 24 t b f;
#X obj 1106 24 t b f;
#X obj 1163 25 t b f;
#X obj 1221 21 t b f;
#X obj 1285 23 t b f;
#X obj 644 15 t b f;
#X obj 1022 339 f;
#X obj 1060 338 + 1;
#X floatatom 1020 363 5 0 0 0 - - -, f 5;
#X obj 1016 302 bng 15 250 50 0 empty empty empty 17 7 0 10 -262144
-1 -1;
#X obj 981 238 sel 99;
#X obj 1069 364 mod 100;
#X obj 983 198 t b a;
#X obj 961 36 t b b;
#X msg 1047 230 0;
#X obj 1069 189 loadbang;
#X obj 1022 394 + 1;
#X floatatom 710 457 5 0 0 0 - - -, f 5;
#X obj 974 275 t f b;
#X obj 989 440 list prepend;
#X obj 1074 470 t l;
#X obj 1001 500 t l l;
#X obj 1027 528 list length;
#X msg 1029 580 resize \$1;
#X obj 931 619 list prepend 0;
#X obj 954 648 list trim;
#X obj 1033 649 s scale;
#X obj 1027 552 s scale_length;
#X text 1042 615 comment;
#X obj 275 604 loadbang;
#X msg 275 644 \; scale 0 0 2 4 5 7 9 11 12 14 16 17 19 21 23 24 26
28 29 31 33 35 36 38 40 41 43 45 47 48 \;;
#X obj 66 556 nbx 4 16 -1e+37 1e+37 0 0 empty empty empty 0 -8 0 12
-262130 -4160 -1 0 256 0;
#X obj 69 732 hsl 195 15 0 15 0 0 empty empty empty -2 -8 0 10 -258113
-4032 -1 0 1;
#N canvas 0 50 450 300 (subpatch) 0;
#X array scale 12 float 3 black black;
#A 0 0 2 4 5 7 9 11 12 14 16 17 19;
#X coords 0 60 12 0 200 140 1;
#X restore 66 585 graph;
#X obj 788 -107 receive fromkeys;
#X obj 790 -54 unpack 0 0 0 0 0 0 0 0 0 0 0 0 0;
#X obj -190 316 mod 4;
#X obj 44 108 tgl 30 0 empty empty empty 17 7 0 10 -262144 -1 -1 0
1;
#X obj 80 108 tgl 30 0 empty empty empty 17 7 0 10 -262144 -1 -1 0
1;
#X obj 154 108 tgl 30 0 empty empty empty 17 7 0 10 -262144 -1 -1 0
1;
#X obj 190 108 tgl 30 0 empty empty empty 17 7 0 10 -262144 -1 -1 0
1;
#X obj 227 108 tgl 30 0 empty empty empty 17 7 0 10 -262144 -1 -1 0
1;
#X obj 74 393 pack 0 0 0 0 0 0 0 0 0 0 0 0 0;
#X obj 145 424 bng 15 250 50 0 empty empty empty 17 7 0 10 -262144
-1 -1;
#X obj 98 352 t b f;
#X obj 143 351 t b f;
#X obj 180 351 t b f;
#X obj 217 351 sel 1;
#X obj 253 350 t b f;
#X obj 290 350 t b f;
#X obj 327 350 sel 1;
#X obj 364 350 t b f;
#X obj 148 313 t b f;
#X obj 295 311 t b f;
#X obj 111 315 t b f;
#X obj 222 312 t b f;
#X obj 258 311 t b f;
#X obj 74 416 s fromkeys;
#X obj 27 146 tgl 30 0 empty empty empty 17 7 0 10 -262144 -1 -1 0
1;
#X obj 64 146 tgl 30 0 empty empty empty 17 7 0 10 -262144 -1 -1 0
1;
#X obj 101 146 tgl 30 0 empty empty empty 17 7 0 10 -262144 -1 -1 0
1;
#X obj 138 146 tgl 30 0 empty empty empty 17 7 0 10 -262144 -1 -1 0
1;
#X obj 174 146 tgl 30 0 empty empty empty 17 7 0 10 -262144 -1 -1 0
1;
#X obj 211 146 tgl 30 0 empty empty empty 17 7 0 10 -262144 -1 -1 0
1;
#X obj 248 146 tgl 30 0 empty empty empty 17 7 0 10 -262144 -1 -1 0
1;
#X obj 205 -107 tgl 15 0 empty empty empty 17 7 0 10 -262144 -1 -1
0 1;
#X obj 170 -88 spigot;
#X obj 75 -153 notein 1;
#X obj 158 -54 / 12;
#X obj 158 -31 i;
#X floatatom 158 -8 5 0 0 0 - - -, f 5;
#X obj 157 13 mod 2;
#X floatatom 157 39 5 0 0 0 - - -, f 5;
#X obj 81 19 spigot;
#X obj 205 -130 r isplaying;
#X obj 81 42 mod 12;
#X floatatom 16 29 5 0 0 0 - - -, f 5;
#X obj 107 -81 t f f b;
#X msg 308 24 0;
#X obj 273 -88 spigot;
#X obj 22 73 route 0 1 2 3 4 5 6 7 8 9 10 11;
#X obj 231 -7 pack;
#X obj 228 -64 t f b;
#X obj 278 -59 f;
#X obj 709 -69 print fromkeys;
#X obj 234 32 print;
#X obj 264 -33 > 0;
#X connect 0 0 10 0;
#X connect 1 0 10 0;
#X connect 2 0 10 0;
#X connect 3 0 10 0;
#X connect 7 0 10 0;
#X connect 10 0 29 0;
#X connect 10 1 11 0;
#X connect 11 0 12 0;
#X connect 11 0 33 0;
#X connect 11 0 111 0;
#X connect 12 0 32 0;
#X connect 15 0 19 0;
#X connect 16 0 23 0;
#X connect 16 0 31 0;
#X connect 18 0 130 0;
#X connect 19 0 16 0;
#X connect 19 1 18 0;
#X connect 22 0 0 0;
#X connect 22 1 1 0;
#X connect 22 2 3 0;
#X connect 22 3 2 0;
#X connect 22 4 7 0;
#X connect 24 0 25 1;
#X connect 25 0 26 0;
#X connect 26 0 21 0;
#X connect 29 0 30 0;
#X connect 30 0 32 0;
#X connect 31 0 25 0;
#X connect 34 0 16 1;
#X connect 34 0 18 1;
#X connect 35 0 36 0;
#X connect 36 0 37 0;
#X connect 37 0 22 0;
#X connect 38 0 10 0;
#X connect 39 0 38 0;
#X connect 40 0 75 0;
#X connect 40 1 76 0;
#X connect 41 0 50 0;
#X connect 41 1 77 0;
#X connect 42 0 51 0;
#X connect 42 1 78 0;
#X connect 43 0 52 0;
#X connect 43 1 79 0;
#X connect 44 0 53 0;
#X connect 44 1 80 0;
#X connect 45 0 54 0;
#X connect 45 1 81 0;
#X connect 46 0 55 0;
#X connect 46 1 82 0;
#X connect 47 0 56 0;
#X connect 47 1 83 0;
#X connect 48 0 57 0;
#X connect 48 1 84 0;
#X connect 49 0 58 0;
#X connect 49 1 85 0;
#X connect 50 0 64 1;
#X connect 51 0 65 1;
#X connect 52 0 66 1;
#X connect 53 0 67 1;
#X connect 54 0 68 1;
#X connect 55 0 69 1;
#X connect 56 0 70 1;
#X connect 57 0 71 1;
#X connect 58 0 72 1;
#X connect 59 0 60 0;
#X connect 59 1 86 0;
#X connect 60 0 73 1;
#X connect 61 0 62 0;
#X connect 61 1 87 0;
#X connect 62 0 74 1;
#X connect 63 0 106 0;
#X connect 64 0 106 0;
#X connect 65 0 106 0;
#X connect 66 0 106 0;
#X connect 67 0 106 0;
#X connect 68 0 106 0;
#X connect 69 0 106 0;
#X connect 70 0 106 0;
#X connect 71 0 106 0;
#X connect 72 0 106 0;
#X connect 73 0 106 0;
#X connect 74 0 106 0;
#X connect 75 0 63 1;
#X connect 76 0 63 1;
#X connect 77 0 64 1;
#X connect 78 0 65 1;
#X connect 79 0 66 1;
#X connect 80 0 67 1;
#X connect 81 0 68 1;
#X connect 82 0 69 1;
#X connect 83 0 70 1;
#X connect 84 0 71 1;
#X connect 85 0 72 1;
#X connect 86 0 73 1;
#X connect 87 0 74 1;
#X connect 88 0 107 0;
#X connect 88 1 41 0;
#X connect 89 0 107 0;
#X connect 89 1 42 0;
#X connect 90 0 107 0;
#X connect 90 1 43 0;
#X connect 91 0 107 0;
#X connect 91 1 44 0;
#X connect 92 0 107 0;
#X connect 92 1 45 0;
#X connect 93 0 107 0;
#X connect 93 1 46 0;
#X connect 94 0 107 0;
#X connect 94 1 47 0;
#X connect 95 0 107 0;
#X connect 95 1 48 0;
#X connect 96 0 107 0;
#X connect 96 1 49 0;
#X connect 97 0 107 0;
#X connect 97 1 59 0;
#X connect 98 0 107 0;
#X connect 98 1 61 0;
#X connect 99 0 107 0;
#X connect 99 1 40 0;
#X connect 100 0 101 0;
#X connect 100 0 102 0;
#X connect 101 0 105 0;
#X connect 102 0 110 0;
#X connect 103 0 100 0;
#X connect 104 1 112 0;
#X connect 105 0 100 1;
#X connect 106 1 104 0;
#X connect 107 0 63 0;
#X connect 107 0 64 0;
#X connect 107 0 65 0;
#X connect 107 0 66 0;
#X connect 107 0 67 0;
#X connect 107 0 68 0;
#X connect 107 0 69 0;
#X connect 107 0 70 0;
#X connect 107 0 71 0;
#X connect 107 0 72 0;
#X connect 107 0 73 0;
#X connect 107 0 74 0;
#X connect 107 1 108 0;
#X connect 107 1 113 1;
#X connect 108 0 100 1;
#X connect 108 0 102 0;
#X connect 109 0 108 0;
#X connect 112 0 113 0;
#X connect 112 1 103 0;
#X connect 113 0 114 0;
#X connect 113 0 115 0;
#X connect 114 0 113 1;
#X connect 115 0 118 0;
#X connect 115 1 116 0;
#X connect 116 0 117 0;
#X connect 116 0 121 0;
#X connect 117 0 120 0;
#X connect 118 0 119 0;
#X connect 119 0 120 0;
#X connect 123 0 124 0;
#X connect 125 0 126 0;
#X connect 128 0 129 0;
#X connect 128 0 178 0;
#X connect 129 0 99 0;
#X connect 129 1 88 0;
#X connect 129 2 89 0;
#X connect 129 3 90 0;
#X connect 129 4 91 0;
#X connect 129 5 92 0;
#X connect 129 6 93 0;
#X connect 129 7 94 0;
#X connect 129 8 95 0;
#X connect 129 9 96 0;
#X connect 129 10 97 0;
#X connect 129 11 98 0;
#X connect 130 0 24 0;
#X connect 130 0 20 0;
#X connect 131 0 148 0;
#X connect 132 0 146 0;
#X connect 133 0 149 0;
#X connect 134 0 150 0;
#X connect 135 0 147 0;
#X connect 136 0 151 0;
#X connect 137 0 136 0;
#X connect 138 0 137 0;
#X connect 138 1 136 0;
#X connect 139 0 137 0;
#X connect 139 1 136 2;
#X connect 140 0 137 0;
#X connect 140 1 136 4;
#X connect 141 0 137 0;
#X connect 141 1 136 5;
#X connect 142 0 137 0;
#X connect 142 1 136 7;
#X connect 143 0 137 0;
#X connect 143 1 136 9;
#X connect 144 0 137 0;
#X connect 144 1 136 11;
#X connect 145 0 137 0;
#X connect 145 1 136 12;
#X connect 146 0 137 0;
#X connect 146 1 136 3;
#X connect 147 0 137 0;
#X connect 147 1 136 10;
#X connect 148 0 137 0;
#X connect 148 1 136 1;
#X connect 149 0 137 0;
#X connect 149 1 136 6;
#X connect 150 0 137 0;
#X connect 150 1 136 8;
#X connect 152 0 138 0;
#X connect 153 0 139 0;
#X connect 154 0 140 0;
#X connect 155 0 141 0;
#X connect 156 0 142 0;
#X connect 157 0 143 0;
#X connect 158 0 144 0;
#X connect 159 0 160 1;
#X connect 159 0 173 1;
#X connect 160 0 171 0;
#X connect 161 0 160 0;
#X connect 161 1 173 0;
#X connect 162 0 163 0;
#X connect 163 0 164 0;
#X connect 163 0 165 0;
#X connect 165 0 166 0;
#X connect 165 0 167 1;
#X connect 167 0 169 0;
#X connect 168 0 159 0;
#X connect 169 0 170 0;
#X connect 169 0 176 0;
#X connect 171 0 167 0;
#X connect 171 1 162 0;
#X connect 172 0 133 0;
#X connect 172 0 158 0;
#X connect 172 0 157 0;
#X connect 172 0 156 0;
#X connect 172 0 155 0;
#X connect 172 0 154 0;
#X connect 172 0 153 0;
#X connect 172 0 152 0;
#X connect 172 0 135 0;
#X connect 172 0 134 0;
#X connect 172 0 132 0;
#X connect 172 0 131 0;
#X connect 173 0 177 1;
#X connect 174 0 152 0;
#X connect 174 1 131 0;
#X connect 174 2 153 0;
#X connect 174 3 132 0;
#X connect 174 4 154 0;
#X connect 174 5 155 0;
#X connect 174 6 133 0;
#X connect 174 7 156 0;
#X connect 174 8 134 0;
#X connect 174 9 157 0;
#X connect 174 10 135 0;
#X connect 174 11 158 0;
#X connect 175 0 174 0;
#X connect 176 0 175 0;
#X connect 176 1 177 0;
#X connect 177 0 180 0;
#X connect 180 0 175 1;
#X coords 0 -1 1 1 320 85 2 10 100;
#X restore 30 -712 pd scalemaker;
#N canvas 1517 22 1293 957 303seq 0;
#X obj 331 120 tgl 15 0 empty empty empty 17 7 0 10 -262144 -1 -1 0
1;
#X floatatom 363 121 5 0 0 0 - - -, f 5;
#X floatatom -40 69 5 0 0 0 - - -, f 5;
#X obj 2 41 metro 150;
#X obj 138 282 counter 15;
#X obj 175 696 f, f 4;
#X text 1023 521 accent;
#X text 1068 521 slide;
#X obj 284 863 * 41.6667;
#X obj 355 679 spigot;
#X obj -3 68 counter 5;
#X obj 140 253 sel 0;
#X msg 354 699 0;
#X msg 324 703 1;
#X obj 176 718 sel 1 0;
#X msg 201 740 0;
#X msg 172 741 1;
#X obj -6 161 r stepclk;
#X floatatom 310 775 5 0 0 0 - - -, f 5;
#X obj 946 525 tgl 15 0 empty empty empty 17 7 0 10 -262144 -1 -1 0
1;
#X obj 1066 502 tgl 15 0 empty empty empty 17 7 0 10 -262144 -1 -1
0 1;
#X obj 938 425 tabread patternslide;
#X obj 938 373 tabread patternacc;
#X msg 938 446 set \$1;
#X msg 938 395 set \$1;
#X obj 806 570 tabwrite patternnote;
#X obj 948 570 tabwrite patternacc;
#X obj 1072 570 tabwrite patternslide;
#X floatatom 665 473 5 0 0 0 - - -, f 5;
#X obj 319 333 tabread patternslide;
#X obj 170 679 tabread patternacc;
#X obj 186 337 tabread patternnote;
#X obj 190 364 sel 0;
#X obj 440 250 tabwrite patternnote;
#X obj 781 159 tabwrite patternacc;
#X obj 902 191 tabwrite patternslide;
#X obj 702 72 f;
#X obj 736 80 + 1;
#X obj 639 71 t b b;
#X msg 704 173 0;
#X obj 737 21 tgl 15 0 empty empty empty 17 7 0 10 -262144 -1 -1 0
1;
#X floatatom 695 201 5 0 0 0 - - -, f 5;
#X obj 794 22 random 2;
#X obj 875 48 random 2;
#X floatatom 489 165 3 0 100 0 - - -, f 3;
#X text 515 165 <-- change probablilty;
#X msg 490 218 0;
#X obj 351 28 sel 1;
#X obj 297 505 timer;
#X obj 297 488 t b b;
#X text 325 798 transpose;
#X obj -6 188 t f f f f;
#X obj 297 554 f;
#X obj 295 577 pack 0 0;
#X obj 164 414 spigot;
#X text 311 524 new value;
#X obj 290 609 f;
#X text 329 356 old value;
#X msg 288 629 \$1 0;
#X obj 115 340 t f b b f;
#X obj 399 458 sel 1 0;
#X msg 399 481 0;
#X msg 425 481 1;
#X obj 391 507 spigot;
#X obj 392 534 f;
#X obj 293 653 line 0 1;
#X obj 164 440 spigot;
#X obj 638 93 random 38;
#X floatatom 343 500 5 0 0 0 - - -, f 5;
#X obj 335 550 + 1;
#X obj 170 650 spigot;
#X obj 482 472 tgl 15 0 empty empty empty 17 7 0 10 -262144 -1 -1 0
1;
#X obj 168 622 spigot;
#X floatatom 988 40 3 0 100 0 - - -, f 3;
#X msg 904 101 0;
#X obj 313 678 t b b;
#X obj 47 207 sel 5;
#X obj 248 266 r reset;
#X msg 246 289 0;
#X floatatom 229 245 5 0 0 0 - - -, f 5;
#X obj 352 57 random 32;
#X obj 253 466 loadbang;
#N canvas 142 181 1176 548 scaler 0;
#X obj 33 23 inlet;
#X obj 301 26 inlet;
#X obj 38 433 outlet;
#X obj 66 85 int;
#X floatatom 63 106 5 0 0 0 - - -, f 5;
#X obj 169 147 mod 7;
#X text 212 146 <-- [mod ] handles negative numbers differently than
[% ];
#X obj 244 190 div 7;
#X obj 169 90 t f f;
#X floatatom 301 234 5 0 0 0 - - -, f 5;
#X floatatom 182 407 5 0 0 0 - - -, f 5;
#X floatatom 132 208 5 0 0 0 - - -, f 5;
#X obj 238 270 * 12;
#X obj 179 337 +;
#X text 291 186 <-- division that discards the remainder. This tells
you what octave to use.;
#X text 223 377 <-- offset;
#X obj 176 305 tabread scale;
#X obj 269 71 r scale_length;
#X obj 179 379 + 0;
#X obj 239 232 mod 2;
#X connect 0 0 3 0;
#X connect 1 0 18 1;
#X connect 3 0 4 0;
#X connect 4 0 8 0;
#X connect 5 0 11 0;
#X connect 5 0 16 0;
#X connect 7 0 19 0;
#X connect 8 0 5 0;
#X connect 8 1 7 0;
#X connect 10 0 2 0;
#X connect 12 0 13 1;
#X connect 13 0 18 0;
#X connect 16 0 13 0;
#X connect 17 0 5 1;
#X connect 17 0 7 1;
#X connect 18 0 10 0;
#X connect 19 0 12 0;
#X connect 19 0 9 0;
#X restore 182 491 pd scaler;
#X msg 253 490 0;
#X floatatom 484 70 3 0 100 0 - - -, f 3;
#X obj 438 158 f;
#X obj 440 137 t b;
#X obj 737 -7 inlet;
#X obj 237 215 inlet;
#X obj 480 22 inlet;
#X obj 486 138 inlet;
#X obj 936 39 inlet;
#X obj 354 780 inlet;
#X obj 441 193 moses 20;
#X obj 294 798 + 12;
#X obj 918 74 moses 1;
#X obj 439 96 moses 45;
#X obj 340 478 inlet;
#X obj 661 641 s tolcd;
#X floatatom 617 340 5 0 0 0 - - -, f 5;
#X floatatom 637 360 5 0 0 0 - - -, f 5;
#X obj 636 49 metro 1;
#X obj 656 611 spigot;
#X obj 685 586 == 0;
#X floatatom 185 248 5 0 0 0 - - -, f 5;
#X floatatom 665 414 5 0 0 0 - - -, f 5;
#X obj 943 689 sel 0 1;
#X obj 951 610 sel 0 1;
#X msg 805 532 0;
#X obj 762 264 notein 1;
#X obj 757 293 stripnote;
#X obj 817 359 t b f;
#X msg 672 355 inc;
#X obj 669 378 counter 15;
#X obj 665 450 tabread patternnote;
#X obj 680 562 r page;
#N canvas 1640 313 649 504 pagesel 0;
#X obj 90 163 outlet;
#X obj 93 78 r page;
#X obj 93 101 sel 0;
#X obj 93 124 delay 200;
#X obj 97 30 inlet;
#X obj 233 86 r page&pots;
#X obj 233 109 route 0;
#X obj 233 132 unpack 0 0;
#X obj 223 168 outlet;
#X obj 285 172 outlet;
#X obj 370 104 route 0;
#X obj 370 81 r page&button;
#X obj 370 127 sel 0 1 2 3;
#X obj 357 184 outlet;
#X obj 399 192 outlet;
#X obj 428 212 outlet;
#X obj 470 220 outlet;
#X connect 1 0 2 0;
#X connect 2 0 3 0;
#X connect 3 0 0 0;
#X connect 4 0 2 1;
#X connect 4 0 10 1;
#X connect 4 0 6 1;
#X connect 5 0 6 0;
#X connect 6 0 7 0;
#X connect 7 0 8 0;
#X connect 7 1 9 0;
#X connect 10 0 12 0;
#X connect 11 0 10 0;
#X connect 12 0 13 0;
#X connect 12 1 14 0;
#X connect 12 2 15 0;
#X connect 12 3 16 0;
#X restore 608 298 pd pagesel;
#X obj 607 251 loadbang;
#X msg 607 274 0, f 4;
#X obj 288 826 +;
#X obj 829 260 r isplaying;
#X obj 819 323 spigot;
#X obj 828 281 invert;
#X obj 289 886 s seq1note;
#X obj 166 776 s seq1acc;
#X obj 318 731 s seq1gate;
#X obj 229 355 inlet;
#X obj 245 384 invert;
#X obj 213 409 spigot;
#X obj 215 433 spigot;
#X obj 197 530 f;
#X floatatom 457 823 5 0 0 0 - - -, f 5;
#X obj 852 525 +;
#X obj 1040 253 inlet;
#X obj 869 489 * 128;
#X obj 888 524 +;
#X obj 83 327 +;
#X obj 100 302 * 128;
#X obj 567 216 +;
#X obj 582 190 * 128;
#X obj 129 170 bng 15 250 50 0 empty empty empty 17 7 0 10 -262144
-1 -1;
#X floatatom 111 123 5 0 0 0 - - -, f 5;
#X floatatom 171 170 5 0 100 0 - - -, f 5;
#X text 165 149 probrep;
#X floatatom 223 170 5 0 100 0 - - -, f 5;
#X floatatom 278 170 5 0 100 0 - - -, f 5;
#X text 212 149 probzero;
#X text 269 149 probslide;
#X text 105 104 length;
#X floatatom 241 123 5 -24 24 0 - - -, f 5;
#X obj 205 126 tgl 15 0 empty empty empty 17 7 0 10 -262144 -1 -1 1
1;
#X text 204 105 scale;
#X text 105 149 randomise;
#X obj 138 211 - 1;
#X floatatom 341 170 5 0 100 0 - - -, f 5;
#X text 332 149 probacc;
#X obj 801 85 moses 1;
#X msg 826 114 0;
#X text 154 104 pattern;
#X floatatom 155 124 5 0 0 0 - - -, f 5;
#X text 329 104 GO;
#X text 362 103 speed;
#X text 237 104 trans;
#X text 283 103 porta;
#X floatatom 284 123 5 0 5000 0 - - -, f 5;
#X obj 296 244 - 127;
#X obj 240 32 r panright;
#X obj 154 24 loadbang;
#X msg 154 47 0;
#X msg 183 47 20;
#X msg 122 43 15;
#X obj 704 150 sel 127;
#X obj 28 109 bng 15 250 50 0 empty empty empty 17 7 0 10 -262144 -1
-1;
#X obj 768 741 tgl 15 0 empty empty empty 17 7 0 10 -262144 -1 -1 0
1;
#X obj 733 760 spigot;
#X obj 638 695 notein 1;
#X obj 721 794 / 12;
#X obj 721 817 i;
#X floatatom 721 840 5 0 0 0 - - -, f 5;
#X obj 720 861 mod 2;
#X floatatom 720 887 5 0 0 0 - - -, f 5;
#X obj 644 867 spigot;
#X obj 768 718 r isplaying;
#X obj 670 767 t f f b;
#X obj 823 874 invert;
#X obj 458 792 mod 12;
#X obj 645 721 stripnote;
#X msg 217 47 1;
#X obj 950 293 loadbang;
#X msg 950 316 1;
#X msg 472 540 send 0 0 STEPxxx_NOTExxx_SLID_ACC_H/S_RND;
#X msg 588 505 send 4 0 \$1;
#X msg 678 506 send 12 0 \$1;
#X msg 968 637 send 8 1 x;
#X msg 952 659 send 8 1 _;
#X msg 965 715 send 4 1 x;
#X msg 949 729 send 4 1 _;
#X obj 9 385 switch~;
#X obj 104 178 tgl 17 0 empty empty empty 17 7 0 10 -262144 -1 -1 0
1;
#X connect 0 0 3 0;
#X connect 1 0 3 1;
#X connect 3 0 10 0;
#X connect 3 0 172 0;
#X connect 4 0 136 0;
#X connect 5 0 14 0;
#X connect 8 0 123 0;
#X connect 9 0 12 0;
#X connect 10 0 2 0;
#X connect 10 0 51 0;
#X connect 11 0 4 0;
#X connect 11 0 49 0;
#X connect 12 0 125 0;
#X connect 13 0 125 0;
#X connect 14 0 16 0;
#X connect 15 0 124 0;
#X connect 16 0 124 0;
#X connect 17 0 51 0;
#X connect 18 0 94 1;
#X connect 19 0 26 0;
#X connect 19 0 107 0;
#X connect 20 0 27 0;
#X connect 20 0 106 0;
#X connect 21 0 23 0;
#X connect 21 0 106 0;
#X connect 22 0 24 0;
#X connect 22 0 107 0;
#X connect 23 0 20 0;
#X connect 24 0 19 0;
#X connect 29 0 54 1;
#X connect 29 0 60 0;
#X connect 29 0 66 1;
#X connect 30 0 5 0;
#X connect 31 0 32 0;
#X connect 32 0 9 0;
#X connect 32 1 129 0;
#X connect 32 1 128 0;
#X connect 36 0 37 0;
#X connect 36 0 41 0;
#X connect 36 0 138 0;
#X connect 36 0 171 0;
#X connect 37 0 36 1;
#X connect 38 0 42 0;
#X connect 38 0 43 0;
#X connect 38 0 67 0;
#X connect 38 1 36 0;
#X connect 39 0 36 1;
#X connect 39 0 40 0;
#X connect 40 0 47 0;
#X connect 40 0 101 0;
#X connect 42 0 156 0;
#X connect 43 0 95 0;
#X connect 44 0 93 1;
#X connect 46 0 33 0;
#X connect 47 0 80 0;
#X connect 48 0 69 0;
#X connect 49 0 48 0;
#X connect 49 1 48 1;
#X connect 51 3 11 0;
#X connect 51 3 76 0;
#X connect 52 0 56 1;
#X connect 52 0 53 0;
#X connect 53 0 65 0;
#X connect 54 0 56 0;
#X connect 56 0 58 0;
#X connect 58 0 65 0;
#X connect 59 0 72 0;
#X connect 59 1 66 0;
#X connect 59 2 54 0;
#X connect 59 2 63 0;
#X connect 59 3 31 0;
#X connect 59 3 29 0;
#X connect 60 0 61 0;
#X connect 60 1 62 0;
#X connect 61 0 63 1;
#X connect 61 0 71 0;
#X connect 61 0 70 1;
#X connect 61 0 9 1;
#X connect 62 0 63 1;
#X connect 62 0 71 0;
#X connect 62 0 70 1;
#X connect 62 0 9 1;
#X connect 63 0 64 0;
#X connect 64 0 94 0;
#X connect 65 0 94 0;
#X connect 66 0 52 0;
#X connect 67 0 96 0;
#X connect 68 0 69 1;
#X connect 69 0 53 1;
#X connect 70 0 30 0;
#X connect 72 0 70 0;
#X connect 73 0 95 1;
#X connect 74 0 35 0;
#X connect 75 0 13 0;
#X connect 76 0 15 0;
#X connect 76 0 9 0;
#X connect 77 0 78 0;
#X connect 78 0 4 3;
#X connect 78 0 113 3;
#X connect 79 0 4 4;
#X connect 79 0 113 4;
#X connect 80 0 141 0;
#X connect 81 0 83 0;
#X connect 82 0 130 0;
#X connect 83 0 82 1;
#X connect 84 0 96 1;
#X connect 85 0 93 0;
#X connect 86 0 85 0;
#X connect 87 0 40 0;
#X connect 88 0 79 0;
#X connect 89 0 84 0;
#X connect 90 0 44 0;
#X connect 91 0 95 1;
#X connect 92 0 94 1;
#X connect 93 0 33 0;
#X connect 93 1 46 0;
#X connect 94 0 119 0;
#X connect 95 0 35 0;
#X connect 95 1 74 0;
#X connect 96 0 85 1;
#X connect 96 0 93 0;
#X connect 96 1 86 0;
#X connect 97 0 68 0;
#X connect 101 0 38 0;
#X connect 102 0 98 0;
#X connect 103 0 102 1;
#X connect 104 0 4 3;
#X connect 106 0 196 0;
#X connect 106 1 195 0;
#X connect 107 0 194 0;
#X connect 107 1 193 0;
#X connect 108 0 25 0;
#X connect 109 0 110 0;
#X connect 109 1 110 1;
#X connect 110 0 121 0;
#X connect 111 0 112 0;
#X connect 111 1 25 0;
#X connect 111 1 192 0;
#X connect 112 0 113 0;
#X connect 113 0 21 0;
#X connect 113 0 22 0;
#X connect 113 0 105 0;
#X connect 113 0 191 0;
#X connect 113 0 132 0;
#X connect 114 0 28 0;
#X connect 114 0 192 0;
#X connect 115 0 103 0;
#X connect 116 0 190 0;
#X connect 116 1 99 0;
#X connect 116 1 191 0;
#X connect 116 1 113 3;
#X connect 116 2 100 0;
#X connect 116 2 192 0;
#X connect 116 3 20 0;
#X connect 116 4 19 0;
#X connect 116 5 108 0;
#X connect 116 5 112 0;
#X connect 116 6 40 0;
#X connect 117 0 118 0;
#X connect 118 0 116 0;
#X connect 119 0 8 0;
#X connect 120 0 122 0;
#X connect 121 0 111 0;
#X connect 122 0 121 1;
#X connect 126 0 127 0;
#X connect 126 0 129 1;
#X connect 127 0 128 1;
#X connect 128 0 130 0;
#X connect 129 0 82 0;
#X connect 130 0 72 1;
#X connect 130 0 75 0;
#X connect 130 0 52 1;
#X connect 130 0 64 1;
#X connect 132 0 25 1;
#X connect 132 0 26 1;
#X connect 132 0 27 1;
#X connect 132 0 114 0;
#X connect 133 0 134 0;
#X connect 133 0 137 0;
#X connect 133 0 139 0;
#X connect 134 0 132 1;
#X connect 136 0 59 0;
#X connect 137 0 136 1;
#X connect 138 0 33 1;
#X connect 138 0 34 1;
#X connect 138 0 35 1;
#X connect 139 0 138 1;
#X connect 140 0 40 0;
#X connect 141 0 153 0;
#X connect 142 0 96 1;
#X connect 144 0 93 1;
#X connect 145 0 95 1;
#X connect 149 0 94 1;
#X connect 150 0 127 0;
#X connect 150 0 129 1;
#X connect 153 0 79 0;
#X connect 154 0 156 1;
#X connect 156 0 34 0;
#X connect 156 1 157 0;
#X connect 157 0 34 0;
#X connect 159 0 137 0;
#X connect 159 0 134 0;
#X connect 159 0 139 0;
#X connect 164 0 165 0;
#X connect 165 0 69 1;
#X connect 166 0 164 0;
#X connect 167 0 168 0;
#X connect 167 0 169 0;
#X connect 167 0 170 0;
#X connect 167 0 187 0;
#X connect 168 0 159 0;
#X connect 168 0 149 0;
#X connect 169 0 1 0;
#X connect 170 0 141 0;
#X connect 171 0 39 0;
#X connect 173 0 174 1;
#X connect 174 0 183 0;
#X connect 175 0 186 0;
#X connect 175 1 186 1;
#X connect 176 0 177 0;
#X connect 177 0 178 0;
#X connect 177 0 179 0;
#X connect 179 0 180 0;
#X connect 179 0 184 0;
#X connect 181 0 185 0;
#X connect 182 0 173 0;
#X connect 183 0 181 0;
#X connect 183 1 176 0;
#X connect 184 0 181 1;
#X connect 185 0 131 0;
#X connect 185 0 119 1;
#X connect 186 0 174 0;
#X connect 187 0 150 0;
#X connect 188 0 189 0;
#X connect 189 0 134 0;
#X connect 189 0 137 0;
#X connect 189 0 139 0;
#X connect 190 0 102 0;
#X connect 191 0 102 0;
#X connect 192 0 102 0;
#X connect 193 0 102 0;
#X connect 194 0 102 0;
#X connect 195 0 102 0;
#X connect 196 0 102 0;
#X connect 198 0 197 0;
#X coords 0 -1 1 1 300 100 2 100 100;
#X restore 40 -925 pd 303seq;
#X obj 42 -1602 ctlin;
#X floatatom 39 -1581 5 0 0 0 - - -, f 5;
#X floatatom 74 -1581 5 0 0 0 - - -, f 5;
#N canvas 777 316 396 541 buttons 0;
#X obj 110 -65 wiringPi pin 20 input;
#X obj 85 -347 tgl 15 0 empty empty empty 17 7 0 10 -262144 -1 -1 0
1;
#X floatatom 151 -354 5 0 0 0 - - -, f 5;
#X obj 109 -376 loadbang;
#X obj 111 -42 edge;
#X obj 110 -279 edge;
#X obj 108 -203 edge;
#X obj 109 -107 edge;
#X obj 110 -334 metro 20;
#X obj 108 -303 wiringPi pin 21 input;
#X obj 107 -227 wiringPi pin 12 input;
#X obj 108 -131 wiringPi pin 16 input;
#X obj 147 -273 s but1;
#X obj 142 -200 s but2;
#X obj 145 -105 s but3;
#X obj 145 -43 s but4;
#X obj 154 9 s buttons;
#X msg 142 -251 0;
#X msg 141 -177 1;
#X msg 144 -85 2;
#X msg 134 -20 3;
#X obj 26 23 r page;
#X obj 84 24 r buttons;
#X obj 27 101 pack 0 0;
#X obj 25 68 f;
#X obj 84 47 t b f;
#X obj 27 124 s page&button;
#X connect 0 0 4 0;
#X connect 1 0 8 0;
#X connect 2 0 8 1;
#X connect 3 0 8 0;
#X connect 4 1 15 0;
#X connect 4 1 20 0;
#X connect 5 1 12 0;
#X connect 5 1 17 0;
#X connect 6 1 13 0;
#X connect 6 1 18 0;
#X connect 7 1 14 0;
#X connect 7 1 19 0;
#X connect 8 0 0 0;
#X connect 8 0 9 0;
#X connect 8 0 10 0;
#X connect 8 0 11 0;
#X connect 9 0 5 0;
#X connect 10 0 6 0;
#X connect 11 0 7 0;
#X connect 17 0 16 0;
#X connect 18 0 16 0;
#X connect 19 0 16 0;
#X connect 20 0 16 0;
#X connect 21 0 24 1;
#X connect 22 0 25 0;
#X connect 23 0 26 0;
#X connect 24 0 23 0;
#X connect 25 0 24 0;
#X connect 25 1 23 1;
#X restore 100 -1542 pd buttons;
#N canvas 455 596 796 314 pots 0;
#X obj 560 50 ctlin 81;
#X text 560 73 xadj;
#X text 622 76 yadj;
#X obj 622 53 ctlin 91;
#X obj 567 132 ctlin 2;
#X obj 629 135 ctlin 19;
#X text 485 143 panellowright;
#X obj 495 130 ctlin 80;
#X obj 398 126 ctlin 74;
#X text 394 148 panellowleft;
#X obj 390 55 ctlin 16;
#X text 386 77 panelmiddle;
#X obj 477 53 ctlin 71;
#X text 468 71 panelbottom;
#X text 567 155 x;
#X text 629 158 y;
#X obj 561 183 s joyx;
#X obj 632 188 s joyy;
#X obj 563 92 s xadj;
#X obj 634 97 s yadj;
#X obj 399 192 s panleft;
#X obj 470 197 s panright;
#X obj 401 101 s panmid;
#X obj 472 106 s panbot;
#X obj 292 57 ctlin 7;
#X text 288 79 paneltop;
#X obj 290 114 s pantop;
#X obj 192 88 pack 0 0;
#X obj 191 42 t b f;
#X obj 192 111 s editpots;
#X obj 119 42 t b f;
#X obj 120 111 s editpots;
#X obj 120 88 pack 1 0;
#X obj 243 161 r joyx;
#X obj 244 202 *;
#X obj 261 181 r xadj;
#X obj 210 225 s joyxfin;
#X obj 24 51 r editpots;
#X obj 24 112 route 0 1;
#X obj 24 79 t b l;
#X obj 23 143 pack 0 0 0;
#X obj 7 28 r page;
#X obj -9 110 f;
#X floatatom 21 218 5 0 0 0 - - -, f 5;
#X obj 22 193 unpack 0 0 0;
#X floatatom 56 218 5 0 0 0 - - -, f 5;
#X floatatom 103 215 5 0 0 0 - - -, f 5;
#X obj 22 168 s page&pots;
#X connect 0 0 18 0;
#X connect 3 0 19 0;
#X connect 4 0 16 0;
#X connect 5 0 17 0;
#X connect 7 0 21 0;
#X connect 8 0 20 0;
#X connect 10 0 22 0;
#X connect 10 0 28 0;
#X connect 12 0 23 0;
#X connect 12 0 30 0;
#X connect 24 0 26 0;
#X connect 27 0 29 0;
#X connect 28 0 27 0;
#X connect 28 1 27 1;
#X connect 30 0 32 0;
#X connect 30 1 32 1;
#X connect 32 0 31 0;
#X connect 33 0 34 0;
#X connect 34 0 36 0;
#X connect 35 0 34 1;
#X connect 37 0 39 0;
#X connect 38 0 40 1;
#X connect 38 1 40 2;
#X connect 39 0 42 0;
#X connect 39 1 38 0;
#X connect 40 0 44 0;
#X connect 40 0 47 0;
#X connect 41 0 42 1;
#X connect 42 0 40 0;
#X connect 44 0 43 0;
#X connect 44 1 45 0;
#X connect 44 2 46 0;
#X restore 99 -1521 pd pots;
#N canvas 710 340 450 300 randomcvs 0;
#X obj 73 -17 tgl 15 0 empty empty empty 17 7 0 10 -262144 -1 -1 0
1;
#X obj 72 2 metro 600;
#X obj 72 23 random 8096;
#X floatatom 123 -20 5 0 0 0 - - -, f 5;
#X obj 159 -22 tgl 15 0 empty empty empty 17 7 0 10 -262144 -1 -1 0
1;
#X obj 158 -3 metro 600;
#X obj 161 26 random 8096;
#X floatatom 201 -28 5 0 0 0 - - -, f 5;
#X obj 103 68 s tocv1;
#X obj 180 71 s tocv2;
#X connect 0 0 1 0;
#X connect 1 0 2 0;
#X connect 2 0 8 0;
#X connect 3 0 1 1;
#X connect 4 0 5 0;
#X connect 5 0 6 0;
#X connect 6 0 9 0;
#X connect 7 0 5 1;
#X restore 179 -1529 pd randomcvs;
#N canvas 1499 332 450 300 lfo1 0;
#X obj 234 75 r joyy;
#X floatatom 108 121 5 0 0 0 - - -, f 5;
#X obj 195 10 snapshot~;
#X obj 136 41 * 8000;
#X floatatom 108 140 5 0 0 0 - - -, f 5;
#X obj 234 -38 bang~;
#X obj 142 -15 osc~ 1000;
#X obj 170 13 + 1;
#X obj 201 112 r yadj;
#X obj -12 91 s lfocv1;
#X obj 296 71 loadbang;
#X msg 296 94 0;
#X obj 155 101 vsl 18 52 0 8000 0 0 empty empty empty 0 -9 0 10 -262144
-1 -1 0 1;
#X obj 58 64 change;
#X floatatom 197 47 5 0 0 0 - - -, f 5;
#X obj 138 204 switch~;
#X obj 137 102 tgl 15 0 empty empty empty 17 7 0 10 -262144 -1 -1 0
1;
#X connect 0 0 3 1;
#X connect 1 0 6 0;
#X connect 2 0 7 0;
#X connect 3 0 13 0;
#X connect 3 0 9 0;
#X connect 4 0 3 1;
#X connect 6 0 2 0;
#X connect 7 0 3 0;
#X connect 8 0 1 0;
#X connect 10 0 11 0;
#X connect 11 0 3 1;
#X connect 13 0 12 0;
#X connect 14 0 3 1;
#X connect 16 0 15 0;
#X coords 0 -1 1 1 85 60 1 100 100;
#X restore 599 -745 pd lfo1;
#N canvas 1715 199 978 504 multienv 0;
#X floatatom 128 312 5 0 0 0 - - -, f 5;
#X obj 118 274 * 8000;
#X floatatom 180 256 5 0 0 0 - - -, f 5;
#X msg 442 205 0 \$2;
#X obj 202 3 vsl 15 128 0 300 0 0 empty empty empty 0 -9 0 10 -262144
-1 -1 0 1;
#X obj 231 2 vsl 15 128 0 500 0 0 empty empty empty 0 -9 0 10 -262144
-1 -1 0 1;
#X obj 266 2 vsl 15 128 0 1 0 0 empty empty empty 0 -9 0 10 -262144
-1 -1 0 1;
#X obj 507 2 vsl 15 128 0 1000 0 0 empty empty empty 0 -9 0 10 -262144
-1 -1 0 1;
#X floatatom 200 140 5 0 0 0 - - -, f 5;
#X floatatom 234 140 5 0 0 0 - - -, f 5;
#X floatatom 267 141 5 0 0 0 - - -, f 5;
#X floatatom 509 141 5 0 0 0 - - -, f 5;
#X obj 547 186 sel 0;
#X obj 445 187 pack f f;
#X obj 157 223 vline~;
#X obj 298 2 vsl 15 128 0 500 0 0 empty empty empty 0 -9 0 10 -262144
-1 -1 0 1;
#X obj 332 2 vsl 15 128 0 1 0 0 empty empty empty 0 -9 0 10 -262144
-1 -1 0 1;
#X floatatom 300 141 5 0 0 0 - - -, f 5;
#X floatatom 333 141 5 0 0 0 - - -, f 5;
#X obj 131 41 bng 25 250 50 0 empty empty empty 17 7 0 10 -262144 -1
-1;
#X obj 371 2 vsl 15 128 0 500 0 0 empty empty empty 0 -9 0 10 -262144
-1 -1 0 1;
#X obj 408 2 vsl 15 128 0 1 0 0 empty empty empty 0 -9 0 10 -262144
-1 -1 0 1;
#X floatatom 372 141 5 0 0 0 - - -, f 5;
#X floatatom 409 141 5 0 0 0 - - -, f 5;
#X obj 140 168 pack f f f f f f f f f f;
#X obj 446 2 vsl 15 128 0 500 0 0 empty empty empty 0 -9 0 10 -262144
-1 -1 0 1;
#X obj 476 2 vsl 15 128 0 1 0 0 empty empty empty 0 -9 0 10 -262144
-1 -1 0 1;
#X floatatom 442 141 5 0 0 0 - - -, f 5;
#X floatatom 476 141 5 0 0 0 - - -, f 5;
#X msg 157 192 1 \$2 \, \$4 \$3 \$2 \, \$6 \$5 \$3 \, \$8 \$7 \$5 \,
\$10 \$9 \$7;
#X obj 82 248 snapshot~;
#X obj 74 210 bang~;
#N canvas 0 22 450 300 (subpatch) 0;
#X array env 80000 float 2 black black;
#X coords 0 1 80000 0 80 61 1;
#X restore 109 89 graph;
#X msg 265 289 1 \$2 \, \$4 \$3 \$2 \, \$6 \$5 \$3 \, \$8 \$7 \$5 \,
\$10 \$9 \$7;
#X obj 264 351 t b f;
#X obj 322 372 counter;
#X floatatom 345 404 5 0 0 0 - - -, f 5;
#X obj 269 236 bng 15 250 50 0 empty empty empty 17 7 0 10 -262144
-1 -1;
#X obj 269 256 t b b;
#X msg 333 249 0;
#X msg 183 351 1000 8000;
#X obj 263 319 line;
#X obj 156 412 tabwrite~ env;
#X obj 36 127 switch~;
#X obj 164 40 tgl 24 0 empty empty empty 17 7 0 10 -262144 -1 -1 0
1;
#X connect 1 0 0 0;
#X connect 2 0 1 1;
#X connect 3 0 14 0;
#X connect 4 0 8 0;
#X connect 4 0 24 1;
#X connect 5 0 9 0;
#X connect 5 0 24 2;
#X connect 6 0 10 0;
#X connect 6 0 24 3;
#X connect 7 0 11 0;
#X connect 7 0 13 1;
#X connect 12 0 13 0;
#X connect 13 0 3 0;
#X connect 14 0 30 0;
#X connect 14 0 42 0;
#X connect 15 0 17 0;
#X connect 15 0 24 4;
#X connect 16 0 18 0;
#X connect 16 0 24 5;
#X connect 19 0 24 0;
#X connect 19 0 42 0;
#X connect 20 0 22 0;
#X connect 20 0 24 6;
#X connect 21 0 23 0;
#X connect 21 0 24 7;
#X connect 24 0 29 0;
#X connect 24 0 33 0;
#X connect 25 0 27 0;
#X connect 25 0 24 8;
#X connect 26 0 28 0;
#X connect 26 0 24 9;
#X connect 29 0 14 0;
#X connect 30 0 1 0;
#X connect 31 0 30 0;
#X connect 34 0 35 0;
#X connect 35 0 36 0;
#X connect 37 0 38 0;
#X connect 38 0 33 0;
#X connect 38 0 40 0;
#X connect 38 1 39 0;
#X connect 39 0 35 3;
#X connect 40 0 41 0;
#X connect 41 0 34 0;
#X connect 44 0 43 0;
#X coords 0 -1 1 1 450 170 1 100 0;
#X restore 371 -930 pd multienv;
#N canvas 1758 203 883 699 lcd 0;
#X obj 253 -324 t b b;
#X obj 296 -323 t b b;
#X msg 270 -298 0;
#X msg 322 -299 1;
#X msg 356 -300 0;
#X floatatom 277 -244 5 0 0 0 - - -, f 5;
#X obj 459 -181 s livemode;
#X msg 437 -209 1;
#X obj 486 -251 != 10;
#X msg 500 -205 0;
#X obj 496 -231 edge;
#X obj 55 -7 s page;
#X obj 271 -269 counter 0 0 11;
#X obj 226 155 r tolcd;
#X obj 76 97 s tolcd;
#X msg 76 67 lcd 0 1 \$1heloo;
#X msg 71 41 100;
#X obj 180 -255 r pantop;
#X obj 181 -207 i;
#X obj 182 -185 change;
#X obj 182 -314 loadbang;
#X msg 182 -291 0;
#X obj 146 -122 tgl 26 0 empty empty empty 17 7 0 10 -262144 -1 -1
0 1;
#X obj 145 -67 f;
#X obj 182 -64 + 1;
#X msg 94 -57 0;
#X obj 62 -36 f;
#X obj 142 -91 metro 1;
#X obj 138 -39 > 500;
#X obj 50 -145 sel 0 1;
#X obj 136 -173 t b;
#X msg 141 -150 1;
#X msg 597 -52 lcd 0 0 SEQ|rec|div|dirprob|vel|;
#X msg 599 -33 lcd 0 0 LFO|rate|shp|delLFO|rate|shp|del;
#X msg 599 -11 lcd 0 0 OSC|fine|mod|det||A|||D|||S|||R|;
#X msg 600 9 lcd 0 0 [T1][L1][T2][L2][T3][L3][T4][L4];
#X msg 598 30 lcd 0 0 [T5][L5][T6][L6][T7][L7][T8][L8];
#X msg 598 51 lcd 0 0 FX||rev|time|damdel|fine|fb|mix|;
#X msg 603 81 lcd 0 0 DEL|lpf|hpf|fbk|TIME|1|2|3|4||;
#X msg 621 104 lcd 0 0 SAMP|rec|trg|revpit|fine|str|fine;
#X msg 598 127 lcd 0 0 LOOP|rec|trg|revdiv|div|pit|fine;
#X msg 608 151 lcd 0 0 NOTE_|||VEL__|||PBND||||MOD__|||;
#X msg 622 174 lcd 0 0 SAVE|all|seq|patsamp|loop;
#X msg 599 -72 lcd 0 0 REC_Stepxx_LENxxSLID_ACC_GAP_RND;
#X msg 356 93 send 0 0 CV2__;
#X msg 273 49 send 0 0 LOOP_;
#X msg 296 25 send 0 0 SAMP_;
#X msg 273 -5 send 0 0 FX__2;
#X msg 273 -27 send 0 0 FX__1;
#X msg 273 -48 send 0 0 ENV_2;
#X msg 275 -69 send 0 0 ENV_1;
#X msg 274 -89 send 0 0 OSC_1;
#X msg 274 -111 send 0 0 CLOCK;
#X msg 271 -130 send 0 0 REC_2;
#X msg 274 -150 send 0 0 REC_1;
#X obj 270 109 s netmsg;
#X msg 199 65 send 18;
#X obj 275 -227 t f b;
#X obj 238 -188 f;
#X obj 338 -222 delay 10;
#X obj 278 -174 sel 0 1 2 3 4 5 6 7 8 9 10 11 12 13 14 15 16 17 18
19 20;
#X msg 331 162 send 0 0 QUIT_;
#X floatatom 200 -137 5 0 0 0 - - -, f 5;
#X obj 181 -230 / 6.35;
#X msg 370 128 send 0 0 SYSTM;
#X connect 0 0 12 0;
#X connect 0 1 2 0;
#X connect 1 0 12 0;
#X connect 1 1 3 0;
#X connect 2 0 12 1;
#X connect 3 0 12 1;
#X connect 4 0 12 3;
#X connect 7 0 6 0;
#X connect 8 0 10 0;
#X connect 9 0 6 0;
#X connect 10 0 9 0;
#X connect 12 0 5 0;
#X connect 12 0 57 0;
#X connect 13 0 55 0;
#X connect 15 0 14 0;
#X connect 16 0 15 0;
#X connect 17 0 63 0;
#X connect 18 0 19 0;
#X connect 19 0 26 1;
#X connect 19 0 30 0;
#X connect 19 0 57 0;
#X connect 20 0 21 0;
#X connect 22 0 27 0;
#X connect 23 0 24 0;
#X connect 23 0 28 0;
#X connect 24 0 23 1;
#X connect 25 0 22 0;
#X connect 25 0 23 1;
#X connect 26 0 11 0;
#X connect 27 0 23 0;
#X connect 28 0 29 0;
#X connect 29 1 25 0;
#X connect 29 1 26 0;
#X connect 30 0 31 0;
#X connect 31 0 22 0;
#X connect 44 0 55 0;
#X connect 45 0 55 0;
#X connect 46 0 55 0;
#X connect 47 0 55 0;
#X connect 48 0 55 0;
#X connect 49 0 55 0;
#X connect 50 0 55 0;
#X connect 51 0 55 0;
#X connect 52 0 55 0;
#X connect 53 0 55 0;
#X connect 54 0 55 0;
#X connect 56 0 55 0;
#X connect 57 0 58 1;
#X connect 57 1 56 0;
#X connect 57 1 59 0;
#X connect 58 0 8 0;
#X connect 58 0 60 0;
#X connect 58 0 62 0;
#X connect 59 0 58 0;
#X connect 60 0 54 0;
#X connect 60 1 53 0;
#X connect 60 2 52 0;
#X connect 60 3 51 0;
#X connect 60 4 50 0;
#X connect 60 5 49 0;
#X connect 60 6 48 0;
#X connect 60 7 47 0;
#X connect 60 8 45 0;
#X connect 60 9 46 0;
#X connect 60 10 44 0;
#X connect 60 10 7 0;
#X connect 60 19 64 0;
#X connect 60 20 61 0;
#X connect 61 0 55 0;
#X connect 63 0 18 0;
#X connect 64 0 55 0;
#X restore 56 -1520 pd lcd;
#X obj 127 -1627 bendin;
#N canvas 2027 130 755 801 cvgates 0;
#X floatatom 115 225 5 0 0 0 - - -, f 5;
#X floatatom 230 328 5 0 0 0 - - -, f 5;
#X obj 168 279 stripnote;
#X obj 164 300 * 41.6667;
#X obj 234 306 * 32;
#X obj 133 670 wiringPi pin 26 output;
#X obj 103 117 tgl 40 0 empty empty empty 17 7 0 10 -262144 -1 -1 0
1;
#X obj 181 535 sel 0;
#X obj 134 514 > 0;
#X obj 136 536 sel 1;
#X obj 147 577 counter;
#X msg 146 555 inc;
#X msg 179 556 dec;
#X floatatom 179 602 5 0 0 0 - - -, f 5;
#X obj 141 600 > 0;
#X obj 141 622 sel 1;
#X obj 176 622 sel 0;
#X msg 176 644 0;
#X msg 142 642 1;
#X obj 123 470 s tocv1;
#X obj 176 471 s tocv2;
#X msg 176 707 0;
#X msg 142 705 1;
#X obj 133 733 wiringPi pin 5 output;
#X text 215 709 gate 3;
#X text 272 670 gate 4;
#X obj 90 703 r gate3;
#X obj 83 647 r gate4;
#X obj 118 196 notein 1;
#X msg 184 832 0;
#X msg 150 830 1;
#X msg 186 773 0;
#X msg 152 771 1;
#X obj 100 769 r gate1;
#X obj 98 828 r gate2;
#X obj 143 799 wiringPi pin 19 output;
#X obj 140 859 wiringPi pin 13 output;
#X text 225 775 gate 1;
#X text 223 834 gate 2;
#X obj 157 409 pack 0 0;
#X obj 155 434 line 0 1;
#X obj 192 363 r panright;
#X obj 194 387 * 2;
#X obj 196 181 r isplaying;
#X obj 165 255 spigot;
#X obj 163 232 spigot;
#X obj 197 205 invert;
#X obj 321 408 wiringPi;
#X msg 321 323 spi_write 0 \$1;
#X msg 475 256 spi_write 1 \$1;
#X obj 321 356 loadbang;
#X obj 325 300 r tocv1;
#X obj 476 227 r tocv2;
#X obj 478 338 wiringPi;
#X msg 322 380 spi_init 0 262144;
#X msg 478 306 spi_init 1 262144;
#X obj 282 277 +;
#X obj 317 271 +;
#X obj 480 283 loadbang;
#X obj 315 218 r lfocv1;
#X obj 347 268 r joyxfin;
#X obj 397 546 r seq1acc;
#X obj 472 542 r seq1gate;
#X obj 548 538 r seq1note;
#X obj 546 578 s tocv1;
#X obj 399 585 s gate3;
#X obj 472 585 s gate4;
#X obj 396 627 r seq2acc;
#X obj 472 623 r seq2gate;
#X obj 548 619 r seq2note;
#X obj 399 666 s gate1;
#X obj 472 666 s gate2;
#X obj 546 659 s tocv2;
#X floatatom 285 102 5 0 0 0 - - -, f 5;
#X floatatom 285 128 5 0 0 0 - - -, f 5;
#X obj 146 117 tgl 40 0 empty empty empty 17 7 0 10 -262144 -1 -1 0
1;
#X obj 187 117 tgl 40 0 empty empty empty 17 7 0 10 -262144 -1 -1 0
1;
#X obj 228 117 tgl 40 0 empty empty empty 17 7 0 10 -262144 -1 -1 0
1;
#X obj 163 46 r gate3;
#X obj 181 72 r gate4;
#X obj 137 -3 r gate1;
#X obj 146 23 r gate2;
#X obj 521 151 switch~;
#X obj 269 139 tgl 15 0 empty empty empty 17 7 0 10 -262144 -1 -1 0
1;
#X connect 2 0 3 0;
#X connect 2 1 4 0;
#X connect 3 0 39 0;
#X connect 4 0 1 0;
#X connect 7 0 12 0;
#X connect 8 0 9 0;
#X connect 9 0 11 0;
#X connect 10 0 13 0;
#X connect 10 0 14 0;
#X connect 10 0 15 0;
#X connect 10 0 16 0;
#X connect 11 0 10 0;
#X connect 12 0 10 0;
#X connect 14 0 15 0;
#X connect 15 0 18 0;
#X connect 16 0 17 0;
#X connect 17 0 5 0;
#X connect 17 0 36 0;
#X connect 18 0 5 0;
#X connect 18 0 36 0;
#X connect 21 0 23 0;
#X connect 22 0 23 0;
#X connect 26 0 23 0;
#X connect 27 0 5 0;
#X connect 28 0 0 0;
#X connect 28 0 44 0;
#X connect 28 1 45 0;
#X connect 29 0 36 0;
#X connect 30 0 36 0;
#X connect 31 0 35 0;
#X connect 32 0 35 0;
#X connect 33 0 35 0;
#X connect 34 0 36 0;
#X connect 39 0 40 0;
#X connect 40 0 19 0;
#X connect 40 0 20 0;
#X connect 41 0 42 0;
#X connect 42 0 39 1;
#X connect 43 0 46 0;
#X connect 44 0 2 0;
#X connect 45 0 2 1;
#X connect 45 0 8 0;
#X connect 45 0 7 0;
#X connect 46 0 45 1;
#X connect 46 0 44 1;
#X connect 48 0 47 0;
#X connect 49 0 53 0;
#X connect 50 0 54 0;
#X connect 51 0 48 0;
#X connect 51 0 73 0;
#X connect 52 0 49 0;
#X connect 52 0 74 0;
#X connect 54 0 47 0;
#X connect 55 0 53 0;
#X connect 57 0 56 0;
#X connect 58 0 55 0;
#X connect 59 0 57 0;
#X connect 60 0 56 1;
#X connect 61 0 65 0;
#X connect 62 0 66 0;
#X connect 63 0 64 0;
#X connect 67 0 70 0;
#X connect 68 0 71 0;
#X connect 69 0 72 0;
#X connect 78 0 76 0;
#X connect 79 0 77 0;
#X connect 80 0 6 0;
#X connect 81 0 75 0;
#X connect 83 0 82 0;
#X coords 0 -1 1 1 220 60 1 100 100;
#X restore 360 -685 pd cvgates;
#X floatatom 309 -1649 5 0 0 0 - - -, f 5;
#X msg 271 -1733 1;
#X msg 330 -1733 3;
#X msg 301 -1733 2;
#X msg 359 -1734 4;
#X msg 389 -1734 5;
#X msg 418 -1734 6;
#X msg 449 -1734 7;
#X msg 478 -1734 8;
#X msg 271 -1706 9;
#X msg 301 -1706 10;
#X msg 330 -1706 11;
#X msg 359 -1707 12;
#X msg 389 -1707 13;
#X msg 418 -1707 14;
#X msg 449 -1707 15;
#X msg 478 -1707 16;
#X obj 93 -1715 table patternnote 60000;
#X obj 96 -1692 table patternacc 60000;
#X obj 90 -1667 table patternslide 60000;
#N canvas 1654 22 1293 957 303seq 0;
#X obj 331 120 tgl 15 0 empty empty empty 17 7 0 10 -262144 -1 -1 0
1;
#X floatatom 363 121 5 0 0 0 - - -, f 5;
#X floatatom -40 69 5 0 0 0 - - -, f 5;
#X obj 2 41 metro 150;
#X obj 138 282 counter 15;
#X obj 175 696 f, f 4;
#X text 1023 521 accent;
#X text 1068 521 slide;
#X obj 284 863 * 41.6667;
#X obj 355 679 spigot;
#X obj -3 68 counter 5;
#X obj 140 253 sel 0;
#X msg 354 699 0;
#X msg 324 703 1;
#X obj 176 718 sel 1 0;
#X msg 201 740 0;
#X msg 172 741 1;
#X obj -6 161 r stepclk;
#X floatatom 310 775 5 0 0 0 - - -, f 5;
#X obj 946 525 tgl 15 0 empty empty empty 17 7 0 10 -262144 -1 -1 0
1;
#X obj 1066 502 tgl 15 0 empty empty empty 17 7 0 10 -262144 -1 -1
0 1;
#X obj 938 425 tabread patternslide;
#X obj 938 373 tabread patternacc;
#X msg 938 446 set \$1;
#X msg 938 395 set \$1;
#X obj 806 570 tabwrite patternnote;
#X obj 948 570 tabwrite patternacc;
#X obj 1072 570 tabwrite patternslide;
#X floatatom 665 473 5 0 0 0 - - -, f 5;
#X obj 319 333 tabread patternslide;
#X obj 170 679 tabread patternacc;
#X obj 186 337 tabread patternnote;
#X obj 190 364 sel 0;
#X obj 440 250 tabwrite patternnote;
#X obj 781 159 tabwrite patternacc;
#X obj 902 191 tabwrite patternslide;
#X obj 702 72 f;
#X obj 736 80 + 1;
#X obj 639 71 t b b;
#X msg 704 173 0;
#X obj 737 21 tgl 15 0 empty empty empty 17 7 0 10 -262144 -1 -1 0
1;
#X floatatom 695 201 5 0 0 0 - - -, f 5;
#X obj 794 22 random 2;
#X obj 875 48 random 2;
#X floatatom 489 165 3 0 100 0 - - -, f 3;
#X text 515 165 <-- change probablilty;
#X msg 490 218 0;
#X obj 351 28 sel 1;
#X obj 297 505 timer;
#X obj 297 488 t b b;
#X text 325 798 transpose;
#X obj -6 188 t f f f f;
#X obj 297 554 f;
#X obj 295 577 pack 0 0;
#X obj 164 414 spigot;
#X text 311 524 new value;
#X obj 290 609 f;
#X text 329 356 old value;
#X msg 288 629 \$1 0;
#X obj 115 340 t f b b f;
#X obj 399 458 sel 1 0;
#X msg 399 481 0;
#X msg 425 481 1;
#X obj 391 507 spigot;
#X obj 392 534 f;
#X obj 293 653 line 0 1;
#X obj 164 440 spigot;
#X obj 542 90 random 38;
#X floatatom 343 500 5 0 0 0 - - -, f 5;
#X obj 335 550 + 1;
#X obj 170 650 spigot;
#X obj 482 472 tgl 15 0 empty empty empty 17 7 0 10 -262144 -1 -1 0
1;
#X obj 168 622 spigot;
#X floatatom 988 40 3 0 100 0 - - -, f 3;
#X msg 904 101 0;
#X obj 313 678 t b b;
#X obj 47 207 sel 5;
#X obj 248 266 r reset;
#X msg 246 289 0;
#X floatatom 229 245 5 0 0 0 - - -, f 5;
#X obj 352 57 random 32;
#X obj 253 466 loadbang;
#N canvas 142 181 1176 548 scaler 0;
#X obj 33 23 inlet;
#X obj 301 26 inlet;
#X obj 38 433 outlet;
#X obj 66 85 int;
#X floatatom 63 106 5 0 0 0 - - -, f 5;
#X obj 169 147 mod 7;
#X text 212 146 <-- [mod ] handles negative numbers differently than
[% ];
#X obj 244 190 div 7;
#X obj 169 90 t f f;
#X floatatom 301 234 5 0 0 0 - - -, f 5;
#X floatatom 182 407 5 0 0 0 - - -, f 5;
#X floatatom 132 208 5 0 0 0 - - -, f 5;
#X obj 238 270 * 12;
#X obj 179 337 +;
#X text 291 186 <-- division that discards the remainder. This tells
you what octave to use.;
#X text 223 377 <-- offset;
#X obj 176 305 tabread scale;
#X obj 269 71 r scale_length;
#X obj 179 379 + 0;
#X obj 239 232 mod 2;
#X connect 0 0 3 0;
#X connect 1 0 18 1;
#X connect 3 0 4 0;
#X connect 4 0 8 0;
#X connect 5 0 11 0;
#X connect 5 0 16 0;
#X connect 7 0 19 0;
#X connect 8 0 5 0;
#X connect 8 1 7 0;
#X connect 10 0 2 0;
#X connect 12 0 13 1;
#X connect 13 0 18 0;
#X connect 16 0 13 0;
#X connect 17 0 5 1;
#X connect 17 0 7 1;
#X connect 18 0 10 0;
#X connect 19 0 12 0;
#X connect 19 0 9 0;
#X restore 182 491 pd scaler;
#X msg 253 490 0;
#X floatatom 484 70 3 0 100 0 - - -, f 3;
#X obj 451 148 f;
#X obj 439 124 t b;
#X obj 737 -7 inlet;
#X obj 237 215 inlet;
#X obj 480 22 inlet;
#X obj 486 138 inlet;
#X obj 936 39 inlet;
#X obj 354 780 inlet;
#X obj 441 193 moses 20;
#X obj 294 798 + 12;
#X obj 918 74 moses 1;
#X obj 439 96 moses 45;
#X obj 340 478 inlet;
#X obj 661 641 s tolcd;
#X floatatom 617 340 5 0 0 0 - - -, f 5;
#X floatatom 637 360 5 0 0 0 - - -, f 5;
#X obj 639 34 metro 1;
#X obj 656 611 spigot;
#X obj 685 586 == 0;
#X floatatom 185 248 5 0 0 0 - - -, f 5;
#X floatatom 665 414 5 0 0 0 - - -, f 5;
#X obj 943 689 sel 0 1;
#X obj 951 610 sel 0 1;
#X msg 805 532 0;
#X obj 762 264 notein 1;
#X obj 757 293 stripnote;
#X obj 821 347 t b f;
#X msg 672 355 inc;
#X obj 669 378 counter 15;
#X obj 665 450 tabread patternnote;
#X obj 680 562 r page;
#N canvas 1640 313 649 504 pagesel 0;
#X obj 90 163 outlet;
#X obj 93 78 r page;
#X obj 93 101 sel 0;
#X obj 93 124 delay 200;
#X obj 97 30 inlet;
#X obj 233 86 r page&pots;
#X obj 233 109 route 0;
#X obj 233 132 unpack 0 0;
#X obj 223 168 outlet;
#X obj 285 172 outlet;
#X obj 370 104 route 0;
#X obj 370 81 r page&button;
#X obj 370 127 sel 0 1 2 3;
#X obj 357 184 outlet;
#X obj 399 192 outlet;
#X obj 428 212 outlet;
#X obj 470 220 outlet;
#X connect 1 0 2 0;
#X connect 2 0 3 0;
#X connect 3 0 0 0;
#X connect 4 0 2 1;
#X connect 4 0 10 1;
#X connect 4 0 6 1;
#X connect 5 0 6 0;
#X connect 6 0 7 0;
#X connect 7 0 8 0;
#X connect 7 1 9 0;
#X connect 10 0 12 0;
#X connect 11 0 10 0;
#X connect 12 0 13 0;
#X connect 12 1 14 0;
#X connect 12 2 15 0;
#X connect 12 3 16 0;
#X restore 608 298 pd pagesel;
#X obj 607 251 loadbang;
#X obj 288 826 +;
#X obj 829 260 r isplaying;
#X obj 819 323 spigot;
#X obj 828 281 invert;
#X obj 229 355 inlet;
#X obj 245 384 invert;
#X obj 213 409 spigot;
#X obj 215 433 spigot;
#X obj 197 530 f;
#X floatatom 457 823 5 0 0 0 - - -, f 5;
#X obj 852 525 +;
#X obj 867 467 inlet;
#X obj 869 489 * 128;
#X obj 888 524 +;
#X obj 83 327 +;
#X obj 101 311 * 128;
#X obj 567 216 +;
#X obj 582 190 * 128;
#X obj 129 170 bng 15 250 50 0 empty empty empty 17 7 0 10 -262144
-1 -1;
#X floatatom 111 123 5 0 0 0 - - -, f 5;
#X floatatom 171 170 5 0 100 0 - - -, f 5;
#X text 165 149 probrep;
#X floatatom 223 170 5 0 100 0 - - -, f 5;
#X floatatom 278 170 5 0 100 0 - - -, f 5;
#X text 212 149 probzero;
#X text 269 149 probslide;
#X text 105 104 length;
#X floatatom 241 123 5 -24 24 0 - - -, f 5;
#X obj 210 123 tgl 15 0 empty empty empty 17 7 0 10 -262144 -1 -1 1
1;
#X text 204 105 scale;
#X text 105 149 randomise;
#X obj 138 211 - 1;
#X floatatom 341 170 5 0 100 0 - - -, f 5;
#X text 332 149 probacc;
#X obj 801 85 moses 1;
#X msg 826 114 0;
#X text 154 104 pattern;
#X floatatom 155 124 5 0 0 0 - - -, f 5;
#X text 329 104 GO;
#X text 362 103 speed;
#X text 237 104 trans;
#X text 283 103 porta;
#X floatatom 284 123 5 0 5000 0 - - -, f 5;
#X obj 296 244 - 127;
#X obj 240 32 r panright;
#X obj 154 24 loadbang;
#X msg 154 47 0;
#X msg 183 47 20;
#X msg 122 43 15;
#X obj 704 150 sel 127;
#X obj 28 109 bng 15 250 50 0 empty empty empty 17 7 0 10 -262144 -1
-1;
#X msg 607 274 1, f 4;
#X obj 289 886 s seq2note;
#X obj 318 731 s seq2gate;
#X obj 166 776 s seq2acc;
#X obj 458 792 mod 12;
#X obj 674 740 tgl 15 0 empty empty empty 17 7 0 10 -262144 -1 -1 0
1;
#X obj 639 759 spigot;
#X obj 544 694 notein 1;
#X obj 627 793 / 12;
#X obj 627 816 i;
#X floatatom 627 839 5 0 0 0 - - -, f 5;
#X obj 626 860 mod 2;
#X floatatom 626 886 5 0 0 0 - - -, f 5;
#X obj 550 866 spigot;
#X obj 674 717 r isplaying;
#X obj 576 766 t f f b;
#X obj 729 873 invert;
#X obj 551 720 stripnote;
#X msg 214 56 1;
#X msg 472 540 send 0 0 STEPxxx_NOTExxx_SLID_ACC_H/S_RND;
#X msg 588 505 send 4 0 \$1;
#X msg 663 504 send 12 0 \$1;
#X msg 968 637 send 8 1 x;
#X msg 920 659 send 8 1 _;
#X msg 965 715 send 4 1 x;
#X msg 946 738 send 4 1 _;
#X obj 17 648 switch~;
#X obj 106 178 tgl 15 0 empty empty empty 17 7 0 10 -262144 -1 -1 0
1;
#X connect 0 0 3 0;
#X connect 1 0 3 1;
#X connect 3 0 10 0;
#X connect 3 0 168 0;
#X connect 4 0 132 0;
#X connect 5 0 14 0;
#X connect 8 0 170 0;
#X connect 9 0 12 0;
#X connect 10 0 2 0;
#X connect 10 0 51 0;
#X connect 11 0 4 0;
#X connect 11 0 49 0;
#X connect 12 0 171 0;
#X connect 13 0 171 0;
#X connect 14 0 16 0;
#X connect 15 0 172 0;
#X connect 16 0 172 0;
#X connect 17 0 51 0;
#X connect 18 0 94 1;
#X connect 19 0 26 0;
#X connect 19 0 107 0;
#X connect 20 0 27 0;
#X connect 20 0 106 0;
#X connect 21 0 23 0;
#X connect 21 0 106 0;
#X connect 22 0 24 0;
#X connect 22 0 107 0;
#X connect 23 0 20 0;
#X connect 24 0 19 0;
#X connect 29 0 54 1;
#X connect 29 0 60 0;
#X connect 29 0 66 1;
#X connect 30 0 5 0;
#X connect 31 0 32 0;
#X connect 32 0 9 0;
#X connect 32 1 125 0;
#X connect 32 1 124 0;
#X connect 36 0 37 0;
#X connect 36 0 41 0;
#X connect 36 0 134 0;
#X connect 36 0 167 0;
#X connect 37 0 36 1;
#X connect 38 0 42 0;
#X connect 38 0 43 0;
#X connect 38 0 67 0;
#X connect 38 1 36 0;
#X connect 39 0 36 1;
#X connect 39 0 40 0;
#X connect 40 0 47 0;
#X connect 40 0 101 0;
#X connect 42 0 152 0;
#X connect 43 0 95 0;
#X connect 44 0 93 1;
#X connect 46 0 33 0;
#X connect 47 0 80 0;
#X connect 48 0 69 0;
#X connect 49 0 48 0;
#X connect 49 1 48 1;
#X connect 51 3 11 0;
#X connect 51 3 76 0;
#X connect 52 0 56 1;
#X connect 52 0 53 0;
#X connect 53 0 65 0;
#X connect 54 0 56 0;
#X connect 56 0 58 0;
#X connect 58 0 65 0;
#X connect 59 0 72 0;
#X connect 59 1 66 0;
#X connect 59 2 54 0;
#X connect 59 2 63 0;
#X connect 59 3 31 0;
#X connect 59 3 29 0;
#X connect 60 0 61 0;
#X connect 60 1 62 0;
#X connect 61 0 63 1;
#X connect 61 0 71 0;
#X connect 61 0 70 1;
#X connect 61 0 9 1;
#X connect 62 0 63 1;
#X connect 62 0 71 0;
#X connect 62 0 70 1;
#X connect 62 0 9 1;
#X connect 63 0 64 0;
#X connect 64 0 94 0;
#X connect 65 0 94 0;
#X connect 66 0 52 0;
#X connect 67 0 96 0;
#X connect 68 0 69 1;
#X connect 69 0 53 1;
#X connect 70 0 30 0;
#X connect 72 0 70 0;
#X connect 73 0 95 1;
#X connect 74 0 35 0;
#X connect 75 0 13 0;
#X connect 76 0 15 0;
#X connect 76 0 9 0;
#X connect 77 0 78 0;
#X connect 78 0 4 3;
#X connect 78 0 113 3;
#X connect 79 0 4 4;
#X connect 79 0 113 4;
#X connect 80 0 137 0;
#X connect 81 0 83 0;
#X connect 82 0 126 0;
#X connect 83 0 82 1;
#X connect 84 0 96 1;
#X connect 85 0 93 0;
#X connect 86 0 85 0;
#X connect 87 0 40 0;
#X connect 88 0 79 0;
#X connect 89 0 84 0;
#X connect 90 0 44 0;
#X connect 91 0 95 1;
#X connect 92 0 94 1;
#X connect 93 0 33 0;
#X connect 93 1 46 0;
#X connect 94 0 118 0;
#X connect 95 0 35 0;
#X connect 95 1 74 0;
#X connect 96 0 85 1;
#X connect 96 0 93 0;
#X connect 96 1 86 0;
#X connect 97 0 68 0;
#X connect 101 0 38 0;
#X connect 102 0 98 0;
#X connect 103 0 102 1;
#X connect 104 0 4 3;
#X connect 106 0 194 0;
#X connect 106 1 193 0;
#X connect 107 0 192 0;
#X connect 107 1 191 0;
#X connect 108 0 25 0;
#X connect 109 0 110 0;
#X connect 109 1 110 1;
#X connect 110 0 120 0;
#X connect 111 0 112 0;
#X connect 111 1 25 0;
#X connect 111 1 190 0;
#X connect 112 0 113 0;
#X connect 113 0 21 0;
#X connect 113 0 22 0;
#X connect 113 0 105 0;
#X connect 113 0 189 0;
#X connect 113 0 128 0;
#X connect 114 0 28 0;
#X connect 114 0 190 0;
#X connect 115 0 103 0;
#X connect 116 0 188 0;
#X connect 116 1 99 0;
#X connect 116 1 189 0;
#X connect 116 1 113 3;
#X connect 116 2 100 0;
#X connect 116 2 190 0;
#X connect 116 3 20 0;
#X connect 116 4 19 0;
#X connect 116 5 108 0;
#X connect 116 5 112 0;
#X connect 116 6 40 0;
#X connect 117 0 169 0;
#X connect 118 0 8 0;
#X connect 119 0 121 0;
#X connect 120 0 111 0;
#X connect 121 0 120 1;
#X connect 122 0 123 0;
#X connect 122 0 125 1;
#X connect 123 0 124 1;
#X connect 124 0 126 0;
#X connect 125 0 82 0;
#X connect 126 0 72 1;
#X connect 126 0 75 0;
#X connect 126 0 52 1;
#X connect 126 0 64 1;
#X connect 128 0 25 1;
#X connect 128 0 26 1;
#X connect 128 0 27 1;
#X connect 128 0 114 0;
#X connect 129 0 130 0;
#X connect 129 0 133 0;
#X connect 129 0 135 0;
#X connect 130 0 128 1;
#X connect 132 0 59 0;
#X connect 133 0 132 1;
#X connect 134 0 33 1;
#X connect 134 0 34 1;
#X connect 134 0 35 1;
#X connect 135 0 134 1;
#X connect 136 0 40 0;
#X connect 137 0 149 0;
#X connect 138 0 96 1;
#X connect 140 0 93 1;
#X connect 141 0 95 1;
#X connect 145 0 94 1;
#X connect 146 0 123 0;
#X connect 146 0 125 1;
#X connect 149 0 79 0;
#X connect 150 0 152 1;
#X connect 152 0 34 0;
#X connect 152 1 153 0;
#X connect 153 0 34 0;
#X connect 155 0 133 0;
#X connect 155 0 130 0;
#X connect 155 0 135 0;
#X connect 160 0 161 0;
#X connect 161 0 69 1;
#X connect 162 0 160 0;
#X connect 163 0 164 0;
#X connect 163 0 165 0;
#X connect 163 0 166 0;
#X connect 163 0 187 0;
#X connect 164 0 155 0;
#X connect 164 0 145 0;
#X connect 165 0 1 0;
#X connect 166 0 137 0;
#X connect 167 0 39 0;
#X connect 169 0 116 0;
#X connect 169 0 103 1;
#X connect 173 0 127 0;
#X connect 173 0 118 1;
#X connect 174 0 175 1;
#X connect 175 0 184 0;
#X connect 176 0 186 0;
#X connect 176 1 186 1;
#X connect 177 0 178 0;
#X connect 178 0 179 0;
#X connect 178 0 180 0;
#X connect 180 0 181 0;
#X connect 180 0 185 0;
#X connect 182 0 173 0;
#X connect 183 0 174 0;
#X connect 184 0 182 0;
#X connect 184 1 177 0;
#X connect 185 0 182 1;
#X connect 186 0 175 0;
#X connect 187 0 146 0;
#X connect 188 0 102 0;
#X connect 189 0 102 0;
#X connect 190 0 102 0;
#X connect 191 0 102 0;
#X connect 192 0 102 0;
#X connect 193 0 102 0;
#X connect 194 0 102 0;
#X connect 196 0 195 0;
#X coords 0 -1 1 1 300 100 2 100 100;
#X restore 41 -819 pd 303seq;
#N canvas 710 340 537 429 lcdnumformat 0;
#X obj 170 149 mod 1000;
#X obj 170 195 i;
#X floatatom 170 218 5 0 0 0 - - -, f 5;
#X obj 230 195 i;
#X floatatom 230 218 5 0 0 0 - - -, f 5;
#X floatatom 290 218 5 0 0 0 - - -, f 5;
#X obj 230 149 mod 100;
#X obj 290 149 mod 10;
#X obj 196 83 inlet;
#X obj 257 292 outlet;
#X obj 267 302 outlet;
#X obj 277 312 outlet;
#X floatatom 294 49 5 0 0 0 - - -, f 5;
#X obj 231 172 / 10;
#X obj 171 172 / 100;
#X connect 0 0 14 0;
#X connect 1 0 2 0;
#X connect 1 0 9 0;
#X connect 3 0 4 0;
#X connect 3 0 10 0;
#X connect 6 0 13 0;
#X connect 7 0 5 0;
#X connect 7 0 11 0;
#X connect 8 0 0 0;
#X connect 8 0 6 0;
#X connect 8 0 7 0;
#X connect 12 0 7 0;
#X connect 12 0 6 0;
#X connect 12 0 0 0;
#X connect 13 0 3 0;
#X connect 14 0 1 0;
#X restore 240 -1600 pd lcdnumformat;
#X floatatom 775 -1834 5 0 0 0 - - -, f 5;
#X floatatom 795 -1814 5 0 0 0 - - -, f 5;
#N canvas 575 303 649 504 pagesel 0;
#X obj 90 163 outlet;
#X obj 93 78 r page;
#X obj 93 101 sel 0;
#X obj 93 124 delay 200;
#X obj 97 30 inlet;
#X obj 233 86 r page&pots;
#X obj 233 109 route 0;
#X obj 233 132 unpack 0 0;
#X obj 220 174 outlet;
#X obj 285 172 outlet;
#X obj 370 104 route 0;
#X obj 370 81 r page&button;
#X obj 370 127 sel 0 1 2 3;
#X obj 357 184 outlet;
#X obj 399 192 outlet;
#X obj 428 212 outlet;
#X obj 470 220 outlet;
#X obj 292 442 s tolcd;
#X obj 287 412 spigot;
#X msg 156 244 lcd 4 0 \$1;
#X obj 311 363 r page;
#X obj 316 387 == 2;
#N canvas 710 340 537 429 lcdnumformat 0;
#X obj 170 149 mod 1000;
#X obj 170 195 i;
#X floatatom 170 218 5 0 0 0 - - -, f 5;
#X obj 230 195 i;
#X floatatom 230 218 5 0 0 0 - - -, f 5;
#X floatatom 290 218 5 0 0 0 - - -, f 5;
#X obj 230 149 mod 100;
#X obj 290 149 mod 10;
#X obj 196 83 inlet;
#X obj 257 292 outlet;
#X obj 267 302 outlet;
#X obj 277 312 outlet;
#X floatatom 294 49 5 0 0 0 - - -, f 5;
#X obj 231 172 / 10;
#X obj 171 172 / 100;
#X obj 169 242 change;
#X obj 229 240 change;
#X obj 286 242 change;
#X connect 0 0 14 0;
#X connect 1 0 2 0;
#X connect 1 0 15 0;
#X connect 3 0 4 0;
#X connect 3 0 16 0;
#X connect 6 0 13 0;
#X connect 7 0 5 0;
#X connect 7 0 17 0;
#X connect 8 0 0 0;
#X connect 8 0 6 0;
#X connect 8 0 7 0;
#X connect 12 0 7 0;
#X connect 12 0 6 0;
#X connect 12 0 0 0;
#X connect 13 0 3 0;
#X connect 14 0 1 0;
#X connect 15 0 9 0;
#X connect 16 0 10 0;
#X connect 17 0 11 0;
#X restore 152 202 pd lcdnumformat;
#X msg 170 265 lcd 5 0 \$1;
#X msg 186 291 lcd 6 0 \$1;
#X msg 260 234 lcd 4 0 \$1;
#X msg 274 255 lcd 5 0 \$1;
#X msg 290 281 lcd 6 0 \$1;
#N canvas 710 340 537 429 lcdnumformat 0;
#X obj 170 149 mod 1000;
#X obj 170 195 i;
#X floatatom 170 218 5 0 0 0 - - -, f 5;
#X obj 230 195 i;
#X floatatom 230 218 5 0 0 0 - - -, f 5;
#X floatatom 290 218 5 0 0 0 - - -, f 5;
#X obj 230 149 mod 100;
#X obj 290 149 mod 10;
#X obj 196 83 inlet;
#X obj 257 292 outlet;
#X obj 267 302 outlet;
#X obj 277 312 outlet;
#X floatatom 294 49 5 0 0 0 - - -, f 5;
#X obj 231 172 / 10;
#X obj 171 172 / 100;
#X obj 169 242 change;
#X obj 229 240 change;
#X obj 286 242 change;
#X connect 0 0 14 0;
#X connect 1 0 2 0;
#X connect 1 0 15 0;
#X connect 3 0 4 0;
#X connect 3 0 16 0;
#X connect 6 0 13 0;
#X connect 7 0 5 0;
#X connect 7 0 17 0;
#X connect 8 0 0 0;
#X connect 8 0 6 0;
#X connect 8 0 7 0;
#X connect 12 0 7 0;
#X connect 12 0 6 0;
#X connect 12 0 0 0;
#X connect 13 0 3 0;
#X connect 14 0 1 0;
#X connect 15 0 9 0;
#X connect 16 0 10 0;
#X connect 17 0 11 0;
#X restore 259 204 pd lcdnumformat;
#X obj 174 137 + 60;
#X msg 33 360 send 0 11 REBOOT SHUTDOWN;
#X msg 156 244 send 4 0 \$1;
#X msg 170 265 send 5 0 \$1;
#X msg 186 291 send 6 0 \$1;
#X msg 260 234 send 13 0 \$1;
#X msg 274 255 send 14 0 \$1;
#X msg 290 281 send 15 0 \$1;
#X connect 1 0 2 0;
#X connect 2 0 3 0;
#X connect 3 0 0 0;
#X connect 3 0 30 0;
#X connect 4 0 2 1;
#X connect 4 0 10 1;
#X connect 4 0 6 1;
#X connect 4 0 21 1;
#X connect 5 0 6 0;
#X connect 6 0 7 0;
#X connect 7 0 29 0;
#X connect 7 1 9 0;
#X connect 7 1 28 0;
#X connect 10 0 12 0;
#X connect 11 0 10 0;
#X connect 12 0 13 0;
#X connect 12 1 14 0;
#X connect 12 2 15 0;
#X connect 12 3 16 0;
#X connect 18 0 17 0;
#X connect 19 0 18 0;
#X connect 20 0 21 0;
#X connect 21 0 18 1;
#X connect 22 0 19 0;
#X connect 22 1 23 0;
#X connect 22 2 24 0;
#X connect 23 0 18 0;
#X connect 24 0 18 0;
#X connect 25 0 18 0;
#X connect 26 0 18 0;
#X connect 27 0 18 0;
#X connect 28 0 34 0;
#X connect 28 1 35 0;
#X connect 28 2 36 0;
#X connect 29 0 8 0;
#X connect 29 0 22 0;
#X connect 30 0 18 0;
#X connect 34 0 18 0;
#X connect 35 0 18 0;
#X connect 36 0 18 0;
#X restore 766 -1876 pd pagesel;
#X obj 765 -1923 loadbang;
#X obj 811 -1838 bng 15 250 50 0 empty empty empty 17 7 0 10 -262144
-1 -1;
#X obj 832 -1838 bng 15 250 50 0 empty empty empty 17 7 0 10 -262144
-1 -1;
#X obj 854 -1839 bng 15 250 50 0 empty empty empty 17 7 0 10 -262144
-1 -1;
#X obj 875 -1839 bng 15 250 50 0 empty empty empty 17 7 0 10 -262144
-1 -1;
#N canvas 1682 84 1338 856 fftstuff 0;
#X obj 595 113 adc~, f 5;
#X obj 922 513 cnv 15 126 48 empty empty empty 20 12 0 14 -262130 -66577
0;
#X obj 109 278 cnv 15 321 102 empty empty empty 20 12 0 14 -204786
-66577 0;
#X obj 109 420 cnv 15 321 102 empty empty empty 20 12 0 14 -203904
-66577 0;
#X obj 109 135 cnv 15 321 102 empty empty empty 20 12 0 14 -261682
-66577 0;
#X obj 683 624 dac~;
#X obj 683 602 *~ 0.1;
#X obj 709 487 prepend fb;
#X obj 557 528 *~;
#N canvas 434 246 450 300 (subpatch) 0;
#X array delay 64 float 3 black black;
#A 0 0.7156 0.3619 0.2541 0.6777 0.8864 0.8805 0.4401 0.1993 0.9768
0.1397 0.3404 0.5299 0.7108 0.4584 0.7993 0.6008 0.1838 0.4389 0.2845
0.8689 0.4815 0.7013 0.8712 0.5511 0.1648 0.618 0.2266 0.8586 0.7536
0.0478 0.5946 0.2316 0.2114 0.0705 0.7795 0.5733 0.4298 0.7214 0.131
0.4843 0.7126 0.7251 0.5284 0.4972 0.2606 0.2308 0.3648 0.3109 0.6554
0.5457 0.5316 0.0249 0.3442 0.87 0.4028 0.3737 0.124 0.0311 0.8196
0.9611 0.6262 0.218 0.0746 0.4948;
#X coords 0 1 64 0 320 100 1;
#X restore 110 136 graph;
#X obj 108 524 hsl 316 15 0 1 0 0 \$0-fb empty empty -2 -8 0 10 -203904
-1 -1 0 1;
#X obj 839 486 prepend dt;
#X obj 839 423 array2list delay;
#X obj 709 424 array2list feedback;
#X obj 716 445 r \$0-fb;
#X obj 109 239 hsl 316 15 0 1 0 0 \$0-dt empty empty -2 -8 0 10 -261682
-1 -1 0 1;
#X obj 720 466 arrayreset feedback;
#X obj 846 444 r \$0-dt;
#X obj 851 465 arrayreset delay;
#X obj 109 382 hsl 316 15 -48 24 0 1 \$0-eq empty | 206 7 0 10 -204786
-1 -258113 31450 1;
#N canvas 121 264 450 300 (subpatch) 0;
#X array feedback 64 float 3 black black;
#A 0 0.5667 0.8779 0.2543 0.9526 0.9117 0.3841 0.4556 0.825 0.5579
0.0936 0.3428 0.2817 0.0031 0.7552 0.0575 0.5435 0.749 0.6204 0.0833
0.5756 0.0075 0.1769 0.2305 0.3221 0.1832 0.8833 0.6198 0.9399 0.3592
0.9038 0.6675 0.0339 0.7808 0.8422 0.0691 0.8903 0.34 0.4762 0.784
0.712 0.0599 0.4922 0.0203 0.8524 0.579 0.2192 0.2182 0.0499 0.636
0.3635 0.0355 0.6621 0.5535 0.7429 0.3309 0.9008 0.7227 0.0215 0.1493
0.0656 0.088 0.4431 0.7055 0.7785;
#X coords 0 1 64 0 320 100 1;
#X restore 109 421 graph;
#N canvas 121 264 450 300 (subpatch) 0;
#X array eq 64 float 3 black black;
#A 0 23.8857 23.8857 23.8857 23.8857 23.8857 23.8857 23.8857 23.8857
23.8857 23.8857 23.8857 23.8857 23.8857 23.8857 23.8857 23.8857 23.8857
23.8857 23.8857 23.8857 23.8857 23.8857 23.8857 23.8857 23.8857 23.8857
23.8857 23.8857 23.8857 23.8857 23.8857 23.8857 23.8857 23.8857 23.8857
23.8857 23.8857 23.8857 23.8857 23.8857 23.8857 23.8857 23.8857 23.8857
23.8857 23.8857 23.8857 23.8857 23.8857 23.8857 23.8857 23.8857 23.8857
23.8857 23.8857 23.8857 23.8857 23.8857 23.8857 23.8857 23.8857 23.8857
23.8857 23.8857;
#X coords 0 24 64 -48 320 100 1;
#X restore 110 279 graph;
#X obj 952 486 prepend eq;
#X obj 964 465 arrayreset eq;
#X obj 952 423 array2list eq;
#X obj 959 444 r \$0-eq;
#X text 523 690 spectdelay~ breaks down sound into frequency bins using
FFT analysis and then allows user to specify eq (in db from -48 to
+ 24) \, delay amount (float value 0-1) \, and feedback (float value
0-1). Values can be provided per-bin (we use here arrays as multisliders
for this purpose) or as a constant value for all bins (using horizontal
sliders).;
#N canvas 614 159 285 344 other_options 0;
#X obj 24 313 outlet;
#X msg 24 28 posteq \$1;
#X obj 24 9 tgl 15 0 empty empty empty 17 7 0 10 -262144 -1 -1 0 1
;
#N canvas 209 237 401 193 binmap 0;
#X obj 830 0 cnv 15 18 193 empty empty binmap 20 12 0 14 -204786 -66577
0;
#X text 861 25 The word binmap \, followed by a list of ints \, which
gives the number of adjacent FFT bins to affect for each of the elements
of the EQ table. The binmap table and the EQ table must be the same
size. Giving the word binmap alone cancels the use of a binmap table.
For example \, the message "binmap 1 2 10 20 50" assumes a previous
eq message of five floats and treats the first of those floats as the
gain of the lowest FFT bin \, the second as the gain of the next two
FFT bins \, the third as the gain of the next ten FFT bins \, the fourth
as the gain of the next 20 FFT bins \, and the fifth as the gain of
the next 50 FFT bins (and any leftover bins above these).;
#X obj 1081 186 cnv 6 149 6 empty empty empty 20 12 0 14 -228856 -66577
0;
#X restore 35 56 pd binmap;
#N canvas 204 287 401 193 clear 0;
#X obj 830 0 cnv 15 18 193 empty empty clear 20 12 0 14 -204786 -66577
0;
#X obj 1081 186 cnv 6 149 6 empty empty empty 20 12 0 14 -228856 -66577
0;
#X text 861 25 The word clear. This fills all the spectral delay lines
with zero \, resulting in silence.;
#X restore 35 77 pd clear;
#N canvas 212 312 401 193 dbinmap 0;
#X obj 830 0 cnv 15 18 193 empty empty dbinmap 20 12 0 14 -204786 -66577
0;
#X obj 1081 186 cnv 6 149 6 empty empty empty 20 12 0 14 -228856 -66577
0;
#X text 861 25 The word dbinmap \, followed by a list of ints \, which
gives the number of adjacent FFT bins to affect for each of the elements
of the delay time and feedback tables. The delay binmap table and these
tables must be the same size. Giving the word dbinmap alone cancels
the use of a delay binmap table. The mapping scheme functions in the
way described for the binmap message.;
#X restore 35 98 pd dbinmap;
#N canvas 219 268 401 193 drange 0;
#X obj 830 0 cnv 15 18 193 empty empty drange 20 12 0 14 -204786 -66577
0;
#X obj 1081 186 cnv 6 149 6 empty empty empty 20 12 0 14 -228856 -66577
0;
#X text 861 25 The word drange \, followed by two floats (min and max)
\, which define the frequency range within which the delay time (del)
and feedback (feed) tables function. Giving 0 for max sets the maximum
frequency to Nyquist. By default \, the range is 0 Hz to Nyquist. Note
that this range is ignored when using the dbinmap table.;
#X restore 35 119 pd drange;
#N canvas 207 348 401 193 dx 0;
#X obj 830 0 cnv 15 18 193 empty empty dx 20 12 0 14 -204786 -66577
0;
#X obj 1081 186 cnv 6 149 6 empty empty empty 20 12 0 14 -228856 -66577
0;
#X text 861 25 The word dx \, followed by an index (int) and delay
time (float) to replace the value at that index in the currently defined
delay time table. The table must already have at least index + 1 values.
;
#X restore 35 140 pd dx;
#N canvas 233 285 401 194 ex 0;
#X obj 830 0 cnv 15 18 193 empty empty ex 20 12 0 14 -204786 -66577
0;
#X obj 1081 186 cnv 6 149 6 empty empty empty 20 12 0 14 -228856 -66577
0;
#X text 861 25 The word ex \, followed by an index (int) and EQ amplitude
in dB (float) to replace the value at that index in the currently defined
EQ table. The table must already have at least index + 1 values.;
#X restore 35 161 pd ex;
#N canvas 215 294 401 193 fb 0;
#X obj 830 0 cnv 15 18 193 empty empty fx 20 12 0 14 -204786 -66577
0;
#X obj 1081 186 cnv 6 149 6 empty empty empty 20 12 0 14 -228856 -66577
0;
#X text 861 25 The word fx \, followed by an index (int) and delay
feedback (float) to replace the value at that index in the currently
defined delay feedback table. The table must already have at least
index + 1 values.;
#X restore 35 182 pd fb;
#N canvas 217 299 401 194 fft 0;
#X obj 830 0 cnv 15 18 193 empty empty fft 20 12 0 14 -204786 -66577
0;
#X obj 1081 186 cnv 6 149 6 empty empty empty 20 12 0 14 -228856 -66577
0;
#X text 861 25 The word fft \, followed by three ints \, gives the
FFT length \, window length \, and overlap (respectively). (See explanation
above in Arguments secion.) Note: sending this message will halt processing
while object reconfigures itself and will cause an audio glitch.;
#X restore 35 203 pd fft;
#N canvas 230 230 401 193 hold 0;
#X obj 830 0 cnv 15 18 193 empty empty hold 20 12 0 14 -204786 -66577
0;
#X obj 1081 186 cnv 6 149 6 empty empty empty 20 12 0 14 -228856 -66577
0;
#X text 861 25 The word hold \, followed by a 0 or a 1 If 0 \, play
normally. If 1 \, stop accepting input and allow the sound already
in delay lines to recirculate. (If instead you let the input decay
to zeros \, without holding \, you may hear the delay lines resonate
pitches corresponding to the fundamental frequency of analysis and
its harmonic partials.);
#X restore 35 224 pd hold;
#N canvas 223 254 401 193 maxdel 0;
#X obj 830 0 cnv 15 18 193 empty empty maxdel 20 12 0 14 -204786 -66577
0;
#X obj 1081 186 cnv 6 149 6 empty empty empty 20 12 0 14 -228856 -66577
0;
#X text 861 25 The word maxdel \, followed by a float giving the maximum
number of seconds for the delay lines.;
#X restore 35 245 pd maxdel;
#N canvas 228 256 401 193 posteq 0;
#X obj 830 0 cnv 15 18 193 empty empty posteq 20 12 0 14 -204786 -66577
0;
#X obj 1081 186 cnv 6 149 6 empty empty empty 20 12 0 14 -228856 -66577
0;
#X text 861 25 The word posteq \, followed by a 0 or a 1 If 0 \, EQ
is applied before delay. If 1 \, EQ is applied after delay \, which
means it affects sound that's feeding back through the delay lines.
;
#X restore 35 266 pd posteq;
#N canvas 224 278 401 193 range 0;
#X obj 830 0 cnv 15 18 193 empty empty range 20 12 0 14 -204786 -66577
0;
#X obj 1081 186 cnv 6 149 6 empty empty empty 20 12 0 14 -228856 -66577
0;
#X text 861 25 The word range \, followed by two floats (min and max)
\, which define the frequency range within which the EQ table functions.
Giving 0 for max sets the maximum frequency to Nyquist. By default
\, the range is 0 Hz to Nyquist. Note that this range is ignored when
using the binmap table.;
#X restore 35 287 pd range;
#X text 41 7 example: eq can be pre or post delay;
#X connect 1 0 0 0;
#X connect 2 0 1 0;
#X restore 935 534 pd other_options;
#X text 927 515 additional options:;
#X obj 547 298 bng 15 250 50 0 eq_changed empty empty 17 7 0 10 -204786
-1 -1;
#X obj 547 298 bng 15 250 50 0 eq_changed empty empty 17 7 0 10 -204786
-1 -1;
#X obj 547 440 bng 15 250 50 0 feedback_changed empty empty 17 7 0
10 -203904 -1 -1;
#X obj 547 155 bng 15 250 50 0 delay_changed empty empty 17 7 0 10
-261682 -1 -1;
#X text 524 776 NB: arrays will auto-update settings as soon as they
are clicked only if using L2Ork iteration of Pd (http://l2ork.music.vt.edu).
Otherwise click on respective bang buttons to activate changes. Sliders
behave the same.;
#X text 523 568 optional arguments:;
#X text 522 587 1) FFT length (1024);
#X text 522 599 2) window length (2048);
#X text 522 611 3) window overlap (2);
#X text 522 622 4) max delay in sec. (6);
#X obj 449 333 hsl 81 15 0 1 0 1 empty empty empty -2 -8 0 10 -262130
-1 -1 8000 1;
#X text 448 332 dry;
#X text 506 332 wet;
#N canvas 209 225 337 291 dry_wet 0;
#X obj 82 35 inlet~;
#X obj 141 35 inlet~;
#X obj 108 231 outlet~;
#X obj 83 175 *~;
#X obj 104 155 line~;
#X obj 142 175 *~;
#X obj 162 155 line~;
#X obj 250 35 inlet;
#X obj 104 113 expr 1-$f1;
#X msg 104 134 \$1 10;
#X msg 162 134 \$1 10;
#X connect 0 0 3 0;
#X connect 1 0 5 0;
#X connect 3 0 2 0;
#X connect 4 0 3 1;
#X connect 5 0 2 0;
#X connect 6 0 5 1;
#X connect 7 0 8 0;
#X connect 7 0 10 0;
#X connect 8 0 9 0;
#X connect 9 0 4 0;
#X connect 10 0 6 0;
#X restore 682 580 pd dry_wet;
#X text 524 645 spectdelay~ is a Pd port of John Gibson's jg.spectdelay~
for Max5 (c) John Gibson 2010 \, released under GNU/GPL license. Port
by Ivica Ico Bukvic (2010).;
#X obj 168 839 cnv 15 898 15 empty empty empty 20 12 0 14 -233017 -66577
0;
#X obj 728 526 print;
#X obj 482 144 vsl 15 128 0 1 0 0 empty empty empty 0 -9 0 10 -262144
-1 -1 0 1;
#X obj 663 304 loadbang;
#X msg 663 327 1;
#X obj 222 632 switch~;
#X obj 476 490 tgl 15 0 empty empty empty 17 7 0 10 -262144 -1 -1 0
1;
#X obj 362 631 loadbang;
#X obj 450 412 bng 15 250 50 0 empty empty empty 17 7 0 10 -262144
-1 -1;
#X obj 827 116 random 10000;
#X obj 827 139 / 10000;
#X obj 786 50 counter 64;
#X obj 801 84 t f b;
#X obj 791 14 metro 1;
#X obj 758 18 tgl 15 0 empty empty empty 17 7 0 10 -262144 -1 -1 0
1;
#X obj 795 266 tabwrite delay;
#X obj 924 84 t f b;
#X obj 1079 138 / 10000;
#X obj 1053 83 t f b;
#X obj 925 215 tabwrite eq;
#X obj 1054 214 tabwrite feedback;
#X obj 950 116 random 72;
#X obj 950 139 - 48;
#X text 474 442 random;
#X text 462 511 dsp on/off;
#X floatatom 935 252 5 0 0 0 - - -, f 5;
#X obj 937 272 * 1000;
#X obj 909 344 f;
#X obj 1007 328 t b;
#X obj 906 300 moses 5000;
#X msg 989 358 0;
#X obj 915 51 counter 64;
#X obj 1051 47 counter 64;
#X obj 894 15 metro 1;
#X obj 861 19 tgl 15 0 empty empty empty 17 7 0 10 -262144 -1 -1 0
1;
#X obj 1044 13 metro 1;
#X obj 1011 17 tgl 15 0 empty empty empty 17 7 0 10 -262144 -1 -1 0
1;
#X obj 469 412 bng 15 250 50 0 empty empty empty 17 7 0 10 -262144
-1 -1;
#X obj 507 412 bng 15 250 50 0 empty empty empty 17 7 0 10 -262144
-1 -1;
#X obj 488 412 bng 15 250 50 0 empty empty empty 17 7 0 10 -262144
-1 -1;
#X obj 1079 115 random 9999;
#X obj 708 559 spectdelay~ 128 2048 2 1, f 33;
#X msg 362 654 0;
#X connect 0 0 8 0;
#X connect 6 0 5 0;
#X connect 7 0 45 0;
#X connect 7 0 85 0;
#X connect 8 0 42 0;
#X connect 11 0 85 0;
#X connect 12 0 11 0;
#X connect 13 0 7 0;
#X connect 14 0 7 0;
#X connect 14 0 16 0;
#X connect 17 0 18 0;
#X connect 17 0 11 0;
#X connect 22 0 85 0;
#X connect 24 0 22 0;
#X connect 25 0 22 0;
#X connect 25 0 23 0;
#X connect 27 0 85 0;
#X connect 39 0 42 2;
#X connect 42 0 6 0;
#X connect 46 0 8 1;
#X connect 47 0 48 0;
#X connect 48 0 8 1;
#X connect 50 0 49 0;
#X connect 51 0 86 0;
#X connect 52 0 81 0;
#X connect 52 0 83 0;
#X connect 52 0 82 0;
#X connect 53 0 54 0;
#X connect 54 0 73 0;
#X connect 55 0 56 0;
#X connect 55 2 58 0;
#X connect 55 2 32 0;
#X connect 55 2 30 0;
#X connect 55 2 31 0;
#X connect 56 0 59 1;
#X connect 56 1 53 0;
#X connect 57 0 55 0;
#X connect 58 0 57 0;
#X connect 60 0 63 1;
#X connect 60 1 65 0;
#X connect 61 0 64 0;
#X connect 62 0 64 1;
#X connect 62 1 84 0;
#X connect 65 0 66 0;
#X connect 66 0 63 0;
#X connect 69 0 70 0;
#X connect 70 0 73 1;
#X connect 71 0 59 0;
#X connect 72 0 74 0;
#X connect 73 0 71 1;
#X connect 73 0 59 0;
#X connect 73 1 72 0;
#X connect 74 0 59 0;
#X connect 75 0 60 0;
#X connect 75 2 78 0;
#X connect 76 0 62 0;
#X connect 76 2 80 0;
#X connect 77 0 75 0;
#X connect 78 0 77 0;
#X connect 79 0 76 0;
#X connect 80 0 79 0;
#X connect 81 0 58 0;
#X connect 82 0 80 0;
#X connect 83 0 78 0;
#X connect 84 0 61 0;
#X connect 85 0 42 1;
#X connect 86 0 50 0;
#X coords 0 -1 1 1 435 446 1 100 100;
#X restore 827 -922 pd fftstuff;
#N canvas 1628 57 1229 980 audio 0;
#X obj 47 -480 adc~;
#X obj 20 -520 import bsaylor;
#X obj 729 155 bng 32 250 50 0 empty empty empty 0 -6 0 8 -260818 -1
-1;
#X obj 673 106 vsl 15 128 0 0.1 0 0 empty empty empty 0 -9 0 10 -262144
-1 -1 1270 1;
#X obj 788 106 vsl 15 128 0 1 0 0 empty empty empty 0 -9 0 10 -262144
-1 -1 12700 1;
#X obj 1002 -220 *~, f 1;
#X obj 699 106 vsl 15 128 0 0.1 0 0 empty empty empty 0 -9 0 10 -262144
-1 -1 1270 1;
#X obj 522 -192 *~, f 1;
#X floatatom 403 243 5 0 0 0 - - -, f 5;
#X obj 447 106 vsl 15 128 0 2 0 0 empty empty empty 0 -9 0 10 -262144
-1 -1 2921 1;
#X obj 521 -315 *~, f 1;
#X obj 406 106 vsl 15 128 0 10000 0 0 empty empty empty 0 -9 0 10 -262144
-1 -1 1181 1;
#X msg 800 89 1;
#X obj 798 62 loadbang;
#X msg 680 81 0.01;
#X obj 536 -244 vcf~;
#X obj 540 -280 sig~;
#X text 535 260 q;
#X floatatom 525 243 5 0 0 0 - - -, f 5;
#X obj 488 106 vsl 15 128 0 12000 0 0 empty empty empty 0 -9 0 10 -262144
-1 -1 3399 1;
#X obj 53 -725 loadbang;
#X msg 30 -644 \; pd dsp 1;
#X obj 57 -689 delay 100;
#X obj 509 66 / 64;
#X obj 539 15 > 0;
#X obj 511 44 spigot;
#X obj 510 -5 t f f;
#X obj 456 12 loadbang;
#X obj 23 -450 s~ leftin;
#X obj 38 -426 s~ rightin;
#X text 496 260 freq;
#X floatatom 487 243 5 0 0 0 - - -, f 5;
#X text 405 260 delay;
#X floatatom 444 243 5 0 0 0 - - -, f 5;
#X text 440 260 feedback;
#X obj 570 106 vsl 15 128 0 1 0 0 empty empty empty 0 -9 0 10 -262144
-1 -1 12700 1;
#X floatatom 563 243 5 0 0 0 - - -, f 5;
#X obj 529 106 vsl 15 128 0 1 0 0 empty empty empty 0 -9 0 10 -262144
-1 -1 5194 1;
#X obj 467 -396 r~ rightin;
#X obj 523 -153 s~ delrightout;
#X obj 1025 -174 r~ delrightout;
#X obj 1008 -141 r~ delleftout;
#X obj 900 -172 r~ revrightout;
#X obj 867 -143 r~ revleftout;
#X obj 983 -112 dac~;
#X obj 923 -247 r~ leftin;
#X obj 1003 -250 r~ rightin;
#X obj 764 106 vsl 15 128 0 1 0 0 empty empty empty 0 -9 0 10 -262144
-1 -1 12700 1;
#X obj 934 -218 *~, f 1;
#X obj 233 -173 *~, f 1;
#X floatatom 160 243 5 0 0 0 - - -, f 5;
#X obj 201 106 vsl 15 128 0 2 0 0 empty empty empty 0 -9 0 10 -262144
-1 -1 1657 1;
#X obj 236 -300 *~, f 1;
#X obj 160 106 vsl 15 128 0 10000 0 0 empty empty empty 0 -9 0 10 -262144
-1 -1 681 1;
#X obj 251 -229 vcf~;
#X obj 255 -265 sig~;
#X text 291 260 q;
#X floatatom 283 243 5 0 0 0 - - -, f 5;
#X obj 242 106 vsl 15 128 0 12000 0 0 empty empty empty 0 -9 0 10 -262144
-1 -1 4299 1;
#X obj 172 72 / 64;
#X obj 202 21 > 0;
#X obj 174 50 spigot;
#X obj 173 1 t f f;
#X obj 119 18 loadbang;
#X text 239 260 freq;
#X floatatom 236 243 5 0 0 0 - - -, f 5;
#X floatatom 198 243 5 0 0 0 - - -, f 5;
#X text 183 260 feedback;
#X obj 324 106 vsl 15 128 0 1 0 0 empty empty empty 0 -9 0 10 -262144
-1 -1 0 1;
#X floatatom 321 243 5 0 0 0 - - -, f 5;
#X obj 283 106 vsl 15 128 0 1 0 0 empty empty empty 0 -9 0 10 -262144
-1 -1 4089 1;
#X obj 238 -138 s~ delleftout;
#X obj 233 -337 delread~ echoL 10001;
#X obj 220 -203 delwrite~ echoL 10001;
#X obj 225 -384 r~ leftin;
#X text 142 260 delayL;
#X text 322 260 OUT L;
#X text 564 260 OUT R;
#X obj 510 -348 delread~ echoR 10001;
#X obj 468 -217 delwrite~ echoR 10001;
#X obj 196 -300 *~, f 1;
#X obj 365 106 vsl 15 128 0 1 0 0 empty empty empty 0 -9 0 10 -262144
-1 -1 2692 1;
#X floatatom 363 243 5 0 0 0 - - -, f 5;
#X text 359 260 crossfb;
#X obj 487 -314 *~, f 1;
#X obj 611 106 vsl 15 128 0 1 0 0 empty empty empty 0 -9 0 10 -262144
-1 -1 4597 1;
#X floatatom 601 243 5 0 0 0 - - -, f 5;
#X text 613 260 crossfb;
#X obj 351 -356 vu 15 120 empty empty -1 -8 0 10 -66577 -1 1 0;
#X obj 424 -385 pvu~;
#X floatatom 143 -513 9 0 0 0 - - -, f 9;
#X msg 151 -632 reset;
#X msg 129 -592 start;
#X msg 142 -607 stop;
#X floatatom 124 -493 9 0 0 0 - - -, f 9;
#X obj 248 -712 vu 15 120 empty empty -1 -8 0 8 -66577 -1 1 0;
#X floatatom 257 -585 6 0 0 0 - - -, f 6;
#X msg 151 -736 t_metro \$1;
#X msg 151 -694 t_release \$1;
#X msg 151 -655 threshold \$1;
#X floatatom 151 -753 9 50 500 0 - - -, f 9;
#X floatatom 151 -711 9 50 2000 0 - - -, f 9;
#X floatatom 151 -672 9 -120 30 0 - - -, f 9;
#X text 301 -584 dB;
#X obj 124 -567 pvu~;
#X text 209 -513 2.outlet: <float> overflow_per_metrotime_counter [-]
;
#X text 190 -492 1.outlet: <float> peak_level [dB];
#X text 671 260 reverb lr;
#X text 762 260 dry lr;
#X msg 117 72 536;
#X msg 130 47 0.261;
#X msg 223 76 4062;
#X msg 279 63 0.322;
#X msg 355 39 0.212;
#X msg 404 62 929.9;
#X msg 445 59 0.46;
#X msg 479 54 3212;
#X msg 560 70 0.409;
#X msg 603 24 1;
#X msg 629 61 0.362;
#X msg 329 36 0;
#X obj 44 -289 switch~;
#X obj 122 163 tgl 15 0 empty empty empty 17 7 0 10 -262144 -1 -1 0
1;
#X text 119 179 dsp;
#X obj 58 -349 loadbang;
#N canvas 848 265 928 567 convolutionreverb 0;
#X obj 305 352 *~;
#X obj 373 347 *~;
#X obj 451 228 soundfiler;
#X obj 448 111 loadbang;
#X obj 337 158 openpanel;
#X obj 337 185 t b s;
#X obj 455 253 table irL;
#X msg 307 226 set irL;
#X msg 368 223 set irR;
#X obj 373 283 partconv~ irR 2048;
#X msg 452 205 read -resize \$1 irL irR;
#X obj 455 275 table irR;
#X obj 303 318 partconv~ irL 2048;
#X obj 180 161 * 0.01;
#X obj 181 135 / 127;
#X msg 452 179 read -resize OldSpring.SDIR irR;
#X msg 485 149 read -resize ComboSpringBright.SDIR irR;
#X obj 444 133 t b b;
#X obj 300 385 s~ revleftout;
#X obj 373 371 s~ revrightout;
#X obj 290 247 r~ leftin;
#X obj 378 264 r~ rightin;
#X obj 152 206 vu 15 120 empty empty -1 -8 0 10 -66577 -1 1 0;
#X obj 150 173 pvu~;
#X obj 260 83 inlet;
#X obj 270 93 inlet;
#X obj 280 104 inlet;
#X obj 290 114 inlet;
#X obj 359 42 switch~;
#X obj 370 78 tgl 15 0 empty empty empty 17 7 0 10 -262144 -1 -1 0
1;
#X connect 0 0 18 0;
#X connect 1 0 19 0;
#X connect 1 0 23 0;
#X connect 3 0 17 0;
#X connect 4 0 5 0;
#X connect 5 0 7 0;
#X connect 5 0 8 0;
#X connect 5 1 10 0;
#X connect 7 0 12 0;
#X connect 8 0 9 0;
#X connect 9 0 1 0;
#X connect 10 0 2 0;
#X connect 12 0 0 0;
#X connect 14 0 13 0;
#X connect 15 0 2 0;
#X connect 16 0 2 0;
#X connect 17 0 8 0;
#X connect 17 1 15 0;
#X connect 21 0 9 0;
#X connect 23 0 22 0;
#X connect 24 0 4 0;
#X connect 25 0 0 1;
#X connect 26 0 1 1;
#X connect 27 0 28 0;
#X connect 27 0 29 0;
#X restore 907 -432 pd convolutionreverb;
#X obj 731 214 tgl 15 0 empty empty empty 17 7 0 10 -262144 -1 -1 0
1;
#X obj 981 -56 *~, f 1;
#X obj 913 -54 *~, f 1;
#X msg 58 -326 0;
#X connect 0 0 28 0;
#X connect 0 1 29 0;
#X connect 2 0 125 0;
#X connect 3 0 125 1;
#X connect 4 0 5 1;
#X connect 5 0 44 1;
#X connect 6 0 125 2;
#X connect 7 0 39 0;
#X connect 7 0 89 0;
#X connect 8 0 78 0;
#X connect 9 0 10 1;
#X connect 9 0 33 0;
#X connect 10 0 15 0;
#X connect 11 0 8 0;
#X connect 12 0 4 0;
#X connect 12 0 47 0;
#X connect 13 0 12 0;
#X connect 13 0 14 0;
#X connect 14 0 6 0;
#X connect 14 0 3 0;
#X connect 15 0 79 0;
#X connect 15 0 7 0;
#X connect 16 0 15 1;
#X connect 18 0 15 2;
#X connect 19 0 16 0;
#X connect 19 0 31 0;
#X connect 20 0 22 0;
#X connect 22 0 21 0;
#X connect 23 0 9 0;
#X connect 24 0 25 1;
#X connect 25 0 23 0;
#X connect 26 0 25 0;
#X connect 26 1 24 0;
#X connect 27 0 115 0;
#X connect 27 0 114 0;
#X connect 27 0 116 0;
#X connect 27 0 117 0;
#X connect 27 0 118 0;
#X connect 27 0 119 0;
#X connect 35 0 7 1;
#X connect 35 0 36 0;
#X connect 37 0 18 0;
#X connect 38 0 79 0;
#X connect 40 0 44 1;
#X connect 41 0 44 0;
#X connect 42 0 127 0;
#X connect 43 0 128 0;
#X connect 45 0 48 0;
#X connect 46 0 5 0;
#X connect 47 0 48 1;
#X connect 48 0 44 0;
#X connect 49 0 71 0;
#X connect 50 0 72 0;
#X connect 51 0 52 1;
#X connect 51 0 66 0;
#X connect 52 0 54 0;
#X connect 53 0 50 0;
#X connect 54 0 73 0;
#X connect 54 0 49 0;
#X connect 55 0 54 1;
#X connect 57 0 54 2;
#X connect 58 0 55 0;
#X connect 58 0 65 0;
#X connect 59 0 51 0;
#X connect 60 0 61 1;
#X connect 61 0 59 0;
#X connect 62 0 61 0;
#X connect 62 1 60 0;
#X connect 63 0 110 0;
#X connect 63 0 109 0;
#X connect 63 0 112 0;
#X connect 63 0 111 0;
#X connect 63 0 120 0;
#X connect 63 0 113 0;
#X connect 68 0 49 1;
#X connect 68 0 69 0;
#X connect 70 0 57 0;
#X connect 72 0 52 0;
#X connect 72 0 80 0;
#X connect 74 0 73 0;
#X connect 78 0 10 0;
#X connect 78 0 84 0;
#X connect 80 0 15 0;
#X connect 81 0 82 0;
#X connect 81 0 80 1;
#X connect 84 0 54 0;
#X connect 85 0 86 0;
#X connect 85 0 84 1;
#X connect 89 0 88 0;
#X connect 91 0 104 0;
#X connect 92 0 104 0;
#X connect 93 0 104 0;
#X connect 95 1 96 0;
#X connect 97 0 104 0;
#X connect 98 0 104 0;
#X connect 99 0 104 0;
#X connect 100 0 97 0;
#X connect 101 0 98 0;
#X connect 102 0 99 0;
#X connect 104 0 94 0;
#X connect 104 0 95 1;
#X connect 104 1 90 0;
#X connect 109 0 53 0;
#X connect 110 0 51 0;
#X connect 111 0 58 0;
#X connect 112 0 70 0;
#X connect 113 0 81 0;
#X connect 114 0 11 0;
#X connect 115 0 9 0;
#X connect 116 0 19 0;
#X connect 117 0 37 0;
#X connect 118 0 35 0;
#X connect 119 0 85 0;
#X connect 120 0 68 0;
#X connect 122 0 121 0;
#X connect 124 0 129 0;
#X connect 126 0 125 3;
#X connect 126 0 128 1;
#X connect 126 0 127 1;
#X connect 127 0 44 1;
#X connect 128 0 44 0;
#X connect 129 0 121 0;
#X coords 0 -1 1 1 710 180 1 100 100;
#X restore 283 -1165 pd audio;
#X msg 565 -1777 aconnect 24:0 128:0;
#X msg 565 -1731 aconnect 28:0 128:0;
#X obj 565 -1502 print SDOUT;
#X obj 565 -1523 print done;
#X obj 565 -1544 shell;
#X obj 1016 -1542 netsend;
#X obj 1129 -1511 print;
#X msg 1015 -1609 disconnect;
#X msg 1016 -1585 send 10000;
#X msg 1040 -1668 connect localhost 51717;
#X msg 1016 -1565 connect localhost 1000;
#X obj 1127 -1532 netreceive 51710;
#X obj 566 -1898 loadbang;
#X msg 1016 -1800 send 12 0 test;
#X msg 1016 -1633 send 0 0 test1234567890abcdefghijklmnopqr;
#X obj 1016 -1718 loadbang;
#X obj 1016 -1745 r netmsg;
#X msg 1016 -1776 send 18;
#X msg 565 -1621 cd ..;
#X msg 565 -1664 cd ..;
#X obj 565 -1875 delay 1000;
#X obj 565 -1848 delay 100;
#X obj 565 -1824 delay 500;
#X obj 565 -1593 delay 100;
#X obj 565 -1753 delay 100;
#X msg 565 -1798 aconnect -x;
#X msg 565 -1642 ls;
#N canvas 1393 329 450 300 system 0;
#X restore 485 -403 pd system;
#N canvas 1519 103 450 300 system 0;
#X restore 239 -1851 pd system;
#X msg 765 -1900 20, f 4;
#X obj 785 -1756 tgl 15 0 empty empty empty 17 7 0 10 -262144 -1 -1
0 1;
#X obj 813 -1756 tgl 15 0 empty empty empty 17 7 0 10 -262144 -1 -1
0 1;
#X obj 769 -1722 +;
#X obj 769 -1699 == 2;
#X obj 772 -1669 tgl 15 0 empty empty empty 17 7 0 10 -262144 -1 -1
0 1;
#X obj 789 -1666 sel 1;
#X msg 868 -1551 sudo shutdown -h now;
#X obj 870 -1759 tgl 15 0 empty empty empty 17 7 0 10 -262144 -1 -1
0 1;
#X obj 898 -1759 tgl 15 0 empty empty empty 17 7 0 10 -262144 -1 -1
0 1;
#X obj 854 -1725 +;
#X obj 854 -1702 == 2;
#X obj 857 -1672 tgl 15 0 empty empty empty 17 7 0 10 -262144 -1 -1
0 1;
#X obj 874 -1669 sel 1;
#X msg 777 -1552 sudo reboot;
#X obj 792 -1601 delay 100;
#X msg 1019 -1859 send 0 0 REBOOTING NOW! BACK IN A MINUTE;
#X obj 803 -1623 delay 100;
#X obj 775 -1575 delay 100;
#X obj 785 -1645 t b b;
#X obj 876 -1602 delay 100;
#X obj 887 -1624 delay 100;
#X obj 859 -1576 delay 100;
#X obj 869 -1646 t b b;
#X msg 1008 -1834 send 0 0 SHUTTING DOWN>>>>GOODBYE;
#X obj 1025 -1692 delay 5000;
#X obj 960 -1660 delay 1000;
#X floatatom 391 -1986 5 0 0 0 - - -, f 5;
#X floatatom 411 -1966 5 0 0 0 - - -, f 5;
#N canvas 575 303 649 504 pagesel 0;
#X obj 90 163 outlet;
#X obj 93 78 r page;
#X obj 93 101 sel 0;
#X obj 93 124 delay 200;
#X obj 97 30 inlet;
#X obj 233 86 r page&pots;
#X obj 233 109 route 0;
#X obj 233 132 unpack 0 0;
#X obj 220 174 outlet;
#X obj 285 172 outlet;
#X obj 370 104 route 0;
#X obj 370 81 r page&button;
#X obj 370 127 sel 0 1 2 3;
#X obj 357 184 outlet;
#X obj 399 192 outlet;
#X obj 428 212 outlet;
#X obj 470 220 outlet;
#X obj 292 442 s tolcd;
#X obj 287 412 spigot;
#X msg 156 244 lcd 4 0 \$1;
#X obj 311 363 r page;
#X obj 316 387 == 2;
#N canvas 710 340 537 429 lcdnumformat 0;
#X obj 170 149 mod 1000;
#X obj 170 195 i;
#X floatatom 170 218 5 0 0 0 - - -, f 5;
#X obj 230 195 i;
#X floatatom 230 218 5 0 0 0 - - -, f 5;
#X floatatom 290 218 5 0 0 0 - - -, f 5;
#X obj 230 149 mod 100;
#X obj 290 149 mod 10;
#X obj 196 83 inlet;
#X obj 257 292 outlet;
#X obj 267 302 outlet;
#X obj 277 312 outlet;
#X floatatom 294 49 5 0 0 0 - - -, f 5;
#X obj 231 172 / 10;
#X obj 171 172 / 100;
#X obj 169 242 change;
#X obj 229 240 change;
#X obj 286 242 change;
#X connect 0 0 14 0;
#X connect 1 0 2 0;
#X connect 1 0 15 0;
#X connect 3 0 4 0;
#X connect 3 0 16 0;
#X connect 6 0 13 0;
#X connect 7 0 5 0;
#X connect 7 0 17 0;
#X connect 8 0 0 0;
#X connect 8 0 6 0;
#X connect 8 0 7 0;
#X connect 12 0 7 0;
#X connect 12 0 6 0;
#X connect 12 0 0 0;
#X connect 13 0 3 0;
#X connect 14 0 1 0;
#X connect 15 0 9 0;
#X connect 16 0 10 0;
#X connect 17 0 11 0;
#X restore 152 202 pd lcdnumformat;
#X msg 170 265 lcd 5 0 \$1;
#X msg 186 291 lcd 6 0 \$1;
#X msg 260 234 lcd 4 0 \$1;
#X msg 274 255 lcd 5 0 \$1;
#X msg 290 281 lcd 6 0 \$1;
#N canvas 710 340 537 429 lcdnumformat 0;
#X obj 170 149 mod 1000;
#X obj 170 195 i;
#X floatatom 170 218 5 0 0 0 - - -, f 5;
#X obj 230 195 i;
#X floatatom 230 218 5 0 0 0 - - -, f 5;
#X floatatom 290 218 5 0 0 0 - - -, f 5;
#X obj 230 149 mod 100;
#X obj 290 149 mod 10;
#X obj 196 83 inlet;
#X obj 257 292 outlet;
#X obj 267 302 outlet;
#X obj 277 312 outlet;
#X floatatom 294 49 5 0 0 0 - - -, f 5;
#X obj 231 172 / 10;
#X obj 171 172 / 100;
#X obj 169 242 change;
#X obj 229 240 change;
#X obj 286 242 change;
#X connect 0 0 14 0;
#X connect 1 0 2 0;
#X connect 1 0 15 0;
#X connect 3 0 4 0;
#X connect 3 0 16 0;
#X connect 6 0 13 0;
#X connect 7 0 5 0;
#X connect 7 0 17 0;
#X connect 8 0 0 0;
#X connect 8 0 6 0;
#X connect 8 0 7 0;
#X connect 12 0 7 0;
#X connect 12 0 6 0;
#X connect 12 0 0 0;
#X connect 13 0 3 0;
#X connect 14 0 1 0;
#X connect 15 0 9 0;
#X connect 16 0 10 0;
#X connect 17 0 11 0;
#X restore 259 204 pd lcdnumformat;
#X obj 174 137 + 60;
#X msg 33 360 send 0 11 Reset cnct disc;
#X msg 156 244 send 4 0 \$1;
#X msg 170 265 send 5 0 \$1;
#X msg 186 291 send 6 0 \$1;
#X msg 260 234 send 13 0 \$1;
#X msg 274 255 send 14 0 \$1;
#X msg 290 281 send 15 0 \$1;
#X connect 1 0 2 0;
#X connect 2 0 3 0;
#X connect 3 0 0 0;
#X connect 3 0 30 0;
#X connect 4 0 2 1;
#X connect 4 0 10 1;
#X connect 4 0 6 1;
#X connect 4 0 21 1;
#X connect 5 0 6 0;
#X connect 6 0 7 0;
#X connect 7 0 29 0;
#X connect 7 1 9 0;
#X connect 7 1 28 0;
#X connect 10 0 12 0;
#X connect 11 0 10 0;
#X connect 12 0 13 0;
#X connect 12 1 14 0;
#X connect 12 2 15 0;
#X connect 12 3 16 0;
#X connect 18 0 17 0;
#X connect 19 0 18 0;
#X connect 20 0 21 0;
#X connect 21 0 18 1;
#X connect 22 0 19 0;
#X connect 22 1 23 0;
#X connect 22 2 24 0;
#X connect 23 0 18 0;
#X connect 24 0 18 0;
#X connect 25 0 18 0;
#X connect 26 0 18 0;
#X connect 27 0 18 0;
#X connect 28 0 34 0;
#X connect 28 1 35 0;
#X connect 28 2 36 0;
#X connect 29 0 8 0;
#X connect 29 0 22 0;
#X connect 30 0 18 0;
#X connect 34 0 18 0;
#X connect 35 0 18 0;
#X connect 36 0 18 0;
#X restore 382 -2028 pd pagesel;
#X obj 381 -2075 loadbang;
#X obj 427 -1990 bng 15 250 50 0 empty empty empty 17 7 0 10 -262144
-1 -1;
#X obj 448 -1990 bng 15 250 50 0 empty empty empty 17 7 0 10 -262144
-1 -1;
#X obj 470 -1991 bng 15 250 50 0 empty empty empty 17 7 0 10 -262144
-1 -1;
#X obj 491 -1991 bng 15 250 50 0 empty empty empty 17 7 0 10 -262144
-1 -1;
#X msg 381 -2052 19, f 4;
#X obj 423 -1894 delay 1000;
#X obj 423 -1866 delay 1000;
#X obj 424 -1834 delay 1000;
#X msg 487 -1966 send 0 0 resettinglcd;
#X obj 422 -1931 t b b b;
#X msg 497 -1938 send 18;
#X obj 366 -1939 bng 15 250 50 0 empty empty empty 17 7 0 10 -262144
-1 -1;
#X msg 566 -1568 sudo ./root/Desktop/wiringPi/examples/lcd;
#X msg 565 -1688 sudo pkill pd-l2ork;
#X msg 565 -1709 sudo pkill lcd;
#N canvas 1393 329 450 300 noise 0;
#X obj 31 197 switch~;
#X obj 131 124 tgl 15 0 empty empty empty 17 7 0 10 -262144 -1 -1 0
1;
#X obj 289 170 dac~;
#X obj 279 121 noise~;
#X obj 238 71 loadbang;
#X msg 238 94 0;
#X connect 1 0 0 0;
#X connect 3 0 2 0;
#X connect 3 0 2 1;
#X connect 4 0 5 0;
#X connect 5 0 1 0;
#X coords 0 -1 1 1 85 60 1 100 100;
#X restore 1277 -920 pd noise;
#X obj 40 -1369 polysynthwt;
#X obj 36 -1162 8channelmixer;
#X obj 122 -984 dac~;
#X obj 59 -1430 notein;
#X obj 59 -1407 pack 0 0;
#X connect 4 0 5 0;
#X connect 4 1 6 0;
#X connect 13 0 0 0;
#X connect 16 0 15 0;
#X connect 17 0 15 0;
#X connect 18 0 15 0;
#X connect 19 0 15 0;
#X connect 20 0 15 0;
#X connect 21 0 15 0;
#X connect 22 0 15 0;
#X connect 23 0 15 0;
#X connect 24 0 15 0;
#X connect 25 0 15 0;
#X connect 26 0 15 0;
#X connect 27 0 15 0;
#X connect 28 0 15 0;
#X connect 29 0 15 0;
#X connect 30 0 15 0;
#X connect 31 0 15 0;
#X connect 39 1 37 0;
#X connect 39 2 38 0;
#X connect 39 3 41 0;
#X connect 39 4 42 0;
#X connect 39 5 43 0;
#X connect 39 6 44 0;
#X connect 40 0 76 0;
#X connect 41 0 77 0;
#X connect 42 0 78 0;
#X connect 43 0 84 0;
#X connect 44 0 85 0;
#X connect 47 0 51 0;
#X connect 48 0 51 0;
#X connect 51 0 49 0;
#X connect 51 1 50 0;
#X connect 54 0 52 0;
#X connect 55 0 52 0;
#X connect 56 0 52 0;
#X connect 57 0 52 0;
#X connect 58 0 53 0;
#X connect 59 0 67 0;
#X connect 60 0 52 0;
#X connect 61 0 52 0;
#X connect 62 0 101 0;
#X connect 63 0 52 0;
#X connect 64 0 52 0;
#X connect 65 0 51 0;
#X connect 66 0 51 0;
#X connect 67 0 66 0;
#X connect 67 0 68 0;
#X connect 67 0 69 0;
#X connect 68 0 65 0;
#X connect 68 0 70 0;
#X connect 69 0 47 0;
#X connect 69 0 71 0;
#X connect 70 0 119 0;
#X connect 71 0 48 0;
#X connect 72 0 51 0;
#X connect 73 0 51 0;
#X connect 76 0 39 0;
#X connect 77 0 79 0;
#X connect 78 0 79 1;
#X connect 79 0 80 0;
#X connect 80 0 81 0;
#X connect 80 0 82 0;
#X connect 82 0 95 0;
#X connect 83 0 51 0;
#X connect 84 0 86 0;
#X connect 85 0 86 1;
#X connect 86 0 87 0;
#X connect 87 0 88 0;
#X connect 87 0 89 0;
#X connect 89 0 99 0;
#X connect 90 0 51 0;
#X connect 91 0 121 0;
#X connect 91 0 94 0;
#X connect 92 0 52 0;
#X connect 93 0 54 0;
#X connect 93 0 91 0;
#X connect 94 0 90 0;
#X connect 95 0 93 0;
#X connect 95 1 92 0;
#X connect 96 0 98 0;
#X connect 96 0 121 0;
#X connect 97 0 96 0;
#X connect 97 0 54 0;
#X connect 98 0 83 0;
#X connect 99 0 97 0;
#X connect 99 1 100 0;
#X connect 100 0 52 0;
#X connect 101 0 56 0;
#X connect 101 0 102 0;
#X connect 102 0 61 0;
#X connect 105 1 103 0;
#X connect 105 2 104 0;
#X connect 105 3 107 0;
#X connect 105 3 116 0;
#X connect 105 4 108 0;
#X connect 105 5 109 0;
#X connect 105 5 56 0;
#X connect 105 6 110 0;
#X connect 105 6 54 0;
#X connect 106 0 111 0;
#X connect 111 0 105 0;
#X connect 112 0 113 0;
#X connect 112 0 121 0;
#X connect 113 0 119 0;
#X connect 113 0 114 0;
#X connect 114 0 56 0;
#X connect 115 0 52 0;
#X connect 116 0 112 0;
#X connect 116 0 54 0;
#X connect 116 1 115 0;
#X connect 116 2 117 0;
#X connect 117 0 52 0;
#X connect 118 0 116 0;
#X connect 119 0 51 0;
#X connect 120 0 51 0;
#X connect 121 0 51 0;
#X connect 123 0 124 0;
#X connect 124 0 125 1;
#X connect 126 0 127 0;
#X connect 126 1 127 1;
#X connect 127 0 123 0;
