#N canvas 188 353 450 300 10;
#X declare -lib bsaylor;
#N canvas 660 170 726 603 clock 0;
#X obj 314 41 metro 100;
#X floatatom 357 16 5 0 0 0 - - -, f 5;
#X obj 349 98 s clock;
#X obj 130 -141 notein 2;
#X obj 123 -116 stripnote;
#X obj 137 -46 loadbang;
#X obj 189 1 f;
#X floatatom 187 33 5 0 0 0 - - -, f 5;
#X obj 246 -50 t b b;
#X obj 226 3 +;
#X obj 198 -51 t b b;
#X obj 286 -54 bng 15 250 50 0 empty empty empty 17 7 0 10 -262144
-1 -1;
#X obj 313 -53 bng 15 250 50 0 empty empty empty 17 7 0 10 -262144
-1 -1;
#X obj 253 33 s ms;
#X obj 334 -7 bendout 2;
#X msg 217 -27 -1;
#X msg 252 -27 1;
#X msg 62 -17 0;
#X msg 72 10 254;
#X obj 427 -46 metro 10;
#X obj 382 -135 notein 2;
#X floatatom 382 -112 5 0 0 0 - - -, f 5;
#X floatatom 479 -120 5 0 0 0 - - -, f 5;
#X obj 426 -73 == 112;
#X obj 426 -97 f;
#X obj 495 -46 metro 10;
#X obj 494 -73 == 112;
#X obj 494 -97 f;
#X floatatom 459 -7 5 0 0 0 - - -, f 5;
#X obj 355 -44 sel 85 73;
#X msg 448 34 100;
#X obj 305 10 tgl 15 0 empty empty empty 17 7 0 10 -262144 -1 -1 0
1;
#X obj 113 -95 sel 62 61 85 73;
#X obj 308 72 t b b b;
#X msg 95 42 0;
#X obj 226 136 midirealtimein;
#X obj 222 159 sel 248 251 252 250;
#X obj 177 183 bng 15 250 50 0 empty empty empty 17 7 0 10 -262144
-1 -1;
#X obj 246 193 bng 15 250 50 0 empty empty empty 17 7 0 10 -262144
-1 -1;
#X obj 283 193 bng 15 250 50 0 empty empty empty 17 7 0 10 -262144
-1 -1;
#X obj 317 192 bng 15 250 50 0 empty empty empty 17 7 0 10 -262144
-1 -1;
#X obj 200 231 f;
#X obj 227 231 + 1;
#X obj 198 266 sel 0;
#X obj 197 290 s clock;
#X msg 281 225 0;
#X msg 324 224 1;
#X obj 270 268 s reset;
#X msg 137 -19 35;
#X obj 229 252 mod 3;
#X obj 508 118 r arppots;
#X obj 508 141 unpack;
#X floatatom 508 164 5 0 0 0 - - -, f 5;
#X floatatom 560 161 5 0 0 0 - - -, f 5;
#X obj 477 201 route 0 1 2 3 4 5 6 7;
#X obj 552 241 / 127;
#X floatatom 553 314 5 0 0 0 - - -, f 5;
#X obj 552 264 * 9;
#X obj 552 287 i;
#X obj 584 243 / 127;
#X floatatom 593 313 5 0 0 0 - - -, f 5;
#X obj 592 263 * 9;
#X obj 597 287 i;
#X obj 631 240 / 127;
#X floatatom 632 313 5 0 0 0 - - -, f 5;
#X obj 631 263 * 9;
#X obj 631 286 i;
#X obj 459 218 > 60;
#X obj 524 333 * 100;
#X obj 542 419 +;
#X floatatom 593 313 5 0 0 0 - - -, f 5;
#X obj 549 446 +;
#X obj 550 469 +;
#X floatatom 507 482 5 0 0 0 - - -, f 5;
#X obj 589 336 * 10;
#X msg 539 394 1;
#X obj 636 365 t b f;
#X obj 590 359 t b f;
#X obj 534 361 t b f;
#X obj 340 271 s play;
#X connect 0 0 33 0;
#X connect 1 0 0 1;
#X connect 3 0 4 0;
#X connect 3 1 4 1;
#X connect 4 0 32 0;
#X connect 5 0 48 0;
#X connect 5 0 30 0;
#X connect 5 0 34 0;
#X connect 6 0 7 0;
#X connect 6 0 9 0;
#X connect 6 0 1 0;
#X connect 6 0 13 0;
#X connect 6 0 14 0;
#X connect 8 0 6 0;
#X connect 8 1 16 0;
#X connect 9 0 6 1;
#X connect 10 0 6 0;
#X connect 10 1 15 0;
#X connect 11 0 10 0;
#X connect 12 0 8 0;
#X connect 15 0 9 1;
#X connect 16 0 9 1;
#X connect 17 0 6 0;
#X connect 18 0 6 0;
#X connect 19 0 10 0;
#X connect 20 0 21 0;
#X connect 20 0 29 0;
#X connect 20 1 22 0;
#X connect 20 1 24 1;
#X connect 20 1 27 1;
#X connect 23 0 19 0;
#X connect 24 0 23 0;
#X connect 25 0 8 0;
#X connect 26 0 25 0;
#X connect 27 0 26 0;
#X connect 28 0 19 1;
#X connect 28 0 25 1;
#X connect 29 0 24 0;
#X connect 29 1 27 0;
#X connect 30 0 28 0;
#X connect 31 0 0 0;
#X connect 32 1 31 0;
#X connect 33 2 2 0;
#X connect 35 0 36 0;
#X connect 36 0 37 0;
#X connect 36 0 41 0;
#X connect 36 1 38 0;
#X connect 36 2 39 0;
#X connect 36 2 47 0;
#X connect 36 3 40 0;
#X connect 39 0 45 0;
#X connect 40 0 46 0;
#X connect 41 0 42 0;
#X connect 41 0 43 0;
#X connect 42 0 49 0;
#X connect 43 0 44 0;
#X connect 45 0 79 0;
#X connect 46 0 79 0;
#X connect 48 0 6 0;
#X connect 49 0 41 1;
#X connect 50 0 51 0;
#X connect 50 0 54 0;
#X connect 51 0 52 0;
#X connect 51 1 53 0;
#X connect 54 4 67 0;
#X connect 54 5 55 0;
#X connect 54 6 59 0;
#X connect 54 7 63 0;
#X connect 55 0 57 0;
#X connect 57 0 58 0;
#X connect 58 0 56 0;
#X connect 58 0 68 0;
#X connect 59 0 61 0;
#X connect 61 0 62 0;
#X connect 62 0 60 0;
#X connect 62 0 74 0;
#X connect 63 0 65 0;
#X connect 65 0 66 0;
#X connect 66 0 64 0;
#X connect 66 0 76 0;
#X connect 67 0 31 0;
#X connect 68 0 78 0;
#X connect 69 0 71 0;
#X connect 71 0 72 0;
#X connect 72 0 73 0;
#X connect 72 0 0 1;
#X connect 74 0 77 0;
#X connect 75 0 69 0;
#X connect 76 0 75 0;
#X connect 76 1 72 1;
#X connect 77 0 75 0;
#X connect 77 1 71 1;
#X connect 78 0 75 0;
#X connect 78 1 69 1;
#X restore 237 232 pd clock;
#N canvas 398 36 1325 961 101seq 0;
#X obj 106 314 tabwrite sequence;
#X obj 380 188 f;
#X obj 302 69 > 0;
#X obj 300 99 sel 1;
#X obj 412 190 + 1;
#X obj 96 180 t b b;
#X msg 393 162 0;
#X obj 416 55 sel 1 0;
#X obj 230 144 spigot;
#X obj 674 -4 f;
#X obj 710 -5 + 1;
#X obj 743 35 sel;
#X msg 743 57 0;
#X obj 168 359 tabread sequence;
#X msg 95 201 4000;
#X obj 162 404 sel 4000 5000;
#X obj 233 43 spigot;
#X msg 407 78 0;
#X msg 449 76 1;
#X obj 243 70 spigot;
#X obj 286 45 spigot;
#X obj 236 432 +;
#X obj 449 110 s reset;
#X obj 238 -100 notein 1;
#X obj 50 -100 table sequence 1000;
#X obj 195 -20 pack 0 0;
#X obj 254 321 tabwrite velocity;
#X obj 51 -73 table velocity 1000;
#X obj 232 174 unpack 0 0;
#X obj 281 358 tabread velocity;
#X obj 105 96 notein 2;
#X msg 326 473 0, f 4;
#X obj 206 484 f;
#X obj 247 458 t f b b b;
#X obj 268 499 f;
#X obj 394 385 == 5000;
#X obj 425 414 tgl 15 0 empty empty empty 17 7 0 10 -262144 -1 -1 0
1;
#X obj 320 451 t f b b b;
#X obj 157 430 t f b b b;
#X obj 209 279 spigot;
#X obj 303 293 spigot;
#X msg 201 254 5000;
#X obj 258 287 spigot;
#X obj 204 231 spigot;
#X msg 412 327 0;
#X obj 281 381 sel 5000;
#X obj 280 412 f;
#X obj 401 494 ctlout 65 1;
#X obj 408 442 edge;
#X msg 400 466 1;
#X msg 434 465 0;
#X obj 104 118 stripnote;
#X text 447 185 length;
#X obj 263 16 r play;
#X obj 416 28 r play;
#X obj 771 36 r reset;
#X obj 332 416 r reset;
#X obj 381 111 s yalp;
#X obj 320 16 r yalp;
#X obj 383 217 s length;
#X obj 757 8 r length;
#X obj 672 27 s seqcount;
#X obj 91 357 r seqcount;
#X obj 91 380 t f f;
#X obj 276 434 * 1;
#X obj 110 144 sel 88 76 0;
#X obj 140 175 tgl 15 0 empty empty empty 17 7 0 10 -262144 -1 -1 1
1;
#X obj 128 227 sel 1 0;
#X msg 119 250 0;
#X msg 161 248 1;
#X obj 318 508 makenote;
#X obj 46 123 loadbang;
#X obj 350 540 pack 0 0;
#X obj 367 585 outlet;
#X obj 664 -121 spigot;
#X obj 681 -148 r play;
#X obj 663 -94 f;
#X obj 698 -94 + 1;
#X msg 670 -42 0;
#X obj 670 -65 sel 0;
#X obj 891 -137 f;
#X msg 932 -57 0;
#X obj 886 -285 notein 2;
#X obj 890 -258 stripnote;
#X obj 936 -160 +;
#X msg 893 -186 -1;
#X msg 943 -183 1;
#X obj 893 -213 t b b;
#X obj 937 -212 t b b;
#X msg 892 -58 16;
#X obj 891 -79 sel 1;
#X obj 930 -77 sel 1;
#X obj 746 -94 t b f;
#X obj 932 -99 > 16;
#X obj 896 -101 < 0;
#X obj 890 -10 ctlout 2 2;
#X obj 894 -235 sel 74 86 78;
#X obj 719 -65 loadbang;
#X obj 628 -146 r clock;
#X obj 543 335 r ms;
#X obj 543 358 / 2;
#X msg 719 -42 3;
#X msg 51 153 1;
#X floatatom 477 237 5 0 0 0 - - -, f 5;
#X obj 722 131 unpack;
#X floatatom 722 154 5 0 0 0 - - -, f 5;
#X floatatom 774 151 5 0 0 0 - - -, f 5;
#X obj 691 191 route 0 1 2 3 4 5 6 7;
#X obj 722 108 r seqpots;
#X floatatom 672 50 5 0 0 0 - - -, f 5;
#X floatatom 727 281 5 0 0 0 - - -, f 5;
#X obj 727 258 / 8;
#X obj 768 255 i;
#X obj 557 -42 tgl 15 0 empty empty empty 17 7 0 10 -262144 -1 -1 0
1;
#X obj 537 -23 s play;
#X obj 658 227 > 64;
#X obj 695 233 > 64;
#X obj 571 503 / 127;
#X obj 575 541 *;
#X obj 622 544 loadbang;
#X msg 622 567 1;
#X connect 1 0 4 0;
#X connect 1 0 0 1;
#X connect 1 0 26 1;
#X connect 1 0 59 0;
#X connect 1 0 103 0;
#X connect 2 0 3 0;
#X connect 2 0 8 1;
#X connect 3 0 42 0;
#X connect 3 0 43 0;
#X connect 4 0 1 1;
#X connect 5 0 14 0;
#X connect 5 1 1 0;
#X connect 6 0 1 1;
#X connect 7 0 17 0;
#X connect 7 0 6 0;
#X connect 7 1 18 0;
#X connect 7 1 22 0;
#X connect 8 0 28 0;
#X connect 9 0 10 0;
#X connect 9 0 11 0;
#X connect 9 0 61 0;
#X connect 9 0 109 0;
#X connect 10 0 9 1;
#X connect 11 0 12 0;
#X connect 12 0 9 1;
#X connect 13 0 15 0;
#X connect 14 0 0 0;
#X connect 15 0 38 0;
#X connect 15 2 21 0;
#X connect 16 0 21 1;
#X connect 17 0 57 0;
#X connect 18 0 57 0;
#X connect 19 0 8 0;
#X connect 19 0 73 0;
#X connect 20 0 2 0;
#X connect 21 0 33 0;
#X connect 23 0 16 0;
#X connect 23 0 25 0;
#X connect 23 1 20 0;
#X connect 23 1 25 1;
#X connect 25 0 19 0;
#X connect 28 0 0 0;
#X connect 28 1 40 0;
#X connect 29 0 35 0;
#X connect 29 0 45 0;
#X connect 30 0 51 0;
#X connect 30 1 51 1;
#X connect 33 0 32 1;
#X connect 33 0 70 0;
#X connect 33 1 34 0;
#X connect 33 2 32 0;
#X connect 33 3 31 0;
#X connect 34 0 70 1;
#X connect 35 0 36 0;
#X connect 36 0 48 0;
#X connect 37 2 32 0;
#X connect 37 3 31 0;
#X connect 38 2 32 0;
#X connect 38 3 31 0;
#X connect 39 0 26 0;
#X connect 40 0 26 0;
#X connect 41 0 39 0;
#X connect 42 0 1 0;
#X connect 43 0 41 0;
#X connect 43 0 1 0;
#X connect 44 0 35 0;
#X connect 45 0 46 0;
#X connect 45 1 46 1;
#X connect 45 1 64 0;
#X connect 46 0 64 0;
#X connect 48 0 49 0;
#X connect 48 1 50 0;
#X connect 49 0 47 0;
#X connect 50 0 47 0;
#X connect 51 0 65 0;
#X connect 53 0 16 1;
#X connect 54 0 7 0;
#X connect 55 0 12 0;
#X connect 56 0 37 0;
#X connect 58 0 20 1;
#X connect 58 0 19 1;
#X connect 60 0 11 1;
#X connect 62 0 63 0;
#X connect 63 0 13 0;
#X connect 63 1 29 0;
#X connect 64 0 34 1;
#X connect 65 0 5 0;
#X connect 65 1 66 0;
#X connect 65 2 44 0;
#X connect 66 0 40 1;
#X connect 66 0 42 1;
#X connect 66 0 67 0;
#X connect 67 0 68 0;
#X connect 67 1 69 0;
#X connect 68 0 43 1;
#X connect 68 0 39 1;
#X connect 69 0 43 1;
#X connect 69 0 39 1;
#X connect 70 0 72 0;
#X connect 70 1 72 1;
#X connect 71 0 102 0;
#X connect 72 0 73 0;
#X connect 74 0 76 0;
#X connect 75 0 74 1;
#X connect 76 0 77 0;
#X connect 76 0 79 0;
#X connect 77 0 76 1;
#X connect 78 0 76 1;
#X connect 79 0 78 0;
#X connect 79 0 9 0;
#X connect 80 0 84 0;
#X connect 80 0 92 0;
#X connect 80 0 93 0;
#X connect 80 0 94 0;
#X connect 80 0 95 0;
#X connect 81 0 80 0;
#X connect 82 0 83 0;
#X connect 82 1 83 1;
#X connect 83 0 96 0;
#X connect 84 0 80 1;
#X connect 85 0 84 1;
#X connect 86 0 84 1;
#X connect 87 0 80 0;
#X connect 87 1 86 0;
#X connect 88 0 80 0;
#X connect 88 1 85 0;
#X connect 89 0 80 0;
#X connect 90 0 89 0;
#X connect 91 0 81 0;
#X connect 92 0 78 0;
#X connect 92 1 79 1;
#X connect 93 0 91 0;
#X connect 94 0 90 0;
#X connect 96 0 87 0;
#X connect 96 1 88 0;
#X connect 97 0 78 0;
#X connect 97 0 101 0;
#X connect 98 0 74 0;
#X connect 99 0 100 0;
#X connect 100 0 70 2;
#X connect 101 0 79 1;
#X connect 102 0 66 0;
#X connect 104 0 105 0;
#X connect 104 1 106 0;
#X connect 107 0 115 0;
#X connect 107 1 116 0;
#X connect 107 2 111 0;
#X connect 107 3 117 0;
#X connect 108 0 104 0;
#X connect 108 0 107 0;
#X connect 111 0 110 0;
#X connect 111 0 112 0;
#X connect 112 0 92 0;
#X connect 113 0 114 0;
#X connect 115 0 113 0;
#X connect 116 0 66 0;
#X connect 117 0 118 1;
#X connect 118 0 72 1;
#X connect 119 0 120 0;
#X connect 120 0 118 1;
#X restore 191 137 pd 101seq;
#N canvas 727 158 694 708 arpegio 0;
#X obj 223 363 arpeggiator-plugin;
#X obj 259 295 spigot;
#X text 442 323 play / ? / ms / octaves / len / trans;
#X obj 491 290 pack 0 0 0 0 0 0;
#X obj 203 295 spigot;
#X obj 303 223 tgl 15 0 empty empty empty 17 7 0 10 -262144 -1 -1 0
1;
#X obj 303 241 edge;
#X msg 336 263 1;
#X msg 303 264 0;
#X obj 285 135 loadbang;
#X obj 202 264 inlet;
#X obj 345 223 tgl 15 0 empty empty empty 17 7 0 10 -262144 -1 -1 0
1;
#X msg 322 189 1;
#X obj 288 160 t b b;
#X msg 294 189 0;
#X obj 260 530 outlet;
#X obj 145 126 r arppots;
#X obj 145 149 unpack;
#X floatatom 145 172 5 0 0 0 - - -, f 5;
#X floatatom 197 169 5 0 0 0 - - -, f 5;
#X obj 114 209 route 0 1 2 3 4 5 6 7;
#X obj 113 244 > 60;
#X obj 134 316 / 20;
#X floatatom 124 368 5 0 0 0 - - -, f 5;
#X obj 134 339 i;
#X floatatom 157 400 5 0 0 0 - - -, f 5;
#X obj 170 324 / 8;
#X obj 170 370 + 1;
#X obj 170 347 i;
#X obj 157 246 > 60;
#X connect 0 0 15 0;
#X connect 1 0 15 0;
#X connect 4 0 0 0;
#X connect 5 0 4 1;
#X connect 5 0 6 0;
#X connect 5 0 0 3;
#X connect 6 0 8 0;
#X connect 6 1 7 0;
#X connect 7 0 1 1;
#X connect 8 0 1 1;
#X connect 9 0 13 0;
#X connect 10 0 4 0;
#X connect 10 0 1 0;
#X connect 11 0 0 4;
#X connect 12 0 5 0;
#X connect 13 0 14 0;
#X connect 13 1 12 0;
#X connect 14 0 5 0;
#X connect 16 0 17 0;
#X connect 16 0 20 0;
#X connect 17 0 18 0;
#X connect 17 1 19 0;
#X connect 20 0 21 0;
#X connect 20 1 22 0;
#X connect 20 2 26 0;
#X connect 20 3 29 0;
#X connect 21 0 5 0;
#X connect 22 0 24 0;
#X connect 24 0 23 0;
#X connect 24 0 0 2;
#X connect 26 0 28 0;
#X connect 27 0 25 0;
#X connect 27 0 0 1;
#X connect 28 0 27 0;
#X connect 29 0 11 0;
#X restore 172 185 pd arpegio;
#N canvas 253 77 1235 794 audio 0;
#X obj 130 280 adc~;
#X obj 393 584 dac~;
#X obj 353 515 *~;
#X obj 416 516 *~;
#X obj 138 18 import bsaylor;
#X obj 515 398 soundfiler;
#X obj 509 271 loadbang;
#X obj 398 322 openpanel;
#X obj 398 349 t b s;
#X obj 398 280 bng 32 250 50 0 empty empty empty 0 -6 0 8 -260818 -1
-1;
#X obj 533 428 table irL;
#X msg 368 390 set irL;
#X msg 437 390 set irR;
#X obj 355 466 partconv~ irR 2048;
#X msg 523 373 read -resize \$1 irL irR;
#X obj 533 450 table irR;
#X obj 222 466 partconv~ irL 2048;
#X obj 171 347 vsl 15 128 0 0.1 0 0 empty empty empty 0 -9 0 10 -262144
-1 -1 1270 1;
#X obj 92 569 *~;
#X obj 94 413 vsl 15 128 0 1 0 0 empty empty empty 0 -9 0 10 -262144
-1 -1 12700 1;
#X obj 120 417 vsl 15 128 0 1 0 0 empty empty empty 0 -9 0 10 -262144
-1 -1 12700 1;
#X obj 139 566 *~, f 1;
#X obj 194 351 vsl 15 128 0 0.1 0 0 empty empty empty 0 -9 0 10 -262144
-1 -1 1270 1;
#X obj 643 27 vsl 15 128 0 1 0 0 empty empty empty 0 -9 0 10 -262144
-1 -1 0 1;
#X obj 666 179 *~, f 1;
#X floatatom 424 126 5 0 0 0 - - -, f 5;
#X obj 358 23 vsl 15 128 0 2 0 0 empty empty empty 0 -9 0 10 -262144
-1 -1 63 1;
#X obj 394 161 *~, f 1;
#X obj 398 -7 vsl 15 128 0 10000 0 0 empty empty empty 0 -9 0 10 -262144
-1 -1 381 1;
#X msg 82 368 1;
#X obj 87 341 loadbang;
#X msg 199 294 0.01;
#X obj 500 212 vcf~;
#X obj 504 176 sig~;
#X text 462 130 center frequency;
#X text 576 174 q;
#X floatatom 536 163 5 0 0 0 - - -, f 5;
#X obj 458 180 vsl 15 128 0 12000 0 0 empty empty empty 0 -9 0 10 -262144
-1 -1 3175 1;
#X obj 327 217 loadbang;
#X msg 296 247 0.01;
#X obj 327 240 1;
#X msg 300 315 \; pd dsp 1;
#X obj 294 289 delay 100;
#X msg 348 268 3000;
#X msg 377 243 300;
#X obj 314 41 / 64;
#X obj 778 159 * 100;
#X obj 225 406 * 0.01;
#X obj 226 359 / 127;
#X obj 262 33 > 0;
#X obj 262 61 spigot;
#X obj 274 7 t f f;
#X msg 515 334 read -resize OldSpring.SDIR irR;
#X msg 616 306 read -resize ComboSpringBright.SDIR irR;
#X obj 505 297 t b b;
#X obj 1017 62 / 127;
#X floatatom 1018 135 5 0 0 0 - - -, f 5;
#X obj 1017 85 * 9;
#X obj 1017 108 i;
#X obj 1049 64 / 127;
#X floatatom 1058 134 5 0 0 0 - - -, f 5;
#X obj 1057 84 * 9;
#X obj 1062 108 i;
#X obj 1096 61 / 127;
#X floatatom 1097 134 5 0 0 0 - - -, f 5;
#X obj 1096 84 * 9;
#X obj 1096 107 i;
#X obj 989 154 * 100;
#X obj 1011 249 +;
#X floatatom 1058 134 5 0 0 0 - - -, f 5;
#X obj 1014 267 +;
#X obj 1015 290 +;
#X floatatom 972 303 5 0 0 0 - - -, f 5;
#X obj 1054 157 * 10;
#X msg 1004 215 1;
#X obj 1101 186 t b f;
#X obj 1055 180 t b f;
#X obj 999 182 t b f;
#X obj 1015 -53 unpack;
#X floatatom 1015 -30 5 0 0 0 - - -, f 5;
#X floatatom 1067 -33 5 0 0 0 - - -, f 5;
#X obj 984 7 route 0 1 2 3 4 5 6 7;
#X obj 967 63 / 127;
#X floatatom 968 136 5 0 0 0 - - -, f 5;
#X obj 967 86 * 9;
#X obj 967 109 i;
#X obj 949 183 t b f;
#X obj 939 154 * 1000;
#X obj 1003 234 +;
#X obj 487 58 delwrite~ echo 10001;
#X obj 495 101 delread~ echo 10001;
#X obj 1015 -76 r delpots;
#X obj 805 397 r fxpots;
#X obj 833 428 unpack;
#X floatatom 833 451 5 0 0 0 - - -, f 5;
#X floatatom 885 448 5 0 0 0 - - -, f 5;
#X obj 802 488 route 0 1 2 3 4 5 6 7;
#X obj 479 552 *~;
#X obj 693 39 vsl 15 128 0 1 0 0 empty empty empty 0 -9 0 10 -262144
-1 -1 0 1;
#X obj 945 35 / 127;
#X connect 0 0 16 0;
#X connect 0 0 18 0;
#X connect 0 1 21 0;
#X connect 0 1 13 0;
#X connect 0 1 89 0;
#X connect 3 0 1 1;
#X connect 6 0 54 0;
#X connect 7 0 8 0;
#X connect 8 0 11 0;
#X connect 8 0 12 0;
#X connect 8 1 14 0;
#X connect 9 0 7 0;
#X connect 11 0 16 0;
#X connect 12 0 13 0;
#X connect 13 0 3 0;
#X connect 14 0 5 0;
#X connect 16 0 2 0;
#X connect 17 0 2 1;
#X connect 19 0 18 1;
#X connect 20 0 21 1;
#X connect 21 0 1 1;
#X connect 22 0 3 1;
#X connect 23 0 24 1;
#X connect 24 0 1 1;
#X connect 25 0 90 0;
#X connect 26 0 27 1;
#X connect 27 0 32 0;
#X connect 28 0 25 0;
#X connect 29 0 19 0;
#X connect 29 0 20 0;
#X connect 30 0 29 0;
#X connect 30 0 31 0;
#X connect 31 0 22 0;
#X connect 31 0 17 0;
#X connect 31 0 26 0;
#X connect 32 0 89 0;
#X connect 33 0 32 1;
#X connect 36 0 32 2;
#X connect 37 0 33 0;
#X connect 38 0 39 0;
#X connect 38 0 43 0;
#X connect 38 0 44 0;
#X connect 38 0 40 0;
#X connect 38 0 42 0;
#X connect 39 0 26 0;
#X connect 40 0 36 0;
#X connect 42 0 41 0;
#X connect 43 0 37 0;
#X connect 44 0 28 0;
#X connect 45 0 26 0;
#X connect 46 0 37 0;
#X connect 47 0 22 0;
#X connect 48 0 47 0;
#X connect 49 0 50 1;
#X connect 50 0 45 0;
#X connect 51 0 50 0;
#X connect 51 1 49 0;
#X connect 52 0 5 0;
#X connect 53 0 5 0;
#X connect 54 0 12 0;
#X connect 54 1 52 0;
#X connect 55 0 57 0;
#X connect 57 0 58 0;
#X connect 58 0 56 0;
#X connect 58 0 67 0;
#X connect 59 0 61 0;
#X connect 61 0 62 0;
#X connect 62 0 60 0;
#X connect 62 0 73 0;
#X connect 63 0 65 0;
#X connect 65 0 66 0;
#X connect 66 0 64 0;
#X connect 66 0 75 0;
#X connect 67 0 77 0;
#X connect 68 0 70 0;
#X connect 70 0 71 0;
#X connect 71 0 72 0;
#X connect 71 0 28 0;
#X connect 73 0 76 0;
#X connect 74 0 88 0;
#X connect 75 0 74 0;
#X connect 75 1 71 1;
#X connect 76 0 74 0;
#X connect 76 1 70 1;
#X connect 77 0 74 0;
#X connect 77 1 68 1;
#X connect 78 0 79 0;
#X connect 78 1 80 0;
#X connect 81 0 99 0;
#X connect 81 1 46 0;
#X connect 81 3 51 0;
#X connect 81 4 82 0;
#X connect 81 5 55 0;
#X connect 81 6 59 0;
#X connect 81 7 63 0;
#X connect 82 0 84 0;
#X connect 84 0 85 0;
#X connect 85 0 83 0;
#X connect 85 0 87 0;
#X connect 86 0 74 0;
#X connect 86 1 88 1;
#X connect 87 0 86 0;
#X connect 88 0 68 0;
#X connect 90 0 24 0;
#X connect 90 0 27 0;
#X connect 91 0 78 0;
#X connect 91 0 81 0;
#X connect 92 0 96 0;
#X connect 92 0 93 0;
#X connect 93 0 94 0;
#X connect 93 1 95 0;
#X connect 96 0 48 0;
#X connect 97 0 1 1;
#X connect 99 0 23 0;
#X restore 32 55 pd audio;
#N canvas 640 193 795 668 additive 0;
#N canvas 1 101 450 250 (subpatch) 0;
#X array WT 515 float 5 black black;
#A 0 0.969266 -0.897638 -0.764541 -0.633905 -0.508129 -0.389503 -0.280145
-0.181963 -0.0966021 -0.0254111 0.030583 0.0707 0.094615 0.102362 0.0943289
0.071241 0.034134 -0.015669 -0.076605 -0.146905 -0.224651 -0.307817
-0.394331 -0.482121 -0.569165 -0.653545 -0.733493 -0.807421 -0.873966
-0.932009 -0.980699 0.980534 0.951978 0.933641 0.925259 0.92632 0.936083
0.953607 0.977789 -0.992599 -0.958876 -0.922405 -0.884555 -0.846664
-0.809997 -0.775721 -0.744866 -0.718309 -0.696751 -0.680707 -0.670492
-0.666235 -0.667867 -0.675143 -0.687652 -0.704841 -0.726032 -0.750455
-0.77727 -0.805602 -0.834562 -0.863281 -0.890934 -0.916761 -0.940092
-0.960362 -0.977121 -0.990047 -0.998947 0.996242 0.99546 0.998526 -0.994843
-0.985021 -0.972458 -0.957656 -0.941156 -0.923513 -0.905278 -0.886982
-0.869118 -0.852123 -0.836373 -0.822166 -0.809722 -0.799176 -0.790583
-0.783912 -0.779064 -0.775871 -0.774109 -0.773512 -0.773783 -0.774608
-0.775672 -0.776668 -0.777312 -0.777357 -0.776596 -0.774874 -0.772091
-0.768206 -0.763239 -0.757264 -0.75041 -0.742853 -0.734806 -0.726517
-0.71825 -0.71028 -0.702883 -0.696321 -0.690836 -0.686641 -0.683909
-0.682775 -0.683319 -0.68558 -0.689539 -0.695138 -0.702266 -0.710776
-0.72049 -0.731196 -0.742675 -0.754691 -0.767011 -0.77941 -0.791677
-0.803626 -0.815101 -0.825976 -0.836163 -0.845611 -0.854305 -0.862266
-0.869546 -0.876222 -0.882392 -0.888167 -0.893666 -0.899004 -0.904286
-0.909604 -0.915024 -0.920587 -0.926299 -0.932134 -0.93803 -0.94389
-0.949584 -0.954956 -0.959826 -0.963999 -0.967269 -0.969436 -0.970307
-0.969706 -0.967489 -0.963544 -0.957806 -0.950254 -0.940925 -0.92991
-0.917356 -0.903464 -0.888489 -0.87273 -0.856524 -0.840239 -0.82426
-0.808982 -0.794796 -0.782073 -0.771157 -0.762353 -0.755913 -0.752029
-0.750825 -0.752354 -0.756588 -0.763427 -0.772692 -0.784134 -0.797438
-0.812235 -0.828108 -0.844612 -0.861277 -0.877632 -0.893217 -0.907593
-0.920364 -0.931186 -0.939775 -0.945924 -0.949507 -0.95048 -0.94889
-0.944868 -0.938632 -0.930473 -0.920753 -0.909889 -0.898344 -0.886607
-0.875185 -0.864578 -0.855269 -0.847705 -0.842283 -0.839337 -0.839126
-0.841824 -0.847517 -0.856193 -0.867748 -0.881984 -0.898617 -0.917282
-0.937548 -0.958928 -0.980892 0.997111 0.975642 0.955252 0.936465 0.919763
0.905571 0.894242 0.88605 0.88118 0.879721 0.881667 0.886915 0.895272
0.906459 0.920123 0.935845 0.95316 0.971566 0.990545 -0.990422 -0.971837
-0.954171 -0.937846 -0.923225 -0.910598 -0.900175 -0.892078 -0.886342
-0.882909 -0.881638 -0.882305 -0.884615 -0.888215 -0.8927 -0.897637
-0.902573 -0.907059 -0.910659 -0.91297 -0.913638 -0.912367 -0.908936
-0.9032 -0.895105 -0.884682 -0.872056 -0.857436 -0.841112 -0.823446
-0.804862 -0.785828 -0.766849 -0.748443 -0.731127 -0.715405 -0.701741
-0.690552 -0.682194 -0.676944 -0.674996 -0.676455 -0.681324 -0.689513
-0.70084 -0.715032 -0.731732 -0.750518 -0.770908 -0.792376 -0.814373
-0.836338 -0.857718 -0.877985 -0.896651 -0.913285 -0.927522 -0.939078
-0.947755 -0.953449 -0.956149 -0.955939 -0.952994 -0.947573 -0.94001
-0.930702 -0.920095 -0.908673 -0.896937 -0.885391 -0.874527 -0.864806
-0.856646 -0.850409 -0.846387 -0.844796 -0.845768 -0.849349 -0.855497
-0.864086 -0.874906 -0.887676 -0.902052 -0.917636 -0.933991 -0.950656
-0.96716 -0.983034 -0.997831 0.988864 0.977421 0.968155 0.961315 0.95708
0.95555 0.956752 0.960635 0.967075 0.975878 0.986792 0.999515 -0.986299
-0.971022 -0.955044 -0.938758 -0.922552 -0.906793 -0.891817 -0.877925
-0.86537 -0.854354 -0.845025 -0.837473 -0.831733 -0.827788 -0.825569
-0.824968 -0.825838 -0.828005 -0.831275 -0.835447 -0.840317 -0.845689
-0.851383 -0.857243 -0.863139 -0.868974 -0.874686 -0.880249 -0.885669
-0.890987 -0.896269 -0.901607 -0.907106 -0.912881 -0.919051 -0.925727
-0.933006 -0.940967 -0.949661 -0.959108 -0.969295 -0.98017 -0.991644
0.996407 0.98414 0.971741 0.959421 0.947405 0.935926 0.925218 0.915505
0.906994 0.899865 0.894266 0.890305 0.888044 0.887499 0.888633 0.891364
0.895558 0.901043 0.907604 0.915001 0.922971 0.931238 0.939527 0.947574
0.955132 0.961986 0.967962 0.972929 0.976814 0.979598 0.98132 0.982082
0.982037 0.981393 0.980397 0.979334 0.978508 0.978236 0.978833 0.980595
0.983787 0.988635 0.995304 -0.996103 -0.985558 -0.973115 -0.958909
-0.943159 -0.926165 -0.908301 -0.890005 -0.87177 -0.854127 -0.837626
-0.822823 -0.810259 -0.800436 -0.793803 -0.790735 -0.791516 -0.796325
-0.805224 -0.818148 -0.834906 -0.855174 -0.878504 -0.90433 -0.931982
-0.9607 -0.989661 0.982007 0.955191 0.930767 0.909574 0.892384 0.879872
0.872594 0.870959 0.875214 0.885425 0.901468 0.923023 0.949578 0.980431
-0.985293 -0.948628 -0.910737 -0.872887 -0.836414 -0.80269 -0.773076
-0.748891 -0.731364 -0.721598 -0.720533 -0.72891 -0.747243 -0.775795
-0.814557 -0.863243 -0.921282 -0.987823 0.938251 0.858306 0.773926
0.686882 0.599094 0.512579 0.42941 0.351662 0.281358 0.220418 0.170609
0.133497 0.110402 0.102362 0.110103 0.134011 0.17412 0.230108 0.301292
0.386648 0.484825 0.594177 0.712801 0.838574 0.969209 -0.897695 -0.764598
;
#X coords 0 1 514 -1 200 140 1;
#X restore 49 318 graph;
#X obj 326 190 mtof;
#X obj 294 233 sig~;
#X obj 324 466 dac~;
#X obj 339 291 tabosc4~ WT;
#X obj 286 350 vsl 15 128 0 1 0 0 empty empty empty 0 -9 0 10 -262144
-1 -1 0 1;
#X obj 323 397 *~ 1;
#N canvas 0 0 1027 782 additive 0;
#X obj 131 420 list-accum;
#X obj 131 440 s scalediv;
#X obj 113 119 vsl 15 128 0 127 0 0 empty empty empty 0 -9 0 10 -262144
-1 -1 0 1;
#X obj 113 299 / 128;
#X obj 133 119 vsl 15 128 0 127 0 0 empty empty empty 0 -9 0 10 -262144
-1 -1 0 1;
#X obj 153 299 / 128;
#X obj 153 119 vsl 15 128 0 127 0 0 empty empty empty 0 -9 0 10 -262144
-1 -1 0 1;
#X obj 193 299 / 128;
#X obj 173 119 vsl 15 128 0 127 0 0 empty empty empty 0 -9 0 10 -262144
-1 -1 0 1;
#X obj 233 299 / 128;
#X obj 193 119 vsl 15 128 0 127 0 0 empty empty empty 0 -9 0 10 -262144
-1 -1 0 1;
#X obj 273 299 / 128;
#X obj 213 119 vsl 15 128 0 127 0 0 empty empty empty 0 -9 0 10 -262144
-1 -1 0 1;
#X obj 313 299 / 128;
#X obj 233 119 vsl 15 128 0 127 0 0 empty empty empty 0 -9 0 10 -262144
-1 -1 0 1;
#X obj 353 299 / 128;
#X obj 52 379 list;
#X obj 29 300 t b b;
#X obj 436 316 t b;
#X obj 436 336 s updatesinesum;
#X obj 7 247 r updatesinesum;
#X msg 32 540 \; WT normalize 1;
#X obj 71 278 loadbang;
#X obj 71 335 pack f f f f f f f f f f f f f f f f;
#X obj 253 119 vsl 15 128 0 127 0 0 empty empty empty 0 -9 0 10 -262144
-1 -1 0 1;
#X obj 393 299 / 128;
#X obj 273 119 vsl 15 128 0 127 0 0 empty empty empty 0 -9 0 10 -262144
-1 -1 0 1;
#X obj 433 299 / 128;
#X obj 293 119 vsl 15 128 0 127 0 0 empty empty empty 0 -9 0 10 -262144
-1 -1 0 1;
#X obj 473 299 / 128;
#X obj 313 119 vsl 15 128 0 127 0 0 empty empty empty 0 -9 0 10 -262144
-1 -1 0 1;
#X obj 513 299 / 128;
#X obj 333 119 vsl 15 128 0 127 0 0 empty empty empty 0 -9 0 10 -262144
-1 -1 0 1;
#X obj 553 299 / 128;
#X obj 353 119 vsl 15 128 0 127 0 0 empty empty empty 0 -9 0 10 -262144
-1 -1 0 1;
#X obj 593 299 / 128;
#X obj 373 119 vsl 15 128 0 127 0 0 empty empty empty 0 -9 0 10 -262144
-1 -1 0 1;
#X obj 633 299 / 128;
#X obj 722 315 t b;
#X obj 722 335 s updatesinesum;
#X obj 394 119 vsl 15 128 0 127 0 0 empty empty empty 0 -9 0 10 -262144
-1 -1 0 1;
#X obj 673 299 / 128;
#X msg 254 45 0;
#X msg 349 53 127;
#X obj 411 150 bng 15 250 50 0 empty empty reset 0 20 0 10 -262144
-1 -1;
#X msg 70 466 \; WT sinesum \$1 \$2 \$3 \$4 \$5 \$6 \$7 \$8 \$9 \$10
\$11 \$12 \$13 \$14 \$15 \$16;
#X obj 530 64 until 16;
#X obj 573 142 random 127;
#X obj 530 86 t b b;
#X obj 530 112 f;
#X obj 561 113 + 1;
#X obj 530 162 pack f f;
#X obj 114 17 route 1 2 3 4 5 6 7 8 9 10 11 12 13 14 15;
#X msg 530 39 16;
#X obj 530 15 t b b;
#X msg 612 61 0;
#X obj 411 196 bng 15 250 50 0 empty empty rnd 0 20 0 10 -262144 -1
-1;
#X obj 529 -18 r rndsum;
#X obj 509 455 until;
#X obj 509 486 f;
#X obj 536 485 + 1;
#X msg 551 456 0, f 2;
#X obj 556 556 +;
#X obj 556 533 tabread WT;
#X obj 509 506 t f f;
#X obj 509 638 tabwrite WT;
#X obj 509 620 f;
#X obj 509 589 t b f;
#X obj 509 414 t b b f;
#X obj 109 264 hsl 128 15 -1 1 0 0 empty empty wrapper -2 -8 0 10 -262144
-1 -1 0 1;
#X msg 475 375 0;
#X obj 556 577 expr if ($f1>1 \, $f1-2 \, $f1);
#X obj 556 599 expr if ($f1<-1 \, $f1+2 \, $f1);
#X obj 761 459 until;
#X obj 761 485 f;
#X obj 808 485 + 1;
#X msg 803 460 0, f 2;
#X obj 804 608 tabread WT;
#X obj 761 510 t f f;
#X obj 761 712 tabwrite WT;
#X obj 761 688 f;
#X obj 761 663 t b f;
#X obj 761 418 t b b f;
#X obj 804 542 *;
#X obj 851 501 /;
#X msg 850 482 1;
#X obj 804 563 int, f 4;
#X obj 804 585 *;
#X obj 850 453 t b f f;
#X floatatom 402 266 5 1 512 0 Divider(1-512)(decimator) - -, f 5
;
#X obj 52 401 t b a a b;
#X obj 30 446 t b b;
#X obj 477 199 loadbang;
#X msg 477 219 1;
#X msg 71 305 515;
#X msg 509 436 515;
#X msg 761 440 515;
#X obj 847 171 r cyclesize;
#X msg 874 219 set \$1;
#X obj 847 195 t b f;
#X text 103 102 change the contributions of 16 harmonics using sliders:
;
#X obj 454 165 inlet;
#X obj 23 86 inlet;
#X obj 57 86 inlet;
#X connect 0 0 1 0;
#X connect 2 0 3 0;
#X connect 3 0 18 0;
#X connect 3 0 23 1;
#X connect 4 0 5 0;
#X connect 5 0 18 0;
#X connect 5 0 23 2;
#X connect 6 0 7 0;
#X connect 7 0 18 0;
#X connect 7 0 23 3;
#X connect 8 0 9 0;
#X connect 9 0 18 0;
#X connect 9 0 23 4;
#X connect 10 0 11 0;
#X connect 11 0 18 0;
#X connect 11 0 23 5;
#X connect 12 0 13 0;
#X connect 13 0 18 0;
#X connect 13 0 23 6;
#X connect 14 0 15 0;
#X connect 15 0 18 0;
#X connect 15 0 23 7;
#X connect 16 0 90 0;
#X connect 17 0 16 0;
#X connect 17 1 23 0;
#X connect 18 0 19 0;
#X connect 20 0 17 0;
#X connect 22 0 94 0;
#X connect 23 0 16 1;
#X connect 24 0 25 0;
#X connect 25 0 38 0;
#X connect 25 0 23 8;
#X connect 26 0 27 0;
#X connect 27 0 38 0;
#X connect 27 0 23 9;
#X connect 28 0 29 0;
#X connect 29 0 38 0;
#X connect 29 0 23 10;
#X connect 30 0 31 0;
#X connect 31 0 38 0;
#X connect 31 0 23 11;
#X connect 32 0 33 0;
#X connect 33 0 38 0;
#X connect 33 0 23 12;
#X connect 34 0 35 0;
#X connect 35 0 38 0;
#X connect 35 0 23 13;
#X connect 36 0 37 0;
#X connect 37 0 38 0;
#X connect 37 0 23 14;
#X connect 38 0 39 0;
#X connect 40 0 41 0;
#X connect 41 0 23 15;
#X connect 41 0 38 0;
#X connect 42 0 4 0;
#X connect 42 0 6 0;
#X connect 42 0 8 0;
#X connect 42 0 10 0;
#X connect 42 0 12 0;
#X connect 42 0 14 0;
#X connect 42 0 24 0;
#X connect 42 0 26 0;
#X connect 42 0 28 0;
#X connect 42 0 30 0;
#X connect 42 0 32 0;
#X connect 42 0 34 0;
#X connect 42 0 36 0;
#X connect 42 0 40 0;
#X connect 43 0 2 0;
#X connect 44 0 43 0;
#X connect 44 0 42 0;
#X connect 46 0 48 0;
#X connect 47 0 51 1;
#X connect 48 0 49 0;
#X connect 48 1 47 0;
#X connect 49 0 50 0;
#X connect 49 0 51 0;
#X connect 50 0 49 1;
#X connect 51 0 52 0;
#X connect 52 0 2 0;
#X connect 52 1 4 0;
#X connect 52 2 6 0;
#X connect 52 3 8 0;
#X connect 52 4 10 0;
#X connect 52 5 12 0;
#X connect 52 6 14 0;
#X connect 52 7 24 0;
#X connect 52 8 26 0;
#X connect 52 9 28 0;
#X connect 52 10 30 0;
#X connect 52 11 32 0;
#X connect 52 12 34 0;
#X connect 52 13 36 0;
#X connect 52 14 40 0;
#X connect 53 0 46 0;
#X connect 54 0 53 0;
#X connect 54 1 55 0;
#X connect 55 0 49 1;
#X connect 56 0 54 0;
#X connect 57 0 54 0;
#X connect 58 0 59 0;
#X connect 59 0 60 0;
#X connect 59 0 64 0;
#X connect 60 0 59 1;
#X connect 61 0 59 1;
#X connect 62 0 71 0;
#X connect 63 0 62 0;
#X connect 64 0 67 0;
#X connect 64 1 63 0;
#X connect 66 0 65 0;
#X connect 67 0 66 0;
#X connect 67 1 65 1;
#X connect 68 0 95 0;
#X connect 68 1 61 0;
#X connect 68 2 62 1;
#X connect 69 0 68 0;
#X connect 70 0 69 0;
#X connect 71 0 72 0;
#X connect 72 0 66 1;
#X connect 73 0 74 0;
#X connect 74 0 75 0;
#X connect 74 0 78 0;
#X connect 75 0 74 1;
#X connect 76 0 74 1;
#X connect 77 0 80 1;
#X connect 78 0 81 0;
#X connect 78 1 83 0;
#X connect 80 0 79 0;
#X connect 81 0 80 0;
#X connect 81 1 79 1;
#X connect 82 0 96 0;
#X connect 82 1 76 0;
#X connect 83 0 86 0;
#X connect 84 0 83 1;
#X connect 85 0 84 0;
#X connect 86 0 87 0;
#X connect 87 0 77 0;
#X connect 88 0 85 0;
#X connect 88 0 82 0;
#X connect 88 1 84 1;
#X connect 88 2 87 1;
#X connect 89 0 88 0;
#X connect 90 0 91 0;
#X connect 90 1 0 0;
#X connect 90 1 45 0;
#X connect 91 0 21 0;
#X connect 91 1 89 0;
#X connect 92 0 93 0;
#X connect 93 0 89 0;
#X connect 94 0 23 0;
#X connect 95 0 58 0;
#X connect 96 0 73 0;
#X connect 97 0 99 0;
#X connect 98 0 96 0;
#X connect 98 0 95 0;
#X connect 98 0 94 0;
#X connect 99 0 94 0;
#X connect 99 1 98 0;
#X connect 101 0 56 0;
#X connect 102 0 69 0;
#X connect 103 0 89 0;
#X restore 107 227 pd additive;
#X obj 137 147 bng 15 250 50 0 empty empty empty 17 7 0 10 -262144
-1 -1;
#X floatatom 170 121 5 0 0 0 - - -, f 5;
#X obj 56 125 vsl 15 128 0 1 0 0 empty empty empty 0 -9 0 10 -262144
-1 -1 0 1;
#X floatatom 85 94 5 0 0 0 - - -, f 5;
#X obj 85 54 ctlin 16 1;
#X obj -3 66 sel 127;
#X obj 85 115 / 127;
#X obj 464 387 vsl 15 128 0 1 0 0 empty empty empty 0 -9 0 10 -262144
-1 -1 0 1;
#X obj 425 532 *~ 1;
#X obj 604 382 osc~;
#X obj 586 343 +~;
#X obj 651 261 osc~;
#X obj 704 242 vsl 15 128 0 1000 0 0 empty empty empty 0 -9 0 10 -262144
-1 -1 0 1;
#X obj 664 314 *~;
#X obj 502 285 +;
#X floatatom 627 216 5 1 127 0 - - -, f 5;
#X obj 429 294 ctlin 2 1;
#X obj 433 334 / 127;
#X obj 728 172 ctlin 19 1;
#X obj 402 400 -;
#X msg 369 383 1;
#X obj 401 362 t b f;
#X obj 599 249 *;
#X obj 615 182 ctlin 80 1;
#X obj 416 230 mtof;
#X obj 727 213 * 10;
#X obj 602 -16 notein 1;
#X obj 468 47 stripnote;
#X obj 484 -35 inlet;
#X obj 465 -13 unpack;
#X obj 296 11 unpack;
#X floatatom 296 34 5 0 0 0 - - -, f 5;
#X floatatom 348 31 5 0 0 0 - - -, f 5;
#X obj 265 71 route 0 1 2 3 4 5 6 7;
#X obj 296 -12 r oscpots;
#X obj 619 75 print;
#X connect 1 0 2 0;
#X connect 2 0 4 0;
#X connect 4 0 6 0;
#X connect 5 0 6 1;
#X connect 6 0 3 0;
#X connect 8 0 7 2;
#X connect 9 0 7 1;
#X connect 9 0 8 0;
#X connect 10 0 7 0;
#X connect 11 0 14 0;
#X connect 13 0 8 0;
#X connect 14 0 10 0;
#X connect 15 0 16 1;
#X connect 16 0 3 0;
#X connect 17 0 16 0;
#X connect 18 0 17 0;
#X connect 19 0 21 0;
#X connect 20 0 21 1;
#X connect 21 0 18 1;
#X connect 22 0 18 0;
#X connect 23 0 30 1;
#X connect 25 0 15 0;
#X connect 25 0 29 0;
#X connect 27 0 5 0;
#X connect 28 0 27 0;
#X connect 29 0 28 0;
#X connect 29 1 27 1;
#X connect 30 0 19 0;
#X connect 32 0 22 0;
#X connect 32 0 30 0;
#X connect 33 0 20 0;
#X connect 35 0 1 0;
#X connect 35 0 32 0;
#X connect 36 0 37 0;
#X connect 37 0 35 0;
#X connect 37 1 35 1;
#X connect 38 0 39 0;
#X connect 38 1 40 0;
#X connect 41 0 25 0;
#X connect 41 1 13 0;
#X connect 41 1 14 0;
#X connect 41 2 33 0;
#X connect 41 3 30 1;
#X connect 42 0 38 0;
#X connect 42 0 41 0;
#X restore 117 245 pd additive;
#N canvas 1486 0 1735 986 wiringpistuff 1;
#X obj 104 333 bng 15 250 50 0 empty empty empty 17 7 0 10 -262144
-1 -1;
#X text 123 338 BCM 20 \, physical 38 \, wPi 28;
#X msg 104 524 wpiPinToGpio 1;
#X msg 112 548 physPinToGpio 12;
#X msg 98 501 piBoardRev;
#X obj 94 89 cnv 15 600 200 empty empty wiringPi 20 12 0 14 -204800
-66577 0;
#X text 196 120 Copyright (c) 2014 \, Garth Zeglin. Provided under
the terms of the 3-clause BSD license.;
#X text 196 90 External for wiringPi to interface to hardware I/O on
a Raspberry Pi.;
#X text 196 150 The wiringPi object can be specialized using optional
creation arguments. The generic mode accepts messages related to the
wiringPi API. The pin-specific mode associates an object with a specific
pin.;
#X text 196 206 If pd is running with root permissions \, the interface
uses the fast direct hardware access. Without root permission \, the
fallback path uses the slower and less capable /sys/class/gpio interface.
;
#X text 102 297 Pin-specific input object. The pin numbering scheme
follows the Broadcom GPIO numbers.;
#X floatatom 144 387 5 0 0 0 - - -, f 5;
#X text 198 266 Example physical pins are for a Raspberry Pi B+;
#X obj 116 580 wiringPi;
#X obj 116 607 print pi-info;
#X text 78 481 Informational queries;
#X text 173 501 board revision number;
#X text 207 525 GPIO pin corresponding to wiringPi pin convention;
#X text 230 548 GPIO pin corresponding to physical pin number;
#X obj 140 916 wiringPi;
#X msg 139 884 load_spi_driver;
#X msg 503 814 spi_write 0 \$1;
#X msg 446 606 1000;
#X obj 452 634 / 24;
#X obj 442 581 loadbang;
#X obj 448 668 *;
#X obj 383 617 stripnote;
#X obj 107 780 loadbang;
#X obj 107 803 t b b;
#X obj 109 835 delay 10;
#X obj 564 673 counter;
#X obj 546 618 t b b;
#X obj 589 619 t b b;
#X msg 563 644 0;
#X msg 615 643 1;
#X floatatom 525 673 5 0 0 0 - - -, f 5;
#X obj 534 572 sel 0;
#X obj 562 700 > 0;
#X msg 637 628 spi_write 1 \$1;
#X obj 589 593 * 31.4;
#X obj 104 357 wiringPi pin 12 input;
#X obj 103 266 metro 10;
#X obj 104 240 tgl 15 0 empty empty empty 17 7 0 10 -262144 -1 -1 1
1;
#X obj 865 722 line;
#X floatatom 929 714 5 0 0 0 - - -, f 5;
#X text 931 628 ramp up.;
#X text 921 652 ramp down.;
#X msg 886 696 stop;
#X msg 882 676 42;
#X text 908 676 jumps to this value immediately.;
#X text 923 696 stops the current ramp.;
#X obj 914 567 print;
#X obj 888 473 phasor~ 50;
#X obj 999 531 bng 15 250 50 0 empty empty empty 17 7 0 10 -262144
-1 -1;
#X obj 999 551 t b b;
#X obj 975 504 metro 120;
#X obj 981 469 tgl 15 0 empty empty empty 17 7 0 10 -262144 -1 -1 0
1;
#X obj 867 572 pack;
#X floatatom 855 504 5 0 0 0 - - -, f 5;
#X floatatom 899 505 5 0 0 0 - - -, f 5;
#X msg 868 628 \$1 \$2;
#X obj 859 536 f;
#X obj 1007 599 t b b;
#X obj 899 526 f;
#X msg 874 652 0 \$1;
#X floatatom 937 549 5 0 0 0 - - -, f 5;
#X obj 941 591 f;
#X floatatom 1024 485 5 0 0 0 - - -, f 5;
#X msg 109 861 spi_init 0 3.2e+07;
#X obj 999 574 delay;
#X obj 1049 529 / 2;
#X obj 944 744 +;
#X floatatom 434 692 5 0 0 0 - - -, f 5;
#X obj 852 444 ctlin 1 1;
#X obj 389 670 bendin 1;
#X obj 402 713 - 8192;
#X obj 399 743 / 16383;
#X floatatom 399 789 5 0 0 0 - - -, f 5;
#X obj 400 694 + 1;
#X obj 506 737 t b f;
#X obj 503 762 f;
#X obj 503 785 +;
#X obj 399 766 * 41.6667;
#X obj 853 677 / 2;
#X obj 862 744 -;
#X obj 851 473 / 2;
#X obj 1100 769 line;
#X text 1166 675 ramp up.;
#X text 1156 699 ramp down.;
#X msg 1121 743 stop;
#X msg 1117 722 42;
#X text 1143 723 jumps to this value immediately.;
#X text 1158 743 stops the current ramp.;
#X obj 1149 614 print;
#X obj 1123 520 phasor~ 50;
#X obj 1234 578 bng 15 250 50 0 empty empty empty 17 7 0 10 -262144
-1 -1;
#X obj 1234 598 t b b;
#X obj 1210 551 metro 120;
#X obj 1216 516 tgl 15 0 empty empty empty 17 7 0 10 -262144 -1 -1
0 1;
#X obj 1102 619 pack;
#X floatatom 1090 551 5 0 0 0 - - -, f 5;
#X floatatom 1134 552 5 0 0 0 - - -, f 5;
#X msg 1103 675 \$1 \$2;
#X obj 1094 583 f;
#X obj 1242 646 t b b;
#X obj 1134 573 f;
#X msg 1109 699 0 \$1;
#X floatatom 1172 596 5 0 0 0 - - -, f 5;
#X obj 1176 638 f;
#X floatatom 1267 497 5 0 0 0 - - -, f 5;
#X obj 1234 621 delay;
#X obj 1284 576 / 2;
#X obj 1088 724 / 2;
#X obj 1087 491 ctlin 2 1;
#X obj 1086 520 * 10;
#X obj 291 328 bng 15 250 50 0 empty empty empty 17 7 0 10 -262144
-1 -1;
#X text 310 333 BCM 20 \, physical 38 \, wPi 28;
#X floatatom 297 382 5 0 0 0 - - -, f 5;
#X obj 476 326 bng 15 250 50 0 empty empty empty 17 7 0 10 -262144
-1 -1;
#X text 495 331 BCM 20 \, physical 38 \, wPi 28;
#X floatatom 499 378 5 0 0 0 - - -, f 5;
#X obj 662 326 bng 15 250 50 0 empty empty empty 17 7 0 10 -262144
-1 -1;
#X text 681 331 BCM 20 \, physical 38 \, wPi 28;
#X floatatom 668 380 5 0 0 0 - - -, f 5;
#X obj 291 352 wiringPi pin 16 input;
#X obj 476 350 wiringPi pin 20 input;
#X obj 662 350 wiringPi pin 21 input;
#X obj 122 211 loadbang;
#X msg 1295 267 replcclear;
#X obj 96 423 s but2;
#X obj 278 432 s but3;
#X obj 485 433 s but4;
#X obj 707 395 s but1;
#X obj 1235 272 r toreplc;
#X obj 562 725 wiringPi pin 26 output;
#X obj 252 805 s toreplc;
#X obj 259 633 f, f 2;
#X obj 501 850 wiringPi;
#X obj 661 658 wiringPi;
#X text 661 603 velocity;
#X text 623 703 gate 4;
#X text 566 857 pitch/cv1;
#X obj 194 682 > 99;
#X obj 165 709 spigot, f 8;
#X obj 106 708 spigot, f 8;
#X obj 135 681 <= 99;
#X obj 228 592 t b f f;
#X obj 325 683 > 99;
#X obj 296 710 spigot, f 8;
#X obj 237 709 spigot, f 8;
#X obj 266 682 <= 99;
#X obj 257 654 t f f;
#X obj 615 775 wiringPi pin 19 output;
#X obj 618 817 wiringPi pin 5 output;
#X obj 620 796 wiringPi pin 13 output;
#X text 625 753 gates;
#X msg 1299 118 replc 0 0 OSC|fine|mod|det||A|||D|||S|||R|;
#X msg 1298 180 replc 0 0 FX||rev|time|damdel|fine|fb|mix|;
#X obj 1301 10 t f b;
#X obj 1265 -139 r but2;
#X msg 641 548 0;
#X obj 640 508 r panic;
#X obj 1328 -138 r but1;
#X obj 1278 -117 t b b;
#X obj 1321 -116 t b b;
#X msg 1295 -91 0;
#X msg 1347 -92 1;
#X msg 1381 -93 0;
#X obj 685 369 edge;
#X obj 84 392 edge;
#X obj 297 408 edge 0;
#X obj 468 400 edge;
#X floatatom 1302 -37 5 0 0 0 - - -, f 5;
#X msg 1321 233 replc 0 0 SAMP|rec|trg|revpit|fine|str|fine;
#X msg 1298 256 replc 0 0 LOOP|rec|trg|revdiv|div|pit|fine;
#X msg 1395 335 replc 0 0 SAVE|all|seq|patsamp|loop;
#X obj 1484 26 s livemode;
#X msg 1462 -2 1;
#X obj 1511 -44 != 10;
#X msg 1525 2 0;
#X obj 1521 -24 edge;
#X obj 328 566 r livemode;
#X obj 304 602 spigot;
#X msg 159 743 replc 5 0 \$1;
#X msg 238 751 replc 13 0 0\$1;
#X msg 313 750 replc 13 0 \$1;
#X msg 1383 301 replc 0 0 NOTE_|||VEL__|||PBND||||MOD__|||;
#X obj 1410 -108 loadbang;
#X obj 483 471 inlet;
#X obj 552 510 unpack;
#X obj 397 639 t f f;
#X msg 87 751 replc 5 0 0\$1;
#X obj 809 784 timer;
#X obj 797 838 tgl 15 0 empty empty empty 17 7 0 10 -262144 -1 -1 0
1;
#X obj 747 738 edge;
#X obj 744 717 tgl 15 0 empty empty empty 17 7 0 10 -262144 -1 -1 0
1;
#X obj 882 814 print;
#X obj 285 576 spigot;
#X obj 840 852 edge;
#X obj 795 682 t b b;
#X floatatom 871 782 5 0 0 0 - - -, f 5;
#X obj 207 641 delay 20;
#X obj 810 808 > 100;
#X obj 21 423 counter;
#X msg 42 394 0;
#X obj 44 363 spigot;
#X obj 72 338 == 0;
#X floatatom 10 464 5 0 0 0 - - -, f 5;
#X msg 211 455 replcreset;
#X obj 46 470 edge;
#X obj 54 445 > 500;
#X msg 1412 -76 9, f 6;
#X obj 278 461 wiringPi;
#X obj 401 442 counter;
#X msg 422 413 0;
#X obj 424 382 spigot;
#X obj 438 356 == 0;
#X floatatom 390 483 5 0 0 0 - - -, f 5;
#X obj 426 489 edge;
#X obj 434 464 > 500;
#X msg 426 512 reboot;
#X obj 1296 -20 s page;
#X obj 987 -52 r page;
#X floatatom 530 -61 5 0 0 0 - - -, f 5;
#X floatatom 575 -58 5 0 0 0 - - -, f 5;
#X obj 530 -98 ctlin;
#X floatatom 530 -61 5 0 0 0 - - -, f 5;
#X floatatom 575 -58 5 0 0 0 - - -, f 5;
#X obj 530 -98 ctlin;
#X obj 623 -26 ctlin 16 1;
#X obj 708 -26 ctlin 80 1;
#X obj 783 -28 ctlin 19 1;
#X obj 857 -28 ctlin 2 1;
#X obj 618 -135 ctlin 74 1;
#X obj 712 -132 ctlin 71 1;
#X obj 788 -132 ctlin 81 1;
#X obj 862 -132 ctlin 91 1;
#X obj 623 -63 pack;
#X obj 621 -112 t b f;
#X msg 621 -91 0;
#X obj 711 -57 pack;
#X obj 709 -106 t b f;
#X obj 787 -53 pack;
#X obj 785 -102 t b f;
#X obj 858 -53 pack;
#X obj 861 -106 t b f;
#X obj 625 56 pack;
#X obj 623 7 t b f;
#X obj 713 62 pack;
#X obj 711 13 t b f;
#X obj 789 66 pack;
#X obj 787 17 t b f;
#X obj 860 66 pack;
#X obj 858 17 t b f;
#X obj 864 123 unpack;
#X floatatom 864 146 5 0 0 0 - - -, f 5;
#X floatatom 908 154 5 0 0 0 - - -, f 5;
#X msg 709 -86 1;
#X msg 623 28 4;
#X msg 711 34 5;
#X msg 787 38 6;
#X msg 858 38 7;
#X msg 856 -81 3;
#X msg 785 -81 2;
#X obj 755 144 s pots;
#X floatatom 364 -29 5 0 0 0 - - -, f 5;
#X floatatom 403 -28 5 0 0 0 - - -, f 5;
#X floatatom 440 -28 5 0 0 0 - - -, f 5;
#X floatatom 479 -27 5 0 0 0 - - -, f 5;
#X floatatom 365 1 5 0 0 0 - - -, f 5;
#X floatatom 404 2 5 0 0 0 - - -, f 5;
#X floatatom 441 2 5 0 0 0 - - -, f 5;
#X floatatom 480 3 5 0 0 0 - - -, f 5;
#X obj 371 -69 route 0 1 2 3 4 5 6 7;
#X obj 357 -95 r pots;
#X obj 987 -29 + 1;
#X obj 1115 -36 r pots;
#X obj 997 34 s arppots;
#X obj 996 7 gate 12;
#X obj 1013 59 s seqpots;
#X obj 1026 86 s lfopots;
#X obj 1043 114 s oscpots;
#X obj 1089 194 s fxpots;
#X obj 1126 60 s looppots;
#X msg 1298 57 replc 0 0 ARP|oct|div|lat;
#X msg 1297 77 replc 0 0 SEQ|rec|div|dirprob|vel|;
#X msg 1299 96 replc 0 0 LFO|rate|shp|delLFO|rate|shp|del;
#X obj 1106 222 s delpots;
#X obj 1106 35 s samppots;
#X obj 1303 33 sel 0 1 2 3 4 5 6 7 8 9 10 11;
#X obj 1296 -62 counter 0 0 11;
#X msg 1303 210 replc 0 0 DEL|lpf|hpf|fbk|TIME|1|2|3|4||;
#X floatatom 588 543 5 0 0 0 - - -, f 5;
#X msg 674 688 0;
#X obj 582 429 counter;
#X msg 603 400 0;
#X obj 605 369 spigot;
#X floatatom 571 470 5 0 0 0 - - -, f 5;
#X obj 607 476 edge;
#X obj 615 451 > 500;
#X obj 676 467 s panic;
#X obj 619 343 == 0;
#X msg 1300 138 replc 0 0 [T1][L1][T2][L2][T3][L3][T4][L4];
#X msg 1298 159 replc 0 0 [T5][L5][T6][L6][T7][L7][T8][L8];
#X obj 1060 142 s envpots1;
#X obj 1076 167 s envpots2;
#X msg 752 465 replc 0 0 panic!;
#X obj 751 495 s toreplc;
#X msg 1073 417 replc 0 14 ?;
#X msg 1181 419 replc 13 1 one;
#X floatatom 547 781 5 0 0 0 - - -, f 5;
#X obj 1295 316 wiringPi lcd;
#X obj 1466 -121 delay 100;
#X connect 0 0 40 0;
#X connect 2 0 13 0;
#X connect 3 0 13 0;
#X connect 4 0 13 0;
#X connect 13 0 14 0;
#X connect 20 0 19 0;
#X connect 21 0 137 0;
#X connect 22 0 23 0;
#X connect 23 0 25 1;
#X connect 24 0 22 0;
#X connect 25 0 80 1;
#X connect 25 0 80 0;
#X connect 26 0 190 0;
#X connect 27 0 28 0;
#X connect 28 0 29 0;
#X connect 28 1 20 0;
#X connect 29 0 68 0;
#X connect 30 0 35 0;
#X connect 30 0 37 0;
#X connect 31 0 30 0;
#X connect 31 1 33 0;
#X connect 31 1 195 0;
#X connect 31 1 199 0;
#X connect 32 0 30 0;
#X connect 32 1 34 0;
#X connect 33 0 30 1;
#X connect 34 0 30 1;
#X connect 36 0 32 0;
#X connect 36 1 31 0;
#X connect 36 1 39 0;
#X connect 37 0 134 0;
#X connect 38 0 138 0;
#X connect 39 0 38 0;
#X connect 40 0 11 0;
#X connect 40 0 169 0;
#X connect 40 0 206 0;
#X connect 41 0 0 0;
#X connect 41 0 115 0;
#X connect 41 0 118 0;
#X connect 41 0 121 0;
#X connect 41 0 205 0;
#X connect 41 0 215 0;
#X connect 42 0 41 0;
#X connect 43 0 84 0;
#X connect 44 0 71 0;
#X connect 47 0 43 0;
#X connect 48 0 43 0;
#X connect 53 0 54 0;
#X connect 54 0 69 0;
#X connect 54 1 62 0;
#X connect 55 0 54 0;
#X connect 56 0 55 0;
#X connect 57 0 60 0;
#X connect 58 0 61 0;
#X connect 58 0 83 0;
#X connect 59 0 63 0;
#X connect 60 0 43 0;
#X connect 61 0 57 0;
#X connect 62 0 61 0;
#X connect 62 1 63 0;
#X connect 63 0 57 1;
#X connect 64 0 43 0;
#X connect 65 0 66 0;
#X connect 66 0 64 0;
#X connect 67 0 55 1;
#X connect 67 0 70 0;
#X connect 68 0 19 0;
#X connect 69 0 66 0;
#X connect 70 0 69 1;
#X connect 70 0 65 0;
#X connect 70 0 59 0;
#X connect 73 0 85 0;
#X connect 74 0 72 0;
#X connect 74 0 78 0;
#X connect 75 0 76 0;
#X connect 76 0 82 0;
#X connect 78 0 75 0;
#X connect 79 0 80 0;
#X connect 79 1 81 1;
#X connect 80 0 81 0;
#X connect 81 0 21 0;
#X connect 82 0 77 0;
#X connect 82 0 79 0;
#X connect 83 0 84 1;
#X connect 84 0 71 0;
#X connect 85 0 58 0;
#X connect 89 0 86 0;
#X connect 90 0 86 0;
#X connect 95 0 96 0;
#X connect 96 0 110 0;
#X connect 96 1 104 0;
#X connect 97 0 96 0;
#X connect 98 0 97 0;
#X connect 99 0 102 0;
#X connect 100 0 103 0;
#X connect 100 0 112 0;
#X connect 101 0 105 0;
#X connect 102 0 86 0;
#X connect 103 0 99 0;
#X connect 104 0 103 0;
#X connect 104 1 105 0;
#X connect 105 0 99 1;
#X connect 106 0 86 0;
#X connect 107 0 108 0;
#X connect 108 0 106 0;
#X connect 109 0 97 1;
#X connect 109 0 111 0;
#X connect 110 0 108 0;
#X connect 111 0 110 1;
#X connect 113 0 114 0;
#X connect 114 0 100 0;
#X connect 115 0 124 0;
#X connect 118 0 125 0;
#X connect 121 0 126 0;
#X connect 121 0 296 0;
#X connect 124 0 117 0;
#X connect 124 0 170 0;
#X connect 125 0 120 0;
#X connect 125 0 171 0;
#X connect 125 0 216 0;
#X connect 126 0 123 0;
#X connect 126 0 168 0;
#X connect 126 0 301 0;
#X connect 127 0 42 0;
#X connect 128 0 311 0;
#X connect 133 0 311 0;
#X connect 136 0 151 0;
#X connect 142 0 143 1;
#X connect 143 0 183 0;
#X connect 144 0 191 0;
#X connect 145 0 144 1;
#X connect 146 0 201 0;
#X connect 146 1 143 0;
#X connect 146 1 144 0;
#X connect 146 2 142 0;
#X connect 146 2 145 0;
#X connect 147 0 148 1;
#X connect 148 0 185 0;
#X connect 149 0 184 0;
#X connect 150 0 149 1;
#X connect 151 0 149 0;
#X connect 151 0 148 0;
#X connect 151 1 150 0;
#X connect 151 1 147 0;
#X connect 156 0 311 0;
#X connect 157 0 311 0;
#X connect 158 0 178 0;
#X connect 158 0 289 0;
#X connect 158 1 128 0;
#X connect 159 0 163 0;
#X connect 160 0 30 3;
#X connect 161 0 160 0;
#X connect 162 0 164 0;
#X connect 163 0 290 0;
#X connect 163 1 165 0;
#X connect 164 0 290 0;
#X connect 164 1 166 0;
#X connect 165 0 290 1;
#X connect 166 0 290 1;
#X connect 167 0 290 3;
#X connect 168 0 295 0;
#X connect 168 1 132 0;
#X connect 169 0 204 0;
#X connect 169 1 129 0;
#X connect 170 1 130 0;
#X connect 171 0 214 0;
#X connect 171 1 131 0;
#X connect 173 0 311 0;
#X connect 174 0 311 0;
#X connect 175 0 311 0;
#X connect 177 0 176 0;
#X connect 178 0 180 0;
#X connect 179 0 176 0;
#X connect 180 0 179 0;
#X connect 181 0 182 1;
#X connect 182 0 146 0;
#X connect 183 0 135 0;
#X connect 186 0 311 0;
#X connect 187 0 312 0;
#X connect 188 0 189 0;
#X connect 189 0 26 0;
#X connect 189 0 292 0;
#X connect 189 1 36 0;
#X connect 189 1 26 1;
#X connect 190 0 197 0;
#X connect 190 1 25 0;
#X connect 191 0 135 0;
#X connect 192 0 196 0;
#X connect 192 0 200 0;
#X connect 192 0 202 0;
#X connect 195 0 194 0;
#X connect 197 0 182 0;
#X connect 199 0 192 0;
#X connect 199 1 192 1;
#X connect 201 0 136 0;
#X connect 202 0 193 0;
#X connect 202 0 196 0;
#X connect 202 0 197 1;
#X connect 202 0 198 0;
#X connect 203 0 207 0;
#X connect 203 0 210 0;
#X connect 204 0 203 3;
#X connect 205 0 203 0;
#X connect 206 0 205 1;
#X connect 208 0 212 0;
#X connect 209 0 208 0;
#X connect 210 0 209 0;
#X connect 211 0 290 3;
#X connect 213 0 217 0;
#X connect 213 0 219 0;
#X connect 214 0 213 3;
#X connect 215 0 213 0;
#X connect 216 0 215 1;
#X connect 218 0 220 0;
#X connect 219 0 218 0;
#X connect 220 0 212 0;
#X connect 222 0 275 0;
#X connect 225 0 223 0;
#X connect 225 1 224 0;
#X connect 228 0 226 0;
#X connect 228 1 227 0;
#X connect 229 0 247 0;
#X connect 230 0 249 0;
#X connect 231 0 251 0;
#X connect 232 0 253 0;
#X connect 233 0 238 0;
#X connect 234 0 241 0;
#X connect 235 0 243 0;
#X connect 236 0 245 0;
#X connect 237 0 254 0;
#X connect 237 0 264 0;
#X connect 238 0 239 0;
#X connect 238 1 237 1;
#X connect 239 0 237 0;
#X connect 240 0 254 0;
#X connect 240 0 264 0;
#X connect 241 0 257 0;
#X connect 241 1 240 1;
#X connect 242 0 254 0;
#X connect 242 0 264 0;
#X connect 243 0 263 0;
#X connect 243 1 242 1;
#X connect 244 0 254 0;
#X connect 244 0 264 0;
#X connect 245 0 262 0;
#X connect 245 1 244 1;
#X connect 246 0 254 0;
#X connect 246 0 264 0;
#X connect 247 0 258 0;
#X connect 247 1 246 1;
#X connect 248 0 254 0;
#X connect 248 0 264 0;
#X connect 249 0 259 0;
#X connect 249 1 248 1;
#X connect 250 0 254 0;
#X connect 250 0 264 0;
#X connect 251 0 260 0;
#X connect 251 1 250 1;
#X connect 252 0 254 0;
#X connect 252 0 264 0;
#X connect 253 0 261 0;
#X connect 253 1 252 1;
#X connect 254 0 255 0;
#X connect 254 1 256 0;
#X connect 257 0 240 0;
#X connect 258 0 246 0;
#X connect 259 0 248 0;
#X connect 260 0 250 0;
#X connect 261 0 252 0;
#X connect 262 0 244 0;
#X connect 263 0 242 0;
#X connect 273 0 265 0;
#X connect 273 1 266 0;
#X connect 273 2 267 0;
#X connect 273 3 268 0;
#X connect 273 4 269 0;
#X connect 273 5 270 0;
#X connect 273 6 271 0;
#X connect 273 7 272 0;
#X connect 274 0 273 0;
#X connect 275 0 278 0;
#X connect 276 0 278 1;
#X connect 278 0 277 0;
#X connect 278 1 279 0;
#X connect 278 2 280 0;
#X connect 278 3 281 0;
#X connect 278 4 304 0;
#X connect 278 5 305 0;
#X connect 278 6 282 0;
#X connect 278 7 287 0;
#X connect 278 8 288 0;
#X connect 278 9 283 0;
#X connect 284 0 311 0;
#X connect 285 0 311 0;
#X connect 286 0 311 0;
#X connect 289 0 284 0;
#X connect 289 1 285 0;
#X connect 289 2 286 0;
#X connect 289 3 156 0;
#X connect 289 4 302 0;
#X connect 289 5 303 0;
#X connect 289 6 157 0;
#X connect 289 7 291 0;
#X connect 289 8 174 0;
#X connect 289 9 173 0;
#X connect 289 10 186 0;
#X connect 289 10 177 0;
#X connect 289 11 175 0;
#X connect 290 0 172 0;
#X connect 290 0 158 0;
#X connect 290 0 221 0;
#X connect 291 0 311 0;
#X connect 293 0 134 0;
#X connect 294 0 297 0;
#X connect 294 0 299 0;
#X connect 295 0 294 3;
#X connect 296 0 294 0;
#X connect 298 0 300 0;
#X connect 298 0 306 0;
#X connect 299 0 298 0;
#X connect 301 0 296 1;
#X connect 302 0 311 0;
#X connect 303 0 311 0;
#X connect 306 0 307 0;
#X connect 308 0 311 0;
#X connect 309 0 311 0;
#X connect 310 0 21 0;
#X connect 312 0 211 0;
#X restore 298 276 pd wiringpistuff;
#X obj 180 218 t l l;
#N canvas 409 71 1465 609 loopenv 0;
#X obj 149 -57 line;
#X floatatom 149 -35 5 0 0 0 - - -, f 5;
#X obj 153 -376 notein;
#X obj 153 -351 stripnote;
#X obj 198 -317 bng 15 250 50 0 empty empty empty 17 7 0 10 -262144
-1 -1;
#X obj 137 -258 f;
#X obj 179 -259 + 1;
#X floatatom 98 -222 5 0 0 0 - - -, f 5;
#X msg 154 -289 0;
#X obj 137 -207 s stage;
#X obj 93 -323 r stageend;
#X obj 152 -5 s fromline;
#X obj 149 -86 r toline;
#N canvas 336 219 558 513 stage 0;
#X floatatom 205 236 5 0 0 0 - - -, f 5;
#X floatatom 246 236 5 0 0 0 - - -, f 5;
#X obj 210 85 vsl 15 128 0 1 0 0 empty empty empty 0 -9 0 10 -262144
-1 -1 0 1;
#X obj 241 86 vsl 15 128 0 1 0 0 empty empty empty 0 -9 0 10 -262144
-1 -1 0 1;
#X obj 213 312 pack;
#X obj 296 288 sel, f 2;
#X text 233 57 time;
#X text 190 56 level;
#X obj 210 262 f;
#X obj 241 262 f;
#X obj 159 232 t b b;
#X obj 271 200 spigot;
#X obj 302 176 == 0;
#X obj 243 292 * 5000;
#X obj 301 95 r stage;
#X obj 279 337 s stageend;
#X obj 192 349 s toline;
#X obj 268 149 r fromline;
#X obj 303 118 t f f;
#X obj 158 203 sel 0;
#X obj 158 27 inlet;
#X obj 251 27 inlet;
#X obj 327 29 inlet;
#X msg 350 335 0;
#X obj 322 313 t b b;
#X connect 2 0 0 0;
#X connect 2 0 8 1;
#X connect 2 0 5 1;
#X connect 3 0 1 0;
#X connect 3 0 9 1;
#X connect 4 0 16 0;
#X connect 5 0 24 0;
#X connect 8 0 4 0;
#X connect 9 0 13 0;
#X connect 10 0 8 0;
#X connect 10 1 9 0;
#X connect 11 0 5 0;
#X connect 12 0 11 1;
#X connect 13 0 4 1;
#X connect 14 0 18 0;
#X connect 17 0 11 0;
#X connect 18 0 19 0;
#X connect 18 1 12 0;
#X connect 19 0 10 0;
#X connect 20 0 2 0;
#X connect 21 0 3 0;
#X connect 22 0 12 1;
#X connect 22 0 19 1;
#X connect 23 0 11 1;
#X connect 24 0 15 0;
#X connect 24 1 23 0;
#X restore 289 -247 pd stage;
#X obj 292 -442 vsl 15 128 0 1 0 0 empty empty empty 0 -9 0 10 -262144
-1 -1 0 1;
#X obj 322 -442 vsl 15 128 0 1 0 0 empty empty empty 0 -9 0 10 -262144
-1 -1 0 1;
#X text 317 -466 time;
#X text 274 -467 level;
#X obj 316 -285 loadbang;
#X msg 329 -269 0;
#X floatatom 289 -306 5 0 0 0 - - -, f 5;
#X floatatom 328 -306 5 0 0 0 - - -, f 5;
#X obj 102 -287 bng 15 250 50 0 empty empty empty 17 7 0 10 -262144
-1 -1;
#N canvas 336 219 558 513 stage 0;
#X floatatom 205 236 5 0 0 0 - - -, f 5;
#X floatatom 246 236 5 0 0 0 - - -, f 5;
#X obj 210 85 vsl 15 128 0 1 0 0 empty empty empty 0 -9 0 10 -262144
-1 -1 0 1;
#X obj 241 86 vsl 15 128 0 1 0 0 empty empty empty 0 -9 0 10 -262144
-1 -1 0 1;
#X obj 213 312 pack;
#X obj 296 288 sel, f 2;
#X text 233 57 time;
#X text 190 56 level;
#X obj 210 262 f;
#X obj 241 262 f;
#X obj 159 232 t b b;
#X obj 271 200 spigot;
#X obj 302 176 == 0;
#X obj 243 292 * 5000;
#X obj 301 95 r stage;
#X obj 279 337 s stageend;
#X obj 192 349 s toline;
#X obj 268 149 r fromline;
#X obj 303 118 t f f;
#X obj 158 203 sel 0;
#X obj 158 27 inlet;
#X obj 251 27 inlet;
#X obj 327 29 inlet;
#X msg 350 335 0;
#X obj 322 313 t b b;
#X connect 2 0 0 0;
#X connect 2 0 8 1;
#X connect 2 0 5 1;
#X connect 3 0 1 0;
#X connect 3 0 9 1;
#X connect 4 0 16 0;
#X connect 5 0 24 0;
#X connect 8 0 4 0;
#X connect 9 0 13 0;
#X connect 10 0 8 0;
#X connect 10 1 9 0;
#X connect 11 0 5 0;
#X connect 12 0 11 1;
#X connect 13 0 4 1;
#X connect 14 0 18 0;
#X connect 17 0 11 0;
#X connect 18 0 19 0;
#X connect 18 1 12 0;
#X connect 19 0 10 0;
#X connect 20 0 2 0;
#X connect 21 0 3 0;
#X connect 22 0 12 1;
#X connect 22 0 19 1;
#X connect 23 0 11 1;
#X connect 24 0 15 0;
#X connect 24 1 23 0;
#X restore 400 -246 pd stage;
#X obj 400 -445 vsl 15 128 0 1 0 0 empty empty empty 0 -9 0 10 -262144
-1 -1 0 1;
#X obj 437 -444 vsl 15 128 0 1 0 0 empty empty empty 0 -9 0 10 -262144
-1 -1 0 1;
#X text 428 -465 time;
#X text 385 -466 level;
#X obj 441 -288 loadbang;
#X floatatom 400 -305 5 0 0 0 - - -, f 5;
#X floatatom 439 -305 5 0 0 0 - - -, f 5;
#N canvas 336 219 558 513 stage 0;
#X floatatom 205 236 5 0 0 0 - - -, f 5;
#X floatatom 246 236 5 0 0 0 - - -, f 5;
#X obj 210 85 vsl 15 128 0 1 0 0 empty empty empty 0 -9 0 10 -262144
-1 -1 0 1;
#X obj 241 86 vsl 15 128 0 1 0 0 empty empty empty 0 -9 0 10 -262144
-1 -1 0 1;
#X obj 213 312 pack;
#X obj 296 288 sel, f 2;
#X text 233 57 time;
#X text 190 56 level;
#X obj 210 262 f;
#X obj 241 262 f;
#X obj 159 232 t b b;
#X obj 271 200 spigot;
#X obj 302 176 == 0;
#X obj 243 292 * 5000;
#X obj 301 95 r stage;
#X obj 279 337 s stageend;
#X obj 192 349 s toline;
#X obj 268 149 r fromline;
#X obj 303 118 t f f;
#X obj 158 203 sel 0;
#X obj 158 27 inlet;
#X obj 251 27 inlet;
#X obj 327 29 inlet;
#X msg 350 335 0;
#X obj 322 313 t b b;
#X connect 2 0 0 0;
#X connect 2 0 8 1;
#X connect 2 0 5 1;
#X connect 3 0 1 0;
#X connect 3 0 9 1;
#X connect 4 0 16 0;
#X connect 5 0 24 0;
#X connect 8 0 4 0;
#X connect 9 0 13 0;
#X connect 10 0 8 0;
#X connect 10 1 9 0;
#X connect 11 0 5 0;
#X connect 12 0 11 1;
#X connect 13 0 4 1;
#X connect 14 0 18 0;
#X connect 17 0 11 0;
#X connect 18 0 19 0;
#X connect 18 1 12 0;
#X connect 19 0 10 0;
#X connect 20 0 2 0;
#X connect 21 0 3 0;
#X connect 22 0 12 1;
#X connect 22 0 19 1;
#X connect 23 0 11 1;
#X connect 24 0 15 0;
#X connect 24 1 23 0;
#X restore 504 -251 pd stage;
#X obj 504 -450 vsl 15 128 0 1 0 0 empty empty empty 0 -9 0 10 -262144
-1 -1 0 1;
#X obj 535 -449 vsl 15 128 0 1 0 0 empty empty empty 0 -9 0 10 -262144
-1 -1 0 1;
#X text 532 -470 time;
#X text 489 -471 level;
#X obj 545 -293 loadbang;
#X floatatom 504 -310 5 0 0 0 - - -, f 5;
#X floatatom 543 -310 5 0 0 0 - - -, f 5;
#X msg 440 -267 1;
#X msg 544 -272 2;
#N canvas 336 219 558 513 stage 0;
#X floatatom 205 236 5 0 0 0 - - -, f 5;
#X floatatom 246 236 5 0 0 0 - - -, f 5;
#X obj 210 85 vsl 15 128 0 1 0 0 empty empty empty 0 -9 0 10 -262144
-1 -1 0 1;
#X obj 241 86 vsl 15 128 0 1 0 0 empty empty empty 0 -9 0 10 -262144
-1 -1 0 1;
#X obj 213 312 pack;
#X obj 296 288 sel, f 2;
#X text 233 57 time;
#X text 190 56 level;
#X obj 210 262 f;
#X obj 241 262 f;
#X obj 159 232 t b b;
#X obj 271 200 spigot;
#X obj 302 176 == 0;
#X obj 243 292 * 5000;
#X obj 301 95 r stage;
#X obj 279 337 s stageend;
#X obj 192 349 s toline;
#X obj 268 149 r fromline;
#X obj 303 118 t f f;
#X obj 158 203 sel 0;
#X obj 158 27 inlet;
#X obj 251 27 inlet;
#X obj 327 29 inlet;
#X msg 350 335 0;
#X obj 322 313 t b b;
#X connect 2 0 0 0;
#X connect 2 0 8 1;
#X connect 2 0 5 1;
#X connect 3 0 1 0;
#X connect 3 0 9 1;
#X connect 4 0 16 0;
#X connect 5 0 24 0;
#X connect 8 0 4 0;
#X connect 9 0 13 0;
#X connect 10 0 8 0;
#X connect 10 1 9 0;
#X connect 11 0 5 0;
#X connect 12 0 11 1;
#X connect 13 0 4 1;
#X connect 14 0 18 0;
#X connect 17 0 11 0;
#X connect 18 0 19 0;
#X connect 18 1 12 0;
#X connect 19 0 10 0;
#X connect 20 0 2 0;
#X connect 21 0 3 0;
#X connect 22 0 12 1;
#X connect 22 0 19 1;
#X connect 23 0 11 1;
#X connect 24 0 15 0;
#X connect 24 1 23 0;
#X restore 615 -253 pd stage;
#X obj 615 -452 vsl 15 128 0 1 0 0 empty empty empty 0 -9 0 10 -262144
-1 -1 0 1;
#X obj 646 -451 vsl 15 128 0 1 0 0 empty empty empty 0 -9 0 10 -262144
-1 -1 0 1;
#X text 643 -472 time;
#X text 600 -473 level;
#X obj 656 -295 loadbang;
#X floatatom 615 -312 5 0 0 0 - - -, f 5;
#X floatatom 654 -312 5 0 0 0 - - -, f 5;
#N canvas 336 219 558 513 stage 0;
#X floatatom 205 236 5 0 0 0 - - -, f 5;
#X floatatom 246 236 5 0 0 0 - - -, f 5;
#X obj 210 85 vsl 15 128 0 1 0 0 empty empty empty 0 -9 0 10 -262144
-1 -1 0 1;
#X obj 241 86 vsl 15 128 0 1 0 0 empty empty empty 0 -9 0 10 -262144
-1 -1 0 1;
#X obj 213 312 pack;
#X obj 296 288 sel, f 2;
#X text 233 57 time;
#X text 190 56 level;
#X obj 210 262 f;
#X obj 241 262 f;
#X obj 159 232 t b b;
#X obj 271 200 spigot;
#X obj 302 176 == 0;
#X obj 243 292 * 5000;
#X obj 301 95 r stage;
#X obj 279 337 s stageend;
#X obj 192 349 s toline;
#X obj 268 149 r fromline;
#X obj 303 118 t f f;
#X obj 158 203 sel 0;
#X obj 158 27 inlet;
#X obj 251 27 inlet;
#X obj 327 29 inlet;
#X msg 350 335 0;
#X obj 322 313 t b b;
#X connect 2 0 0 0;
#X connect 2 0 8 1;
#X connect 2 0 5 1;
#X connect 3 0 1 0;
#X connect 3 0 9 1;
#X connect 4 0 16 0;
#X connect 5 0 24 0;
#X connect 8 0 4 0;
#X connect 9 0 13 0;
#X connect 10 0 8 0;
#X connect 10 1 9 0;
#X connect 11 0 5 0;
#X connect 12 0 11 1;
#X connect 13 0 4 1;
#X connect 14 0 18 0;
#X connect 17 0 11 0;
#X connect 18 0 19 0;
#X connect 18 1 12 0;
#X connect 19 0 10 0;
#X connect 20 0 2 0;
#X connect 21 0 3 0;
#X connect 22 0 12 1;
#X connect 22 0 19 1;
#X connect 23 0 11 1;
#X connect 24 0 15 0;
#X connect 24 1 23 0;
#X restore 726 -252 pd stage;
#X obj 726 -451 vsl 15 128 0 1 0 0 empty empty empty 0 -9 0 10 -262144
-1 -1 0 1;
#X obj 758 -450 vsl 15 128 0 1 0 0 empty empty empty 0 -9 0 10 -262144
-1 -1 0 1;
#X text 754 -471 time;
#X text 711 -472 level;
#X obj 767 -294 loadbang;
#X floatatom 726 -311 5 0 0 0 - - -, f 5;
#X floatatom 765 -311 5 0 0 0 - - -, f 5;
#N canvas 336 219 558 513 stage 0;
#X floatatom 205 236 5 0 0 0 - - -, f 5;
#X floatatom 246 236 5 0 0 0 - - -, f 5;
#X obj 210 85 vsl 15 128 0 1 0 0 empty empty empty 0 -9 0 10 -262144
-1 -1 0 1;
#X obj 241 86 vsl 15 128 0 1 0 0 empty empty empty 0 -9 0 10 -262144
-1 -1 0 1;
#X obj 213 312 pack;
#X obj 296 288 sel, f 2;
#X text 233 57 time;
#X text 190 56 level;
#X obj 210 262 f;
#X obj 241 262 f;
#X obj 159 232 t b b;
#X obj 271 200 spigot;
#X obj 302 176 == 0;
#X obj 243 292 * 5000;
#X obj 301 95 r stage;
#X obj 279 337 s stageend;
#X obj 192 349 s toline;
#X obj 268 149 r fromline;
#X obj 303 118 t f f;
#X obj 158 203 sel 0;
#X obj 158 27 inlet;
#X obj 251 27 inlet;
#X obj 327 29 inlet;
#X msg 350 335 0;
#X obj 322 313 t b b;
#X connect 2 0 0 0;
#X connect 2 0 8 1;
#X connect 2 0 5 1;
#X connect 3 0 1 0;
#X connect 3 0 9 1;
#X connect 4 0 16 0;
#X connect 5 0 24 0;
#X connect 8 0 4 0;
#X connect 9 0 13 0;
#X connect 10 0 8 0;
#X connect 10 1 9 0;
#X connect 11 0 5 0;
#X connect 12 0 11 1;
#X connect 13 0 4 1;
#X connect 14 0 18 0;
#X connect 17 0 11 0;
#X connect 18 0 19 0;
#X connect 18 1 12 0;
#X connect 19 0 10 0;
#X connect 20 0 2 0;
#X connect 21 0 3 0;
#X connect 22 0 12 1;
#X connect 22 0 19 1;
#X connect 23 0 11 1;
#X connect 24 0 15 0;
#X connect 24 1 23 0;
#X restore 830 -257 pd stage;
#X obj 830 -456 vsl 15 128 0 1 0 0 empty empty empty 0 -9 0 10 -262144
-1 -1 0 1;
#X obj 861 -455 vsl 15 128 0 1 0 0 empty empty empty 0 -9 0 10 -262144
-1 -1 0 1;
#X text 858 -476 time;
#X text 815 -477 level;
#X obj 871 -299 loadbang;
#X floatatom 830 -316 5 0 0 0 - - -, f 5;
#X floatatom 869 -316 5 0 0 0 - - -, f 5;
#N canvas 336 219 558 513 stage 0;
#X floatatom 205 236 5 0 0 0 - - -, f 5;
#X floatatom 246 236 5 0 0 0 - - -, f 5;
#X obj 210 85 vsl 15 128 0 1 0 0 empty empty empty 0 -9 0 10 -262144
-1 -1 0 1;
#X obj 241 86 vsl 15 128 0 1 0 0 empty empty empty 0 -9 0 10 -262144
-1 -1 0 1;
#X obj 213 312 pack;
#X obj 296 288 sel, f 2;
#X text 233 57 time;
#X text 190 56 level;
#X obj 210 262 f;
#X obj 241 262 f;
#X obj 159 232 t b b;
#X obj 271 200 spigot;
#X obj 302 176 == 0;
#X obj 243 292 * 5000;
#X obj 301 95 r stage;
#X obj 279 337 s stageend;
#X obj 192 349 s toline;
#X obj 268 149 r fromline;
#X obj 303 118 t f f;
#X obj 158 203 sel 0;
#X obj 158 27 inlet;
#X obj 251 27 inlet;
#X obj 327 29 inlet;
#X msg 350 335 0;
#X obj 322 313 t b b;
#X connect 2 0 0 0;
#X connect 2 0 8 1;
#X connect 2 0 5 1;
#X connect 3 0 1 0;
#X connect 3 0 9 1;
#X connect 4 0 16 0;
#X connect 5 0 24 0;
#X connect 8 0 4 0;
#X connect 9 0 13 0;
#X connect 10 0 8 0;
#X connect 10 1 9 0;
#X connect 11 0 5 0;
#X connect 12 0 11 1;
#X connect 13 0 4 1;
#X connect 14 0 18 0;
#X connect 17 0 11 0;
#X connect 18 0 19 0;
#X connect 18 1 12 0;
#X connect 19 0 10 0;
#X connect 20 0 2 0;
#X connect 21 0 3 0;
#X connect 22 0 12 1;
#X connect 22 0 19 1;
#X connect 23 0 11 1;
#X connect 24 0 15 0;
#X connect 24 1 23 0;
#X restore 937 -254 pd stage;
#X obj 937 -453 vsl 15 128 0 1 0 0 empty empty empty 0 -9 0 10 -262144
-1 -1 0 1;
#X obj 968 -452 vsl 15 128 0 1 0 0 empty empty empty 0 -9 0 10 -262144
-1 -1 0 1;
#X text 965 -473 time;
#X text 922 -474 level;
#X obj 978 -296 loadbang;
#X floatatom 937 -313 5 0 0 0 - - -, f 5;
#X floatatom 976 -313 5 0 0 0 - - -, f 5;
#N canvas 336 219 558 513 stage 0;
#X floatatom 205 236 5 0 0 0 - - -, f 5;
#X floatatom 246 236 5 0 0 0 - - -, f 5;
#X obj 210 85 vsl 15 128 0 1 0 0 empty empty empty 0 -9 0 10 -262144
-1 -1 0 1;
#X obj 241 86 vsl 15 128 0 1 0 0 empty empty empty 0 -9 0 10 -262144
-1 -1 0 1;
#X obj 213 312 pack;
#X obj 296 288 sel, f 2;
#X text 233 57 time;
#X text 190 56 level;
#X obj 210 262 f;
#X obj 241 262 f;
#X obj 159 232 t b b;
#X obj 271 200 spigot;
#X obj 302 176 == 0;
#X obj 243 292 * 5000;
#X obj 301 95 r stage;
#X obj 279 337 s stageend;
#X obj 192 349 s toline;
#X obj 268 149 r fromline;
#X obj 303 118 t f f;
#X obj 158 203 sel 0;
#X obj 158 27 inlet;
#X obj 251 27 inlet;
#X obj 327 29 inlet;
#X msg 350 335 0;
#X obj 322 313 t b b;
#X connect 2 0 0 0;
#X connect 2 0 8 1;
#X connect 2 0 5 1;
#X connect 3 0 1 0;
#X connect 3 0 9 1;
#X connect 4 0 16 0;
#X connect 5 0 24 0;
#X connect 8 0 4 0;
#X connect 9 0 13 0;
#X connect 10 0 8 0;
#X connect 10 1 9 0;
#X connect 11 0 5 0;
#X connect 12 0 11 1;
#X connect 13 0 4 1;
#X connect 14 0 18 0;
#X connect 17 0 11 0;
#X connect 18 0 19 0;
#X connect 18 1 12 0;
#X connect 19 0 10 0;
#X connect 20 0 2 0;
#X connect 21 0 3 0;
#X connect 22 0 12 1;
#X connect 22 0 19 1;
#X connect 23 0 11 1;
#X connect 24 0 15 0;
#X connect 24 1 23 0;
#X restore 1048 -253 pd stage;
#X obj 1048 -452 vsl 15 128 0 1 0 0 empty empty empty 0 -9 0 10 -262144
-1 -1 0 1;
#X obj 1079 -451 vsl 15 128 0 1 0 0 empty empty empty 0 -9 0 10 -262144
-1 -1 0 1;
#X text 1076 -472 time;
#X text 1033 -473 level;
#X obj 1089 -295 loadbang;
#X floatatom 1048 -312 5 0 0 0 - - -, f 5;
#X floatatom 1087 -312 5 0 0 0 - - -, f 5;
#X msg 655 -274 3;
#X msg 766 -272 4;
#X msg 870 -278 5;
#X msg 977 -275 6;
#X msg 1088 -274 7;
#X msg 214 -178 2;
#X obj 158 -230 t f f;
#X obj 401 -46 osc~;
#X obj 407 -8 *~;
#X obj 407 14 dac~;
#X floatatom 267 -11 5 0 0 0 - - -, f 5;
#X obj 350 6 sig~;
#X obj 493 -148 vsl 15 128 0 1 0 0 empty empty empty 0 -9 0 10 -262144
-1 -1 0 1;
#X obj 214 -200 sel 7;
#X obj 352 -17 * 800;
#X obj 435 -146 phasor~;
#X obj 242 -69 line~;
#X obj 306 -83 *~ 800;
#X obj 428 -77 vcf~;
#X floatatom 470 -116 5 0 0 0 - - -, f 5;
#X obj 320 -54 *~ 1000;
#X floatatom 399 -201 0 0 0 0 - - -;
#X obj 399 -177 sig~ 890;
#X obj 287 -184 print;
#X obj 243 -372 > 0;
#X obj 242 -238 spigot;
#X obj 235 -310 sel 0;
#X obj 209 -278 s release;
#X obj 817 -82 f;
#X obj 830 -116 r fromline;
#X obj 760 -45 r release;
#X obj 758 26 s toline;
#X msg 768 -5 0 500;
#X obj 369 -128 mtof;
#X msg 265 129 spi_write 1 \$1;
#X obj 289 159 wiringPi;
#X text 289 104 velocity;
#X obj 196 55 * 4000;
#X obj 196 78 i;
#X floatatom 135 83 5 0 0 0 - - -, f 5;
#X obj 291 -606 unpack;
#X floatatom 291 -583 5 0 0 0 - - -, f 5;
#X floatatom 351 -553 5 0 0 0 - - -, f 5;
#X obj 290 -554 route 0 1 2 3 4 5 6 7;
#X obj 291 -629 r envpots1;
#X obj 286 -527 / 127;
#X obj 324 -527 / 127;
#X obj 364 -527 / 127;
#X obj 402 -527 / 127;
#X obj 304 -503 / 127;
#X obj 342 -503 / 127;
#X obj 382 -503 / 127;
#X obj 420 -503 / 127;
#X obj 752 -639 unpack;
#X floatatom 752 -616 5 0 0 0 - - -, f 5;
#X floatatom 812 -586 5 0 0 0 - - -, f 5;
#X obj 751 -587 route 0 1 2 3 4 5 6 7;
#X obj 747 -560 / 127;
#X obj 786 -560 / 127;
#X obj 825 -560 / 127;
#X obj 863 -560 / 127;
#X obj 765 -536 / 127;
#X obj 803 -536 / 127;
#X obj 843 -536 / 127;
#X obj 881 -536 / 127;
#X obj 752 -662 r envpots2;
#X connect 0 0 1 0;
#X connect 0 0 11 0;
#X connect 0 0 95 0;
#X connect 0 0 118 0;
#X connect 2 0 3 0;
#X connect 2 1 3 1;
#X connect 2 1 105 0;
#X connect 3 0 114 0;
#X connect 3 1 4 0;
#X connect 3 1 8 0;
#X connect 5 0 6 0;
#X connect 5 0 7 0;
#X connect 5 0 87 0;
#X connect 6 0 5 1;
#X connect 8 0 5 0;
#X connect 10 0 5 0;
#X connect 12 0 0 0;
#X connect 12 0 97 0;
#X connect 14 0 13 0;
#X connect 14 0 20 0;
#X connect 15 0 13 1;
#X connect 15 0 21 0;
#X connect 18 0 19 0;
#X connect 19 0 13 2;
#X connect 22 0 5 0;
#X connect 24 0 23 0;
#X connect 24 0 29 0;
#X connect 25 0 23 1;
#X connect 25 0 30 0;
#X connect 28 0 39 0;
#X connect 32 0 31 0;
#X connect 32 0 37 0;
#X connect 33 0 31 1;
#X connect 33 0 38 0;
#X connect 36 0 40 0;
#X connect 39 0 23 2;
#X connect 40 0 31 2;
#X connect 42 0 41 0;
#X connect 42 0 47 0;
#X connect 43 0 41 1;
#X connect 43 0 48 0;
#X connect 46 0 81 0;
#X connect 50 0 49 0;
#X connect 50 0 55 0;
#X connect 51 0 49 1;
#X connect 51 0 56 0;
#X connect 54 0 82 0;
#X connect 58 0 57 0;
#X connect 58 0 63 0;
#X connect 59 0 57 1;
#X connect 59 0 64 0;
#X connect 62 0 83 0;
#X connect 66 0 65 0;
#X connect 66 0 71 0;
#X connect 67 0 65 1;
#X connect 67 0 72 0;
#X connect 70 0 84 0;
#X connect 74 0 73 0;
#X connect 74 0 79 0;
#X connect 75 0 73 1;
#X connect 75 0 80 0;
#X connect 78 0 85 0;
#X connect 81 0 41 2;
#X connect 82 0 49 2;
#X connect 83 0 57 2;
#X connect 84 0 65 2;
#X connect 85 0 73 2;
#X connect 86 0 106 0;
#X connect 87 0 9 0;
#X connect 87 1 94 0;
#X connect 88 0 89 0;
#X connect 89 0 90 0;
#X connect 89 0 90 1;
#X connect 93 0 89 1;
#X connect 94 0 86 0;
#X connect 95 0 91 0;
#X connect 95 0 92 0;
#X connect 96 0 99 0;
#X connect 97 0 98 0;
#X connect 97 0 101 0;
#X connect 99 0 89 0;
#X connect 100 0 99 2;
#X connect 101 0 99 1;
#X connect 102 0 103 0;
#X connect 103 0 96 0;
#X connect 105 0 106 1;
#X connect 105 0 107 0;
#X connect 106 0 5 0;
#X connect 107 0 108 0;
#X connect 107 0 104 0;
#X connect 110 0 109 1;
#X connect 111 0 113 0;
#X connect 113 0 112 0;
#X connect 114 0 103 0;
#X connect 115 0 116 0;
#X connect 118 0 119 0;
#X connect 119 0 115 0;
#X connect 120 0 115 0;
#X connect 121 0 122 0;
#X connect 121 1 123 0;
#X connect 124 0 126 0;
#X connect 124 1 130 0;
#X connect 124 2 127 0;
#X connect 124 3 131 0;
#X connect 124 4 128 0;
#X connect 124 5 132 0;
#X connect 124 6 129 0;
#X connect 124 7 133 0;
#X connect 125 0 121 0;
#X connect 125 0 124 0;
#X connect 126 0 14 0;
#X connect 127 0 24 0;
#X connect 128 0 32 0;
#X connect 129 0 42 0;
#X connect 130 0 15 0;
#X connect 131 0 25 0;
#X connect 132 0 33 0;
#X connect 133 0 43 0;
#X connect 134 0 135 0;
#X connect 134 1 136 0;
#X connect 137 0 138 0;
#X connect 137 1 142 0;
#X connect 137 2 139 0;
#X connect 137 3 143 0;
#X connect 137 4 140 0;
#X connect 137 5 144 0;
#X connect 137 6 141 0;
#X connect 137 7 145 0;
#X connect 138 0 50 0;
#X connect 139 0 58 0;
#X connect 140 0 66 0;
#X connect 141 0 74 0;
#X connect 142 0 51 0;
#X connect 143 0 59 0;
#X connect 144 0 67 0;
#X connect 145 0 75 0;
#X connect 146 0 134 0;
#X connect 146 0 137 0;
#X restore 298 90 pd loopenv;
#X connect 1 0 2 0;
#X connect 2 0 6 0;
#X connect 6 0 5 0;
#X connect 6 1 4 0;
