#N canvas 133 46 1122 404 10;
#N canvas 1532 179 726 603 clock 0;
#X obj 314 41 metro 100;
#X obj 155 48 tgl 15 0 empty empty empty 17 7 0 10 -262144 -1 -1 0
1;
#X floatatom 360 14 5 0 0 0 - - -, f 5;
#X obj 130 -141 notein 2;
#X obj 123 -116 stripnote;
#X msg 137 -19 185;
#X obj 137 -46 loadbang;
#X obj 189 1 f;
#X floatatom 187 33 5 0 0 0 - - -, f 5;
#X obj 246 -50 t b b;
#X obj 226 3 +;
#X obj 198 -51 t b b;
#X obj 286 -54 bng 15 250 50 0 empty empty empty 17 7 0 10 -262144
-1 -1;
#X obj 313 -53 bng 15 250 50 0 empty empty empty 17 7 0 10 -262144
-1 -1;
#X obj 135 67 s play;
#X obj 253 33 s ms;
#X obj 334 -7 bendout 2;
#X msg 217 -27 -1;
#X msg 252 -27 1;
#X msg 62 -17 0;
#X msg 72 10 254;
#X obj 427 -46 metro 10;
#X obj 382 -135 notein 2;
#X floatatom 382 -112 5 0 0 0 - - -, f 5;
#X floatatom 479 -120 5 0 0 0 - - -, f 5;
#X obj 426 -73 == 112;
#X obj 426 -97 f;
#X obj 495 -46 metro 10;
#X obj 494 -73 == 112;
#X obj 494 -97 f;
#X floatatom 467 6 5 0 0 0 - - -, f 5;
#X obj 355 -44 sel 85 73;
#X msg 448 34 100;
#X obj 305 10 tgl 15 0 empty empty empty 17 7 0 10 -262144 -1 -1 0
1;
#X obj 113 -95 sel 62 61 85 73;
#X obj 308 72 t b b b;
#X msg 95 42 0;
#X obj 177 119 midirealtimein;
#X obj 222 159 sel 248 251 252 250;
#X obj 212 194 bng 15 250 50 0 empty empty empty 17 7 0 10 -262144
-1 -1;
#X obj 246 193 bng 15 250 50 0 empty empty empty 17 7 0 10 -262144
-1 -1;
#X obj 283 193 bng 15 250 50 0 empty empty empty 17 7 0 10 -262144
-1 -1;
#X obj 317 192 bng 15 250 50 0 empty empty empty 17 7 0 10 -262144
-1 -1;
#X obj 432 94 f;
#X obj 487 93 + 1;
#X floatatom 431 141 5 0 0 0 - - -, f 5;
#X obj 442 181 sel 0;
#X obj 423 255 s clock;
#X msg 281 225 0;
#X msg 324 224 1;
#X obj 270 268 s reset;
#X obj 490 135 mod 6;
#X obj 500 210 s stepclk;
#X obj 390 185 print;
#X connect 0 0 35 0;
#X connect 1 0 14 0;
#X connect 2 0 0 1;
#X connect 3 0 4 0;
#X connect 3 1 4 1;
#X connect 4 0 34 0;
#X connect 5 0 7 0;
#X connect 6 0 5 0;
#X connect 6 0 32 0;
#X connect 6 0 36 0;
#X connect 7 0 8 0;
#X connect 7 0 10 0;
#X connect 7 0 2 0;
#X connect 7 0 15 0;
#X connect 7 0 16 0;
#X connect 9 0 7 0;
#X connect 9 1 18 0;
#X connect 10 0 7 1;
#X connect 11 0 7 0;
#X connect 11 1 17 0;
#X connect 12 0 11 0;
#X connect 13 0 9 0;
#X connect 17 0 10 1;
#X connect 18 0 10 1;
#X connect 19 0 7 0;
#X connect 20 0 7 0;
#X connect 21 0 11 0;
#X connect 22 0 23 0;
#X connect 22 0 31 0;
#X connect 22 1 24 0;
#X connect 22 1 26 1;
#X connect 22 1 29 1;
#X connect 25 0 21 0;
#X connect 26 0 25 0;
#X connect 27 0 9 0;
#X connect 28 0 27 0;
#X connect 29 0 28 0;
#X connect 30 0 21 1;
#X connect 30 0 27 1;
#X connect 31 0 26 0;
#X connect 31 1 29 0;
#X connect 32 0 30 0;
#X connect 33 0 0 0;
#X connect 34 0 1 0;
#X connect 34 1 33 0;
#X connect 36 0 1 0;
#X connect 37 0 38 0;
#X connect 38 0 39 0;
#X connect 38 0 43 0;
#X connect 38 1 40 0;
#X connect 38 2 41 0;
#X connect 38 2 50 0;
#X connect 38 3 42 0;
#X connect 41 0 48 0;
#X connect 42 0 49 0;
#X connect 43 0 44 0;
#X connect 43 0 45 0;
#X connect 43 0 46 0;
#X connect 43 0 52 0;
#X connect 44 0 51 0;
#X connect 46 0 47 0;
#X connect 51 0 43 1;
#X restore 25 -313 pd clock;
#N canvas 293 124 1366 719 scalemaker 0;
#X msg 482 312 0 2 4 5 7 9 11;
#X msg 515 339 0 2 3 5 7 8 10;
#X msg 567 393 0 2 4 6 7 9 11;
#X msg 542 366 0 1 3 5 7 8 10;
#X text 583 312 Major (Ionian);
#X text 615 336 Minor (Aeolian);
#X text 667 393 Lydian;
#X msg 607 422 0 2 4 6 8 10;
#X text 643 365 Phrygian;
#X text 694 421 Whole Tone;
#X obj 485 412 t l l;
#X obj 511 440 list length;
#X msg 513 492 resize \$1;
#X text 526 527 <-- this tells the array \$0-scale to fill the array
elements starting at element 0;
#X text 584 491 <-- set the array size to the number of tones in the
scale octave.;
#X floatatom 67 34 5 0 0 0 - - -, f 5;
#X obj 67 124 mod 7;
#X text 110 123 <-- [mod ] handles negative numbers differently than
[% ];
#X obj 142 167 div 7;
#X obj 67 67 t f f;
#X floatatom 199 211 5 0 0 0 - - -, f 5;
#X floatatom 74 458 5 0 0 0 - - -, f 5;
#X obj 485 279 sel 0 1 2 3 4;
#X floatatom 30 185 5 0 0 0 - - -, f 5;
#X obj 142 220 * 12;
#X obj 74 356 +;
#X obj 74 398 + 48;
#X text 189 163 <-- division that discards the remainder. This tells
you what octave to use.;
#X text 118 396 <-- offset;
#X obj 415 531 list prepend 0;
#X obj 438 560 list trim;
#X obj 74 282 tabread scale;
#X obj 517 561 s scale;
#X obj 511 464 s scale_length;
#X obj 167 48 r scale_length;
#X obj 462 186 receive fromGUI;
#X obj 461 214 route list;
#X obj 461 239 route /scaleslide;
#X msg 612 221 0 1 2 3 4 5 6 7 8 9 10 11;
#X obj 610 189 loadbang;
#X obj 632 68 sel 1;
#X obj 711 66 sel 1;
#X obj 756 66 sel 1;
#X obj 811 68 sel 1;
#X obj 863 69 sel 1;
#X obj 925 70 sel 1;
#X obj 992 71 sel 1;
#X obj 1047 70 sel 1;
#X obj 1112 70 sel 1;
#X obj 1167 70 sel 1;
#X msg 698 92 1;
#X msg 756 92 2;
#X msg 807 92 3;
#X msg 869 93 4;
#X msg 925 93 5;
#X msg 992 94 6;
#X msg 1049 94 7;
#X msg 1107 97 8;
#X msg 1168 97 9;
#X obj 1226 69 sel 1;
#X msg 1227 96 10;
#X obj 1284 71 sel 1;
#X msg 1285 98 11;
#X obj 651 122 f;
#X obj 713 119 f;
#X obj 768 121 f;
#X obj 821 121 f;
#X obj 877 122 f;
#X obj 937 121 f;
#X obj 1007 123 f;
#X obj 1061 125 f;
#X obj 1122 127 f;
#X obj 1182 128 f;
#X obj 1233 128 f;
#X obj 1283 131 f;
#X msg 632 91 0;
#X msg 663 91 99;
#X msg 726 93 99;
#X msg 782 92 99;
#X msg 837 93 99;
#X msg 894 94 99;
#X msg 954 94 99;
#X msg 1016 95 99;
#X msg 1074 95 99;
#X msg 1137 97 99;
#X msg 1196 97 99;
#X msg 1255 96 99;
#X msg 1313 98 99;
#X obj 712 20 t b f;
#X obj 771 20 t b f;
#X obj 823 20 t b f;
#X obj 865 20 t b f;
#X obj 927 19 t b f;
#X obj 995 24 t b f;
#X obj 1054 24 t b f;
#X obj 1106 24 t b f;
#X obj 1163 25 t b f;
#X obj 1221 21 t b f;
#X obj 1285 23 t b f;
#X obj 644 15 t b f;
#X obj 1022 339 f;
#X obj 1060 338 + 1;
#X floatatom 1020 363 5 0 0 0 - - -, f 5;
#X obj 1016 302 bng 15 250 50 0 empty empty empty 17 7 0 10 -262144
-1 -1;
#X obj 981 238 sel 99;
#X obj 1069 364 mod 100;
#X obj 983 198 t b a;
#X obj 961 36 t b b;
#X msg 1047 230 0;
#X obj 1069 189 loadbang;
#X obj 1022 394 + 1;
#X floatatom 710 457 5 0 0 0 - - -, f 5;
#X obj 974 275 t f b;
#X obj 989 440 list prepend;
#X obj 1074 470 t l;
#X obj 1001 500 t l l;
#X obj 1027 528 list length;
#X msg 1029 580 resize \$1;
#X obj 931 619 list prepend 0;
#X obj 954 648 list trim;
#X obj 1033 649 s scale;
#X obj 1027 552 s scale_length;
#X text 1042 615 comment;
#X obj 275 604 loadbang;
#X msg 275 646 \; scale 0 0 2 4 5 7 9 11 12 14 16 17 19 21 23 24 26
28 29 31 33 35 36 38 40 41 43 45 47 48 \;;
#X obj 66 556 nbx 4 16 -1e+37 1e+37 0 0 empty empty empty 0 -8 0 12
-262130 -4160 -1 0 256 0;
#X obj 69 732 hsl 195 15 0 15 0 0 empty empty empty -2 -8 0 10 -258113
-4032 -1 0 1;
#N canvas 0 50 450 300 (subpatch) 0;
#X array scale 5 float 3 black black;
#A 0 0 2 3 7 8;
#X coords 0 60 5 0 200 140 1;
#X restore 66 585 graph;
#X obj 788 -107 receive fromkeys;
#X obj 790 -54 unpack 0 0 0 0 0 0 0 0 0 0 0 0 0;
#X obj 247 254 mod 4;
#X connect 0 0 10 0;
#X connect 1 0 10 0;
#X connect 2 0 10 0;
#X connect 3 0 10 0;
#X connect 7 0 10 0;
#X connect 10 0 29 0;
#X connect 10 1 11 0;
#X connect 11 0 12 0;
#X connect 11 0 33 0;
#X connect 11 0 111 0;
#X connect 12 0 32 0;
#X connect 15 0 19 0;
#X connect 16 0 23 0;
#X connect 16 0 31 0;
#X connect 18 0 130 0;
#X connect 19 0 16 0;
#X connect 19 1 18 0;
#X connect 22 0 0 0;
#X connect 22 1 1 0;
#X connect 22 2 3 0;
#X connect 22 3 2 0;
#X connect 22 4 7 0;
#X connect 24 0 25 1;
#X connect 25 0 26 0;
#X connect 26 0 21 0;
#X connect 29 0 30 0;
#X connect 30 0 32 0;
#X connect 31 0 25 0;
#X connect 34 0 16 1;
#X connect 34 0 18 1;
#X connect 35 0 36 0;
#X connect 36 0 37 0;
#X connect 37 0 22 0;
#X connect 38 0 10 0;
#X connect 39 0 38 0;
#X connect 40 0 75 0;
#X connect 40 1 76 0;
#X connect 41 0 50 0;
#X connect 41 1 77 0;
#X connect 42 0 51 0;
#X connect 42 1 78 0;
#X connect 43 0 52 0;
#X connect 43 1 79 0;
#X connect 44 0 53 0;
#X connect 44 1 80 0;
#X connect 45 0 54 0;
#X connect 45 1 81 0;
#X connect 46 0 55 0;
#X connect 46 1 82 0;
#X connect 47 0 56 0;
#X connect 47 1 83 0;
#X connect 48 0 57 0;
#X connect 48 1 84 0;
#X connect 49 0 58 0;
#X connect 49 1 85 0;
#X connect 50 0 64 1;
#X connect 51 0 65 1;
#X connect 52 0 66 1;
#X connect 53 0 67 1;
#X connect 54 0 68 1;
#X connect 55 0 69 1;
#X connect 56 0 70 1;
#X connect 57 0 71 1;
#X connect 58 0 72 1;
#X connect 59 0 60 0;
#X connect 59 1 86 0;
#X connect 60 0 73 1;
#X connect 61 0 62 0;
#X connect 61 1 87 0;
#X connect 62 0 74 1;
#X connect 63 0 106 0;
#X connect 64 0 106 0;
#X connect 65 0 106 0;
#X connect 66 0 106 0;
#X connect 67 0 106 0;
#X connect 68 0 106 0;
#X connect 69 0 106 0;
#X connect 70 0 106 0;
#X connect 71 0 106 0;
#X connect 72 0 106 0;
#X connect 73 0 106 0;
#X connect 74 0 106 0;
#X connect 75 0 63 1;
#X connect 76 0 63 1;
#X connect 77 0 64 1;
#X connect 78 0 65 1;
#X connect 79 0 66 1;
#X connect 80 0 67 1;
#X connect 81 0 68 1;
#X connect 82 0 69 1;
#X connect 83 0 70 1;
#X connect 84 0 71 1;
#X connect 85 0 72 1;
#X connect 86 0 73 1;
#X connect 87 0 74 1;
#X connect 88 0 107 0;
#X connect 88 1 41 0;
#X connect 89 0 107 0;
#X connect 89 1 42 0;
#X connect 90 0 107 0;
#X connect 90 1 43 0;
#X connect 91 0 107 0;
#X connect 91 1 44 0;
#X connect 92 0 107 0;
#X connect 92 1 45 0;
#X connect 93 0 107 0;
#X connect 93 1 46 0;
#X connect 94 0 107 0;
#X connect 94 1 47 0;
#X connect 95 0 107 0;
#X connect 95 1 48 0;
#X connect 96 0 107 0;
#X connect 96 1 49 0;
#X connect 97 0 107 0;
#X connect 97 1 59 0;
#X connect 98 0 107 0;
#X connect 98 1 61 0;
#X connect 99 0 107 0;
#X connect 99 1 40 0;
#X connect 100 0 101 0;
#X connect 100 0 102 0;
#X connect 101 0 105 0;
#X connect 102 0 110 0;
#X connect 103 0 100 0;
#X connect 104 1 112 0;
#X connect 105 0 100 1;
#X connect 106 1 104 0;
#X connect 107 0 63 0;
#X connect 107 0 64 0;
#X connect 107 0 65 0;
#X connect 107 0 66 0;
#X connect 107 0 67 0;
#X connect 107 0 68 0;
#X connect 107 0 69 0;
#X connect 107 0 70 0;
#X connect 107 0 71 0;
#X connect 107 0 72 0;
#X connect 107 0 73 0;
#X connect 107 0 74 0;
#X connect 107 1 108 0;
#X connect 107 1 113 1;
#X connect 108 0 100 1;
#X connect 108 0 102 0;
#X connect 109 0 108 0;
#X connect 112 0 113 0;
#X connect 112 1 103 0;
#X connect 113 0 114 0;
#X connect 113 0 115 0;
#X connect 114 0 113 1;
#X connect 115 0 118 0;
#X connect 115 1 116 0;
#X connect 116 0 117 0;
#X connect 116 0 121 0;
#X connect 117 0 120 0;
#X connect 118 0 119 0;
#X connect 119 0 120 0;
#X connect 123 0 124 0;
#X connect 125 0 126 0;
#X connect 128 0 129 0;
#X connect 129 0 99 0;
#X connect 129 1 88 0;
#X connect 129 2 89 0;
#X connect 129 3 90 0;
#X connect 129 4 91 0;
#X connect 129 5 92 0;
#X connect 129 6 93 0;
#X connect 129 7 94 0;
#X connect 129 8 95 0;
#X connect 129 9 96 0;
#X connect 129 10 97 0;
#X connect 129 11 98 0;
#X connect 130 0 24 0;
#X connect 130 0 20 0;
#X restore 121 -281 pd scalemaker;
#N canvas 1833 122 1199 668 303seq 0;
#X obj 771 -31 tgl 15 0 empty empty empty 17 7 0 10 -262144 -1 -1 0
1;
#X floatatom 815 -34 5 0 0 0 - - -, f 5;
#X floatatom 733 11 5 0 0 0 - - -, f 5;
#X obj 770 -11 metro 150;
#X obj 724 256 counter 15;
#X obj 544 723 s tocv1;
#X obj 489 721 s gate4;
#X obj 425 721 s gate3;
#X obj 383 592 f, f 4;
#X text 1730 546 accent;
#X text 1775 546 slide;
#X obj 546 686 * 41.6667;
#X obj 536 542 spigot;
#X obj 770 10 counter 5;
#X obj 726 227 sel 0;
#X msg 495 662 0;
#X msg 465 666 1;
#X obj 384 614 sel 1 0;
#X obj 438 601 delay 20;
#X msg 406 651 0;
#X msg 377 652 1;
#X obj 787 98 r stepclk;
#X floatatom 568 611 5 0 0 0 - - -, f 5;
#X obj 1753 527 tgl 15 0 empty empty empty 17 7 0 10 -262144 -1 -1
0 28;
#X obj 1773 527 tgl 15 0 empty empty empty 17 7 0 10 -262144 -1 -1
0 39;
#X obj 1698 500 tgl 15 0 empty empty empty 17 7 0 10 -262144 -1 -1
0 1;
#X obj 1716 499 tgl 15 0 empty empty empty 17 7 0 10 -262144 -1 -1
0 1;
#X floatatom 1749 473 5 0 0 0 - - -, f 5;
#X floatatom 1169 214 5 0 0 0 - - -, f 5;
#X msg 1131 130 1;
#X msg 1190 130 3;
#X msg 1161 130 2;
#X msg 1219 129 4;
#X msg 1249 129 5;
#X msg 1278 129 6;
#X msg 1309 129 7;
#X msg 1338 129 8;
#X msg 1131 157 9;
#X msg 1161 157 10;
#X msg 1190 157 11;
#X msg 1219 156 12;
#X msg 1249 156 13;
#X msg 1278 156 14;
#X msg 1309 156 15;
#X msg 1338 156 16;
#X msg 1578 612 1;
#X msg 1608 612 3;
#X msg 1591 590 2;
#X msg 1619 590 4;
#X msg 1635 612 5;
#X msg 1662 612 6;
#X msg 1673 589 7;
#X msg 1689 612 8;
#X msg 1700 589 9;
#X msg 1716 612 10;
#X msg 1727 590 11;
#X msg 1743 611 12;
#X msg 1770 611 13;
#X floatatom 1591 654 5 0 0 0 - - -, f 5;
#X obj 1832 472 bng 15 250 50 0 empty empty empty 17 7 0 10 -262144
-1 -1;
#X obj 1813 472 bng 15 250 50 0 empty empty empty 17 7 0 10 -262144
-1 -1;
#X floatatom 1729 226 5 0 0 0 - - -, f 5;
#X msg 1735 148 inc;
#X msg 1765 146 dec;
#X msg 1801 153 0;
#X obj 1729 203 counter 100;
#X obj 1423 249 table patternnote 1600;
#X obj 1563 247 table patternacc 1600;
#X obj 1562 272 table patternslide 1600;
#X obj 1453 342 tabread patternnote;
#X obj 1583 354 tabread patternslide;
#X obj 1583 302 tabread patternacc;
#X obj 1366 522 tgl 30 0 empty empty empty 17 7 0 10 -262144 -1 -1
0 1;
#X obj 1367 556 sel 1;
#X obj 1403 522 tgl 30 0 empty empty empty 17 7 0 10 -262144 -1 -1
0 1;
#X obj 1404 556 sel 1;
#X obj 1440 522 tgl 30 0 empty empty empty 17 7 0 10 -262144 -1 -1
0 1;
#X obj 1441 556 sel 1;
#X obj 1477 522 tgl 30 0 empty empty empty 17 7 0 10 -262144 -1 -1
0 1;
#X obj 1478 556 sel 1;
#X obj 1513 521 tgl 30 0 empty empty empty 17 7 0 10 -262144 -1 -1
0 1;
#X obj 1514 555 sel 1;
#X obj 1550 521 tgl 30 0 empty empty empty 17 7 0 10 -262144 -1 -1
0 1;
#X obj 1551 555 sel 1;
#X obj 1587 521 tgl 30 0 empty empty empty 17 7 0 10 -262144 -1 -1
0 1;
#X obj 1588 555 sel 1;
#X obj 1624 521 tgl 30 0 empty empty empty 17 7 0 10 -262144 -1 -1
0 1;
#X obj 1625 555 sel 1;
#X obj 1383 473 tgl 30 0 empty empty empty 17 7 0 10 -262144 -1 -1
0 1;
#X obj 1383 506 sel 1;
#X obj 1419 469 tgl 30 0 empty empty empty 17 7 0 10 -262144 -1 -1
0 1;
#X obj 1420 504 sel 1;
#X obj 1493 469 tgl 30 0 empty empty empty 17 7 0 10 -262144 -1 -1
0 1;
#X obj 1494 503 sel 1;
#X obj 1529 468 tgl 30 0 empty empty empty 17 7 0 10 -262144 -1 -1
0 1;
#X obj 1530 502 sel 1;
#X obj 1566 468 tgl 30 0 empty empty empty 17 7 0 10 -262144 -1 -1
0 1;
#X obj 1567 502 sel 1;
#X obj 1810 326 t f b;
#X msg 1583 375 set \$1;
#X msg 1583 324 set \$1;
#X obj 1342 269 table patternoctave 1600;
#X obj 1761 248 tabread patternoctave;
#X obj 1742 304 sel 0 1 2;
#X obj 1776 270 t f b;
#X obj 1462 769 tabwrite patternnote;
#X obj 1604 769 tabwrite patternacc;
#X obj 1728 769 tabwrite patternslide;
#X obj 1603 726 tabwrite patternoctave;
#X obj 1630 664 sel 1;
#X obj 1673 665 sel 1;
#X msg 1673 688 2;
#X floatatom 1453 365 5 0 0 0 - - -, f 5;
#X msg 1827 369 set 0;
#X obj 922 335 tabread patternslide;
#X obj 365 514 tabread patternacc;
#X obj 743 372 tabread patternnote;
#X obj 742 417 sel 0;
#X msg 1804 294 set 0;
#X msg 1724 344 set 1;
#X msg 1769 344 set 1;
#X msg 1630 687 1;
#X obj 1389 116 tabwrite patternnote;
#X obj 1531 116 tabwrite patternacc;
#X obj 1655 116 tabwrite patternslide;
#X obj 1530 73 tabwrite patternoctave;
#X obj 1453 37 f;
#X obj 1486 37 + 1;
#X obj 1389 28 t b b;
#X msg 1455 84 0;
#X obj 1323 3 tgl 15 0 empty empty empty 17 7 0 10 -262144 -1 -1 0
1;
#X floatatom 1312 72 5 0 0 0 - - -, f 5;
#X obj 1547 152 random 2;
#X obj 1653 153 random 2;
#X obj 1541 39 random 3;
#X obj 1386 6 metro 10;
#X floatatom 1145 44 3 0 100 0 - - -, f 3;
#X text 1171 44 <-- change probablilty;
#X msg 1155 89 0;
#X obj 1237 -12 sel 1;
#X obj 586 310 timer;
#X obj 580 281 t b b;
#X text 583 634 transpose;
#X obj 878 398 s slideon/off;
#X obj 787 125 t f f f f;
#X obj 865 489 f;
#X obj 866 531 pack 0 0;
#X obj 769 608 spigot;
#X text 893 488 new value;
#X obj 761 488 f;
#X text 787 490 old value;
#X msg 775 530 \$1 0;
#X obj 721 286 t f b b f;
#X obj 981 424 sel 1 0;
#X msg 985 455 0;
#X msg 1011 455 1;
#X obj 980 489 spigot;
#X obj 989 530 f;
#X obj 880 576 line 0 1;
#X obj 777 641 spigot;
#X obj 1366 73 random 38;
#X floatatom 475 369 5 0 0 0 - - -, f 5;
#X obj 449 421 + 1;
#X obj 455 470 spigot;
#X obj 1068 446 tgl 15 0 empty empty empty 17 7 0 10 -262144 -1 -1
0 1;
#X obj 528 505 spigot;
#X floatatom 1771 6 3 0 100 0 - - -, f 3;
#X msg 1780 61 0;
#X obj 668 523 t b b;
#X obj 683 358 sel 5;
#X obj 1113 269 r reset;
#X msg 1128 299 0;
#X obj 1455 61 sel 32;
#X floatatom 815 219 5 0 0 0 - - -, f 5;
#X obj 1398 162 random 32;
#X obj 871 350 loadbang;
#N canvas 142 181 1176 548 scaler 0;
#X obj 33 23 inlet;
#X obj 301 26 inlet;
#X obj 38 433 outlet;
#X obj 66 85 int;
#X floatatom 63 106 5 0 0 0 - - -, f 5;
#X obj 169 147 mod 7;
#X text 212 146 <-- [mod ] handles negative numbers differently than
[% ];
#X obj 244 190 div 7;
#X obj 169 90 t f f;
#X floatatom 301 234 5 0 0 0 - - -, f 5;
#X floatatom 182 407 5 0 0 0 - - -, f 5;
#X floatatom 132 208 5 0 0 0 - - -, f 5;
#X obj 238 270 * 12;
#X obj 179 337 +;
#X text 291 186 <-- division that discards the remainder. This tells
you what octave to use.;
#X text 223 377 <-- offset;
#X obj 176 305 tabread scale;
#X obj 269 71 r scale_length;
#X obj 179 379 + 0;
#X obj 239 232 mod 2;
#X connect 0 0 3 0;
#X connect 1 0 18 1;
#X connect 3 0 4 0;
#X connect 4 0 8 0;
#X connect 5 0 11 0;
#X connect 5 0 16 0;
#X connect 7 0 19 0;
#X connect 8 0 5 0;
#X connect 8 1 7 0;
#X connect 10 0 2 0;
#X connect 12 0 13 1;
#X connect 13 0 18 0;
#X connect 16 0 13 0;
#X connect 17 0 5 1;
#X connect 17 0 7 1;
#X connect 18 0 10 0;
#X connect 19 0 12 0;
#X connect 19 0 9 0;
#X restore 810 398 pd scaler;
#X msg 867 371 0;
#X floatatom 1070 44 3 0 100 0 - - -, f 3;
#X obj 1078 103 f;
#X obj 1025 22 random 100;
#X obj 1075 138 t b;
#X obj 1100 22 random 100;
#X obj 1323 -33 inlet;
#X obj 841 181 inlet;
#X obj 1049 -24 inlet;
#X obj 1147 -25 inlet;
#X obj 1730 3 inlet;
#X obj 588 564 inlet;
#X obj 1100 70 moses 20;
#X obj 552 634 + 12;
#X obj 1725 42 moses 1;
#X obj 1025 70 moses 45;
#X obj 475 331 inlet;
#X connect 0 0 3 0;
#X connect 1 0 3 1;
#X connect 3 0 13 0;
#X connect 4 0 152 0;
#X connect 8 0 17 0;
#X connect 11 0 5 0;
#X connect 12 0 15 0;
#X connect 13 0 2 0;
#X connect 13 0 144 0;
#X connect 14 0 4 0;
#X connect 14 0 141 0;
#X connect 15 0 6 0;
#X connect 16 0 6 0;
#X connect 17 0 18 0;
#X connect 17 0 20 0;
#X connect 19 0 7 0;
#X connect 20 0 7 0;
#X connect 21 0 144 0;
#X connect 22 0 190 1;
#X connect 23 0 106 0;
#X connect 24 0 107 0;
#X connect 25 0 109 0;
#X connect 26 0 110 0;
#X connect 29 0 28 0;
#X connect 30 0 28 0;
#X connect 31 0 28 0;
#X connect 32 0 28 0;
#X connect 33 0 28 0;
#X connect 34 0 28 0;
#X connect 35 0 28 0;
#X connect 36 0 28 0;
#X connect 37 0 28 0;
#X connect 38 0 28 0;
#X connect 39 0 28 0;
#X connect 40 0 28 0;
#X connect 41 0 28 0;
#X connect 42 0 28 0;
#X connect 43 0 28 0;
#X connect 44 0 28 0;
#X connect 45 0 58 0;
#X connect 46 0 58 0;
#X connect 47 0 58 0;
#X connect 48 0 58 0;
#X connect 49 0 58 0;
#X connect 50 0 58 0;
#X connect 51 0 58 0;
#X connect 52 0 58 0;
#X connect 53 0 58 0;
#X connect 54 0 58 0;
#X connect 55 0 58 0;
#X connect 56 0 58 0;
#X connect 57 0 58 0;
#X connect 58 0 105 0;
#X connect 59 0 62 0;
#X connect 60 0 63 0;
#X connect 62 0 65 0;
#X connect 63 0 65 0;
#X connect 64 0 65 3;
#X connect 65 0 61 0;
#X connect 65 0 27 0;
#X connect 65 0 71 0;
#X connect 65 0 69 0;
#X connect 65 0 70 0;
#X connect 65 0 102 0;
#X connect 65 0 105 1;
#X connect 65 0 108 1;
#X connect 65 0 107 1;
#X connect 65 0 106 1;
#X connect 69 0 98 0;
#X connect 69 0 112 0;
#X connect 70 0 99 0;
#X connect 71 0 100 0;
#X connect 72 0 73 0;
#X connect 73 0 45 0;
#X connect 73 1 58 0;
#X connect 74 0 75 0;
#X connect 75 0 46 0;
#X connect 75 1 58 0;
#X connect 76 0 77 0;
#X connect 77 0 49 0;
#X connect 77 1 58 0;
#X connect 78 0 79 0;
#X connect 79 0 50 0;
#X connect 79 1 58 0;
#X connect 80 0 81 0;
#X connect 81 0 52 0;
#X connect 81 1 58 0;
#X connect 82 0 83 0;
#X connect 83 0 54 0;
#X connect 83 1 58 0;
#X connect 84 0 85 0;
#X connect 85 0 56 0;
#X connect 85 1 58 0;
#X connect 86 0 87 0;
#X connect 87 0 57 0;
#X connect 87 1 58 0;
#X connect 88 0 89 0;
#X connect 89 0 47 0;
#X connect 89 1 58 0;
#X connect 90 0 91 0;
#X connect 91 0 48 0;
#X connect 91 1 58 0;
#X connect 92 0 93 0;
#X connect 93 0 51 0;
#X connect 93 1 58 0;
#X connect 94 0 95 0;
#X connect 95 0 53 0;
#X connect 95 1 58 0;
#X connect 96 0 97 0;
#X connect 97 0 55 0;
#X connect 97 1 58 0;
#X connect 98 1 113 0;
#X connect 99 0 24 0;
#X connect 100 0 23 0;
#X connect 102 0 104 0;
#X connect 103 1 119 0;
#X connect 103 2 120 0;
#X connect 104 0 103 0;
#X connect 104 1 118 0;
#X connect 109 0 121 0;
#X connect 109 0 108 0;
#X connect 110 0 111 0;
#X connect 111 0 108 0;
#X connect 113 0 96 0;
#X connect 113 0 86 0;
#X connect 113 0 84 0;
#X connect 113 0 82 0;
#X connect 113 0 80 0;
#X connect 113 0 78 0;
#X connect 113 0 76 0;
#X connect 113 0 74 0;
#X connect 113 0 72 0;
#X connect 113 0 94 0;
#X connect 113 0 92 0;
#X connect 113 0 90 0;
#X connect 113 0 88 0;
#X connect 114 0 143 0;
#X connect 114 0 147 1;
#X connect 114 0 153 0;
#X connect 114 0 159 1;
#X connect 115 0 8 0;
#X connect 116 0 176 0;
#X connect 117 0 12 0;
#X connect 117 1 145 1;
#X connect 117 1 165 1;
#X connect 117 1 157 1;
#X connect 117 1 168 0;
#X connect 118 0 26 0;
#X connect 118 0 25 0;
#X connect 119 0 25 0;
#X connect 120 0 26 0;
#X connect 121 0 108 0;
#X connect 126 0 127 0;
#X connect 126 0 122 1;
#X connect 126 0 124 1;
#X connect 126 0 123 1;
#X connect 126 0 125 1;
#X connect 126 0 131 0;
#X connect 126 0 172 0;
#X connect 127 0 126 1;
#X connect 128 0 132 0;
#X connect 128 0 133 0;
#X connect 128 0 134 0;
#X connect 128 0 160 0;
#X connect 128 1 126 0;
#X connect 129 0 126 1;
#X connect 129 0 130 0;
#X connect 130 0 135 0;
#X connect 130 0 139 0;
#X connect 132 0 123 0;
#X connect 133 0 191 0;
#X connect 134 0 125 0;
#X connect 135 0 128 0;
#X connect 136 0 189 1;
#X connect 138 0 122 0;
#X connect 139 0 174 0;
#X connect 139 0 180 0;
#X connect 139 0 182 0;
#X connect 140 0 162 0;
#X connect 141 0 140 0;
#X connect 141 1 140 1;
#X connect 144 3 14 0;
#X connect 144 3 169 0;
#X connect 145 0 149 1;
#X connect 145 0 146 0;
#X connect 146 0 158 0;
#X connect 147 0 149 0;
#X connect 149 0 151 0;
#X connect 151 0 158 0;
#X connect 152 0 165 0;
#X connect 152 1 159 0;
#X connect 152 2 147 0;
#X connect 152 2 156 0;
#X connect 152 3 116 0;
#X connect 152 3 114 0;
#X connect 153 0 154 0;
#X connect 153 1 155 0;
#X connect 154 0 156 1;
#X connect 154 0 164 0;
#X connect 154 0 163 1;
#X connect 154 0 12 1;
#X connect 155 0 156 1;
#X connect 155 0 164 0;
#X connect 155 0 163 1;
#X connect 155 0 12 1;
#X connect 156 0 157 0;
#X connect 157 0 190 0;
#X connect 158 0 190 0;
#X connect 159 0 145 0;
#X connect 160 0 192 0;
#X connect 161 0 162 1;
#X connect 162 0 146 1;
#X connect 163 0 115 0;
#X connect 165 0 163 0;
#X connect 166 0 191 1;
#X connect 167 0 124 0;
#X connect 168 0 16 0;
#X connect 169 0 19 0;
#X connect 169 0 12 0;
#X connect 170 0 171 0;
#X connect 171 0 4 3;
#X connect 172 0 129 0;
#X connect 173 0 4 4;
#X connect 174 0 173 0;
#X connect 175 0 177 0;
#X connect 176 0 117 0;
#X connect 177 0 176 1;
#X connect 178 0 192 1;
#X connect 179 0 189 0;
#X connect 181 0 179 0;
#X connect 183 0 130 0;
#X connect 184 0 173 0;
#X connect 184 0 172 1;
#X connect 185 0 178 0;
#X connect 186 0 136 0;
#X connect 187 0 191 1;
#X connect 188 0 190 1;
#X connect 189 0 122 0;
#X connect 189 1 138 0;
#X connect 190 0 11 0;
#X connect 191 0 124 0;
#X connect 191 1 167 0;
#X connect 192 0 179 1;
#X connect 192 0 189 0;
#X connect 192 1 181 0;
#X connect 193 0 161 0;
#X restore 158 -161 pd 303seq;
#X obj 682 -237 tgl 30 0 empty empty empty 17 7 0 10 -262144 -1 -1
1 1;
#X obj 719 -237 tgl 30 0 empty empty empty 17 7 0 10 -262144 -1 -1
1 1;
#X obj 756 -235 tgl 30 0 empty empty empty 17 7 0 10 -262144 -1 -1
0 1;
#X obj 793 -237 tgl 30 0 empty empty empty 17 7 0 10 -262144 -1 -1
1 1;
#X obj 829 -238 tgl 30 0 empty empty empty 17 7 0 10 -262144 -1 -1
1 1;
#X obj 866 -238 tgl 30 0 empty empty empty 17 7 0 10 -262144 -1 -1
0 1;
#X obj 903 -238 tgl 30 0 empty empty empty 17 7 0 10 -262144 -1 -1
1 1;
#X obj 940 -238 tgl 30 0 empty empty empty 17 7 0 10 -262144 -1 -1
0 1;
#X obj 699 -286 tgl 30 0 empty empty empty 17 7 0 10 -262144 -1 -1
0 1;
#X obj 735 -290 tgl 30 0 empty empty empty 17 7 0 10 -262144 -1 -1
1 1;
#X obj 809 -290 tgl 30 0 empty empty empty 17 7 0 10 -262144 -1 -1
0 1;
#X obj 845 -291 tgl 30 0 empty empty empty 17 7 0 10 -262144 -1 -1
1 1;
#X obj 882 -291 tgl 30 0 empty empty empty 17 7 0 10 -262144 -1 -1
0 1;
#X obj 651 -161 pack 0 0 0 0 0 0 0 0 0 0 0 0 0;
#X obj 586 -215 bng 15 250 50 0 empty empty empty 17 7 0 10 -262144
-1 -1;
#X obj 675 -202 t b f;
#X obj 720 -203 t b f;
#X obj 757 -203 t b f;
#X obj 794 -203 sel 1;
#X obj 830 -204 t b f;
#X obj 867 -204 t b f;
#X obj 904 -204 sel 1;
#X obj 941 -204 t b f;
#X obj 736 -255 t b f;
#X obj 883 -257 t b f;
#X obj 699 -253 t b f;
#X obj 810 -256 t b f;
#X obj 846 -257 t b f;
#X obj 651 -138 s fromkeys;
#X obj 210 -209 bng 15 250 50 0 empty empty empty 17 7 0 10 -262144
-1 -1;
#X floatatom 131 -215 5 0 0 0 - - -, f 5;
#X floatatom 237 -210 5 0 100 0 - - -, f 5;
#X text 236 -185 probrep;
#X floatatom 287 -208 5 0 100 0 - - -, f 5;
#X floatatom 339 -211 5 0 100 0 - - -, f 5;
#X text 287 -187 probzero;
#X text 340 -188 probslide;
#X text 126 -234 length;
#X floatatom 67 -186 5 0 100 0 - - -, f 5;
#X text 67 -165 transpose;
#X obj 838 -344 loadbang;
#N canvas 172 88 1754 1018 303seq 1;
#X obj 771 -31 tgl 15 0 empty empty empty 17 7 0 10 -262144 -1 -1 0
1;
#X floatatom 815 -34 5 0 0 0 - - -, f 5;
#X floatatom 733 11 5 0 0 0 - - -, f 5;
#X obj 770 -11 metro 150;
#X obj 724 256 counter 15;
#X obj 383 592 f, f 4;
#X text 1730 546 accent;
#X text 1775 546 slide;
#X obj 546 686 * 41.6667;
#X obj 536 542 spigot;
#X obj 770 10 counter 5;
#X obj 726 227 sel 0;
#X msg 495 662 0;
#X msg 465 666 1;
#X obj 384 614 sel 1 0;
#X obj 438 601 delay 20;
#X msg 406 651 0;
#X msg 377 652 1;
#X obj 787 98 r stepclk;
#X floatatom 601 558 5 0 0 0 - - -, f 5;
#X obj 1753 527 tgl 15 0 empty empty empty 17 7 0 10 -262144 -1 -1
0 28;
#X obj 1773 527 tgl 15 0 empty empty empty 17 7 0 10 -262144 -1 -1
0 39;
#X obj 1698 500 tgl 15 0 empty empty empty 17 7 0 10 -262144 -1 -1
0 1;
#X obj 1716 499 tgl 15 0 empty empty empty 17 7 0 10 -262144 -1 -1
0 1;
#X floatatom 1749 473 5 0 0 0 - - -, f 5;
#X floatatom 1169 214 5 0 0 0 - - -, f 5;
#X msg 1131 130 1;
#X msg 1190 130 3;
#X msg 1161 130 2;
#X msg 1219 129 4;
#X msg 1249 129 5;
#X msg 1278 129 6;
#X msg 1309 129 7;
#X msg 1338 129 8;
#X msg 1131 157 9;
#X msg 1161 157 10;
#X msg 1190 157 11;
#X msg 1219 156 12;
#X msg 1249 156 13;
#X msg 1278 156 14;
#X msg 1309 156 15;
#X msg 1338 156 16;
#X msg 1578 612 1;
#X msg 1608 612 3;
#X msg 1591 590 2;
#X msg 1619 590 4;
#X msg 1635 612 5;
#X msg 1662 612 6;
#X msg 1673 589 7;
#X msg 1689 612 8;
#X msg 1700 589 9;
#X msg 1716 612 10;
#X msg 1727 590 11;
#X msg 1743 611 12;
#X msg 1770 611 13;
#X floatatom 1591 654 5 0 0 0 - - -, f 5;
#X obj 1832 472 bng 15 250 50 0 empty empty empty 17 7 0 10 -262144
-1 -1;
#X obj 1813 472 bng 15 250 50 0 empty empty empty 17 7 0 10 -262144
-1 -1;
#X floatatom 1729 226 5 0 0 0 - - -, f 5;
#X msg 1735 148 inc;
#X msg 1765 146 dec;
#X msg 1801 153 0;
#X obj 1729 203 counter 100;
#X obj 1366 522 tgl 30 0 empty empty empty 17 7 0 10 -262144 -1 -1
0 1;
#X obj 1367 556 sel 1;
#X obj 1403 522 tgl 30 0 empty empty empty 17 7 0 10 -262144 -1 -1
0 1;
#X obj 1404 556 sel 1;
#X obj 1440 522 tgl 30 0 empty empty empty 17 7 0 10 -262144 -1 -1
0 1;
#X obj 1441 556 sel 1;
#X obj 1477 522 tgl 30 0 empty empty empty 17 7 0 10 -262144 -1 -1
0 1;
#X obj 1478 556 sel 1;
#X obj 1513 521 tgl 30 0 empty empty empty 17 7 0 10 -262144 -1 -1
0 1;
#X obj 1514 555 sel 1;
#X obj 1550 521 tgl 30 0 empty empty empty 17 7 0 10 -262144 -1 -1
0 1;
#X obj 1551 555 sel 1;
#X obj 1587 521 tgl 30 0 empty empty empty 17 7 0 10 -262144 -1 -1
0 1;
#X obj 1588 555 sel 1;
#X obj 1624 521 tgl 30 0 empty empty empty 17 7 0 10 -262144 -1 -1
0 1;
#X obj 1625 555 sel 1;
#X obj 1383 473 tgl 30 0 empty empty empty 17 7 0 10 -262144 -1 -1
0 1;
#X obj 1383 506 sel 1;
#X obj 1419 469 tgl 30 0 empty empty empty 17 7 0 10 -262144 -1 -1
0 1;
#X obj 1420 504 sel 1;
#X obj 1493 469 tgl 30 0 empty empty empty 17 7 0 10 -262144 -1 -1
0 1;
#X obj 1494 503 sel 1;
#X obj 1529 468 tgl 30 0 empty empty empty 17 7 0 10 -262144 -1 -1
0 1;
#X obj 1530 502 sel 1;
#X obj 1566 468 tgl 30 0 empty empty empty 17 7 0 10 -262144 -1 -1
0 1;
#X obj 1567 502 sel 1;
#X obj 1810 326 t f b;
#X msg 1583 375 set \$1;
#X msg 1583 324 set \$1;
#X obj 1742 304 sel 0 1 2;
#X obj 1776 270 t f b;
#X obj 1630 664 sel 1;
#X obj 1673 665 sel 1;
#X msg 1673 688 2;
#X floatatom 1453 365 5 0 0 0 - - -, f 5;
#X msg 1827 369 set 0;
#X obj 742 417 sel 0;
#X msg 1804 294 set 0;
#X msg 1724 344 set 1;
#X msg 1769 344 set 1;
#X msg 1630 687 1;
#X obj 1453 37 f;
#X obj 1486 37 + 1;
#X obj 1389 28 t b b;
#X msg 1455 84 0;
#X obj 1323 3 tgl 15 0 empty empty empty 17 7 0 10 -262144 -1 -1 0
1;
#X floatatom 1312 72 5 0 0 0 - - -, f 5;
#X obj 1547 152 random 2;
#X obj 1653 153 random 2;
#X obj 1541 39 random 3;
#X obj 1386 6 metro 10;
#X floatatom 1145 44 3 0 100 0 - - -, f 3;
#X text 1171 44 <-- change probablilty;
#X msg 1155 89 0;
#X obj 1237 -12 sel 1;
#X obj 586 310 timer;
#X obj 580 281 t b b;
#X text 583 634 transpose;
#X obj 878 398 s slideon/off;
#X obj 787 125 t f f f f;
#X obj 865 489 f;
#X obj 866 531 pack 0 0;
#X obj 769 608 spigot;
#X text 893 488 new value;
#X obj 761 488 f;
#X text 787 490 old value;
#X msg 775 530 \$1 0;
#X obj 721 286 t f b b f;
#X obj 981 424 sel 1 0;
#X msg 985 455 0;
#X msg 1011 455 1;
#X obj 980 489 spigot;
#X obj 989 530 f;
#X obj 880 576 line 0 1;
#X obj 777 641 spigot;
#X obj 1366 73 random 38;
#X floatatom 475 369 5 0 0 0 - - -, f 5;
#X obj 449 421 + 1;
#X obj 455 470 spigot;
#X obj 528 505 spigot;
#X floatatom 1771 6 3 0 100 0 - - -, f 3;
#X msg 1780 61 0;
#X obj 668 523 t b b;
#X obj 683 358 sel 5;
#X obj 1113 269 r reset;
#X msg 1128 299 0;
#X obj 1455 61 sel 32;
#X floatatom 815 219 5 0 0 0 - - -, f 5;
#X obj 1398 162 random 32;
#X obj 871 350 loadbang;
#N canvas 142 181 1176 548 scaler 0;
#X obj 33 23 inlet;
#X obj 301 26 inlet;
#X obj 38 433 outlet;
#X obj 66 85 int;
#X floatatom 63 106 5 0 0 0 - - -, f 5;
#X obj 169 147 mod 7;
#X text 212 146 <-- [mod ] handles negative numbers differently than
[% ];
#X obj 244 190 div 7;
#X obj 169 90 t f f;
#X floatatom 301 234 5 0 0 0 - - -, f 5;
#X floatatom 182 407 5 0 0 0 - - -, f 5;
#X floatatom 132 208 5 0 0 0 - - -, f 5;
#X obj 238 270 * 12;
#X obj 179 337 +;
#X text 291 186 <-- division that discards the remainder. This tells
you what octave to use.;
#X text 223 377 <-- offset;
#X obj 176 305 tabread scale;
#X obj 269 71 r scale_length;
#X obj 179 379 + 0;
#X obj 239 232 mod 2;
#X connect 0 0 3 0;
#X connect 1 0 18 1;
#X connect 3 0 4 0;
#X connect 4 0 8 0;
#X connect 5 0 11 0;
#X connect 5 0 16 0;
#X connect 7 0 19 0;
#X connect 8 0 5 0;
#X connect 8 1 7 0;
#X connect 10 0 2 0;
#X connect 12 0 13 1;
#X connect 13 0 18 0;
#X connect 16 0 13 0;
#X connect 17 0 5 1;
#X connect 17 0 7 1;
#X connect 18 0 10 0;
#X connect 19 0 12 0;
#X connect 19 0 9 0;
#X restore 810 398 pd scaler;
#X msg 867 371 0;
#X floatatom 1070 44 3 0 100 0 - - -, f 3;
#X obj 1078 103 f;
#X obj 1025 22 random 100;
#X obj 1075 138 t b;
#X obj 1100 22 random 100;
#X obj 1323 -33 inlet;
#X obj 841 181 inlet;
#X obj 1049 -24 inlet;
#X obj 1147 -25 inlet;
#X obj 1730 3 inlet;
#X obj 539 581 inlet;
#X obj 552 634 + 12;
#X obj 1341 269 table patternoctave1 1600;
#X obj 1423 249 table patternnote1 1600;
#X obj 1563 247 table patternacc1 1600;
#X obj 1562 272 table patternslide1 1600;
#X obj 1583 302 tabread patternacc1;
#X obj 1583 354 tabread patternslide1;
#X obj 1453 342 tabread patternnote1;
#X obj 1761 248 tabread patternoctave1;
#X obj 1603 726 tabwrite patternoctave1;
#X obj 1462 769 tabwrite patternnote1;
#X obj 1604 769 tabwrite patternacc1;
#X obj 1728 769 tabwrite patternslide1;
#X obj 1655 116 tabwrite patternslide1;
#X obj 1531 116 tabwrite patternacc1;
#X obj 1389 116 tabwrite patternnote1;
#X obj 1530 73 tabwrite patternoctave1;
#X obj 922 335 tabread patternslide1;
#X obj 743 372 tabread patternnote1;
#X obj 365 514 tabread patternacc1;
#X obj 542 740 s tocv2;
#X obj 425 721 s gate1;
#X obj 489 721 s gate2;
#X obj 1025 70 moses 34;
#X obj 1100 70 moses 25;
#X obj 1725 42 moses 3;
#X obj 466 327 inlet;
#X connect 0 0 3 0;
#X connect 1 0 3 1;
#X connect 3 0 10 0;
#X connect 4 0 130 0;
#X connect 5 0 14 0;
#X connect 8 0 186 0;
#X connect 9 0 12 0;
#X connect 10 0 2 0;
#X connect 10 0 122 0;
#X connect 11 0 4 0;
#X connect 11 0 119 0;
#X connect 12 0 188 0;
#X connect 13 0 188 0;
#X connect 14 0 15 0;
#X connect 14 0 17 0;
#X connect 16 0 187 0;
#X connect 17 0 187 0;
#X connect 18 0 122 0;
#X connect 19 0 166 1;
#X connect 20 0 177 0;
#X connect 21 0 178 0;
#X connect 22 0 94 0;
#X connect 23 0 95 0;
#X connect 26 0 25 0;
#X connect 27 0 25 0;
#X connect 28 0 25 0;
#X connect 29 0 25 0;
#X connect 30 0 25 0;
#X connect 31 0 25 0;
#X connect 32 0 25 0;
#X connect 33 0 25 0;
#X connect 34 0 25 0;
#X connect 35 0 25 0;
#X connect 36 0 25 0;
#X connect 37 0 25 0;
#X connect 38 0 25 0;
#X connect 39 0 25 0;
#X connect 40 0 25 0;
#X connect 41 0 25 0;
#X connect 42 0 55 0;
#X connect 43 0 55 0;
#X connect 44 0 55 0;
#X connect 45 0 55 0;
#X connect 46 0 55 0;
#X connect 47 0 55 0;
#X connect 48 0 55 0;
#X connect 49 0 55 0;
#X connect 50 0 55 0;
#X connect 51 0 55 0;
#X connect 52 0 55 0;
#X connect 53 0 55 0;
#X connect 54 0 55 0;
#X connect 55 0 176 0;
#X connect 56 0 59 0;
#X connect 57 0 60 0;
#X connect 59 0 62 0;
#X connect 60 0 62 0;
#X connect 61 0 62 3;
#X connect 62 0 58 0;
#X connect 62 0 24 0;
#X connect 62 0 171 0;
#X connect 62 0 172 0;
#X connect 62 0 173 0;
#X connect 62 0 174 0;
#X connect 62 0 175 1;
#X connect 62 0 176 1;
#X connect 62 0 177 1;
#X connect 62 0 178 1;
#X connect 63 0 64 0;
#X connect 64 0 42 0;
#X connect 64 1 55 0;
#X connect 65 0 66 0;
#X connect 66 0 43 0;
#X connect 66 1 55 0;
#X connect 67 0 68 0;
#X connect 68 0 46 0;
#X connect 68 1 55 0;
#X connect 69 0 70 0;
#X connect 70 0 47 0;
#X connect 70 1 55 0;
#X connect 71 0 72 0;
#X connect 72 0 49 0;
#X connect 72 1 55 0;
#X connect 73 0 74 0;
#X connect 74 0 51 0;
#X connect 74 1 55 0;
#X connect 75 0 76 0;
#X connect 76 0 53 0;
#X connect 76 1 55 0;
#X connect 77 0 78 0;
#X connect 78 0 54 0;
#X connect 78 1 55 0;
#X connect 79 0 80 0;
#X connect 80 0 44 0;
#X connect 80 1 55 0;
#X connect 81 0 82 0;
#X connect 82 0 45 0;
#X connect 82 1 55 0;
#X connect 83 0 84 0;
#X connect 84 0 48 0;
#X connect 84 1 55 0;
#X connect 85 0 86 0;
#X connect 86 0 50 0;
#X connect 86 1 55 0;
#X connect 87 0 88 0;
#X connect 88 0 52 0;
#X connect 88 1 55 0;
#X connect 89 1 98 0;
#X connect 90 0 21 0;
#X connect 91 0 20 0;
#X connect 92 1 101 0;
#X connect 92 2 102 0;
#X connect 93 0 92 0;
#X connect 93 1 100 0;
#X connect 94 0 103 0;
#X connect 94 0 175 0;
#X connect 95 0 96 0;
#X connect 96 0 175 0;
#X connect 98 0 87 0;
#X connect 98 0 77 0;
#X connect 98 0 75 0;
#X connect 98 0 73 0;
#X connect 98 0 71 0;
#X connect 98 0 69 0;
#X connect 98 0 67 0;
#X connect 98 0 65 0;
#X connect 98 0 63 0;
#X connect 98 0 85 0;
#X connect 98 0 83 0;
#X connect 98 0 81 0;
#X connect 98 0 79 0;
#X connect 99 0 9 0;
#X connect 99 1 123 1;
#X connect 99 1 142 1;
#X connect 99 1 135 1;
#X connect 99 1 145 0;
#X connect 100 0 23 0;
#X connect 100 0 22 0;
#X connect 101 0 22 0;
#X connect 102 0 23 0;
#X connect 103 0 175 0;
#X connect 104 0 105 0;
#X connect 104 0 109 0;
#X connect 104 0 149 0;
#X connect 104 0 179 1;
#X connect 104 0 180 1;
#X connect 104 0 181 1;
#X connect 104 0 182 1;
#X connect 105 0 104 1;
#X connect 106 0 110 0;
#X connect 106 0 111 0;
#X connect 106 0 112 0;
#X connect 106 0 138 0;
#X connect 106 1 104 0;
#X connect 107 0 104 1;
#X connect 107 0 108 0;
#X connect 108 0 113 0;
#X connect 108 0 117 0;
#X connect 110 0 180 0;
#X connect 111 0 191 0;
#X connect 112 0 182 0;
#X connect 113 0 106 0;
#X connect 114 0 190 1;
#X connect 116 0 181 0;
#X connect 117 0 151 0;
#X connect 117 0 157 0;
#X connect 117 0 159 0;
#X connect 118 0 140 0;
#X connect 119 0 118 0;
#X connect 119 1 118 1;
#X connect 122 3 11 0;
#X connect 122 3 146 0;
#X connect 123 0 127 1;
#X connect 123 0 124 0;
#X connect 124 0 136 0;
#X connect 125 0 127 0;
#X connect 127 0 129 0;
#X connect 129 0 136 0;
#X connect 130 0 142 0;
#X connect 130 1 137 0;
#X connect 130 2 125 0;
#X connect 130 2 134 0;
#X connect 130 3 183 0;
#X connect 130 3 184 0;
#X connect 131 0 132 0;
#X connect 131 1 133 0;
#X connect 132 0 134 1;
#X connect 132 0 141 1;
#X connect 132 0 9 1;
#X connect 133 0 134 1;
#X connect 133 0 141 1;
#X connect 133 0 9 1;
#X connect 134 0 135 0;
#X connect 135 0 166 0;
#X connect 136 0 166 0;
#X connect 137 0 123 0;
#X connect 138 0 189 0;
#X connect 139 0 140 1;
#X connect 140 0 124 1;
#X connect 141 0 185 0;
#X connect 142 0 141 0;
#X connect 143 0 191 1;
#X connect 144 0 179 0;
#X connect 145 0 13 0;
#X connect 146 0 16 0;
#X connect 146 0 9 0;
#X connect 147 0 148 0;
#X connect 148 0 4 3;
#X connect 149 0 107 0;
#X connect 150 0 4 4;
#X connect 151 0 150 0;
#X connect 152 0 154 0;
#X connect 153 0 99 0;
#X connect 154 0 153 1;
#X connect 155 0 189 1;
#X connect 156 0 190 0;
#X connect 158 0 156 0;
#X connect 160 0 108 0;
#X connect 161 0 150 0;
#X connect 161 0 149 1;
#X connect 162 0 155 0;
#X connect 163 0 114 0;
#X connect 164 0 191 1;
#X connect 165 0 166 1;
#X connect 166 0 8 0;
#X connect 171 0 91 0;
#X connect 172 0 90 0;
#X connect 173 0 89 0;
#X connect 173 0 97 0;
#X connect 174 0 93 0;
#X connect 183 0 121 0;
#X connect 183 0 125 1;
#X connect 183 0 131 0;
#X connect 183 0 137 1;
#X connect 184 0 153 0;
#X connect 185 0 5 0;
#X connect 189 0 156 1;
#X connect 189 0 190 0;
#X connect 189 1 158 0;
#X connect 190 0 181 0;
#X connect 190 1 116 0;
#X connect 191 0 179 0;
#X connect 191 1 144 0;
#X connect 192 0 139 0;
#X restore 372 -19 pd 303seq;
#X obj 424 -67 bng 15 250 50 0 empty empty empty 17 7 0 10 -262144
-1 -1;
#X floatatom 345 -73 5 0 0 0 - - -, f 5;
#X floatatom 451 -68 5 0 100 0 - - -, f 5;
#X text 450 -43 probrep;
#X floatatom 501 -66 5 0 100 0 - - -, f 5;
#X floatatom 554 -67 5 0 100 0 - - -, f 5;
#X text 501 -45 probzero;
#X text 554 -46 probslide;
#X text 340 -92 length;
#X floatatom 281 -44 5 0 100 0 - - -, f 5;
#X text 281 -23 transpose;
#X msg 469 -170 15;
#X obj 127 -86 - 127, f 6;
#X obj 286 -114 r panbot;
#X obj 49 -255 r panmid;
#X connect 3 0 18 0;
#X connect 4 0 19 0;
#X connect 5 0 20 0;
#X connect 6 0 21 0;
#X connect 7 0 22 0;
#X connect 8 0 23 0;
#X connect 9 0 24 0;
#X connect 10 0 25 0;
#X connect 11 0 28 0;
#X connect 12 0 26 0;
#X connect 13 0 29 0;
#X connect 14 0 30 0;
#X connect 15 0 27 0;
#X connect 16 0 31 0;
#X connect 17 0 16 0;
#X connect 18 0 17 0;
#X connect 18 1 16 0;
#X connect 19 0 17 0;
#X connect 19 1 16 2;
#X connect 20 0 17 0;
#X connect 20 1 16 4;
#X connect 21 0 17 0;
#X connect 21 1 16 5;
#X connect 22 0 17 0;
#X connect 22 1 16 7;
#X connect 23 0 17 0;
#X connect 23 1 16 9;
#X connect 24 0 17 0;
#X connect 24 1 16 11;
#X connect 25 0 17 0;
#X connect 25 1 16 12;
#X connect 26 0 17 0;
#X connect 26 1 16 3;
#X connect 27 0 17 0;
#X connect 27 1 16 10;
#X connect 28 0 17 0;
#X connect 28 1 16 1;
#X connect 29 0 17 0;
#X connect 29 1 16 6;
#X connect 30 0 17 0;
#X connect 30 1 16 8;
#X connect 32 0 2 5;
#X connect 33 0 2 2;
#X connect 34 0 2 3;
#X connect 36 0 2 4;
#X connect 37 0 2 6;
#X connect 41 0 2 1;
#X connect 43 0 3 0;
#X connect 43 0 12 0;
#X connect 43 0 4 0;
#X connect 43 0 14 0;
#X connect 43 0 6 0;
#X connect 43 0 7 0;
#X connect 43 0 9 0;
#X connect 45 0 44 5;
#X connect 46 0 44 2;
#X connect 47 0 44 3;
#X connect 49 0 44 4;
#X connect 50 0 44 6;
#X connect 54 0 44 1;
#X connect 56 0 44 2;
#X connect 56 0 2 2;
#X connect 57 0 2 0;
#X connect 57 0 44 0;
#X connect 58 0 46 0;
#X connect 59 0 33 0;
