#N canvas 1415 18 1913 1004 10;
#X obj 161 -1589 / 2;
#X obj 42 -1602 ctlin;
#X floatatom 39 -1581 5 0 0 0 - - -, f 5;
#X floatatom 74 -1581 5 0 0 0 - - -, f 5;
#N canvas 777 316 396 541 buttons 0;
#X obj 110 -65 wiringPi pin 20 input;
#X obj 85 -347 tgl 15 0 empty empty empty 17 7 0 10 -262144 -1 -1 0
1;
#X floatatom 151 -354 5 0 0 0 - - -, f 5;
#X obj 109 -376 loadbang;
#X obj 111 -42 edge;
#X obj 110 -279 edge;
#X obj 108 -203 edge;
#X obj 109 -107 edge;
#X obj 110 -334 metro 20;
#X obj 108 -303 wiringPi pin 21 input;
#X obj 107 -227 wiringPi pin 12 input;
#X obj 108 -131 wiringPi pin 16 input;
#X obj 147 -273 s but1;
#X obj 142 -200 s but2;
#X obj 145 -105 s but3;
#X obj 145 -43 s but4;
#X obj 154 9 s buttons;
#X msg 142 -251 0;
#X msg 141 -177 1;
#X msg 144 -85 2;
#X msg 134 -20 3;
#X obj 26 23 r page;
#X obj 84 24 r buttons;
#X obj 27 101 pack 0 0;
#X obj 25 68 f;
#X obj 84 47 t b f;
#X obj 27 124 s page&button;
#X connect 0 0 4 0;
#X connect 1 0 8 0;
#X connect 2 0 8 1;
#X connect 3 0 8 0;
#X connect 4 1 15 0;
#X connect 4 1 20 0;
#X connect 5 1 12 0;
#X connect 5 1 17 0;
#X connect 6 1 13 0;
#X connect 6 1 18 0;
#X connect 7 1 14 0;
#X connect 7 1 19 0;
#X connect 8 0 0 0;
#X connect 8 0 9 0;
#X connect 8 0 10 0;
#X connect 8 0 11 0;
#X connect 9 0 5 0;
#X connect 10 0 6 0;
#X connect 11 0 7 0;
#X connect 17 0 16 0;
#X connect 18 0 16 0;
#X connect 19 0 16 0;
#X connect 20 0 16 0;
#X connect 21 0 24 1;
#X connect 22 0 25 0;
#X connect 23 0 26 0;
#X connect 24 0 23 0;
#X connect 25 0 24 0;
#X connect 25 1 23 1;
#X restore 100 -1542 pd buttons;
#N canvas 455 596 796 314 pots 0;
#X obj 560 50 ctlin 81;
#X text 560 73 xadj;
#X text 622 76 yadj;
#X obj 622 53 ctlin 91;
#X obj 567 132 ctlin 2;
#X obj 629 135 ctlin 19;
#X text 485 143 panellowright;
#X obj 495 130 ctlin 80;
#X obj 398 126 ctlin 74;
#X text 394 148 panellowleft;
#X obj 390 55 ctlin 16;
#X text 386 77 panelmiddle;
#X obj 477 53 ctlin 71;
#X text 468 71 panelbottom;
#X text 567 155 x;
#X text 629 158 y;
#X obj 561 183 s joyx;
#X obj 632 188 s joyy;
#X obj 563 92 s xadj;
#X obj 634 97 s yadj;
#X obj 399 192 s panleft;
#X obj 470 197 s panright;
#X obj 401 101 s panmid;
#X obj 472 106 s panbot;
#X obj 292 57 ctlin 7;
#X text 288 79 paneltop;
#X obj 290 114 s pantop;
#X obj 192 88 pack 0 0;
#X obj 191 42 t b f;
#X obj 192 111 s editpots;
#X obj 119 42 t b f;
#X obj 120 111 s editpots;
#X obj 120 88 pack 1 0;
#X obj 243 161 r joyx;
#X obj 244 202 *;
#X obj 261 181 r xadj;
#X obj 210 225 s joyxfin;
#X obj 24 51 r editpots;
#X obj 24 112 route 0 1;
#X obj 24 79 t b l;
#X obj 23 143 pack 0 0 0;
#X obj 7 28 r page;
#X obj -9 110 f;
#X floatatom 21 218 5 0 0 0 - - -, f 5;
#X obj 22 193 unpack 0 0 0;
#X floatatom 56 218 5 0 0 0 - - -, f 5;
#X floatatom 103 215 5 0 0 0 - - -, f 5;
#X obj 22 168 s page&pots;
#X connect 0 0 18 0;
#X connect 3 0 19 0;
#X connect 4 0 16 0;
#X connect 5 0 17 0;
#X connect 7 0 21 0;
#X connect 8 0 20 0;
#X connect 10 0 22 0;
#X connect 10 0 28 0;
#X connect 12 0 23 0;
#X connect 12 0 30 0;
#X connect 24 0 26 0;
#X connect 27 0 29 0;
#X connect 28 0 27 0;
#X connect 28 1 27 1;
#X connect 30 0 32 0;
#X connect 30 1 32 1;
#X connect 32 0 31 0;
#X connect 33 0 34 0;
#X connect 34 0 36 0;
#X connect 35 0 34 1;
#X connect 37 0 39 0;
#X connect 38 0 40 1;
#X connect 38 1 40 2;
#X connect 39 0 42 0;
#X connect 39 1 38 0;
#X connect 40 0 44 0;
#X connect 40 0 47 0;
#X connect 41 0 42 1;
#X connect 42 0 40 0;
#X connect 44 0 43 0;
#X connect 44 1 45 0;
#X connect 44 2 46 0;
#X restore 99 -1521 pd pots;
#N canvas 710 340 450 300 randomcvs 0;
#X obj 73 -17 tgl 15 0 empty empty empty 17 7 0 10 -262144 -1 -1 0
1;
#X obj 72 2 metro 600;
#X obj 72 23 random 8096;
#X floatatom 123 -20 5 0 0 0 - - -, f 5;
#X obj 159 -22 tgl 15 0 empty empty empty 17 7 0 10 -262144 -1 -1 0
1;
#X obj 158 -3 metro 600;
#X obj 161 26 random 8096;
#X floatatom 201 -28 5 0 0 0 - - -, f 5;
#X obj 103 68 s tocv1;
#X obj 180 71 s tocv2;
#X connect 0 0 1 0;
#X connect 1 0 2 0;
#X connect 2 0 8 0;
#X connect 3 0 1 1;
#X connect 4 0 5 0;
#X connect 5 0 6 0;
#X connect 6 0 9 0;
#X connect 7 0 5 1;
#X restore 179 -1529 pd randomcvs;
#N canvas 1758 203 883 699 lcd 0;
#X obj 253 -324 t b b;
#X obj 296 -323 t b b;
#X msg 270 -298 0;
#X msg 322 -299 1;
#X msg 356 -300 0;
#X floatatom 277 -244 5 0 0 0 - - -, f 5;
#X obj 459 -181 s livemode;
#X msg 437 -209 1;
#X obj 486 -251 != 10;
#X msg 500 -205 0;
#X obj 496 -231 edge;
#X obj 55 -7 s page;
#X obj 271 -269 counter 0 0 11;
#X obj 226 155 r tolcd;
#X obj 76 97 s tolcd;
#X msg 76 67 lcd 0 1 \$1heloo;
#X msg 71 41 100;
#X obj 180 -255 r pantop;
#X obj 181 -207 i;
#X obj 182 -185 change;
#X obj 182 -314 loadbang;
#X msg 182 -291 0;
#X obj 146 -122 tgl 26 0 empty empty empty 17 7 0 10 -262144 -1 -1
0 1;
#X obj 145 -67 f;
#X obj 182 -64 + 1;
#X msg 94 -57 0;
#X obj 62 -36 f;
#X obj 142 -91 metro 1;
#X obj 138 -39 > 500;
#X obj 50 -145 sel 0 1;
#X obj 136 -173 t b;
#X msg 141 -150 1;
#X msg 597 -52 lcd 0 0 SEQ|rec|div|dirprob|vel|;
#X msg 599 -33 lcd 0 0 LFO|rate|shp|delLFO|rate|shp|del;
#X msg 599 -11 lcd 0 0 OSC|fine|mod|det||A|||D|||S|||R|;
#X msg 600 9 lcd 0 0 [T1][L1][T2][L2][T3][L3][T4][L4];
#X msg 598 30 lcd 0 0 [T5][L5][T6][L6][T7][L7][T8][L8];
#X msg 598 51 lcd 0 0 FX||rev|time|damdel|fine|fb|mix|;
#X msg 603 81 lcd 0 0 DEL|lpf|hpf|fbk|TIME|1|2|3|4||;
#X msg 621 104 lcd 0 0 SAMP|rec|trg|revpit|fine|str|fine;
#X msg 598 127 lcd 0 0 LOOP|rec|trg|revdiv|div|pit|fine;
#X msg 608 151 lcd 0 0 NOTE_|||VEL__|||PBND||||MOD__|||;
#X msg 622 174 lcd 0 0 SAVE|all|seq|patsamp|loop;
#X msg 599 -72 lcd 0 0 REC_Stepxx_LENxxSLID_ACC_GAP_RND;
#X msg 356 93 send 0 0 CV2__;
#X msg 273 49 send 0 0 LOOP_;
#X msg 296 25 send 0 0 SAMP_;
#X msg 273 -5 send 0 0 FX__2;
#X msg 273 -27 send 0 0 FX__1;
#X msg 273 -48 send 0 0 ENV_2;
#X msg 275 -69 send 0 0 ENV_1;
#X msg 274 -89 send 0 0 OSC_1;
#X msg 274 -111 send 0 0 CLOCK;
#X msg 271 -130 send 0 0 REC_2;
#X msg 274 -150 send 0 0 REC_1;
#X obj 270 109 s netmsg;
#X msg 199 65 send 18;
#X obj 275 -227 t f b;
#X obj 238 -188 f;
#X obj 338 -222 delay 10;
#X obj 278 -174 sel 0 1 2 3 4 5 6 7 8 9 10 11 12 13 14 15 16 17 18
19 20;
#X msg 331 162 send 0 0 QUIT_;
#X floatatom 200 -137 5 0 0 0 - - -, f 5;
#X obj 181 -230 / 6.35;
#X msg 370 128 send 0 0 SYSTM;
#X connect 0 0 12 0;
#X connect 0 1 2 0;
#X connect 1 0 12 0;
#X connect 1 1 3 0;
#X connect 2 0 12 1;
#X connect 3 0 12 1;
#X connect 4 0 12 3;
#X connect 7 0 6 0;
#X connect 8 0 10 0;
#X connect 9 0 6 0;
#X connect 10 0 9 0;
#X connect 12 0 5 0;
#X connect 12 0 57 0;
#X connect 13 0 55 0;
#X connect 15 0 14 0;
#X connect 16 0 15 0;
#X connect 17 0 63 0;
#X connect 18 0 19 0;
#X connect 19 0 26 1;
#X connect 19 0 30 0;
#X connect 19 0 57 0;
#X connect 20 0 21 0;
#X connect 22 0 27 0;
#X connect 23 0 24 0;
#X connect 23 0 28 0;
#X connect 24 0 23 1;
#X connect 25 0 22 0;
#X connect 25 0 23 1;
#X connect 26 0 11 0;
#X connect 27 0 23 0;
#X connect 28 0 29 0;
#X connect 29 1 25 0;
#X connect 29 1 26 0;
#X connect 30 0 31 0;
#X connect 31 0 22 0;
#X connect 44 0 55 0;
#X connect 45 0 55 0;
#X connect 46 0 55 0;
#X connect 47 0 55 0;
#X connect 48 0 55 0;
#X connect 49 0 55 0;
#X connect 50 0 55 0;
#X connect 51 0 55 0;
#X connect 52 0 55 0;
#X connect 53 0 55 0;
#X connect 54 0 55 0;
#X connect 56 0 55 0;
#X connect 57 0 58 1;
#X connect 57 1 56 0;
#X connect 57 1 59 0;
#X connect 58 0 8 0;
#X connect 58 0 60 0;
#X connect 58 0 62 0;
#X connect 59 0 58 0;
#X connect 60 0 54 0;
#X connect 60 1 53 0;
#X connect 60 2 52 0;
#X connect 60 3 51 0;
#X connect 60 4 50 0;
#X connect 60 5 49 0;
#X connect 60 6 48 0;
#X connect 60 7 47 0;
#X connect 60 8 45 0;
#X connect 60 9 46 0;
#X connect 60 10 44 0;
#X connect 60 10 7 0;
#X connect 60 19 64 0;
#X connect 60 20 61 0;
#X connect 61 0 55 0;
#X connect 63 0 18 0;
#X connect 64 0 55 0;
#X restore 56 -1520 pd lcd;
#X obj 127 -1627 bendin;
#X floatatom 309 -1649 5 0 0 0 - - -, f 5;
#X msg 271 -1733 1;
#X msg 330 -1733 3;
#X msg 301 -1733 2;
#X msg 359 -1734 4;
#X msg 389 -1734 5;
#X msg 418 -1734 6;
#X msg 449 -1734 7;
#X msg 478 -1734 8;
#X msg 271 -1706 9;
#X msg 301 -1706 10;
#X msg 330 -1706 11;
#X msg 359 -1707 12;
#X msg 389 -1707 13;
#X msg 418 -1707 14;
#X msg 449 -1707 15;
#X msg 478 -1707 16;
#X obj 93 -1715 table patternnote 60000;
#X obj 96 -1692 table patternacc 60000;
#X obj 90 -1667 table patternslide 60000;
#N canvas 710 340 537 429 lcdnumformat 0;
#X obj 170 149 mod 1000;
#X obj 170 195 i;
#X floatatom 170 218 5 0 0 0 - - -, f 5;
#X obj 230 195 i;
#X floatatom 230 218 5 0 0 0 - - -, f 5;
#X floatatom 290 218 5 0 0 0 - - -, f 5;
#X obj 230 149 mod 100;
#X obj 290 149 mod 10;
#X obj 196 83 inlet;
#X obj 257 292 outlet;
#X obj 267 302 outlet;
#X obj 277 312 outlet;
#X floatatom 294 49 5 0 0 0 - - -, f 5;
#X obj 231 172 / 10;
#X obj 171 172 / 100;
#X connect 0 0 14 0;
#X connect 1 0 2 0;
#X connect 1 0 9 0;
#X connect 3 0 4 0;
#X connect 3 0 10 0;
#X connect 6 0 13 0;
#X connect 7 0 5 0;
#X connect 7 0 11 0;
#X connect 8 0 0 0;
#X connect 8 0 6 0;
#X connect 8 0 7 0;
#X connect 12 0 7 0;
#X connect 12 0 6 0;
#X connect 12 0 0 0;
#X connect 13 0 3 0;
#X connect 14 0 1 0;
#X restore 240 -1600 pd lcdnumformat;
#X floatatom 775 -1834 5 0 0 0 - - -, f 5;
#X floatatom 795 -1814 5 0 0 0 - - -, f 5;
#N canvas 575 303 649 504 pagesel 0;
#X obj 90 163 outlet;
#X obj 93 78 r page;
#X obj 93 101 sel 0;
#X obj 93 124 delay 200;
#X obj 97 30 inlet;
#X obj 233 86 r page&pots;
#X obj 233 109 route 0;
#X obj 233 132 unpack 0 0;
#X obj 220 174 outlet;
#X obj 285 172 outlet;
#X obj 370 104 route 0;
#X obj 370 81 r page&button;
#X obj 370 127 sel 0 1 2 3;
#X obj 357 184 outlet;
#X obj 399 192 outlet;
#X obj 428 212 outlet;
#X obj 470 220 outlet;
#X obj 292 442 s tolcd;
#X obj 287 412 spigot;
#X msg 156 244 lcd 4 0 \$1;
#X obj 311 363 r page;
#X obj 316 387 == 2;
#N canvas 710 340 537 429 lcdnumformat 0;
#X obj 170 149 mod 1000;
#X obj 170 195 i;
#X floatatom 170 218 5 0 0 0 - - -, f 5;
#X obj 230 195 i;
#X floatatom 230 218 5 0 0 0 - - -, f 5;
#X floatatom 290 218 5 0 0 0 - - -, f 5;
#X obj 230 149 mod 100;
#X obj 290 149 mod 10;
#X obj 196 83 inlet;
#X obj 257 292 outlet;
#X obj 267 302 outlet;
#X obj 277 312 outlet;
#X floatatom 294 49 5 0 0 0 - - -, f 5;
#X obj 231 172 / 10;
#X obj 171 172 / 100;
#X obj 169 242 change;
#X obj 229 240 change;
#X obj 286 242 change;
#X connect 0 0 14 0;
#X connect 1 0 2 0;
#X connect 1 0 15 0;
#X connect 3 0 4 0;
#X connect 3 0 16 0;
#X connect 6 0 13 0;
#X connect 7 0 5 0;
#X connect 7 0 17 0;
#X connect 8 0 0 0;
#X connect 8 0 6 0;
#X connect 8 0 7 0;
#X connect 12 0 7 0;
#X connect 12 0 6 0;
#X connect 12 0 0 0;
#X connect 13 0 3 0;
#X connect 14 0 1 0;
#X connect 15 0 9 0;
#X connect 16 0 10 0;
#X connect 17 0 11 0;
#X restore 152 202 pd lcdnumformat;
#X msg 170 265 lcd 5 0 \$1;
#X msg 186 291 lcd 6 0 \$1;
#X msg 260 234 lcd 4 0 \$1;
#X msg 274 255 lcd 5 0 \$1;
#X msg 290 281 lcd 6 0 \$1;
#N canvas 710 340 537 429 lcdnumformat 0;
#X obj 170 149 mod 1000;
#X obj 170 195 i;
#X floatatom 170 218 5 0 0 0 - - -, f 5;
#X obj 230 195 i;
#X floatatom 230 218 5 0 0 0 - - -, f 5;
#X floatatom 290 218 5 0 0 0 - - -, f 5;
#X obj 230 149 mod 100;
#X obj 290 149 mod 10;
#X obj 196 83 inlet;
#X obj 257 292 outlet;
#X obj 267 302 outlet;
#X obj 277 312 outlet;
#X floatatom 294 49 5 0 0 0 - - -, f 5;
#X obj 231 172 / 10;
#X obj 171 172 / 100;
#X obj 169 242 change;
#X obj 229 240 change;
#X obj 286 242 change;
#X connect 0 0 14 0;
#X connect 1 0 2 0;
#X connect 1 0 15 0;
#X connect 3 0 4 0;
#X connect 3 0 16 0;
#X connect 6 0 13 0;
#X connect 7 0 5 0;
#X connect 7 0 17 0;
#X connect 8 0 0 0;
#X connect 8 0 6 0;
#X connect 8 0 7 0;
#X connect 12 0 7 0;
#X connect 12 0 6 0;
#X connect 12 0 0 0;
#X connect 13 0 3 0;
#X connect 14 0 1 0;
#X connect 15 0 9 0;
#X connect 16 0 10 0;
#X connect 17 0 11 0;
#X restore 259 204 pd lcdnumformat;
#X obj 174 137 + 60;
#X msg 33 360 send 0 11 REBOOT SHUTDOWN;
#X msg 156 244 send 4 0 \$1;
#X msg 170 265 send 5 0 \$1;
#X msg 186 291 send 6 0 \$1;
#X msg 260 234 send 13 0 \$1;
#X msg 274 255 send 14 0 \$1;
#X msg 290 281 send 15 0 \$1;
#X connect 1 0 2 0;
#X connect 2 0 3 0;
#X connect 3 0 0 0;
#X connect 3 0 30 0;
#X connect 4 0 2 1;
#X connect 4 0 10 1;
#X connect 4 0 6 1;
#X connect 4 0 21 1;
#X connect 5 0 6 0;
#X connect 6 0 7 0;
#X connect 7 0 29 0;
#X connect 7 1 9 0;
#X connect 7 1 28 0;
#X connect 10 0 12 0;
#X connect 11 0 10 0;
#X connect 12 0 13 0;
#X connect 12 1 14 0;
#X connect 12 2 15 0;
#X connect 12 3 16 0;
#X connect 18 0 17 0;
#X connect 19 0 18 0;
#X connect 20 0 21 0;
#X connect 21 0 18 1;
#X connect 22 0 19 0;
#X connect 22 1 23 0;
#X connect 22 2 24 0;
#X connect 23 0 18 0;
#X connect 24 0 18 0;
#X connect 25 0 18 0;
#X connect 26 0 18 0;
#X connect 27 0 18 0;
#X connect 28 0 34 0;
#X connect 28 1 35 0;
#X connect 28 2 36 0;
#X connect 29 0 8 0;
#X connect 29 0 22 0;
#X connect 30 0 18 0;
#X connect 34 0 18 0;
#X connect 35 0 18 0;
#X connect 36 0 18 0;
#X restore 766 -1876 pd pagesel;
#X obj 765 -1923 loadbang;
#X obj 811 -1838 bng 15 250 50 0 empty empty empty 17 7 0 10 -262144
-1 -1;
#X obj 832 -1838 bng 15 250 50 0 empty empty empty 17 7 0 10 -262144
-1 -1;
#X obj 854 -1839 bng 15 250 50 0 empty empty empty 17 7 0 10 -262144
-1 -1;
#X obj 875 -1839 bng 15 250 50 0 empty empty empty 17 7 0 10 -262144
-1 -1;
#X msg 565 -1777 aconnect 24:0 128:0;
#X msg 565 -1731 aconnect 28:0 128:0;
#X obj 565 -1502 print SDOUT;
#X obj 565 -1523 print done;
#X obj 565 -1544 shell;
#X obj 1016 -1542 netsend;
#X obj 1129 -1511 print;
#X msg 1015 -1609 disconnect;
#X msg 1016 -1585 send 10000;
#X msg 1040 -1668 connect localhost 51717;
#X msg 1016 -1565 connect localhost 1000;
#X obj 1127 -1532 netreceive 51710;
#X obj 566 -1898 loadbang;
#X msg 1016 -1800 send 12 0 test;
#X msg 1016 -1633 send 0 0 test1234567890abcdefghijklmnopqr;
#X obj 1016 -1718 loadbang;
#X obj 1016 -1745 r netmsg;
#X msg 1016 -1776 send 18;
#X msg 565 -1621 cd ..;
#X msg 565 -1664 cd ..;
#X obj 565 -1875 delay 1000;
#X obj 565 -1848 delay 100;
#X obj 565 -1824 delay 500;
#X obj 565 -1593 delay 100;
#X obj 565 -1753 delay 100;
#X msg 565 -1798 aconnect -x;
#X msg 565 -1642 ls;
#X msg 765 -1900 20, f 4;
#X obj 785 -1756 tgl 15 0 empty empty empty 17 7 0 10 -262144 -1 -1
0 1;
#X obj 813 -1756 tgl 15 0 empty empty empty 17 7 0 10 -262144 -1 -1
0 1;
#X obj 769 -1722 +;
#X obj 769 -1699 == 2;
#X obj 772 -1669 tgl 15 0 empty empty empty 17 7 0 10 -262144 -1 -1
0 1;
#X obj 789 -1666 sel 1;
#X msg 868 -1551 sudo shutdown -h now;
#X obj 870 -1759 tgl 15 0 empty empty empty 17 7 0 10 -262144 -1 -1
0 1;
#X obj 898 -1759 tgl 15 0 empty empty empty 17 7 0 10 -262144 -1 -1
0 1;
#X obj 854 -1725 +;
#X obj 854 -1702 == 2;
#X obj 857 -1672 tgl 15 0 empty empty empty 17 7 0 10 -262144 -1 -1
0 1;
#X obj 874 -1669 sel 1;
#X msg 777 -1552 sudo reboot;
#X obj 792 -1601 delay 100;
#X msg 1019 -1859 send 0 0 REBOOTING NOW! BACK IN A MINUTE;
#X obj 803 -1623 delay 100;
#X obj 775 -1575 delay 100;
#X obj 785 -1645 t b b;
#X obj 876 -1602 delay 100;
#X obj 887 -1624 delay 100;
#X obj 859 -1576 delay 100;
#X obj 869 -1646 t b b;
#X msg 1008 -1834 send 0 0 SHUTTING DOWN>>>>GOODBYE;
#X obj 1025 -1692 delay 5000;
#X obj 960 -1660 delay 1000;
#X floatatom 391 -1986 5 0 0 0 - - -, f 5;
#X floatatom 411 -1966 5 0 0 0 - - -, f 5;
#N canvas 575 303 649 504 pagesel 0;
#X obj 90 163 outlet;
#X obj 93 78 r page;
#X obj 93 101 sel 0;
#X obj 93 124 delay 200;
#X obj 97 30 inlet;
#X obj 233 86 r page&pots;
#X obj 233 109 route 0;
#X obj 233 132 unpack 0 0;
#X obj 220 174 outlet;
#X obj 285 172 outlet;
#X obj 370 104 route 0;
#X obj 370 81 r page&button;
#X obj 370 127 sel 0 1 2 3;
#X obj 357 184 outlet;
#X obj 399 192 outlet;
#X obj 428 212 outlet;
#X obj 470 220 outlet;
#X obj 292 442 s tolcd;
#X obj 287 412 spigot;
#X msg 156 244 lcd 4 0 \$1;
#X obj 311 363 r page;
#X obj 316 387 == 2;
#N canvas 710 340 537 429 lcdnumformat 0;
#X obj 170 149 mod 1000;
#X obj 170 195 i;
#X floatatom 170 218 5 0 0 0 - - -, f 5;
#X obj 230 195 i;
#X floatatom 230 218 5 0 0 0 - - -, f 5;
#X floatatom 290 218 5 0 0 0 - - -, f 5;
#X obj 230 149 mod 100;
#X obj 290 149 mod 10;
#X obj 196 83 inlet;
#X obj 257 292 outlet;
#X obj 267 302 outlet;
#X obj 277 312 outlet;
#X floatatom 294 49 5 0 0 0 - - -, f 5;
#X obj 231 172 / 10;
#X obj 171 172 / 100;
#X obj 169 242 change;
#X obj 229 240 change;
#X obj 286 242 change;
#X connect 0 0 14 0;
#X connect 1 0 2 0;
#X connect 1 0 15 0;
#X connect 3 0 4 0;
#X connect 3 0 16 0;
#X connect 6 0 13 0;
#X connect 7 0 5 0;
#X connect 7 0 17 0;
#X connect 8 0 0 0;
#X connect 8 0 6 0;
#X connect 8 0 7 0;
#X connect 12 0 7 0;
#X connect 12 0 6 0;
#X connect 12 0 0 0;
#X connect 13 0 3 0;
#X connect 14 0 1 0;
#X connect 15 0 9 0;
#X connect 16 0 10 0;
#X connect 17 0 11 0;
#X restore 152 202 pd lcdnumformat;
#X msg 170 265 lcd 5 0 \$1;
#X msg 186 291 lcd 6 0 \$1;
#X msg 260 234 lcd 4 0 \$1;
#X msg 274 255 lcd 5 0 \$1;
#X msg 290 281 lcd 6 0 \$1;
#N canvas 710 340 537 429 lcdnumformat 0;
#X obj 170 149 mod 1000;
#X obj 170 195 i;
#X floatatom 170 218 5 0 0 0 - - -, f 5;
#X obj 230 195 i;
#X floatatom 230 218 5 0 0 0 - - -, f 5;
#X floatatom 290 218 5 0 0 0 - - -, f 5;
#X obj 230 149 mod 100;
#X obj 290 149 mod 10;
#X obj 196 83 inlet;
#X obj 257 292 outlet;
#X obj 267 302 outlet;
#X obj 277 312 outlet;
#X floatatom 294 49 5 0 0 0 - - -, f 5;
#X obj 231 172 / 10;
#X obj 171 172 / 100;
#X obj 169 242 change;
#X obj 229 240 change;
#X obj 286 242 change;
#X connect 0 0 14 0;
#X connect 1 0 2 0;
#X connect 1 0 15 0;
#X connect 3 0 4 0;
#X connect 3 0 16 0;
#X connect 6 0 13 0;
#X connect 7 0 5 0;
#X connect 7 0 17 0;
#X connect 8 0 0 0;
#X connect 8 0 6 0;
#X connect 8 0 7 0;
#X connect 12 0 7 0;
#X connect 12 0 6 0;
#X connect 12 0 0 0;
#X connect 13 0 3 0;
#X connect 14 0 1 0;
#X connect 15 0 9 0;
#X connect 16 0 10 0;
#X connect 17 0 11 0;
#X restore 259 204 pd lcdnumformat;
#X obj 174 137 + 60;
#X msg 33 360 send 0 11 Reset cnct disc;
#X msg 156 244 send 4 0 \$1;
#X msg 170 265 send 5 0 \$1;
#X msg 186 291 send 6 0 \$1;
#X msg 260 234 send 13 0 \$1;
#X msg 274 255 send 14 0 \$1;
#X msg 290 281 send 15 0 \$1;
#X connect 1 0 2 0;
#X connect 2 0 3 0;
#X connect 3 0 0 0;
#X connect 3 0 30 0;
#X connect 4 0 2 1;
#X connect 4 0 10 1;
#X connect 4 0 6 1;
#X connect 4 0 21 1;
#X connect 5 0 6 0;
#X connect 6 0 7 0;
#X connect 7 0 29 0;
#X connect 7 1 9 0;
#X connect 7 1 28 0;
#X connect 10 0 12 0;
#X connect 11 0 10 0;
#X connect 12 0 13 0;
#X connect 12 1 14 0;
#X connect 12 2 15 0;
#X connect 12 3 16 0;
#X connect 18 0 17 0;
#X connect 19 0 18 0;
#X connect 20 0 21 0;
#X connect 21 0 18 1;
#X connect 22 0 19 0;
#X connect 22 1 23 0;
#X connect 22 2 24 0;
#X connect 23 0 18 0;
#X connect 24 0 18 0;
#X connect 25 0 18 0;
#X connect 26 0 18 0;
#X connect 27 0 18 0;
#X connect 28 0 34 0;
#X connect 28 1 35 0;
#X connect 28 2 36 0;
#X connect 29 0 8 0;
#X connect 29 0 22 0;
#X connect 30 0 18 0;
#X connect 34 0 18 0;
#X connect 35 0 18 0;
#X connect 36 0 18 0;
#X restore 382 -2028 pd pagesel;
#X obj 381 -2075 loadbang;
#X obj 427 -1990 bng 15 250 50 0 empty empty empty 17 7 0 10 -262144
-1 -1;
#X obj 448 -1990 bng 15 250 50 0 empty empty empty 17 7 0 10 -262144
-1 -1;
#X obj 470 -1991 bng 15 250 50 0 empty empty empty 17 7 0 10 -262144
-1 -1;
#X obj 491 -1991 bng 15 250 50 0 empty empty empty 17 7 0 10 -262144
-1 -1;
#X msg 381 -2052 19, f 4;
#X obj 423 -1894 delay 1000;
#X obj 423 -1866 delay 1000;
#X obj 424 -1834 delay 1000;
#X msg 487 -1966 send 0 0 resettinglcd;
#X obj 422 -1931 t b b b;
#X msg 497 -1938 send 18;
#X obj 366 -1939 bng 15 250 50 0 empty empty empty 17 7 0 10 -262144
-1 -1;
#X msg 566 -1568 sudo ./root/Desktop/wiringPi/examples/lcd;
#X msg 565 -1688 sudo pkill pd-l2ork;
#X msg 565 -1709 sudo pkill lcd;
#X obj 40 -1369 polysynthwt;
#X obj 36 -1162 8channelmixer;
#X obj 122 -984 dac~;
#X obj 267 -1173 polysynthwt;
#X obj 149 -1489 notein;
#X obj 146 -1451 pack 0 0;
#X connect 1 0 2 0;
#X connect 1 1 3 0;
#X connect 8 0 0 0;
#X connect 10 0 9 0;
#X connect 11 0 9 0;
#X connect 12 0 9 0;
#X connect 13 0 9 0;
#X connect 14 0 9 0;
#X connect 15 0 9 0;
#X connect 16 0 9 0;
#X connect 17 0 9 0;
#X connect 18 0 9 0;
#X connect 19 0 9 0;
#X connect 20 0 9 0;
#X connect 21 0 9 0;
#X connect 22 0 9 0;
#X connect 23 0 9 0;
#X connect 24 0 9 0;
#X connect 25 0 9 0;
#X connect 32 1 30 0;
#X connect 32 2 31 0;
#X connect 32 3 34 0;
#X connect 32 4 35 0;
#X connect 32 5 36 0;
#X connect 32 6 37 0;
#X connect 33 0 65 0;
#X connect 34 0 66 0;
#X connect 35 0 67 0;
#X connect 36 0 73 0;
#X connect 37 0 74 0;
#X connect 38 0 42 0;
#X connect 39 0 42 0;
#X connect 42 0 40 0;
#X connect 42 1 41 0;
#X connect 45 0 43 0;
#X connect 46 0 43 0;
#X connect 47 0 43 0;
#X connect 48 0 43 0;
#X connect 49 0 44 0;
#X connect 50 0 58 0;
#X connect 51 0 43 0;
#X connect 52 0 43 0;
#X connect 53 0 90 0;
#X connect 54 0 43 0;
#X connect 55 0 43 0;
#X connect 56 0 42 0;
#X connect 57 0 42 0;
#X connect 58 0 57 0;
#X connect 58 0 59 0;
#X connect 58 0 60 0;
#X connect 59 0 56 0;
#X connect 59 0 61 0;
#X connect 60 0 38 0;
#X connect 60 0 62 0;
#X connect 61 0 108 0;
#X connect 62 0 39 0;
#X connect 63 0 42 0;
#X connect 64 0 42 0;
#X connect 65 0 32 0;
#X connect 66 0 68 0;
#X connect 67 0 68 1;
#X connect 68 0 69 0;
#X connect 69 0 70 0;
#X connect 69 0 71 0;
#X connect 71 0 84 0;
#X connect 72 0 42 0;
#X connect 73 0 75 0;
#X connect 74 0 75 1;
#X connect 75 0 76 0;
#X connect 76 0 77 0;
#X connect 76 0 78 0;
#X connect 78 0 88 0;
#X connect 79 0 42 0;
#X connect 80 0 110 0;
#X connect 80 0 83 0;
#X connect 81 0 43 0;
#X connect 82 0 45 0;
#X connect 82 0 80 0;
#X connect 83 0 79 0;
#X connect 84 0 82 0;
#X connect 84 1 81 0;
#X connect 85 0 87 0;
#X connect 85 0 110 0;
#X connect 86 0 85 0;
#X connect 86 0 45 0;
#X connect 87 0 72 0;
#X connect 88 0 86 0;
#X connect 88 1 89 0;
#X connect 89 0 43 0;
#X connect 90 0 47 0;
#X connect 90 0 91 0;
#X connect 91 0 52 0;
#X connect 94 1 92 0;
#X connect 94 2 93 0;
#X connect 94 3 96 0;
#X connect 94 3 105 0;
#X connect 94 4 97 0;
#X connect 94 5 98 0;
#X connect 94 5 47 0;
#X connect 94 6 99 0;
#X connect 94 6 45 0;
#X connect 95 0 100 0;
#X connect 100 0 94 0;
#X connect 101 0 102 0;
#X connect 101 0 110 0;
#X connect 102 0 108 0;
#X connect 102 0 103 0;
#X connect 103 0 47 0;
#X connect 104 0 43 0;
#X connect 105 0 101 0;
#X connect 105 0 45 0;
#X connect 105 1 104 0;
#X connect 105 2 106 0;
#X connect 106 0 43 0;
#X connect 107 0 105 0;
#X connect 108 0 42 0;
#X connect 109 0 42 0;
#X connect 110 0 42 0;
#X connect 111 0 112 0;
#X connect 112 0 113 1;
#X connect 114 0 112 1;
#X connect 115 0 116 0;
#X connect 115 1 116 1;
#X connect 116 0 111 0;
#X connect 116 0 114 0;
