#N canvas 929 54 546 889 10;
#X obj 106 472 cos~;
#X obj 106 513 *~;
#X obj 88 100 +~;
#X obj 104 605 outlet~;
#X obj 91 -45 inlet~;
#X text 381 258 envelope;
#X text 139 -44 master phasor;
#X text 233 221 velocity;
#X obj 211 284 tabread curve;
#X obj 147 394 *;
#X obj 158 340 sel 0;
#X msg 171 374 1;
#X obj 198 341 loadbang;
#X obj 187 230 sel 0;
#X obj 187 190 t f f;
#X obj 188 162 r \$1vel;
#X text 337 -41 \$1 \$0 \$2 number;
#X obj 124 87 r~ \$1-mod\$2;
#X obj 47 574 *~ 1;
#X obj 182 258 6op-Envelope 6stage\$2Op 5000 1 2;
#X obj 89 73 *~ 1;
#X text 248 41 tune;
#X text 450 6 keyboard track;
#X text 193 86 fm;
#X text 287 316 velocity sense;
#X text 76 569 volume k track;
#X obj 133 57 * 16;
#X obj 273 -22 r \$1note;
#X obj 273 0 / 127;
#X obj 271 17 * 1;
#X obj 280 52 *~;
#X obj 147 416 / 127;
#X obj 328 8 r \$3-6stage\$2Op19.s;
#X obj 131 34 r \$3-6stage\$2Op18.s;
#X obj 153 315 r \$3-6stage\$2Op21.s;
#X obj 55 551 r \$3-6stage\$2Op20.s;
#X obj 124 109 *~ 100;
#X obj 128 443 * 1;
#X connect 0 0 1 0;
#X connect 1 0 3 0;
#X connect 2 0 0 0;
#X connect 4 0 20 0;
#X connect 8 0 9 0;
#X connect 9 0 31 0;
#X connect 10 0 11 0;
#X connect 10 1 9 1;
#X connect 11 0 9 1;
#X connect 12 0 11 0;
#X connect 13 1 8 0;
#X connect 14 0 19 0;
#X connect 14 1 13 0;
#X connect 15 0 14 0;
#X connect 17 0 36 0;
#X connect 19 0 37 0;
#X connect 20 0 2 0;
#X connect 26 0 20 1;
#X connect 27 0 28 0;
#X connect 28 0 29 0;
#X connect 29 0 30 1;
#X connect 31 0 37 1;
#X connect 32 0 29 1;
#X connect 33 0 26 0;
#X connect 34 0 10 0;
#X connect 35 0 18 1;
#X connect 36 0 2 1;
#X connect 37 0 1 1;
