#N canvas 448 67 1243 1013 10;
#X obj 568 -47 inlet;
#X obj 558 892 outlet~;
#X obj 554 142 phasor~;
#X obj 533 653 cos~;
#X obj 637 246 *~;
#X obj 638 332 cos~;
#X obj 568 4 mtof;
#X obj 554 117 line~, f 8;
#X msg 557 89 \$1 \$2;
#X obj 557 69 pack;
#X obj 577 47 r porta;
#X obj 535 331 *~;
#X obj 567 -22 unpack 0 0;
#X obj 595 731 / 127;
#X obj 562 711 sel 0;
#X obj 525 776 *~, f 2;
#X obj 620 767 spigot;
#X obj 631 707 r osc1vel;
#X obj 633 731 > 0;
#X obj 558 460 *~;
#X obj 644 467 / 127;
#X obj 618 442 sel 0;
#X obj 561 518 *~;
#X obj 666 501 spigot;
#X floatatom 688 414 5 0 0 0 - - -, f 5;
#X obj 679 376 r osc2vel;
#X obj 689 475 > 0;
#X obj 540 681 *~;
#X obj 530 550 +~;
#X obj 581 545 *~ 1;
#X obj 559 862 *~ 0.1;
#X obj 661 443 * 50;
#X obj 678 203 loadbang;
#X msg 664 220 1;
#X obj 718 50 outlet;
#X obj 594 838 r mastervol;
#X obj 719 24 i;
#X obj 604 69 r resetpoly;
#X msg 604 91 stop;
#X obj 717 -1 Envelope6 6stagefilt 5000 4095 2;
#X obj 573 358 Envelope6 6stage2Op 5000 1 2;
#X obj 575 660 Envelope6 6stage1Op 5000 1 2;
#X obj 556 737 f;
#X obj 613 487 f;
#X floatatom 755 192 5 0 0 0 - - -, f 5;
#X obj 664 183 r osc2pitch;
#X obj 534 303 r osc1pitch;
#X obj 876 762 outlet;
#X obj 869 730 * 4095;
#X obj 367 589 *~;
#X floatatom 399 583 5 0 0 0 - - -, f 5;
#X obj 289 454 osc~ 0.03;
#X floatatom 258 428 5 0 0 0 - - -, f 5;
#X obj 409 506 line 0 5;
#X obj 370 521 *~;
#X obj 353 624 +~;
#X obj 290 403 r \$1-lfo11.s;
#X obj 380 374 sel 0;
#X obj 409 402 t b b;
#X msg 437 465 0 0;
#X obj 423 332 r \$1-lfo13.s;
#X floatatom 423 354 5 0 0 0 - - -, f 5;
#X obj 420 383 * 2000;
#X obj 408 537 r \$1-lfo14.s;
#X obj 408 559 * 5;
#X obj 290 425 * 50;
#X obj 395 431 delay;
#X msg 403 477 1 100;
#X obj 698 277 *~;
#X floatatom 730 271 5 0 0 0 - - -, f 5;
#X obj 684 312 +~;
#X obj 739 247 * 5;
#X obj 739 225 r \$1-lfo15.s;
#X obj 363 804 *~;
#X floatatom 395 798 5 0 0 0 - - -, f 5;
#X obj 404 752 r \$1-lfo16.s;
#X obj 528 820 *~;
#X obj 404 774 * 1;
#X obj 363 826 +~ 1;
#X connect 0 0 12 0;
#X connect 2 0 11 0;
#X connect 2 0 4 0;
#X connect 3 0 27 0;
#X connect 4 0 70 0;
#X connect 5 0 19 0;
#X connect 6 0 9 0;
#X connect 7 0 2 0;
#X connect 8 0 7 0;
#X connect 9 0 8 0;
#X connect 10 0 9 1;
#X connect 11 0 28 0;
#X connect 12 0 6 0;
#X connect 12 1 14 0;
#X connect 12 1 21 0;
#X connect 12 1 41 0;
#X connect 12 1 57 0;
#X connect 12 1 39 0;
#X connect 12 1 40 0;
#X connect 13 0 16 0;
#X connect 13 0 42 1;
#X connect 14 0 42 0;
#X connect 14 1 13 0;
#X connect 15 0 76 0;
#X connect 16 0 15 1;
#X connect 17 0 18 0;
#X connect 18 0 16 1;
#X connect 19 0 22 0;
#X connect 20 0 23 0;
#X connect 20 0 43 1;
#X connect 21 0 43 0;
#X connect 21 1 20 0;
#X connect 22 0 29 0;
#X connect 23 0 22 1;
#X connect 25 0 24 0;
#X connect 25 0 26 0;
#X connect 25 0 31 0;
#X connect 26 0 23 1;
#X connect 27 0 15 0;
#X connect 28 0 55 0;
#X connect 29 0 28 1;
#X connect 30 0 1 0;
#X connect 31 0 29 1;
#X connect 32 0 33 0;
#X connect 33 0 4 1;
#X connect 33 0 11 1;
#X connect 35 0 30 1;
#X connect 36 0 34 0;
#X connect 37 0 38 0;
#X connect 38 0 7 0;
#X connect 39 0 36 0;
#X connect 40 0 19 1;
#X connect 41 0 27 1;
#X connect 41 0 48 0;
#X connect 42 0 15 1;
#X connect 43 0 22 1;
#X connect 45 0 4 1;
#X connect 45 0 44 0;
#X connect 46 0 11 1;
#X connect 48 0 47 0;
#X connect 49 0 55 1;
#X connect 50 0 49 1;
#X connect 51 0 54 0;
#X connect 53 0 54 1;
#X connect 54 0 49 0;
#X connect 54 0 68 0;
#X connect 54 0 73 0;
#X connect 55 0 3 0;
#X connect 56 0 52 0;
#X connect 56 0 65 0;
#X connect 57 1 58 0;
#X connect 58 0 66 0;
#X connect 58 1 59 0;
#X connect 59 0 53 0;
#X connect 60 0 61 0;
#X connect 60 0 62 0;
#X connect 62 0 66 1;
#X connect 63 0 64 0;
#X connect 64 0 50 0;
#X connect 65 0 51 0;
#X connect 66 0 67 0;
#X connect 67 0 53 0;
#X connect 68 0 70 1;
#X connect 69 0 68 1;
#X connect 70 0 5 0;
#X connect 71 0 69 0;
#X connect 72 0 71 0;
#X connect 73 0 78 0;
#X connect 74 0 73 1;
#X connect 75 0 77 0;
#X connect 76 0 30 0;
#X connect 77 0 74 0;
#X connect 78 0 76 1;
#X coords 0 0 1 1 64 180 0;
