#N canvas 10 96 1234 881 10;
#X obj 72 -392 unpack;
#X obj 118 -482 r encoders;
#X obj 116 -431 t l l;
#X obj 193 -225 f;
#X obj 146 -377 t b f;
#X obj 161 -225 +;
#X obj 172 -353 / 4;
#X obj 163 -183 i;
#X obj 161 -121 change;
#X obj 158 -99 t f f f;
#X obj 117 -458 route \$2;
#X obj 145 -404 route \$3;
#X obj 165 -203 clip \$4 \$5;
#X obj 163 -307 * \$5;
#X obj 198 -75 / \$5;
#X obj 75 -273 change;
#X obj 75 -252 sel \$3;
#X obj 75 -200 s paramdisp;
#X obj 155 -75 outlet;
#X obj 379 150 list prepend add;
#X obj 379 170 list trim;
#X obj 379 130 list append 0;
#X text 376 74 0 if no value is received before saving;
#X text 376 33 arguments:;
#X obj 379 90 r \$8-get.values;
#X text 376 48 \$8 = \$0 of the parent patch;
#X text 376 63 \$6 = name of the control to save;
#X obj 82 -226 symbol \$1;
#X msg 93 -348 stop, f 7;
#X obj 76 -371 t b b a;
#X obj 72 -323 delay 50;
#X obj 72 -295 i;
#X obj 173 41 pack 0 0 0;
#X obj 178 4 f \$9;
#X obj 215 12 f \$10;
#X obj 207 -278 route \$2;
#X obj 176 -20 t b b f;
#X obj 207 -256 route \$3;
#X obj 206 -300 r paramlink;
#X obj 173 65 s paramlink;
#X obj 379 190 s \$8-to.textfile;
#X text 142 -545 \$1name \$2pageno \$3encoderno \$4min \$5max \$6tablepname
\$7tableno \$0 \$9pagelink \$10encoderlink;
#X obj 162 -329 r \$8-\$6\$7.r;
#X obj 221 -41 s \$8-\$6\$7.s;
#X obj 379 110 symbol \$6\$7;
#X obj 454 110 r \$8-\$6\$7.s;
#X msg 330 -340 range \$1 \$2;
#X obj 331 -380 f \$4;
#X obj 361 -380 f \$5;
#X obj 330 -401 t b b;
#X obj 333 -360 pack;
#X obj 330 -419 bng 15 250 50 0 empty empty empty 17 7 0 10 -262144
-1 -1;
#X msg 410 -351 label \$1;
#X obj 410 -373 symbol \$1;
#X obj 409 -392 bng 15 250 50 0 empty empty empty 17 7 0 10 -262144
-1 -1;
#X obj 324 -494 loadbang;
#X obj 324 -472 delay 30;
#X obj 324 -450 t b b b b;
#X obj 485 -310 cnv 15 49 198 backgroundslider empty empty 20 12 0
14 -233273 -66577 0;
#X obj 299 -38 outlet;
#X obj 160 -143 i;
#X obj 393 -56 s valuedisp;
#X obj 487 -295 nbx 4 11 1 5000 0 0 empty empty 1T1 0 -8 0 8 -262144
-1 -1 409 256 0;
#X obj 655 -393 unpack;
#X obj 701 -483 r encoders;
#X obj 699 -432 t l l;
#X obj 776 -226 f;
#X obj 729 -378 t b f;
#X obj 744 -226 +;
#X obj 755 -354 / 4;
#X obj 746 -184 i;
#X obj 744 -122 change;
#X obj 741 -100 t f f f;
#X obj 658 -274 change;
#X obj 658 -201 s paramdisp;
#X obj 738 -76 outlet;
#X obj 962 149 list prepend add;
#X obj 962 169 list trim;
#X obj 962 129 list append 0;
#X text 959 73 0 if no value is received before saving;
#X text 959 32 arguments:;
#X text 959 47 \$8 = \$0 of the parent patch;
#X text 959 62 \$6 = name of the control to save;
#X msg 676 -349 stop, f 7;
#X obj 659 -372 t b b a;
#X obj 655 -324 delay 50;
#X obj 655 -296 i;
#X obj 756 40 pack 0 0 0;
#X obj 759 -21 t b b f;
#X obj 789 -301 r paramlink;
#X obj 756 64 s paramlink;
#X obj 962 189 s \$8-to.textfile;
#X msg 913 -341 range \$1 \$2;
#X obj 913 -402 t b b;
#X obj 916 -361 pack;
#X obj 913 -420 bng 15 250 50 0 empty empty empty 17 7 0 10 -262144
-1 -1;
#X obj 992 -393 bng 15 250 50 0 empty empty empty 17 7 0 10 -262144
-1 -1;
#X obj 907 -495 loadbang;
#X obj 907 -473 delay 30;
#X obj 907 -451 t b b b b;
#X obj 882 -39 outlet;
#X obj 743 -144 i;
#X obj 976 -57 s valuedisp;
#X text 694 -534 \$11name \$12pageno \$13encoderno \$14min \$15max
\$16tablepname \$17tableno \$0 \$19pagelink \$20encoderlink;
#X obj 700 -459 route \$12;
#X obj 728 -405 route \$13;
#X obj 745 -330 r \$18-\$16\$17.r;
#X obj 746 -308 * \$15;
#X obj 790 -279 route \$12;
#X obj 790 -257 route \$13;
#X obj 748 -204 clip \$14 \$15;
#X obj 665 -227 symbol \$11;
#X obj 658 -253 sel \$13;
#X obj 914 -381 f \$14;
#X obj 951 -380 f \$15;
#X obj 781 -76 / \$15;
#X obj 782 -52 s \$18-\$16\$17.s;
#X obj 761 3 f \$19;
#X obj 798 11 f \$20;
#X obj 962 89 r \$18-get.values;
#X obj 962 109 symbol \$16\$17;
#X obj 1047 109 r \$18-\$16\$17.s;
#X obj 488 -267 nbx 4 11 1 4095 0 0 empty empty 1L1 0 -8 0 8 -262144
-1 -1 1 256 0;
#X obj 187 116 t b b f;
#X obj 187 138 symbol \$6;
#X obj 208 159 f \$7;
#X obj 184 194 pack s 0 0;
#X msg 184 216 \; \$1 \$2 \$3;
#X obj 760 98 t b b f;
#X obj 757 176 pack s 0 0;
#X msg 757 198 \; \$1 \$2 \$3;
#X obj 760 120 symbol \$16;
#X obj 781 141 f \$17;
#X obj 993 -374 symbol \$11;
#X msg 994 -352 label \$1;
#X obj 21 -453 routeOSC /\$1;
#X obj 37 -424 t b a;
#X obj 593 -428 t b a;
#X obj 577 -456 routeOSC /\$11;
#X obj 44 -478 r fromOSC;
#X obj 600 -482 r fromOSC;
#X obj 287 132 symbol \$1;
#X msg 281 199 /\$1 \$2;
#X obj 281 221 s toOSC;
#X obj 317 103 t b f;
#X msg 872 196 /\$1 \$2;
#X obj 872 218 s toOSC;
#X obj 908 100 t b f;
#X obj 878 129 symbol \$11;
#X obj 279 164 pack s f;
#X obj 871 161 pack s f;
#X connect 0 0 29 0;
#X connect 1 0 10 0;
#X connect 2 0 0 0;
#X connect 2 1 11 0;
#X connect 3 0 5 0;
#X connect 4 0 3 0;
#X connect 4 1 6 0;
#X connect 5 0 12 0;
#X connect 6 0 5 1;
#X connect 7 0 62 0;
#X connect 8 0 9 0;
#X connect 9 0 61 0;
#X connect 9 1 18 0;
#X connect 9 2 14 0;
#X connect 9 2 36 0;
#X connect 10 0 2 0;
#X connect 11 0 4 0;
#X connect 12 0 3 1;
#X connect 12 0 7 0;
#X connect 13 0 12 0;
#X connect 14 0 59 0;
#X connect 14 0 123 0;
#X connect 14 0 43 0;
#X connect 14 0 144 0;
#X connect 15 0 16 0;
#X connect 16 0 27 0;
#X connect 19 0 20 0;
#X connect 20 0 40 0;
#X connect 21 0 19 0;
#X connect 24 0 44 0;
#X connect 27 0 17 0;
#X connect 28 0 30 0;
#X connect 29 0 30 0;
#X connect 29 1 28 0;
#X connect 29 2 31 1;
#X connect 30 0 31 0;
#X connect 31 0 15 0;
#X connect 32 0 39 0;
#X connect 33 0 32 0;
#X connect 34 0 32 1;
#X connect 35 0 37 0;
#X connect 36 0 33 0;
#X connect 36 1 34 0;
#X connect 36 2 32 2;
#X connect 37 0 3 1;
#X connect 38 0 35 0;
#X connect 42 0 13 0;
#X connect 44 0 21 0;
#X connect 45 0 21 1;
#X connect 46 0 62 0;
#X connect 47 0 50 0;
#X connect 48 0 50 1;
#X connect 49 0 47 0;
#X connect 49 1 48 0;
#X connect 50 0 46 0;
#X connect 51 0 49 0;
#X connect 52 0 62 0;
#X connect 53 0 52 0;
#X connect 54 0 53 0;
#X connect 55 0 56 0;
#X connect 56 0 57 0;
#X connect 57 2 51 0;
#X connect 57 3 54 0;
#X connect 60 0 8 0;
#X connect 62 0 60 0;
#X connect 63 0 84 0;
#X connect 64 0 104 0;
#X connect 65 0 63 0;
#X connect 65 1 105 0;
#X connect 66 0 68 0;
#X connect 67 0 66 0;
#X connect 67 1 69 0;
#X connect 68 0 110 0;
#X connect 69 0 68 1;
#X connect 70 0 122 0;
#X connect 71 0 72 0;
#X connect 72 0 102 0;
#X connect 72 1 75 0;
#X connect 72 2 88 0;
#X connect 72 2 115 0;
#X connect 73 0 112 0;
#X connect 76 0 77 0;
#X connect 77 0 91 0;
#X connect 78 0 76 0;
#X connect 83 0 85 0;
#X connect 84 0 85 0;
#X connect 84 1 83 0;
#X connect 84 2 86 1;
#X connect 85 0 86 0;
#X connect 86 0 73 0;
#X connect 87 0 90 0;
#X connect 88 0 117 0;
#X connect 88 1 118 0;
#X connect 88 2 87 2;
#X connect 89 0 108 0;
#X connect 92 0 122 0;
#X connect 93 0 113 0;
#X connect 93 1 114 0;
#X connect 94 0 92 0;
#X connect 95 0 93 0;
#X connect 96 0 133 0;
#X connect 97 0 98 0;
#X connect 98 0 99 0;
#X connect 99 2 95 0;
#X connect 99 3 96 0;
#X connect 101 0 71 0;
#X connect 104 0 65 0;
#X connect 105 0 67 0;
#X connect 106 0 107 0;
#X connect 107 0 110 0;
#X connect 108 0 109 0;
#X connect 109 0 66 1;
#X connect 110 0 66 1;
#X connect 110 0 70 0;
#X connect 111 0 74 0;
#X connect 112 0 111 0;
#X connect 113 0 94 0;
#X connect 114 0 94 1;
#X connect 115 0 100 0;
#X connect 115 0 116 0;
#X connect 115 0 128 0;
#X connect 115 0 147 0;
#X connect 117 0 87 0;
#X connect 118 0 87 1;
#X connect 119 0 120 0;
#X connect 120 0 78 0;
#X connect 121 0 78 1;
#X connect 122 0 101 0;
#X connect 123 0 124 0;
#X connect 123 1 125 0;
#X connect 123 2 126 2;
#X connect 124 0 126 0;
#X connect 125 0 126 1;
#X connect 126 0 127 0;
#X connect 128 0 131 0;
#X connect 128 1 132 0;
#X connect 128 2 129 2;
#X connect 129 0 130 0;
#X connect 131 0 129 0;
#X connect 132 0 129 1;
#X connect 133 0 134 0;
#X connect 134 0 122 0;
#X connect 135 0 136 0;
#X connect 136 0 27 0;
#X connect 136 1 13 0;
#X connect 137 0 111 0;
#X connect 137 1 107 0;
#X connect 138 0 137 0;
#X connect 139 0 135 0;
#X connect 140 0 138 0;
#X connect 141 0 149 0;
#X connect 142 0 143 0;
#X connect 144 0 141 0;
#X connect 144 1 149 1;
#X connect 145 0 146 0;
#X connect 147 0 148 0;
#X connect 147 1 150 1;
#X connect 148 0 150 0;
#X connect 149 0 142 0;
#X connect 150 0 145 0;
#X coords 0 -1 1 1 51 68 2 484 -311;
