#N canvas 437 88 1379 993 10;
#X obj 211 -803 tgl 15 0 empty empty empty 17 7 0 10 -262144 -1 -1
0 1;
#X floatatom 263 -820 5 0 0 0 - - -, f 5;
#X floatatom 172 -761 5 0 0 0 - - -, f 5;
#X obj 209 -783 metro 150;
#X obj 275 -620 counter 15;
#X obj 191 -116 f, f 4;
#X text 778 -125 accent;
#X text 823 -125 slide;
#X obj 250 -326 spigot;
#X obj 209 -762 counter 5;
#X obj 277 -649 sel 0;
#X msg 247 -294 0;
#X obj 192 -94 sel 1 0;
#X msg 214 -57 0;
#X obj 223 -733 r stepclk;
#X obj 801 -144 tgl 15 0 empty empty empty 17 7 0 10 -262144 -1 -1
0 28;
#X obj 821 -144 tgl 15 0 empty empty empty 17 7 0 10 -262144 -1 -1
0 39;
#X obj 1029 -146 tgl 15 0 empty empty empty 17 7 0 10 -262144 -1 -1
0 1;
#X obj 1049 -146 tgl 15 0 empty empty empty 17 7 0 10 -262144 -1 -1
0 1;
#X msg 482 -56 1;
#X msg 512 -56 3;
#X msg 495 -78 2;
#X msg 523 -78 4;
#X msg 539 -56 5;
#X msg 566 -56 6;
#X msg 577 -79 7;
#X msg 593 -56 8;
#X msg 604 -79 9;
#X msg 620 -56 10;
#X msg 631 -78 11;
#X msg 647 -57 12;
#X msg 674 -57 13;
#X floatatom 483 -13 5 0 0 0 - - -, f 5;
#X obj 848 -325 bng 15 250 50 0 empty empty empty 17 7 0 10 -262144
-1 -1;
#X obj 829 -325 bng 15 250 50 0 empty empty empty 17 7 0 10 -262144
-1 -1;
#X floatatom 817 -241 5 0 0 0 - - -, f 5;
#X msg 826 -293 inc;
#X msg 856 -295 dec;
#X msg 892 -288 0;
#X obj 817 -264 counter 100;
#X obj 471 -144 tgl 30 0 empty empty empty 17 7 0 10 -262144 -1 -1
0 1;
#X obj 472 -110 sel 1;
#X obj 508 -144 tgl 30 0 empty empty empty 17 7 0 10 -262144 -1 -1
0 1;
#X obj 509 -110 sel 1;
#X obj 545 -144 tgl 30 0 empty empty empty 17 7 0 10 -262144 -1 -1
0 1;
#X obj 546 -110 sel 1;
#X obj 582 -144 tgl 30 0 empty empty empty 17 7 0 10 -262144 -1 -1
0 1;
#X obj 583 -110 sel 1;
#X obj 618 -145 tgl 30 0 empty empty empty 17 7 0 10 -262144 -1 -1
0 1;
#X obj 619 -111 sel 1;
#X obj 655 -145 tgl 30 0 empty empty empty 17 7 0 10 -262144 -1 -1
0 1;
#X obj 656 -111 sel 1;
#X obj 692 -145 tgl 30 0 empty empty empty 17 7 0 10 -262144 -1 -1
0 1;
#X obj 693 -111 sel 1;
#X obj 729 -145 tgl 30 0 empty empty empty 17 7 0 10 -262144 -1 -1
0 1;
#X obj 730 -111 sel 1;
#X obj 488 -193 tgl 30 0 empty empty empty 17 7 0 10 -262144 -1 -1
0 1;
#X obj 488 -160 sel 1;
#X obj 524 -197 tgl 30 0 empty empty empty 17 7 0 10 -262144 -1 -1
0 1;
#X obj 525 -162 sel 1;
#X obj 598 -197 tgl 30 0 empty empty empty 17 7 0 10 -262144 -1 -1
0 1;
#X obj 599 -163 sel 1;
#X obj 634 -198 tgl 30 0 empty empty empty 17 7 0 10 -262144 -1 -1
0 1;
#X obj 635 -164 sel 1;
#X obj 671 -198 tgl 30 0 empty empty empty 17 7 0 10 -262144 -1 -1
0 1;
#X obj 672 -164 sel 1;
#X obj 688 -254 t f b;
#X msg 868 -126 set \$1;
#X msg 868 -177 set \$1;
#X obj 1019 -196 sel 0 1 2;
#X obj 1018 -219 t f b;
#X obj 1022 -115 sel 1;
#X obj 1065 -114 sel 1;
#X msg 1065 -91 2;
#X floatatom 685 -281 5 0 0 0 - - -, f 5;
#X msg 689 -230 set 0;
#X obj 293 -459 sel 0;
#X msg 1080 -196 set 0;
#X msg 1024 -167 set 1;
#X msg 1069 -167 set 1;
#X msg 1022 -92 1;
#X obj 878 -728 f;
#X obj 908 -729 + 1;
#X obj 847 -760 t b b;
#X msg 880 -681 0;
#X obj 845 -804 tgl 15 0 empty empty empty 17 7 0 10 -262144 -1 -1
0 1;
#X floatatom 935 -708 5 0 0 0 - - -, f 5;
#X obj 857 -427 random 2;
#X obj 858 -619 random 2;
#X obj 844 -782 metro 10;
#X floatatom 618 -717 3 0 100 0 - - -, f 3;
#X text 644 -717 <-- change probablilty;
#X msg 628 -672 0;
#X obj 710 -773 sel 1;
#X obj 352 -390 timer;
#X obj 351 -412 t b b;
#X text 357 -43 transpose;
#X obj 354 -546 s slideon/off;
#X obj 210 -701 t f f f f;
#X obj 319 -378 f;
#X obj 324 -329 pack 0 0;
#X obj 305 -548 spigot;
#X obj 304 -349 f;
#X msg 302 -307 \$1 0;
#X obj 235 -592 t f b b f;
#X obj 310 -234 sel 1 0;
#X msg 314 -203 0;
#X msg 340 -203 1;
#X obj 309 -169 spigot;
#X obj 318 -128 f;
#X obj 305 -417 spigot;
#X obj 839 -654 random 38;
#X floatatom 392 -388 5 0 0 0 - - -, f 5;
#X obj 374 -362 + 1;
#X obj 190 -162 spigot;
#X obj 190 -189 spigot;
#X floatatom 913 -592 3 0 100 0 - - -, f 3;
#X msg 922 -537 0;
#X obj 219 -353 t b b;
#X obj 252 -380 sel 5;
#X obj 307 -707 r reset;
#X msg 322 -677 0;
#X obj 880 -704 sel 32;
#X floatatom 366 -657 5 0 0 0 - - -, f 5;
#X obj 708 -692 random 32;
#X obj 422 -526 loadbang;
#N canvas 142 181 1176 548 scaler 0;
#X obj 33 23 inlet;
#X obj 301 26 inlet;
#X obj 38 433 outlet;
#X obj 66 85 int;
#X floatatom 63 106 5 0 0 0 - - -, f 5;
#X obj 169 147 mod 7;
#X text 212 146 <-- [mod ] handles negative numbers differently than
[% ];
#X obj 244 190 div 7;
#X obj 169 90 t f f;
#X floatatom 301 234 5 0 0 0 - - -, f 5;
#X floatatom 182 407 5 0 0 0 - - -, f 5;
#X floatatom 132 208 5 0 0 0 - - -, f 5;
#X obj 238 270 * 12;
#X obj 179 337 +;
#X text 291 186 <-- division that discards the remainder. This tells
you what octave to use.;
#X text 223 377 <-- offset;
#X obj 176 305 tabread scale;
#X obj 269 71 r scale_length;
#X obj 179 379 + 0;
#X obj 239 232 mod 2;
#X connect 0 0 3 0;
#X connect 1 0 18 1;
#X connect 3 0 4 0;
#X connect 4 0 8 0;
#X connect 5 0 11 0;
#X connect 5 0 16 0;
#X connect 7 0 19 0;
#X connect 8 0 5 0;
#X connect 8 1 7 0;
#X connect 10 0 2 0;
#X connect 12 0 13 1;
#X connect 13 0 18 0;
#X connect 16 0 13 0;
#X connect 17 0 5 1;
#X connect 17 0 7 1;
#X connect 18 0 10 0;
#X connect 19 0 12 0;
#X connect 19 0 9 0;
#X restore 293 -482 pd scaler;
#X msg 418 -505 0;
#X floatatom 611 -801 3 0 100 0 - - -, f 3;
#X obj 576 -722 f;
#X obj 657 -740 random 100;
#X obj 576 -751 t b;
#X obj 732 -740 random 100;
#X obj 844 -827 inlet;
#X obj 392 -695 inlet;
#X obj 610 -827 inlet;
#X obj 617 -740 inlet;
#X obj 872 -595 inlet;
#X obj 342 -97 inlet;
#X obj 326 -43 + 12;
#X obj 566 -775 moses 34;
#X obj 573 -691 moses 25;
#X obj 867 -556 moses 3;
#X obj 393 -407 inlet;
#X text 876 -823 random;
#X floatatom 370 -15 5 0 0 0 - - -, f 5;
#X obj 49 -587 table \$0patternacc 1600;
#X obj 322 33 outlet;
#X obj 155 -16 outlet;
#X obj 48 -562 table \$0patternslide 1600;
#X obj 53 -536 table \$0patternnote 1600;
#X obj 46 -514 table \$0patternoctave 1600;
#X obj 290 -509 tabread \$0patternnote;
#X obj 335 -569 tabread \$0patternslide;
#X obj 195 -139 tabread \$0patternacc;
#X obj 471 35 tabwrite \$0patternnote;
#X obj 842 -66 tabwrite \$0patternslide;
#X obj 818 -92 tabwrite \$0patternacc;
#X obj 868 -147 tabread \$0patternslide;
#X obj 868 -199 tabread \$0patternacc;
#X obj 1017 -243 tabread \$0patternoctave;
#X obj 1023 -66 tabwrite \$0patternoctave;
#X obj 874 -474 random 4;
#X obj 857 -405 tabwrite \$0patternacc;
#X obj 857 -448 tabwrite \$0patternoctave;
#X obj 869 -510 tabwrite \$0patternslide;
#X obj 573 -642 tabwrite \$0patternnote;
#X obj 685 -304 tabread \$0patternnote;
#X obj 136 -75 +;
#X msg 217 -296 80;
#X msg 185 -56 40;
#X obj 314 -285 line 0 10;
#X connect 0 0 3 0;
#X connect 1 0 3 1;
#X connect 3 0 9 0;
#X connect 4 0 104 0;
#X connect 5 0 12 0;
#X connect 8 0 11 0;
#X connect 9 0 2 0;
#X connect 9 0 98 0;
#X connect 10 0 4 0;
#X connect 10 0 95 0;
#X connect 11 0 148 0;
#X connect 12 0 170 0;
#X connect 14 0 98 0;
#X connect 15 0 157 0;
#X connect 16 0 156 0;
#X connect 17 0 71 0;
#X connect 18 0 72 0;
#X connect 19 0 32 0;
#X connect 20 0 32 0;
#X connect 21 0 32 0;
#X connect 22 0 32 0;
#X connect 23 0 32 0;
#X connect 24 0 32 0;
#X connect 25 0 32 0;
#X connect 26 0 32 0;
#X connect 27 0 32 0;
#X connect 28 0 32 0;
#X connect 29 0 32 0;
#X connect 30 0 32 0;
#X connect 31 0 32 0;
#X connect 32 0 155 0;
#X connect 33 0 36 0;
#X connect 34 0 37 0;
#X connect 36 0 39 0;
#X connect 37 0 39 0;
#X connect 38 0 39 3;
#X connect 39 0 35 0;
#X connect 39 0 155 1;
#X connect 39 0 156 1;
#X connect 39 0 157 1;
#X connect 39 0 158 0;
#X connect 39 0 159 0;
#X connect 39 0 160 0;
#X connect 39 0 161 1;
#X connect 39 0 167 0;
#X connect 40 0 41 0;
#X connect 41 0 19 0;
#X connect 41 1 32 0;
#X connect 42 0 43 0;
#X connect 43 0 20 0;
#X connect 43 1 32 0;
#X connect 44 0 45 0;
#X connect 45 0 23 0;
#X connect 45 1 32 0;
#X connect 46 0 47 0;
#X connect 47 0 24 0;
#X connect 47 1 32 0;
#X connect 48 0 49 0;
#X connect 49 0 26 0;
#X connect 49 1 32 0;
#X connect 50 0 51 0;
#X connect 51 0 28 0;
#X connect 51 1 32 0;
#X connect 52 0 53 0;
#X connect 53 0 30 0;
#X connect 53 1 32 0;
#X connect 54 0 55 0;
#X connect 55 0 31 0;
#X connect 55 1 32 0;
#X connect 56 0 57 0;
#X connect 57 0 21 0;
#X connect 57 1 32 0;
#X connect 58 0 59 0;
#X connect 59 0 22 0;
#X connect 59 1 32 0;
#X connect 60 0 61 0;
#X connect 61 0 25 0;
#X connect 61 1 32 0;
#X connect 62 0 63 0;
#X connect 63 0 27 0;
#X connect 63 1 32 0;
#X connect 64 0 65 0;
#X connect 65 0 29 0;
#X connect 65 1 32 0;
#X connect 66 1 75 0;
#X connect 67 0 16 0;
#X connect 68 0 15 0;
#X connect 69 1 78 0;
#X connect 69 2 79 0;
#X connect 70 0 69 0;
#X connect 70 1 77 0;
#X connect 71 0 80 0;
#X connect 71 0 161 0;
#X connect 72 0 73 0;
#X connect 73 0 161 0;
#X connect 75 0 64 0;
#X connect 75 0 54 0;
#X connect 75 0 52 0;
#X connect 75 0 50 0;
#X connect 75 0 48 0;
#X connect 75 0 46 0;
#X connect 75 0 44 0;
#X connect 75 0 42 0;
#X connect 75 0 40 0;
#X connect 75 0 62 0;
#X connect 75 0 60 0;
#X connect 75 0 58 0;
#X connect 75 0 56 0;
#X connect 76 0 8 0;
#X connect 76 1 99 1;
#X connect 76 1 115 1;
#X connect 76 1 109 1;
#X connect 76 1 118 0;
#X connect 77 0 18 0;
#X connect 77 0 17 0;
#X connect 78 0 17 0;
#X connect 79 0 18 0;
#X connect 80 0 161 0;
#X connect 81 0 82 0;
#X connect 81 0 86 0;
#X connect 81 0 122 0;
#X connect 81 0 163 1;
#X connect 81 0 164 1;
#X connect 81 0 165 1;
#X connect 81 0 166 1;
#X connect 82 0 81 1;
#X connect 83 0 87 0;
#X connect 83 0 88 0;
#X connect 83 0 111 0;
#X connect 83 0 162 0;
#X connect 83 1 81 0;
#X connect 84 0 81 1;
#X connect 84 0 85 0;
#X connect 85 0 89 0;
#X connect 85 0 93 0;
#X connect 87 0 163 0;
#X connect 88 0 142 0;
#X connect 89 0 83 0;
#X connect 90 0 141 1;
#X connect 92 0 166 0;
#X connect 93 0 124 0;
#X connect 93 0 130 0;
#X connect 93 0 132 0;
#X connect 94 0 113 0;
#X connect 95 0 94 0;
#X connect 95 1 94 1;
#X connect 98 3 10 0;
#X connect 98 3 119 0;
#X connect 99 0 102 1;
#X connect 99 0 100 0;
#X connect 100 0 171 0;
#X connect 101 0 102 0;
#X connect 102 0 103 0;
#X connect 103 0 171 0;
#X connect 104 0 115 0;
#X connect 104 1 110 0;
#X connect 104 2 101 0;
#X connect 104 2 108 0;
#X connect 104 3 152 0;
#X connect 104 3 153 0;
#X connect 105 0 106 0;
#X connect 105 1 107 0;
#X connect 106 0 108 1;
#X connect 106 0 114 1;
#X connect 106 0 8 1;
#X connect 107 0 108 1;
#X connect 107 0 114 1;
#X connect 107 0 8 1;
#X connect 108 0 109 0;
#X connect 109 0 139 0;
#X connect 110 0 99 0;
#X connect 111 0 140 0;
#X connect 112 0 113 1;
#X connect 113 0 100 1;
#X connect 114 0 154 0;
#X connect 115 0 114 0;
#X connect 116 0 142 1;
#X connect 117 0 165 0;
#X connect 118 0 169 0;
#X connect 119 0 13 0;
#X connect 119 0 8 0;
#X connect 120 0 121 0;
#X connect 121 0 4 3;
#X connect 122 0 84 0;
#X connect 123 0 4 4;
#X connect 124 0 123 0;
#X connect 125 0 127 0;
#X connect 126 0 76 0;
#X connect 127 0 126 1;
#X connect 128 0 140 1;
#X connect 129 0 141 0;
#X connect 131 0 129 0;
#X connect 133 0 85 0;
#X connect 134 0 123 0;
#X connect 134 0 122 1;
#X connect 135 0 128 0;
#X connect 136 0 90 0;
#X connect 137 0 142 1;
#X connect 138 0 139 1;
#X connect 139 0 145 0;
#X connect 139 0 147 0;
#X connect 140 0 129 1;
#X connect 140 0 141 0;
#X connect 140 1 131 0;
#X connect 141 0 166 0;
#X connect 141 1 92 0;
#X connect 142 0 165 0;
#X connect 142 1 117 0;
#X connect 143 0 112 0;
#X connect 152 0 126 0;
#X connect 153 0 97 0;
#X connect 153 0 101 1;
#X connect 153 0 105 0;
#X connect 153 0 110 1;
#X connect 154 0 5 0;
#X connect 158 0 67 0;
#X connect 159 0 68 0;
#X connect 160 0 70 0;
#X connect 162 0 164 0;
#X connect 167 0 66 0;
#X connect 167 0 74 0;
#X connect 168 0 148 0;
#X connect 169 0 168 0;
#X connect 170 0 168 1;
#X connect 171 0 139 0;
