#N canvas 1084 530 505 430 10;
#X obj 322 128 table \$2 20;
#X obj 108 45 parameter \$1-2 100 100 0 127 \$2 1 \$3;
#X obj 148 45 parameter \$1-3 100 100 0 127 \$2 2 \$3;
#X obj 188 45 parameter \$1-4 100 100 0 127 \$2 3 \$3;
#X obj 228 45 parameter \$1-5 100 100 0 127 \$2 4 \$3;
#X obj 268 45 parameter \$1-6 100 100 0 127 \$2 5 \$3;
#X obj 68 45 parameter \$1-1 100 100 0 127 \$2 0 \$3;
#X obj 28 306 s velsense1;
#X obj 103 306 s velsense2;
#X obj 178 308 s velsense3;
#X obj 253 306 s velsense4;
#X obj 328 306 s velsense5;
#X obj 404 306 s velsense6;
#X connect 1 1 8 0;
#X connect 2 1 9 0;
#X connect 3 1 10 0;
#X connect 4 1 11 0;
#X connect 5 1 12 0;
#X connect 6 1 7 0;
#X coords 0 -1 1 1 240 202 2 67 44;
