#N canvas 103 216 1290 628 10;
#X floatatom 356 -349 15 0 0 0 - - -, f 15;
#X floatatom 299 -368 5 0 0 0 - - -, f 5;
#X obj 39 2 s \$1change;
#X obj 48 39 s valuedisp;
#X obj 295 -342 tabread \$2;
#X obj 146 -301 2parameterOSC \$1T1 \$4 1 1 5000 \$2 1 \$3 0 0 \$1L1
\$4 2 1 4095 \$2 2 \$3;
#X obj 197 -301 2parameterOSC \$1T2 \$4 3 1 5000 \$2 3 \$3 0 0 \$1L2
\$4 4 1 4095 \$2 4 \$3;
#X obj 248 -301 2parameterOSC \$1T3 \$4 5 1 5000 \$2 5 \$3 0 0 \$1L3
\$4 6 1 4095 \$2 6 \$3;
#X obj 299 -301 2parameterOSC \$1T4 \$4 7 1 5000 \$2 7 \$3 0 0 \$1L4
\$4 8 1 4095 \$2 8 \$3;
#X obj 350 -301 2parameterOSC \$1T5 \$4 9 1 5000 \$2 9 \$3 0 0 \$1L5
\$4 10 1 4095 \$2 10 \$3;
#X obj 401 -301 2parameterOSC \$1T6 \$4 11 1 5000 \$2 11 \$3 0 0 \$1L6
\$4 12 1 4095 \$2 12 \$3;
#X text 481 -381 \$1 name \$2tablename \$3 \$0parent \$4 pagestart
\$5 pageend;
#X obj 142 -347 table \$2 32;
#X text 16 -356 table 0 IL 1 T1 2 L1 3 T2 4 L2 5 T3 6 L3 7 T4 8 L4
9 T5 10 L5 11 T6 12 L6 13 R 14 LS 15 LE 16 LR 17 RL 18 Tn 19 kT 20
kV 21 Vs 22 vl, f 5;
#X text 262 -15 \$11name \$12pageno \$13encoderno \$14min \$15max \$16tablepname
\$17tableno \$0 \$19pagelink \$20encoderlink;
#X obj 504 -301 paramnum3OSC \$1LpS \$4 15 0 6 \$2 15 \$3 \$5 9;
#X obj 504 -278 paramnum3OSC \$1LpE \$4 16 0 6 \$2 16 \$3 \$5 10;
#X obj 504 -255 paramnum3OSC \$1LpR \$4 17 0 1 \$2 17 \$3 \$5 10;
#X obj 538 -295 paramnum3OSC Tun-\$1 \$4 18 0 16 \$2 18 \$3;
#X obj 538 -272 paramnum3OSC ktT-\$1 \$4 19 -1024 1024 \$2 19 \$3;
#X obj 571 -301 paramnum3OSC ktV-\$1 \$4 20 -1024 1024 \$2 20 \$3;
#X obj 571 -278 paramnum3OSC Vel-\$1 \$4 21 0 1000 \$2 21 \$3;
#X obj 571 -254 paramnum3OSC Lev-\$1 \$4 22 0 127 \$2 22 \$3;
#X obj 69 -299 paramnumOSC \$1init \$4 0 1 4095 \$2 0 \$3 \$4 1;
#X obj 452 -301 2parameterOSC \$1RT \$4 13 1 5000 \$2 13 \$3 \$5 8
\$1RL \$4 14 1 4095 \$2 14 \$3;
#X connect 1 0 4 0;
#X connect 4 0 0 0;
#X connect 5 0 2 0;
#X connect 5 0 3 0;
#X connect 6 0 2 0;
#X connect 6 0 3 0;
#X connect 7 0 2 0;
#X connect 7 0 3 0;
#X connect 8 0 2 0;
#X connect 8 0 3 0;
#X connect 9 0 2 0;
#X connect 9 0 3 0;
#X connect 10 0 2 0;
#X connect 10 0 3 0;
#X connect 15 0 2 0;
#X connect 15 0 3 0;
#X connect 16 0 2 0;
#X connect 16 0 3 0;
#X connect 17 0 2 0;
#X connect 17 0 3 0;
#X connect 18 0 2 0;
#X connect 18 0 3 0;
#X connect 19 0 2 0;
#X connect 19 0 3 0;
#X connect 20 0 2 0;
#X connect 20 0 3 0;
#X connect 21 0 2 0;
#X connect 21 0 3 0;
#X connect 23 0 2 0;
#X connect 23 0 3 0;
#X connect 24 0 2 0;
#X connect 24 0 3 0;
#X coords 0 -1 1 1 549 84 2 62 -305;
