#N canvas 362 25 947 981 10;
#X msg 224 -146 0, f 4;
#X msg 225 -103 \$1 0;
#X msg 315 -178 \$1 \$2;
#X obj 314 -203 pack;
#X obj 296 -308 delay;
#X obj 213 -633 f;
#X obj 269 -637 + 2;
#X obj 214 -611 sel 11;
#X obj 306 -491 + 1;
#X obj 302 -516 t f f;
#X obj 299 -331 t b;
#X msg 76 -143 13;
#X obj 260 -749 f, f 2;
#X msg 261 -777 1;
#X obj 391 -687 i;
#X obj 391 -707 * 5;
#X obj 501 -716 i;
#X obj 501 -736 * 5;
#X obj 504 -668 + 1;
#X obj 504 -695 * 2;
#X obj 393 -631 + 1;
#X obj 393 -658 * 2;
#X msg 335 -307 0;
#X obj 375 -377 inv;
#X obj 386 -729 sel 0;
#X obj 425 -730 > 0;
#X obj 189 -861 inlet;
#X obj 211 -829 sel 0;
#X obj 228 76 outlet;
#X msg 266 -7 stop;
#X obj 268 -34 r resetpoly;
#X obj 500 -755 tabread \$1;
#X obj 224 -123 tabread \$1;
#X obj 387 -755 tabread \$1;
#X obj 308 -464 tabread \$1;
#X obj 347 -443 tabread \$1;
#X obj 76 -120 tabread \$1;
#X obj 74 -98 * \$2;
#X text 369 -855 \$1 tabname \$2ratemultiplier \$3outputmultiplier
\$4 linerate(ms);
#X obj 228 11 line 0 \$4;
#X obj 230 51 * \$3;
#X obj 345 -422 * \$2;
#X text 300 29 linerate;
#X obj 144 -766 r resetpoly;
#X msg 144 -742 0;
#X msg 108 -742 1;
#X obj 239 -670 t b;
#X floatatom 173 -633 5 0 0 0 - - -, f 5;
#X obj 97 -711 tgl 15 0 empty empty empty 17 7 0 10 -262144 -1 -1 0
1;
#X text 262 50 output multiplier;
#X text 106 -100 rate multiplier;
#X text 106 -73 release;
#X obj 239 -806 t b b b b;
#X text 260 -102 initial level;
#X text 426 -780 loop start;
#X text 535 -778 loop end;
#X obj 302 -248 bng 15 250 50 0 empty empty empty 17 7 0 10 -262144
-1 -1;
#X obj 301 -278 spigot;
#X obj 335 -330 spigot;
#X obj 298 -773 spigot;
#X msg 296 -357 stop;
#X obj 131 -822 s \$0noteoff;
#X obj 260 -437 r \$0noteoff;
#X obj 137 -797 r \$0noteoff;
#X obj 108 -684 s \$0notestatus;
#X obj 369 -307 r \$0notestatus;
#X obj 79 -233 r \$0noteoff;
#X obj 216 -585 s \$0loopend;
#X obj 335 -355 r \$0loopend;
#X obj 374 -403 r \$0loopon;
#X obj 421 -693 s \$0loopon;
#X obj 303 -804 r \$0loopend;
#X obj 341 -249 s \$0looptrig;
#X obj 241 -703 r \$0looptrig;
#X obj 324 -746 s \$0init;
#X obj 502 -812 r \$0init;
#X obj 72 -765 r \$0init;
#X obj 223 -191 r \$0init;
#X obj 159 -164 bng 15 250 50 0 empty empty empty 17 7 0 10 -262144
-1 -1;
#X msg 130 -145 stop;
#X obj 167 2 f;
#X obj 78 -172 t b b b;
#X obj 1 -122 tabread \$1;
#X obj 24 -41 pack;
#X msg 71 -51 \$2 \$1;
#X obj 272 -386 spigot;
#X obj 80 -199 spigot;
#X obj 165 -338 tabread \$1;
#X obj 161 -285 == 0;
#X obj 91 -539 spigot;
#X msg 1 -145 14;
#X text 41 -499 table 0 IL 1 T1 2 L1 3 T2 4 L2 5 T3 6 L3 7 T4 8 L4
9 T5 10 L5 11 T6 12 L6 13 R 14 Rl 15 Ls 16 le 17 lr 18tun 19 kt 20
kv 21vel 22 vl, f 5;
#X msg 170 -371 17;
#X msg 393 -779 15, f 4;
#X msg 500 -778 16, f 4;
#X connect 0 0 32 0;
#X connect 1 0 39 0;
#X connect 2 0 39 0;
#X connect 3 0 2 0;
#X connect 4 0 57 0;
#X connect 5 0 6 0;
#X connect 5 0 7 0;
#X connect 5 0 9 0;
#X connect 5 0 47 0;
#X connect 6 0 5 1;
#X connect 7 0 67 0;
#X connect 8 0 34 0;
#X connect 9 0 8 0;
#X connect 9 0 10 0;
#X connect 9 1 35 0;
#X connect 10 0 4 0;
#X connect 11 0 36 0;
#X connect 12 0 5 1;
#X connect 13 0 12 0;
#X connect 14 0 21 0;
#X connect 15 0 14 0;
#X connect 16 0 19 0;
#X connect 17 0 16 0;
#X connect 18 0 7 1;
#X connect 19 0 18 0;
#X connect 20 0 12 1;
#X connect 21 0 20 0;
#X connect 22 0 57 1;
#X connect 23 0 58 1;
#X connect 24 1 15 0;
#X connect 25 0 59 1;
#X connect 25 0 70 0;
#X connect 26 0 27 0;
#X connect 27 0 61 0;
#X connect 27 1 52 0;
#X connect 29 0 39 0;
#X connect 30 0 29 0;
#X connect 31 0 17 0;
#X connect 32 0 1 0;
#X connect 33 0 24 0;
#X connect 33 0 25 0;
#X connect 34 0 3 0;
#X connect 35 0 41 0;
#X connect 36 0 37 0;
#X connect 37 0 83 0;
#X connect 39 0 40 0;
#X connect 39 0 80 1;
#X connect 40 0 28 0;
#X connect 41 0 4 1;
#X connect 41 0 3 1;
#X connect 43 0 44 0;
#X connect 44 0 48 0;
#X connect 44 0 64 0;
#X connect 45 0 48 0;
#X connect 45 0 64 0;
#X connect 46 0 5 0;
#X connect 52 0 46 0;
#X connect 52 0 93 0;
#X connect 52 1 13 0;
#X connect 52 3 74 0;
#X connect 52 3 92 0;
#X connect 57 0 56 0;
#X connect 57 0 72 0;
#X connect 58 0 22 0;
#X connect 59 0 12 0;
#X connect 60 0 4 0;
#X connect 62 0 85 0;
#X connect 63 0 89 0;
#X connect 65 0 57 1;
#X connect 66 0 78 0;
#X connect 66 0 86 0;
#X connect 68 0 58 0;
#X connect 69 0 23 0;
#X connect 71 0 59 0;
#X connect 73 0 46 0;
#X connect 75 0 94 0;
#X connect 76 0 45 0;
#X connect 77 0 0 0;
#X connect 79 0 39 0;
#X connect 80 0 39 0;
#X connect 81 0 11 0;
#X connect 81 1 80 0;
#X connect 81 1 90 0;
#X connect 81 2 79 0;
#X connect 82 0 83 1;
#X connect 83 0 84 0;
#X connect 84 0 39 0;
#X connect 85 0 60 0;
#X connect 86 0 81 0;
#X connect 87 0 88 0;
#X connect 88 0 86 1;
#X connect 88 0 85 1;
#X connect 88 0 89 1;
#X connect 89 0 44 0;
#X connect 90 0 82 0;
#X connect 92 0 87 0;
#X connect 93 0 33 0;
#X connect 94 0 31 0;
