#N canvas 836 481 505 407 10;
#X obj 369 264 table \$2 20;
#X obj 69 45 parameter \$1-1 100 100 0 1000 \$2 0 \$3;
#X obj 109 45 parameter \$1-2 100 100 0 1000 \$2 1 \$3;
#X obj 149 45 parameter \$1-3 100 100 0 1000 \$2 2 \$3;
#X obj 189 45 parameter \$1-4 100 100 0 1000 \$2 3 \$3;
#X obj 229 45 parameter \$1-5 100 100 0 1000 \$2 4 \$3;
#X obj 269 45 parameter \$1-6 100 100 0 1000 \$2 5 \$3;
#X obj 75 303 s volop1;
#X obj 102 325 s volop2;
#X obj 139 299 s volop3;
#X obj 166 321 s volop4;
#X obj 214 296 s volop5;
#X obj 241 320 s volop6;
#X connect 1 1 7 0;
#X connect 2 1 8 0;
#X connect 3 1 9 0;
#X connect 4 1 10 0;
#X connect 5 1 11 0;
#X connect 6 1 12 0;
#X coords 0 -1 1 1 241 203 2 68 44;
