#N canvas 538 517 705 446 10;
#X obj 394 120 table \$2 20;
#X obj 365 227 s osc2pitch;
#X obj 356 192 s osc1pitch;
#X obj 439 191 s osc3pitch;
#X obj 448 227 s osc4pitch;
#X obj 521 191 s osc5pitch;
#X obj 530 226 s osc6pitch;
#X obj 74 303 s osc1track;
#X obj 83 338 s osc2track;
#X obj 157 302 s osc3track;
#X obj 166 338 s osc4track;
#X obj 239 302 s osc5track;
#X obj 248 337 s osc6track;
#X obj 70 46 paramnum3 key-1 100 100 -1024 1024 \$2 0 \$3;
#X obj 150 46 paramnum3 key-3 100 100 -1024 1024 \$2 0 \$3;
#X obj 111 46 paramnum3 key-2 100 100 -1024 1024 \$2 0 \$3;
#X obj 189 46 paramnum3 key-4 100 100 -1024 1024 \$2 0 \$3;
#X obj 230 46 paramnum3 key-5 100 100 -1024 1024 \$2 0 \$3;
#X obj 269 46 paramnum3 key-6 100 100 -1024 1024 \$2 0 \$3;
#X obj 69 78 paramnum3 \$1-1 100 100 0 16 \$2 0 \$3;
#X obj 109 78 paramnum3 \$1-2 100 100 0 16 \$2 2 \$3;
#X obj 149 78 paramnum3 \$1-3 100 100 0 16 \$2 3 \$3;
#X obj 189 78 paramnum3 \$1-4 100 100 0 16 \$2 4 \$3;
#X obj 230 78 paramnum3 \$1-5 100 100 0 16 \$2 5 \$3;
#X obj 270 78 paramnum3 \$1-6 100 100 0 16 \$2 6 \$3;
#X connect 13 1 7 0;
#X connect 14 1 9 0;
#X connect 15 1 8 0;
#X connect 16 1 10 0;
#X connect 17 1 11 0;
#X connect 18 1 12 0;
#X connect 19 0 2 0;
#X connect 20 0 1 0;
#X connect 21 0 3 0;
#X connect 22 0 4 0;
#X connect 23 0 5 0;
#X connect 24 0 6 0;
#X coords 0 -1 1 1 239 66 2 68 44;
