#N canvas 140 225 1363 744 10;
#X obj 91 128 s \$1-r1c1;
#X obj 91 175 s \$1-r2c1;
#X obj 91 222 s \$1-r3c1;
#X obj 91 269 s \$1-r4c1;
#X obj 91 316 s \$1-r5c1;
#X obj 91 363 s \$1-r6c1;
#X obj 195 363 s \$1-r6c2;
#X obj 195 316 s \$1-r5c2;
#X obj 195 269 s \$1-r4c2;
#X obj 195 222 s \$1-r3c2;
#X obj 195 175 s \$1-r2c2;
#X obj 195 128 s \$1-r1c2;
#X obj 301 128 s \$1-r1c3;
#X obj 301 175 s \$1-r2c3;
#X obj 301 222 s \$1-r3c3;
#X obj 301 269 s \$1-r4c3;
#X obj 301 316 s \$1-r5c3;
#X obj 301 363 s \$1-r6c3;
#X obj 409 127 s \$1-r1c4;
#X obj 409 174 s \$1-r2c4;
#X obj 409 221 s \$1-r3c4;
#X obj 409 268 s \$1-r4c4;
#X obj 409 315 s \$1-r5c4;
#X obj 409 362 s \$1-r6c4;
#X obj 519 128 s \$1-r1c5;
#X obj 519 175 s \$1-r2c5;
#X obj 519 222 s \$1-r3c5;
#X obj 519 269 s \$1-r4c5;
#X obj 519 316 s \$1-r5c5;
#X obj 519 363 s \$1-r6c5;
#X obj 631 128 s \$1-r1c6;
#X obj 631 175 s \$1-r2c6;
#X obj 631 222 s \$1-r3c6;
#X obj 631 269 s \$1-r4c6;
#X obj 631 316 s \$1-r5c6;
#X obj 631 363 s \$1-r6c6;
#X obj 129 -130 paramnum 2-1 100 100 0 100000 matrix 1 \$3;
#X obj 129 -104 paramnum 3-1 100 100 0 100000 matrix 2 \$3;
#X obj 129 -78 paramnum 4-1 100 100 0 100000 matrix 3 \$3;
#X obj 129 -52 paramnum 5-1 100 100 0 100000 matrix 4 \$3;
#X obj 129 -26 paramnum 6-1 100 100 0 100000 matrix 5 \$3;
#X obj 182 -156 paramnum 1-2 100 100 0 100000 matrix 6 \$3;
#X obj 182 -130 paramnum 2-2 100 100 0 100000 matrix 7 \$3;
#X obj 182 -104 paramnum 3-2 100 100 0 100000 matrix 8 \$3;
#X obj 182 -78 paramnum 4-2 100 100 0 100000 matrix 9 \$3;
#X obj 182 -52 paramnum 5-2 100 100 0 100000 matrix 10 \$3;
#X obj 183 -26 paramnum 6-2 100 100 0 100000 matrix 11 \$3;
#X obj 235 -156 paramnum 1-3 100 100 0 100000 matrix 12 \$3;
#X obj 235 -130 paramnum 2-3 100 100 0 100000 matrix 13 \$3;
#X obj 235 -104 paramnum 3-3 100 100 0 100000 matrix 14 \$3;
#X obj 235 -78 paramnum 4-3 100 100 0 100000 matrix 15 \$3;
#X obj 235 -52 paramnum 5-3 100 100 0 100000 matrix 16 \$3;
#X obj 236 -26 paramnum 6-3 100 100 0 100000 matrix 17 \$3;
#X obj 289 -156 paramnum 1-4 100 100 0 100000 matrix 18 \$3;
#X obj 289 -130 paramnum 2-4 100 100 0 100000 matrix 19 \$3;
#X obj 289 -104 paramnum 3-4 100 100 0 100000 matrix 20 \$3;
#X obj 289 -78 paramnum 4-4 100 100 0 100000 matrix 21 \$3;
#X obj 289 -52 paramnum 5-4 100 100 0 100000 matrix 22 \$3;
#X obj 290 -26 paramnum 6-4 100 100 0 100000 matrix 23 \$3;
#X obj 343 -156 paramnum 1-5 100 100 0 100000 matrix 24 \$3;
#X obj 343 -130 paramnum 2-5 100 100 0 100000 matrix 25 \$3;
#X obj 343 -104 paramnum 3-5 100 100 0 100000 matrix 26 \$3;
#X obj 343 -78 paramnum 4-5 100 100 0 100000 matrix 27 \$3;
#X obj 343 -52 paramnum 5-5 100 100 0 100000 matrix 28 \$3;
#X obj 344 -26 paramnum 6-5 100 100 0 100000 matrix 29 \$3;
#X obj 397 -156 paramnum 1-6 100 100 0 100000 matrix 30 \$3;
#X obj 397 -130 paramnum 2-6 100 100 0 100000 matrix 31 \$3;
#X obj 397 -104 paramnum 3-6 100 100 0 100000 matrix 32 \$3;
#X obj 397 -78 paramnum 4-6 100 100 0 100000 matrix 33 \$3;
#X obj 397 -52 paramnum 5-6 100 100 0 100000 matrix 34 \$3;
#X obj 397 -26 paramnum 6-6 100 100 0 100000 matrix 35 \$3;
#X floatatom 552 -232 5 0 0 0 - - -, f 5;
#X obj 681 91 table \$2 64;
#X obj 129 -156 paramnum 1-1 100 100 0 100000 matrix 36 \$3;
#X connect 36 1 1 0;
#X connect 37 1 2 0;
#X connect 38 1 3 0;
#X connect 39 1 4 0;
#X connect 40 1 5 0;
#X connect 41 1 11 0;
#X connect 42 1 10 0;
#X connect 43 1 9 0;
#X connect 44 1 8 0;
#X connect 45 1 7 0;
#X connect 46 1 6 0;
#X connect 47 1 12 0;
#X connect 48 1 13 0;
#X connect 49 1 14 0;
#X connect 50 1 15 0;
#X connect 51 1 16 0;
#X connect 52 1 17 0;
#X connect 53 1 18 0;
#X connect 54 1 19 0;
#X connect 55 1 20 0;
#X connect 56 1 21 0;
#X connect 57 1 22 0;
#X connect 58 1 23 0;
#X connect 59 1 24 0;
#X connect 60 1 25 0;
#X connect 61 1 26 0;
#X connect 62 1 27 0;
#X connect 63 1 28 0;
#X connect 64 1 29 0;
#X connect 65 1 30 0;
#X connect 66 1 31 0;
#X connect 67 1 32 0;
#X connect 68 1 33 0;
#X connect 69 1 34 0;
#X connect 70 1 35 0;
#X connect 73 1 0 0;
#X coords 0 -1 1 1 322 157 2 129 -157;
