#N canvas 209 42 1662 973 10;
#X obj 420 -65 inlet;
#X obj 558 892 outlet~;
#X obj 420 -14 mtof;
#X obj 406 99 line~, f 8;
#X msg 409 71 \$1 \$2;
#X obj 409 51 pack;
#X obj 429 29 r porta;
#X obj 419 -40 unpack 0 0, f 11;
#X obj 726 177 outlet;
#X obj 725 154 i;
#X obj 456 51 r resetpoly;
#X msg 456 73 stop;
#X obj 426 157 *~;
#X floatatom 458 151 5 0 0 0 - - -, f 5;
#X obj 55 171 osc~ 0.03;
#X floatatom 17 141 5 0 0 0 - - -, f 5;
#X obj 164 197 line 0 5;
#X obj 61 204 *~;
#X obj 407 210 +~;
#X obj 56 120 r \$1-lfo11.s;
#X obj 146 91 sel 0;
#X obj 175 119 t b b;
#X msg 197 168 0 0;
#X obj 189 49 r \$1-lfo13.s;
#X floatatom 189 71 5 0 0 0 - - -, f 5;
#X obj 186 100 * 2000;
#X obj 467 105 r \$1-lfo14.s;
#X obj 56 142 * 50;
#X obj 161 145 delay;
#X msg 158 168 1 100;
#X obj 1233 128 *~;
#X floatatom 1279 -5 5 0 0 0 - - -, f 5;
#X obj 853 160 *~;
#X floatatom 888 144 5 0 0 0 - - -, f 5;
#X obj 366 353 r matrix-r1c1;
#X obj 351 376 *~;
#X obj 369 400 r matrix-r2c1;
#X obj 354 423 *~;
#X obj 370 450 r matrix-r3c1;
#X obj 355 473 *~;
#X obj 373 497 r matrix-r4c1;
#X obj 360 517 *~;
#X obj 374 552 r matrix-r5c1;
#X obj 359 575 *~;
#X obj 377 599 r matrix-r6c1;
#X obj 362 622 *~;
#X obj 540 353 r matrix-r1c2;
#X obj 525 376 *~;
#X obj 543 400 r matrix-r2c2;
#X obj 528 423 *~;
#X obj 543 451 r matrix-r3c2;
#X obj 529 473 *~, f 1;
#X obj 547 497 r matrix-r4c2;
#X obj 534 517 *~;
#X obj 548 552 r matrix-r5c2;
#X obj 533 575 *~;
#X obj 551 599 r matrix-r6c2;
#X obj 536 622 *~;
#X obj 746 351 r matrix-r1c3;
#X obj 731 374 *~;
#X obj 749 398 r matrix-r2c3;
#X obj 734 421 *~;
#X obj 750 448 r matrix-r3c3;
#X obj 735 471 *~;
#X obj 753 495 r matrix-r4c3;
#X obj 740 517 *~;
#X obj 754 550 r matrix-r5c3;
#X obj 739 573 *~;
#X obj 757 597 r matrix-r6c3;
#X obj 742 620 *~;
#X obj 960 339 r matrix-r1c4;
#X obj 945 362 *~;
#X obj 963 386 r matrix-r2c4;
#X obj 948 409 *~;
#X obj 964 436 r matrix-r3c4;
#X obj 949 459 *~;
#X obj 967 483 r matrix-r4c4;
#X obj 954 517 *~;
#X obj 968 538 r matrix-r5c4;
#X obj 953 561 *~;
#X obj 971 585 r matrix-r6c4;
#X obj 956 608 *~;
#X obj 1134 339 r matrix-r1c5;
#X obj 1119 362 *~;
#X obj 1137 386 r matrix-r2c5;
#X obj 1122 409 *~;
#X obj 1138 436 r matrix-r3c5;
#X obj 1123 459 *~;
#X obj 1141 483 r matrix-r4c5;
#X obj 1128 517 *~;
#X obj 1142 538 r matrix-r5c5;
#X obj 1127 561 *~;
#X obj 1145 585 r matrix-r6c5;
#X obj 1130 608 *~;
#X obj 1340 337 r matrix-r1c6;
#X obj 1325 360 *~;
#X obj 1343 384 r matrix-r2c6;
#X obj 1328 407 *~;
#X obj 1344 434 r matrix-r3c6;
#X obj 1329 457 *~;
#X obj 1347 481 r matrix-r4c6;
#X obj 1334 517 *~;
#X obj 1348 536 r matrix-r5c6;
#X obj 1333 559 *~;
#X obj 1351 583 r matrix-r6c6;
#X obj 1336 606 *~;
#X obj 1540 366 s~ \$0-mod1;
#X obj 1536 415 s~ \$0-mod2;
#X obj 1537 459 s~ \$0-mod3;
#X obj 1537 495 s~ \$0-mod4;
#X obj 1533 537 s~ \$0-mod5;
#X obj 1536 592 s~ \$0-mod6;
#X obj 334 774 *~;
#X obj 539 774 *~;
#X obj 747 774 *~;
#X obj 952 774 *~;
#X obj 1140 774 *~;
#X obj 1345 774 *~;
#X obj 503 -53 s \$0vel;
#X obj 322 276 *~ 1;
#X obj 526 276 *~ 1;
#X obj 747 276 *~ 1;
#X obj 947 276 *~ 1;
#X obj 1152 276 *~ 1;
#X obj 1352 276 *~ 1;
#X obj 395 12 * 1;
#X obj 353 752 r \$1-6stage1Op22.s;
#X obj 1024 198 outlet;
#X obj 558 752 r \$1-6stage2Op22.s;
#X obj 766 752 r \$1-6stage3Op22.s;
#X obj 972 752 r \$1-6stage4Op22.s;
#X obj 1159 752 r \$1-6stage5Op22.s;
#X obj 1364 752 r \$1-6stage6Op22.s;
#X text 86 478 table 0 IL 1 T1 2 L1 3 T2 4 L2 5 T3 6 L3 7 T4 8 L4 9
T5 10 L5 11 T6 12 L6 13 R 14 LS 15 LE 16 LR 17 RL 18 Tn 19 kT 20 kV
21 Vs 22 vl, f 5;
#X obj 737 2 *;
#X obj 775 -101 tabread curve;
#X obj 784 -12 *;
#X obj 771 -59 sel 0;
#X msg 811 -37 1;
#X obj 809 -60 loadbang;
#X obj 756 -168 sel 0;
#X obj 734 -208 t f f;
#X obj 735 -236 r \$0vel;
#X obj 726 -141 6op-Envelope 6stagefilt 5000 4095 2;
#X obj 1032 171 i;
#X obj 1037 -40 tabread curve;
#X obj 1150 24 *;
#X obj 1030 15 sel 0;
#X msg 1085 40 1;
#X obj 1083 13 loadbang;
#X obj 1019 -96 sel 0;
#X obj 992 -121 t f f;
#X obj 997 -168 r \$0vel;
#X obj 993 -66 6op-Envelope 6stageamp 5000 4095 2;
#X obj 771 -80 r \$1-6stagefilt21.s;
#X obj 1031 -14 r \$1-6stageamp21.s;
#X obj 782 18 r \$1-6stagefilt18.s;
#X obj 1035 127 * 1;
#X obj 813 59 r \$1-6stagefilt19.s;
#X obj 786 103 * 1;
#X obj 763 74 / 127;
#X obj 722 81 +;
#X text 874 80 keytrack;
#X text 904 19 tune;
#X text 900 -79 velsense;
#X obj 738 42 +;
#X obj 782 40 * 4095;
#X obj 1003 76 * 1;
#X obj 1057 99 r \$1-6stageamp22.s;
#X obj 559 863 *~ 1;
#X obj 321 245 1op \$0 1 \$1;
#X obj 528 245 1op \$0 2 \$1;
#X obj 746 245 1op \$0 3 \$1;
#X obj 948 245 1op \$0 4 \$1;
#X obj 1142 245 1op \$0 5 \$1;
#X obj 1354 245 1op \$0 6 \$1;
#X obj 358 -42 s \$0note;
#X obj 405 121 phasor~;
#X text 14 118 rate;
#X text 279 48 delay;
#X text 256 253 pmod;
#X obj 1245 162 snapshot~;
#X obj 1325 152 metro 2;
#X obj 1332 126 tgl 15 0 empty empty empty 17 7 0 10 -262144 -1 -1
1 1;
#X obj 1325 102 loadbang;
#X obj 1043 149 +;
#X obj 729 120 +;
#X obj 854 195 snapshot~;
#X obj 134 43 r \$0vel;
#X obj 467 127 * 5;
#X obj 459 194 *~;
#X obj 598 57 r \$0note;
#X obj 603 157 log;
#X floatatom 603 179 5 0 0 0 - - -, f 5;
#X obj 600 114 / 1;
#X floatatom 754 153 5 0 0 0 - - -, f 5;
#X obj 61 311 throw~ \$0lfo1s;
#X obj 300 127 catch~ \$0lfo1s;
#X floatatom 1085 178 5 0 0 0 - - -, f 5;
#X floatatom 1139 76 5 0 0 0 - - -, f 5;
#X text 929 127 fmod;
#X text 1372 -58 amod;
#X obj 894 108 r \$1-lfo15.s;
#X obj 1282 -85 r \$1-lfo16.s;
#X obj 1139 54 /;
#X obj 1289 -34 * 2047;
#X obj 894 130 * 2047;
#X obj 614 803 * 10;
#X obj 601 781 r mastervol;
#X obj 598 79 + 10;
#X obj 818 -13 / 127;
#X obj 1293 -65 sel 0;
#X connect 0 0 7 0;
#X connect 2 0 125 0;
#X connect 3 0 177 0;
#X connect 4 0 3 0;
#X connect 5 0 4 0;
#X connect 6 0 5 1;
#X connect 7 0 2 0;
#X connect 7 0 160 0;
#X connect 7 0 176 0;
#X connect 7 1 118 0;
#X connect 9 0 8 0;
#X connect 9 0 195 0;
#X connect 10 0 11 0;
#X connect 11 0 3 0;
#X connect 12 0 190 0;
#X connect 13 0 12 1;
#X connect 14 0 17 0;
#X connect 16 0 17 1;
#X connect 17 0 196 0;
#X connect 18 0 170 0;
#X connect 18 0 175 0;
#X connect 18 0 174 0;
#X connect 18 0 173 0;
#X connect 18 0 172 0;
#X connect 18 0 171 0;
#X connect 19 0 15 0;
#X connect 19 0 27 0;
#X connect 20 1 21 0;
#X connect 21 0 28 0;
#X connect 21 1 22 0;
#X connect 22 0 16 0;
#X connect 23 0 24 0;
#X connect 23 0 25 0;
#X connect 25 0 28 1;
#X connect 26 0 189 0;
#X connect 27 0 14 0;
#X connect 28 0 29 0;
#X connect 29 0 16 0;
#X connect 30 0 181 0;
#X connect 32 0 187 0;
#X connect 33 0 32 1;
#X connect 34 0 35 1;
#X connect 35 0 106 0;
#X connect 36 0 37 1;
#X connect 37 0 107 0;
#X connect 38 0 39 1;
#X connect 39 0 108 0;
#X connect 40 0 41 1;
#X connect 41 0 109 0;
#X connect 42 0 43 1;
#X connect 43 0 110 0;
#X connect 44 0 45 1;
#X connect 45 0 111 0;
#X connect 46 0 47 1;
#X connect 47 0 106 0;
#X connect 48 0 49 1;
#X connect 49 0 107 0;
#X connect 50 0 51 1;
#X connect 51 0 108 0;
#X connect 52 0 53 1;
#X connect 53 0 109 0;
#X connect 54 0 55 1;
#X connect 55 0 110 0;
#X connect 56 0 57 1;
#X connect 57 0 111 0;
#X connect 58 0 59 1;
#X connect 59 0 106 0;
#X connect 60 0 61 1;
#X connect 61 0 107 0;
#X connect 62 0 63 1;
#X connect 63 0 108 0;
#X connect 64 0 65 1;
#X connect 65 0 109 0;
#X connect 66 0 67 1;
#X connect 67 0 110 0;
#X connect 68 0 69 1;
#X connect 69 0 111 0;
#X connect 70 0 71 1;
#X connect 71 0 106 0;
#X connect 72 0 73 1;
#X connect 73 0 107 0;
#X connect 74 0 75 1;
#X connect 75 0 108 0;
#X connect 76 0 77 1;
#X connect 77 0 109 0;
#X connect 78 0 79 1;
#X connect 79 0 110 0;
#X connect 80 0 81 1;
#X connect 81 0 111 0;
#X connect 82 0 83 1;
#X connect 83 0 106 0;
#X connect 84 0 85 1;
#X connect 85 0 107 0;
#X connect 86 0 87 1;
#X connect 87 0 108 0;
#X connect 88 0 89 1;
#X connect 89 0 109 0;
#X connect 90 0 91 1;
#X connect 91 0 110 0;
#X connect 92 0 93 1;
#X connect 93 0 111 0;
#X connect 94 0 95 1;
#X connect 95 0 106 0;
#X connect 96 0 97 1;
#X connect 97 0 107 0;
#X connect 98 0 99 1;
#X connect 99 0 108 0;
#X connect 100 0 101 1;
#X connect 101 0 109 0;
#X connect 102 0 103 1;
#X connect 103 0 110 0;
#X connect 104 0 105 1;
#X connect 105 0 111 0;
#X connect 112 0 169 0;
#X connect 113 0 169 0;
#X connect 114 0 169 0;
#X connect 115 0 169 0;
#X connect 116 0 169 0;
#X connect 117 0 169 0;
#X connect 119 0 35 0;
#X connect 119 0 45 0;
#X connect 119 0 43 0;
#X connect 119 0 41 0;
#X connect 119 0 39 0;
#X connect 119 0 37 0;
#X connect 119 0 112 0;
#X connect 120 0 47 0;
#X connect 120 0 57 0;
#X connect 120 0 55 0;
#X connect 120 0 53 0;
#X connect 120 0 51 0;
#X connect 120 0 49 0;
#X connect 120 0 113 0;
#X connect 121 0 59 0;
#X connect 121 0 69 0;
#X connect 121 0 67 0;
#X connect 121 0 65 0;
#X connect 121 0 63 0;
#X connect 121 0 61 0;
#X connect 121 0 114 0;
#X connect 122 0 71 0;
#X connect 122 0 81 0;
#X connect 122 0 79 0;
#X connect 122 0 77 0;
#X connect 122 0 75 0;
#X connect 122 0 73 0;
#X connect 122 0 115 0;
#X connect 123 0 83 0;
#X connect 123 0 93 0;
#X connect 123 0 91 0;
#X connect 123 0 89 0;
#X connect 123 0 87 0;
#X connect 123 0 85 0;
#X connect 123 0 116 0;
#X connect 124 0 95 0;
#X connect 124 0 105 0;
#X connect 124 0 103 0;
#X connect 124 0 101 0;
#X connect 124 0 99 0;
#X connect 124 0 97 0;
#X connect 124 0 117 0;
#X connect 125 0 5 0;
#X connect 126 0 112 1;
#X connect 128 0 113 1;
#X connect 129 0 114 1;
#X connect 130 0 115 1;
#X connect 131 0 116 1;
#X connect 132 0 117 1;
#X connect 134 0 165 0;
#X connect 135 0 136 0;
#X connect 136 0 210 0;
#X connect 137 0 138 0;
#X connect 137 1 136 1;
#X connect 138 0 136 1;
#X connect 139 0 138 0;
#X connect 140 1 135 0;
#X connect 141 0 143 0;
#X connect 141 1 140 0;
#X connect 142 0 141 0;
#X connect 143 0 134 0;
#X connect 144 0 127 0;
#X connect 144 0 198 0;
#X connect 145 0 146 0;
#X connect 146 0 204 0;
#X connect 147 0 148 0;
#X connect 147 1 146 1;
#X connect 148 0 167 1;
#X connect 149 0 148 0;
#X connect 150 1 145 0;
#X connect 151 0 153 0;
#X connect 151 1 150 0;
#X connect 152 0 151 0;
#X connect 153 0 167 0;
#X connect 154 0 137 0;
#X connect 155 0 147 0;
#X connect 156 0 166 0;
#X connect 157 0 185 0;
#X connect 158 0 159 1;
#X connect 159 0 161 1;
#X connect 160 0 159 0;
#X connect 161 0 186 0;
#X connect 165 0 161 0;
#X connect 166 0 165 1;
#X connect 167 0 157 0;
#X connect 168 0 157 1;
#X connect 169 0 1 0;
#X connect 170 0 119 0;
#X connect 171 0 120 0;
#X connect 172 0 121 0;
#X connect 173 0 122 0;
#X connect 174 0 123 0;
#X connect 175 0 124 0;
#X connect 177 0 18 0;
#X connect 181 0 185 1;
#X connect 182 0 181 0;
#X connect 182 0 187 0;
#X connect 183 0 182 0;
#X connect 184 0 183 0;
#X connect 185 0 144 0;
#X connect 186 0 9 0;
#X connect 187 0 186 1;
#X connect 188 0 20 0;
#X connect 189 0 13 0;
#X connect 190 0 18 1;
#X connect 191 0 209 0;
#X connect 192 0 193 0;
#X connect 192 0 190 1;
#X connect 194 0 192 0;
#X connect 197 0 12 0;
#X connect 197 0 32 0;
#X connect 197 0 30 0;
#X connect 202 0 206 0;
#X connect 203 0 211 0;
#X connect 204 0 199 0;
#X connect 205 0 31 0;
#X connect 205 0 30 1;
#X connect 206 0 33 0;
#X connect 207 0 169 1;
#X connect 208 0 207 0;
#X connect 209 0 194 0;
#X connect 210 0 134 1;
#X connect 211 1 205 0;
#X coords 0 0 1 1 64 180 0;
