#N canvas 735 23 561 493 10;
#X obj 233 290 line;
#X obj 170 78 sel 0;
#X floatatom 234 315 5 0 0 0 - - -, f 5;
#X obj 233 191 tabread 6stageLevels;
#X obj 252 216 tabread 6stageTimes;
#X obj 233 268 pack;
#X obj 236 345 sel;
#X obj 271 162 t f f f;
#X floatatom 138 182 5 0 0 0 - - -, f 5;
#X obj 214 86 t b b;
#X obj 235 130 t f f;
#X msg 237 109 0;
#X obj 137 140 counter 0 7;
#X obj 234 371 bng 15 250 50 0 empty empty empty 17 7 0 10 -262144
-1 -1;
#X obj 139 207 print;
#X obj 235 240 t f f;
#X obj 278 318 sel 6;
#X obj 280 343 f;
#X obj 163 270 spigot;
#X msg 170 103 7;
#X obj 169 55 t f f;
#X obj 310 296 r envloopend;
#X obj 311 275 r envloopstart;
#X obj 80 97 bng 15 250 50 0 empty empty empty 17 7 0 10 -262144 -1
-1;
#X obj 167 23 inlet;
#X obj 177 396 line~;
#X obj 177 425 outlet~;
#X connect 0 0 2 0;
#X connect 0 0 6 0;
#X connect 1 0 12 2;
#X connect 1 0 19 0;
#X connect 1 1 9 0;
#X connect 3 0 15 0;
#X connect 4 0 5 1;
#X connect 5 0 0 0;
#X connect 5 0 25 0;
#X connect 6 0 13 0;
#X connect 6 0 18 0;
#X connect 7 0 3 0;
#X connect 7 1 4 0;
#X connect 7 2 16 0;
#X connect 9 1 11 0;
#X connect 10 0 3 0;
#X connect 10 1 4 0;
#X connect 11 0 10 0;
#X connect 12 0 8 0;
#X connect 12 0 7 0;
#X connect 12 0 14 0;
#X connect 15 0 5 0;
#X connect 15 1 6 1;
#X connect 16 0 17 0;
#X connect 17 0 12 3;
#X connect 18 0 12 0;
#X connect 19 0 7 0;
#X connect 20 0 1 0;
#X connect 20 1 18 1;
#X connect 21 0 16 1;
#X connect 22 0 17 1;
#X connect 23 0 12 0;
#X connect 24 0 20 0;
#X connect 25 0 26 0;
