#N canvas 542 177 1166 685 10;
#N canvas 0 22 450 300 (subpatch) 0;
#X array 6stagefilt 17 float 23 #91fcbe black;
#A 0 0.66206 0.648291 0.765531 0.0344816 0.170378 0.510342 0.644442
0.303445 0.170377 0.413795 0.688885 0.434478 0.214821 0.462064 0.137932
0.413788 0.413788;
#X coords 0 1 17 0 442 145 1;
#X restore 100 135 graph;
#X text 102 138 init;
#X text 133 140 T1;
#X text 238 140 T3;
#X text 291 140 T4;
#X text 342 140 T5;
#X text 391 140 T6;
#X text 160 140 L1, f 1;
#X text 212 140 L2;
#X text 185 140 T2;
#X text 316 140 L4;
#X text 368 140 L5;
#X text 418 140 L6;
#X text 449 140 R;
#X text 464 140 strt;
#X text 496 140 end;
#X text 520 140 vel;
#X text 479 130 loop;
#X obj 900 57 tgl 15 0 empty empty empty 17 7 0 10 -262144 -1 -1 0
1;
#X obj 900 77 sel 0 1;
#X obj 1002 566 line, f 6;
#X obj 998 164 tabread 6stagefilt;
#X obj 921 110 t b b;
#X msg 998 141 0, f 4;
#X floatatom 998 186 5 0 0 0 - - -, f 5;
#X msg 998 207 \$1 0;
#X obj 935 343 tabread 6stagefilt;
#X floatatom 951 593 8 0 0 0 - - -, f 8;
#X msg 907 498 \$1 \$2;
#X obj 896 322 tabread 6stagefilt;
#X floatatom 912 593 5 0 0 0 - - -, f 5;
#X obj 906 473 pack;
#X obj 856 385 delay;
#X obj 885 178 f;
#X obj 921 184 + 2;
#X obj 890 156 bng 15 250 50 0 empty empty empty 17 7 0 10 -262144
-1 -1;
#X floatatom 876 593 5 0 0 0 - - -, f 5;
#X obj 882 212 sel 11;
#X obj 894 295 + 1;
#X obj 890 270 t f f;
#X obj 859 362 t b;
#X obj 837 413 switch;
#X floatatom 1003 593 5 0 0 0 - - -, f 5;
#X obj 711 505 tabread 6stagefilt;
#X floatatom 768 524 5 0 0 0 - - -, f 5;
#X msg 711 482 13;
#X msg 709 551 0 \$1;
#X obj 709 527 * 10000;
#X obj 210 337 tabwrite 6stagefilt;
#X floatatom 209 314 5 0 0 0 - - -, f 5;
#X floatatom 335 324 5 0 0 0 - - -, f 5;
#X obj 447 9 bng 15 250 50 0 empty empty empty 0 -6 0 8 -262144 -1
-1;
#X obj 447 27 savepanel;
#X msg 446 49 \; array99 write \$1;
#X text 284 19 read a text file;
#X msg 283 39 \; array99 read 15.file.txt;
#X text 107 406 renaming an array:;
#X text 106 463 setting the bounds rectangle:;
#X text 105 517 adding x and y labels: give a point to put a tick \,
the interval between ticks \, and the number of ticks overall per large
tick.;
#X text 101 595 adding labels. Give a y value and a bunch of x values
or vice versa:;
#X text 102 661 You can also change x and y range and size in the "properties"
dialog. Note that information about size and ranges is saved \, but
ticks \, labels \, and the actual data are lost between Pd sessions.
;
#X msg 414 322 \; 6stagefilt 0 -1 1 -1 1 -1 1 -1 1 -1;
#X msg 107 426 \; 6stagefilt rename george;
#X msg 108 482 \; 6stagefilt bounds 0 -2 10 2;
#X msg 281 426 \; george rename 6stagefilt;
#X msg 407 376 \; 6stagefilt 3 -0.5 0.5;
#X msg 579 632 \; 6stagefilt xlabel clear;
#X msg 338 484 \; 6stagefilt bounds 0 1 5 0;
#X msg 350 626 \; 6stagefilt ylabel clear;
#X msg 112 559 \; 6stagefilt xticks 1 2 1;
#X text 265 140 L3;
#X msg 298 557 \; 6stagefilt yticks 0 0.05 1;
#X obj 1032 267 tabread 6stagefilt;
#X floatatom 1032 289 5 0 0 0 - - -, f 5;
#X obj 946 247 f, f 2;
#X msg 944 222 1;
#X msg 1032 244 14, f 4;
#X obj 1081 374 i;
#X floatatom 1085 456 5 0 0 0 - - -, f 5;
#X obj 1081 354 * 5;
#X obj 994 34 tabread 6stagefilt;
#X floatatom 994 56 5 0 0 0 - - -, f 5;
#X obj 1045 73 i;
#X floatatom 1051 143 5 0 0 0 - - -, f 5;
#X obj 1045 53 * 5;
#X msg 994 11 15, f 4;
#X obj 1048 121 + 1;
#X obj 1048 94 * 2;
#X obj 1083 430 + 1;
#X obj 1083 403 * 2;
#X obj 933 365 * 2000;
#X obj 755 215 tgl 15 0 empty empty empty 17 7 0 10 -262144 -1 -1 0
1;
#X obj 768 269 gate;
#X obj 722 269 gate;
#X msg 723 293 0;
#X obj 721 245 inv;
#X obj 1070 314 sel 0;
#X obj 1115 297 > 0;
#X connect 18 0 19 0;
#X connect 18 0 41 0;
#X connect 19 0 45 0;
#X connect 19 1 22 0;
#X connect 20 0 42 0;
#X connect 21 0 24 0;
#X connect 21 0 25 0;
#X connect 22 0 35 0;
#X connect 22 0 76 0;
#X connect 22 1 23 0;
#X connect 22 1 75 0;
#X connect 22 1 85 0;
#X connect 23 0 21 0;
#X connect 25 0 20 0;
#X connect 26 0 90 0;
#X connect 28 0 20 0;
#X connect 29 0 30 0;
#X connect 29 0 31 0;
#X connect 31 0 28 0;
#X connect 32 0 41 1;
#X connect 33 0 34 0;
#X connect 33 0 36 0;
#X connect 33 0 37 0;
#X connect 33 0 39 0;
#X connect 34 0 33 1;
#X connect 35 0 33 0;
#X connect 37 0 92 1;
#X connect 37 0 93 1;
#X connect 38 0 29 0;
#X connect 39 0 38 0;
#X connect 39 0 40 0;
#X connect 39 1 26 0;
#X connect 40 0 32 0;
#X connect 41 0 35 0;
#X connect 43 0 47 0;
#X connect 45 0 43 0;
#X connect 46 0 20 0;
#X connect 47 0 46 0;
#X connect 47 0 44 0;
#X connect 47 0 27 0;
#X connect 49 0 48 0;
#X connect 50 0 48 1;
#X connect 51 0 52 0;
#X connect 52 0 53 0;
#X connect 72 0 73 0;
#X connect 72 0 96 0;
#X connect 72 0 97 0;
#X connect 74 0 33 1;
#X connect 75 0 74 0;
#X connect 76 0 72 0;
#X connect 77 0 89 0;
#X connect 79 0 77 0;
#X connect 80 0 81 0;
#X connect 80 0 84 0;
#X connect 82 0 87 0;
#X connect 84 0 82 0;
#X connect 85 0 80 0;
#X connect 86 0 83 0;
#X connect 86 0 37 1;
#X connect 87 0 86 0;
#X connect 88 0 78 0;
#X connect 88 0 74 1;
#X connect 89 0 88 0;
#X connect 90 0 32 1;
#X connect 90 0 31 1;
#X connect 90 0 27 0;
#X connect 91 0 92 0;
#X connect 91 0 95 0;
#X connect 92 0 74 0;
#X connect 93 0 94 0;
#X connect 94 0 41 0;
#X connect 95 0 93 0;
#X connect 96 1 79 0;
#X connect 97 0 91 0;
#X coords 0 -1 1 1 442 180 1 100 100;
