#N canvas 35 57 1825 987 10;
#X obj 578 99 s \$0-6stage1Op0;
#X text 502 67 30 param offset for each op/filter/lfo section;
#X obj 647 14 table mastersy77 240;
#X obj 628 184 tabread mastersy77;
#X floatatom 644 141 5 0 0 0 - - -, f 5;
#X floatatom 631 228 5 0 0 0 - - -, f 5;
#X msg 510 8 \; mastersy77 \$1 \$2;
#X obj 42 28 r \$0-6stagefilt1.s;
#X obj 66 52 r \$0-6stagefilt2.s;
#X obj 88 76 r \$0-6stagefilt3.s;
#X obj 106 100 r \$0-6stagefilt4.s;
#X obj 127 124 r \$0-6stagefilt5.s;
#X obj 153 147 r \$0-6stagefilt6.s;
#X obj 181 167 r \$0-6stagefilt7.s;
#X obj 201 195 r \$0-6stagefilt8.s;
#X obj 225 218 r \$0-6stagefilt9.s;
#X obj 245 241 r \$0-6stagefilt10.s;
#X obj 267 265 r \$0-6stagefilt11.s;
#X obj 296 289 r \$0-6stagefilt12.s;
#X obj 316 311 r \$0-6stagefilt13.s;
#X obj 364 360 r \$0-6stagefilt15.s;
#X obj 385 388 r \$0-6stagefilt16.s;
#X msg 69 122 1;
#X msg 99 168 2;
#X msg 123 212 3;
#X msg 127 260 4;
#X msg 138 307 5;
#X msg 154 357 6;
#X msg 179 402 7;
#X msg 229 458 8;
#X msg 231 514 9;
#X msg 251 571 10;
#X msg 284 626 11;
#X msg 315 680 12;
#X msg 327 736 13;
#X msg 377 780 14;
#X msg 371 845 15;
#X msg 416 918 16;
#X obj 22 57 t f b;
#X floatatom 92 702 5 0 0 0 - - -, f 5;
#X floatatom 36 574 5 0 0 0 - - -, f 5;
#X msg 51 80 0;
#X obj 43 102 t f b;
#X obj 71 147 t f b;
#X obj 98 191 t f b;
#X obj 103 234 t f b;
#X obj 139 280 t f b;
#X obj 153 331 t f b;
#X obj 186 379 t f b;
#X obj 203 429 t f b;
#X obj 238 483 t f b;
#X obj 256 540 t f b;
#X obj 267 596 t f b;
#X obj 298 655 t f b;
#X obj 343 709 t f b;
#X obj 365 757 t f b;
#X obj 393 821 t f b;
#X obj 393 894 t f b;
#N canvas 0 22 450 300 (subpatch) 0;
#X array 6stagefilt 17 float 23 #91fcbe black;
#A 0 0.0132143 0.0473505 0.273571 0.026827 0.177143 0.019893 0.177143
0.0171303 0.132143 0.0231013 0.421429 0.0811131 0.749286 0.566561 0.961039
0.967532 0.954545;
#X coords 0 1 17 0 300 100 1;
#X restore 449 482 graph;
#X text 732 365 init;
#X text 745 365 T1;
#X text 850 365 T3;
#X text 903 365 T4;
#X text 954 365 T5;
#X text 1003 365 T6;
#X text 772 365 L1;
#X text 824 365 L2;
#X text 797 365 T2;
#X text 928 365 L4;
#X text 980 365 L5;
#X text 1030 365 L6;
#X text 1061 365 R;
#X text 1076 365 strt;
#X text 1108 365 end;
#X text 1132 365 vel;
#X text 1091 355 loop;
#X obj 1512 282 tgl 15 0 empty empty empty 17 7 0 10 -262144 -1 -1
0 1;
#X obj 1512 302 sel 0 1;
#X obj 1614 791 line, f 6;
#X obj 1610 389 tabread 6stageOp1;
#X obj 1533 335 t b b;
#X msg 1610 366 0, f 4;
#X floatatom 1610 411 5 0 0 0 - - -, f 5;
#X msg 1610 432 \$1 0;
#X obj 1547 568 tabread 6stageOp1;
#X floatatom 1563 818 8 0 0 0 - - -, f 8;
#X msg 1519 723 \$1 \$2;
#X obj 1508 547 tabread 6stageOp1;
#X floatatom 1524 818 5 0 0 0 - - -, f 5;
#X obj 1518 698 pack;
#X obj 1468 610 delay;
#X obj 1497 403 f;
#X obj 1533 409 + 2;
#X obj 1502 381 bng 15 250 50 0 empty empty empty 17 7 0 10 -262144
-1 -1;
#X floatatom 1488 818 5 0 0 0 - - -, f 5;
#X obj 1494 437 sel 11;
#X obj 1506 520 + 1;
#X obj 1502 495 t f f;
#X obj 1471 587 t b;
#X obj 1449 638 switch;
#X floatatom 1615 818 5 0 0 0 - - -, f 5;
#X obj 1323 730 tabread 6stageOp1;
#X floatatom 1380 749 5 0 0 0 - - -, f 5;
#X msg 1323 707 13;
#X msg 1321 776 0 \$1;
#X obj 1321 752 * 10000;
#X obj 822 562 tabwrite 6stageOp1;
#X floatatom 821 539 5 0 0 0 - - -, f 5;
#X floatatom 947 549 5 0 0 0 - - -, f 5;
#X obj 1059 234 bng 15 250 50 0 empty empty empty 0 -6 0 8 -262144
-1 -1;
#X obj 1059 252 savepanel;
#X msg 1058 274 \; array99 write \$1;
#X text 896 244 read a text file;
#X msg 895 264 \; array99 read 15.file.txt;
#X text 719 631 renaming an array:;
#X text 718 688 setting the bounds rectangle:;
#X text 717 742 adding x and y labels: give a point to put a tick \,
the interval between ticks \, and the number of ticks overall per large
tick.;
#X text 713 820 adding labels. Give a y value and a bunch of x values
or vice versa:;
#X text 714 886 You can also change x and y range and size in the "properties"
dialog. Note that information about size and ranges is saved \, but
ticks \, labels \, and the actual data are lost between Pd sessions.
;
#X msg 1026 547 \; 6stageOp1 0 -1 1 -1 1 -1 1 -1 1 -1;
#X msg 719 651 \; 6stageOp1 rename george;
#X msg 720 707 \; 6stageOp1 bounds 0 -2 10 2;
#X msg 893 651 \; george rename 6stageOp1;
#X msg 1019 601 \; 6stageOp1 3 -0.5 0.5;
#X msg 1191 857 \; 6stageOp1 xlabel clear;
#X msg 950 709 \; 6stageOp1 bounds 0 1 5 0;
#X msg 962 851 \; 6stageOp1 ylabel clear;
#X msg 724 784 \; 6stageOp1 xticks 1 2 1;
#X text 877 365 L3;
#X msg 910 782 \; 6stageOp1 yticks 0 0.05 1;
#X obj 1644 492 tabread 6stageOp1;
#X floatatom 1644 514 5 0 0 0 - - -, f 5;
#X obj 1558 472 f, f 2;
#X msg 1556 447 1;
#X msg 1644 469 14, f 4;
#X obj 1693 599 i;
#X floatatom 1697 681 5 0 0 0 - - -, f 5;
#X obj 1693 579 * 5;
#X obj 1606 259 tabread 6stageOp1;
#X floatatom 1606 281 5 0 0 0 - - -, f 5;
#X obj 1657 298 i;
#X floatatom 1663 368 5 0 0 0 - - -, f 5;
#X obj 1657 278 * 5;
#X msg 1606 236 15, f 4;
#X obj 1660 346 + 1;
#X obj 1660 319 * 2;
#X obj 1695 655 + 1;
#X obj 1695 628 * 2;
#X obj 1545 590 * 2000;
#X obj 1367 440 tgl 15 0 empty empty empty 17 7 0 10 -262144 -1 -1
0 1;
#X obj 1380 494 gate;
#X obj 1334 494 gate;
#X msg 1335 518 0;
#X obj 1333 470 inv;
#X obj 1682 539 sel 0;
#X obj 1727 522 > 0;
#X obj 22 6 r \$0-6stagefilt0.s;
#X obj 52 736 tabwrite 6stagefilt;
#X obj 340 335 r \$0-6stagefilt14.s;
#X text 1746 674 loop start;
#X text 1719 360 loop end;
#X obj 1436 223 s resonance;
#X obj 1438 56 vsl 19 155 40.95 4095 1 0 \$0-resonance.s \$0-resonance.r
empty 0 -9 0 10 -262144 -1 -1 0 1;
#X obj 960 56 vsl 21 155 0.01 1 0 0 \$0-6stagefilt0.s \$0-6stagefilt0.r
empty 0 0 0 4 -216599 -1 -1 50 0;
#X obj 986 56 vsl 21 155 0.01 1 1 0 \$0-6stagefilt1.s \$0-6stagefilt1.r
empty 0 0 0 4 -166658 -1 -1 5200 0;
#X obj 1012 58 vsl 21 155 0.01 1 0 0 \$0-6stagefilt2.s \$0-6stagefilt2.r
empty 0 0 0 4 -216599 -1 -1 4100 0;
#X obj 1039 56 vsl 21 155 0.01 1 1 0 \$0-6stagefilt3.s \$0-6stagefilt3.r
empty 0 0 0 4 -166660 -1 -1 3300 0;
#X obj 1065 56 vsl 21 155 0.01 1 0 0 \$0-6stagefilt4.s \$0-6stagefilt4.r
empty 0 0 0 4 -216599 -1 -1 2600 0;
#X obj 1092 56 vsl 21 155 0.01 1 1 0 \$0-6stagefilt5.s \$0-6stagefilt5.r
empty 0 0 0 4 -166662 -1 -1 2300 0;
#X obj 1118 56 vsl 21 155 0.01 1 0 0 \$0-6stagefilt6.s \$0-6stagefilt6.r
empty 0 0 0 4 -216599 -1 -1 2600 0;
#X obj 1145 56 vsl 21 155 0.01 1 1 0 \$0-6stagefilt7.s \$0-6stagefilt7.r
empty 0 0 0 4 -166664 -1 -1 1800 0;
#X obj 1171 56 vsl 21 155 0.01 1 0 0 \$0-6stagefilt8.s \$0-6stagefilt8.r
empty 0 0 0 4 -216599 -1 -1 1900 0;
#X obj 1198 56 vsl 21 155 0.01 1 1 0 \$0-6stagefilt9.s \$0-6stagefilt9.r
empty 0 0 0 4 -166666 -1 -1 2800 0;
#X obj 1224 56 vsl 21 155 0.01 1 0 0 \$0-6stagefilt10.s \$0-6stagefilt10.r
empty 0 0 0 4 -216599 -1 -1 6400 0;
#X obj 1251 56 vsl 21 155 0.01 1 1 0 \$0-6stagefilt11.s \$0-6stagefilt11.r
empty 0 0 0 4 -166668 -1 -1 7000 0;
#X obj 1277 56 vsl 21 155 0.01 1 0 0 \$0-6stagefilt12.s \$0-6stagefilt12.r
empty 0 0 0 4 -216599 -1 -1 11500 0;
#X obj 1304 56 vsl 21 155 0.01 1 1 0 \$0-6stagefilt13.s \$0-6stagefilt13.r
empty 0 0 0 4 -108358 -1 -1 13500 0;
#X obj 1330 56 vsl 21 155 0 1 0 0 \$0-6stagefilt14.s \$0-6stagefilt14.r
empty 0 0 0 4 -166671 -1 -1 0 0;
#X obj 1357 56 vsl 21 155 0 1 0 0 \$0-6stagefilt15.s \$0-6stagefilt15.r
empty 0 0 0 4 -166672 -1 -1 0 0;
#X obj 1383 56 vsl 21 155 0 1 0 0 \$0-6stagefilt16.s \$0-6stagefilt16.r
empty 0 0 0 4 -166673 -1 -1 0 0;
#N canvas 186 311 1121 627 controller 0;
#X obj 996 219 s paramdisp;
#X obj 91 452 s valuedisp;
#X obj 192 -80 unpack;
#X floatatom 187 -56 5 0 0 0 - - -, f 5;
#X floatatom 234 -57 5 0 0 0 - - -, f 5;
#X obj 166 -160 r encoders;
#X obj 973 -121 change;
#X obj 973 -100 sel 1 2 3 4 5 6 7 8 9 10 11 12;
#X obj 135 -26 route 1 2 3 4 5 6 7 8 9 10 11 12;
#X obj 164 -109 t l l;
#X msg 1077 173 Resonance;
#X msg 954 -62 FilterInit;
#X msg 960 -37 FilterT1;
#X msg 970 -17 FilterL1;
#X msg 981 10 FilterT2;
#X msg 991 30 FilterL2;
#X msg 1011 54 FilterT3;
#X msg 1021 74 FilterL3;
#X obj 28 47 f;
#X obj 3 1 t b f;
#X obj 6 47 +;
#X obj 29 25 / 4;
#X obj 8 89 i;
#X obj 8 111 change;
#X obj 50 361 outlet;
#X obj 109 399 outlet;
#X obj 187 400 outlet;
#X obj 271 404 outlet;
#X obj 354 409 outlet;
#X obj 434 415 outlet;
#X obj 502 417 outlet;
#X obj 583 422 outlet;
#X obj 667 427 outlet;
#X obj 753 433 outlet;
#X obj 835 441 outlet;
#X obj 920 460 outlet;
#X obj 109 47 f;
#X obj 84 1 t b f;
#X obj 87 47 +;
#X obj 110 25 / 4;
#X obj 89 89 i;
#X obj 89 113 change;
#X obj 87 68 clip 1 5000;
#X obj 188 48 f;
#X obj 163 2 t b f;
#X obj 166 48 +;
#X obj 189 26 / 4;
#X obj 168 90 i;
#X obj 168 112 change;
#X obj 274 47 f;
#X obj 249 1 t b f;
#X obj 252 47 +;
#X obj 275 25 / 4;
#X obj 254 89 i;
#X obj 254 111 change;
#X obj 252 68 clip 1 5000;
#X obj 355 47 f;
#X obj 330 1 t b f;
#X obj 333 47 +;
#X obj 356 25 / 4;
#X obj 335 89 i;
#X obj 335 111 change;
#X obj 434 48 f;
#X obj 409 2 t b f;
#X obj 412 48 +;
#X obj 435 26 / 4;
#X obj 414 90 i;
#X obj 415 113 change;
#X obj 412 69 clip 1 5000;
#X obj 512 44 f;
#X obj 487 -2 t b f;
#X obj 490 44 +;
#X obj 513 22 / 4;
#X obj 492 86 i;
#X obj 492 108 change;
#X obj 593 44 f;
#X obj 568 -2 t b f;
#X obj 571 44 +;
#X obj 594 22 / 4;
#X obj 573 86 i;
#X obj 573 108 change;
#X obj 571 65 clip 1 5000;
#X obj 672 45 f;
#X obj 647 -1 t b f;
#X obj 650 45 +;
#X obj 673 23 / 4;
#X obj 652 87 i;
#X obj 652 109 change;
#X obj 758 44 f;
#X obj 733 -2 t b f;
#X obj 736 44 +;
#X obj 759 22 / 4;
#X obj 738 86 i;
#X obj 737 110 change;
#X obj 839 44 f;
#X obj 814 -2 t b f;
#X obj 817 44 +;
#X obj 840 22 / 4;
#X obj 819 86 i;
#X obj 814 110 change;
#X obj 918 45 f;
#X obj 893 -1 t b f;
#X obj 896 45 +;
#X obj 919 23 / 4;
#X obj 898 87 i;
#X obj 898 109 change;
#X obj 896 66 clip 1 5000;
#X obj 817 65 clip 0 4095;
#X obj 16 259 i;
#X obj 15 162 t f f f;
#X obj 6 68 clip 0 4095;
#X obj 56 290 / 4095;
#X obj 39 193 mod 34.125;
#X obj 14 235 / 409.5;
#X obj 38 214 / 34.125;
#X obj 18 282 +;
#X obj 162 260 i;
#X obj 161 163 t f f f;
#X obj 202 291 / 4095;
#X obj 185 194 mod 34.125;
#X obj 160 236 / 409.5;
#X obj 184 215 / 34.125;
#X obj 154 290 +;
#X obj 332 261 i;
#X obj 331 164 t f f f;
#X obj 391 294 / 4095;
#X obj 355 195 mod 34.125;
#X obj 330 237 / 409.5;
#X obj 354 216 / 34.125;
#X obj 334 284 +;
#X obj 492 261 i;
#X obj 491 164 t f f f;
#X obj 532 292 / 4095;
#X obj 515 195 mod 34.125;
#X obj 490 237 / 409.5;
#X obj 514 216 / 34.125;
#X obj 494 284 +;
#X obj 166 69 clip 0 4095;
#X obj 333 68 clip 0 4095;
#X obj 491 65 clip 0 4095;
#X floatatom 154 312 5 0 0 0 - - -, f 5;
#X obj 108 144 / 5000;
#X obj 266 145 / 5000;
#X obj 430 146 / 5000;
#X obj 591 149 / 5000;
#X msg 1035 97 Release;
#X msg 1046 117 LoopStart;
#X msg 1058 141 LoopEnd;
#X obj 733 135 / 6;
#X obj 737 65 clip 1 6;
#X obj 650 65 clip 0 5;
#X obj 661 149 / 5;
#X obj 161 -139 route 4;
#X connect 2 0 3 0;
#X connect 2 0 6 0;
#X connect 2 1 4 0;
#X connect 5 0 152 0;
#X connect 6 0 7 0;
#X connect 7 0 11 0;
#X connect 7 1 12 0;
#X connect 7 2 13 0;
#X connect 7 3 14 0;
#X connect 7 4 15 0;
#X connect 7 5 16 0;
#X connect 7 6 17 0;
#X connect 7 7 145 0;
#X connect 7 8 146 0;
#X connect 7 9 147 0;
#X connect 7 10 10 0;
#X connect 8 0 19 0;
#X connect 8 1 37 0;
#X connect 8 2 44 0;
#X connect 8 3 50 0;
#X connect 8 4 57 0;
#X connect 8 5 63 0;
#X connect 8 6 70 0;
#X connect 8 7 76 0;
#X connect 8 8 83 0;
#X connect 8 9 89 0;
#X connect 8 10 95 0;
#X connect 8 11 101 0;
#X connect 9 0 8 0;
#X connect 9 1 2 0;
#X connect 10 0 0 0;
#X connect 11 0 0 0;
#X connect 12 0 0 0;
#X connect 13 0 0 0;
#X connect 14 0 0 0;
#X connect 15 0 0 0;
#X connect 16 0 0 0;
#X connect 17 0 0 0;
#X connect 18 0 20 0;
#X connect 19 0 18 0;
#X connect 19 1 21 0;
#X connect 20 0 110 0;
#X connect 21 0 20 1;
#X connect 22 0 23 0;
#X connect 23 0 109 0;
#X connect 36 0 38 0;
#X connect 37 0 36 0;
#X connect 37 1 39 0;
#X connect 38 0 42 0;
#X connect 39 0 38 1;
#X connect 40 0 41 0;
#X connect 41 0 1 0;
#X connect 41 0 141 0;
#X connect 42 0 36 1;
#X connect 42 0 40 0;
#X connect 43 0 45 0;
#X connect 44 0 43 0;
#X connect 44 1 46 0;
#X connect 45 0 137 0;
#X connect 46 0 45 1;
#X connect 47 0 48 0;
#X connect 48 0 117 0;
#X connect 49 0 51 0;
#X connect 50 0 49 0;
#X connect 50 1 52 0;
#X connect 51 0 55 0;
#X connect 52 0 51 1;
#X connect 53 0 54 0;
#X connect 54 0 1 0;
#X connect 54 0 142 0;
#X connect 55 0 49 1;
#X connect 55 0 53 0;
#X connect 56 0 58 0;
#X connect 57 0 56 0;
#X connect 57 1 59 0;
#X connect 58 0 138 0;
#X connect 59 0 58 1;
#X connect 60 0 61 0;
#X connect 61 0 124 0;
#X connect 62 0 64 0;
#X connect 63 0 62 0;
#X connect 63 1 65 0;
#X connect 64 0 68 0;
#X connect 65 0 64 1;
#X connect 66 0 67 0;
#X connect 67 0 1 0;
#X connect 67 0 143 0;
#X connect 68 0 62 1;
#X connect 68 0 66 0;
#X connect 69 0 71 0;
#X connect 70 0 69 0;
#X connect 70 1 72 0;
#X connect 71 0 139 0;
#X connect 72 0 71 1;
#X connect 73 0 74 0;
#X connect 74 0 131 0;
#X connect 75 0 77 0;
#X connect 76 0 75 0;
#X connect 76 1 78 0;
#X connect 77 0 81 0;
#X connect 78 0 77 1;
#X connect 79 0 80 0;
#X connect 80 0 1 0;
#X connect 80 0 144 0;
#X connect 81 0 75 1;
#X connect 81 0 79 0;
#X connect 82 0 84 0;
#X connect 83 0 82 0;
#X connect 83 1 85 0;
#X connect 84 0 150 0;
#X connect 85 0 84 1;
#X connect 86 0 87 0;
#X connect 87 0 1 0;
#X connect 87 0 151 0;
#X connect 88 0 90 0;
#X connect 89 0 88 0;
#X connect 89 1 91 0;
#X connect 90 0 149 0;
#X connect 91 0 90 1;
#X connect 92 0 93 0;
#X connect 93 0 148 0;
#X connect 93 0 1 0;
#X connect 94 0 96 0;
#X connect 95 0 94 0;
#X connect 95 1 97 0;
#X connect 96 0 107 0;
#X connect 97 0 96 1;
#X connect 98 0 99 0;
#X connect 99 0 34 0;
#X connect 99 0 1 0;
#X connect 100 0 102 0;
#X connect 101 0 100 0;
#X connect 101 1 103 0;
#X connect 102 0 106 0;
#X connect 103 0 102 1;
#X connect 104 0 105 0;
#X connect 105 0 1 0;
#X connect 105 0 35 0;
#X connect 106 0 100 1;
#X connect 106 0 104 0;
#X connect 107 0 94 1;
#X connect 107 0 98 0;
#X connect 108 0 115 0;
#X connect 109 0 113 0;
#X connect 109 1 112 0;
#X connect 109 2 111 0;
#X connect 110 0 18 1;
#X connect 110 0 22 0;
#X connect 111 0 24 0;
#X connect 112 0 114 0;
#X connect 113 0 108 0;
#X connect 114 0 115 1;
#X connect 115 0 1 0;
#X connect 116 0 122 0;
#X connect 117 0 120 0;
#X connect 117 1 119 0;
#X connect 117 2 118 0;
#X connect 118 0 26 0;
#X connect 119 0 121 0;
#X connect 120 0 116 0;
#X connect 121 0 122 1;
#X connect 122 0 1 0;
#X connect 122 0 140 0;
#X connect 123 0 129 0;
#X connect 124 0 127 0;
#X connect 124 1 126 0;
#X connect 124 2 125 0;
#X connect 125 0 28 0;
#X connect 126 0 128 0;
#X connect 127 0 123 0;
#X connect 128 0 129 1;
#X connect 129 0 1 0;
#X connect 130 0 136 0;
#X connect 131 0 134 0;
#X connect 131 1 133 0;
#X connect 131 2 132 0;
#X connect 132 0 30 0;
#X connect 133 0 135 0;
#X connect 134 0 130 0;
#X connect 135 0 136 1;
#X connect 136 0 1 0;
#X connect 137 0 43 1;
#X connect 137 0 47 0;
#X connect 138 0 56 1;
#X connect 138 0 60 0;
#X connect 139 0 69 1;
#X connect 139 0 73 0;
#X connect 141 0 25 0;
#X connect 142 0 27 0;
#X connect 143 0 29 0;
#X connect 144 0 31 0;
#X connect 145 0 0 0;
#X connect 146 0 0 0;
#X connect 147 0 0 0;
#X connect 148 0 33 0;
#X connect 149 0 88 1;
#X connect 149 0 92 0;
#X connect 150 0 82 1;
#X connect 150 0 86 0;
#X connect 151 0 32 0;
#X connect 152 0 9 0;
#X restore 992 23 pd controller;
#X text 961 217 init;
#X text 991 217 T1;
#X text 1093 217 T3;
#X text 1144 217 T4;
#X text 1199 217 T5;
#X text 1255 217 T6;
#X text 1018 217 L1;
#X text 1067 217 L2;
#X text 1043 217 T2;
#X text 1172 217 L4;
#X text 1224 217 L5;
#X text 1278 217 L6;
#X text 1309 217 R;
#X text 1327 217 strt;
#X text 1358 217 end;
#X text 1382 217 vel;
#X text 1119 217 L3;
#N canvas 226 340 1129 682 controller 0;
#X obj 996 219 s paramdisp;
#X obj 91 452 s valuedisp;
#X obj 192 -80 unpack;
#X floatatom 187 -56 5 0 0 0 - - -, f 5;
#X floatatom 234 -57 5 0 0 0 - - -, f 5;
#X obj 166 -160 r encoders;
#X obj 973 -121 change;
#X obj 973 -100 sel 1 2 3 4 5 6 7 8 9 10 11 12;
#X obj 135 -26 route 1 2 3 4 5 6 7 8 9 10 11 12;
#X obj 164 -109 t l l;
#X msg 1077 173 Resonance;
#X msg 954 -62 FilterInit;
#X obj 28 47 f;
#X obj 3 1 t b f;
#X obj 6 47 +;
#X obj 29 25 / 4;
#X obj 8 89 i;
#X obj 8 111 change;
#X obj 50 361 outlet;
#X obj 109 399 outlet;
#X obj 187 400 outlet;
#X obj 271 404 outlet;
#X obj 354 409 outlet;
#X obj 434 415 outlet;
#X obj 502 417 outlet;
#X obj 583 422 outlet;
#X obj 667 427 outlet;
#X obj 753 433 outlet;
#X obj 835 441 outlet;
#X obj 920 460 outlet;
#X obj 109 47 f;
#X obj 84 1 t b f;
#X obj 87 47 +;
#X obj 110 25 / 4;
#X obj 89 89 i;
#X obj 89 113 change;
#X obj 87 68 clip 1 5000;
#X obj 188 48 f;
#X obj 163 2 t b f;
#X obj 166 48 +;
#X obj 189 26 / 4;
#X obj 168 90 i;
#X obj 168 112 change;
#X obj 274 47 f;
#X obj 249 1 t b f;
#X obj 252 47 +;
#X obj 275 25 / 4;
#X obj 254 89 i;
#X obj 254 111 change;
#X obj 252 68 clip 1 5000;
#X obj 355 47 f;
#X obj 330 1 t b f;
#X obj 333 47 +;
#X obj 356 25 / 4;
#X obj 335 89 i;
#X obj 335 111 change;
#X obj 434 48 f;
#X obj 409 2 t b f;
#X obj 412 48 +;
#X obj 435 26 / 4;
#X obj 414 90 i;
#X obj 415 113 change;
#X obj 412 69 clip 1 5000;
#X obj 512 44 f;
#X obj 487 -2 t b f;
#X obj 490 44 +;
#X obj 513 22 / 4;
#X obj 492 86 i;
#X obj 492 108 change;
#X obj 593 44 f;
#X obj 568 -2 t b f;
#X obj 571 44 +;
#X obj 594 22 / 4;
#X obj 573 86 i;
#X obj 573 108 change;
#X obj 571 65 clip 1 5000;
#X obj 672 45 f;
#X obj 647 -1 t b f;
#X obj 650 45 +;
#X obj 673 23 / 4;
#X obj 652 87 i;
#X obj 652 109 change;
#X obj 758 44 f;
#X obj 733 -2 t b f;
#X obj 736 44 +;
#X obj 759 22 / 4;
#X obj 738 86 i;
#X obj 738 108 change;
#X obj 839 44 f;
#X obj 814 -2 t b f;
#X obj 817 44 +;
#X obj 840 22 / 4;
#X obj 819 86 i;
#X obj 814 110 change;
#X obj 918 45 f;
#X obj 893 -1 t b f;
#X obj 896 45 +;
#X obj 919 23 / 4;
#X obj 898 87 i;
#X obj 898 109 change;
#X obj 896 66 clip 1 5000;
#X obj 817 65 clip 0 4095;
#X obj 16 259 i;
#X obj 15 162 t f f f;
#X obj 6 68 clip 0 4095;
#X obj 56 290 / 4095;
#X obj 39 193 mod 34.125;
#X obj 14 235 / 409.5;
#X obj 38 214 / 34.125;
#X obj 18 282 +;
#X obj 162 260 i;
#X obj 161 163 t f f f;
#X obj 202 291 / 4095;
#X obj 185 194 mod 34.125;
#X obj 160 236 / 409.5;
#X obj 184 215 / 34.125;
#X obj 154 290 +;
#X obj 332 261 i;
#X obj 331 164 t f f f;
#X obj 391 294 / 4095;
#X obj 355 195 mod 34.125;
#X obj 330 237 / 409.5;
#X obj 354 216 / 34.125;
#X obj 334 284 +;
#X obj 492 261 i;
#X obj 491 164 t f f f;
#X obj 532 292 / 4095;
#X obj 515 195 mod 34.125;
#X obj 490 237 / 409.5;
#X obj 514 216 / 34.125;
#X obj 494 284 +;
#X obj 166 69 clip 0 4095;
#X obj 333 68 clip 0 4095;
#X obj 491 65 clip 0 4095;
#X floatatom 154 312 5 0 0 0 - - -, f 5;
#X obj 108 144 / 5000;
#X obj 266 145 / 5000;
#X obj 430 146 / 5000;
#X obj 591 149 / 5000;
#X obj 650 66 clip 0 5;
#X obj 736 65 clip 1 6;
#X obj 657 146 / 5;
#X obj 719 136 / 6;
#X msg 960 -37 FilterT4;
#X msg 971 -17 FilterL4;
#X msg 981 10 FilterT5;
#X msg 991 30 FilterL5;
#X msg 1011 54 FilterT6;
#X msg 1021 74 FilterL6;
#X msg 1035 97 Release;
#X msg 1046 117 LoopStart;
#X msg 1058 141 LoopEnd;
#X obj 161 -139 route 5;
#X connect 2 0 3 0;
#X connect 2 0 6 0;
#X connect 2 1 4 0;
#X connect 5 0 152 0;
#X connect 6 0 7 0;
#X connect 7 0 11 0;
#X connect 7 1 143 0;
#X connect 7 2 144 0;
#X connect 7 3 145 0;
#X connect 7 4 146 0;
#X connect 7 5 147 0;
#X connect 7 6 148 0;
#X connect 7 7 149 0;
#X connect 7 8 150 0;
#X connect 7 9 151 0;
#X connect 7 10 10 0;
#X connect 8 0 13 0;
#X connect 8 1 31 0;
#X connect 8 2 38 0;
#X connect 8 3 44 0;
#X connect 8 4 51 0;
#X connect 8 5 57 0;
#X connect 8 6 64 0;
#X connect 8 7 70 0;
#X connect 8 8 77 0;
#X connect 8 9 83 0;
#X connect 8 10 89 0;
#X connect 8 11 95 0;
#X connect 9 0 8 0;
#X connect 9 1 2 0;
#X connect 10 0 0 0;
#X connect 11 0 0 0;
#X connect 12 0 14 0;
#X connect 13 0 12 0;
#X connect 13 1 15 0;
#X connect 14 0 104 0;
#X connect 15 0 14 1;
#X connect 16 0 17 0;
#X connect 17 0 103 0;
#X connect 30 0 32 0;
#X connect 31 0 30 0;
#X connect 31 1 33 0;
#X connect 32 0 36 0;
#X connect 33 0 32 1;
#X connect 34 0 35 0;
#X connect 35 0 1 0;
#X connect 35 0 135 0;
#X connect 36 0 30 1;
#X connect 36 0 34 0;
#X connect 37 0 39 0;
#X connect 38 0 37 0;
#X connect 38 1 40 0;
#X connect 39 0 131 0;
#X connect 40 0 39 1;
#X connect 41 0 42 0;
#X connect 42 0 111 0;
#X connect 43 0 45 0;
#X connect 44 0 43 0;
#X connect 44 1 46 0;
#X connect 45 0 49 0;
#X connect 46 0 45 1;
#X connect 47 0 48 0;
#X connect 48 0 1 0;
#X connect 48 0 136 0;
#X connect 49 0 43 1;
#X connect 49 0 47 0;
#X connect 50 0 52 0;
#X connect 51 0 50 0;
#X connect 51 1 53 0;
#X connect 52 0 132 0;
#X connect 53 0 52 1;
#X connect 54 0 55 0;
#X connect 55 0 118 0;
#X connect 56 0 58 0;
#X connect 57 0 56 0;
#X connect 57 1 59 0;
#X connect 58 0 62 0;
#X connect 59 0 58 1;
#X connect 60 0 61 0;
#X connect 61 0 1 0;
#X connect 61 0 137 0;
#X connect 62 0 56 1;
#X connect 62 0 60 0;
#X connect 63 0 65 0;
#X connect 64 0 63 0;
#X connect 64 1 66 0;
#X connect 65 0 133 0;
#X connect 66 0 65 1;
#X connect 67 0 68 0;
#X connect 68 0 125 0;
#X connect 69 0 71 0;
#X connect 70 0 69 0;
#X connect 70 1 72 0;
#X connect 71 0 75 0;
#X connect 72 0 71 1;
#X connect 73 0 74 0;
#X connect 74 0 1 0;
#X connect 74 0 138 0;
#X connect 75 0 69 1;
#X connect 75 0 73 0;
#X connect 76 0 78 0;
#X connect 77 0 76 0;
#X connect 77 1 79 0;
#X connect 78 0 139 0;
#X connect 79 0 78 1;
#X connect 80 0 81 0;
#X connect 81 0 141 0;
#X connect 81 0 1 0;
#X connect 82 0 84 0;
#X connect 83 0 82 0;
#X connect 83 1 85 0;
#X connect 84 0 140 0;
#X connect 85 0 84 1;
#X connect 86 0 87 0;
#X connect 87 0 142 0;
#X connect 87 0 1 0;
#X connect 88 0 90 0;
#X connect 89 0 88 0;
#X connect 89 1 91 0;
#X connect 90 0 101 0;
#X connect 91 0 90 1;
#X connect 92 0 93 0;
#X connect 93 0 28 0;
#X connect 93 0 1 0;
#X connect 94 0 96 0;
#X connect 95 0 94 0;
#X connect 95 1 97 0;
#X connect 96 0 100 0;
#X connect 97 0 96 1;
#X connect 98 0 99 0;
#X connect 99 0 1 0;
#X connect 99 0 29 0;
#X connect 100 0 94 1;
#X connect 100 0 98 0;
#X connect 101 0 88 1;
#X connect 101 0 92 0;
#X connect 102 0 109 0;
#X connect 103 0 107 0;
#X connect 103 1 106 0;
#X connect 103 2 105 0;
#X connect 104 0 12 1;
#X connect 104 0 16 0;
#X connect 105 0 18 0;
#X connect 106 0 108 0;
#X connect 107 0 102 0;
#X connect 108 0 109 1;
#X connect 109 0 1 0;
#X connect 110 0 116 0;
#X connect 111 0 114 0;
#X connect 111 1 113 0;
#X connect 111 2 112 0;
#X connect 112 0 20 0;
#X connect 113 0 115 0;
#X connect 114 0 110 0;
#X connect 115 0 116 1;
#X connect 116 0 1 0;
#X connect 116 0 134 0;
#X connect 117 0 123 0;
#X connect 118 0 121 0;
#X connect 118 1 120 0;
#X connect 118 2 119 0;
#X connect 119 0 22 0;
#X connect 120 0 122 0;
#X connect 121 0 117 0;
#X connect 122 0 123 1;
#X connect 123 0 1 0;
#X connect 124 0 130 0;
#X connect 125 0 128 0;
#X connect 125 1 127 0;
#X connect 125 2 126 0;
#X connect 126 0 24 0;
#X connect 127 0 129 0;
#X connect 128 0 124 0;
#X connect 129 0 130 1;
#X connect 130 0 1 0;
#X connect 131 0 37 1;
#X connect 131 0 41 0;
#X connect 132 0 50 1;
#X connect 132 0 54 0;
#X connect 133 0 63 1;
#X connect 133 0 67 0;
#X connect 135 0 19 0;
#X connect 136 0 21 0;
#X connect 137 0 23 0;
#X connect 138 0 25 0;
#X connect 139 0 76 1;
#X connect 139 0 80 0;
#X connect 140 0 82 1;
#X connect 140 0 86 0;
#X connect 141 0 26 0;
#X connect 142 0 27 0;
#X connect 143 0 0 0;
#X connect 144 0 0 0;
#X connect 145 0 0 0;
#X connect 146 0 0 0;
#X connect 147 0 0 0;
#X connect 148 0 0 0;
#X connect 149 0 0 0;
#X connect 150 0 0 0;
#X connect 151 0 0 0;
#X connect 152 0 9 0;
#X restore 1174 22 pd controller;
#X connect 3 0 5 0;
#X connect 4 0 3 0;
#X connect 7 0 42 0;
#X connect 8 0 43 0;
#X connect 9 0 44 0;
#X connect 10 0 45 0;
#X connect 11 0 46 0;
#X connect 12 0 47 0;
#X connect 13 0 48 0;
#X connect 14 0 49 0;
#X connect 15 0 50 0;
#X connect 16 0 51 0;
#X connect 17 0 52 0;
#X connect 18 0 53 0;
#X connect 19 0 54 0;
#X connect 20 0 56 0;
#X connect 21 0 57 0;
#X connect 22 0 39 0;
#X connect 23 0 39 0;
#X connect 24 0 39 0;
#X connect 25 0 39 0;
#X connect 26 0 39 0;
#X connect 27 0 39 0;
#X connect 28 0 39 0;
#X connect 29 0 39 0;
#X connect 30 0 39 0;
#X connect 31 0 39 0;
#X connect 32 0 39 0;
#X connect 33 0 39 0;
#X connect 34 0 39 0;
#X connect 35 0 39 0;
#X connect 36 0 39 0;
#X connect 37 0 39 0;
#X connect 38 0 40 0;
#X connect 38 1 41 0;
#X connect 39 0 157 1;
#X connect 40 0 157 0;
#X connect 41 0 39 0;
#X connect 42 0 40 0;
#X connect 42 1 22 0;
#X connect 43 0 40 0;
#X connect 43 1 23 0;
#X connect 44 0 40 0;
#X connect 44 1 24 0;
#X connect 45 0 40 0;
#X connect 45 1 25 0;
#X connect 46 0 40 0;
#X connect 46 1 26 0;
#X connect 47 0 40 0;
#X connect 47 1 27 0;
#X connect 48 0 40 0;
#X connect 48 1 28 0;
#X connect 49 0 40 0;
#X connect 49 1 29 0;
#X connect 50 0 40 0;
#X connect 50 1 30 0;
#X connect 51 0 40 0;
#X connect 51 1 31 0;
#X connect 52 0 40 0;
#X connect 52 1 32 0;
#X connect 53 0 40 0;
#X connect 53 1 33 0;
#X connect 54 0 40 0;
#X connect 54 1 34 0;
#X connect 55 0 40 0;
#X connect 55 1 35 0;
#X connect 56 0 40 0;
#X connect 56 1 36 0;
#X connect 57 0 40 0;
#X connect 57 1 37 0;
#X connect 76 0 77 0;
#X connect 76 0 99 0;
#X connect 77 0 103 0;
#X connect 77 1 80 0;
#X connect 78 0 100 0;
#X connect 79 0 82 0;
#X connect 79 0 83 0;
#X connect 80 0 93 0;
#X connect 80 0 134 0;
#X connect 80 1 81 0;
#X connect 80 1 133 0;
#X connect 80 1 143 0;
#X connect 81 0 79 0;
#X connect 83 0 78 0;
#X connect 84 0 148 0;
#X connect 86 0 78 0;
#X connect 87 0 88 0;
#X connect 87 0 89 0;
#X connect 89 0 86 0;
#X connect 90 0 99 1;
#X connect 91 0 92 0;
#X connect 91 0 94 0;
#X connect 91 0 95 0;
#X connect 91 0 97 0;
#X connect 92 0 91 1;
#X connect 93 0 91 0;
#X connect 95 0 150 1;
#X connect 95 0 151 1;
#X connect 96 0 87 0;
#X connect 97 0 96 0;
#X connect 97 0 98 0;
#X connect 97 1 84 0;
#X connect 98 0 90 0;
#X connect 99 0 93 0;
#X connect 101 0 105 0;
#X connect 103 0 101 0;
#X connect 104 0 78 0;
#X connect 105 0 104 0;
#X connect 105 0 102 0;
#X connect 105 0 85 0;
#X connect 107 0 106 0;
#X connect 108 0 106 1;
#X connect 109 0 110 0;
#X connect 110 0 111 0;
#X connect 130 0 131 0;
#X connect 130 0 154 0;
#X connect 130 0 155 0;
#X connect 132 0 91 1;
#X connect 133 0 132 0;
#X connect 134 0 130 0;
#X connect 135 0 147 0;
#X connect 137 0 135 0;
#X connect 138 0 139 0;
#X connect 138 0 142 0;
#X connect 140 0 145 0;
#X connect 142 0 140 0;
#X connect 143 0 138 0;
#X connect 144 0 141 0;
#X connect 144 0 95 1;
#X connect 145 0 144 0;
#X connect 146 0 136 0;
#X connect 146 0 132 1;
#X connect 147 0 146 0;
#X connect 148 0 90 1;
#X connect 148 0 89 1;
#X connect 148 0 85 0;
#X connect 149 0 150 0;
#X connect 149 0 153 0;
#X connect 150 0 132 0;
#X connect 151 0 152 0;
#X connect 152 0 99 0;
#X connect 153 0 151 0;
#X connect 154 1 137 0;
#X connect 155 0 149 0;
#X connect 156 0 38 0;
#X connect 158 0 55 0;
#X connect 162 0 161 0;
#X connect 180 0 163 0;
#X connect 180 1 164 0;
#X connect 180 2 165 0;
#X connect 180 3 166 0;
#X connect 180 4 167 0;
#X connect 180 5 168 0;
#X connect 180 6 169 0;
#X connect 180 7 176 0;
#X connect 180 8 177 0;
#X connect 180 9 178 0;
#X connect 180 10 162 0;
#X connect 198 0 163 0;
#X connect 198 1 170 0;
#X connect 198 2 171 0;
#X connect 198 3 172 0;
#X connect 198 4 173 0;
#X connect 198 5 174 0;
#X connect 198 6 175 0;
#X connect 198 7 176 0;
#X connect 198 8 177 0;
#X connect 198 9 178 0;
#X connect 198 10 162 0;
#X coords 0 -1 1 1 540 200 1 932 37;
