#N canvas 800 132 1030 899 10;
#X obj 233 112 vsl 15 128 0.01 1 1 0 empty empty empty 0 -9 0 10 -195568
-1 -1 11947 1;
#X obj 274 112 vsl 15 128 0 1 0 0 empty empty empty 0 -9 0 10 -166441
-1 -1 9627 1;
#X obj 258 112 vsl 15 128 0 10000 0 0 empty empty empty 0 -9 0 10 -262144
-1 -1 67 1;
#X obj 262 274 t b f;
#X obj 532 115 vsl 15 128 0 10000 0 0 empty empty empty 0 -9 0 10 -262144
-1 -1 155 1;
#X msg 132 222 0;
#X msg 159 222 127;
#X obj 192 267 t b f;
#X obj 262 297 pack 1 0 0;
#X obj 192 286 pack 0 0 0;
#X obj 300 274 t b f;
#X obj 319 113 vsl 15 128 0 1 0 0 empty empty empty 0 -9 0 10 -166441
-1 -1 245 1;
#X obj 303 113 vsl 15 128 0 10000 0 0 empty empty empty 0 -9 0 10 -262144
-1 -1 495 1;
#X obj 307 321 t b f;
#X obj 345 321 t b f;
#X obj 366 113 vsl 15 128 0 1 0 0 empty empty empty 0 -9 0 10 -166441
-1 -1 7029 1;
#X obj 350 113 vsl 15 128 0 10000 0 0 empty empty empty 0 -9 0 10 -262144
-1 -1 512 1;
#X obj 354 275 t b f;
#X obj 392 275 t b f;
#X obj 411 114 vsl 15 128 0 1 0 0 empty empty empty 0 -9 0 10 -166441
-1 -1 4499 1;
#X obj 395 114 vsl 15 128 0 10000 0 0 empty empty empty 0 -9 0 10 -262144
-1 -1 58 1;
#X obj 399 322 t b f;
#X obj 437 322 t b f;
#X obj 455 113 vsl 15 128 0 1 0 0 empty empty empty 0 -9 0 10 -166441
-1 -1 7888 1;
#X obj 439 113 vsl 15 128 0 10000 0 0 empty empty empty 0 -9 0 10 -262144
-1 -1 495 1;
#X obj 443 275 t b f;
#X obj 481 275 t b f;
#X obj 500 114 vsl 15 128 0 1 0 0 empty empty empty 0 -9 0 10 -166441
-1 -1 7417 1;
#X obj 484 114 vsl 15 128 0 10000 0 0 empty empty empty 0 -9 0 10 -262144
-1 -1 122 1;
#X obj 488 322 t b f;
#X obj 526 322 t b f;
#X obj 532 276 t b f;
#X obj 307 344 pack 2 0 0;
#X obj 354 298 pack 3 0 0;
#X obj 399 345 pack 4 0 0;
#X obj 443 298 pack 5 0 0;
#X obj 489 345 pack 6 0 0;
#X obj 532 296 pack 7 0 0;
#X obj 667 120 r stages;
#X obj 666 144 unpack 0 0 0;
#X obj 684 216 f;
#X obj 715 231 f;
#X text 655 161 stage;
#X text 692 162 lev;
#X text 722 161 time;
#X obj 668 183 t b b f;
#X floatatom 170 171 5 0 0 0 - - -, f 5;
#X floatatom 168 147 5 0 0 0 - - -, f 5;
#X text 118 149 start;
#X text 124 171 end;
#X obj 204 374 list;
#X obj 668 254 tabwrite 6stageLevelswt1;
#X obj 669 281 tabwrite 6stageTimeswt1;
#X obj 818 256 table 6stageLevelswt1 8;
#X obj 819 277 table 6stageTimeswt1 8;
#X obj 139 117 bng 15 250 50 0 empty empty empty 17 7 0 10 -262144
-1 -1;
#X obj 164 25 random 4096;
#X obj 164 47 / 4096;
#X obj 247 50 random 500;
#X obj 247 3 random 4096;
#X obj 247 25 / 4096;
#X obj 322 50 random 500;
#X obj 322 3 random 4096;
#X obj 322 25 / 4096;
#X obj 393 51 random 500;
#X obj 393 4 random 4096;
#X obj 393 26 / 4096;
#X obj 463 50 random 500;
#X obj 463 3 random 4096;
#X obj 463 25 / 4096;
#X obj 538 50 random 500;
#X obj 538 3 random 4096;
#X obj 539 25 / 4096;
#X obj 609 51 random 500;
#X obj 609 4 random 4096;
#X obj 609 26 / 4096;
#X obj 679 50 random 500;
#X obj 101 266 s envloopstartwt1;
#X obj 99 286 s envloopendwt1;
#X obj 162 531 loadbang;
#X obj 162 553 delay 100;
#X msg 269 609 3;
#X msg 116 619 8, f 6;
#X connect 0 0 7 0;
#X connect 1 0 10 0;
#X connect 2 0 3 0;
#X connect 3 0 8 0;
#X connect 3 1 8 2;
#X connect 4 0 31 0;
#X connect 7 0 9 0;
#X connect 7 1 9 1;
#X connect 8 0 50 0;
#X connect 9 0 50 0;
#X connect 10 0 8 0;
#X connect 10 1 8 1;
#X connect 11 0 14 0;
#X connect 12 0 13 0;
#X connect 13 0 32 0;
#X connect 13 1 32 2;
#X connect 14 0 32 0;
#X connect 14 1 32 1;
#X connect 15 0 18 0;
#X connect 16 0 17 0;
#X connect 17 0 33 0;
#X connect 17 1 33 2;
#X connect 18 0 33 0;
#X connect 18 1 33 1;
#X connect 19 0 22 0;
#X connect 20 0 21 0;
#X connect 21 0 34 0;
#X connect 21 1 34 2;
#X connect 22 0 34 0;
#X connect 22 1 34 1;
#X connect 23 0 26 0;
#X connect 24 0 25 0;
#X connect 25 0 35 0;
#X connect 25 1 35 2;
#X connect 26 0 35 0;
#X connect 26 1 35 1;
#X connect 27 0 30 0;
#X connect 28 0 29 0;
#X connect 29 0 36 0;
#X connect 29 1 36 2;
#X connect 30 0 36 0;
#X connect 30 1 36 1;
#X connect 31 0 37 0;
#X connect 31 1 37 2;
#X connect 32 0 50 0;
#X connect 33 0 50 0;
#X connect 34 0 50 0;
#X connect 35 0 50 0;
#X connect 36 0 50 0;
#X connect 37 0 50 0;
#X connect 38 0 39 0;
#X connect 39 0 45 0;
#X connect 39 1 40 1;
#X connect 39 2 41 1;
#X connect 40 0 51 0;
#X connect 41 0 52 0;
#X connect 45 0 41 0;
#X connect 45 1 40 0;
#X connect 45 2 51 1;
#X connect 45 2 52 1;
#X connect 46 0 78 0;
#X connect 47 0 77 0;
#X connect 50 0 39 0;
#X connect 55 0 56 0;
#X connect 55 0 59 0;
#X connect 55 0 76 0;
#X connect 55 0 73 0;
#X connect 55 0 70 0;
#X connect 55 0 67 0;
#X connect 55 0 64 0;
#X connect 55 0 61 0;
#X connect 55 0 58 0;
#X connect 55 0 74 0;
#X connect 55 0 71 0;
#X connect 55 0 68 0;
#X connect 55 0 65 0;
#X connect 55 0 62 0;
#X connect 56 0 57 0;
#X connect 57 0 0 0;
#X connect 58 0 2 0;
#X connect 59 0 60 0;
#X connect 60 0 1 0;
#X connect 61 0 12 0;
#X connect 62 0 63 0;
#X connect 63 0 11 0;
#X connect 64 0 16 0;
#X connect 65 0 66 0;
#X connect 66 0 15 0;
#X connect 67 0 20 0;
#X connect 68 0 69 0;
#X connect 69 0 19 0;
#X connect 70 0 24 0;
#X connect 71 0 72 0;
#X connect 72 0 23 0;
#X connect 73 0 28 0;
#X connect 74 0 75 0;
#X connect 75 0 27 0;
#X connect 76 0 4 0;
#X connect 79 0 80 0;
#X connect 80 0 82 0;
#X connect 80 0 81 0;
#X connect 80 0 55 0;
#X connect 81 0 47 0;
#X connect 82 0 46 0;
#X coords 0 -1 1 1 500 160 1 100 100;
