#N canvas 1970 216 584 431 10;
#X obj 91 49 inlet;
#X obj 90 76 sel 0;
#X obj 119 113 t b b b b;
#X obj 78 182 0;
#X obj 155 169 pack 1 0;
#X obj 293 171 delay;
#X obj 292 125 + 1;
#X obj 290 241 pack 0 0 0;
#X obj 290 264 route 0;
#X msg 87 138 stop;
#X obj 415 173 pack 0 0;
#X obj 296 78 r af;
#X obj 330 78 r df;
#X obj 373 78 r sf;
#X obj 406 78 r rf;
#X obj 78 256 line;
#X obj 77 324 outlet;
#X connect 0 0 1 0;
#X connect 1 0 9 0;
#X connect 1 0 10 0;
#X connect 1 1 2 0;
#X connect 2 1 5 0;
#X connect 2 2 4 0;
#X connect 2 3 3 0;
#X connect 3 0 15 0;
#X connect 4 0 15 0;
#X connect 5 0 7 0;
#X connect 6 0 5 1;
#X connect 7 0 8 0;
#X connect 8 0 15 0;
#X connect 9 0 5 0;
#X connect 10 0 15 0;
#X connect 11 0 4 1;
#X connect 11 0 6 0;
#X connect 12 0 7 2;
#X connect 13 0 7 1;
#X connect 14 0 10 1;
#X connect 15 0 16 0;
