#N canvas 286 134 1305 791 10;
#N canvas 0 0 450 300 (subpatch) 0;
#X array \$0-arparray 128 float 3 black black;
#A 0 0 0 0 0 0 0 0 0 0 0 0 0 0 0 0 0 0 0 0 0 0 0 0 0 0 0 0 0 0 0 0
0 0 0 0 0 0 0 0 0 0 0 0 0 0 0 0 0 0 0 0 0 0 0 0 0 0 0 0 0 0 0 65 0
0 50 0 0 0 63 0 0 0 0 0 0 0 0 0 0 0 0 0 0 0 0 0 0 0 0 0 0 0 0 0 0 0
0 0 0 0 0 0 0 0 0 0 0 0 0 0 0 0 0 0 0 0 0 0 0 0 0 0 0 0 0 0 0;
#X coords 0 300 1 299 200 140 0;
#X restore 41 11 graph;
#X obj 89 183 tabwrite \$0-arparray;
#X msg 89 116 set \$2 \$1;
#X obj 102 139 bng 15 250 50 0 empty empty empty 17 7 0 10 -262144
-1 -1;
#X msg 89 159 65 62;
#N canvas 0 0 450 300 (subpatch) 0;
#X array \$0-playarray 32 float 3 black black;
#A 0 60 65 69 64 55 65 59 67 59 0 0 0 0 0 0 0 0 50 63 66 81 19 83 17
80 0 0 0 0 0 0 0;
#X coords 0 300 1 299 200 140 0;
#X restore 41 39 graph;
#X obj 182 222 tabread \$0-arparray;
#X obj 91 474 tabwrite \$0-playarray;
#X obj 229 285 spigot;
#X obj 214 334 bng 15 250 50 0 empty empty empty 17 7 0 10 -262144
-1 -1;
#X obj 124 427 != 0;
#X obj 91 452 spigot;
#X floatatom 214 398 5 0 0 0 - - -, f 5;
#X msg 383 230 const 0;
#X obj 383 258 s \$0-playarray;
#X obj 229 474 tabwrite \$0-playarray;
#X obj 542 563 tabread \$0-playarray;
#X obj 515 673 makenote;
#X obj 511 639 tabread \$0-playarray;
#X obj 523 743 pack;
#X obj 278 140 stripnote;
#N canvas 680 356 450 300 until-127 0;
#X obj 61 99 until;
#X obj 61 125 f;
#X msg 61 76 127;
#X msg 96 77 0;
#X obj 90 125 + 1;
#X obj 61 20 inlet;
#X obj 61 154 outlet;
#X obj 143 152 outlet;
#X obj 61 51 t b b b;
#X connect 0 0 1 0;
#X connect 1 0 4 0;
#X connect 1 0 6 0;
#X connect 2 0 0 0;
#X connect 3 0 1 1;
#X connect 4 0 1 1;
#X connect 5 0 8 0;
#X connect 8 0 2 0;
#X connect 8 1 3 0;
#X connect 8 2 7 0;
#X restore 229 191 pd until-127;
#N canvas 697 145 450 300 count-16 0;
#X obj 72 22 inlet;
#X obj 133 22 inlet;
#X obj 73 189 outlet;
#X obj 72 82 f 0;
#X obj 116 82 + 1;
#X obj 156 190 outlet;
#X obj 115 136 sel 15;
#X msg 163 80 1;
#X connect 0 0 3 0;
#X connect 1 0 7 0;
#X connect 3 0 4 0;
#X connect 3 0 2 0;
#X connect 3 0 6 0;
#X connect 4 0 3 1;
#X connect 6 0 7 0;
#X connect 7 0 5 0;
#X connect 7 0 3 1;
#X restore 214 364 pd count-16;
#X obj 262 260 != 0;
#X obj 288 393 bng 15 250 50 0 empty empty empty 17 7 0 10 -262144
-1 -1;
#X obj 547 493 float;
#X obj 606 490 + 1;
#X floatatom 600 538 5 0 0 0 - - -, f 5;
#X msg 671 544 0;
#X obj 672 516 sel 15;
#X obj 384 561 sel;
#X floatatom 420 607 5 0 0 0 - - -, f 5;
#X msg 416 448 1;
#X obj 214 434 + 16;
#X obj 352 450 + 0;
#X obj 510 609 + 0;
#X obj 544 533 + 16;
#X obj 88 12 inlet;
#X obj 472 756 outlet;
#X obj 410 686 +;
#X obj 465 705 +;
#X floatatom 592 610 5 0 0 0 - - -, f 5;
#X obj 427 648 * 12;
#X floatatom 675 458 5 0 0 0 - - -, f 5;
#X floatatom 677 695 5 0 0 0 - - -, f 5;
#N canvas 409 388 766 507 direction 0;
#X obj 92 32 inlet;
#X obj 157 32 inlet;
#X obj 219 25 inlet;
#X obj 92 231 outlet;
#N canvas 985 106 450 775 up-down 0;
#X obj 64 19 inlet;
#X obj 239 21 inlet;
#X obj 42 598 outlet;
#X obj 158 450 float;
#X obj 208 501 sel;
#X obj 201 450 +;
#X obj 185 187 swap;
#X floatatom 185 323 5 0 0 0 - - -, f 5;
#X floatatom 223 323 5 0 0 0 - - -, f 5;
#X obj 245 94 bng 15 250 50 0 empty empty empty 17 7 0 10 -262144 -1
-1;
#X obj 296 150 pack;
#X msg 297 174 set \$1 \$2;
#X obj 196 373 sel 0;
#X msg 196 405 1;
#X msg 252 405 -1;
#X floatatom 156 499 5 0 0 0 - - -, f 5;
#X msg 177 154 0 1;
#X obj 297 200 spigot;
#X floatatom 279 95 5 0 0 0 - - -, f 5;
#X obj 208 98 bng 15 250 50 0 empty empty empty 17 7 0 10 -262144 -1
-1;
#X msg 177 122 set 0 \$1;
#X obj 246 542 spigot;
#X obj 174 19 inlet;
#X obj 238 51 t b f;
#X obj 123 304 spigot;
#X connect 0 0 24 0;
#X connect 1 0 23 0;
#X connect 3 0 4 0;
#X connect 3 0 5 0;
#X connect 3 0 15 0;
#X connect 4 0 21 0;
#X connect 5 0 3 1;
#X connect 6 0 7 0;
#X connect 6 0 10 0;
#X connect 6 1 8 0;
#X connect 6 1 10 1;
#X connect 7 0 12 0;
#X connect 7 0 3 1;
#X connect 8 0 4 1;
#X connect 9 0 16 0;
#X connect 10 0 11 0;
#X connect 11 0 17 0;
#X connect 12 0 13 0;
#X connect 12 1 14 0;
#X connect 13 0 5 1;
#X connect 14 0 5 1;
#X connect 15 0 2 0;
#X connect 16 0 6 0;
#X connect 17 0 16 0;
#X connect 18 0 17 1;
#X connect 18 0 21 1;
#X connect 18 0 24 1;
#X connect 19 0 16 0;
#X connect 20 0 16 0;
#X connect 21 0 9 0;
#X connect 22 0 20 0;
#X connect 23 0 19 0;
#X connect 23 1 18 0;
#X connect 24 0 3 0;
#X restore 194 143 pd up-down;
#N canvas 11 110 450 775 up 0;
#X obj 64 19 inlet;
#X obj 239 21 inlet;
#X obj 42 598 outlet;
#X obj 158 450 float;
#X obj 226 504 sel;
#X floatatom 156 499 5 0 0 0 - - -, f 5;
#X obj 174 19 inlet;
#X obj 123 304 spigot;
#X msg 183 363 0;
#X obj 124 373 bng 15 250 50 0 empty empty empty 17 7 0 10 -262144
-1 -1;
#X floatatom 245 470 5 0 0 0 - - -, f 5;
#X obj 200 450 + 1;
#X connect 0 0 7 0;
#X connect 1 0 7 1;
#X connect 1 0 8 0;
#X connect 3 0 5 0;
#X connect 3 0 11 0;
#X connect 3 0 4 0;
#X connect 4 0 8 0;
#X connect 5 0 2 0;
#X connect 6 0 10 0;
#X connect 7 0 9 0;
#X connect 8 0 3 1;
#X connect 9 0 3 0;
#X connect 10 0 4 1;
#X connect 11 0 3 1;
#X restore 89 139 pd up;
#N canvas 146 120 450 775 down 0;
#X obj 64 19 inlet;
#X obj 239 21 inlet;
#X obj 42 598 outlet;
#X obj 158 450 float;
#X floatatom 156 499 5 0 0 0 - - -, f 5;
#X obj 174 19 inlet;
#X obj 123 304 spigot;
#X msg 183 363 1;
#X obj 124 373 bng 15 250 50 0 empty empty empty 17 7 0 10 -262144
-1 -1;
#X obj 202 451 - 1;
#X msg 235 318 set \$1;
#X obj 226 504 sel 0;
#X obj 237 541 bng 15 250 50 0 empty empty empty 17 7 0 10 -262144
-1 -1;
#X connect 0 0 6 0;
#X connect 1 0 6 1;
#X connect 1 0 7 0;
#X connect 3 0 4 0;
#X connect 3 0 9 0;
#X connect 3 0 11 0;
#X connect 4 0 2 0;
#X connect 5 0 10 0;
#X connect 6 0 8 0;
#X connect 7 0 3 1;
#X connect 8 0 3 0;
#X connect 9 0 3 1;
#X connect 10 0 7 0;
#X connect 11 0 12 0;
#X connect 12 0 7 0;
#X restore 137 141 pd down;
#X obj 350 41 sel 0 1 2;
#X obj 350 73 tgl 15 0 empty empty empty 17 7 0 10 -262144 -1 -1 1
1;
#X obj 368 74 tgl 15 0 empty empty empty 17 7 0 10 -262144 -1 -1 0
1;
#X obj 395 73 tgl 15 0 empty empty empty 17 7 0 10 -262144 -1 -1 0
1;
#X obj 287 17 t f b;
#X msg 310 49 0;
#X connect 0 0 5 0;
#X connect 0 0 6 0;
#X connect 0 0 4 0;
#X connect 1 0 5 1;
#X connect 1 0 6 1;
#X connect 1 0 4 1;
#X connect 2 0 11 0;
#X connect 4 0 3 0;
#X connect 5 0 3 0;
#X connect 6 0 3 0;
#X connect 7 0 8 0;
#X connect 7 1 9 0;
#X connect 7 2 10 0;
#X connect 8 0 5 2;
#X connect 9 0 6 2;
#X connect 10 0 4 2;
#X connect 11 0 7 0;
#X connect 11 1 12 0;
#X connect 12 0 8 0;
#X connect 12 0 9 0;
#X connect 12 0 10 0;
#X restore 675 427 pd direction;
#X obj 503 103 cnv 15 160 94 empty \$0-arp-label Arpeggiator Note 12
4 10 0 12 -159808 -262144 0;
#X obj 617 176 nbx 3 14 -48 48 0 0 empty empty transpose -58 8 0 10
-159808 -257985 -262144 0 256 0;
#X obj 505 148 tgl 15 0 empty empty empty 17 7 0 10 -159808 -257985
-1 1 1;
#X obj 508 177 hradio 15 1 0 3 empty empty empty 0 -8 0 10 -159808
-257985 -1 0;
#X obj 752 645 ftos;
#X obj 754 699 s \$0-arp-label;
#X msg 752 670 label Arpeggiator Note \$1;
#X obj 533 122 nbx 4 14 1 5000 0 0 empty empty bpm -24 8 0 10 -159808
-257985 -262144 110 256 0;
#X msg 737 61 60000 \$1;
#X obj 737 84 /;
#X obj 572 140 nbx 3 14 0 5 0 0 empty empty range -34 8 0 10 -159808
-257985 -262144 1 256 0;
#X obj 614 152 nbx 3 14 0 5000 0 0 empty empty length -40 8 0 10 -159808
-257985 -262144 90 256 0;
#X obj 949 580 outlet;
#N canvas 607 511 450 300 bang-all-inlets 0;
#X obj 54 32 inlet;
#X obj 54 238 outlet;
#X obj 98 32 inlet;
#X obj 98 238 outlet;
#X obj 142 32 inlet;
#X obj 142 238 outlet;
#X obj 186 32 inlet;
#X obj 186 238 outlet;
#X obj 230 32 inlet;
#X obj 230 238 outlet;
#X obj 274 32 inlet;
#X obj 274 238 outlet;
#X obj 196 112 bang;
#X obj 196 137 delay;
#X obj 311 33 inlet;
#X obj 311 239 outlet;
#X connect 0 0 1 0;
#X connect 2 0 3 0;
#X connect 2 0 12 0;
#X connect 4 0 5 0;
#X connect 4 0 12 0;
#X connect 6 0 7 0;
#X connect 6 0 12 0;
#X connect 8 0 9 0;
#X connect 8 0 12 0;
#X connect 10 0 11 0;
#X connect 10 0 12 0;
#X connect 12 0 13 0;
#X connect 13 0 1 0;
#X connect 14 0 15 0;
#X connect 14 0 12 0;
#X restore 859 496 pd bang-all-inlets;
#X obj 434 20 loadbang;
#X obj 489 20 initbang;
#X obj 288 78 iem_tab/tab_max_index \$0-arparray;
#X msg 286 47 0 127;
#X floatatom 385 106 5 0 0 0 - - -, f 5;
#X obj 540 153 tgl 15 0 empty empty empty 17 7 0 10 -159808 -4034 -1
0 1;
#X obj 383 202 spigot;
#X obj 413 131 == 0;
#X obj 383 167 spigot;
#X obj 385 142 bng 15 250 50 0 empty empty empty 17 7 0 10 -262144
-1 -1;
#X obj 546 21 unpack f f f f f f f;
#X obj 860 532 pack f f f f f f f;
#X obj 605 752 outlet;
#X obj 480 182 bng 15 250 50 0 empty empty empty 17 7 0 10 -262144
-1 -1;
#X obj 608 125 nbx 4 14 12 1200 0 0 empty empty ms -16 8 0 10 -159808
-257985 -262144 545.455 256 0;
#X msg 736 127 60000 \$1;
#X obj 743 153 /;
#X msg 738 184 set \$1;
#X msg 437 54 1 0 190 1 90 0;
#X obj 472 306 r clock;
#X obj 487 353 spigot;
#X obj 727 574 r ms;
#X obj 727 597 / 2;
#X obj 489 386 f;
#X obj 524 386 + 1;
#X msg 496 438 0;
#X obj 496 415 sel 0;
#X floatatom 563 390 5 0 0 0 - - -, f 5;
#X floatatom 883 302 5 0 0 0 - - -, f 5;
#X obj 902 252 f;
#X msg 930 348 0;
#X obj 966 223 +;
#X msg 902 191 -1;
#X msg 973 192 1;
#X msg 973 342 16;
#X obj 956 284 edge;
#X obj 992 324 sel 1;
#X obj 1047 327 sel 1;
#X obj 1199 380 f;
#X obj 1230 371 + 1;
#X obj 1199 403 sel 5;
#X msg 1199 426 0;
#X floatatom 1156 434 5 0 0 0 - - -, f 5;
#X obj 1044 297 > 16;
#X obj 1014 298 < 0;
#X obj 604 384 t b f;
#X obj 542 315 loadbang;
#X floatatom 584 416 5 0 0 0 - - -, f 5;
#X floatatom 472 779 5 0 0 0 - - -, f 5;
#X floatatom 870 204 5 0 0 0 - - -, f 5;
#X msg 542 338 1;
#X obj 608 339 inlet;
#X obj 382 337 metro;
#X obj 159 28 inlet;
#X obj 818 26 inlet;
#X obj 168 608 shell;
#X obj 168 630 print;
#X obj 177 558 loadbang;
#X msg 191 581 aconnect 20:0 128:0;
#X connect 2 0 4 0;
#X connect 2 0 3 0;
#X connect 3 0 4 0;
#X connect 3 0 63 0;
#X connect 4 0 1 0;
#X connect 6 0 10 0;
#X connect 6 0 11 0;
#X connect 6 0 23 0;
#X connect 8 0 15 0;
#X connect 8 0 9 0;
#X connect 9 0 22 0;
#X connect 10 0 11 1;
#X connect 11 0 7 0;
#X connect 12 0 30 1;
#X connect 12 0 33 0;
#X connect 12 0 34 0;
#X connect 13 0 14 0;
#X connect 16 0 31 0;
#X connect 16 0 17 1;
#X connect 17 0 19 0;
#X connect 17 1 19 1;
#X connect 18 0 39 0;
#X connect 19 0 38 0;
#X connect 20 0 22 1;
#X connect 20 0 21 0;
#X connect 21 0 6 0;
#X connect 21 0 8 0;
#X connect 22 0 12 0;
#X connect 22 1 24 0;
#X connect 23 0 8 1;
#X connect 24 0 32 0;
#X connect 25 0 26 0;
#X connect 25 0 27 0;
#X connect 25 0 29 0;
#X connect 25 0 30 0;
#X connect 25 0 36 0;
#X connect 25 0 35 0;
#X connect 26 0 25 1;
#X connect 28 0 25 1;
#X connect 29 0 28 0;
#X connect 30 0 32 0;
#X connect 30 0 45 0;
#X connect 32 0 25 1;
#X connect 33 0 7 1;
#X connect 34 0 15 1;
#X connect 35 0 18 0;
#X connect 36 0 16 0;
#X connect 37 0 2 0;
#X connect 37 0 20 0;
#X connect 39 0 40 0;
#X connect 40 0 17 0;
#X connect 40 0 44 0;
#X connect 42 0 39 1;
#X connect 43 0 42 0;
#X connect 44 0 72 0;
#X connect 45 0 43 0;
#X connect 47 0 40 1;
#X connect 47 0 59 5;
#X connect 48 0 59 0;
#X connect 48 0 112 0;
#X connect 49 0 45 2;
#X connect 49 0 59 1;
#X connect 50 0 52 0;
#X connect 52 0 51 0;
#X connect 53 0 54 0;
#X connect 54 0 55 0;
#X connect 55 0 74 0;
#X connect 56 0 45 1;
#X connect 56 0 59 3;
#X connect 56 0 73 0;
#X connect 57 0 59 4;
#X connect 59 0 71 0;
#X connect 59 1 71 1;
#X connect 59 2 71 2;
#X connect 59 3 71 3;
#X connect 59 4 71 4;
#X connect 59 5 71 5;
#X connect 59 6 71 6;
#X connect 60 0 78 0;
#X connect 60 0 48 0;
#X connect 61 0 78 0;
#X connect 62 1 64 0;
#X connect 63 0 62 0;
#X connect 64 0 67 0;
#X connect 64 0 69 0;
#X connect 65 0 66 1;
#X connect 65 0 59 6;
#X connect 66 0 13 0;
#X connect 67 0 68 1;
#X connect 68 0 66 0;
#X connect 69 0 68 0;
#X connect 70 0 80 1;
#X connect 70 1 49 0;
#X connect 70 2 74 0;
#X connect 70 3 56 0;
#X connect 70 4 57 0;
#X connect 70 5 47 0;
#X connect 70 6 65 0;
#X connect 71 0 58 0;
#X connect 73 0 49 0;
#X connect 74 0 75 0;
#X connect 74 0 59 2;
#X connect 75 0 76 0;
#X connect 76 0 77 0;
#X connect 76 0 112 1;
#X connect 77 0 53 0;
#X connect 78 0 70 0;
#X connect 79 0 80 0;
#X connect 80 0 83 0;
#X connect 81 0 82 0;
#X connect 82 0 17 2;
#X connect 83 0 84 0;
#X connect 83 0 86 0;
#X connect 84 0 83 1;
#X connect 85 0 83 1;
#X connect 86 0 85 0;
#X connect 86 0 25 0;
#X connect 87 0 86 1;
#X connect 89 0 88 0;
#X connect 89 0 91 0;
#X connect 89 0 103 0;
#X connect 89 0 104 0;
#X connect 90 0 89 1;
#X connect 91 0 89 1;
#X connect 92 0 91 1;
#X connect 93 0 91 1;
#X connect 94 0 89 1;
#X connect 96 0 94 0;
#X connect 97 0 90 0;
#X connect 98 0 99 0;
#X connect 98 0 100 0;
#X connect 98 0 102 0;
#X connect 98 0 56 0;
#X connect 99 0 98 1;
#X connect 100 0 101 0;
#X connect 101 0 98 1;
#X connect 103 0 97 0;
#X connect 104 0 96 0;
#X connect 105 0 85 0;
#X connect 105 1 86 1;
#X connect 106 0 110 0;
#X connect 106 0 85 0;
#X connect 107 0 86 1;
#X connect 109 0 89 0;
#X connect 110 0 86 1;
#X connect 111 0 105 0;
#X connect 112 0 80 0;
#X connect 113 0 48 0;
#X connect 114 0 54 0;
#X connect 115 0 116 0;
#X connect 115 1 116 0;
#X connect 117 0 118 0;
#X connect 118 0 115 0;
#X coords 0 -1 1 1 166 100 2 500 100;
