#N canvas 394 24 1269 923 10;
#X obj 156 358 wiringPi;
#X msg 173 78 spi_init 0 1.2288e+06;
#X msg 56 156 spi_write 0 0 \$1;
#X msg 56 181 spi_write 0 2 \$1;
#X msg 52 213 spi_write 0 4 \$1;
#X msg 53 244 spi_write 0 6 \$1;
#X msg 213 155 spi_write 0 1 \$1;
#X msg 214 180 spi_write 0 3 \$1;
#X msg 209 212 spi_write 0 5 \$1;
#X msg 210 243 spi_write 0 7 \$1;
#X floatatom 435 115 5 0 0 0 - - -, f 5;
#X floatatom 492 113 5 0 0 0 - - -, f 5;
#X floatatom 553 112 5 0 0 0 - - -, f 5;
#X msg 387 155 spi_write 0 19 \$1;
#X obj 386 270 notein 1;
#X obj 513 662 mtof;
#X obj 478 838 dac~ 1 2 3 4;
#X floatatom 431 312 5 0 0 0 - - -, f 5;
#X obj 485 701 phasor~;
#X obj 559 698 phasor~;
#X obj 610 700 phasor~;
#X obj 658 698 phasor~;
#X obj 719 319 line 1 5;
#X obj 676 153 t b b;
#X obj 675 123 sel 0;
#X msg 666 289 0 \$1;
#X obj 719 341 * 4095;
#X obj 730 53 s decA;
#X obj 792 53 s decF;
#X obj 670 265 f;
#X obj 684 240 r decA;
#X obj 829 318 line 1 5;
#X msg 776 288 0 \$1;
#X obj 829 340 * 4095;
#X obj 780 264 f;
#X obj 794 239 r decA;
#X obj 938 321 line 1 5;
#X msg 885 291 0 \$1;
#X obj 938 343 * 4095;
#X obj 889 267 f;
#X obj 903 242 r decA;
#X obj 1048 315 line 1 5;
#X msg 995 285 0 \$1;
#X obj 1048 337 * 4095;
#X obj 999 261 f;
#X obj 1013 236 r decA;
#X floatatom 729 26 5 0 0 0 - - -, f 5;
#X floatatom 790 30 5 0 0 0 - - -, f 5;
#X obj 738 545 line 1 5;
#X obj 720 450 t b b;
#X msg 747 475 1 0;
#X msg 679 527 0 \$1;
#X obj 732 579 * 4095;
#X obj 683 503 f;
#X obj 842 556 line 1 5;
#X obj 830 449 t b b;
#X msg 857 474 1 0;
#X msg 789 526 0 \$1;
#X obj 842 578 * 4095;
#X obj 793 502 f;
#X obj 951 559 line 1 5;
#X obj 939 452 t b b;
#X msg 966 477 1 0;
#X msg 898 529 0 \$1;
#X obj 951 581 * 4095;
#X obj 902 505 f;
#X obj 1061 553 line 1 5;
#X obj 1049 446 t b b;
#X msg 1076 471 1 0;
#X msg 1008 523 0 \$1;
#X obj 1061 575 * 4095;
#X obj 1012 499 f;
#X obj 697 478 r decF;
#X obj 808 476 r decF;
#X obj 916 480 r decF;
#X obj 1026 474 r decF;
#X obj 855 52 s depthF;
#X floatatom 851 23 5 0 0 0 - - -, f 5;
#X obj 774 640 r depthF;
#X obj 880 638 r depthF;
#X obj 989 643 r depthF;
#X obj 1097 640 r depthF;
#X obj 532 435 +;
#X floatatom 528 310 5 0 0 0 - - -, f 5;
#X obj 298 489 messenger;
#X obj 337 -6 r fromCtlr;
#X obj 337 16 mrpeach/routeOSC /pot1 /pot2 /pot3 /pot4 /pot5 /pot6
/pot7 /pot8 /pot9 /pot10 /pot11 /pot12;
#X obj 277 643 mtof;
#X obj 255 738 phasor~;
#X obj 329 735 phasor~;
#X obj 380 737 phasor~;
#X obj 428 735 phasor~;
#X obj 277 618 +;
#X obj 319 555 r transpose2;
#X obj 518 78 s transpose2;
#X obj 277 710 +;
#X obj 328 712 +;
#X obj 381 706 +;
#X obj 431 706 +;
#X obj 59 622 r detune2;
#X obj 613 81 s detune2;
#X obj 524 221 - 36;
#X obj 755 414 +;
#X obj 849 392 +;
#X obj 902 386 +;
#X obj 952 386 +;
#X obj 74 523 shell;
#X obj 74 545 print;
#X obj 109 544 print;
#X msg 91 453 aconnect 20:0 128:0;
#X floatatom 581 172 5 0 0 0 - - -, f 5;
#X obj 463 795 *~;
#X obj 494 795 *~;
#X obj 526 793 *~;
#X obj 552 793 *~;
#X obj 643 780 / 2048;
#X msg 638 824 10;
#X obj 122 696 +;
#X obj 127 761 +;
#X obj 170 684 -;
#X obj 118 730 t f f;
#X msg 196 783 0;
#X obj 571 390 stripnote;
#X obj 243 340 arpeggiator-plugin;
#X obj 385 462 unpack;
#X obj 139 34 loadbang;
#X obj 97 418 loadbang;
#X floatatom 386 506 5 0 0 0 - - -, f 5;
#X floatatom 434 506 5 0 0 0 - - -, f 5;
#X obj 357 304 pack;
#X msg 734 237 1 \$1;
#X msg 844 236 1 \$1;
#X msg 953 239 1 \$1;
#X msg 1063 233 1 \$1;
#X obj 756 199 f;
#X obj 670 193 delay;
#X connect 1 0 0 0;
#X connect 2 0 0 0;
#X connect 3 0 0 0;
#X connect 4 0 0 0;
#X connect 5 0 0 0;
#X connect 6 0 0 0;
#X connect 7 0 0 0;
#X connect 8 0 0 0;
#X connect 9 0 0 0;
#X connect 10 0 2 0;
#X connect 10 0 5 0;
#X connect 10 0 4 0;
#X connect 10 0 3 0;
#X connect 11 0 6 0;
#X connect 11 0 9 0;
#X connect 11 0 8 0;
#X connect 11 0 7 0;
#X connect 12 0 13 0;
#X connect 13 0 0 0;
#X connect 14 0 17 0;
#X connect 14 0 129 0;
#X connect 14 1 129 1;
#X connect 15 0 18 0;
#X connect 15 0 19 0;
#X connect 15 0 21 0;
#X connect 15 0 20 0;
#X connect 18 0 111 0;
#X connect 19 0 112 0;
#X connect 20 0 113 0;
#X connect 21 0 114 0;
#X connect 22 0 26 0;
#X connect 23 0 135 0;
#X connect 23 1 134 0;
#X connect 24 1 23 0;
#X connect 24 1 49 0;
#X connect 24 1 55 0;
#X connect 24 1 67 0;
#X connect 24 1 61 0;
#X connect 25 0 22 0;
#X connect 26 0 102 0;
#X connect 29 0 25 0;
#X connect 30 0 29 1;
#X connect 31 0 33 0;
#X connect 32 0 31 0;
#X connect 33 0 103 0;
#X connect 34 0 32 0;
#X connect 35 0 34 1;
#X connect 36 0 38 0;
#X connect 37 0 36 0;
#X connect 38 0 104 0;
#X connect 39 0 37 0;
#X connect 40 0 39 1;
#X connect 41 0 43 0;
#X connect 42 0 41 0;
#X connect 43 0 105 0;
#X connect 44 0 42 0;
#X connect 45 0 44 1;
#X connect 46 0 27 0;
#X connect 47 0 28 0;
#X connect 48 0 52 0;
#X connect 49 0 53 0;
#X connect 49 1 50 0;
#X connect 50 0 48 0;
#X connect 51 0 48 0;
#X connect 52 0 2 0;
#X connect 53 0 51 0;
#X connect 54 0 58 0;
#X connect 55 0 59 0;
#X connect 55 1 56 0;
#X connect 56 0 54 0;
#X connect 57 0 54 0;
#X connect 58 0 3 0;
#X connect 59 0 57 0;
#X connect 60 0 64 0;
#X connect 61 0 65 0;
#X connect 61 1 62 0;
#X connect 62 0 60 0;
#X connect 63 0 60 0;
#X connect 64 0 4 0;
#X connect 65 0 63 0;
#X connect 66 0 70 0;
#X connect 67 0 71 0;
#X connect 67 1 68 0;
#X connect 68 0 66 0;
#X connect 69 0 66 0;
#X connect 70 0 5 0;
#X connect 71 0 69 0;
#X connect 72 0 53 1;
#X connect 73 0 59 1;
#X connect 74 0 65 1;
#X connect 75 0 71 1;
#X connect 77 0 76 0;
#X connect 78 0 52 1;
#X connect 79 0 58 1;
#X connect 80 0 64 1;
#X connect 81 0 70 1;
#X connect 82 0 15 0;
#X connect 82 0 92 0;
#X connect 83 0 82 1;
#X connect 85 0 86 0;
#X connect 86 0 46 0;
#X connect 86 1 47 0;
#X connect 86 2 77 0;
#X connect 86 3 12 0;
#X connect 86 4 94 0;
#X connect 86 5 100 0;
#X connect 86 6 101 0;
#X connect 86 8 134 1;
#X connect 86 8 135 1;
#X connect 86 10 115 0;
#X connect 87 0 95 0;
#X connect 87 0 96 0;
#X connect 87 0 98 0;
#X connect 87 0 97 0;
#X connect 88 0 111 0;
#X connect 89 0 112 0;
#X connect 90 0 113 0;
#X connect 91 0 114 0;
#X connect 92 0 87 0;
#X connect 93 0 92 1;
#X connect 95 0 88 0;
#X connect 96 0 89 0;
#X connect 97 0 90 0;
#X connect 98 0 91 0;
#X connect 99 0 117 0;
#X connect 99 0 119 0;
#X connect 101 0 82 1;
#X connect 102 0 6 0;
#X connect 103 0 7 0;
#X connect 104 0 8 0;
#X connect 105 0 9 0;
#X connect 106 0 107 0;
#X connect 106 1 108 0;
#X connect 109 0 106 0;
#X connect 111 0 16 0;
#X connect 112 0 16 1;
#X connect 113 0 16 2;
#X connect 114 0 16 3;
#X connect 115 0 114 1;
#X connect 115 0 113 1;
#X connect 115 0 112 1;
#X connect 115 0 111 1;
#X connect 116 0 114 1;
#X connect 116 0 113 1;
#X connect 116 0 112 1;
#X connect 116 0 111 1;
#X connect 117 0 120 0;
#X connect 117 0 96 1;
#X connect 118 0 97 1;
#X connect 119 0 98 1;
#X connect 120 0 118 0;
#X connect 120 1 118 1;
#X connect 121 0 95 1;
#X connect 122 0 82 0;
#X connect 123 0 124 0;
#X connect 124 0 122 0;
#X connect 124 0 127 0;
#X connect 124 1 122 1;
#X connect 124 1 24 0;
#X connect 124 1 128 0;
#X connect 125 0 1 0;
#X connect 126 0 109 0;
#X connect 129 0 123 0;
#X connect 130 0 22 0;
#X connect 131 0 31 0;
#X connect 132 0 36 0;
#X connect 133 0 41 0;
#X connect 134 0 130 0;
#X connect 134 0 133 0;
#X connect 134 0 132 0;
#X connect 134 0 131 0;
#X connect 135 0 29 0;
#X connect 135 0 34 0;
#X connect 135 0 44 0;
#X connect 135 0 39 0;
