#N canvas 752 117 990 865 10;
#X obj 641 229 t b b;
#X msg 598 342 0 \$1;
#X obj 586 424 * 4095;
#X obj 602 318 f;
#X obj 616 293 r decA;
#X obj 659 474 t b b;
#X msg 611 580 0 \$1;
#X obj 664 632 * 4095;
#X obj 615 556 f;
#X obj 629 531 r decF;
#X obj 726 599 r depthF;
#X obj 680 666 * 34.1333;
#X obj 663 698 +;
#X obj 384 -21 inlet;
#X obj 433 145 mtof;
#X obj 431 197 phasor~;
#X obj 398 13 unpack;
#X obj 352 152 mtof;
#X obj 353 239 phasor~;
#X obj 356 118 +;
#X obj 403 286 *~;
#X obj 479 272 / 2048;
#X obj 356 210 +~;
#X obj 371 384 outlet~;
#X obj 656 764 outlet;
#X obj 260 137 r detune2;
#X obj 563 206 r vol;
#X obj 395 94 r transpose2;
#X obj 402 67 stripnote;
#X floatatom 773 696 5 0 0 0 - - -, f 5;
#X obj 573 461 outlet;
#X floatatom 529 448 5 0 0 0 - - -, f 5;
#X floatatom 503 131 5 0 0 0 - - -, f 5;
#X floatatom 463 42 5 0 0 0 - - -, f 5;
#X floatatom 356 46 5 0 0 0 - - -, f 5;
#X obj 507 77 print;
#X msg 666 290 1 5;
#X msg 698 528 1 5;
#X obj 626 258 delay 5;
#X obj 607 501 delay 5;
#X obj 586 402 line 1 2;
#X obj 668 612 line 1 2;
#X connect 0 0 38 0;
#X connect 0 1 36 0;
#X connect 1 0 40 0;
#X connect 2 0 30 0;
#X connect 2 0 31 0;
#X connect 3 0 1 0;
#X connect 4 0 3 1;
#X connect 5 0 39 0;
#X connect 5 1 37 0;
#X connect 6 0 41 0;
#X connect 7 0 12 0;
#X connect 8 0 6 0;
#X connect 9 0 8 1;
#X connect 10 0 7 1;
#X connect 11 0 12 1;
#X connect 12 0 24 0;
#X connect 12 0 29 0;
#X connect 13 0 16 0;
#X connect 14 0 15 0;
#X connect 15 0 20 0;
#X connect 16 0 28 0;
#X connect 16 0 34 0;
#X connect 16 1 28 1;
#X connect 16 1 33 0;
#X connect 17 0 22 0;
#X connect 18 0 20 0;
#X connect 19 0 17 0;
#X connect 20 0 23 0;
#X connect 21 0 20 1;
#X connect 22 0 18 0;
#X connect 25 0 22 1;
#X connect 26 0 21 0;
#X connect 27 0 19 1;
#X connect 28 0 19 0;
#X connect 28 0 14 0;
#X connect 28 0 32 0;
#X connect 28 0 35 0;
#X connect 28 1 0 0;
#X connect 28 1 5 0;
#X connect 36 0 40 0;
#X connect 37 0 41 0;
#X connect 38 0 3 0;
#X connect 39 0 8 0;
#X connect 40 0 2 0;
#X connect 41 0 7 0;
