#N canvas 251 357 450 300 10;
#X obj 118 122 sel 13 10;
#X obj 156 162 tof/from_ascii_code 13;
#X obj 118 100 comport 1 115200;
#X obj 268 43 import mrpeach;
#X obj 63 212 s fromEncoders;
#X connect 0 1 1 0;
#X connect 0 2 1 0;
#X connect 1 0 4 0;
#X connect 2 0 0 0;
