#N canvas 435 7 1157 1001 10;
#X floatatom 141 230 5 0 0 0 - - -, f 5;
#X floatatom 191 231 5 0 0 0 - - -, f 5;
#X obj 225 88 encoder;
#X obj 147 159 r fromEncoders;
#X obj 296 141 sel 1;
#X obj 296 163 counter 8;
#X floatatom 296 185 5 0 0 0 - - -, f 5;
#X obj 147 181 routeOSC /1 /2 /3;
#X obj 294 220 sel 1 -1;
#X msg 414 204 0;
#X obj 335 322 f;
#X msg 271 293 1;
#X obj 276 323 +;
#X msg 324 291 -1;
#X obj 293 359 / 4;
#X floatatom 256 437 30 0 0 0 - - -, f 30;
#X obj 291 380 i;
#X obj 247 413 change;
#X msg 390 335 0;
#X connect 3 0 7 0;
#X connect 4 0 5 0;
#X connect 5 0 6 0;
#X connect 7 0 0 0;
#X connect 7 1 1 0;
#X connect 7 1 4 0;
#X connect 7 2 8 0;
#X connect 8 0 11 0;
#X connect 8 1 13 0;
#X connect 10 0 12 1;
#X connect 11 0 12 0;
#X connect 12 0 14 0;
#X connect 12 0 10 1;
#X connect 13 0 12 0;
#X connect 14 0 16 0;
#X connect 16 0 17 0;
#X connect 17 0 15 0;
#X connect 18 0 10 0;
