#N canvas 44 331 450 300 10;
#N canvas 0 22 450 300 enver 0;
#X obj 183 -93 env~;
#X floatatom 183 -71 5 0 0 0 - - -, f 5;
#X obj 187 -123 adc~ 1 2 3;
#X obj 173 135 tgl 15 0 empty empty empty 17 7 0 10 -262144 -1 -1 0
1;
#X obj 168 -48 f;
#X obj 239 -92 env~;
#X floatatom 239 -70 5 0 0 0 - - -, f 5;
#X obj 224 -47 f;
#X obj 298 -91 env~;
#X floatatom 298 -69 5 0 0 0 - - -, f 5;
#X obj 283 -46 f;
#X obj 143 9 line;
#X obj 142 -18 pack 0 0;
#X floatatom 240 135 5 0 0 0 - - -, f 5;
#X floatatom 143 31 5 0 0 0 - - -, f 5;
#X text 254 108 smoothing;
#X text 172 109 data rate ms;
#X floatatom 201 135 5 0 0 0 - - -, f 5;
#X obj 221 5 line;
#X obj 220 -19 pack 0 0;
#X floatatom 221 30 5 0 0 0 - - -, f 5;
#X obj 298 6 line;
#X obj 297 -21 pack 0 0;
#X floatatom 298 28 5 0 0 0 - - -, f 5;
#X obj 118 61 ctlout 10 1;
#X obj 212 61 ctlout 11 1;
#X obj 296 61 ctlout 12 1;
#X obj 136 188 osc~ 200;
#X obj 203 187 osc~ 400;
#X obj 268 188 osc~ 800;
#X obj 130 225 *~;
#X obj 208 223 *~;
#X obj 265 223 *~;
#X obj 206 294 *~ 0.333;
#X obj 32 116 /;
#X floatatom 288 135 5 1 1000 0 - - -, f 5;
#X obj 357 106 /;
#X obj 423 111 /;
#X text 310 114 range;
#X floatatom 56 185 5 0 0 0 - - -, f 5;
#X obj 513 -51 sfplay;
#X obj 207 316 dac~ 1 2 3 4;
#X obj 398 199 pvu~;
#X obj 401 228 vu 15 120 empty empty -1 -8 0 10 -66577 -1 1 0;
#X obj 467 202 pvu~;
#X obj 470 231 vu 15 120 empty empty -1 -8 0 10 -66577 -1 1 0;
#X obj 541 206 pvu~;
#X obj 544 235 vu 15 120 empty empty -1 -8 0 10 -66577 -1 1 0;
#X obj 88 -83 metro 10;
#X floatatom 373 141 5 0 0 0 - - -, f 5;
#X floatatom 435 140 5 0 0 0 - - -, f 5;
#X obj 485 54 > 0.5;
#X obj 485 76 sel 1;
#X obj 485 98 t b b;
#X obj 483 167 line;
#X msg 519 117 1 0;
#X msg 483 132 0 300;
#X obj 536 28 tgl 15 0 empty empty empty 17 7 0 10 -262144 -1 -1 0
1;
#X connect 0 0 1 0;
#X connect 0 0 4 1;
#X connect 2 0 0 0;
#X connect 2 1 5 0;
#X connect 2 2 8 0;
#X connect 3 0 48 0;
#X connect 4 0 12 0;
#X connect 5 0 6 0;
#X connect 5 0 7 1;
#X connect 7 0 19 0;
#X connect 8 0 9 0;
#X connect 8 0 10 1;
#X connect 10 0 22 0;
#X connect 11 0 14 0;
#X connect 11 0 24 0;
#X connect 11 0 34 0;
#X connect 12 0 11 0;
#X connect 13 0 12 1;
#X connect 13 0 19 1;
#X connect 13 0 22 1;
#X connect 17 0 48 1;
#X connect 18 0 20 0;
#X connect 18 0 25 0;
#X connect 18 0 36 0;
#X connect 19 0 18 0;
#X connect 21 0 23 0;
#X connect 21 0 26 0;
#X connect 21 0 37 0;
#X connect 22 0 21 0;
#X connect 27 0 30 0;
#X connect 28 0 31 0;
#X connect 29 0 32 0;
#X connect 30 0 42 0;
#X connect 31 0 33 0;
#X connect 31 0 44 0;
#X connect 32 0 46 0;
#X connect 33 0 41 0;
#X connect 33 0 41 1;
#X connect 33 0 41 2;
#X connect 33 0 41 3;
#X connect 34 0 30 1;
#X connect 34 0 39 0;
#X connect 35 0 34 1;
#X connect 35 0 36 1;
#X connect 35 0 37 1;
#X connect 36 0 49 0;
#X connect 36 0 51 0;
#X connect 37 0 32 1;
#X connect 37 0 50 0;
#X connect 42 0 43 0;
#X connect 44 0 45 0;
#X connect 46 0 47 0;
#X connect 48 0 4 0;
#X connect 48 0 7 0;
#X connect 48 0 10 0;
#X connect 51 0 52 0;
#X connect 51 0 57 0;
#X connect 52 0 53 0;
#X connect 53 0 56 0;
#X connect 53 1 55 0;
#X connect 54 0 31 1;
#X connect 55 0 54 0;
#X connect 56 0 54 0;
#X coords 0 -1 1 1 200 60 1 150 100;
#X restore 173 71 pd enver;
