#N canvas 389 375 1332 559 10;
#X text 4 -358 table 0 IL 1 T1 2 L1 3 T2 4 L2 5 T3 6 L3 7 T4 8 L4 9
T5 10 L5 11 T6 12 L6 13 R 14 LS 15 LE 16 VL, f 5;
#X floatatom 356 -349 15 0 0 0 - - -, f 15;
#X floatatom 299 -368 5 0 0 0 - - -, f 5;
#X obj 41 -82 s \$1change;
#X obj 43 154 s valuedisp;
#X obj 40 181 s \$1change;
#X obj 831 154 s valuedisp;
#X obj 832 179 s \$1change;
#X obj 944 154 s valuedisp;
#X obj 1169 154 s valuedisp;
#X obj 1169 181 s \$1change;
#X obj 945 181 s \$1change;
#X obj 1057 154 s valuedisp;
#X obj 1061 181 s \$1change;
#X obj 295 -342 tabread \$2;
#X obj 142 -347 table \$2 17;
#X obj 39 -42 paramnum \$1Init \$5 1 0 4095 \$2 0 \$3 \$4 1;
#X obj 115 -215 paramnum \$1T4 \$5 2 0 5000 \$2 7 \$3;
#X obj 44 -215 paramnum \$1L4 \$5 3 0 4095 \$2 8 \$3;
#X obj 115 -194 paramnum \$1T5 \$5 3 0 5000 \$2 9 \$3;
#X obj 44 -193 paramnum \$1L5 \$5 5 0 4095 \$2 10 \$3;
#X obj 44 -173 paramnum \$1L6 \$5 7 0 4095 \$2 12 \$3;
#X obj 115 -173 paramnum \$1T6 \$5 6 0 5000 \$2 11 \$3;
#X text 481 -381 \$1 name \$2tablename \$3 \$0parent \$4 pagestart
\$5 pageend;
#X obj 44 -299 paramnum \$1Init \$4 1 0 4095 \$2 0 \$3 \$5 1;
#X obj 115 -278 paramnum \$1T1 \$4 2 0 5000 \$2 1 \$3;
#X obj 44 -277 paramnum \$1L1 \$4 3 0 4095 \$2 2 \$3;
#X obj 115 -257 paramnum \$1T2 \$4 4 0 5000 \$2 3 \$3;
#X obj 44 -256 paramnum \$1L2 \$4 5 0 4095 \$2 4 \$3;
#X obj 115 -236 paramnum \$1T3 \$4 6 0 5000 \$2 5 \$3;
#X obj 44 -235 paramnum \$1L3 \$4 7 0 4095 \$2 6 \$3;
#X obj 44 -152 paramnum \$1Rel \$4 8 0 5000 \$2 13 \$3 \$5 8;
#X obj 115 -146 paramnum \$1lpS \$4 9 0 6 \$2 14 \$3 \$5 9;
#X obj 115 -125 paramnum \$1LpE \$4 10 0 6 \$2 15 \$3 \$5 10;
#X obj 44 -126 paramnum \$1Res \$4 11 0 4095 \$2 16 \$3 \$5 11;
#X obj 840 -56 paramnum \$1Rel \$5 8 0 5000 \$2 13 \$3 \$4 8;
#X obj 944 -42 paramnum \$1LpS \$5 9 0 6 \$2 14 \$3 \$4 9;
#X obj 1060 -42 paramnum \$1Res \$5 11 0 4095 \$2 16 \$3 \$4 11;
#X obj 1172 -42 paramnum \$1LpE \$5 10 0 6 \$2 15 \$3 \$4 10;
#X connect 2 0 14 0;
#X connect 14 0 1 0;
#X connect 17 0 3 0;
#X connect 18 0 3 0;
#X connect 19 0 3 0;
#X connect 20 0 3 0;
#X connect 21 0 3 0;
#X connect 22 0 3 0;
#X connect 24 0 3 0;
#X connect 25 0 3 0;
#X connect 26 0 3 0;
#X connect 27 0 3 0;
#X connect 28 0 3 0;
#X connect 29 0 3 0;
#X connect 30 0 3 0;
#X connect 31 0 3 0;
#X connect 32 0 3 0;
#X connect 33 0 3 0;
#X connect 34 0 3 0;
#X connect 35 0 6 0;
#X connect 35 0 7 0;
#X connect 36 0 8 0;
#X connect 36 0 11 0;
#X connect 37 0 12 0;
#X connect 37 0 13 0;
#X connect 38 0 9 0;
#X connect 38 0 10 0;
#X coords 0 -1 1 1 154 207 2 38 -302;
