#N canvas 234 373 1332 559 10;
#X floatatom 356 -349 15 0 0 0 - - -, f 15;
#X floatatom 299 -368 5 0 0 0 - - -, f 5;
#X obj 41 -82 s \$1change;
#X obj 19 -44 s valuedisp;
#X obj 40 181 s \$1change;
#X obj 831 154 s valuedisp;
#X obj 832 179 s \$1change;
#X obj 944 154 s valuedisp;
#X obj 1169 154 s valuedisp;
#X obj 1169 181 s \$1change;
#X obj 945 181 s \$1change;
#X obj 1057 154 s valuedisp;
#X obj 1061 181 s \$1change;
#X obj 295 -342 tabread \$2;
#X obj 109 -63 parameter \$1Init \$5 1 0 4095 \$2 0 \$3 \$4 1;
#X obj 284 -301 parameter \$1T4 \$5 2 1 5000 \$2 7 \$3;
#X obj 319 -301 parameter \$1L4 \$5 3 0 4095 \$2 8 \$3;
#X obj 354 -301 parameter \$1T5 \$5 3 1 5000 \$2 9 \$3;
#X obj 389 -301 parameter \$1L5 \$5 5 0 4095 \$2 10 \$3;
#X obj 459 -301 parameter \$1L6 \$5 7 0 4095 \$2 12 \$3;
#X obj 424 -301 parameter \$1T6 \$5 6 1 5000 \$2 11 \$3;
#X text 481 -381 \$1 name \$2tablename \$3 \$0parent \$4 pagestart
\$5 pageend;
#X obj 39 -301 parameter \$1Init \$4 1 1 4095 \$2 0 \$3 \$5 1;
#X obj 74 -301 parameter \$1T1 \$4 2 1 5000 \$2 1 \$3;
#X obj 109 -301 parameter \$1L1 \$4 3 0 4095 \$2 2 \$3;
#X obj 144 -301 parameter \$1T2 \$4 4 1 5000 \$2 3 \$3;
#X obj 179 -301 parameter \$1L2 \$4 5 0 4095 \$2 4 \$3;
#X obj 214 -301 parameter \$1T3 \$4 6 1 5000 \$2 5 \$3;
#X obj 249 -301 parameter \$1L3 \$4 7 0 4095 \$2 6 \$3;
#X obj 494 -301 parameter \$1Rel \$4 8 1 5000 \$2 13 \$3 \$5 8;
#X obj 840 -56 parameter \$1Rel \$5 8 1 5000 \$2 13 \$3 \$4 8;
#X obj 944 -42 parameter \$1LpS \$5 9 0 6 \$2 14 \$3 \$4 9;
#X obj 1060 -42 parameter \$1Res \$5 11 0 4095 \$2 16 \$3 \$4 11;
#X obj 1172 -42 parameter \$1LpE \$5 10 0 6 \$2 15 \$3 \$4 10;
#X obj 564 -300 paramnum \$1lpS \$4 9 0 6 \$2 14 \$3 \$5 9;
#X obj 564 -279 paramnum \$1LpE \$4 10 0 6 \$2 15 \$3 \$5 10;
#X obj 564 -258 paramnum \$1LpR \$4 10 0 1 \$2 16 \$3 \$5 10;
#X obj 142 -347 table \$2 32;
#X obj 527 -301 parameter \$1RLev \$4 8 1 4095 \$2 17 \$3 \$5 8;
#X text 4 -358 table 0 IL 1 T1 2 L1 3 T2 4 L2 5 T3 6 L3 7 T4 8 L4 9
T5 10 L5 11 T6 12 L6 13 R 14 LS 15 LE 16 LR 17 RL, f 5;
#X connect 1 0 13 0;
#X connect 13 0 0 0;
#X connect 15 0 2 0;
#X connect 15 0 3 0;
#X connect 16 0 2 0;
#X connect 16 0 3 0;
#X connect 17 0 2 0;
#X connect 17 0 3 0;
#X connect 18 0 2 0;
#X connect 18 0 3 0;
#X connect 19 0 2 0;
#X connect 19 0 3 0;
#X connect 20 0 2 0;
#X connect 20 0 3 0;
#X connect 22 0 2 0;
#X connect 22 0 3 0;
#X connect 23 0 2 0;
#X connect 23 0 3 0;
#X connect 24 0 2 0;
#X connect 24 0 3 0;
#X connect 25 0 2 0;
#X connect 25 0 3 0;
#X connect 26 0 2 0;
#X connect 26 0 3 0;
#X connect 27 0 2 0;
#X connect 27 0 3 0;
#X connect 28 0 2 0;
#X connect 28 0 3 0;
#X connect 29 0 2 0;
#X connect 29 0 3 0;
#X connect 30 0 5 0;
#X connect 30 0 6 0;
#X connect 31 0 7 0;
#X connect 31 0 10 0;
#X connect 32 0 11 0;
#X connect 32 0 12 0;
#X connect 33 0 8 0;
#X connect 33 0 9 0;
#X connect 34 0 2 0;
#X connect 35 0 2 0;
#X coords 0 -1 1 1 598 206 2 38 -302;
