#N canvas 539 343 1074 662 10;
#X text 43 -263 table 0 IL 1 T1 2 L1 3 T2 4 L2 5 T3 6 L3 7 T4 8 L4
9 T5 10 L5 11 T6 12 L6 13 R 14 LS 15 LE 16 VL, f 5;
#X floatatom 294 -324 15 0 0 0 - - -, f 15;
#X floatatom 299 -368 5 0 0 0 - - -, f 5;
#X obj 301 -285 s valuedisp;
#X obj 181 -219 s valuedisp;
#X obj 256 -218 s \$1change;
#X obj 376 -285 s \$1change;
#X obj 297 -180 s valuedisp;
#X obj 181 -138 s valuedisp;
#X obj 256 -137 s \$1change;
#X obj 372 -180 s \$1change;
#X obj 300 -99 s valuedisp;
#X obj 184 -57 s valuedisp;
#X obj 259 -56 s \$1change;
#X obj 375 -99 s \$1change;
#X obj 300 -18 s valuedisp;
#X obj 594 -217 s valuedisp;
#X obj 669 -216 s \$1change;
#X obj 375 -18 s \$1change;
#X obj 714 -177 s valuedisp;
#X obj 598 -135 s valuedisp;
#X obj 673 -134 s \$1change;
#X obj 789 -177 s \$1change;
#X obj 714 -96 s valuedisp;
#X obj 598 -54 s valuedisp;
#X obj 673 -53 s \$1change;
#X obj 789 -96 s \$1change;
#X obj 717 -15 s valuedisp;
#X obj 183 51 s valuedisp;
#X obj 258 52 s \$1change;
#X obj 792 -15 s \$1change;
#X obj 180 94 s valuedisp;
#X obj 183 139 s valuedisp;
#X obj 258 140 s \$1change;
#X obj 255 94 s \$1change;
#X obj 729 -293 s valuedisp;
#X obj 804 -293 s \$1change;
#X obj 596 50 s valuedisp;
#X obj 671 51 s \$1change;
#X obj 593 93 s valuedisp;
#X obj 596 138 s valuedisp;
#X obj 671 139 s \$1change;
#X obj 668 93 s \$1change;
#X obj 185 191 s valuedisp;
#X obj 260 192 s \$1change;
#X obj 610 196 s valuedisp;
#X obj 685 197 s \$1change;
#X obj 295 -342 tabread \$2;
#X obj 142 -347 table \$2 17;
#X obj 606 -313 parameter \$1Init \$5 1 0 4095 \$2 0 \$3 \$4 1;
#X obj 593 -241 parameter \$1T4 \$5 2 0 5000 \$2 7 \$3;
#X obj 591 -197 parameter \$1L4 \$5 3 0 4095 \$2 8 \$3;
#X obj 597 -159 parameter \$1T5 \$5 3 0 5000 \$2 9 \$3;
#X obj 592 -116 parameter \$1L5 \$5 5 0 4095 \$2 10 \$3;
#X obj 594 -35 parameter \$1L6 \$5 7 0 4095 \$2 12 \$3;
#X obj 594 25 parameter \$1Release \$5 8 0 5000 \$2 13 \$3 \$4 8;
#X obj 590 70 parameter \$1LoopStart \$5 9 0 6 \$2 14 \$3 \$4 9;
#X obj 595 114 parameter \$1LoopEnd \$5 10 0 6 \$2 15 \$3 \$4 10;
#X obj 597 -78 parameter \$1T6 \$5 6 0 5000 \$2 11 \$3;
#X text 475 -371 \$1 name \$2tablename \$3 \$0parent \$4 pagestart
\$5 pageend;
#X obj 178 -305 parameter \$1Init \$4 1 0 4095 \$2 0 \$3 \$5 1;
#X obj 179 -244 parameter \$1T1 \$4 2 0 5000 \$2 1 \$3;
#X obj 173 -201 parameter \$1L1 \$4 3 0 4095 \$2 2 \$3;
#X obj 180 -163 parameter \$1T2 \$4 4 0 5000 \$2 3 \$3;
#X obj 177 -119 parameter \$1L2 \$4 5 0 4095 \$2 4 \$3;
#X obj 183 -81 parameter \$1T3 \$4 6 0 5000 \$2 5 \$3;
#X obj 176 -38 parameter \$1L3 \$4 7 0 4095 \$2 6 \$3;
#X obj 182 26 parameter \$1Release \$4 8 0 5000 \$2 13 \$3 \$5 8;
#X obj 176 71 parameter \$1LoopStart \$4 9 0 6 \$2 14 \$3 \$5 9;
#X obj 182 114 parameter \$1LoopEnd \$4 10 0 6 \$2 15 \$3 \$5 10;
#X obj 169 167 parameter \$1Resonance \$4 11 0 4095 \$2 16 \$3 \$5
11;
#X obj 610 172 parameter \$1Resonance \$5 11 0 4095 \$2 16 \$3 \$4
11;
#X connect 2 0 47 0;
#X connect 47 0 1 0;
#X connect 49 1 35 0;
#X connect 49 1 36 0;
#X connect 50 0 16 0;
#X connect 50 0 17 0;
#X connect 51 1 19 0;
#X connect 51 1 22 0;
#X connect 52 0 20 0;
#X connect 52 0 21 0;
#X connect 53 1 23 0;
#X connect 53 1 26 0;
#X connect 54 1 27 0;
#X connect 54 1 30 0;
#X connect 55 0 37 0;
#X connect 55 0 38 0;
#X connect 56 0 39 0;
#X connect 56 0 42 0;
#X connect 57 0 40 0;
#X connect 57 0 41 0;
#X connect 58 0 24 0;
#X connect 58 0 25 0;
#X connect 60 1 3 0;
#X connect 60 1 6 0;
#X connect 61 0 4 0;
#X connect 61 0 5 0;
#X connect 62 1 7 0;
#X connect 62 1 10 0;
#X connect 63 0 8 0;
#X connect 63 0 9 0;
#X connect 64 1 11 0;
#X connect 64 1 14 0;
#X connect 65 0 12 0;
#X connect 65 0 13 0;
#X connect 66 1 15 0;
#X connect 66 1 18 0;
#X connect 67 0 28 0;
#X connect 67 0 29 0;
#X connect 68 0 31 0;
#X connect 68 0 34 0;
#X connect 69 0 32 0;
#X connect 69 0 33 0;
#X connect 70 0 43 0;
#X connect 70 0 44 0;
#X connect 71 0 45 0;
#X connect 71 0 46 0;
