#N canvas 305 93 450 295 10;
#X obj 64 35 import mrpeach;
#X obj 78 107 unpackOSC;
#X obj 248 218 dac~;
#X obj 254 163 osc~ 1000;
#X obj 187 139 * 10000;
#X floatatom 200 90 5 0 0 0 - - -, f 5;
#X msg 291 106 0.01;
#X obj 321 225 packOSC;
#X obj 372 74 metro 50;
#X obj 372 96 counter 100;
#X obj 372 118 / 100;
#X obj 371 47 tgl 15 0 empty empty empty 17 7 0 10 -262144 -1 -1 0
1;
#X msg 318 167 send /fader1 \$1;
#X floatatom 372 140 5 0 0 0 - - -, f 5;
#X msg 384 193 send /fader1/0.5;
#X obj 107 268 udpsend 8080;
#X msg 85 211 connect 127.0.0.1 9091;
#X obj 77 146 routeOSC /fader1;
#X floatatom 77 168 5 0 0 0 - - -, f 5;
#X obj 75 75 udpreceive 9090;
#X connect 1 0 17 0;
#X connect 3 0 2 0;
#X connect 4 0 3 0;
#X connect 5 0 4 0;
#X connect 6 0 4 0;
#X connect 7 0 15 0;
#X connect 8 0 9 0;
#X connect 9 0 10 0;
#X connect 10 0 12 0;
#X connect 10 0 13 0;
#X connect 11 0 8 0;
#X connect 12 0 7 0;
#X connect 14 0 7 0;
#X connect 16 0 15 0;
#X connect 17 0 4 0;
#X connect 17 0 18 0;
#X connect 19 0 1 0;
