#N canvas 1835 379 450 300 10;
#X obj 102 60 inlet~;
#X obj 116 161 *~;
#X obj 169 213 outlet~;
#X obj 154 103 expr~ 1-$v1;
#X obj 208 53 inlet~;
#X obj 320 60 inlet~;
#X obj 315 90 clip~ 0 1;
#X obj 240 156 *~;
#X connect 0 0 1 0;
#X connect 1 0 2 0;
#X connect 3 0 1 1;
#X connect 4 0 7 0;
#X connect 5 0 6 0;
#X connect 6 0 7 1;
#X connect 6 0 3 0;
#X connect 7 0 2 0;
