#N canvas 559 48 1270 964 10;
#X obj 657 852 tof/from_ascii_code 13;
#X msg 250 113 close;
#X obj 610 825 sel 13 10;
#X msg 186 174 10, f 4;
#X msg 139 24 print /5/20/20/30/30/123567/;
#X msg 421 83 close;
#X msg 103 2 print /18/;
#X obj 186 46 r toDisplay;
#X obj 446 177 tof/from_ascii_code 13;
#X obj 406 148 sel 13 10;
#X obj 454 206 s fromCtlr;
#X obj 215 747 s redraw;
#X msg 218 715 1;
#X obj 715 881 s fromDisplay;
#X msg 88 73 print /12/0/;
#X msg 468 97 ports;
#X obj 45 470 mrpeach/routeOSC /pot1 /pot2 /pot3 /pot4 /pot5 /pot6
/pot7 /pot8 /pot9 /pot10 /pot11 /pot12;
#X obj 89 53 loadbang;
#X obj 87 97 delay 20;
#X obj 89 141 delay 20;
#X obj 524 134 print;
#X msg 237 170 open 1;
#X obj 139 383 s paramdisp;
#X msg 143 351 hello;
#X msg 69 536 1;
#X obj 40 620 r page;
#X obj 98 652 pack 0 0 0;
#X obj 53 500 t b b f;
#X obj 109 500 t b b f;
#X obj 164 501 t b b f;
#X obj 220 501 t b b f;
#X obj 276 504 t b b f;
#X obj 332 504 t b b f;
#X obj 89 565 t b b f;
#X obj 145 565 t b b f;
#X obj 202 553 t b b f;
#X obj 256 560 t b b f;
#X obj 312 569 t b b f;
#X obj 368 569 t b b f;
#X msg 125 536 3;
#X msg 180 537 5;
#X msg 292 540 9;
#X msg 348 540 11;
#X msg 236 537 7;
#X msg 105 601 2;
#X msg 161 601 4;
#X msg 216 602 6;
#X msg 272 602 8;
#X msg 328 605 10;
#X msg 384 605 12;
#X obj 92 690 s encoders;
#X obj 187 101 t b a b;
#X msg 224 127 stop;
#X obj 220 654 t b b;
#X msg 96 162 print /14/3/;
#X obj 218 693 delay 20000;
#X obj 52 440 r fromCtlr;
#X msg 258 671 stop;
#X obj 35 653 f;
#X obj 185 150 delay 5;
#X obj 626 329 f;
#X obj 678 326 + 1;
#X obj 644 355 list append;
#X msg 726 404 clear;
#X msg 673 299 0;
#X obj 622 507 f;
#X obj 657 508 + 1;
#X obj 652 601 sel 1;
#X obj 599 266 t b b a b;
#X obj 571 641 t b b;
#X obj 630 527 t b f f;
#X obj 680 721 t b a b;
#X msg 668 764 10;
#X obj 622 221 r toDisplay;
#X obj 695 157 textsender;
#X obj 859 83 numbersender;
#X obj 719 107 r totext;
#X obj 868 34 r tonumber;
#X obj 873 801 route complete;
#X obj 873 822 t b;
#X obj 726 381 loadbang;
#X obj 673 277 loadbang;
#X obj 717 471 loadbang;
#X msg 991 829 stop;
#X obj 591 311 bng 15 250 50 0 empty empty empty 17 7 0 10 -262144
-1 -1;
#X obj 456 441 bng 15 250 50 0 empty empty empty 17 7 0 10 -262144
-1 -1;
#X obj 492 397 sel 0;
#X obj 514 751 print tocomport;
#X msg 658 667 stop;
#X msg 781 136 test 7 2.55e+008 20 20;
#X msg 720 501 0;
#X obj 652 574 >;
#X obj 769 620 spigot;
#X obj 708 573 <=;
#X floatatom 881 491 5 0 0 0 - - -, f 5;
#X obj 688 429 coll 1;
#C restore;
#X obj 637 804 comport 1 115200;
#X msg 421 61 open 0;
#X msg 733 763 open 1;
#X msg 760 735 close;
#X obj 419 125 comport 0 9600;
#X msg 749 690 ports;
#X floatatom 35 675 5 0 0 0 - - -, f 5;
#X obj 91 714 r encoders;
#X obj 90 733 unpack 0 0 0;
#X floatatom 91 758 5 0 0 0 - - -, f 5;
#X floatatom 129 759 5 0 0 0 - - -, f 5;
#X floatatom 168 760 5 0 0 0 - - -, f 5;
#X obj 1032 256 import mrpeach;
#X obj 1043 313 udpreceive 9090;
#X obj 1043 335 unpackOSC;
#X obj 1130 343 print OSCin;
#X obj 1045 594 packOSC;
#X obj 1041 484 r toOSC;
#X obj 1043 357 s fromOSC;
#X obj 1150 577 loadbang;
#X obj 1150 599 delay 5000;
#X msg 1150 621 connect 127.0.0.1 9091;
#X obj 1042 664 udpsend;
#X obj 1044 563 prepend send;
#X msg 1108 516 /1Init 0.1;
#X connect 0 0 13 0;
#X connect 0 0 78 0;
#X connect 2 1 0 0;
#X connect 2 2 0 0;
#X connect 4 0 51 0;
#X connect 5 0 100 0;
#X connect 8 0 10 0;
#X connect 9 1 8 0;
#X connect 9 2 8 0;
#X connect 12 0 11 0;
#X connect 15 0 100 0;
#X connect 16 0 27 0;
#X connect 16 1 33 0;
#X connect 16 2 28 0;
#X connect 16 3 34 0;
#X connect 16 4 29 0;
#X connect 16 5 35 0;
#X connect 16 6 30 0;
#X connect 16 7 36 0;
#X connect 16 8 31 0;
#X connect 16 9 37 0;
#X connect 16 10 32 0;
#X connect 16 11 38 0;
#X connect 17 0 18 0;
#X connect 17 0 14 0;
#X connect 18 0 19 0;
#X connect 18 0 3 0;
#X connect 19 0 54 0;
#X connect 23 0 22 0;
#X connect 24 0 26 1;
#X connect 25 0 58 1;
#X connect 26 0 50 0;
#X connect 27 0 58 0;
#X connect 27 1 24 0;
#X connect 27 2 26 2;
#X connect 28 0 58 0;
#X connect 28 1 39 0;
#X connect 28 2 26 2;
#X connect 29 0 58 0;
#X connect 29 1 40 0;
#X connect 29 2 26 2;
#X connect 30 0 58 0;
#X connect 30 1 43 0;
#X connect 30 2 26 2;
#X connect 31 0 58 0;
#X connect 31 1 41 0;
#X connect 31 2 26 2;
#X connect 32 0 58 0;
#X connect 32 1 42 0;
#X connect 32 2 26 2;
#X connect 33 0 58 0;
#X connect 33 1 44 0;
#X connect 33 2 26 2;
#X connect 34 0 58 0;
#X connect 34 1 45 0;
#X connect 34 2 26 2;
#X connect 35 0 58 0;
#X connect 35 1 46 0;
#X connect 35 2 26 2;
#X connect 36 0 58 0;
#X connect 36 1 47 0;
#X connect 36 2 26 2;
#X connect 37 0 58 0;
#X connect 37 1 48 0;
#X connect 37 2 26 2;
#X connect 38 0 58 0;
#X connect 38 1 49 0;
#X connect 38 2 26 2;
#X connect 39 0 26 1;
#X connect 40 0 26 1;
#X connect 41 0 26 1;
#X connect 42 0 26 1;
#X connect 43 0 26 1;
#X connect 44 0 26 1;
#X connect 45 0 26 1;
#X connect 46 0 26 1;
#X connect 47 0 26 1;
#X connect 48 0 26 1;
#X connect 49 0 26 1;
#X connect 51 0 59 0;
#X connect 51 2 52 0;
#X connect 52 0 59 0;
#X connect 53 0 55 0;
#X connect 53 1 57 0;
#X connect 54 0 51 0;
#X connect 55 0 12 0;
#X connect 56 0 16 0;
#X connect 57 0 55 0;
#X connect 58 0 26 0;
#X connect 58 0 102 0;
#X connect 59 0 3 0;
#X connect 60 0 61 0;
#X connect 60 0 62 0;
#X connect 60 0 86 0;
#X connect 60 0 91 1;
#X connect 60 0 93 1;
#X connect 61 0 60 1;
#X connect 62 0 95 0;
#X connect 63 0 95 0;
#X connect 64 0 60 1;
#X connect 65 0 66 0;
#X connect 65 0 70 0;
#X connect 66 0 65 1;
#X connect 67 0 69 0;
#X connect 68 1 60 0;
#X connect 68 2 62 1;
#X connect 69 0 90 0;
#X connect 69 0 63 0;
#X connect 69 0 64 0;
#X connect 69 1 88 0;
#X connect 70 1 91 0;
#X connect 70 1 93 0;
#X connect 70 2 95 0;
#X connect 71 0 72 0;
#X connect 71 1 96 0;
#X connect 72 0 96 0;
#X connect 73 0 68 0;
#X connect 76 0 74 0;
#X connect 77 0 75 0;
#X connect 78 0 79 0;
#X connect 79 0 92 0;
#X connect 80 0 63 0;
#X connect 81 0 64 0;
#X connect 82 0 90 0;
#X connect 84 0 60 0;
#X connect 86 0 85 0;
#X connect 86 0 65 0;
#X connect 89 0 74 0;
#X connect 90 0 65 1;
#X connect 91 0 67 0;
#X connect 92 0 65 0;
#X connect 93 0 92 1;
#X connect 95 0 71 0;
#X connect 96 0 2 0;
#X connect 97 0 100 0;
#X connect 98 0 96 0;
#X connect 99 0 96 0;
#X connect 100 0 9 0;
#X connect 100 1 20 0;
#X connect 101 0 96 0;
#X connect 103 0 104 0;
#X connect 104 0 105 0;
#X connect 104 1 106 0;
#X connect 104 2 107 0;
#X connect 109 0 110 0;
#X connect 110 0 111 0;
#X connect 110 0 114 0;
#X connect 112 0 118 0;
#X connect 113 0 119 0;
#X connect 115 0 116 0;
#X connect 116 0 117 0;
#X connect 117 0 118 0;
#X connect 119 0 112 0;
#X connect 120 0 119 0;
