#N canvas 0 275 450 300 10;
#X obj 126 142 makenote;
#X floatatom 200 147 5 0 0 0 - - -, f 5;
#X obj 77 46 metro 120;
#X obj 75 23 tgl 15 0 empty empty empty 17 7 0 10 -262144 -1 -1 0 1
;
#X obj 73 78 f;
#X obj 117 79 + 1;
#X obj 73 124 sel 15;
#X msg 73 147 0;
#X floatatom 40 109 5 0 0 0 - - -, f 5;
#X obj 205 18 loadbang;
#X obj 124 168 noteout 1;
#X msg 207 61 127;
#X obj 93 102 + 40;
#X connect 0 0 10 0;
#X connect 0 1 10 1;
#X connect 1 0 10 2;
#X connect 2 0 4 0;
#X connect 3 0 2 0;
#X connect 4 0 5 0;
#X connect 4 0 6 0;
#X connect 4 0 12 0;
#X connect 5 0 4 1;
#X connect 6 0 7 0;
#X connect 7 0 4 1;
#X connect 9 0 11 0;
#X connect 9 0 3 0;
#X connect 11 0 0 2;
#X connect 11 0 0 1;
#X connect 12 0 0 0;
#X connect 12 0 8 0;
