#N canvas 1028 229 626 543 10;
#X obj 135 144 ctlin 6;
#X obj 135 166 pack;
#X msg 135 188 \$2 \$1;
#X obj 135 210 route 1;
#X obj 189 164 pack;
#X msg 189 186 \$2 \$1;
#X obj 189 208 route 1;
#X obj 243 163 pack;
#X msg 243 185 \$2 \$1;
#X obj 243 207 route 1;
#X obj 189 142 ctlin 38;
#X obj 243 141 ctlin 98;
#X obj 139 345 outlet;
#X obj 192 397 outlet;
#X obj 138 254 pack 0 0 0;
#X msg 138 276 \$3 \$2 \$1;
#X obj 146 299 unpack 0 0 0;
#X obj 219 342 * 127;
#X obj 190 368 +;
#X connect 0 0 1 0;
#X connect 0 1 1 1;
#X connect 1 0 2 0;
#X connect 2 0 3 0;
#X connect 3 0 14 0;
#X connect 4 0 5 0;
#X connect 5 0 6 0;
#X connect 6 0 14 1;
#X connect 7 0 8 0;
#X connect 8 0 9 0;
#X connect 9 0 14 2;
#X connect 10 0 4 0;
#X connect 10 1 4 1;
#X connect 11 0 7 0;
#X connect 11 1 7 1;
#X connect 14 0 15 0;
#X connect 15 0 16 0;
#X connect 16 0 12 0;
#X connect 16 1 18 0;
#X connect 16 2 17 0;
#X connect 17 0 18 1;
#X connect 18 0 13 0;
