#N canvas 228 241 743 453 10;
#X obj 284 82 inlet;
#X obj 351 98 inlet;
#X obj 345 264 mod 127;
#X obj 442 226 / 127;
#X obj 430 252 i;
#X obj 220 338 ctlout 98 1;
#X obj 318 336 ctlout 38 1;
#X obj 403 331 ctlout 6 1;
#X obj 130 334 ctlout 99 1;
#X msg 155 262 0;
#X obj 370 142 t b b f;
#X obj 273 262 f;
#X connect 0 0 11 1;
#X connect 1 0 10 0;
#X connect 2 0 6 0;
#X connect 3 0 4 0;
#X connect 4 0 7 0;
#X connect 9 0 8 0;
#X connect 10 0 9 0;
#X connect 10 1 11 0;
#X connect 10 2 2 0;
#X connect 10 2 3 0;
#X connect 11 0 5 0;
