#N canvas 537 232 613 504 10;
#X obj 155 -31 inlet;
#X msg 399 14 text size colour x y;
#X obj 246 160 pack;
#X text 233 11 text size colour x y;
#X obj 152 418 s toDisplay;
#X msg 184 274 print /14/\$1/;
#X msg 225 244 print /12/\$1/;
#X msg 276 211 print /11/\$1/\$2/;
#X msg 142 370 print /17/\$1/;
#X msg 238 48 1.1 7 10000 120 90;
#X obj 178 80 unpack f f f f f b;
#X connect 0 0 10 0;
#X connect 2 0 7 0;
#X connect 5 0 4 0;
#X connect 6 0 4 0;
#X connect 7 0 4 0;
#X connect 8 0 4 0;
#X connect 9 0 10 0;
#X connect 10 0 8 0;
#X connect 10 1 5 0;
#X connect 10 2 6 0;
#X connect 10 3 2 0;
#X connect 10 4 2 1;
#X coords 0 -1 1 1 157 31 1 215 0;
