#N canvas 76 183 278 181 10;
#N canvas 280 94 221 450 system 1;
#N canvas 696 430 467 533 shellzone 0;
#X obj 109 -143 print SDOUT;
#X obj 132 -167 print done;
#X obj 108 -223 shell;
#X obj 72 -604 loadbang;
#X msg 162 -374 sudo pkill pd-l2ork;
#X obj 172 -284 r toshell;
#X obj 112 -194 s fromshell;
#X msg 106 -481 aconnect 20:0 128:0;
#X obj 224 -171 s done;
#X obj 106 -528 delay 8000;
#X obj 282 -640 r gridbuts;
#N canvas 331 238 1129 705 controller 0;
#X obj 996 219 s paramdisp;
#X obj 91 452 s valuedisp;
#X obj 192 -80 unpack;
#X floatatom 187 -56 5 0 0 0 - - -, f 5;
#X floatatom 234 -57 5 0 0 0 - - -, f 5;
#X obj 166 -160 r encoders;
#X obj 973 -121 change;
#X obj 973 -100 sel 1 2 3 4 5 6 7 8 9 10 11 12;
#X obj 135 -26 route 1 2 3 4 5 6 7 8 9 10 11 12;
#X obj 164 -109 t l l;
#X msg 1077 173 Resonance;
#X msg 954 -62 FilterInit;
#X obj 28 47 f;
#X obj 3 1 t b f;
#X obj 6 47 +;
#X obj 29 25 / 4;
#X obj 8 89 i;
#X obj 8 111 change;
#X obj 50 361 outlet;
#X obj 109 399 outlet;
#X obj 187 400 outlet;
#X obj 271 404 outlet;
#X obj 354 409 outlet;
#X obj 434 415 outlet;
#X obj 502 417 outlet;
#X obj 583 422 outlet;
#X obj 667 427 outlet;
#X obj 753 433 outlet;
#X obj 835 441 outlet;
#X obj 920 460 outlet;
#X obj 109 47 f;
#X obj 84 1 t b f;
#X obj 87 47 +;
#X obj 110 25 / 4;
#X obj 89 89 i;
#X obj 89 113 change;
#X obj 188 48 f;
#X obj 163 2 t b f;
#X obj 166 48 +;
#X obj 189 26 / 4;
#X obj 168 90 i;
#X obj 168 112 change;
#X obj 274 47 f;
#X obj 249 1 t b f;
#X obj 252 47 +;
#X obj 275 25 / 4;
#X obj 254 89 i;
#X obj 254 111 change;
#X obj 252 68 clip 1 5000;
#X obj 355 47 f;
#X obj 330 1 t b f;
#X obj 333 47 +;
#X obj 356 25 / 4;
#X obj 335 89 i;
#X obj 335 111 change;
#X obj 434 48 f;
#X obj 409 2 t b f;
#X obj 412 48 +;
#X obj 435 26 / 4;
#X obj 414 90 i;
#X obj 415 113 change;
#X obj 412 69 clip 1 5000;
#X obj 512 44 f;
#X obj 487 -2 t b f;
#X obj 490 44 +;
#X obj 513 22 / 4;
#X obj 492 86 i;
#X obj 492 108 change;
#X obj 593 44 f;
#X obj 568 -2 t b f;
#X obj 571 44 +;
#X obj 594 22 / 4;
#X obj 573 86 i;
#X obj 573 108 change;
#X obj 571 65 clip 1 5000;
#X obj 672 45 f;
#X obj 647 -1 t b f;
#X obj 650 45 +;
#X obj 673 23 / 4;
#X obj 652 87 i;
#X obj 652 109 change;
#X obj 758 44 f;
#X obj 733 -2 t b f;
#X obj 736 44 +;
#X obj 759 22 / 4;
#X obj 738 86 i;
#X obj 738 108 change;
#X obj 839 44 f;
#X obj 814 -2 t b f;
#X obj 817 44 +;
#X obj 840 22 / 4;
#X obj 819 86 i;
#X obj 814 110 change;
#X obj 918 45 f;
#X obj 893 -1 t b f;
#X obj 896 45 +;
#X obj 919 23 / 4;
#X obj 898 87 i;
#X obj 898 109 change;
#X obj 896 66 clip 1 5000;
#X obj 817 65 clip 0 4095;
#X obj 6 68 clip 0 4095;
#X obj 162 260 i;
#X obj 161 163 t f f f;
#X obj 202 291 / 4095;
#X obj 185 194 mod 34.125;
#X obj 160 236 / 409.5;
#X obj 184 215 / 34.125;
#X obj 154 290 +;
#X obj 332 261 i;
#X obj 331 164 t f f f;
#X obj 391 294 / 4095;
#X obj 355 195 mod 34.125;
#X obj 330 237 / 409.5;
#X obj 354 216 / 34.125;
#X obj 334 284 +;
#X obj 492 261 i;
#X obj 491 164 t f f f;
#X obj 532 292 / 4095;
#X obj 515 195 mod 34.125;
#X obj 490 237 / 409.5;
#X obj 514 216 / 34.125;
#X obj 494 284 +;
#X obj 166 69 clip 0 4095;
#X obj 333 68 clip 0 4095;
#X obj 491 65 clip 0 4095;
#X floatatom 154 312 5 0 0 0 - - -, f 5;
#X obj 266 145 / 5000;
#X obj 430 146 / 5000;
#X obj 591 149 / 5000;
#X obj 650 66 clip 0 5;
#X obj 736 65 clip 1 6;
#X obj 657 146 / 5;
#X obj 719 136 / 6;
#X msg 960 -37 FilterT4;
#X msg 971 -17 FilterL4;
#X msg 981 10 FilterT5;
#X msg 991 30 FilterL5;
#X msg 1011 54 FilterT6;
#X msg 1021 74 FilterL6;
#X msg 1035 97 Release;
#X msg 1046 117 LoopStart;
#X msg 1058 141 LoopEnd;
#X floatatom 38 152 5 0 0 0 - - -, f 5;
#X floatatom 56 -32 5 0 0 0 - - -, f 5;
#X obj 161 -139 route 70;
#X obj 87 68 clip 1 100;
#X obj 42 -56 r modelcount;
#X connect 2 0 3 0;
#X connect 2 1 4 0;
#X connect 5 0 145 0;
#X connect 6 0 7 0;
#X connect 7 0 11 0;
#X connect 7 1 134 0;
#X connect 7 2 135 0;
#X connect 7 3 136 0;
#X connect 7 4 137 0;
#X connect 7 5 138 0;
#X connect 7 6 139 0;
#X connect 7 7 140 0;
#X connect 7 8 141 0;
#X connect 7 9 142 0;
#X connect 7 10 10 0;
#X connect 8 0 13 0;
#X connect 8 1 31 0;
#X connect 8 2 37 0;
#X connect 8 3 43 0;
#X connect 8 4 50 0;
#X connect 8 5 56 0;
#X connect 8 6 63 0;
#X connect 8 7 69 0;
#X connect 8 8 76 0;
#X connect 8 9 82 0;
#X connect 8 10 88 0;
#X connect 8 11 94 0;
#X connect 9 0 8 0;
#X connect 9 1 2 0;
#X connect 10 0 0 0;
#X connect 11 0 0 0;
#X connect 12 0 14 0;
#X connect 13 0 12 0;
#X connect 13 1 15 0;
#X connect 14 0 101 0;
#X connect 15 0 14 1;
#X connect 16 0 17 0;
#X connect 17 0 18 0;
#X connect 17 0 143 0;
#X connect 30 0 32 0;
#X connect 31 0 30 0;
#X connect 31 1 33 0;
#X connect 32 0 146 0;
#X connect 33 0 32 1;
#X connect 34 0 35 0;
#X connect 35 0 19 0;
#X connect 36 0 38 0;
#X connect 37 0 36 0;
#X connect 37 1 39 0;
#X connect 38 0 123 0;
#X connect 39 0 38 1;
#X connect 40 0 41 0;
#X connect 41 0 103 0;
#X connect 42 0 44 0;
#X connect 43 0 42 0;
#X connect 43 1 45 0;
#X connect 44 0 48 0;
#X connect 45 0 44 1;
#X connect 46 0 47 0;
#X connect 47 0 127 0;
#X connect 48 0 42 1;
#X connect 48 0 46 0;
#X connect 49 0 51 0;
#X connect 50 0 49 0;
#X connect 50 1 52 0;
#X connect 51 0 124 0;
#X connect 52 0 51 1;
#X connect 53 0 54 0;
#X connect 54 0 110 0;
#X connect 55 0 57 0;
#X connect 56 0 55 0;
#X connect 56 1 58 0;
#X connect 57 0 61 0;
#X connect 58 0 57 1;
#X connect 59 0 60 0;
#X connect 60 0 128 0;
#X connect 61 0 55 1;
#X connect 61 0 59 0;
#X connect 62 0 64 0;
#X connect 63 0 62 0;
#X connect 63 1 65 0;
#X connect 64 0 125 0;
#X connect 65 0 64 1;
#X connect 66 0 67 0;
#X connect 67 0 117 0;
#X connect 68 0 70 0;
#X connect 69 0 68 0;
#X connect 69 1 71 0;
#X connect 70 0 74 0;
#X connect 71 0 70 1;
#X connect 72 0 73 0;
#X connect 73 0 129 0;
#X connect 74 0 68 1;
#X connect 74 0 72 0;
#X connect 75 0 77 0;
#X connect 76 0 75 0;
#X connect 76 1 78 0;
#X connect 77 0 130 0;
#X connect 78 0 77 1;
#X connect 79 0 80 0;
#X connect 80 0 132 0;
#X connect 81 0 83 0;
#X connect 82 0 81 0;
#X connect 82 1 84 0;
#X connect 83 0 131 0;
#X connect 84 0 83 1;
#X connect 85 0 86 0;
#X connect 86 0 133 0;
#X connect 87 0 89 0;
#X connect 88 0 87 0;
#X connect 88 1 90 0;
#X connect 89 0 100 0;
#X connect 90 0 89 1;
#X connect 91 0 92 0;
#X connect 92 0 28 0;
#X connect 93 0 95 0;
#X connect 94 0 93 0;
#X connect 94 1 96 0;
#X connect 95 0 99 0;
#X connect 96 0 95 1;
#X connect 97 0 98 0;
#X connect 98 0 29 0;
#X connect 99 0 93 1;
#X connect 99 0 97 0;
#X connect 100 0 87 1;
#X connect 100 0 91 0;
#X connect 101 0 12 1;
#X connect 101 0 16 0;
#X connect 102 0 108 0;
#X connect 103 0 106 0;
#X connect 103 1 105 0;
#X connect 103 2 104 0;
#X connect 104 0 20 0;
#X connect 105 0 107 0;
#X connect 106 0 102 0;
#X connect 107 0 108 1;
#X connect 108 0 126 0;
#X connect 109 0 115 0;
#X connect 110 0 113 0;
#X connect 110 1 112 0;
#X connect 110 2 111 0;
#X connect 111 0 22 0;
#X connect 112 0 114 0;
#X connect 113 0 109 0;
#X connect 114 0 115 1;
#X connect 116 0 122 0;
#X connect 117 0 120 0;
#X connect 117 1 119 0;
#X connect 117 2 118 0;
#X connect 118 0 24 0;
#X connect 119 0 121 0;
#X connect 120 0 116 0;
#X connect 121 0 122 1;
#X connect 123 0 36 1;
#X connect 123 0 40 0;
#X connect 124 0 49 1;
#X connect 124 0 53 0;
#X connect 125 0 62 1;
#X connect 125 0 66 0;
#X connect 127 0 21 0;
#X connect 128 0 23 0;
#X connect 129 0 25 0;
#X connect 130 0 75 1;
#X connect 130 0 79 0;
#X connect 131 0 81 1;
#X connect 131 0 85 0;
#X connect 132 0 26 0;
#X connect 133 0 27 0;
#X connect 134 0 0 0;
#X connect 135 0 0 0;
#X connect 136 0 0 0;
#X connect 137 0 0 0;
#X connect 138 0 0 0;
#X connect 139 0 0 0;
#X connect 140 0 0 0;
#X connect 141 0 0 0;
#X connect 142 0 0 0;
#X connect 145 0 9 0;
#X connect 146 0 30 1;
#X connect 146 0 34 0;
#X connect 147 0 144 0;
#X connect 147 0 146 2;
#X restore 356 -644 pd controller;
#X obj 283 -617 route 70;
#X obj 284 -591 sel 0 1 2 3 4 5 6 7;
#X obj 297 -543 bng 15 250 50 0 empty empty empty 17 7 0 10 -262144
-1 -1;
#X obj 320 -542 bng 15 250 50 0 empty empty empty 17 7 0 10 -262144
-1 -1;
#X obj 342 -544 bng 15 250 50 0 empty empty empty 17 7 0 10 -262144
-1 -1;
#X obj 365 -543 bng 15 250 50 0 empty empty empty 17 7 0 10 -262144
-1 -1;
#X obj 389 -544 bng 15 250 50 0 empty empty empty 17 7 0 10 -262144
-1 -1;
#X obj 412 -543 bng 15 250 50 0 empty empty empty 17 7 0 10 -262144
-1 -1;
#X obj 434 -545 bng 15 250 50 0 empty empty empty 17 7 0 10 -262144
-1 -1;
#X obj 457 -544 bng 15 250 50 0 empty empty empty 17 7 0 10 -262144
-1 -1;
#X msg 306 -480 ./synthboot2.sh restart;
#X connect 2 0 0 0;
#X connect 2 0 6 0;
#X connect 2 1 1 0;
#X connect 2 1 8 0;
#X connect 3 0 9 0;
#X connect 4 0 2 0;
#X connect 5 0 2 0;
#X connect 7 0 2 0;
#X connect 10 0 12 0;
#X connect 12 0 13 0;
#X connect 13 0 14 0;
#X connect 13 1 15 0;
#X connect 13 2 16 0;
#X connect 13 3 17 0;
#X connect 13 4 18 0;
#X connect 13 4 22 0;
#X connect 13 5 19 0;
#X connect 13 6 20 0;
#X connect 13 7 21 0;
#X connect 22 0 2 0;
#X restore 53 -1042 pd shellzone;
#N canvas 944 317 447 568 rebooter 0;
#X obj 128 -566 bng 15 250 50 0 empty empty empty 17 7 0 10 -262144
-1 -1;
#X obj 149 -566 bng 15 250 50 0 empty empty empty 17 7 0 10 -262144
-1 -1;
#X obj 171 -567 bng 15 250 50 0 empty empty empty 17 7 0 10 -262144
-1 -1;
#X obj 192 -567 bng 15 250 50 0 empty empty empty 17 7 0 10 -262144
-1 -1;
#X obj 105 -531 tgl 15 0 empty empty empty 17 7 0 10 -262144 -1 -1
0 1;
#X obj 133 -531 tgl 15 0 empty empty empty 17 7 0 10 -262144 -1 -1
0 1;
#X obj 89 -497 +;
#X obj 89 -474 == 2;
#X obj 92 -444 tgl 15 0 empty empty empty 17 7 0 10 -262144 -1 -1 0
1;
#X obj 109 -441 sel 1;
#X msg 202 -243 sudo shutdown -h now;
#X obj 190 -534 tgl 15 0 empty empty empty 17 7 0 10 -262144 -1 -1
0 1;
#X obj 218 -534 tgl 15 0 empty empty empty 17 7 0 10 -262144 -1 -1
0 1;
#X obj 174 -500 +;
#X obj 174 -477 == 2;
#X obj 177 -447 tgl 15 0 empty empty empty 17 7 0 10 -262144 -1 -1
0 1;
#X obj 194 -444 sel 1;
#X msg 111 -244 sudo reboot;
#X obj 115 -205 s toshell;
#X obj 167 -119 s toDisplay;
#X obj 105 -419 t b b b;
#X obj 189 -421 t b b b;
#X msg 99 -148 print /17/SHUTDOWN>>>>GOODBYE/ \, 10;
#X msg 165 -308 print /3/0/0/320/240/100000 \, 10;
#X msg 194 -211 print /11/0/0/ \, 10;
#X msg 117 -175 print /17/REBOOTINGNOW!/ \, 10;
#X obj 122 -376 delay 20;
#X obj 193 -371 delay 20;
#X obj 122 -347 delay 20;
#X obj 193 -342 delay 20;
#X obj 95 -273 delay 3000;
#X obj 209 -272 delay 3000;
#X connect 0 0 4 0;
#X connect 1 0 5 0;
#X connect 2 0 11 0;
#X connect 3 0 12 0;
#X connect 4 0 6 0;
#X connect 5 0 6 1;
#X connect 6 0 7 0;
#X connect 7 0 8 0;
#X connect 7 0 9 0;
#X connect 9 0 20 0;
#X connect 10 0 18 0;
#X connect 11 0 13 0;
#X connect 12 0 13 1;
#X connect 13 0 14 0;
#X connect 14 0 15 0;
#X connect 14 0 16 0;
#X connect 16 0 21 0;
#X connect 17 0 18 0;
#X connect 20 0 30 0;
#X connect 20 1 26 0;
#X connect 20 2 23 0;
#X connect 21 0 31 0;
#X connect 21 1 27 0;
#X connect 21 2 23 0;
#X connect 22 0 19 0;
#X connect 23 0 19 0;
#X connect 24 0 19 0;
#X connect 25 0 19 0;
#X connect 26 0 24 0;
#X connect 26 0 28 0;
#X connect 27 0 24 0;
#X connect 27 0 29 0;
#X connect 28 0 25 0;
#X connect 29 0 22 0;
#X connect 30 0 17 0;
#X connect 31 0 10 0;
#X restore 56 -993 pd rebooter;
#X obj 59 -969 messenger;
#X obj 64 -793 loadbang;
#X msg 67 -742 \; pd dsp 1;
#X obj 64 -766 delay 100;
#N canvas 508 267 994 739 audio/cv&gates 0;
#X obj 94 163 wiringPi;
#X obj 116 116 loadbang;
#X obj 94 71 r tocv;
#X msg 119 141 spi_init 0 1.2288e+006;
#X obj 10 387 pvu~;
#X obj 10 409 vu 15 120 empty empty -1 -8 0 10 -66577 -1 1 0;
#X obj 63 388 pvu~;
#X obj 63 410 vu 15 120 empty empty -1 -8 0 10 -66577 -1 1 0;
#X obj 118 389 pvu~;
#X obj 118 411 vu 15 120 empty empty -1 -8 0 10 -66577 -1 1 0;
#X obj 174 387 pvu~;
#X obj 174 409 vu 15 120 empty empty -1 -8 0 10 -66577 -1 1 0;
#X obj 284 230 catch~ channel1;
#X obj 310 259 catch~ channel2;
#X obj 356 292 catch~ channel3;
#X obj 379 319 catch~ channel4;
#X obj 440 347 catch~ channel5;
#X obj 473 382 catch~ channel6;
#X obj 292 382 pvu~;
#X obj 292 404 vu 15 120 empty empty -1 -8 0 10 -66577 -1 1 0;
#X obj 234 388 pvu~;
#X obj 234 410 vu 15 120 empty empty -1 -8 0 10 -66577 -1 1 0;
#X obj 359 172 osc~ 1000;
#X floatatom 639 220 5 0 0 0 - - -, f 5;
#X floatatom 638 243 5 0 0 0 - - -, f 5;
#X floatatom 638 262 5 0 0 0 - - -, f 5;
#X floatatom 646 522 5 0 0 0 - - -, f 5;
#X msg 678 525 spi_write 0 18 \$1;
#X floatatom 638 290 5 0 0 0 - - -, f 5;
#X floatatom 638 329 5 0 0 0 - - -, f 5;
#X floatatom 638 374 5 0 0 0 - - -, f 5;
#X msg 679 373 spi_write 0 14 \$1;
#X floatatom 642 350 5 0 0 0 - - -, f 5;
#X msg 677 351 spi_write 0 13 \$1;
#X floatatom 638 133 5 0 0 0 - - -, f 5;
#X floatatom 638 151 5 0 0 0 - - -, f 5;
#X floatatom 638 175 5 0 0 0 - - -, f 5;
#X floatatom 638 193 5 0 0 0 - - -, f 5;
#X msg 679 175 spi_write 0 6 \$1;
#X msg 679 195 spi_write 0 7 \$1;
#X floatatom 637 84 5 0 0 0 - - -, f 5;
#X floatatom 637 101 5 0 0 0 - - -, f 5;
#X floatatom 637 40 5 0 0 0 - - -, f 5;
#X floatatom 637 61 5 0 0 0 - - -, f 5;
#X floatatom 637 554 5 0 0 0 - - -, f 5;
#X msg 678 38 spi_write 0 0 \$1;
#X msg 678 56 spi_write 0 1 \$1;
#X floatatom 637 8 5 0 0 0 - - -, f 5;
#X msg 673 551 spi_write 0 19 \$1;
#X msg 678 78 spi_write 0 2 \$1;
#X msg 678 99 spi_write 0 3 \$1;
#X msg 679 134 spi_write 0 4 \$1;
#X msg 679 154 spi_write 0 5 \$1;
#X msg 679 224 spi_write 0 8 \$1;
#X msg 679 244 spi_write 0 9 \$1;
#X msg 679 268 spi_write 0 10 \$1;
#X msg 679 291 spi_write 0 11 \$1;
#X msg 679 327 spi_write 0 12 \$1;
#X msg 830 38 0;
#X msg 878 113 4095;
#X obj 841 12 r resetpoly;
#X floatatom 634 417 5 0 0 0 - - -, f 5;
#X floatatom 633 447 5 0 0 0 - - -, f 5;
#X floatatom 635 478 5 0 0 0 - - -, f 5;
#X msg 674 417 spi_write 0 15 \$1;
#X msg 674 446 spi_write 0 16 \$1;
#X msg 676 477 spi_write 0 17 \$1;
#X obj 684 592 s tocv;
#X floatatom 563 54 5 0 0 0 - - -, f 5;
#X floatatom 552 129 5 0 0 0 - - -, f 5;
#X floatatom 555 197 5 0 0 0 - - -, f 5;
#X floatatom 567 262 5 0 0 0 - - -, f 5;
#X floatatom 584 349 5 0 0 0 - - -, f 5;
#X floatatom 574 437 5 0 0 0 - - -, f 5;
#X obj 391 502 dac~ 3 4 5 6 7 8 9 10;
#X obj 435 536 dac~ 1 2;
#X connect 1 0 3 0;
#X connect 2 0 0 0;
#X connect 3 0 0 0;
#X connect 4 0 5 0;
#X connect 6 0 7 0;
#X connect 8 0 9 0;
#X connect 10 0 11 0;
#X connect 12 0 4 0;
#X connect 12 0 75 0;
#X connect 12 0 75 1;
#X connect 12 0 74 6;
#X connect 13 0 6 0;
#X connect 13 0 75 0;
#X connect 13 0 75 1;
#X connect 13 0 74 7;
#X connect 14 0 8 0;
#X connect 14 0 75 0;
#X connect 14 0 75 1;
#X connect 14 0 74 0;
#X connect 15 0 10 0;
#X connect 15 0 75 0;
#X connect 15 0 75 1;
#X connect 15 0 74 2;
#X connect 16 0 20 0;
#X connect 16 0 75 0;
#X connect 16 0 75 1;
#X connect 16 0 74 4;
#X connect 17 0 18 0;
#X connect 17 0 75 0;
#X connect 17 0 75 1;
#X connect 17 0 74 1;
#X connect 18 0 19 0;
#X connect 20 0 21 0;
#X connect 23 0 53 0;
#X connect 24 0 54 0;
#X connect 25 0 55 0;
#X connect 26 0 27 0;
#X connect 27 0 67 0;
#X connect 28 0 56 0;
#X connect 29 0 57 0;
#X connect 30 0 31 0;
#X connect 31 0 67 0;
#X connect 32 0 33 0;
#X connect 34 0 51 0;
#X connect 35 0 52 0;
#X connect 36 0 38 0;
#X connect 37 0 39 0;
#X connect 38 0 67 0;
#X connect 39 0 67 0;
#X connect 40 0 49 0;
#X connect 41 0 50 0;
#X connect 42 0 45 0;
#X connect 43 0 46 0;
#X connect 44 0 48 0;
#X connect 45 0 67 0;
#X connect 46 0 67 0;
#X connect 47 0 42 0;
#X connect 47 0 44 0;
#X connect 47 0 43 0;
#X connect 47 0 41 0;
#X connect 47 0 40 0;
#X connect 47 0 37 0;
#X connect 47 0 36 0;
#X connect 47 0 35 0;
#X connect 47 0 34 0;
#X connect 47 0 32 0;
#X connect 47 0 30 0;
#X connect 47 0 29 0;
#X connect 47 0 28 0;
#X connect 47 0 24 0;
#X connect 47 0 23 0;
#X connect 47 0 25 0;
#X connect 47 0 63 0;
#X connect 47 0 62 0;
#X connect 47 0 61 0;
#X connect 47 0 26 0;
#X connect 48 0 67 0;
#X connect 49 0 67 0;
#X connect 50 0 67 0;
#X connect 51 0 67 0;
#X connect 52 0 67 0;
#X connect 53 0 67 0;
#X connect 54 0 67 0;
#X connect 55 0 67 0;
#X connect 56 0 67 0;
#X connect 57 0 67 0;
#X connect 58 0 57 0;
#X connect 58 0 56 0;
#X connect 58 0 55 0;
#X connect 58 0 54 0;
#X connect 58 0 53 0;
#X connect 58 0 52 0;
#X connect 58 0 51 0;
#X connect 58 0 48 0;
#X connect 58 0 39 0;
#X connect 58 0 38 0;
#X connect 58 0 33 0;
#X connect 58 0 31 0;
#X connect 58 0 27 0;
#X connect 58 0 42 0;
#X connect 58 0 63 0;
#X connect 58 0 62 0;
#X connect 58 0 61 0;
#X connect 58 0 44 0;
#X connect 58 0 43 0;
#X connect 58 0 41 0;
#X connect 58 0 40 0;
#X connect 58 0 37 0;
#X connect 58 0 36 0;
#X connect 58 0 35 0;
#X connect 58 0 34 0;
#X connect 58 0 32 0;
#X connect 58 0 30 0;
#X connect 58 0 29 0;
#X connect 58 0 28 0;
#X connect 58 0 26 0;
#X connect 58 0 25 0;
#X connect 58 0 24 0;
#X connect 58 0 23 0;
#X connect 59 0 46 0;
#X connect 59 0 50 0;
#X connect 59 0 49 0;
#X connect 59 0 45 0;
#X connect 59 0 35 0;
#X connect 59 0 63 0;
#X connect 59 0 62 0;
#X connect 59 0 61 0;
#X connect 59 0 44 0;
#X connect 59 0 43 0;
#X connect 59 0 42 0;
#X connect 59 0 41 0;
#X connect 59 0 40 0;
#X connect 59 0 37 0;
#X connect 59 0 36 0;
#X connect 59 0 34 0;
#X connect 59 0 32 0;
#X connect 59 0 30 0;
#X connect 59 0 29 0;
#X connect 59 0 28 0;
#X connect 59 0 26 0;
#X connect 59 0 25 0;
#X connect 59 0 24 0;
#X connect 59 0 23 0;
#X connect 60 0 58 0;
#X connect 60 0 59 0;
#X connect 61 0 64 0;
#X connect 62 0 65 0;
#X connect 63 0 66 0;
#X connect 64 0 67 0;
#X connect 65 0 67 0;
#X connect 66 0 67 0;
#X connect 68 0 42 0;
#X connect 68 0 43 0;
#X connect 68 0 40 0;
#X connect 69 0 41 0;
#X connect 69 0 35 0;
#X connect 69 0 34 0;
#X connect 70 0 36 0;
#X connect 70 0 37 0;
#X connect 70 0 23 0;
#X connect 71 0 24 0;
#X connect 71 0 28 0;
#X connect 71 0 25 0;
#X connect 72 0 29 0;
#X connect 72 0 32 0;
#X connect 72 0 30 0;
#X connect 73 0 61 0;
#X connect 73 0 63 0;
#X connect 73 0 62 0;
#X restore 57 -1017 pd audio/cv&gates;
#N canvas 554 337 552 512 clock 0;
#X obj -97 180 metro 125;
#X obj -61 358 send clock;
#X obj -83 113 expr 15000 / $f1;
#X obj -80 83 sel 0;
#X floatatom -34 140 5 0 0 0 - - -, f 5;
#X obj -48 19 r tempo;
#X obj 19 146 r stop/go;
#X obj 29 96 tgl 40 0 empty empty empty 17 7 0 10 -262144 -1 -1 0 1
;
#X obj 106 22 midirealtimein;
#X obj 113 55 sel 248 251 252 250;
#X obj 103 90 bng 15 250 50 0 empty empty empty 17 7 0 10 -262144 -1
-1;
#X obj 137 89 bng 15 250 50 0 empty empty empty 17 7 0 10 -262144 -1
-1;
#X obj 174 89 bng 15 250 50 0 empty empty empty 17 7 0 10 -262144 -1
-1;
#X obj 204 85 bng 15 250 50 0 empty empty empty 17 7 0 10 -262144 -1
-1;
#X obj 110 186 f;
#X obj 126 132 + 1;
#X floatatom 125 208 4 0 0 0 - - -, f 4;
#X obj 103 233 sel 0;
#X obj 106 261 s clock;
#X msg 172 121 0;
#X msg 211 117 1;
#X obj 124 159 mod 6;
#X obj 155 259 s stepclk;
#X obj 37 276 sel 0;
#X obj 10 312 s clkreset;
#X obj 171 153 s clkreset;
#X obj -71 280 counter 5;
#X obj -60 332 sel 0;
#X obj -69 306 s stepclk;
#X obj -68 148 / 6;
#X floatatom -22 192 5 0 0 0 - - -, f 5;
#X connect 0 0 26 0;
#X connect 2 0 4 0;
#X connect 2 0 29 0;
#X connect 3 1 2 0;
#X connect 5 0 3 0;
#X connect 6 0 7 0;
#X connect 7 0 0 0;
#X connect 7 0 23 0;
#X connect 8 0 9 0;
#X connect 9 0 10 0;
#X connect 9 0 14 0;
#X connect 9 1 11 0;
#X connect 9 2 12 0;
#X connect 9 2 25 0;
#X connect 9 3 13 0;
#X connect 12 0 19 0;
#X connect 13 0 20 0;
#X connect 14 0 15 0;
#X connect 14 0 16 0;
#X connect 14 0 17 0;
#X connect 14 0 22 0;
#X connect 15 0 21 0;
#X connect 17 0 18 0;
#X connect 21 0 14 1;
#X connect 23 0 24 0;
#X connect 26 0 28 0;
#X connect 26 0 27 0;
#X connect 27 0 1 0;
#X connect 29 0 0 1;
#X connect 30 0 0 1;
#X restore 64 -947 pd clock;
#N canvas 613 367 756 382 graph 0;
#N canvas 603 97 1148 916 envelopegraph 0;
#X obj 84 -23 r page;
#X msg 362 285 0;
#X obj 333 340 f;
#X obj 328 363 +;
#X obj 343 261 tabread 6stagefilt;
#X msg 341 236 1 \, 3 \, 5 \, 7 \, 9 \, 11 \, 13;
#X obj 337 311 t b f b;
#X obj 340 214 t b b;
#X obj 329 386 s FEnvLen;
#X text 27 824 has to fit between H120 x H320 (200 pixels) and W60
x W120 (60 pixels);
#X obj 221 429 tabread 6stagefilt;
#X obj 325 540 f;
#X obj 322 564 +;
#X obj 370 523 t b f b;
#X obj 392 282 s greset;
#X obj 362 471 r greset;
#X obj 158 237 t f b;
#X obj 175 267 * 2;
#X obj 161 217 counter 0 5;
#X obj 256 225 sel 5;
#X text 15 336 table 0 IL 1 T1 2 L1 3 T2 4 L2 5 T3 6 L3 7 T4 8 L4 9
T5 10 L5 11 T6 12 L6 13 R 14 LS 15 LE 16 VL, f 5;
#X obj 143 381 tabread 6stagefilt;
#X obj 183 409 tabread 6stagefilt;
#X obj 324 467 /;
#X obj 324 489 * 200;
#X obj 182 475 * 60;
#X obj 233 316 + 1;
#X obj 205 317 + 2;
#X obj 136 473 * 60;
#X obj 321 583 i;
#X obj 137 512 i;
#X obj 181 518 i;
#X obj 124 626 pack 0 0 0 0;
#X obj 234 512 f;
#X obj 97 505 i;
#X obj 174 291 t b f f f b;
#X msg 385 488 120;
#X obj 79 317 t b b b b;
#X msg 123 345 13;
#X msg 91 346 12;
#X msg 149 346 0;
#X obj 120 424 * -1;
#X obj 154 449 * -1;
#X obj 136 495 + 120;
#X obj 182 497 + 120;
#X obj 179 138 t b b b;
#X msg 77 802 print /1/startW/startH/EndW/EndH/colour/;
#X msg 206 625 print /3/120/60/200/60/10342/;
#X obj 288 34 t b b;
#X msg 173 74 stop;
#X obj 90 43 t b b;
#X obj 195 741 s toDisplay;
#X msg 351 69 set 6stagefilt;
#X obj 373 34 t b b;
#X obj 448 33 t b b;
#X obj 83 20 sel 0 1;
#X obj 141 45 t b b, f 7;
#X obj 206 43 t b b, f 7;
#X obj 203 16 sel 10 11;
#X obj 138 18 sel 2 3;
#X obj 612 677 s toDisplay;
#X msg 762 401 stop;
#X obj 653 606 t b b;
#X obj 658 441 t b b;
#X obj 664 376 t b b a b;
#X obj 692 636 symbol;
#X obj 707 352 symbol;
#X obj 706 321 r paramdisp;
#X msg 982 374 stop;
#X obj 891 307 r valuedisp;
#X obj 912 610 f;
#X msg 913 437 print /3/0/60/120/30/109342/;
#X msg 683 472 print /3/0/30/320/30/109342/;
#X msg 959 627 2000;
#X obj 877 388 t b b f b;
#X floatatom 1002 586 5 0 0 0 - - -, f 5;
#X obj 703 697 pack s 3 1 0 30;
#X obj 484 670 s redraw;
#X msg 484 692 1;
#X msg 1031 675 3 1 0 60;
#X msg 604 339 test;
#X msg 782 640 hello;
#X obj 646 741 s totext;
#X obj 886 725 s tonumber;
#X floatatom 47 243 5 0 0 0 - - -, f 5;
#X msg 267 131 0;
#X obj 168 161 t b b b b b b;
#X msg 138 665 print /19/\$1/\$2/\$3/\$4/255000000/;
#X msg 208 699 print /19/20/45/30/6/255000000/;
#X obj 100 123 bng 15 250 50 0 empty empty empty 17 7 0 10 -262144
-1 -1;
#X floatatom 926 350 5 0 0 0 - - -, f 5;
#X obj 895 681 pack f 3 1 0 60;
#X obj 888 492 delay 100;
#X obj 176 98 delay 200;
#X obj 289 10 r Filterchange;
#X obj 371 10 r Carrierchange;
#X obj 484 9 r Modulatorchange;
#X msg 376 133 set 6stage2Op;
#X msg 361 103 set 6stage1Op;
#X connect 0 0 55 0;
#X connect 0 0 58 0;
#X connect 0 0 59 0;
#X connect 1 0 2 1;
#X connect 2 0 3 0;
#X connect 3 0 2 1;
#X connect 3 0 23 1;
#X connect 3 0 8 0;
#X connect 4 0 6 0;
#X connect 5 0 4 0;
#X connect 6 0 2 0;
#X connect 6 1 3 1;
#X connect 7 0 5 0;
#X connect 7 1 1 0;
#X connect 7 1 14 0;
#X connect 10 0 23 0;
#X connect 11 0 12 0;
#X connect 12 0 11 1;
#X connect 12 0 29 0;
#X connect 13 0 11 0;
#X connect 13 1 12 1;
#X connect 15 0 36 0;
#X connect 16 0 17 0;
#X connect 16 0 19 0;
#X connect 17 0 35 0;
#X connect 18 0 16 0;
#X connect 18 0 84 0;
#X connect 19 0 37 0;
#X connect 19 0 18 2;
#X connect 21 0 41 0;
#X connect 22 0 42 0;
#X connect 23 0 24 0;
#X connect 24 0 13 0;
#X connect 25 0 44 0;
#X connect 26 0 10 0;
#X connect 27 0 22 0;
#X connect 28 0 43 0;
#X connect 29 0 32 2;
#X connect 29 0 33 1;
#X connect 30 0 32 1;
#X connect 31 0 32 3;
#X connect 32 0 87 0;
#X connect 33 0 34 1;
#X connect 34 0 32 0;
#X connect 35 0 34 0;
#X connect 35 1 21 0;
#X connect 35 2 27 0;
#X connect 35 3 26 0;
#X connect 35 4 33 0;
#X connect 36 0 12 1;
#X connect 36 0 11 1;
#X connect 36 0 33 1;
#X connect 37 0 34 0;
#X connect 37 1 39 0;
#X connect 37 2 38 0;
#X connect 37 3 40 0;
#X connect 37 3 33 0;
#X connect 38 0 10 0;
#X connect 39 0 21 0;
#X connect 40 0 25 0;
#X connect 41 0 28 0;
#X connect 42 0 25 0;
#X connect 43 0 30 0;
#X connect 44 0 31 0;
#X connect 45 0 86 0;
#X connect 45 1 7 0;
#X connect 45 2 47 0;
#X connect 47 0 51 0;
#X connect 48 0 85 0;
#X connect 48 0 93 0;
#X connect 48 1 49 0;
#X connect 48 1 52 0;
#X connect 49 0 93 0;
#X connect 50 0 85 0;
#X connect 50 0 93 0;
#X connect 50 1 98 0;
#X connect 50 1 49 0;
#X connect 50 1 72 0;
#X connect 50 1 71 0;
#X connect 52 0 4 0;
#X connect 52 0 21 0;
#X connect 52 0 22 0;
#X connect 52 0 10 0;
#X connect 53 0 85 0;
#X connect 53 0 93 0;
#X connect 53 1 49 0;
#X connect 53 1 98 0;
#X connect 54 0 85 0;
#X connect 54 0 93 0;
#X connect 54 1 49 0;
#X connect 54 1 97 0;
#X connect 55 0 50 0;
#X connect 55 1 50 0;
#X connect 56 0 85 0;
#X connect 56 0 93 0;
#X connect 56 1 49 0;
#X connect 56 1 97 0;
#X connect 56 1 72 0;
#X connect 56 1 71 0;
#X connect 57 0 85 0;
#X connect 57 0 93 0;
#X connect 57 1 49 0;
#X connect 57 1 52 0;
#X connect 57 1 72 0;
#X connect 57 1 71 0;
#X connect 58 0 57 0;
#X connect 58 1 57 0;
#X connect 59 0 56 0;
#X connect 59 1 56 0;
#X connect 62 1 65 0;
#X connect 63 0 62 0;
#X connect 63 1 72 0;
#X connect 64 0 63 0;
#X connect 64 2 65 1;
#X connect 64 3 61 0;
#X connect 65 0 76 0;
#X connect 66 0 64 0;
#X connect 67 0 66 0;
#X connect 68 0 92 0;
#X connect 69 0 74 0;
#X connect 70 0 91 0;
#X connect 71 0 60 0;
#X connect 72 0 60 0;
#X connect 73 0 91 0;
#X connect 74 0 92 0;
#X connect 74 1 71 0;
#X connect 74 2 70 1;
#X connect 74 3 68 0;
#X connect 74 3 79 0;
#X connect 76 0 82 0;
#X connect 78 0 77 0;
#X connect 80 0 66 0;
#X connect 81 0 76 0;
#X connect 85 0 18 2;
#X connect 86 0 18 0;
#X connect 86 1 18 0;
#X connect 86 2 18 0;
#X connect 86 3 18 0;
#X connect 86 4 18 0;
#X connect 86 5 18 0;
#X connect 87 0 51 0;
#X connect 88 0 51 0;
#X connect 89 0 85 0;
#X connect 89 0 93 0;
#X connect 90 0 74 0;
#X connect 91 0 83 0;
#X connect 92 0 70 0;
#X connect 93 0 45 0;
#X connect 94 0 48 0;
#X connect 95 0 53 0;
#X connect 96 0 54 0;
#X connect 97 0 4 0;
#X connect 97 0 22 0;
#X connect 97 0 21 0;
#X connect 97 0 10 0;
#X connect 98 0 4 0;
#X connect 98 0 22 0;
#X connect 98 0 21 0;
#X connect 98 0 10 0;
#X restore 69 68 pd envelopegraph;
#N canvas 804 288 979 557 sequencergraph 0;
#X obj 152 523 s toDisplay;
#X obj 71 36 r page;
#X obj 71 58 sel 40 41;
#X obj 71 80 t b b;
#X msg 141 261 print /3/0/30/320/90/10342/;
#X obj 169 55 s redraw;
#X msg 177 24 1;
#X obj 96 153 delay 100;
#X msg 614 244 print /5/40/75/25/499808/;
#X msg 656 267 print /9/25/50/25/100/60/77/499424/;
#X obj 652 30 r gridbuts;
#X obj 652 52 route 40;
#X obj 652 82 sel 0 4;
#X obj 615 98 tgl 15 0 empty empty empty 17 7 0 10 -262144 -1 -1 0
1;
#X obj 615 121 sel 0 1;
#X obj 626 297 s toDisplay;
#X obj 597 212 delay 20;
#X obj 579 159 delay 20;
#X msg 617 186 print /3/0/30/80/90/10342/;
#X obj 685 210 delay 20;
#X obj 667 157 delay 20;
#X text 622 -4 Play/Recbutton;
#X obj 712 51 route 41;
#X obj 545 122 f;
#X msg 268 376 S 7 0 260 50;
#X msg 221 335 A 7 0 180 50;
#X msg 167 307 H 7 0 100 50;
#X obj 118 212 t b b b b;
#X msg 119 110 stop;
#X obj 175 465 s totext;
#X obj 709 119 s stop/go;
#X connect 1 0 2 0;
#X connect 2 0 3 0;
#X connect 2 1 3 0;
#X connect 3 0 7 0;
#X connect 3 1 28 0;
#X connect 4 0 0 0;
#X connect 6 0 5 0;
#X connect 7 0 27 0;
#X connect 8 0 15 0;
#X connect 9 0 15 0;
#X connect 10 0 11 0;
#X connect 10 0 22 0;
#X connect 11 0 12 0;
#X connect 12 0 13 0;
#X connect 12 1 13 0;
#X connect 13 0 14 0;
#X connect 13 0 23 1;
#X connect 13 0 30 0;
#X connect 14 0 17 0;
#X connect 14 1 20 0;
#X connect 16 0 8 0;
#X connect 17 0 18 0;
#X connect 17 0 16 0;
#X connect 18 0 15 0;
#X connect 19 0 9 0;
#X connect 20 0 19 0;
#X connect 20 0 18 0;
#X connect 22 0 12 0;
#X connect 23 0 14 0;
#X connect 24 0 29 0;
#X connect 25 0 29 0;
#X connect 26 0 29 0;
#X connect 27 0 24 0;
#X connect 27 1 25 0;
#X connect 27 2 26 0;
#X connect 27 2 23 0;
#X connect 27 3 4 0;
#X connect 28 0 7 0;
#X restore 68 93 pd sequencergraph;
#N canvas 547 117 1322 905 grid 0;
#X obj 445 482 pack 0 0 0 0 0 0;
#X floatatom 118 151 5 0 0 0 - - -, f 5;
#X floatatom 155 144 5 0 0 0 - - -, f 5;
#X obj 106 168 s cols;
#X obj 159 169 s rows;
#X msg 215 -99 320;
#X obj 215 -77 /;
#X obj 204 -200 r cols;
#X obj 124 -51 /;
#X obj 159 -147 r rows;
#X obj 162 -177 bng 15 250 50 0 empty empty empty 17 7 0 10 -262144
-1 -1;
#X floatatom 123 -26 5 0 0 0 - - -, f 5;
#X floatatom 219 -24 5 0 0 0 - - -, f 5;
#X obj 98 -61 i;
#X obj 204 -53 i;
#X text 176 134 corner;
#X floatatom 194 151 5 0 0 0 - - -, f 5;
#X floatatom 250 162 10 0 0 0 - - -, f 10;
#X text 241 134 colour;
#X obj 430 149 counter;
#X obj 491 103 r cols;
#X msg 457 127 0;
#X obj 574 182 counter;
#X obj 632 141 r rows;
#X text 259 -26 width;
#X text 159 -26 height;
#X obj 155 -85 t b f;
#X obj 217 -132 t b f;
#X obj 124 1 s height;
#X obj 217 0 s width;
#X obj 480 289 r height;
#X obj 439 199 r width;
#X obj 123 243 f;
#X obj 178 241 f;
#X obj 151 289 *;
#X obj 121 207 t b b f;
#X obj 180 208 t b b f;
#X floatatom 151 311 5 0 0 0 - - -, f 5;
#X obj 150 336 s total;
#X floatatom 430 171 5 0 0 0 - - -, f 5;
#X floatatom 574 207 5 0 0 0 - - -, f 5;
#X obj 454 -122 bng 15 250 50 0 empty empty empty 17 7 0 10 -262144
-1 -1;
#X obj 451 -75 t b b b b b;
#X obj 416 216 *;
#X obj 461 307 *;
#X obj 443 15 t b b;
#X obj 510 405 r height;
#X obj 495 384 r width;
#X obj 561 599 outlet;
#X obj 527 253 t b b, f 6;
#X obj 511 15 counter;
#X obj 597 -9 r total;
#X obj 513 49 t b f;
#X obj 557 49 sel;
#X obj 471 -8 spigot;
#X msg 510 -42 1;
#X msg 609 50 0;
#X msg 446 504 print /7/\$1/\$2/\$3/\$4/\$5/\$6/;
#X obj 548 421 r spacing;
#X obj 296 183 s spacing;
#X floatatom 316 151 5 0 0 0 - - -, f 5;
#X text 310 134 spacing;
#X text 108 134 cols;
#X text 146 134 rows;
#X obj 490 449 -;
#X obj 528 450 -;
#X obj 159 -125 + 0;
#X obj 204 -178 + 0;
#X floatatom 472 170 5 0 0 0 - - -, f 5;
#X obj 451 287 f;
#X obj 177 270 + 0;
#X obj 136 263 + 0;
#X obj 158 -53 + 0;
#X obj 227 -159 + 0;
#X obj 491 125 - 1;
#X obj 634 163 - 1;
#X msg 603 553 print /18/;
#X obj 451 -173 inlet;
#X obj 451 -151 sel 1;
#X floatatom 745 -136 5 0 0 0 - - -, f 5;
#X obj 724 -170 mrpeach/routeOSC /1 /touched /tsx /tsy;
#X floatatom 792 -118 5 0 0 0 - - -, f 5;
#X floatatom 848 -144 5 0 0 0 - - -, f 5;
#X floatatom 907 -145 5 0 0 0 - - -, f 5;
#X floatatom 857 -46 5 0 0 0 - - -, f 5;
#X floatatom 909 -49 5 0 0 0 - - -, f 5;
#X obj 863 -92 / 10;
#X obj 865 -74 i;
#X obj 909 -97 / 10;
#X obj 919 -73 i, f 1;
#X obj 787 -139 s touched;
#X obj 751 -5 sel 1;
#X obj 751 17 t b b;
#X obj 746 -110 change;
#X msg 771 -70 stop;
#X obj 736 -90 t b f b;
#X obj 733 -28 f;
#X obj 729 -51 delay 1;
#X obj 725 -193 r fromDisplay;
#X obj 895 19 /;
#X obj 896 52 i;
#X floatatom 896 74 5 0 0 0 - - -, f 5;
#X obj 830 51 i;
#X floatatom 833 80 5 0 0 0 - - -, f 5;
#X obj 846 -1 r width;
#X obj 911 -29 r height;
#X obj 969 -108 r rows;
#X obj 969 -86 t b f;
#X msg 980 -62 1;
#X obj 980 -40 /;
#X floatatom 925 18 5 0 0 0 - - -, f 5;
#X obj 911 -5 *;
#N canvas 807 23 423 559 flash-time 0;
#X obj 96 521 outlet;
#X obj 162 230 t b f;
#X obj 96 268 +;
#X obj 96 293 t b f;
#X obj 96 324 +;
#X obj 19 208 * -65536;
#X obj 96 208 * -256;
#X obj 162 208 * -1;
#X obj 96 355 - 1;
#X obj 103 105 nbx 3 14 0 255 0 0 \$0-dummy \$0-r empty 0 -8 0 10 -262144
-258113 -1 0 256 0;
#X obj 133 105 nbx 3 14 0 255 0 0 \$0-dummy \$0-g empty 0 -8 0 10 -262144
-13381 -1 0 256 0;
#X obj 163 105 nbx 3 14 0 255 0 0 \$0-dummy \$0-b empty 0 -8 0 10 -262144
-4160 -1 0 256 0;
#X connect 1 0 2 0;
#X connect 1 1 2 1;
#X connect 2 0 3 0;
#X connect 3 0 4 0;
#X connect 3 1 4 1;
#X connect 4 0 8 0;
#X connect 5 0 4 0;
#X connect 6 0 2 0;
#X connect 7 0 1 0;
#X connect 8 0 0 0;
#X connect 9 0 5 0;
#X connect 10 0 6 0;
#X connect 11 0 7 0;
#X coords 0 -1 1 1 102 25 2 100 100;
#X restore 245 109 pd flash-time;
#X obj 37 127 loadbang;
#X msg 37 149 4;
#X obj 535 -119 delay 200;
#X obj 972 140 s gridbuts;
#X obj 863 117 f;
#X obj 811 106 t f b;
#X obj 864 141 * 4;
#X obj 828 137 +;
#X floatatom 903 136 5 0 0 0 - - -, f 5;
#X obj 585 -150 loadbang;
#X obj 213 187 s corner;
#X obj 557 448 r corner;
#X obj 243 219 s colour;
#X obj 576 471 r colour;
#X text 685 546 clear;
#X obj 322 387 pack;
#X obj 334 348 f;
#X obj 130 401 f;
#X obj 536 145 sel 3;
#X obj 367 367 + 10;
#X msg 549 -22 0;
#X obj 421 47 spigot;
#X obj 977 120 pack;
#X obj 977 95 f;
#X msg 54 91 2;
#X msg 126 -103 120;
#X floatatom 33 277 5 0 0 0 - - -, f 5;
#X obj 33 298 s offseth;
#X floatatom 32 326 5 0 0 0 - - -, f 5;
#X obj 32 347 s offsetw;
#X msg 52 226 120;
#X obj 480 336 r offseth;
#X obj 450 346 +;
#X obj 433 394 r offsetw;
#X obj 433 418 +;
#X obj 832 25 / 80;
#X obj 907 -124 - 460;
#X obj 848 -123 - 500;
#X obj 977 -14 + 1;
#X msg 299 52 109342;
#X obj 375 415 + 10;
#X obj 203 478 sel 1 2 3 4 5 6 7 8;
#X msg 202 507 osc;
#X msg 200 538 vcf;
#X msg 200 568 vca;
#X msg 200 596 lfo;
#X msg 302 524 seq;
#X msg 300 554 arp;
#X msg 300 584 fx;
#X msg 300 612 sys;
#X obj 364 593 s totext;
#X obj 367 552 pack s 3 1 0 0;
#X floatatom 229 412 5 0 0 0 - - -, f 5;
#X obj 438 -101 delay 10;
#X obj 409 243 t b b f b;
#X obj 416 77 delay 1;
#X obj 842 486 s toDisplay;
#X obj 731 238 counter 3;
#X obj 792 436 t b b f b;
#X obj 795 541 pack s f;
#X obj 793 519 symbol;
#X msg 764 213 symbol osc;
#X obj 727 189 t b b;
#X obj 848 191 t b b;
#X msg 885 215 symbol vcf;
#X obj 841 520 + 1;
#X obj 989 187 t b b;
#X msg 1026 211 symbol vca;
#X obj 1124 187 t b b;
#X msg 1161 211 symbol lfo;
#X obj 852 255 + 10;
#X obj 993 251 + 20;
#X obj 1128 251 + 30;
#X obj 736 304 t b b;
#X obj 877 300 t b b;
#X obj 1012 300 t b b;
#X obj 1136 301 t b b;
#X obj 750 377 + 40;
#X obj 891 373 + 50;
#X obj 1026 373 + 60;
#X obj 1150 374 + 70;
#X msg 773 328 symbol seq;
#X msg 916 323 symbol arp;
#X msg 1049 324 symbol fx;
#X msg 1173 326 symbol sys;
#X obj 852 236 counter 1;
#X obj 723 170 sel 8;
#X obj 844 172 sel 9;
#X obj 985 168 sel 10;
#X obj 1121 168 sel 11;
#X obj 732 285 sel 12;
#X obj 873 281 sel 13;
#X obj 1010 281 sel 14;
#X obj 1133 282 sel 15;
#X msg 841 460 print /3/0/90/120/30/100000/;
#X obj 790 594 s totext;
#X msg 794 566 \$1_\$2 3 1 0 90;
#X msg 1136 338 0;
#X msg 732 335 0;
#X msg 1026 337 0;
#X msg 882 343 0;
#X msg 1122 224 0;
#X msg 996 218 0;
#X obj 977 63 t b f f;
#X obj 746 407 i;
#X obj 746 429 s page;
#X connect 0 0 57 0;
#X connect 1 0 3 0;
#X connect 1 0 35 0;
#X connect 2 0 4 0;
#X connect 2 0 36 0;
#X connect 5 0 6 0;
#X connect 6 0 14 0;
#X connect 7 0 67 0;
#X connect 8 0 13 0;
#X connect 9 0 66 0;
#X connect 10 0 138 0;
#X connect 10 0 5 0;
#X connect 13 0 11 0;
#X connect 13 0 28 0;
#X connect 14 0 12 0;
#X connect 14 0 29 0;
#X connect 16 0 123 0;
#X connect 17 0 125 0;
#X connect 19 0 39 0;
#X connect 19 0 43 0;
#X connect 19 0 131 0;
#X connect 19 2 68 0;
#X connect 20 0 74 0;
#X connect 21 0 19 2;
#X connect 22 0 40 0;
#X connect 22 0 69 1;
#X connect 23 0 75 0;
#X connect 26 0 138 0;
#X connect 26 0 5 0;
#X connect 26 1 72 0;
#X connect 27 0 5 0;
#X connect 27 0 138 0;
#X connect 27 1 73 0;
#X connect 30 0 44 1;
#X connect 31 0 43 1;
#X connect 32 0 71 0;
#X connect 33 0 70 0;
#X connect 34 0 37 0;
#X connect 34 0 38 0;
#X connect 35 0 32 0;
#X connect 35 1 33 0;
#X connect 35 2 32 1;
#X connect 36 0 32 0;
#X connect 36 1 33 0;
#X connect 36 2 33 1;
#X connect 41 0 49 0;
#X connect 41 0 166 0;
#X connect 42 0 50 0;
#X connect 42 3 22 0;
#X connect 42 4 21 0;
#X connect 42 4 55 0;
#X connect 42 4 133 0;
#X connect 42 4 22 2;
#X connect 43 0 167 0;
#X connect 44 0 145 0;
#X connect 45 1 19 0;
#X connect 46 0 65 0;
#X connect 47 0 64 0;
#X connect 50 0 52 0;
#X connect 50 0 130 1;
#X connect 51 0 50 4;
#X connect 51 0 53 1;
#X connect 52 0 134 0;
#X connect 52 1 53 0;
#X connect 53 0 56 0;
#X connect 54 0 50 0;
#X connect 55 0 54 1;
#X connect 55 0 134 1;
#X connect 56 0 54 1;
#X connect 56 0 134 1;
#X connect 57 0 48 0;
#X connect 58 0 64 1;
#X connect 58 0 65 1;
#X connect 60 0 59 0;
#X connect 64 0 0 2;
#X connect 65 0 0 3;
#X connect 66 0 26 0;
#X connect 67 0 27 0;
#X connect 69 0 44 0;
#X connect 70 0 34 1;
#X connect 71 0 34 0;
#X connect 72 0 8 1;
#X connect 73 0 6 1;
#X connect 74 0 19 4;
#X connect 75 0 22 4;
#X connect 76 0 48 0;
#X connect 77 0 78 0;
#X connect 78 0 41 0;
#X connect 80 0 79 0;
#X connect 80 1 81 0;
#X connect 80 1 90 0;
#X connect 80 1 93 0;
#X connect 80 2 82 0;
#X connect 80 3 83 0;
#X connect 82 0 150 0;
#X connect 83 0 149 0;
#X connect 86 0 87 1;
#X connect 87 0 84 0;
#X connect 87 0 148 0;
#X connect 88 0 89 1;
#X connect 89 0 85 0;
#X connect 89 0 99 0;
#X connect 91 0 92 0;
#X connect 92 0 87 0;
#X connect 92 1 89 0;
#X connect 93 0 95 0;
#X connect 94 0 97 0;
#X connect 95 0 97 0;
#X connect 95 1 96 1;
#X connect 95 2 94 0;
#X connect 96 0 91 0;
#X connect 97 0 96 0;
#X connect 98 0 80 0;
#X connect 99 0 100 0;
#X connect 100 0 101 0;
#X connect 100 0 117 1;
#X connect 102 0 103 0;
#X connect 102 0 118 0;
#X connect 104 0 148 1;
#X connect 105 0 111 0;
#X connect 106 0 107 0;
#X connect 107 0 108 0;
#X connect 107 1 109 1;
#X connect 108 0 109 0;
#X connect 109 0 151 0;
#X connect 111 0 99 1;
#X connect 111 0 110 0;
#X connect 112 0 17 0;
#X connect 113 0 114 0;
#X connect 113 0 137 0;
#X connect 113 0 143 0;
#X connect 114 0 1 0;
#X connect 114 0 60 0;
#X connect 114 0 16 0;
#X connect 114 0 152 0;
#X connect 115 0 41 0;
#X connect 117 0 119 0;
#X connect 118 0 120 0;
#X connect 118 1 117 0;
#X connect 119 0 120 1;
#X connect 120 0 121 0;
#X connect 120 0 216 0;
#X connect 122 0 115 0;
#X connect 124 0 0 4;
#X connect 126 0 0 5;
#X connect 129 0 128 0;
#X connect 129 0 164 3;
#X connect 130 0 154 0;
#X connect 131 0 22 0;
#X connect 132 0 128 1;
#X connect 132 0 164 4;
#X connect 133 0 50 2;
#X connect 134 0 168 0;
#X connect 135 0 116 0;
#X connect 136 0 135 0;
#X connect 137 0 2 0;
#X connect 138 0 8 0;
#X connect 139 0 140 0;
#X connect 141 0 142 0;
#X connect 143 0 139 0;
#X connect 144 0 145 1;
#X connect 145 0 0 1;
#X connect 145 0 132 0;
#X connect 146 0 147 1;
#X connect 147 0 0 0;
#X connect 147 0 153 0;
#X connect 148 0 102 0;
#X connect 149 0 88 0;
#X connect 150 0 86 0;
#X connect 151 0 111 1;
#X connect 152 0 17 0;
#X connect 153 0 129 1;
#X connect 154 0 155 0;
#X connect 154 1 156 0;
#X connect 154 2 157 0;
#X connect 154 3 158 0;
#X connect 154 4 159 0;
#X connect 154 5 160 0;
#X connect 154 6 161 0;
#X connect 154 7 162 0;
#X connect 155 0 164 0;
#X connect 156 0 164 0;
#X connect 157 0 164 0;
#X connect 158 0 164 0;
#X connect 159 0 164 0;
#X connect 160 0 164 0;
#X connect 161 0 164 0;
#X connect 162 0 164 0;
#X connect 164 0 163 0;
#X connect 165 0 154 0;
#X connect 166 0 42 0;
#X connect 167 0 130 0;
#X connect 167 1 129 0;
#X connect 167 2 147 0;
#X connect 167 3 69 0;
#X connect 168 0 54 0;
#X connect 168 0 45 0;
#X connect 170 0 171 0;
#X connect 170 0 217 0;
#X connect 171 1 173 0;
#X connect 171 2 178 0;
#X connect 171 3 207 0;
#X connect 172 0 209 0;
#X connect 173 0 172 0;
#X connect 174 0 173 1;
#X connect 175 0 170 0;
#X connect 175 1 174 0;
#X connect 176 0 198 0;
#X connect 176 1 177 0;
#X connect 177 0 173 1;
#X connect 178 0 172 1;
#X connect 179 0 215 0;
#X connect 179 1 180 0;
#X connect 180 0 173 1;
#X connect 181 0 214 0;
#X connect 181 1 182 0;
#X connect 182 0 173 1;
#X connect 183 0 217 0;
#X connect 184 0 217 0;
#X connect 185 0 217 0;
#X connect 186 0 211 0;
#X connect 186 1 194 0;
#X connect 187 0 213 0;
#X connect 187 1 195 0;
#X connect 188 0 212 0;
#X connect 188 1 196 0;
#X connect 189 0 210 0;
#X connect 189 1 197 0;
#X connect 190 0 217 0;
#X connect 191 0 217 0;
#X connect 192 0 217 0;
#X connect 193 0 217 0;
#X connect 194 0 173 1;
#X connect 195 0 173 1;
#X connect 196 0 173 1;
#X connect 197 0 173 1;
#X connect 198 0 171 0;
#X connect 198 0 183 0;
#X connect 199 0 175 0;
#X connect 200 0 176 0;
#X connect 201 0 179 0;
#X connect 202 0 181 0;
#X connect 203 0 186 0;
#X connect 204 0 187 0;
#X connect 205 0 188 0;
#X connect 206 0 189 0;
#X connect 207 0 169 0;
#X connect 209 0 208 0;
#X connect 210 0 193 0;
#X connect 210 0 171 0;
#X connect 211 0 190 0;
#X connect 211 0 171 0;
#X connect 212 0 192 0;
#X connect 212 0 171 0;
#X connect 213 0 191 0;
#X connect 213 0 171 0;
#X connect 214 0 185 0;
#X connect 214 0 171 0;
#X connect 215 0 184 0;
#X connect 215 0 171 0;
#X connect 216 0 136 0;
#X connect 216 1 135 1;
#X connect 216 2 199 0;
#X connect 216 2 206 0;
#X connect 216 2 205 0;
#X connect 216 2 204 0;
#X connect 216 2 203 0;
#X connect 216 2 202 0;
#X connect 216 2 201 0;
#X connect 216 2 200 0;
#X connect 217 0 218 0;
#X connect 217 0 136 1;
#X coords 0 -1 1 1 300 80 1 100 100;
#X restore 404 -84 pd grid;
#X obj 400 10 s toDisplay;
#X obj 403 -105 r redraw;
#N canvas 503 258 450 323 screensaver 0;
#X obj 272 -31 t b f;
#X obj 247 -191 tgl 15 0 empty empty empty 17 7 0 10 -262144 -1 -1
0 1;
#X floatatom 303 -201 5 0 0 0 - - -, f 5;
#X obj 246 -154 metro 100;
#X obj 236 -100 t b b;
#X obj 326 -17 pack 0 0 0 0;
#X msg 294 -97 2;
#X obj 378 -72 counter 13;
#X floatatom 449 -90 5 0 0 0 - - -, f 5;
#X text 282 -128 drawcircle;
#X text 324 164 drawtriangle;
#X obj 315 262 pack 0 0 0 0 0 0 0;
#X obj 288 143 counter 320;
#X obj 364 141 counter 240;
#X obj 439 143 counter 320;
#X obj 511 144 counter 240;
#X obj 590 143 counter 320;
#X obj 665 143 counter 240;
#X obj 281 73 t b b b;
#X obj 308 219 -;
#X obj 361 234 -;
#X obj 409 221 *;
#X obj 331 194 counter 10;
#X obj 414 193 counter 13;
#X obj 500 193 counter 15;
#X obj 442 239 -;
#X obj 490 226 *;
#X obj 525 240 -;
#X obj 573 227 *;
#X obj 611 243 -;
#X obj 659 230 *;
#X obj 713 243 -;
#X obj 761 230 *;
#X obj 582 194 counter 19;
#X obj 668 197 counter 23;
#X obj 771 197 counter 26;
#X msg 645 62 2;
#X obj 742 142 random 256000;
#X msg 317 277 print /9/\$1/\$2/\$3/\$4/\$5/\$6/\$7/;
#X msg 314 10 print /5/\$1/\$2/\$3/\$4/;
#X obj 324 319 s toDisplay;
#X obj 306 45 s toDisplay;
#X msg 258 121 10;
#X msg 274 8 10;
#X obj 495 -122 counter 40;
#X obj 221 -16 sel 1;
#X obj 233 -70 counter 327;
#X obj 307 -68 counter 241;
#N canvas 807 23 423 559 flash-time 0;
#X obj 96 521 outlet;
#X obj 162 230 t b f;
#X obj 96 268 +;
#X obj 96 293 t b f;
#X obj 96 324 +;
#X obj 96 208 * -256;
#X obj 162 208 * -1;
#X obj 96 355 - 1;
#X obj 103 105 nbx 3 14 0 255 0 0 \$0-dummy \$0-r empty 0 -8 0 10 -262144
-258113 -1 0 256 0;
#X obj 133 105 nbx 3 14 0 255 0 0 \$0-dummy \$0-g empty 0 -8 0 10 -262144
-13381 -1 0 256 0;
#X obj 163 105 nbx 3 14 0 255 0 0 \$0-dummy \$0-b empty 0 -8 0 10 -262144
-4160 -1 0 256 0;
#X obj 122 43 inlet;
#X obj 157 55 inlet;
#X obj 182 68 inlet;
#X obj 19 208 * -4095;
#X connect 1 0 2 0;
#X connect 1 1 2 1;
#X connect 2 0 3 0;
#X connect 3 0 4 0;
#X connect 3 1 4 1;
#X connect 4 0 7 0;
#X connect 5 0 2 0;
#X connect 6 0 1 0;
#X connect 7 0 0 0;
#X connect 8 0 14 0;
#X connect 9 0 5 0;
#X connect 10 0 6 0;
#X connect 11 0 8 0;
#X connect 12 0 9 0;
#X connect 13 0 10 0;
#X connect 14 0 4 0;
#X coords 0 -1 1 1 102 25 2 100 100;
#X restore 620 -83 pd flash-time;
#X obj 576 -163 counter 255;
#X obj 659 -163 counter 255;
#X obj 742 -164 counter 255;
#X obj 608 -120 sel 1;
#X obj 683 -127 sel 1;
#X obj 552 -14 random 240;
#X obj 83 -93 counter 1 50;
#X obj 115 -62 sel 1;
#X obj 187 -41 -;
#X obj 155 84 -;
#X obj 543 31 - 100;
#X obj 115 -153 random 2;
#X obj 115 -131 sel 0 1;
#N canvas 0 22 450 300 (subpatch) 0;
#X restore 222 -24 pd;
#X connect 0 0 43 0;
#X connect 0 1 5 0;
#X connect 1 0 3 0;
#X connect 2 0 3 1;
#X connect 3 0 60 0;
#X connect 4 0 46 0;
#X connect 4 1 7 0;
#X connect 4 1 47 0;
#X connect 5 0 39 0;
#X connect 6 0 7 1;
#X connect 6 0 44 1;
#X connect 6 0 47 1;
#X connect 6 0 46 1;
#X connect 7 0 5 2;
#X connect 8 0 7 4;
#X connect 11 0 38 0;
#X connect 12 0 19 0;
#X connect 13 0 20 0;
#X connect 16 0 29 0;
#X connect 17 0 31 0;
#X connect 18 0 42 0;
#X connect 18 1 12 0;
#X connect 18 2 13 0;
#X connect 18 2 14 0;
#X connect 18 2 15 0;
#X connect 18 2 17 0;
#X connect 18 2 16 0;
#X connect 18 2 22 0;
#X connect 18 2 23 0;
#X connect 18 2 24 0;
#X connect 18 2 33 0;
#X connect 18 2 34 0;
#X connect 18 2 35 0;
#X connect 18 2 37 0;
#X connect 19 0 11 0;
#X connect 20 0 11 1;
#X connect 21 0 20 1;
#X connect 22 0 19 1;
#X connect 22 0 21 0;
#X connect 23 0 21 1;
#X connect 23 0 26 0;
#X connect 24 0 26 1;
#X connect 24 0 28 0;
#X connect 25 0 11 2;
#X connect 26 0 25 1;
#X connect 27 0 11 3;
#X connect 28 0 27 1;
#X connect 29 0 11 4;
#X connect 30 0 29 1;
#X connect 31 0 11 5;
#X connect 32 0 31 1;
#X connect 33 0 28 1;
#X connect 33 0 30 0;
#X connect 34 0 30 1;
#X connect 34 0 32 0;
#X connect 35 0 32 1;
#X connect 36 0 12 1;
#X connect 36 0 13 1;
#X connect 36 0 14 1;
#X connect 36 0 15 1;
#X connect 36 0 16 1;
#X connect 36 0 17 1;
#X connect 36 0 22 1;
#X connect 36 0 23 1;
#X connect 36 0 24 1;
#X connect 36 0 33 1;
#X connect 36 0 34 1;
#X connect 36 0 35 1;
#X connect 37 0 11 6;
#X connect 38 0 40 0;
#X connect 39 0 41 0;
#X connect 42 0 40 0;
#X connect 43 0 41 0;
#X connect 44 0 8 0;
#X connect 45 0 50 0;
#X connect 46 0 57 0;
#X connect 46 2 45 0;
#X connect 47 0 58 0;
#X connect 48 0 5 3;
#X connect 49 0 48 0;
#X connect 49 2 52 0;
#X connect 50 2 53 0;
#X connect 51 0 48 2;
#X connect 52 0 54 0;
#X connect 52 0 51 0;
#X connect 54 0 44 4;
#X connect 54 0 59 0;
#X connect 55 0 57 1;
#X connect 55 2 56 0;
#X connect 56 0 49 0;
#X connect 56 0 44 0;
#X connect 57 0 0 0;
#X connect 58 0 5 1;
#X connect 59 0 58 1;
#X connect 60 0 61 0;
#X connect 61 0 55 0;
#X connect 61 0 4 0;
#X restore 58 -88 pd screensaver;
#X floatatom 264 85 80 0 0 0 - - -, f 80;
#X text 271 82 colour;
#N canvas 807 23 423 559 flash-time 0;
#X obj 96 521 outlet;
#X obj 162 230 t b f;
#X obj 96 268 +;
#X obj 96 293 t b f;
#X obj 96 324 +;
#X obj 19 208 * -65536;
#X obj 96 208 * -256;
#X obj 162 208 * -1;
#X obj 96 355 - 1;
#X obj 103 105 nbx 3 14 0 255 0 0 \$0-dummy \$0-r empty 0 -8 0 10 -262144
-258113 -1 0 256 0;
#X obj 133 105 nbx 3 14 0 255 0 0 \$0-dummy \$0-g empty 0 -8 0 10 -262144
-13381 -1 0 256 0;
#X obj 163 105 nbx 3 14 0 255 0 0 \$0-dummy \$0-b empty 0 -8 0 10 -262144
-4160 -1 0 256 0;
#X connect 1 0 2 0;
#X connect 1 1 2 1;
#X connect 2 0 3 0;
#X connect 3 0 4 0;
#X connect 3 1 4 1;
#X connect 4 0 8 0;
#X connect 5 0 4 0;
#X connect 6 0 2 0;
#X connect 7 0 1 0;
#X connect 8 0 0 0;
#X connect 9 0 5 0;
#X connect 10 0 6 0;
#X connect 11 0 7 0;
#X coords 0 -1 1 1 102 25 2 100 100;
#X restore 275 57 pd flash-time;
#X obj 327 132 prepend set;
#X msg 327 154 367;
#X msg 395 151 print /5/45/75/25/\$1/;
#X obj 395 173 s toDisplay;
#X floatatom 399 115 15 0 0 0 - - -, f 15;
#X connect 2 0 3 0;
#X connect 4 0 2 0;
#X connect 8 0 6 0;
#X connect 8 0 9 0;
#X connect 9 0 10 0;
#X connect 11 0 12 0;
#X connect 13 0 11 0;
#X connect 13 0 9 0;
#X restore 64 -925 pd graph;
#N canvas 0 22 450 300 routing 0;
#X obj 238 -200 ctlin 2 1;
#X obj 236 -129 line;
#X msg 242 -156 \$1 10;
#X obj 301 -196 ctlin 19 1;
#X obj 272 -123 line;
#X msg 278 -150 \$1 10;
#X obj 147 64 s osc2pitch;
#X obj 261 21 ctlin 74 1;
#X obj 102 -133 ctlin 80 1;
#X obj 83 -186 loadbang;
#X msg 83 -163 0.5;
#X msg 147 -154 1;
#X obj 82 139 s porta;
#X obj 191 101 ctlin 16 1;
#X obj 88 116 * 10;
#X floatatom 163 44 5 0 0 0 - - -, f 5;
#X obj 148 21 r \$0-osc2pitch.s;
#X floatatom 55 -36 5 0 0 0 - - -, f 5;
#X obj 55 -58 r \$0-6stage1Op16.s;
#X obj 54 -13 s osc1vel;
#X floatatom 213 -39 5 0 0 0 - - -, f 5;
#X obj 213 -61 r \$0-6stage2Op16.s;
#X obj 212 -16 s osc2vel;
#X obj 258 45 s \$0-osc2pitch.r;
#X obj 89 88 r \$0-porta.s;
#X obj 190 123 s \$0-porta.r;
#X floatatom 154 224 5 0 0 0 - - -, f 5;
#X obj 157 176 ctlin 71 1;
#X obj 181 266 s osc1pitch;
#X floatatom 69 183 5 0 0 0 - - -, f 5;
#X obj 68 204 s osc1pitch;
#X obj 69 161 r \$0-osc1pitch.s;
#X obj 88 30 loadbang;
#X msg 88 52 2;
#X obj 377 -92 s 6stagefiltamt;
#X obj 390 -145 r \$0-filtamt.s;
#X floatatom 390 -123 5 0 0 0 - - -, f 5;
#X obj 519 -168 r \$0-resonance.s;
#X floatatom 563 -118 5 0 0 0 - - -, f 5;
#X obj 536 -61 s \$0-resonance.r;
#X connect 0 0 2 0;
#X connect 2 0 1 0;
#X connect 3 0 5 0;
#X connect 5 0 4 0;
#X connect 7 0 23 0;
#X connect 9 0 10 0;
#X connect 9 0 11 0;
#X connect 13 0 25 0;
#X connect 14 0 12 0;
#X connect 16 0 15 0;
#X connect 16 0 6 0;
#X connect 18 0 17 0;
#X connect 18 0 19 0;
#X connect 21 0 20 0;
#X connect 21 0 22 0;
#X connect 24 0 14 0;
#X connect 27 0 26 0;
#X connect 27 0 28 0;
#X connect 31 0 29 0;
#X connect 31 0 30 0;
#X connect 32 0 33 0;
#X connect 33 0 6 0;
#X connect 33 0 29 0;
#X connect 35 0 36 0;
#X connect 35 0 34 0;
#X connect 37 0 38 0;
#X restore 64 -903 pd routing;
#N canvas 710 340 537 429 lcdnumformat 0;
#X obj 170 149 mod 1000;
#X obj 170 195 i;
#X floatatom 170 218 5 0 0 0 - - -, f 5;
#X obj 230 195 i;
#X floatatom 230 218 5 0 0 0 - - -, f 5;
#X floatatom 290 218 5 0 0 0 - - -, f 5;
#X obj 230 149 mod 100;
#X obj 290 149 mod 10;
#X obj 196 83 inlet;
#X obj 257 292 outlet;
#X obj 267 302 outlet;
#X obj 277 312 outlet;
#X floatatom 294 49 5 0 0 0 - - -, f 5;
#X obj 231 172 / 10;
#X obj 171 172 / 100;
#X connect 0 0 14 0;
#X connect 1 0 2 0;
#X connect 1 0 9 0;
#X connect 3 0 4 0;
#X connect 3 0 10 0;
#X connect 6 0 13 0;
#X connect 7 0 5 0;
#X connect 7 0 11 0;
#X connect 8 0 0 0;
#X connect 8 0 6 0;
#X connect 8 0 7 0;
#X connect 12 0 7 0;
#X connect 12 0 6 0;
#X connect 12 0 0 0;
#X connect 13 0 3 0;
#X connect 14 0 1 0;
#X restore 63 -858 pd lcdnumformat;
#N canvas 293 124 1366 719 scalemaker 0;
#X msg 482 312 0 2 4 5 7 9 11;
#X msg 515 339 0 2 3 5 7 8 10;
#X msg 567 393 0 2 4 6 7 9 11;
#X msg 542 366 0 1 3 5 7 8 10;
#X text 583 312 Major (Ionian);
#X text 615 336 Minor (Aeolian);
#X text 667 393 Lydian;
#X msg 607 422 0 2 4 6 8 10;
#X text 643 365 Phrygian;
#X text 694 421 Whole Tone;
#X obj 485 412 t l l;
#X obj 511 440 list length;
#X msg 513 492 resize \$1;
#X text 526 527 <-- this tells the array \$0-scale to fill the array
elements starting at element 0;
#X text 584 491 <-- set the array size to the number of tones in the
scale octave.;
#X floatatom 67 34 5 0 0 0 - - -, f 5;
#X obj 67 124 mod 7;
#X text 110 123 <-- [mod ] handles negative numbers differently than
[% ];
#X obj 142 167 div 7;
#X obj 67 67 t f f;
#X floatatom 199 211 5 0 0 0 - - -, f 5;
#X floatatom 74 458 5 0 0 0 - - -, f 5;
#X obj 485 279 sel 0 1 2 3 4;
#X floatatom 30 185 5 0 0 0 - - -, f 5;
#X obj 142 220 * 12;
#X obj 74 356 +;
#X obj 74 398 + 48;
#X text 189 163 <-- division that discards the remainder. This tells
you what octave to use.;
#X text 118 396 <-- offset;
#X obj 415 531 list prepend 0;
#X obj 438 560 list trim;
#X obj 74 282 tabread scale;
#X obj 517 561 s scale;
#X obj 511 464 s scale_length;
#X obj 167 48 r scale_length;
#X obj 462 186 receive fromGUI;
#X obj 461 214 route list;
#X obj 461 239 route /scaleslide;
#X msg 612 221 0 1 2 3 4 5 6 7 8 9 10 11;
#X obj 610 189 loadbang;
#X obj 632 68 sel 1;
#X obj 711 66 sel 1;
#X obj 756 66 sel 1;
#X obj 811 68 sel 1;
#X obj 863 69 sel 1;
#X obj 925 70 sel 1;
#X obj 992 71 sel 1;
#X obj 1047 70 sel 1;
#X obj 1112 70 sel 1;
#X obj 1167 70 sel 1;
#X msg 698 92 1;
#X msg 756 92 2;
#X msg 807 92 3;
#X msg 869 93 4;
#X msg 925 93 5;
#X msg 992 94 6;
#X msg 1049 94 7;
#X msg 1107 97 8;
#X msg 1168 97 9;
#X obj 1226 69 sel 1;
#X msg 1227 96 10;
#X obj 1284 71 sel 1;
#X msg 1285 98 11;
#X obj 651 122 f;
#X obj 713 119 f;
#X obj 768 121 f;
#X obj 821 121 f;
#X obj 877 122 f;
#X obj 937 121 f;
#X obj 1007 123 f;
#X obj 1061 125 f;
#X obj 1122 127 f;
#X obj 1182 128 f;
#X obj 1233 128 f;
#X obj 1283 131 f;
#X msg 632 91 0;
#X msg 663 91 99;
#X msg 726 93 99;
#X msg 782 92 99;
#X msg 837 93 99;
#X msg 894 94 99;
#X msg 954 94 99;
#X msg 1016 95 99;
#X msg 1074 95 99;
#X msg 1137 97 99;
#X msg 1196 97 99;
#X msg 1255 96 99;
#X msg 1313 98 99;
#X obj 712 20 t b f;
#X obj 771 20 t b f;
#X obj 823 20 t b f;
#X obj 865 20 t b f;
#X obj 927 19 t b f;
#X obj 995 24 t b f;
#X obj 1054 24 t b f;
#X obj 1106 24 t b f;
#X obj 1163 25 t b f;
#X obj 1221 21 t b f;
#X obj 1285 23 t b f;
#X obj 644 15 t b f;
#X obj 1022 339 f;
#X obj 1060 338 + 1;
#X floatatom 1020 363 5 0 0 0 - - -, f 5;
#X obj 1016 302 bng 15 250 50 0 empty empty empty 17 7 0 10 -262144
-1 -1;
#X obj 981 238 sel 99;
#X obj 1069 364 mod 100;
#X obj 983 198 t b a;
#X obj 961 36 t b b;
#X msg 1047 230 0;
#X obj 1069 189 loadbang;
#X obj 1022 394 + 1;
#X floatatom 710 457 5 0 0 0 - - -, f 5;
#X obj 974 275 t f b;
#X obj 989 440 list prepend;
#X obj 1074 470 t l;
#X obj 1001 500 t l l;
#X obj 1027 528 list length;
#X msg 1029 580 resize \$1;
#X obj 931 619 list prepend 0;
#X obj 954 648 list trim;
#X obj 1033 649 s scale;
#X obj 1027 552 s scale_length;
#X text 1042 615 comment;
#X obj 275 604 loadbang;
#X msg 275 646 \; scale 0 0 2 4 5 7 9 11 12 14 16 17 19 21 23 24 26
28 29 31 33 35 36 38 40 41 43 45 47 48 \;;
#X obj 66 556 nbx 4 16 -1e+037 1e+037 0 0 empty empty empty 0 -8 0
12 -262130 -4160 -1 0 256 0;
#X obj 69 732 hsl 195 15 0 15 0 0 empty empty empty -2 -8 0 10 -258113
-4032 -1 0 1;
#N canvas 0 50 450 300 (subpatch) 0;
#X array scale 12 float 3 black black;
#A 0 0 2 4 5 7 9 11 12 14 16 17 19;
#X coords 0 60 12 0 200 140 1;
#X restore 66 585 graph;
#X obj 788 -107 receive fromkeys;
#X obj 790 -54 unpack 0 0 0 0 0 0 0 0 0 0 0 0 0;
#X obj 247 254 mod 4;
#X connect 0 0 10 0;
#X connect 1 0 10 0;
#X connect 2 0 10 0;
#X connect 3 0 10 0;
#X connect 7 0 10 0;
#X connect 10 0 29 0;
#X connect 10 1 11 0;
#X connect 11 0 12 0;
#X connect 11 0 33 0;
#X connect 11 0 111 0;
#X connect 12 0 32 0;
#X connect 15 0 19 0;
#X connect 16 0 23 0;
#X connect 16 0 31 0;
#X connect 18 0 130 0;
#X connect 19 0 16 0;
#X connect 19 1 18 0;
#X connect 22 0 0 0;
#X connect 22 1 1 0;
#X connect 22 2 3 0;
#X connect 22 3 2 0;
#X connect 22 4 7 0;
#X connect 24 0 25 1;
#X connect 25 0 26 0;
#X connect 26 0 21 0;
#X connect 29 0 30 0;
#X connect 30 0 32 0;
#X connect 31 0 25 0;
#X connect 34 0 16 1;
#X connect 34 0 18 1;
#X connect 35 0 36 0;
#X connect 36 0 37 0;
#X connect 37 0 22 0;
#X connect 38 0 10 0;
#X connect 39 0 38 0;
#X connect 40 0 75 0;
#X connect 40 1 76 0;
#X connect 41 0 50 0;
#X connect 41 1 77 0;
#X connect 42 0 51 0;
#X connect 42 1 78 0;
#X connect 43 0 52 0;
#X connect 43 1 79 0;
#X connect 44 0 53 0;
#X connect 44 1 80 0;
#X connect 45 0 54 0;
#X connect 45 1 81 0;
#X connect 46 0 55 0;
#X connect 46 1 82 0;
#X connect 47 0 56 0;
#X connect 47 1 83 0;
#X connect 48 0 57 0;
#X connect 48 1 84 0;
#X connect 49 0 58 0;
#X connect 49 1 85 0;
#X connect 50 0 64 1;
#X connect 51 0 65 1;
#X connect 52 0 66 1;
#X connect 53 0 67 1;
#X connect 54 0 68 1;
#X connect 55 0 69 1;
#X connect 56 0 70 1;
#X connect 57 0 71 1;
#X connect 58 0 72 1;
#X connect 59 0 60 0;
#X connect 59 1 86 0;
#X connect 60 0 73 1;
#X connect 61 0 62 0;
#X connect 61 1 87 0;
#X connect 62 0 74 1;
#X connect 63 0 106 0;
#X connect 64 0 106 0;
#X connect 65 0 106 0;
#X connect 66 0 106 0;
#X connect 67 0 106 0;
#X connect 68 0 106 0;
#X connect 69 0 106 0;
#X connect 70 0 106 0;
#X connect 71 0 106 0;
#X connect 72 0 106 0;
#X connect 73 0 106 0;
#X connect 74 0 106 0;
#X connect 75 0 63 1;
#X connect 76 0 63 1;
#X connect 77 0 64 1;
#X connect 78 0 65 1;
#X connect 79 0 66 1;
#X connect 80 0 67 1;
#X connect 81 0 68 1;
#X connect 82 0 69 1;
#X connect 83 0 70 1;
#X connect 84 0 71 1;
#X connect 85 0 72 1;
#X connect 86 0 73 1;
#X connect 87 0 74 1;
#X connect 88 0 107 0;
#X connect 88 1 41 0;
#X connect 89 0 107 0;
#X connect 89 1 42 0;
#X connect 90 0 107 0;
#X connect 90 1 43 0;
#X connect 91 0 107 0;
#X connect 91 1 44 0;
#X connect 92 0 107 0;
#X connect 92 1 45 0;
#X connect 93 0 107 0;
#X connect 93 1 46 0;
#X connect 94 0 107 0;
#X connect 94 1 47 0;
#X connect 95 0 107 0;
#X connect 95 1 48 0;
#X connect 96 0 107 0;
#X connect 96 1 49 0;
#X connect 97 0 107 0;
#X connect 97 1 59 0;
#X connect 98 0 107 0;
#X connect 98 1 61 0;
#X connect 99 0 107 0;
#X connect 99 1 40 0;
#X connect 100 0 101 0;
#X connect 100 0 102 0;
#X connect 101 0 105 0;
#X connect 102 0 110 0;
#X connect 103 0 100 0;
#X connect 104 1 112 0;
#X connect 105 0 100 1;
#X connect 106 1 104 0;
#X connect 107 0 63 0;
#X connect 107 0 64 0;
#X connect 107 0 65 0;
#X connect 107 0 66 0;
#X connect 107 0 67 0;
#X connect 107 0 68 0;
#X connect 107 0 69 0;
#X connect 107 0 70 0;
#X connect 107 0 71 0;
#X connect 107 0 72 0;
#X connect 107 0 73 0;
#X connect 107 0 74 0;
#X connect 107 1 108 0;
#X connect 107 1 113 1;
#X connect 108 0 100 1;
#X connect 108 0 102 0;
#X connect 109 0 108 0;
#X connect 112 0 113 0;
#X connect 112 1 103 0;
#X connect 113 0 114 0;
#X connect 113 0 115 0;
#X connect 114 0 113 1;
#X connect 115 0 118 0;
#X connect 115 1 116 0;
#X connect 116 0 117 0;
#X connect 116 0 121 0;
#X connect 117 0 120 0;
#X connect 118 0 119 0;
#X connect 119 0 120 0;
#X connect 123 0 124 0;
#X connect 125 0 126 0;
#X connect 128 0 129 0;
#X connect 129 0 99 0;
#X connect 129 1 88 0;
#X connect 129 2 89 0;
#X connect 129 3 90 0;
#X connect 129 4 91 0;
#X connect 129 5 92 0;
#X connect 129 6 93 0;
#X connect 129 7 94 0;
#X connect 129 8 95 0;
#X connect 129 9 96 0;
#X connect 129 10 97 0;
#X connect 129 11 98 0;
#X connect 130 0 24 0;
#X connect 130 0 20 0;
#X restore 64 -817 pd scalemaker;
#N canvas 480 22 509 724 spiFiltTester 0;
#X restore 65 -838 pd spiFiltTester;
#X obj 93 -696 sequencer;
#X floatatom 80 -431 0 0 0 0 - - -;
#X obj 80 -519 cputime;
#X obj 80 -659 loadbang;
#X obj 80 -575 metro 1000;
#X floatatom 80 -603 0 0 0 0 - - -;
#X obj 80 -547 t b b;
#X obj 80 -459 * 0.1;
#X obj 80 -490 int;
#X text 125 -603 <-- on/off;
#X text 13 -403 CPU load in percent;
#X obj 155 -441 print;
#X msg 80 -630 0;
#X obj 1022 326;
#X connect 3 0 5 0;
#X connect 5 0 4 0;
#X connect 15 0 21 0;
#X connect 16 0 25 0;
#X connect 17 0 19 0;
#X connect 18 0 17 0;
#X connect 19 0 15 0;
#X connect 19 1 15 1;
#X connect 20 0 14 0;
#X connect 20 0 24 0;
#X connect 21 0 20 0;
#X connect 25 0 18 0;
#X restore 20 -2255 pd system;
#N canvas 2 30 798 427 loader 0;
#X obj -235 204 getdir;
#X obj -238 181 bng 15 250 50 0 empty empty empty 17 7 0 10 -262144
-1 -1;
#X obj -241 227 list trim;
#X obj -241 249 list prepend cd;
#X obj -246 273 list trim;
#X obj -42 -17 t b b;
#X obj -41 -39 bng 15 250 50 0 empty empty empty 17 7 0 10 -262144
-1 -1;
#X msg -1 161 clear;
#X obj -18 86 counter;
#X msg -32 61 0, f 2;
#X floatatom -22 115 5 0 0 0 - - -, f 5;
#X obj -11 188 list append;
#X msg 128 221 next;
#X obj 165 117 bng 15 250 50 0 empty empty empty 17 7 0 10 -262144
-1 -1;
#X obj 225 117 bng 15 250 50 0 empty empty empty 17 7 0 10 -262144
-1 -1;
#X obj 188 117 bng 15 250 50 0 empty empty empty 17 7 0 10 -262144
-1 -1;
#X msg 173 219 prev;
#X obj -6 400 list trim;
#X obj -5 378 symbol;
#X obj -10 432 t anything b;
#X obj -10 455 symbol;
#X msg -16 533 \; pd open \$1 \$2;
#X obj 51 460 getdir;
#X obj -250 296 print;
#X obj -3 -64 loadbang;
#X obj -40 137 s toshell;
#X obj 57 25 r fromshell;
#X obj -122 326 loadbang;
#X obj -123 373 delay 3000;
#X obj 127 181 delay 20;
#X obj 190 179 delay 20;
#X obj 207 435 symbol;
#X obj -14 354 delay 1000;
#X symbolatom 114 138 20 0 0 0 - - -, f 20;
#X msg 223 518 \; pd-initpatch.pd menuclose;
#X obj 312 429 pack s s;
#X msg 406 385 menuclose;
#X obj 404 418 symbol;
#X obj 314 402 symbol;
#X msg 314 459 \; pd-\$1 \$2;
#X obj -112 431 symbol;
#X obj 323 370 t anything b;
#X obj -16 510 pack s s;
#X obj 253 240 delay 20;
#X obj 58 361 delay 1000;
#X msg 539 526 print /17/\$1/;
#X obj 517 606 s toDisplay;
#X obj 513 383 t b b;
#X msg 618 267 stop;
#X obj 509 472 t b b;
#X obj 511 282 delay 1;
#X obj 514 307 t b b;
#X obj 520 242 t b b a b;
#X obj 548 502 symbol;
#X obj 563 218 symbol;
#X obj 310 -22 r gridbuts;
#X obj 108 483 makefilename %s/models;
#X msg 647 573 print /17/test/;
#X msg 676 601 10;
#X obj -3 -42 delay 300;
#X obj -8 60 t b l;
#N canvas 331 238 1129 705 controller 0;
#X obj 996 219 s paramdisp;
#X obj 91 452 s valuedisp;
#X obj 192 -80 unpack;
#X floatatom 187 -56 5 0 0 0 - - -, f 5;
#X floatatom 234 -57 5 0 0 0 - - -, f 5;
#X obj 166 -160 r encoders;
#X obj 973 -121 change;
#X obj 973 -100 sel 1 2 3 4 5 6 7 8 9 10 11 12;
#X obj 135 -26 route 1 2 3 4 5 6 7 8 9 10 11 12;
#X obj 164 -109 t l l;
#X msg 1077 173 Resonance;
#X msg 954 -62 FilterInit;
#X obj 28 47 f;
#X obj 3 1 t b f;
#X obj 6 47 +;
#X obj 29 25 / 4;
#X obj 8 89 i;
#X obj 8 111 change;
#X obj 50 361 outlet;
#X obj 109 399 outlet;
#X obj 187 400 outlet;
#X obj 271 404 outlet;
#X obj 354 409 outlet;
#X obj 434 415 outlet;
#X obj 502 417 outlet;
#X obj 583 422 outlet;
#X obj 667 427 outlet;
#X obj 753 433 outlet;
#X obj 835 441 outlet;
#X obj 920 460 outlet;
#X obj 109 47 f;
#X obj 84 1 t b f;
#X obj 87 47 +;
#X obj 110 25 / 4;
#X obj 89 89 i;
#X obj 89 113 change;
#X obj 188 48 f;
#X obj 163 2 t b f;
#X obj 166 48 +;
#X obj 189 26 / 4;
#X obj 168 90 i;
#X obj 168 112 change;
#X obj 274 47 f;
#X obj 249 1 t b f;
#X obj 252 47 +;
#X obj 275 25 / 4;
#X obj 254 89 i;
#X obj 254 111 change;
#X obj 252 68 clip 1 5000;
#X obj 355 47 f;
#X obj 330 1 t b f;
#X obj 333 47 +;
#X obj 356 25 / 4;
#X obj 335 89 i;
#X obj 335 111 change;
#X obj 434 48 f;
#X obj 409 2 t b f;
#X obj 412 48 +;
#X obj 435 26 / 4;
#X obj 414 90 i;
#X obj 415 113 change;
#X obj 412 69 clip 1 5000;
#X obj 512 44 f;
#X obj 487 -2 t b f;
#X obj 490 44 +;
#X obj 513 22 / 4;
#X obj 492 86 i;
#X obj 492 108 change;
#X obj 593 44 f;
#X obj 568 -2 t b f;
#X obj 571 44 +;
#X obj 594 22 / 4;
#X obj 573 86 i;
#X obj 573 108 change;
#X obj 571 65 clip 1 5000;
#X obj 672 45 f;
#X obj 647 -1 t b f;
#X obj 650 45 +;
#X obj 673 23 / 4;
#X obj 652 87 i;
#X obj 652 109 change;
#X obj 758 44 f;
#X obj 733 -2 t b f;
#X obj 736 44 +;
#X obj 759 22 / 4;
#X obj 738 86 i;
#X obj 738 108 change;
#X obj 839 44 f;
#X obj 814 -2 t b f;
#X obj 817 44 +;
#X obj 840 22 / 4;
#X obj 819 86 i;
#X obj 814 110 change;
#X obj 918 45 f;
#X obj 893 -1 t b f;
#X obj 896 45 +;
#X obj 919 23 / 4;
#X obj 898 87 i;
#X obj 898 109 change;
#X obj 896 66 clip 1 5000;
#X obj 817 65 clip 0 4095;
#X obj 6 68 clip 0 4095;
#X obj 162 260 i;
#X obj 161 163 t f f f;
#X obj 202 291 / 4095;
#X obj 185 194 mod 34.125;
#X obj 160 236 / 409.5;
#X obj 184 215 / 34.125;
#X obj 154 290 +;
#X obj 332 261 i;
#X obj 331 164 t f f f;
#X obj 391 294 / 4095;
#X obj 355 195 mod 34.125;
#X obj 330 237 / 409.5;
#X obj 354 216 / 34.125;
#X obj 334 284 +;
#X obj 492 261 i;
#X obj 491 164 t f f f;
#X obj 532 292 / 4095;
#X obj 515 195 mod 34.125;
#X obj 490 237 / 409.5;
#X obj 514 216 / 34.125;
#X obj 494 284 +;
#X obj 166 69 clip 0 4095;
#X obj 333 68 clip 0 4095;
#X obj 491 65 clip 0 4095;
#X floatatom 154 312 5 0 0 0 - - -, f 5;
#X obj 266 145 / 5000;
#X obj 430 146 / 5000;
#X obj 591 149 / 5000;
#X obj 650 66 clip 0 5;
#X obj 736 65 clip 1 6;
#X obj 657 146 / 5;
#X obj 719 136 / 6;
#X msg 960 -37 FilterT4;
#X msg 971 -17 FilterL4;
#X msg 981 10 FilterT5;
#X msg 991 30 FilterL5;
#X msg 1011 54 FilterT6;
#X msg 1021 74 FilterL6;
#X msg 1035 97 Release;
#X msg 1046 117 LoopStart;
#X msg 1058 141 LoopEnd;
#X floatatom 38 152 5 0 0 0 - - -, f 5;
#X floatatom 56 -32 5 0 0 0 - - -, f 5;
#X obj 161 -139 route 70;
#X obj 87 68 clip 1 100;
#X obj 42 -56 r modelcount;
#X connect 2 0 3 0;
#X connect 2 1 4 0;
#X connect 5 0 145 0;
#X connect 6 0 7 0;
#X connect 7 0 11 0;
#X connect 7 1 134 0;
#X connect 7 2 135 0;
#X connect 7 3 136 0;
#X connect 7 4 137 0;
#X connect 7 5 138 0;
#X connect 7 6 139 0;
#X connect 7 7 140 0;
#X connect 7 8 141 0;
#X connect 7 9 142 0;
#X connect 7 10 10 0;
#X connect 8 0 13 0;
#X connect 8 1 31 0;
#X connect 8 2 37 0;
#X connect 8 3 43 0;
#X connect 8 4 50 0;
#X connect 8 5 56 0;
#X connect 8 6 63 0;
#X connect 8 7 69 0;
#X connect 8 8 76 0;
#X connect 8 9 82 0;
#X connect 8 10 88 0;
#X connect 8 11 94 0;
#X connect 9 0 8 0;
#X connect 9 1 2 0;
#X connect 10 0 0 0;
#X connect 11 0 0 0;
#X connect 12 0 14 0;
#X connect 13 0 12 0;
#X connect 13 1 15 0;
#X connect 14 0 101 0;
#X connect 15 0 14 1;
#X connect 16 0 17 0;
#X connect 17 0 18 0;
#X connect 17 0 143 0;
#X connect 30 0 32 0;
#X connect 31 0 30 0;
#X connect 31 1 33 0;
#X connect 32 0 146 0;
#X connect 33 0 32 1;
#X connect 34 0 35 0;
#X connect 35 0 19 0;
#X connect 36 0 38 0;
#X connect 37 0 36 0;
#X connect 37 1 39 0;
#X connect 38 0 123 0;
#X connect 39 0 38 1;
#X connect 40 0 41 0;
#X connect 41 0 103 0;
#X connect 42 0 44 0;
#X connect 43 0 42 0;
#X connect 43 1 45 0;
#X connect 44 0 48 0;
#X connect 45 0 44 1;
#X connect 46 0 47 0;
#X connect 47 0 127 0;
#X connect 48 0 42 1;
#X connect 48 0 46 0;
#X connect 49 0 51 0;
#X connect 50 0 49 0;
#X connect 50 1 52 0;
#X connect 51 0 124 0;
#X connect 52 0 51 1;
#X connect 53 0 54 0;
#X connect 54 0 110 0;
#X connect 55 0 57 0;
#X connect 56 0 55 0;
#X connect 56 1 58 0;
#X connect 57 0 61 0;
#X connect 58 0 57 1;
#X connect 59 0 60 0;
#X connect 60 0 128 0;
#X connect 61 0 55 1;
#X connect 61 0 59 0;
#X connect 62 0 64 0;
#X connect 63 0 62 0;
#X connect 63 1 65 0;
#X connect 64 0 125 0;
#X connect 65 0 64 1;
#X connect 66 0 67 0;
#X connect 67 0 117 0;
#X connect 68 0 70 0;
#X connect 69 0 68 0;
#X connect 69 1 71 0;
#X connect 70 0 74 0;
#X connect 71 0 70 1;
#X connect 72 0 73 0;
#X connect 73 0 129 0;
#X connect 74 0 68 1;
#X connect 74 0 72 0;
#X connect 75 0 77 0;
#X connect 76 0 75 0;
#X connect 76 1 78 0;
#X connect 77 0 130 0;
#X connect 78 0 77 1;
#X connect 79 0 80 0;
#X connect 80 0 132 0;
#X connect 81 0 83 0;
#X connect 82 0 81 0;
#X connect 82 1 84 0;
#X connect 83 0 131 0;
#X connect 84 0 83 1;
#X connect 85 0 86 0;
#X connect 86 0 133 0;
#X connect 87 0 89 0;
#X connect 88 0 87 0;
#X connect 88 1 90 0;
#X connect 89 0 100 0;
#X connect 90 0 89 1;
#X connect 91 0 92 0;
#X connect 92 0 28 0;
#X connect 93 0 95 0;
#X connect 94 0 93 0;
#X connect 94 1 96 0;
#X connect 95 0 99 0;
#X connect 96 0 95 1;
#X connect 97 0 98 0;
#X connect 98 0 29 0;
#X connect 99 0 93 1;
#X connect 99 0 97 0;
#X connect 100 0 87 1;
#X connect 100 0 91 0;
#X connect 101 0 12 1;
#X connect 101 0 16 0;
#X connect 102 0 108 0;
#X connect 103 0 106 0;
#X connect 103 1 105 0;
#X connect 103 2 104 0;
#X connect 104 0 20 0;
#X connect 105 0 107 0;
#X connect 106 0 102 0;
#X connect 107 0 108 1;
#X connect 108 0 126 0;
#X connect 109 0 115 0;
#X connect 110 0 113 0;
#X connect 110 1 112 0;
#X connect 110 2 111 0;
#X connect 111 0 22 0;
#X connect 112 0 114 0;
#X connect 113 0 109 0;
#X connect 114 0 115 1;
#X connect 116 0 122 0;
#X connect 117 0 120 0;
#X connect 117 1 119 0;
#X connect 117 2 118 0;
#X connect 118 0 24 0;
#X connect 119 0 121 0;
#X connect 120 0 116 0;
#X connect 121 0 122 1;
#X connect 123 0 36 1;
#X connect 123 0 40 0;
#X connect 124 0 49 1;
#X connect 124 0 53 0;
#X connect 125 0 62 1;
#X connect 125 0 66 0;
#X connect 127 0 21 0;
#X connect 128 0 23 0;
#X connect 129 0 25 0;
#X connect 130 0 75 1;
#X connect 130 0 79 0;
#X connect 131 0 81 1;
#X connect 131 0 85 0;
#X connect 132 0 26 0;
#X connect 133 0 27 0;
#X connect 134 0 0 0;
#X connect 135 0 0 0;
#X connect 136 0 0 0;
#X connect 137 0 0 0;
#X connect 138 0 0 0;
#X connect 139 0 0 0;
#X connect 140 0 0 0;
#X connect 141 0 0 0;
#X connect 142 0 0 0;
#X connect 145 0 9 0;
#X connect 146 0 30 1;
#X connect 146 0 34 0;
#X connect 147 0 144 0;
#X connect 147 0 146 2;
#X restore 384 -26 pd controller;
#X obj 517 359 delay 20;
#X obj 515 444 delay 20;
#X obj 45 55 spigot;
#X msg 152 31 1;
#X obj 191 28 r done;
#X obj 191 50 t b;
#X msg 191 72 0;
#X obj -138 124 s modelcount;
#X obj 1007 -204 route;
#X obj 311 1 route 70;
#X obj 312 27 sel 0 1 2 3 4 5 6 7;
#X msg 549 330 print /3/0/0/320/118/100000/;
#X msg 550 412 print /11/0/0/;
#X obj -10 248 coll 1;
#C restore;
#X msg 602 160 test;
#X obj 325 75 bng 15 250 50 0 empty empty empty 17 7 0 10 -262144 -1
-1;
#X obj 348 76 bng 15 250 50 0 empty empty empty 17 7 0 10 -262144 -1
-1;
#X obj 370 74 bng 15 250 50 0 empty empty empty 17 7 0 10 -262144 -1
-1;
#X obj 393 75 bng 15 250 50 0 empty empty empty 17 7 0 10 -262144 -1
-1;
#X obj 417 74 bng 15 250 50 0 empty empty empty 17 7 0 10 -262144 -1
-1;
#X obj 440 75 bng 15 250 50 0 empty empty empty 17 7 0 10 -262144 -1
-1;
#X obj 462 73 bng 15 250 50 0 empty empty empty 17 7 0 10 -262144 -1
-1;
#X obj 485 74 bng 15 250 50 0 empty empty empty 17 7 0 10 -262144 -1
-1;
#X msg -119 399 basicsynth.pd;
#X msg -43 7 ls /home/pi/Documents/pd_modularorig/models;
#X connect 0 0 2 0;
#X connect 1 0 0 0;
#X connect 2 0 3 0;
#X connect 3 0 4 0;
#X connect 4 0 23 0;
#X connect 5 0 86 0;
#X connect 5 1 7 0;
#X connect 5 1 9 0;
#X connect 5 1 65 0;
#X connect 6 0 5 0;
#X connect 7 0 75 0;
#X connect 8 0 10 0;
#X connect 8 0 11 0;
#X connect 8 0 69 0;
#X connect 9 0 8 3;
#X connect 11 0 75 0;
#X connect 12 0 75 0;
#X connect 13 0 29 0;
#X connect 14 0 32 0;
#X connect 14 0 43 0;
#X connect 15 0 30 0;
#X connect 16 0 75 0;
#X connect 17 0 19 0;
#X connect 18 0 17 0;
#X connect 18 0 31 1;
#X connect 19 0 20 0;
#X connect 19 1 22 0;
#X connect 20 0 42 0;
#X connect 22 0 56 0;
#X connect 24 0 59 0;
#X connect 26 0 64 0;
#X connect 27 0 28 0;
#X connect 28 0 85 0;
#X connect 29 0 12 0;
#X connect 30 0 16 0;
#X connect 31 0 41 0;
#X connect 32 0 18 0;
#X connect 32 0 44 0;
#X connect 35 0 39 0;
#X connect 36 0 37 0;
#X connect 37 0 35 1;
#X connect 38 0 35 0;
#X connect 40 0 31 1;
#X connect 41 0 38 0;
#X connect 41 1 36 0;
#X connect 42 0 21 0;
#X connect 43 0 31 0;
#X connect 45 0 46 0;
#X connect 47 0 63 0;
#X connect 47 1 74 0;
#X connect 48 0 50 0;
#X connect 48 0 62 0;
#X connect 48 0 63 0;
#X connect 49 1 53 0;
#X connect 50 0 51 0;
#X connect 51 0 62 0;
#X connect 51 1 73 0;
#X connect 52 1 50 0;
#X connect 52 2 53 1;
#X connect 52 3 48 0;
#X connect 53 0 45 0;
#X connect 54 0 52 0;
#X connect 55 0 71 0;
#X connect 56 0 42 1;
#X connect 57 0 46 0;
#X connect 58 0 46 0;
#X connect 59 0 6 0;
#X connect 60 0 8 0;
#X connect 60 1 11 1;
#X connect 61 1 75 0;
#X connect 62 0 47 0;
#X connect 63 0 49 0;
#X connect 64 0 60 0;
#X connect 65 0 64 1;
#X connect 66 0 67 0;
#X connect 67 0 68 0;
#X connect 68 0 64 1;
#X connect 71 0 72 0;
#X connect 72 0 77 0;
#X connect 72 1 78 0;
#X connect 72 2 79 0;
#X connect 72 3 80 0;
#X connect 72 3 14 0;
#X connect 72 4 81 0;
#X connect 72 5 82 0;
#X connect 72 6 83 0;
#X connect 72 7 84 0;
#X connect 73 0 46 0;
#X connect 74 0 46 0;
#X connect 75 0 18 1;
#X connect 75 0 54 0;
#X connect 75 0 33 0;
#X connect 76 0 54 0;
#X connect 85 0 40 0;
#X connect 85 0 19 0;
#X connect 86 0 25 0;
#X coords 0 -1 1 1 150 60 1 100 100;
#X restore 18 -2333 pd loader;
