#N canvas 1751 231 780 673 10;
#X obj -13 16 unpack 0 0;
#X obj -15 43 mtof;
#X obj -14 254 *~;
#X obj -15 309 *~;
#X obj 47 92 / 127;
#X obj 104 105 vsl 15 128 0 1 0 0 empty empty empty 0 -9 0 10 -262144
-1 -1 12700 1;
#X obj -8 -5 inlet;
#X obj -14 347 outlet~;
#X floatatom 103 241 5 1 16 0 - - -, f 5;
#X obj 122 105 vsl 15 128 0 127 0 0 empty empty empty 0 -9 0 10 -262144
-1 -1 4600 1;
#X obj 275 133 loadbang;
#X msg 275 156 1;
#X obj 27 50 adsr;
#X obj 71 42 sel 0;
#X obj -15 281 *~;
#X obj -14 120 phasor~;
#X obj -13 148 *~ 2048;
#X obj 126 49 r cyclesize;
#X obj -13 171 +~;
#X obj -23 194 tabread4~ wavetable;
#X obj 128 312 * 2048;
#X connect 0 0 1 0;
#X connect 0 1 12 0;
#X connect 0 1 13 0;
#X connect 1 0 15 0;
#X connect 2 0 14 0;
#X connect 3 0 7 0;
#X connect 4 0 14 1;
#X connect 5 0 3 1;
#X connect 6 0 0 0;
#X connect 9 0 8 0;
#X connect 9 0 20 0;
#X connect 10 0 11 0;
#X connect 11 0 5 0;
#X connect 12 0 2 1;
#X connect 13 1 4 0;
#X connect 14 0 3 0;
#X connect 15 0 16 0;
#X connect 16 0 18 0;
#X connect 17 0 16 1;
#X connect 18 0 19 0;
#X connect 19 0 2 0;
#X connect 20 0 18 1;
#X coords 0 -1 1 1 40 160 1 100 100;
