#N canvas 1829 36 1243 980 10;
#X obj -28 -7 unpack 0 0;
#X obj -25 14 mtof;
#X obj -7 349 *~;
#X obj 43 390 / 127;
#X obj -19 -33 inlet;
#X obj 8 287 adsr;
#X obj 76 343 sel 0;
#X obj -8 376 *~;
#X obj -23 77 phasor~;
#X obj -22 172 tabread4~ wavetable;
#X obj 54 -92 r lfo1rate;
#X obj 562 608 r lfo3rate;
#X obj 642 607 r lfo3max;
#X obj 171 163 tabread4~ wavetable;
#X obj 162 -57 osc~;
#X obj 162 -34 *~;
#X floatatom 161 -81 5 0 0 0 - - -, f 5;
#X obj -21 46 +~, f 4;
#X floatatom 51 -37 5 0 0 0 - - -, f 5;
#X obj 51 -60 / 10000;
#X obj 160 -100 r lfo1max;
#X obj 275 -20 bng 15 250 50 0 empty empty empty 17 7 0 10 -262144
-1 -1;
#X floatatom 65 22 5 0 0 0 - - -, f 5;
#X obj -22 105 *~ 2048;
#X obj -18 141 +~;
#X obj 174 106 *~ 2048;
#X obj 174 134 +~;
#X msg 32 485 0.1;
#X obj 388 -95 tgl 15 0 empty empty empty 17 7 0 10 -262144 -1 -1 0
1;
#X obj -14 227 *~;
#X obj 172 216 *~;
#X obj 354 194 f;
#X obj 907 282 adsr1;
#X floatatom 916 492 5 0 1 0 - - -, f 5;
#X obj 363 163 bng 15 250 50 0 empty empty empty 17 7 0 10 -262144
-1 -1;
#X obj 916 541 hsl 128 15 0 1 0 0 empty empty empty -2 -8 0 10 -262144
-1 -1 0 1;
#X obj 974 103 vsl 15 128 0 127 0 0 empty empty empty 0 -9 0 10 -262144
-1 -1 8200 1;
#X floatatom 961 332 5 0 0 0 - - -, f 5;
#X obj 1064 360 vsl 15 128 0 127 0 0 empty empty empty 0 -9 0 10 -262144
-1 -1 0 1;
#X obj 909 328 *~;
#X obj 910 443 -~, f 2;
#X obj 895 630 pvu~;
#X obj 895 653 vu 15 120 empty empty -1 -8 0 10 -66577 -1 1 0;
#X msg 919 590 start;
#X obj 232 109 +~ 1;
#X obj 220 137 *~ 2048;
#X obj 28 135 *~ 2048;
#X floatatom 444 -14 5 0 0 0 - - -, f 5;
#X obj 926 398 change~;
#X obj 910 371 round~ 1;
#X obj -2 526 *~ 0.01;
#X msg 965 438 1;
#X obj 88 515 tgl 15 0 empty empty empty 17 7 0 10 -262144 -1 -1 0
1;
#X obj 792 640 pvu~;
#X obj 792 663 vu 15 120 empty empty -1 -8 0 10 -66577 -1 1 0;
#X msg 816 600 start;
#X obj 823 523 *~;
#X obj 821 551 *~ -1;
#X msg 99 48 0;
#X msg 145 45 0.5;
#X obj 127 -1 t f f b b;
#X obj 52 49 / 2;
#X obj 390 -63 metro 3000;
#X obj 962 39 sel 0;
#X obj 54 75 sin~;
#X obj 104 82 sin~;
#X obj 202 77 r cyclesize;
#X obj 310 38 delay 20000;
#X floatatom 346 -38 5 0 0 0 - - -, f 5;
#X msg 264 22 20 127;
#X msg 276 57 20 0;
#X obj -2 556 outlet~;
#X obj 1037 237 *;
#X obj 1092 158 r wtenvdepth;
#X obj 45 427 spigot;
#X obj 102 399 r velon;
#X connect 0 0 1 0;
#X connect 0 1 60 0;
#X connect 0 1 63 0;
#X connect 1 0 17 0;
#X connect 1 0 22 0;
#X connect 1 0 61 0;
#X connect 2 0 7 0;
#X connect 3 0 58 0;
#X connect 3 0 59 0;
#X connect 3 0 74 0;
#X connect 4 0 0 0;
#X connect 5 0 2 1;
#X connect 6 1 3 0;
#X connect 7 0 50 0;
#X connect 8 0 23 0;
#X connect 8 0 25 0;
#X connect 9 0 29 0;
#X connect 10 0 19 0;
#X connect 13 0 30 0;
#X connect 14 0 15 0;
#X connect 15 0 17 1;
#X connect 16 0 15 1;
#X connect 17 0 8 0;
#X connect 19 0 18 0;
#X connect 19 0 14 0;
#X connect 20 0 16 0;
#X connect 21 0 67 0;
#X connect 21 0 69 0;
#X connect 23 0 24 0;
#X connect 24 0 9 0;
#X connect 25 0 26 0;
#X connect 26 0 13 0;
#X connect 27 0 50 1;
#X connect 28 0 62 0;
#X connect 29 0 2 0;
#X connect 30 0 2 0;
#X connect 31 0 44 0;
#X connect 32 0 39 0;
#X connect 33 0 30 1;
#X connect 33 0 35 0;
#X connect 34 0 31 0;
#X connect 36 0 72 0;
#X connect 39 0 49 0;
#X connect 39 0 40 0;
#X connect 41 0 42 0;
#X connect 43 0 41 0;
#X connect 44 0 45 0;
#X connect 45 0 26 1;
#X connect 46 0 24 1;
#X connect 49 0 44 0;
#X connect 49 0 48 0;
#X connect 49 0 40 1;
#X connect 49 0 46 0;
#X connect 49 0 41 0;
#X connect 50 0 71 0;
#X connect 51 0 40 1;
#X connect 52 0 50 1;
#X connect 53 0 54 0;
#X connect 55 0 53 0;
#X connect 57 0 53 0;
#X connect 60 0 32 0;
#X connect 60 1 6 0;
#X connect 60 1 5 0;
#X connect 61 0 64 0;
#X connect 61 0 65 0;
#X connect 62 0 21 0;
#X connect 63 1 36 0;
#X connect 64 0 29 1;
#X connect 64 0 30 1;
#X connect 66 0 25 1;
#X connect 66 0 45 1;
#X connect 66 0 46 1;
#X connect 66 0 23 1;
#X connect 67 0 70 0;
#X connect 69 0 0 0;
#X connect 70 0 0 0;
#X connect 72 0 39 1;
#X connect 72 0 37 0;
#X connect 73 0 72 1;
#X connect 74 0 7 1;
#X connect 75 0 74 1;
#X coords 0 0 1 1 64 180 0;
