#N canvas 1754 70 1490 988 10;
#X obj -24 -12 unpack 0 0;
#X obj -25 14 mtof;
#X obj -14 254 *~;
#X obj 13 256 / 127;
#X obj 104 105 vsl 15 128 0 127 0 0 empty empty empty 0 -9 0 10 -262144
-1 -1 3700 1;
#X obj -19 -33 inlet;
#X obj -9 461 outlet~;
#X obj 122 105 vsl 15 128 0 127 0 0 empty empty empty 0 -9 0 10 -262144
-1 -1 6499 1;
#X obj -15 220 adsr;
#X obj 17 228 sel 0;
#X obj -15 281 *~;
#X obj -23 77 phasor~;
#X obj -22 105 *~ 2048;
#X obj -22 128 +~;
#X obj -23 194 tabread4~ wavetable;
#X obj 57 256 * 2048;
#X obj 54 -92 r lfo1rate;
#X obj -16 313 *~;
#X obj 1131 465 r lfo3rate;
#X obj 1211 464 r lfo3max;
#X obj 227 44 mtof;
#X obj 231 220 *~;
#X obj 289 93 / 127;
#X floatatom 345 242 5 1 16 0 - - -, f 5;
#X obj 149 134 loadbang;
#X obj 269 51 adsr;
#X obj 313 43 sel 0;
#X obj 230 247 *~;
#X obj 224 102 phasor~;
#X obj 225 116 *~ 2048;
#X obj 225 139 +~;
#X obj 230 194 tabread4~ wavetable;
#X obj 151 252 * 2048;
#X obj 231 272 *~;
#X obj 230 4 + 0;
#X floatatom 105 240 5 0 0 0 - - -, f 5;
#X obj 103 261 hsl 28 15 0 1 0 0 empty empty empty -2 -8 0 10 -262144
-1 -1 191 1;
#X floatatom 121 412 5 0 0 0 - - -, f 5;
#X floatatom 74 413 5 0 0 0 - - -, f 5;
#X msg 120 355 1;
#X obj 120 381 -;
#X obj 115 329 t b f;
#X obj -9 431 *~ 0.1;
#X obj 148 55 r wt1;
#X obj 162 87 r wt2;
#X msg 149 157 0.5;
#X msg 188 161 12;
#X obj 147 184 r wtmix;
#X obj 149 214 r wt2pitch;
#X obj 55 22 osc~;
#X obj 55 45 *~;
#X floatatom 97 -11 5 0 0 0 - - -, f 5;
#X obj -25 55 +~;
#X floatatom 51 -37 5 0 0 0 - - -, f 5;
#X obj 51 -60 / 10000;
#X obj 96 -30 r lfo1max;
#X obj 224 86 +~;
#X obj 578 159 osc~;
#X obj -4 157 +~;
#X floatatom 574 100 5 0 0 0 - - -, f 5;
#X obj 574 77 / 10000;
#X obj 577 45 r lfo2rate;
#X obj 619 107 r lfo2max;
#X obj 232 165 +~;
#X obj 578 182 *~ 2048;
#X obj 697 135 i;
#X obj 697 158 * 2048;
#X connect 0 0 1 0;
#X connect 0 0 34 0;
#X connect 0 1 8 0;
#X connect 0 1 9 0;
#X connect 0 1 26 0;
#X connect 0 1 25 0;
#X connect 1 0 52 0;
#X connect 2 0 10 0;
#X connect 3 0 10 1;
#X connect 4 0 15 0;
#X connect 5 0 0 0;
#X connect 7 0 32 0;
#X connect 8 0 2 1;
#X connect 9 1 3 0;
#X connect 10 0 17 0;
#X connect 11 0 12 0;
#X connect 12 0 13 0;
#X connect 13 0 58 0;
#X connect 14 0 2 0;
#X connect 15 0 13 1;
#X connect 16 0 54 0;
#X connect 17 0 42 0;
#X connect 20 0 56 0;
#X connect 21 0 27 0;
#X connect 22 0 27 1;
#X connect 24 0 45 0;
#X connect 24 0 46 0;
#X connect 25 0 21 1;
#X connect 26 1 22 0;
#X connect 27 0 33 0;
#X connect 28 0 29 0;
#X connect 29 0 30 0;
#X connect 30 0 63 0;
#X connect 31 0 21 0;
#X connect 32 0 30 1;
#X connect 33 0 42 0;
#X connect 34 0 20 0;
#X connect 35 0 34 1;
#X connect 36 0 38 0;
#X connect 36 0 41 0;
#X connect 36 0 33 1;
#X connect 39 0 40 0;
#X connect 40 0 37 0;
#X connect 40 0 17 1;
#X connect 41 0 39 0;
#X connect 41 1 40 1;
#X connect 42 0 6 0;
#X connect 43 0 4 0;
#X connect 44 0 7 0;
#X connect 45 0 36 0;
#X connect 46 0 35 0;
#X connect 47 0 36 0;
#X connect 48 0 35 0;
#X connect 49 0 50 0;
#X connect 50 0 52 1;
#X connect 50 0 56 1;
#X connect 51 0 50 1;
#X connect 52 0 11 0;
#X connect 54 0 53 0;
#X connect 54 0 49 0;
#X connect 55 0 51 0;
#X connect 56 0 28 0;
#X connect 57 0 64 0;
#X connect 58 0 14 0;
#X connect 60 0 59 0;
#X connect 60 0 57 0;
#X connect 61 0 60 0;
#X connect 62 0 65 0;
#X connect 63 0 31 0;
#X connect 65 0 66 0;
#X connect 66 0 64 1;
#X coords 0 -1 1 1 40 180 1 100 100;
