#N canvas 136 22 1243 1003 10;
#X obj -12 -185 unpack 0 0;
#X obj -17 -81 mtof;
#X obj 333 621 *~;
#X obj 384 569 / 127;
#X obj -3 -211 inlet;
#X obj 347 588 adsr;
#X obj 386 548 sel 0;
#X obj 332 648 *~;
#X obj -22 72 phasor~;
#X obj -23 180 tabread4~ wavetable;
#X obj 288 246 tabread4~ wavetable;
#X obj -25 48 +~, f 4;
#X obj -22 99 *~ 2048;
#X obj -22 158 +~;
#X obj 290 218 +~;
#X msg 385 736 0.1;
#X obj 305 176 +~ 1;
#X obj 412 736 tgl 15 0 empty empty empty 17 7 0 10 -262144 -1 -1 0
1;
#X obj 101 18 r cyclesize;
#X obj 332 771 outlet~;
#X obj 300 -20 r wtenvdepth;
#X obj 382 592 spigot;
#X obj 439 564 r velon;
#X obj 46 -160 t f f;
#X obj 326 71 wrap~;
#X obj 435 593 sel 0;
#X msg 435 616 1;
#X obj -8 135 *~ 2048;
#X obj 282 21 *~;
#X obj 304 198 *~ 2048;
#X obj 314 28 r wtstart;
#X obj 281 46 +~;
#X obj -2 25 r~ pitchlfo;
#X obj 533 463 *~;
#X obj 584 411 / 127;
#X obj 586 390 sel 0;
#X obj 532 490 *~;
#X obj 513 219 phasor~;
#X obj 510 195 +~, f 4;
#X obj 513 246 *~ 2048;
#X obj 512 269 +~;
#X obj 640 269 +~;
#X obj 702 198 -~, f 2;
#X obj 688 239 +~ 1;
#X obj 582 434 spigot;
#X obj 719 168 wrap~;
#X obj 635 435 sel 0;
#X msg 635 458 1;
#X obj 541 269 *~ 2048;
#X obj 728 -51 *~;
#X obj 679 269 *~ 2048;
#X obj 717 48 +~;
#X obj 534 166 r~ pitchlfo;
#X obj 639 406 r vel1on;
#X obj 748 -101 r wtenvdepth2;
#X obj 735 27 r wtstart2;
#X obj 513 296 tabread4~ wavetable2;
#X obj 640 296 tabread4~ wavetable2;
#X obj 594 -53 +;
#X obj 590 -27 mtof;
#X obj 612 -78 r osc2pitch;
#X obj 605 208 r cyclesize2;
#X obj 386 401 r oscbal;
#X obj 386 429 / 127;
#X obj 385 454 * -1;
#X floatatom 389 501 5 0 0 0 - - -, f 5;
#X floatatom 429 455 5 0 0 0 - - -, f 5;
#X floatatom 376 375 5 0 0 0 - - -, f 5;
#X obj 387 476 + 1;
#X obj 341 684 *~;
#X obj 531 515 *~;
#X obj 759 -55 r lfo3rate;
#X obj 775 -12 r lfo3amt;
#X obj 309 -115 r lfo2rate;
#X obj 330 -66 r lfo2amt;
#X obj 761 -33 osc~ 0.01;
#X obj 308 -91 osc~ 0.02;
#X obj 308 -49 *~;
#X obj 761 8 *~;
#X obj 313 142 -~;
#X obj 282 69 /~ 127;
#X obj 282 91 wrap~;
#X obj 282 113 *~ 127;
#X obj 681 85 /~ 127;
#X obj 681 107 wrap~;
#X obj 681 129 *~ 127;
#X obj -21 232 *~;
#X obj 269 313 *~;
#X obj 285 270 *~ 2048;
#X obj 541 366 *~;
#X obj 745 371 *~;
#X obj 777 308 *~ 2048;
#X obj -4 210 tabread~ hanning;
#X obj 285 290 tabread~ hanning50;
#X obj 579 340 tabread~ hanning;
#X obj 735 338 tabread~ hanning50;
#X obj 279 1 6stagewt1;
#X obj 725 -76 6stagewt2;
#X obj -21 -2 line~;
#X msg -21 -27 \$1 \$2;
#X obj -16 -49 pack;
#X obj 20 -50 r porta;
#X obj 595 50 line~;
#X msg 595 25 \$1 \$2;
#X obj 593 1 pack;
#X obj 615 -20 r porta;
#X obj 399 331 loadbang;
#X msg 399 353 64;
#X obj 137 -165 6stagefiltint;
#X obj 138 -137 * 4095;
#X obj 140 -114 outlet;
#X obj 332 741 *~ 1;
#X connect 0 0 1 0;
#X connect 0 0 58 0;
#X connect 0 1 23 0;
#X connect 1 0 100 0;
#X connect 2 0 7 0;
#X connect 3 0 21 0;
#X connect 4 0 0 0;
#X connect 5 0 2 1;
#X connect 5 0 33 1;
#X connect 6 1 3 0;
#X connect 7 0 69 0;
#X connect 8 0 12 0;
#X connect 9 0 86 0;
#X connect 10 0 87 0;
#X connect 11 0 8 0;
#X connect 12 0 13 0;
#X connect 12 0 14 0;
#X connect 13 0 9 0;
#X connect 14 0 10 0;
#X connect 15 0 111 1;
#X connect 16 0 29 0;
#X connect 17 0 111 1;
#X connect 18 0 12 1;
#X connect 18 0 27 1;
#X connect 18 0 29 1;
#X connect 18 0 88 1;
#X connect 20 0 28 1;
#X connect 21 0 7 1;
#X connect 22 0 21 1;
#X connect 22 0 25 0;
#X connect 23 0 96 0;
#X connect 23 0 97 0;
#X connect 23 0 108 0;
#X connect 23 1 6 0;
#X connect 23 1 5 0;
#X connect 23 1 35 0;
#X connect 24 0 79 1;
#X connect 24 0 88 0;
#X connect 25 0 26 0;
#X connect 26 0 7 1;
#X connect 27 0 13 1;
#X connect 28 0 31 0;
#X connect 29 0 14 1;
#X connect 30 0 31 1;
#X connect 31 0 24 0;
#X connect 31 0 80 0;
#X connect 32 0 11 1;
#X connect 33 0 36 0;
#X connect 34 0 44 0;
#X connect 35 1 34 0;
#X connect 36 0 70 0;
#X connect 37 0 39 0;
#X connect 38 0 37 0;
#X connect 39 0 40 0;
#X connect 39 0 41 0;
#X connect 40 0 56 0;
#X connect 41 0 57 0;
#X connect 42 0 48 0;
#X connect 42 0 43 0;
#X connect 43 0 50 0;
#X connect 44 0 36 1;
#X connect 45 0 42 1;
#X connect 45 0 91 0;
#X connect 46 0 47 0;
#X connect 47 0 36 1;
#X connect 48 0 40 1;
#X connect 49 0 51 0;
#X connect 50 0 41 1;
#X connect 51 0 83 0;
#X connect 51 0 45 0;
#X connect 52 0 38 1;
#X connect 53 0 44 1;
#X connect 53 0 46 0;
#X connect 54 0 49 1;
#X connect 55 0 51 1;
#X connect 56 0 89 0;
#X connect 57 0 90 0;
#X connect 58 0 59 0;
#X connect 59 0 104 0;
#X connect 60 0 58 1;
#X connect 61 0 39 1;
#X connect 61 0 48 1;
#X connect 61 0 50 1;
#X connect 61 0 91 1;
#X connect 62 0 63 0;
#X connect 63 0 64 0;
#X connect 63 0 66 0;
#X connect 63 0 70 1;
#X connect 64 0 68 0;
#X connect 67 0 63 0;
#X connect 68 0 65 0;
#X connect 68 0 69 1;
#X connect 69 0 111 0;
#X connect 70 0 111 0;
#X connect 71 0 75 0;
#X connect 72 0 78 1;
#X connect 73 0 76 0;
#X connect 74 0 77 1;
#X connect 75 0 78 0;
#X connect 76 0 77 0;
#X connect 77 0 31 0;
#X connect 78 0 51 0;
#X connect 79 0 16 0;
#X connect 79 0 27 0;
#X connect 80 0 81 0;
#X connect 81 0 82 0;
#X connect 82 0 79 0;
#X connect 83 0 84 0;
#X connect 84 0 85 0;
#X connect 85 0 42 0;
#X connect 86 0 2 0;
#X connect 87 0 2 0;
#X connect 88 0 92 0;
#X connect 88 0 93 0;
#X connect 89 0 33 0;
#X connect 90 0 33 0;
#X connect 91 0 94 0;
#X connect 91 0 95 0;
#X connect 92 0 86 1;
#X connect 93 0 87 1;
#X connect 94 0 89 1;
#X connect 95 0 90 1;
#X connect 96 0 28 0;
#X connect 97 0 49 0;
#X connect 98 0 11 0;
#X connect 99 0 98 0;
#X connect 100 0 99 0;
#X connect 101 0 100 1;
#X connect 102 0 38 0;
#X connect 103 0 102 0;
#X connect 104 0 103 0;
#X connect 105 0 104 1;
#X connect 106 0 107 0;
#X connect 107 0 67 0;
#X connect 108 0 109 0;
#X connect 109 0 110 0;
#X connect 111 0 19 0;
#X coords 0 0 1 1 64 180 0;
