#N canvas 358 23 1243 980 10;
#X obj -23 -98 unpack 0 0;
#X obj -17 -73 mtof;
#X obj -8 407 *~;
#X obj 43 355 / 127;
#X obj -14 -124 inlet;
#X obj 6 374 adsr;
#X obj 45 334 sel 0;
#X obj -9 434 *~;
#X obj -22 72 phasor~;
#X obj -22 149 tabread4~ wavetable;
#X obj -7 716 r lfo3rate;
#X obj 73 715 r lfo3max;
#X obj 105 149 tabread4~ wavetable;
#X obj -25 48 +~, f 4;
#X obj 18 -169 bng 15 250 50 0 empty empty empty 17 7 0 10 -262144
-1 -1;
#X obj -22 99 *~ 2048;
#X obj -23 122 +~;
#X obj 102 94 *~ 2048;
#X obj 105 122 +~;
#X msg 44 522 0.1;
#X obj 29 -218 tgl 15 0 empty empty empty 17 7 0 10 -262144 -1 -1 0
1;
#X obj -14 252 *~;
#X obj 103 258 *~;
#X obj 295 129 -~, f 2;
#X obj 153 92 +~ 1;
#X obj 317 101 round~ 1;
#X obj -9 527 *~ 0.01;
#X obj 71 522 tgl 15 0 empty empty empty 17 7 0 10 -262144 -1 -1 0
1;
#X obj 29 -197 metro 3000;
#X obj 70 61 r cyclesize;
#X msg 36 -170 20 127;
#X msg 41 -150 20 0;
#X obj -9 557 outlet~;
#X obj 330 -14 r wtenvdepth;
#X obj 41 378 spigot;
#X obj 98 350 r velon;
#X obj -10 313 linear_xfade;
#X obj 116 198 expr~ $v1>=1 && $v1<2;
#X obj -1 222 expr~ $v1<1;
#X obj 35 -73 t f f;
#X obj 134 256 *~;
#X obj 149 225 expr~ $v1<1;
#X obj 299 218 wrap~;
#X obj 94 379 sel 0;
#X msg 94 402 1;
#X obj 6 122 *~ 2048;
#X obj 300 196 +~ 1;
#X obj 82 -168 delay 5000;
#X obj 293 20 *~;
#X floatatom 319 20 5 0 0 0 - - -, f 5;
#X obj 144 122 *~ 2048;
#X obj 313 48 r wtstart;
#X floatatom 327 76 5 0 0 0 - - -, f 5;
#X obj 298 73 +~;
#X obj -1 19 r~ pitchlfo;
#X obj 463 353 *~;
#X obj 514 301 / 127;
#X obj 477 320 adsr;
#X obj 516 280 sel 0;
#X obj 462 380 *~;
#X obj 449 18 phasor~;
#X obj 446 -6 +~, f 4;
#X obj 449 45 *~ 2048;
#X obj 448 68 +~;
#X obj 573 40 *~ 2048;
#X obj 576 68 +~;
#X obj 457 198 *~;
#X obj 574 204 *~;
#X obj 723 90 -~, f 2;
#X obj 624 38 +~ 1;
#X obj 769 43 round~ 1;
#X obj 512 324 spigot;
#X obj 461 259 linear_xfade;
#X obj 587 144 expr~ $v1>=1 && $v1<2;
#X obj 470 168 expr~ $v1<1;
#X obj 605 202 *~;
#X obj 620 171 expr~ $v1<1;
#X obj 767 124 wrap~;
#X obj 565 325 sel 0;
#X msg 565 348 1;
#X obj 477 68 *~ 2048;
#X obj 768 102 +~ 1;
#X obj 766 -85 *~;
#X floatatom 792 -85 5 0 0 0 - - -, f 5;
#X obj 615 68 *~ 2048;
#X floatatom 798 22 5 0 0 0 - - -, f 5;
#X obj 760 13 +~;
#X obj 470 -35 r~ pitchlfo;
#X obj 569 296 r vel1on;
#X obj 803 -119 r wtenvdepth2;
#X obj 784 -6 r wtstart2;
#X obj 449 95 tabread4~ wavetable2;
#X obj 576 95 tabread4~ wavetable2;
#X obj 452 -93 +;
#X obj 444 -65 mtof;
#X floatatom 482 -126 5 0 0 0 - - -, f 5;
#X obj 503 -155 r osc2pitch;
#X obj 541 7 r cyclesize2;
#X obj 758 -119 adsrwt2;
#X obj 285 -14 adsrwt1;
#X obj 268 406 r oscbal;
#X obj 265 449 / 127;
#X obj 296 483 * -1;
#X floatatom 300 551 5 0 0 0 - - -, f 5;
#X floatatom 254 506 5 0 0 0 - - -, f 5;
#X floatatom 344 407 5 0 0 0 - - -, f 5;
#X obj 290 509 + 1;
#X obj 0 470 *~;
#X obj 460 444 *~;
#X obj 940 -78 r lfo3rate;
#X obj 975 -23 r lfo3amt;
#X obj 317 -125 r lfo2rate;
#X obj 353 -70 r lfo2amt;
#X obj 930 -44 osc~ 0.01;
#X obj 308 -91 osc~ 0.02;
#X obj 763 -41 +~;
#X obj 282 47 +~;
#X obj 308 -50 *~;
#X obj 930 -3 *~;
#X connect 0 0 1 0;
#X connect 0 0 93 0;
#X connect 0 1 39 0;
#X connect 1 0 13 0;
#X connect 2 0 7 0;
#X connect 3 0 34 0;
#X connect 4 0 0 0;
#X connect 5 0 2 1;
#X connect 6 1 3 0;
#X connect 7 0 107 0;
#X connect 8 0 15 0;
#X connect 8 0 17 0;
#X connect 9 0 21 0;
#X connect 12 0 22 0;
#X connect 12 0 40 0;
#X connect 13 0 8 0;
#X connect 14 0 30 0;
#X connect 14 0 47 0;
#X connect 15 0 16 0;
#X connect 16 0 9 0;
#X connect 17 0 18 0;
#X connect 18 0 12 0;
#X connect 19 0 26 1;
#X connect 20 0 28 0;
#X connect 21 0 36 0;
#X connect 22 0 36 0;
#X connect 23 0 46 0;
#X connect 23 0 37 0;
#X connect 23 0 41 0;
#X connect 23 0 38 0;
#X connect 24 0 50 0;
#X connect 25 0 23 1;
#X connect 25 0 24 0;
#X connect 25 0 45 0;
#X connect 26 0 32 0;
#X connect 27 0 26 1;
#X connect 28 0 14 0;
#X connect 29 0 17 1;
#X connect 29 0 15 1;
#X connect 29 0 45 1;
#X connect 29 0 50 1;
#X connect 30 0 0 0;
#X connect 31 0 0 0;
#X connect 33 0 48 1;
#X connect 34 0 7 1;
#X connect 35 0 34 1;
#X connect 35 0 43 0;
#X connect 36 0 2 0;
#X connect 37 0 22 1;
#X connect 38 0 21 1;
#X connect 39 0 98 0;
#X connect 39 0 99 0;
#X connect 39 1 6 0;
#X connect 39 1 5 0;
#X connect 39 1 57 0;
#X connect 39 1 58 0;
#X connect 40 0 36 1;
#X connect 41 0 40 1;
#X connect 42 0 36 2;
#X connect 43 0 44 0;
#X connect 44 0 7 1;
#X connect 45 0 16 1;
#X connect 46 0 42 0;
#X connect 47 0 31 0;
#X connect 48 0 116 0;
#X connect 49 0 48 1;
#X connect 50 0 18 1;
#X connect 51 0 53 1;
#X connect 52 0 53 1;
#X connect 53 0 25 0;
#X connect 53 0 23 0;
#X connect 54 0 13 1;
#X connect 55 0 59 0;
#X connect 56 0 71 0;
#X connect 57 0 55 1;
#X connect 58 1 56 0;
#X connect 59 0 108 0;
#X connect 60 0 62 0;
#X connect 60 0 64 0;
#X connect 61 0 60 0;
#X connect 62 0 63 0;
#X connect 63 0 91 0;
#X connect 64 0 65 0;
#X connect 65 0 92 0;
#X connect 66 0 72 0;
#X connect 67 0 72 0;
#X connect 68 0 81 0;
#X connect 68 0 73 0;
#X connect 68 0 76 0;
#X connect 68 0 74 0;
#X connect 69 0 84 0;
#X connect 70 0 68 1;
#X connect 70 0 69 0;
#X connect 70 0 80 0;
#X connect 71 0 59 1;
#X connect 72 0 55 0;
#X connect 73 0 67 1;
#X connect 74 0 66 1;
#X connect 75 0 72 1;
#X connect 76 0 75 1;
#X connect 77 0 72 2;
#X connect 78 0 79 0;
#X connect 79 0 59 1;
#X connect 80 0 63 1;
#X connect 81 0 77 0;
#X connect 82 0 115 0;
#X connect 83 0 82 1;
#X connect 84 0 65 1;
#X connect 85 0 86 1;
#X connect 86 0 70 0;
#X connect 86 0 68 0;
#X connect 87 0 61 1;
#X connect 88 0 71 1;
#X connect 88 0 78 0;
#X connect 89 0 82 1;
#X connect 90 0 86 1;
#X connect 91 0 66 0;
#X connect 92 0 67 0;
#X connect 92 0 75 0;
#X connect 93 0 94 0;
#X connect 94 0 61 0;
#X connect 95 0 93 1;
#X connect 96 0 93 1;
#X connect 97 0 64 1;
#X connect 97 0 62 1;
#X connect 97 0 80 1;
#X connect 97 0 84 1;
#X connect 98 0 82 0;
#X connect 99 0 48 0;
#X connect 100 0 101 0;
#X connect 101 0 102 0;
#X connect 101 0 104 0;
#X connect 101 0 108 1;
#X connect 102 0 106 0;
#X connect 105 0 101 0;
#X connect 106 0 103 0;
#X connect 106 0 107 1;
#X connect 107 0 26 0;
#X connect 108 0 26 0;
#X connect 109 0 113 0;
#X connect 110 0 118 1;
#X connect 111 0 114 0;
#X connect 112 0 117 1;
#X connect 113 0 118 0;
#X connect 114 0 117 0;
#X connect 115 0 86 0;
#X connect 116 0 53 0;
#X connect 117 0 116 1;
#X connect 118 0 115 1;
#X coords 0 0 1 1 64 180 0;
