#N canvas 1001 51 853 918 10;
#X obj 88 24 catch~ channel1;
#X obj 130 48 catch~ channel2;
#X obj 147 76 catch~ channel3;
#X obj 184 102 catch~ channel4;
#X obj 210 126 catch~ channel5;
#X obj 242 152 catch~ channel6;
#X obj 443 306 wiringPi;
#X msg 421 226 spi_init 0 1e+06;
#X obj 438 169 loadbang;
#X floatatom 603 288 5 0 0 0 - - -, f 5;
#X floatatom 602 310 5 0 0 0 - - -, f 5;
#X floatatom 602 329 5 0 0 0 - - -, f 5;
#X floatatom 600 552 5 0 0 0 - - -, f 5;
#X msg 632 555 spi_write 0 18 \$1;
#X floatatom 602 357 5 0 0 0 - - -, f 5;
#X floatatom 602 384 5 0 0 0 - - -, f 5;
#X floatatom 602 429 5 0 0 0 - - -, f 5;
#X msg 640 430 spi_write 0 14 \$1;
#X floatatom 606 405 5 0 0 0 - - -, f 5;
#X msg 641 406 spi_write 0 13 \$1;
#X floatatom 602 207 5 0 0 0 - - -, f 5;
#X floatatom 602 225 5 0 0 0 - - -, f 5;
#X floatatom 602 249 5 0 0 0 - - -, f 5;
#X floatatom 602 267 5 0 0 0 - - -, f 5;
#X msg 643 249 spi_write 0 6 \$1;
#X msg 643 269 spi_write 0 7 \$1;
#X floatatom 603 169 5 0 0 0 - - -, f 5;
#X floatatom 602 187 5 0 0 0 - - -, f 5;
#X floatatom 602 126 5 0 0 0 - - -, f 5;
#X floatatom 602 147 5 0 0 0 - - -, f 5;
#X floatatom 591 584 5 0 0 0 - - -, f 5;
#X msg 643 124 spi_write 0 0 \$1;
#X msg 643 142 spi_write 0 1 \$1;
#X floatatom 600 80 5 0 0 0 - - -, f 5;
#X msg 627 581 spi_write 0 19 \$1;
#X msg 643 164 spi_write 0 2 \$1;
#X msg 643 185 spi_write 0 3 \$1;
#X msg 643 208 spi_write 0 4 \$1;
#X msg 643 228 spi_write 0 5 \$1;
#X msg 643 291 spi_write 0 8 \$1;
#X msg 643 311 spi_write 0 9 \$1;
#X msg 643 335 spi_write 0 10 \$1;
#X msg 643 358 spi_write 0 11 \$1;
#X msg 643 382 spi_write 0 12 \$1;
#X floatatom 602 492 5 0 0 0 - - -, f 5;
#X floatatom 605 458 5 0 0 0 - - -, f 5;
#X floatatom 601 520 5 0 0 0 - - -, f 5;
#X msg 637 460 spi_write 0 15 \$1;
#X msg 656 488 spi_write 0 16 \$1;
#X msg 639 520 spi_write 0 17 \$1;
#X obj 638 622 s tocv;
#X obj 441 116 r tocv;
#X obj 122 211 dac~ 1 2 3 4 5 6 7 8;
#X floatatom 549 107 5 0 0 0 - - -, f 5;
#X floatatom 547 191 5 0 0 0 - - -, f 5;
#X floatatom 538 268 5 0 0 0 - - -, f 5;
#X floatatom 529 330 5 0 0 0 - - -, f 5;
#X floatatom 531 405 5 0 0 0 - - -, f 5;
#X floatatom 525 470 5 0 0 0 - - -, f 5;
#X msg -2 60;
#X connect 0 0 52 0;
#X connect 1 0 52 1;
#X connect 2 0 52 2;
#X connect 3 0 52 4;
#X connect 4 0 52 6;
#X connect 5 0 52 3;
#X connect 7 0 6 0;
#X connect 8 0 7 0;
#X connect 9 0 39 0;
#X connect 10 0 40 0;
#X connect 11 0 41 0;
#X connect 12 0 13 0;
#X connect 13 0 50 0;
#X connect 14 0 42 0;
#X connect 15 0 43 0;
#X connect 16 0 17 0;
#X connect 17 0 50 0;
#X connect 18 0 19 0;
#X connect 19 0 50 0;
#X connect 20 0 37 0;
#X connect 21 0 38 0;
#X connect 22 0 24 0;
#X connect 23 0 25 0;
#X connect 24 0 50 0;
#X connect 25 0 50 0;
#X connect 26 0 35 0;
#X connect 27 0 36 0;
#X connect 28 0 31 0;
#X connect 29 0 32 0;
#X connect 30 0 34 0;
#X connect 31 0 50 0;
#X connect 32 0 50 0;
#X connect 33 0 28 0;
#X connect 33 0 30 0;
#X connect 33 0 29 0;
#X connect 33 0 27 0;
#X connect 33 0 26 0;
#X connect 33 0 23 0;
#X connect 33 0 22 0;
#X connect 33 0 21 0;
#X connect 33 0 20 0;
#X connect 33 0 18 0;
#X connect 33 0 16 0;
#X connect 33 0 15 0;
#X connect 33 0 14 0;
#X connect 33 0 10 0;
#X connect 33 0 9 0;
#X connect 33 0 11 0;
#X connect 33 0 46 0;
#X connect 33 0 45 0;
#X connect 33 0 44 0;
#X connect 33 0 12 0;
#X connect 34 0 50 0;
#X connect 35 0 50 0;
#X connect 36 0 50 0;
#X connect 37 0 50 0;
#X connect 38 0 50 0;
#X connect 39 0 50 0;
#X connect 40 0 50 0;
#X connect 41 0 50 0;
#X connect 42 0 50 0;
#X connect 43 0 50 0;
#X connect 44 0 48 0;
#X connect 45 0 47 0;
#X connect 46 0 49 0;
#X connect 47 0 50 0;
#X connect 48 0 50 0;
#X connect 49 0 50 0;
#X connect 51 0 6 0;
#X connect 53 0 28 0;
#X connect 53 0 29 0;
#X connect 53 0 26 0;
#X connect 54 0 27 0;
#X connect 54 0 20 0;
#X connect 54 0 21 0;
#X connect 55 0 22 0;
#X connect 55 0 23 0;
#X connect 55 0 9 0;
#X connect 56 0 10 0;
#X connect 56 0 11 0;
#X connect 56 0 14 0;
#X connect 57 0 15 0;
#X connect 57 0 18 0;
#X connect 57 0 16 0;
#X connect 58 0 45 0;
#X connect 58 0 44 0;
#X connect 58 0 46 0;
