#N canvas 480 67 1031 736 10;
#X obj 72 -392 unpack;
#X obj 116 -431 t l l;
#X obj 163 -183 i;
#X obj 161 -121 change;
#X obj 158 -99 t f f f;
#X obj 117 -458 route \$2;
#X obj 145 -404 route \$3;
#X obj 198 -75 / \$5;
#X obj 75 -273 change;
#X obj 75 -252 sel \$3;
#X obj 75 -200 s paramdisp;
#X obj 155 -75 outlet;
#X obj 526 66 list prepend add;
#X obj 526 86 list trim;
#X obj 526 46 list append 0;
#X text 611 45 0 if no value is received before saving;
#X text 523 -51 arguments:;
#X obj 526 6 r \$8-get.values;
#X text 523 -36 \$8 = \$0 of the parent patch;
#X text 523 -21 \$6 = name of the control to save;
#X obj 82 -226 symbol \$1;
#X msg 93 -348 stop, f 7;
#X obj 76 -371 t b b a;
#X obj 72 -323 delay 50;
#X obj 72 -295 i;
#X obj 526 106 s \$8-to.textfile;
#X obj 220 -292 r \$8-\$6\$7.r;
#X obj 202 -33 s \$8-\$6\$7.s;
#X obj 526 26 symbol \$6\$7;
#X obj 601 26 r \$8-\$6\$7.s;
#X text 968 -73 name;
#X msg 485 -355 receive \$1;
#X obj 486 -379 symbol \$8-\$6\$7.r;
#X obj 604 -381 symbol \$8-\$6\$7.s;
#X msg 604 -359 send \$1;
#X obj 713 -366 f \$4;
#X obj 712 -405 bng 15 250 50 0 empty empty empty 17 7 0 10 -262144
-1 -1;
#X msg 792 -337 label \$1;
#X obj 792 -359 symbol \$1;
#X obj 791 -378 bng 15 250 50 0 empty empty empty 17 7 0 10 -262144
-1 -1;
#X obj 589 -473 loadbang;
#X obj 589 -451 delay 30;
#X obj 589 -429 t b b b b;
#X obj 272 -60 outlet;
#X obj 494 -234 vradio 15 0 0 7 1012-lfo12.s 1012-lfo12.r wave 0 -8
0 10 -262144 -1 -1 0;
#X msg 712 -326 number \$1;
#X text 248 -474 \$1name \$2pageno \$3buttonno \$4numberofbuttons \$5max
\$6tablepname \$7tableno \$0;
#X obj 495 -291 bng 15 250 50 0 empty empty empty 17 7 0 10 -262144
-1 -1;
#X obj 118 -482 r buttonsx;
#X obj 146 -377 sel 1;
#X obj 146 -355 f;
#X obj 183 -354 + 1;
#X obj 146 -333 mod \$4;
#X floatatom 146 -311 5 0 0 0 - - -, f 5;
#X connect 0 0 22 0;
#X connect 1 0 0 0;
#X connect 1 1 6 0;
#X connect 2 0 44 0;
#X connect 3 0 4 0;
#X connect 4 1 11 0;
#X connect 4 2 7 0;
#X connect 5 0 1 0;
#X connect 6 0 49 0;
#X connect 7 0 27 0;
#X connect 7 0 43 0;
#X connect 8 0 9 0;
#X connect 9 0 20 0;
#X connect 12 0 13 0;
#X connect 13 0 25 0;
#X connect 14 0 12 0;
#X connect 17 0 28 0;
#X connect 20 0 10 0;
#X connect 21 0 23 0;
#X connect 22 0 23 0;
#X connect 22 1 21 0;
#X connect 22 2 24 1;
#X connect 23 0 24 0;
#X connect 24 0 8 0;
#X connect 26 0 2 0;
#X connect 28 0 14 0;
#X connect 29 0 14 1;
#X connect 31 0 44 0;
#X connect 32 0 31 0;
#X connect 33 0 34 0;
#X connect 34 0 44 0;
#X connect 35 0 45 0;
#X connect 37 0 44 0;
#X connect 38 0 37 0;
#X connect 39 0 38 0;
#X connect 40 0 41 0;
#X connect 41 0 42 0;
#X connect 42 0 32 0;
#X connect 42 1 33 0;
#X connect 42 2 36 0;
#X connect 42 2 35 0;
#X connect 42 3 39 0;
#X connect 44 0 3 0;
#X connect 45 0 44 0;
#X connect 47 0 50 0;
#X connect 48 0 5 0;
#X connect 49 0 50 0;
#X connect 50 0 51 0;
#X connect 50 0 52 0;
#X connect 51 0 50 1;
#X connect 52 0 2 0;
#X connect 52 0 53 0;
#X coords 0 -1 1 1 35 198 2 486 -308;
