#N canvas 2 34 798 423 10;
#X obj 72 -392 unpack;
#X obj 118 -482 r encoders;
#X obj 116 -431 t l l;
#X obj 193 -225 f;
#X obj 146 -377 t b f;
#X obj 161 -225 +;
#X obj 172 -353 / 4;
#X obj 163 -183 i;
#X obj 161 -121 change;
#X obj 158 -99 t f f f;
#X obj 117 -458 route \$2;
#X obj 145 -404 route \$3;
#X obj 165 -203 clip \$4 \$5;
#X obj 163 -307 * \$5;
#X obj 198 -75 / \$5;
#X obj 75 -273 change;
#X obj 75 -252 sel \$3;
#X obj 75 -200 s paramdisp;
#X obj 155 -75 outlet;
#X obj 526 66 list prepend add;
#X obj 526 86 list trim;
#X obj 526 46 list append 0;
#X text 611 45 0 if no value is received before saving;
#X text 523 -51 arguments:;
#X obj 526 6 r \$8-get.values;
#X text 523 -36 \$8 = \$0 of the parent patch;
#X text 523 -21 \$6 = name of the control to save;
#X obj 82 -226 symbol \$1;
#X msg 93 -348 stop, f 7;
#X obj 76 -371 t b b a;
#X obj 72 -323 delay 50;
#X obj 72 -295 i;
#X obj 173 41 pack 0 0 0;
#X obj 178 4 f \$9;
#X obj 215 12 f \$10;
#X obj 207 -278 route \$2;
#X obj 176 -20 t b b f;
#X obj 207 -256 route \$3;
#X obj 206 -300 r paramlink;
#X obj 173 65 s paramlink;
#X obj 526 106 s \$8-to.textfile;
#X text 248 -474 \$1name \$2pageno \$3encoderno \$4min \$5max \$6tablepname
\$7tableno \$0 \$9pagelink \$10encoderlink;
#X obj 162 -329 r \$8-\$6\$7.r;
#X obj 199 -51 s \$8-\$6\$7.s;
#X obj 526 26 symbol \$6\$7;
#X obj 601 26 r \$8-\$6\$7.s;
#X obj 715 -93 f \$4;
#X obj 759 -93 f \$5;
#X text 718 -73 min;
#X text 764 -73 max;
#X text 807 -73 log;
#X text 844 -73 init;
#X text 884 -73 rname;
#X text 922 -74 sname;
#X text 968 -73 name;
#X obj 758 -29 pack f f f f s s s;
#X msg 809 -93 0;
#X msg 842 -93 0;
#X msg 485 -355 receive \$1;
#X obj 486 -379 symbol \$8-\$6\$7.r;
#X obj 604 -381 symbol \$8-\$6\$7.s;
#X msg 604 -359 send \$1;
#X msg 712 -326 range \$1 \$2;
#X obj 713 -366 f \$4;
#X obj 743 -366 f \$5;
#X obj 712 -387 t b b;
#X obj 715 -346 pack;
#X obj 712 -405 bng 15 250 50 0 empty empty empty 17 7 0 10 -262144
-1 -1;
#X obj 792 -359 symbol \$1;
#X obj 791 -378 bng 15 250 50 0 empty empty empty 17 7 0 10 -262144
-1 -1;
#X obj 589 -473 loadbang;
#X obj 589 -451 delay 30;
#X obj 589 -429 t b b b b;
#X floatatom 489 -299 5 0 0 2 #1 - -, f 5;
#X obj 299 -39 outlet;
#X obj 310 -113 s valuedisp;
#X connect 0 0 29 0;
#X connect 1 0 10 0;
#X connect 2 0 0 0;
#X connect 2 1 11 0;
#X connect 3 0 5 0;
#X connect 4 0 3 0;
#X connect 4 1 6 0;
#X connect 5 0 12 0;
#X connect 6 0 5 1;
#X connect 7 0 73 0;
#X connect 8 0 9 0;
#X connect 9 1 18 0;
#X connect 9 1 75 0;
#X connect 9 2 14 0;
#X connect 9 2 36 0;
#X connect 10 0 2 0;
#X connect 11 0 4 0;
#X connect 12 0 3 1;
#X connect 12 0 7 0;
#X connect 13 0 12 0;
#X connect 14 0 43 0;
#X connect 14 0 74 0;
#X connect 15 0 16 0;
#X connect 16 0 27 0;
#X connect 19 0 20 0;
#X connect 20 0 40 0;
#X connect 21 0 19 0;
#X connect 24 0 44 0;
#X connect 27 0 17 0;
#X connect 28 0 30 0;
#X connect 29 0 30 0;
#X connect 29 1 28 0;
#X connect 29 2 31 1;
#X connect 30 0 31 0;
#X connect 31 0 15 0;
#X connect 32 0 39 0;
#X connect 33 0 32 0;
#X connect 34 0 32 1;
#X connect 35 0 37 0;
#X connect 36 0 33 0;
#X connect 36 1 34 0;
#X connect 36 2 32 2;
#X connect 37 0 3 1;
#X connect 38 0 35 0;
#X connect 42 0 13 0;
#X connect 44 0 21 0;
#X connect 45 0 21 1;
#X connect 46 0 55 0;
#X connect 47 0 55 1;
#X connect 56 0 55 2;
#X connect 57 0 55 3;
#X connect 59 0 58 0;
#X connect 60 0 61 0;
#X connect 63 0 66 0;
#X connect 64 0 66 1;
#X connect 65 0 63 0;
#X connect 65 1 64 0;
#X connect 66 0 62 0;
#X connect 67 0 65 0;
#X connect 69 0 68 0;
#X connect 70 0 71 0;
#X connect 71 0 72 0;
#X connect 72 0 59 0;
#X connect 72 1 60 0;
#X connect 72 2 67 0;
#X connect 72 3 69 0;
#X connect 73 0 8 0;
#X coords 0 -1 1 1 47 36 2 485 -314;
