#N canvas 713 358 840 722 10;
#X obj 146 -388 unpack;
#X obj 118 -482 r encoders;
#X obj 116 -431 t l l;
#X obj 137 -203 f;
#X obj 88 -321 t b f;
#X obj 105 -203 +;
#X obj 114 -297 / 4;
#X obj 107 -161 i;
#X obj 107 -139 change;
#X obj 104 -101 t f f f;
#X obj 117 -458 route \$2;
#X obj 87 -348 route \$3;
#X obj 109 -181 clip \$4 \$5;
#X obj 105 -251 * \$5;
#X obj 155 25 / \$5;
#X obj 339 118 outlet;
#X obj 268 -265 change;
#X obj 268 -244 sel \$3;
#X obj 268 -192 s paramdisp;
#X obj 111 89 outlet;
#X obj 54 22 outlet;
#X text 22 129 octavised / full range / table 0-1range;
#X obj 526 66 list prepend add;
#X obj 526 86 list trim;
#X obj 526 46 list append 0;
#X text 611 45 0 if no value is received before saving;
#X text 530 -63 arguments:;
#X obj 526 6 r \$8-get.values;
#X obj 110 27 * 10;
#X floatatom 110 49 7 0 0 0 - - -, f 7;
#X text 530 -48 \$8 = \$0 of the parent patch;
#X text 530 -33 \$6 = name of the control to save;
#X obj 275 -218 symbol \$1;
#X msg 287 -346 stop, f 7;
#X obj 233 -354 t b b a;
#X obj 229 -306 delay 50;
#X obj 229 -278 i;
#X obj 261 -27 pack 0 0 0;
#X obj 260 -64 f \$9;
#X obj 300 -64 f \$10;
#X obj 186 -174 route \$2;
#X obj 210 -92 t b b f;
#X obj 186 -152 route \$3;
#X obj 189 -213 r paramlink;
#X obj 254 8 s paramlink;
#X obj 526 106 s \$8-to.textfile;
#X text 350 -445 \$1name \$2pageno \$3encoderno \$4min \$5max \$6tablepname
\$7tableno \$0 \$9pagelink \$10encoderlink;
#X obj 401 76 pack s 0 0;
#X obj 419 21 f \$7;
#X obj 366 16 t b b f;
#X obj 369 44 symbol \$6;
#X msg 401 98 \; \$1 \$2 \$3;
#X obj 141 -278 r \$8-\$6\$7.r;
#X obj 199 61 s \$8-\$6\$7.s;
#X obj 526 26 symbol \$6\$7;
#X obj 601 26 r \$8-\$6\$7.s;
#X connect 0 0 34 0;
#X connect 1 0 10 0;
#X connect 2 0 0 0;
#X connect 2 1 11 0;
#X connect 3 0 5 0;
#X connect 4 0 3 0;
#X connect 4 1 6 0;
#X connect 5 0 12 0;
#X connect 6 0 5 1;
#X connect 7 0 8 0;
#X connect 8 0 9 0;
#X connect 9 1 20 0;
#X connect 9 2 14 0;
#X connect 9 2 41 0;
#X connect 10 0 2 0;
#X connect 11 0 4 0;
#X connect 12 0 3 1;
#X connect 12 0 7 0;
#X connect 13 0 12 0;
#X connect 14 0 28 0;
#X connect 14 0 15 0;
#X connect 14 0 49 0;
#X connect 14 0 53 0;
#X connect 16 0 17 0;
#X connect 17 0 32 0;
#X connect 22 0 23 0;
#X connect 23 0 45 0;
#X connect 24 0 22 0;
#X connect 27 0 54 0;
#X connect 28 0 29 0;
#X connect 29 0 19 0;
#X connect 32 0 18 0;
#X connect 33 0 35 0;
#X connect 34 0 35 0;
#X connect 34 1 33 0;
#X connect 34 2 36 1;
#X connect 35 0 36 0;
#X connect 36 0 16 0;
#X connect 37 0 44 0;
#X connect 38 0 37 0;
#X connect 39 0 37 1;
#X connect 40 0 42 0;
#X connect 41 0 38 0;
#X connect 41 1 39 0;
#X connect 41 2 37 2;
#X connect 42 0 3 1;
#X connect 43 0 40 0;
#X connect 47 0 51 0;
#X connect 48 0 47 1;
#X connect 49 0 50 0;
#X connect 49 1 48 0;
#X connect 49 2 47 2;
#X connect 50 0 47 0;
#X connect 52 0 13 0;
#X connect 54 0 24 0;
#X connect 55 0 24 1;
