#N canvas 118 132 1234 881 10;
#X obj 72 -392 unpack;
#X obj 118 -482 r encoders;
#X obj 116 -431 t l l;
#X obj 193 -225 f;
#X obj 146 -377 t b f;
#X obj 161 -225 +;
#X obj 172 -353 / 4;
#X obj 163 -183 i;
#X obj 161 -121 change;
#X obj 158 -99 t f f f;
#X obj 117 -458 route \$2;
#X obj 145 -404 route \$3;
#X obj 165 -203 clip \$4 \$5;
#X obj 163 -307 * \$5;
#X obj 198 -75 / \$5;
#X obj 75 -273 change;
#X obj 75 -252 sel \$3;
#X obj 75 -200 s paramdisp;
#X obj 155 -75 outlet;
#X obj 379 150 list prepend add;
#X obj 379 170 list trim;
#X obj 379 130 list append 0;
#X text 376 74 0 if no value is received before saving;
#X text 376 33 arguments:;
#X obj 379 90 r \$8-get.values;
#X text 376 48 \$8 = \$0 of the parent patch;
#X text 376 63 \$6 = name of the control to save;
#X obj 82 -226 symbol \$1;
#X msg 93 -348 stop, f 7;
#X obj 76 -371 t b b a;
#X obj 72 -323 delay 50;
#X obj 72 -295 i;
#X obj 173 41 pack 0 0 0;
#X obj 178 4 f \$9;
#X obj 215 12 f \$10;
#X obj 207 -278 route \$2;
#X obj 176 -20 t b b f;
#X obj 207 -256 route \$3;
#X obj 206 -300 r paramlink;
#X obj 173 65 s paramlink;
#X obj 379 190 s \$8-to.textfile;
#X text 142 -545 \$1name \$2pageno \$3encoderno \$4min \$5max \$6tablepname
\$7tableno \$0 \$9pagelink \$10encoderlink;
#X obj 162 -329 r \$8-\$6\$7.r;
#X obj 199 -51 s \$8-\$6\$7.s;
#X obj 379 110 symbol \$6\$7;
#X obj 454 110 r \$8-\$6\$7.s;
#X msg 330 -340 range \$1 \$2;
#X obj 331 -380 f \$4;
#X obj 361 -380 f \$5;
#X obj 330 -401 t b b;
#X obj 333 -360 pack;
#X obj 330 -419 bng 15 250 50 0 empty empty empty 17 7 0 10 -262144
-1 -1;
#X msg 410 -351 label \$1;
#X obj 410 -373 symbol \$1;
#X obj 409 -392 bng 15 250 50 0 empty empty empty 17 7 0 10 -262144
-1 -1;
#X obj 324 -494 loadbang;
#X obj 324 -472 delay 30;
#X obj 324 -450 t b b b b;
#X obj 485 -310 cnv 15 37 199 backgroundslider empty empty 20 12 0
14 -233273 -66577 0;
#X obj 492 -275 vsl 15 150 0 1000 0 0 empty empty empty 0 -9 0 7 -262144
-1 -1 0 0;
#X obj 299 -38 outlet;
#X obj 160 -143 i;
#X obj 393 -56 s valuedisp;
#X obj 485 -305 nbx 4 11 -1e+37 1e+37 0 0 empty empty empty 0 -8 0
8 -262144 -1 -1 0 256 0;
#X msg 368 -235 set \$1;
#X msg 370 -199 set \$1;
#X obj 197 106 t b b f;
#X obj 215 131 f \$7;
#X obj 196 157 symbol \$6;
#X obj 204 192 pack s 0 0;
#X msg 204 214 \; \$1 \$2 \$3;
#X connect 0 0 29 0;
#X connect 1 0 10 0;
#X connect 2 0 0 0;
#X connect 2 1 11 0;
#X connect 3 0 5 0;
#X connect 4 0 3 0;
#X connect 4 1 6 0;
#X connect 5 0 12 0;
#X connect 6 0 5 1;
#X connect 7 0 59 0;
#X connect 7 0 65 0;
#X connect 8 0 9 0;
#X connect 9 0 62 0;
#X connect 9 1 18 0;
#X connect 9 2 14 0;
#X connect 9 2 36 0;
#X connect 10 0 2 0;
#X connect 11 0 4 0;
#X connect 12 0 3 1;
#X connect 12 0 7 0;
#X connect 13 0 12 0;
#X connect 14 0 43 0;
#X connect 14 0 60 0;
#X connect 14 0 66 0;
#X connect 15 0 16 0;
#X connect 16 0 27 0;
#X connect 19 0 20 0;
#X connect 20 0 40 0;
#X connect 21 0 19 0;
#X connect 24 0 44 0;
#X connect 27 0 17 0;
#X connect 28 0 30 0;
#X connect 29 0 30 0;
#X connect 29 1 28 0;
#X connect 29 2 31 1;
#X connect 30 0 31 0;
#X connect 31 0 15 0;
#X connect 32 0 39 0;
#X connect 33 0 32 0;
#X connect 34 0 32 1;
#X connect 35 0 37 0;
#X connect 36 0 33 0;
#X connect 36 1 34 0;
#X connect 36 2 32 2;
#X connect 37 0 3 1;
#X connect 38 0 35 0;
#X connect 42 0 13 0;
#X connect 44 0 21 0;
#X connect 45 0 21 1;
#X connect 46 0 59 0;
#X connect 47 0 50 0;
#X connect 48 0 50 1;
#X connect 49 0 47 0;
#X connect 49 1 48 0;
#X connect 50 0 46 0;
#X connect 51 0 49 0;
#X connect 52 0 59 0;
#X connect 53 0 52 0;
#X connect 54 0 53 0;
#X connect 55 0 56 0;
#X connect 56 0 57 0;
#X connect 57 2 51 0;
#X connect 57 3 54 0;
#X connect 59 0 61 0;
#X connect 59 0 65 0;
#X connect 61 0 8 0;
#X connect 63 0 64 0;
#X connect 63 0 61 0;
#X connect 64 0 59 0;
#X connect 65 0 63 0;
#X connect 66 0 68 0;
#X connect 66 1 67 0;
#X connect 66 2 69 2;
#X connect 67 0 69 1;
#X connect 68 0 69 0;
#X connect 69 0 70 0;
#X coords 0 -1 1 1 39 201 2 484 -311;
