#N canvas 605 430 763 519 10;
#X obj 133 14 inlet;
#X obj 133 36 unpack;
#X obj 123 203 mtof;
#X obj 123 225 phasor~;
#X obj 121 323 outlet~;
#X obj 242 117 sel 0;
#X obj 237 330 * 4096;
#X obj 483 352 * 4096;
#X obj 447 471 outlet;
#X obj 287 256 f;
#X obj 300 223 r fdecay;
#X msg 484 304 0 \$1;
#X obj 483 274 f;
#X obj 496 241 r adecay;
#X msg 228 416 spi_write 0 \$2 \$1;
#X obj 33 20 inlet;
#X obj 222 384 pack;
#X msg 465 414 spi_write 0 \$2 \$1;
#X obj 435 381 pack;
#X obj 56 122 + 1;
#X obj 51 199 + 1;
#X obj 53 63 * 3;
#X msg 75 437 spi_write 0 \$2 \$1;
#X obj 64 389 pack;
#X obj 48 352 r resonance;
#X obj 295 320 r famt;
#X obj 424 131 r cutoff;
#X msg 234 273 0 \$1;
#X obj 393 197 f;
#X obj 418 161 / 4095;
#X msg 386 235 \$1 0;
#X obj 237 308 line 3 0;
#X obj 437 331 line 3 0;
#X obj 263 165 t b b b;
#X msg 413 281 1 0;
#X obj 136 100 pack;
#X obj 134 58 t b f;
#X obj 137 79 f;
#X obj 137 130 unpack;
#X connect 0 0 1 0;
#X connect 1 0 36 0;
#X connect 1 1 37 1;
#X connect 2 0 3 0;
#X connect 3 0 4 0;
#X connect 5 1 33 0;
#X connect 6 0 16 0;
#X connect 7 0 18 0;
#X connect 9 0 27 0;
#X connect 10 0 9 1;
#X connect 11 0 32 0;
#X connect 12 0 11 0;
#X connect 13 0 12 1;
#X connect 14 0 8 0;
#X connect 15 0 21 0;
#X connect 16 0 14 0;
#X connect 17 0 8 0;
#X connect 18 0 17 0;
#X connect 19 0 20 0;
#X connect 19 0 16 1;
#X connect 20 0 23 1;
#X connect 21 0 18 1;
#X connect 21 0 19 0;
#X connect 22 0 8 0;
#X connect 23 0 22 0;
#X connect 24 0 23 0;
#X connect 25 0 6 1;
#X connect 26 0 29 0;
#X connect 27 0 31 0;
#X connect 28 0 30 0;
#X connect 29 0 28 1;
#X connect 30 0 31 0;
#X connect 31 0 6 0;
#X connect 32 0 7 0;
#X connect 33 0 12 0;
#X connect 33 1 9 0;
#X connect 33 2 28 0;
#X connect 33 2 34 0;
#X connect 34 0 32 0;
#X connect 35 0 38 0;
#X connect 36 0 37 0;
#X connect 36 1 35 1;
#X connect 37 0 35 0;
#X connect 38 0 5 0;
#X connect 38 1 2 0;
