#N canvas 405 27 1396 896 10;
#X obj 181 387 route 1 2 3 4 5;
#X obj 179 349 pack 0 0 0;
#X obj 172 717 dac~ 1 2 3 4 5;
#X obj 696 327 wiringPi;
#X obj 699 275 loadbang;
#X obj 687 246 r towiringpi;
#X obj 205 791 s towiringpi;
#X obj 385 266 s fdecay;
#X obj 408 293 s adecay;
#X obj 432 318 s resonance;
#X obj 361 239 s famt;
#X obj 119 391 loadbang;
#X obj 95 394 bng 15 250 50 0 empty empty empty 17 7 0 10 -262144 -1
-1;
#X obj 456 342 s cutoff;
#X obj 181 275 notein 1;
#X msg 695 297 spi_init 0 1.04858e+06;
#X obj 167 536 phaseosc;
#X obj 195 603 phaseosc;
#X obj 241 667 phaseosc;
#X obj 284 725 phaseosc;
#X msg 279 694 1;
#X msg 236 636 2;
#X msg 189 572 3;
#X msg 162 505 4;
#X msg 27 730 spi_write 0 15 4095;
#X msg 27 755 spi_write 0 16 1048;
#X msg 27 779 spi_write 0 17 4095;
#X obj 109 468 phaseosc;
#X msg 103 442 5;
#X obj 363 168 nrpnin;
#X obj 363 190 pack;
#X obj 128 112 metro 130;
#X obj 125 166 tabread seq;
#X obj 682 166 table seq 32;
#X obj 122 74 tgl 15 0 empty empty empty 17 7 0 10 -262144 -1 -1 0
1;
#X obj 94 236 t f b;
#X obj 89 279 makenote;
#X obj 363 212 route 8 9 10 11 12;
#X obj 79 214 sel 0;
#X obj 130 139 counter 31;
#X msg 135 256 127;
#X msg 564 112 \; seq 0 12 12 24 36 48 24 36 48 60 36 48 60 24 48 24
60 12 36 12 48 60 36 48 36 24 60 24 48 12 60 12 48;
#X obj 182 302 poly 5 0;
#X floatatom 176 63 5 0 0 0 - - -, f 5;
#X obj 82 194 +;
#X floatatom 59 144 5 0 0 0 - - -, f 5;
#X obj 300 216 s nrpns;
#X obj 17 91 r nrpns;
#X obj 17 113 route 16 17;
#X connect 0 0 27 1;
#X connect 0 1 16 1;
#X connect 0 2 17 1;
#X connect 0 3 18 1;
#X connect 0 4 19 1;
#X connect 1 0 0 0;
#X connect 4 0 15 0;
#X connect 5 0 3 0;
#X connect 11 0 20 0;
#X connect 11 0 21 0;
#X connect 11 0 22 0;
#X connect 11 0 23 0;
#X connect 11 0 28 0;
#X connect 12 0 20 0;
#X connect 12 0 21 0;
#X connect 12 0 22 0;
#X connect 12 0 23 0;
#X connect 12 0 28 0;
#X connect 14 0 42 0;
#X connect 14 1 42 1;
#X connect 15 0 3 0;
#X connect 16 0 2 1;
#X connect 16 1 6 0;
#X connect 17 0 2 2;
#X connect 17 1 6 0;
#X connect 18 0 2 3;
#X connect 18 1 6 0;
#X connect 19 0 2 4;
#X connect 19 1 6 0;
#X connect 20 0 19 0;
#X connect 21 0 18 0;
#X connect 22 0 17 0;
#X connect 23 0 16 0;
#X connect 24 0 6 0;
#X connect 25 0 6 0;
#X connect 26 0 6 0;
#X connect 27 0 2 0;
#X connect 27 1 6 0;
#X connect 28 0 27 0;
#X connect 29 0 30 0;
#X connect 29 1 30 1;
#X connect 30 0 37 0;
#X connect 30 0 46 0;
#X connect 31 0 39 0;
#X connect 32 0 44 0;
#X connect 34 0 31 0;
#X connect 35 0 36 0;
#X connect 35 1 40 0;
#X connect 36 0 42 0;
#X connect 36 1 42 1;
#X connect 37 0 10 0;
#X connect 37 1 7 0;
#X connect 37 2 8 0;
#X connect 37 3 9 0;
#X connect 37 4 13 0;
#X connect 38 1 35 0;
#X connect 39 0 32 0;
#X connect 40 0 36 1;
#X connect 40 0 36 2;
#X connect 42 0 1 0;
#X connect 42 1 1 1;
#X connect 42 2 1 2;
#X connect 43 0 31 1;
#X connect 44 0 38 0;
#X connect 45 0 44 1;
#X connect 47 0 48 0;
#X connect 48 0 43 0;
#X connect 48 1 45 0;
