#N canvas 11 0 1860 1010 10;
#X obj 1555 -33 notein;
#X obj 1555 114 pack 0 0 0;
#X obj 1553 145 route 1 2 3 4 5 6 7 8;
#X obj 1765 338 dac~;
#X obj 1552 30 + 0;
#X floatatom 1569 0 5 0 0 0 - - -, f 5;
#X obj 1498 330 vsl 15 128 0 30 0 0 empty empty empty 0 -9 0 10 -261078
-1 -1 1376 1;
#X floatatom 1498 305 5 0 0 0 - - -, f 5;
#X obj 1556 74 poly 8 1;
#X obj 1346 330 vsl 15 128 0 10000 0 0 empty empty empty 0 -9 0 10
-201556 -159808 -1 8 1;
#X obj 1366 330 vsl 15 128 0 10000 0 0 empty empty empty 0 -9 0 10
-201556 -1 -1 2540 1;
#X obj 1413 330 vsl 15 128 0 10000 0 0 empty empty empty 0 -9 0 10
-201556 -1 -1 127 1;
#X obj 1390 330 vsl 15 128 0 1 0 0 empty empty empty 0 -9 0 10 -201556
-1 -1 12700 1;
#X obj 1329 494 s a;
#X obj 1358 494 s d;
#X obj 1387 494 s s;
#X obj 1415 494 s r;
#X obj 549 -144 loadbang;
#X msg 534 -108 \; pd dsp 1;
#X obj 868 494 s lfo1rate;
#X obj 377 -34 s cyclesize;
#X msg 403 -122 2048;
#N canvas 1393 329 450 300 (subpatch) 0;
#X array wavetable 262400 float 2 black black;
#X coords 0 1 262400 -1 868 207 1;
#X restore 210 -589 graph;
#X obj 467 55 soundfiler;
#X obj 462 -92 openpanel;
#X obj 459 -113 bng 15 250 50 0 empty empty empty 17 7 0 10 -262144
-1 -1;
#X msg 1455 248 100;
#X floatatom 1536 0 5 0 0 0 - - -, f 5;
#X obj 1774 245 osc~ 300;
#X obj 880 330 vsl 15 128 0 1e+07 0 0 empty empty empty 0 -9 0 10 -187648
-1 -1 0 1;
#X obj 915 330 vsl 15 128 0 20000 0 0 empty empty empty 0 -9 0 10 -187648
-1 -1 0 1;
#X obj 1784 303 *~ 0.8;
#X obj 1532 330 vu 15 120 empty empty -1 -8 0 10 -66577 -1 1 0;
#X obj 1865 400 pvu~;
#X msg 1874 364 start;
#X obj 715 -12 shell;
#X msg 715 -59 aconnect 28:0 128:0;
#X obj 715 11 print done;
#X obj 715 41 print SDOUT;
#X msg 715 -101 aconnect 24:0 128:0;
#X obj 465 83 print;
#X obj 452 -145 delay 2000;
#X obj 715 -79 delay 500;
#X floatatom 1533 305 5 0 0 0 - - -, f 5;
#X msg 1380 248 2000;
#X msg 1825 397 3.25;
#X msg 1341 248 6;
#X floatatom 916 305 5 0 0 0 - - -, f 5;
#X floatatom 880 305 5 0 0 0 - - -, f 5;
#X obj 971 330 vsl 15 128 0 1e+07 0 0 empty empty empty 0 -9 0 10 -187968
-1 -1 0 1;
#X obj 1006 330 vsl 15 128 0 20000 0 0 empty empty empty 0 -9 0 10
-187968 -1 -1 0 1;
#X floatatom 1006 303 5 0 0 0 - - -, f 5;
#X floatatom 971 305 5 0 0 0 - - -, f 5;
#X obj 1041 330 vsl 15 128 0 1e+07 0 0 empty empty empty 0 -9 0 10
-188096 -1 -1 0 1;
#X obj 1076 330 vsl 15 128 0 20000 0 0 empty empty empty 0 -9 0 10
-188096 -1 -1 0 1;
#X floatatom 1076 305 5 0 0 0 - - -, f 5;
#X floatatom 1041 305 5 0 0 0 - - -, f 5;
#X obj 951 494 s lfo2rate;
#X obj 1021 494 s lfo3rate;
#X obj 519 330 vsl 15 128 0 10000 0 0 empty empty empty 0 -9 0 10 -202066
-1 -1 8 1;
#X obj 541 330 vsl 15 128 0 10000 0 0 empty empty empty 0 -9 0 10 -202066
-1 -1 2540 1;
#X obj 585 330 vsl 15 128 0 10000 0 0 empty empty empty 0 -9 0 10 -202066
-1 -1 127 1;
#X obj 563 330 vsl 15 128 0 1 0 0 empty empty empty 0 -9 0 10 -202066
-1 -1 0 1;
#X obj 528 189 loadbang;
#X msg 581 218 0;
#X msg 614 218 100;
#X msg 542 218 2000;
#X msg 509 218 6;
#X msg 466 31 read -resize wttest2.wav wavetable;
#X msg 467 -15 read -resize wttest.wav wavetable;
#X msg 468 -67 read -resize ENTEST.WAV wavetable;
#X msg 396 -62 512;
#X obj 1551 183 oscwtxfade3;
#X obj 1563 207 oscwtxfade3;
#X obj 1577 231 oscwtxfade3;
#X obj 1589 255 oscwtxfade3;
#X obj 1635 181 oscwtxfade3;
#X obj 1647 205 oscwtxfade3;
#X obj 1661 229 oscwtxfade3;
#X obj 1673 253 oscwtxfade3;
#X obj 641 330 vsl 15 128 0 127 0 0 empty empty empty 0 -9 0 10 -202386
-1 -1 0 1;
#X obj 632 526 s wtenvdepth;
#X obj 348 597 s velon;
#X obj 379 443 tgl 15 0 empty empty empty 17 7 0 10 -13381 -1 -1 0
1;
#X obj 360 512 loadbang;
#X msg 1419 248 1;
#X obj 351 330 vsl 15 128 0 127 0 0 empty empty empty 0 -9 0 10 -3561
-1 -1 0 1;
#X obj 1554 -76 makenote;
#X msg 1586 -112 127;
#X obj 1519 -110 bng 15 250 50 0 empty empty empty 17 7 0 10 -262144
-1 -1;
#X floatatom 1546 -112 5 0 0 0 - - -, f 5;
#X msg 1619 -112 10000;
#X obj 345 490 s wtstart;
#X floatatom 351 305 5 0 0 0 - - -, f 5;
#X obj 353 183 ctlin 2 1;
#X obj 352 250 line;
#X msg 358 223 \$1 10;
#X obj 889 640 *~;
#X obj 886 659 send~ pitchlfo;
#X floatatom 947 608 5 0 0 0 - - -, f 5;
#X obj 918 551 * 0.2;
#X obj 886 610 osc~ 10;
#N canvas 1393 329 450 300 (subpatch) 0;
#X array wavetable2 262144 float 2 black black;
#X coords 0 1 262144 -1 868 207 1;
#X restore 211 -379 graph;
#X obj 403 591 s vel1on;
#X obj 515 494 s awt1;
#X obj 560 494 s dwt1;
#X obj 605 494 s swt1;
#X obj 650 494 s rwt1;
#X obj 690 330 vsl 15 128 0 10000 0 0 empty empty empty 0 -9 0 10 -230669
-1 -1 127 1;
#X obj 712 330 vsl 15 128 0 10000 0 0 empty empty empty 0 -9 0 10 -230669
-1 -1 12700 1;
#X obj 756 330 vsl 15 128 0 10000 0 0 empty empty empty 0 -9 0 10 -230669
-1 -1 1270 1;
#X obj 734 330 vsl 15 128 0 1 0 0 empty empty empty 0 -9 0 10 -230669
-1 -1 0 1;
#X obj 710 176 loadbang;
#X msg 779 238 0;
#X obj 813 330 vsl 15 128 0 127 0 0 empty empty empty 0 -9 0 10 -239233
-1 -1 0 1;
#X floatatom 813 305 5 0 0 0 - - -, f 5;
#X obj 690 494 s awt2;
#X obj 735 494 s dwt2;
#X obj 780 494 s swt2;
#X obj 826 494 s rwt2;
#X obj 781 526 s wtenvdepth2;
#X obj 416 330 vsl 15 128 0 127 0 0 empty empty empty 0 -9 0 10 -3561
-1 -1 0 1;
#X floatatom 410 305 5 0 0 0 - - -, f 5;
#X obj 417 183 ctlin 19 1;
#X obj 388 256 line;
#X msg 394 229 \$1 10;
#X msg 467 8 read -resize wttest2.wav wavetable2;
#X obj 424 489 s wtstart2;
#X msg 376 547 0;
#X msg 680 239 100;
#X msg 707 242 2.0003e+07;
#X msg 823 231 1000;
#X obj 365 -92 s cyclesize2;
#X obj 1468 145 s osc2pitch;
#X floatatom 1465 119 5 0 0 0 - - -, f 5;
#X floatatom 1507 121 5 0 0 0 - - -, f 5;
#X obj 1465 96 ctlin 74 1;
#X floatatom 375 416 5 0 0 0 - - -, f 5;
#X obj 218 246 ctlin 80 1;
#X obj 211 339 s oscbal;
#X obj 199 193 loadbang;
#X msg 199 216 0.5;
#X obj 1694 14 wiringPi;
#X obj 1694 -37 loadbang;
#X msg 1694 -58 spi_write 0 \$1;
#X obj 1694 -117 adsrfilt;
#X obj 1163 330 vsl 15 128 0 10000 0 0 empty empty empty 0 -9 0 10
-262144 -1 -1 8 1;
#X obj 1185 330 vsl 15 128 0 10000 0 0 empty empty empty 0 -9 0 10
-262144 -1 -1 2540 1;
#X obj 1229 330 vsl 15 128 0 10000 0 0 empty empty empty 0 -9 0 10
-262144 -1 -1 127 1;
#X obj 1207 330 vsl 15 128 0 1 0 0 empty empty empty 0 -9 0 10 -262144
-1 -1 0 1;
#X obj 1172 212 loadbang;
#X msg 1220 248 0;
#X msg 1253 248 100;
#X msg 1181 248 2000;
#X msg 1148 248 6;
#X obj 1142 494 s af;
#X obj 1187 494 s df;
#X obj 1232 494 s sf;
#X obj 1277 494 s rf;
#X msg 1766 217 0.1;
#X msg 1797 216 0;
#X obj 1365 223 loadbang;
#X obj 332 473 hsl 128 15 0 127 0 0 empty empty empty -2 -8 0 10 -3561
-1 -1 50 1;
#X obj 1845 290 r mastervol;
#X obj 1487 494 s mastervol;
#X obj 1850 328 loadbang;
#X obj 447 444 tgl 15 0 empty empty empty 17 7 0 10 -13381 -1 -1 0
1;
#X msg 431 545 0;
#X floatatom 605 377 5 0 0 0 - - -, f 5;
#X floatatom 605 344 5 0 0 0 - - -, f 5;
#X floatatom 605 443 5 0 0 0 - - -, f 5;
#X floatatom 605 410 5 0 0 0 - - -, f 5;
#X floatatom 641 305 5 0 0 0 - - -, f 5;
#X text 616 327 A;
#X text 616 360 D;
#X text 616 394 S;
#X text 616 428 R;
#X floatatom 777 375 5 0 0 0 - - -, f 5;
#X floatatom 777 342 5 0 0 0 - - -, f 5;
#X floatatom 777 441 5 0 0 0 - - -, f 5;
#X floatatom 777 408 5 0 0 0 - - -, f 5;
#X text 788 325 A;
#X text 788 358 D;
#X text 788 392 S;
#X text 788 426 R;
#X floatatom 1435 380 5 0 0 0 - - -, f 5;
#X floatatom 1435 347 5 0 0 0 - - -, f 5;
#X floatatom 1435 446 5 0 0 0 - - -, f 5;
#X floatatom 1435 413 5 0 0 0 - - -, f 5;
#X text 1446 330 A;
#X text 1446 363 D;
#X text 1446 397 S;
#X text 1446 431 R;
#X floatatom 1249 381 5 0 0 0 - - -, f 5;
#X floatatom 1249 348 5 0 0 0 - - -, f 5;
#X floatatom 1249 447 5 0 0 0 - - -, f 5;
#X floatatom 1249 414 5 0 0 0 - - -, f 5;
#X text 1260 331 A;
#X text 1260 364 D;
#X text 1260 398 S;
#X text 1260 432 R;
#X obj 1777 273 *~ 0;
#X obj 183 90 switch~;
#X obj 312 410 tgl 15 0 empty empty empty 17 7 0 10 -262144 -1 -1 1
1;
#X msg 263 225 1;
#X msg 326 11 loadbang polysynthwt;
#X obj 323 44 send polysynthwt;
#X obj 1007 557 s lfo2amt;
#X obj 1074 557 s lfo3amt;
#X msg 468 -39 read -resize wtrand.wav wavetable2;
#X msg 328 -56 2048;
#X msg 1694 -12 spi_init 0 1.04858e+06;
#X obj 1694 -88 * 4095;
#X connect 0 0 27 0;
#X connect 0 0 4 0;
#X connect 0 1 8 1;
#X connect 1 0 2 0;
#X connect 2 0 72 0;
#X connect 2 1 73 0;
#X connect 2 2 74 0;
#X connect 2 3 75 0;
#X connect 2 4 76 0;
#X connect 2 5 77 0;
#X connect 2 6 78 0;
#X connect 2 7 79 0;
#X connect 4 0 8 0;
#X connect 5 0 4 1;
#X connect 6 0 164 0;
#X connect 7 0 6 0;
#X connect 8 0 1 0;
#X connect 8 1 1 1;
#X connect 8 2 1 2;
#X connect 9 0 13 0;
#X connect 10 0 14 0;
#X connect 11 0 16 0;
#X connect 12 0 15 0;
#X connect 17 0 41 0;
#X connect 21 0 132 0;
#X connect 23 0 40 0;
#X connect 24 0 68 0;
#X connect 25 0 24 0;
#X connect 26 0 187 0;
#X connect 28 0 201 0;
#X connect 29 0 19 0;
#X connect 29 0 101 0;
#X connect 30 0 100 0;
#X connect 31 0 3 0;
#X connect 31 0 3 1;
#X connect 31 0 33 0;
#X connect 33 0 32 0;
#X connect 33 0 43 0;
#X connect 34 0 33 0;
#X connect 35 0 37 0;
#X connect 35 0 38 0;
#X connect 36 0 35 0;
#X connect 39 0 35 0;
#X connect 41 0 39 0;
#X connect 41 0 21 0;
#X connect 41 0 18 0;
#X connect 41 0 42 0;
#X connect 41 0 70 0;
#X connect 41 0 126 0;
#X connect 41 0 71 0;
#X connect 42 0 36 0;
#X connect 44 0 185 0;
#X connect 45 0 7 0;
#X connect 46 0 186 0;
#X connect 47 0 30 0;
#X connect 48 0 29 0;
#X connect 49 0 57 0;
#X connect 50 0 207 0;
#X connect 51 0 50 0;
#X connect 52 0 49 0;
#X connect 53 0 58 0;
#X connect 54 0 208 0;
#X connect 55 0 54 0;
#X connect 56 0 53 0;
#X connect 59 0 104 0;
#X connect 60 0 105 0;
#X connect 61 0 107 0;
#X connect 62 0 106 0;
#X connect 63 0 64 0;
#X connect 63 0 67 0;
#X connect 63 0 65 0;
#X connect 63 0 66 0;
#X connect 64 0 171 0;
#X connect 65 0 170 0;
#X connect 66 0 168 0;
#X connect 67 0 169 0;
#X connect 68 0 23 0;
#X connect 69 0 23 0;
#X connect 70 0 23 0;
#X connect 71 0 20 0;
#X connect 72 0 31 0;
#X connect 73 0 31 0;
#X connect 74 0 31 0;
#X connect 75 0 31 0;
#X connect 76 0 31 0;
#X connect 77 0 31 0;
#X connect 78 0 31 0;
#X connect 79 0 31 0;
#X connect 80 0 81 0;
#X connect 83 0 82 0;
#X connect 84 0 128 0;
#X connect 84 0 167 0;
#X connect 85 0 188 0;
#X connect 86 0 92 0;
#X connect 87 0 8 0;
#X connect 87 1 8 1;
#X connect 88 0 87 1;
#X connect 89 0 88 0;
#X connect 89 0 91 0;
#X connect 89 0 90 0;
#X connect 90 0 87 0;
#X connect 91 0 87 2;
#X connect 93 0 86 0;
#X connect 94 0 96 0;
#X connect 95 0 93 0;
#X connect 96 0 95 0;
#X connect 97 0 98 0;
#X connect 100 0 97 1;
#X connect 100 0 99 0;
#X connect 101 0 97 0;
#X connect 108 0 116 0;
#X connect 109 0 117 0;
#X connect 110 0 119 0;
#X connect 111 0 118 0;
#X connect 112 0 113 0;
#X connect 112 0 129 0;
#X connect 112 0 131 0;
#X connect 112 0 130 0;
#X connect 113 0 180 0;
#X connect 114 0 120 0;
#X connect 115 0 114 0;
#X connect 121 0 127 0;
#X connect 122 0 121 0;
#X connect 123 0 125 0;
#X connect 124 0 122 0;
#X connect 125 0 124 0;
#X connect 126 0 23 0;
#X connect 128 0 83 0;
#X connect 129 0 178 0;
#X connect 130 0 177 0;
#X connect 131 0 179 0;
#X connect 136 0 134 0;
#X connect 136 0 133 0;
#X connect 137 0 162 0;
#X connect 138 0 139 0;
#X connect 138 0 137 0;
#X connect 140 0 141 0;
#X connect 140 0 204 0;
#X connect 141 0 137 0;
#X connect 143 0 211 0;
#X connect 144 0 142 0;
#X connect 145 0 212 0;
#X connect 146 0 155 0;
#X connect 147 0 156 0;
#X connect 148 0 158 0;
#X connect 149 0 157 0;
#X connect 150 0 151 0;
#X connect 150 0 154 0;
#X connect 150 0 152 0;
#X connect 150 0 153 0;
#X connect 151 0 196 0;
#X connect 152 0 195 0;
#X connect 153 0 193 0;
#X connect 154 0 194 0;
#X connect 159 0 201 1;
#X connect 160 0 201 1;
#X connect 161 0 46 0;
#X connect 161 0 44 0;
#X connect 161 0 85 0;
#X connect 161 0 26 0;
#X connect 162 0 139 0;
#X connect 163 0 31 1;
#X connect 165 0 34 0;
#X connect 165 0 45 0;
#X connect 166 0 103 0;
#X connect 167 0 166 0;
#X connect 168 0 60 0;
#X connect 169 0 59 0;
#X connect 170 0 61 0;
#X connect 171 0 62 0;
#X connect 172 0 80 0;
#X connect 177 0 109 0;
#X connect 178 0 108 0;
#X connect 179 0 110 0;
#X connect 180 0 111 0;
#X connect 185 0 10 0;
#X connect 186 0 9 0;
#X connect 187 0 11 0;
#X connect 188 0 12 0;
#X connect 193 0 147 0;
#X connect 194 0 146 0;
#X connect 195 0 148 0;
#X connect 196 0 149 0;
#X connect 201 0 3 1;
#X connect 201 0 3 0;
#X connect 203 0 202 0;
#X connect 204 0 203 0;
#X connect 205 0 206 0;
#X connect 209 0 23 0;
#X connect 210 0 20 0;
#X connect 211 0 142 0;
#X connect 212 0 144 0;
#X coords 0 -1 1 1 1300 190 1 300 300;
