#N canvas 616 259 726 798 10;
#X obj 98 50 loadbang;
#X obj 98 72 t b b;
#X obj 92 124 s toshell;
#X obj 180 167 r fromshell;
#X obj 180 189 t b a;
#X obj 169 212 counter;
#X msg 142 188 0;
#X msg 130 233 clear;
#X obj 180 233 list append;
#X obj 180 255 coll;
#C restore;
#X msg 301 205 next;
#X msg 353 204 prev;
#X obj 180 277 symbol;
#X obj 180 299 t b a b;
#X msg 219 323 stop;
#X obj 212 393 delay 1;
#X msg 231 417 print /3/0/0/320/40/99999/ \, 10;
#X obj 212 456 delay 10;
#X obj 212 511 delay 10;
#X msg 230 480 print /11/0/0/ \, 10;
#X obj 212 533 t b b;
#X obj 238 574 symbol;
#X msg 238 596 print /17/\$1/ \, 10;
#X obj 226 643 s toDisplay;
#X obj 423 206 bng 15 250 50 0 empty empty empty 17 7 0 10 -262144
-1 -1;
#X obj 412 245 symbol;
#X obj 534 202 bng 15 250 50 0 empty empty empty 17 7 0 10 -262144
-1 -1;
#X obj 522 271 symbol;
#X obj 418 386 s loadpreset;
#X obj 519 322 s savepreset;
#X obj 461 451 print test;
#X obj 415 362 symbol;
#X obj 435 153 r gridbuts;
#X obj 492 204 bng 15 250 50 0 empty empty empty 17 7 0 10 -262144
-1 -1;
#X obj 513 201 bng 15 250 50 0 empty empty empty 17 7 0 10 -262144
-1 -1;
#X obj 521 134 sel 8 9 10 7;
#X obj 82 377 print filecount;
#X obj 599 232 f;
#X obj 594 266 pack s f;
#X obj 527 237 t b b b b;
#X obj 456 260 delay 200;
#X msg 329 343 /home/pi/Documents/pd_modularorig/models/PWMpresets/\$1
;
#X msg 447 297 /home/pi/Documents/pd_modularorig/models/PWMpresets/\$2::\$1
;
#X msg 96 95 ls /home/pi/Documents/pd_modularorig/models/PWMpresets
;
#X connect 0 0 1 0;
#X connect 1 0 43 0;
#X connect 1 1 6 0;
#X connect 1 1 7 0;
#X connect 3 0 4 0;
#X connect 4 0 5 0;
#X connect 4 1 8 1;
#X connect 5 0 8 0;
#X connect 5 0 36 0;
#X connect 5 0 37 1;
#X connect 6 0 5 3;
#X connect 7 0 9 0;
#X connect 8 0 9 0;
#X connect 9 0 12 0;
#X connect 9 0 25 1;
#X connect 10 0 9 0;
#X connect 11 0 9 0;
#X connect 12 0 13 0;
#X connect 13 0 15 0;
#X connect 13 1 21 1;
#X connect 13 2 14 0;
#X connect 14 0 15 0;
#X connect 14 0 17 0;
#X connect 14 0 18 0;
#X connect 15 0 16 0;
#X connect 15 0 17 0;
#X connect 16 0 23 0;
#X connect 17 0 18 0;
#X connect 17 0 19 0;
#X connect 18 0 20 0;
#X connect 19 0 23 0;
#X connect 20 1 21 0;
#X connect 21 0 22 0;
#X connect 22 0 23 0;
#X connect 24 0 25 0;
#X connect 25 0 27 1;
#X connect 25 0 41 0;
#X connect 27 0 38 0;
#X connect 31 0 28 0;
#X connect 31 0 30 0;
#X connect 32 0 35 0;
#X connect 35 0 10 0;
#X connect 35 0 33 0;
#X connect 35 1 11 0;
#X connect 35 1 34 0;
#X connect 35 2 24 0;
#X connect 35 3 26 0;
#X connect 35 3 39 0;
#X connect 37 0 38 1;
#X connect 38 0 42 0;
#X connect 39 0 40 0;
#X connect 39 2 27 0;
#X connect 39 3 37 0;
#X connect 40 0 1 0;
#X connect 41 0 31 0;
#X connect 42 0 29 0;
#X connect 43 0 2 0;
