#N canvas 720 203 804 733 10;
#X msg 230 63 127;
#X msg 192 65 0;
#X obj 204 98 sel 0;
#X text 42 82 table 0 IL 1 T1 2 L1 3 T2 4 L2 5 T3 6 L3 7 T4 8 L4 9
T5 10 L5 11 T6 12 L6 13 R 14 LS 15 LE 16 VL, f 5;
#X obj 438 475 tabread 6stagefilt;
#X obj 293 139 s \$0reset;
#X obj 231 119 t b b b b b;
#X obj 425 274 r \$0reset;
#X msg 178 383 13;
#X obj 199 148 t b b;
#X connect 0 0 2 0;
#X connect 1 0 2 0;
#X connect 2 0 9 0;
#X connect 2 1 6 0;
#X connect 6 4 5 0;
#X connect 9 1 8 0;
