#N canvas 456 111 1243 979 10;
#X obj 361 95 inlet;
#X msg 694 772 0.1;
#X obj 677 731 tgl 15 0 empty empty empty 17 7 0 10 -262144 -1 -1 0
1;
#X obj 572 754 outlet~;
#X obj 565 188 phasor~;
#X obj 531 501 cos~;
#X obj 647 224 *~;
#X obj 647 246 cos~;
#X obj 401 146 mtof;
#X obj 674 160 r osc2pitch;
#X obj 601 103 line~, f 8;
#X msg 626 66 \$1 \$2;
#X obj 637 38 pack;
#X obj 667 18 r porta;
#X obj 557 162 +~, f 4;
#X obj 583 137 r~ pitchlfo;
#X obj 558 219 r osc1pitch;
#X obj 539 242 *~;
#X obj 400 120 unpack 0 0;
#X msg 410 67 32 127;
#X obj 602 508 6stageOp1int;
#X obj 605 615 / 127;
#X obj 573 567 sel 0;
#X obj 565 694 *~, f 2;
#X obj 606 654 spigot;
#X msg 567 611 1, f 4;
#X floatatom 682 587 5 0 0 0 - - -, f 5;
#X obj 682 556 r osc1vel;
#X obj 666 625 > 0;
#X obj 562 296 6stageOp2int;
#X obj 564 341 *~;
#X obj 646 386 / 127;
#X obj 620 351 sel 0;
#X obj 572 422 *~;
#X obj 668 410 spigot;
#X obj 645 323 sel 0;
#X msg 623 412 1;
#X floatatom 690 323 5 0 0 0 - - -, f 5;
#X obj 679 293 r osc2vel;
#X obj 691 384 > 0;
#X obj 543 536 *~;
#X obj 532 459 +~;
#X obj 563 404 *~ 1;
#X obj 573 724 *~ 0.1;
#X obj 663 352 * 50;
#X obj 677 188 loadbang;
#X msg 677 210 1;
#X obj 760 393 6stagefiltint;
#X obj 775 507 outlet;
#X obj 720 681 r mastervol;
#X obj 789 467 i;
#X connect 0 0 18 0;
#X connect 1 0 43 1;
#X connect 2 0 43 1;
#X connect 4 0 6 0;
#X connect 4 0 17 0;
#X connect 5 0 40 0;
#X connect 6 0 7 0;
#X connect 7 0 30 0;
#X connect 8 0 12 0;
#X connect 9 0 6 1;
#X connect 10 0 14 0;
#X connect 11 0 10 0;
#X connect 12 0 11 0;
#X connect 13 0 12 1;
#X connect 14 0 4 0;
#X connect 15 0 14 1;
#X connect 16 0 17 1;
#X connect 17 0 41 0;
#X connect 18 0 8 0;
#X connect 18 1 29 0;
#X connect 18 1 22 0;
#X connect 18 1 20 0;
#X connect 18 1 32 0;
#X connect 18 1 47 0;
#X connect 19 0 18 0;
#X connect 20 0 40 1;
#X connect 21 0 24 0;
#X connect 22 0 25 0;
#X connect 22 1 21 0;
#X connect 23 0 43 0;
#X connect 24 0 23 1;
#X connect 25 0 23 1;
#X connect 27 0 26 0;
#X connect 27 0 28 0;
#X connect 28 0 24 1;
#X connect 29 0 30 1;
#X connect 30 0 42 0;
#X connect 31 0 34 0;
#X connect 32 1 31 0;
#X connect 33 0 41 1;
#X connect 34 0 33 1;
#X connect 35 0 36 0;
#X connect 35 1 44 0;
#X connect 36 0 33 1;
#X connect 38 0 37 0;
#X connect 38 0 35 0;
#X connect 38 0 39 0;
#X connect 39 0 34 1;
#X connect 40 0 23 0;
#X connect 41 0 5 0;
#X connect 42 0 33 0;
#X connect 43 0 3 0;
#X connect 44 0 42 1;
#X connect 45 0 46 0;
#X connect 46 0 6 1;
#X connect 46 0 17 1;
#X connect 47 0 50 0;
#X connect 49 0 43 1;
#X connect 50 0 48 0;
#X coords 0 0 1 1 64 180 0;
