#N canvas 456 123 1243 979 10;
#X obj 361 95 inlet;
#X msg 694 772 0.1;
#X obj 677 731 tgl 15 0 empty empty empty 17 7 0 10 -262144 -1 -1 0
1;
#X obj 572 754 outlet~;
#X obj 565 188 phasor~;
#X obj 746 -6 mtof;
#X obj 803 -11 r osc2pitch;
#X obj 601 103 line~, f 8;
#X msg 626 66 \$1 \$2;
#X obj 637 38 pack;
#X obj 667 18 r porta;
#X obj 557 162 +~, f 4;
#X obj 583 137 r~ pitchlfo;
#X obj 558 219 r osc1pitch;
#X obj 539 242 *~;
#X obj 400 120 unpack 0 0;
#X msg 410 67 32 127;
#X obj 605 615 / 127;
#X obj 573 567 sel 0;
#X obj 565 694 *~, f 2;
#X obj 606 654 spigot;
#X msg 567 611 1, f 4;
#X floatatom 682 587 5 0 0 0 - - -, f 5;
#X obj 682 556 r osc1vel;
#X obj 666 625 > 0;
#X obj 679 293 r osc2vel;
#X obj 573 724 *~ 0.1;
#X obj 788 428 6stagefiltint;
#X obj 775 507 outlet;
#X obj 720 681 r mastervol;
#X obj 789 467 i;
#X obj 297 380 expr~ $v1 > $v2;
#X obj 416 383 expr~ $v1 > $v2;
#X floatatom 389 343 5 0 0 0 - - -, f 5;
#X floatatom 495 338 5 0 0 0 - - -, f 5;
#X msg 378 276 0.5;
#X obj 287 296 6stagePWM2int;
#X obj 534 335 6stagePWM1int;
#X obj 677 221 phasor~;
#X obj 794 16 +;
#X obj 811 124 line~, f 8;
#X msg 836 87 \$1 \$2;
#X obj 847 59 pack;
#X obj 877 39 r porta;
#X obj 767 183 +~, f 4;
#X obj 793 158 r~ pitchlfo;
#X obj 768 54 mtof;
#X connect 0 0 15 0;
#X connect 1 0 26 1;
#X connect 2 0 26 1;
#X connect 4 0 14 0;
#X connect 5 0 9 0;
#X connect 6 0 39 1;
#X connect 7 0 11 0;
#X connect 8 0 7 0;
#X connect 9 0 8 0;
#X connect 10 0 9 1;
#X connect 11 0 4 0;
#X connect 12 0 11 1;
#X connect 13 0 14 1;
#X connect 14 0 31 0;
#X connect 15 0 5 0;
#X connect 15 0 39 0;
#X connect 15 1 18 0;
#X connect 15 1 27 0;
#X connect 15 1 36 0;
#X connect 15 1 37 0;
#X connect 16 0 15 0;
#X connect 17 0 20 0;
#X connect 18 0 21 0;
#X connect 18 1 17 0;
#X connect 19 0 26 0;
#X connect 20 0 19 1;
#X connect 21 0 19 1;
#X connect 23 0 22 0;
#X connect 23 0 24 0;
#X connect 24 0 20 1;
#X connect 26 0 3 0;
#X connect 27 0 30 0;
#X connect 29 0 26 1;
#X connect 30 0 28 0;
#X connect 31 0 19 0;
#X connect 32 0 19 0;
#X connect 35 0 31 1;
#X connect 35 0 32 0;
#X connect 36 0 31 1;
#X connect 36 0 33 0;
#X connect 37 0 34 0;
#X connect 37 0 32 1;
#X connect 38 0 32 0;
#X connect 39 0 46 0;
#X connect 40 0 44 0;
#X connect 41 0 40 0;
#X connect 42 0 41 0;
#X connect 43 0 42 1;
#X connect 44 0 38 0;
#X connect 45 0 44 1;
#X connect 46 0 42 0;
#X coords 0 0 1 1 64 180 0;
