#N canvas 935 406 756 620 10;
#N canvas 0 0 450 300 (subpatch) 0;
#X array \$0bd606 71371 float 2 black black;
#X coords 0 1 71371 -1 200 140 1;
#X restore 190 46 graph;
#X obj 170 267 openpanel;
#X obj 151 134 bng 15 250 50 0 empty empty empty 17 7 0 10 -262144
-1 -1;
#X obj 166 309 soundfiler;
#X obj 166 331 expr 44100 / $f1;
#X floatatom 166 353 5 0 0 0 - - -, f 5;
#X obj 167 373 phasor~;
#X obj 166 396 *~;
#X obj 189 189 hsl 199 13 0 1 0 0 empty empty empty -2 -8 0 10 -262144
-1 -1 2863 1;
#X obj 166 462 outlet~;
#X text 143 154 open;
#X obj 166 440 *~ 1;
#X obj 410 418 sel 1;
#X obj 410 517 outlet;
#X obj 333 396 unsig~ 5;
#X obj 410 396 > 0.97;
#X floatatom 102 181 5 0 0 0 - - -, f 5;
#X obj 561 476 outlet;
#X msg 579 404 \$1 0;
#X msg 551 356 random 2000;
#X msg 541 406 0 \$1;
#X obj 561 454 line 0 5;
#X obj 551 334 t b b b b;
#X obj 646 288 random 10000;
#X obj 646 310 / 10000;
#X obj 646 354 - 1;
#X obj 646 332 * 2;
#X obj 166 418 tabread4~ \$0bd606;
#X msg 166 287 read -resize \$1 \$0bd606;
#X obj 633 421 + 2000;
#X obj 633 399 random 2095;
#X floatatom 102 139 5 0 0 0 - - -, f 5;
#X obj 682 228 * -1;
#X floatatom 682 250 5 0 0 0 - - -, f 5;
#X obj 637 196 / 2;
#X connect 1 0 28 0;
#X connect 2 0 1 0;
#X connect 3 0 4 0;
#X connect 3 0 7 1;
#X connect 4 0 5 0;
#X connect 5 0 6 0;
#X connect 6 0 7 0;
#X connect 6 0 14 0;
#X connect 7 0 27 0;
#X connect 11 0 9 0;
#X connect 12 0 22 0;
#X connect 14 0 8 0;
#X connect 14 0 15 0;
#X connect 15 0 12 0;
#X connect 16 0 11 1;
#X connect 18 0 21 0;
#X connect 19 0 20 0;
#X connect 20 0 21 0;
#X connect 21 0 17 0;
#X connect 22 0 19 0;
#X connect 22 2 30 0;
#X connect 22 3 23 0;
#X connect 23 0 24 0;
#X connect 24 0 26 0;
#X connect 25 0 5 0;
#X connect 26 0 25 0;
#X connect 27 0 11 0;
#X connect 28 0 3 0;
#X connect 29 0 18 0;
#X connect 30 0 29 0;
#X connect 31 0 26 1;
#X connect 31 0 34 0;
#X connect 32 0 33 0;
#X connect 32 0 25 1;
#X connect 34 0 32 0;
#X coords 0 -1 1 1 315 185 1 83 35;
