#N struct structure_01 float x0 float y0 float x1 float y1 float x2
float y2 float x3 float y3 float x4 float y4 float x5 float y5 float
x6 float y6 float x7 float y7;
#N canvas 455 23 1030 956 10;
#N canvas 475 211 450 369 template 0;
#X obj 41 60 struct structure_01 float x0 float y0 float x1 float y1
float x2 float y2 float x3 float y3 float x4 float y4 float x5 float
y5 float x6 float y6 float x7 float y7;
#X obj 62 259 drawpolygon 900 3 x0 y0 x1 y1 x2 y2 x3 y3 x4 y4 x5 y5
x6 y6 x7 y7;
#X obj 47 130 t b;
#X obj 47 152 print;
#X connect 0 0 2 0;
#X connect 2 0 3 0;
#X restore -96 61 pd template;
#N canvas 384 605 720 274 datawindow_01 0;
#X coords 0 5000 14000 0 500 150 2 0 0;
#X restore 411 -37 pd datawindow_01;
#X obj 428 181 pointer;
#X msg 452 143 next;
#X msg 429 116 traverse pd-datawindow_01 \, bang;
#X floatatom 309 480 5 0 0 0 - - -, f 5;
#X floatatom 350 480 5 0 0 0 - - -, f 5;
#X floatatom 396 480 5 0 0 0 - - -, f 5;
#X obj 378 382 pointer;
#X floatatom 375 193 5 1 1000 0 - - -, f 5;
#X obj 375 233 t b f b;
#X obj 384 279 until;
#X msg 384 301 next;
#X obj 416 410 print scalar_out_of_range;
#X obj 322 402 pointer;
#X obj 175 620 set structure_01 x y k;
#X floatatom 173 591 5 0 0 0 - - -, f 5;
#X floatatom 218 592 5 0 0 0 - - -, f 5;
#X floatatom 261 590 5 0 0 0 - - -, f 5;
#X obj 313 583 pointer;
#X msg 336 550 next;
#X msg 313 523 traverse pd-datawindow_01 \, next;
#X msg 428 279 traverse pd-datawindow_01 \, next;
#X msg 153 497 100 100 100;
#X msg 42 286 \; pd-datawindow_01 clear;
#X obj 60 391 6stageOp1int;
#X obj 89 -165 f;
#X obj 140 -164 + 1;
#X obj 50 -253 tgl 15 0 empty empty empty 17 7 0 10 -262144 -1 -1 0
1;
#X obj 88 -199 metro 10;
#X obj -30 -176 sel 17;
#X obj 121 -133 t f f;
#X obj 146 -81 pack;
#X obj 210 -112 tabread 6stagevals;
#X floatatom -5 61 5 0 0 0 - - -, f 5;
#X floatatom 37 81 5 0 0 0 - - -, f 5;
#X obj 31 29 * 2000;
#X obj 16 -2 * 300;
#X floatatom 50 61 5 0 0 0 - - -, f 5;
#X floatatom 78 81 5 0 0 0 - - -, f 5;
#X obj 79 22 * 2000;
#X obj 64 1 * 300;
#X floatatom 95 61 5 0 0 0 - - -, f 5;
#X floatatom 122 81 5 0 0 0 - - -, f 5;
#X obj 123 21 * 2000;
#X obj 108 0 * 300;
#X floatatom 139 61 5 0 0 0 - - -, f 5;
#X floatatom 167 81 5 0 0 0 - - -, f 5;
#X obj 168 21 * 2000;
#X obj 153 0 * 300;
#X floatatom 181 61 5 0 0 0 - - -, f 5;
#X floatatom 208 81 5 0 0 0 - - -, f 5;
#X obj 213 20 * 2000;
#X obj 198 -1 * 300;
#X floatatom 226 61 5 0 0 0 - - -, f 5;
#X floatatom 258 81 5 0 0 0 - - -, f 5;
#X obj 263 18 * 2000;
#X obj 248 -3 * 300;
#X floatatom 268 61 5 0 0 0 - - -, f 5;
#X floatatom 303 81 5 0 0 0 - - -, f 5;
#X obj 308 16 * 2000;
#X obj 293 -5 * 300;
#X floatatom 311 61 5 0 0 0 - - -, f 5;
#X floatatom 348 81 5 0 0 0 - - -, f 5;
#X obj 348 16 * 2000;
#X obj 333 -5 * 300;
#X msg 211 -162 0;
#X msg 19 109 0;
#X obj 157 -226 sel 1;
#X obj 65 -226 t f f;
#X obj 32 -39 route 0 1 2 3 4 5 6 7 8 9 10 11 12 13 14 15 16;
#X obj 7 202 append structure_01 x0 y0 x1 y1 x2 y2 x3 y3 x4 y4 x5 y5
x6 y6 x7 y7;
#X floatatom -45 -27 5 0 0 0 - - -, f 5;
#X floatatom -40 6 5 0 0 0 - - -, f 5;
#X obj 83 149 +;
#X obj 129 151 +;
#X obj 175 149 +;
#X obj 216 148 +;
#X obj 259 151 +;
#X obj 306 147 +;
#X obj 353 148 +;
#X obj 173 -194 t b b;
#N canvas 0 22 450 300 (subpatch) 0;
#X array 6stagevals 17 float 23 #91fcbe black;
#A 0 1 0.482754 0.772411 0.337925 0.565519 0.399999 0.5931 0.855173
0.979313 0.579306 0.358615 1 0.420684 1 0.289659 0.793097 0.820683
;
#X coords 0 1 17 0 442 145 1;
#X restore 437 -193 graph;
#X floatatom 552 178 5 0 0 0 - - -, f 5;
#X floatatom 441 480 5 0 0 0 - - -, f 5;
#X floatatom 482 480 5 0 0 0 - - -, f 5;
#X floatatom 528 480 5 0 0 0 - - -, f 5;
#X floatatom 576 480 5 0 0 0 - - -, f 5;
#X floatatom 617 480 5 0 0 0 - - -, f 5;
#X floatatom 663 480 5 0 0 0 - - -, f 5;
#X floatatom 708 480 5 0 0 0 - - -, f 5;
#X floatatom 749 480 5 0 0 0 - - -, f 5;
#X floatatom 795 480 5 0 0 0 - - -, f 5;
#X floatatom 838 480 5 0 0 0 - - -, f 5;
#X floatatom 884 480 5 0 0 0 - - -, f 5;
#X obj 559 211 set structure_01 y4;
#X msg 463 228 1;
#X obj 379 430 get structure_01 x0 y0 x1 y1 x2 y2 x3 y3 x4 y4 x5 y5
x6 y6 x7 y7, f 59;
#X floatatom 844 517 5 0 0 0 - - -, f 5;
#X floatatom 890 517 5 0 0 0 - - -, f 5;
#X obj 494 335 set structure_01 x0 y0 x1 y1 x2 y2 x3 y3 x4 y4 x5 y5
x6 y6 x7 y7;
#X obj 717 254 s pointer;
#X obj 807 291 r pointer;
#X connect 2 0 71 16;
#X connect 2 0 95 1;
#X connect 2 0 101 0;
#X connect 3 0 2 0;
#X connect 4 0 2 0;
#X connect 8 0 14 1;
#X connect 8 1 13 0;
#X connect 9 0 10 0;
#X connect 10 0 14 0;
#X connect 10 1 11 0;
#X connect 10 2 22 0;
#X connect 11 0 12 0;
#X connect 12 0 8 0;
#X connect 14 0 97 0;
#X connect 16 0 15 0;
#X connect 17 0 15 1;
#X connect 18 0 15 2;
#X connect 19 0 15 3;
#X connect 20 0 19 0;
#X connect 21 0 19 0;
#X connect 22 0 8 0;
#X connect 23 0 15 0;
#X connect 26 0 27 0;
#X connect 26 0 31 0;
#X connect 27 0 26 1;
#X connect 28 0 69 0;
#X connect 29 0 26 0;
#X connect 30 0 28 0;
#X connect 30 0 66 0;
#X connect 30 0 67 0;
#X connect 31 0 30 0;
#X connect 31 0 32 0;
#X connect 31 1 33 0;
#X connect 32 0 70 0;
#X connect 33 0 32 1;
#X connect 36 0 35 0;
#X connect 36 0 71 2;
#X connect 36 0 74 1;
#X connect 37 0 34 0;
#X connect 37 0 71 1;
#X connect 40 0 39 0;
#X connect 40 0 74 0;
#X connect 41 0 38 0;
#X connect 41 0 71 3;
#X connect 44 0 43 0;
#X connect 44 0 75 0;
#X connect 45 0 42 0;
#X connect 45 0 71 5;
#X connect 48 0 47 0;
#X connect 48 0 76 0;
#X connect 49 0 46 0;
#X connect 49 0 71 7;
#X connect 52 0 51 0;
#X connect 52 0 77 0;
#X connect 53 0 50 0;
#X connect 53 0 71 9;
#X connect 56 0 55 0;
#X connect 56 0 78 0;
#X connect 57 0 54 0;
#X connect 57 0 71 11;
#X connect 60 0 59 0;
#X connect 60 0 79 0;
#X connect 61 0 58 0;
#X connect 61 0 71 13;
#X connect 64 0 63 0;
#X connect 64 0 80 0;
#X connect 65 0 62 0;
#X connect 65 0 71 15;
#X connect 66 0 26 1;
#X connect 67 0 71 0;
#X connect 68 0 81 0;
#X connect 69 0 29 0;
#X connect 69 1 68 0;
#X connect 70 0 37 0;
#X connect 70 1 36 0;
#X connect 70 2 41 0;
#X connect 70 3 40 0;
#X connect 70 4 45 0;
#X connect 70 5 44 0;
#X connect 70 6 49 0;
#X connect 70 7 48 0;
#X connect 70 8 53 0;
#X connect 70 9 52 0;
#X connect 70 10 57 0;
#X connect 70 11 56 0;
#X connect 70 12 61 0;
#X connect 70 13 60 0;
#X connect 70 14 65 0;
#X connect 70 15 64 0;
#X connect 72 0 37 1;
#X connect 72 0 65 1;
#X connect 72 0 61 1;
#X connect 72 0 57 1;
#X connect 72 0 53 1;
#X connect 72 0 49 1;
#X connect 72 0 45 1;
#X connect 72 0 41 1;
#X connect 73 0 36 1;
#X connect 73 0 64 1;
#X connect 73 0 60 1;
#X connect 73 0 56 1;
#X connect 73 0 52 1;
#X connect 73 0 48 1;
#X connect 73 0 44 1;
#X connect 73 0 40 1;
#X connect 74 0 71 4;
#X connect 74 0 75 1;
#X connect 75 0 71 6;
#X connect 75 0 76 1;
#X connect 76 0 71 8;
#X connect 76 0 77 1;
#X connect 77 0 71 10;
#X connect 77 0 78 1;
#X connect 78 0 71 12;
#X connect 78 0 79 1;
#X connect 79 0 71 14;
#X connect 79 0 80 1;
#X connect 80 0 71 16;
#X connect 81 0 4 0;
#X connect 81 1 24 0;
#X connect 83 0 95 0;
#X connect 96 0 10 0;
#X connect 97 0 5 0;
#X connect 97 1 6 0;
#X connect 97 2 7 0;
#X connect 97 3 84 0;
#X connect 97 4 85 0;
#X connect 97 5 86 0;
#X connect 97 6 87 0;
#X connect 97 7 88 0;
#X connect 97 8 89 0;
#X connect 97 9 90 0;
#X connect 97 10 91 0;
#X connect 97 11 92 0;
#X connect 97 12 93 0;
#X connect 97 13 94 0;
#X connect 97 14 98 0;
#X connect 97 15 99 0;
#X connect 102 0 100 16;
