#N canvas 83 44 1750 1012 10;
#N canvas 303 100 1209 892 presets 0;
#X obj 8 -297 cnv 15 320 180 empty empty empty 20 12 0 14 -261234 -66577
0;
#X obj 8 -107 cnv 15 320 350 empty empty empty 20 12 0 14 -204786 -66577
0;
#X obj 18 123 textfile;
#X obj 18 33 until;
#X msg 18 203 \; \$1-\$2.r \$3 \;;
#X obj 18 -97 r \$0-load.s;
#X obj 18 163 list prepend \$0;
#X obj 18 183 list trim;
#X obj 18 -287 r \$0-save.s;
#X obj 18 -77 openpanel;
#X obj 18 60 s \$0-to.textfile;
#X obj 18 -157 s \$0-to.textfile;
#X obj 63 143 s \$0-stop.loop;
#X obj 45 13 r \$0-stop.loop;
#X obj 18 103 r \$0-to.textfile;
#X msg 37 -37 read \$1 \, rewind;
#X msg 148 -20 label \$1;
#X obj 18 -57 t b s s;
#X msg 52 -227 clear;
#X obj 148 0 s \$0-preset.name.r;
#X obj 18 -267 savepanel;
#X msg 158 -230 write \$1;
#X msg 18 -187 write \$1;
#X obj 18 -247 t s b b s;
#X obj 148 -80 loadbang;
#X text 517 -198 SEND: \$0-<parameter_name>.s;
#X text 517 -178 RECEIVE: \$0-<parameter_name>.r;
#X obj 148 -60 symbol no_preset_loaded;
#X obj 148 -40 makefilename PRESET_FILE:%s;
#X text 517 -288 In order for a parameter that is in the parent patch
to be saved in the preset file \, here there needs to be a 'save.param'
abstraction with the name of that parameter as the second argument
(whilst the first argument is always \$0). The send and receive symbols
for each parameter must be formated in this way:;
#X obj 35 -207 s \$0-get.values;
#X text 517 -148 With this method you still have to create a new 'save.param'
abstraction for every parameter to be saved in the presets \, but at
least there is no need to patch all the send and receives.;
#X obj 96 -100 r loadpreset;
#X obj 95 -287 r savepreset;
#X obj 209 110 print file;
#X obj 18 -9 delay 2;
#X obj 95 308 print loadstuff;
#X connect 2 0 6 0;
#X connect 2 1 12 0;
#X connect 3 0 10 0;
#X connect 5 0 9 0;
#X connect 6 0 7 0;
#X connect 7 0 4 0;
#X connect 7 0 36 0;
#X connect 8 0 20 0;
#X connect 9 0 17 0;
#X connect 9 0 34 0;
#X connect 13 0 3 1;
#X connect 14 0 2 0;
#X connect 15 0 10 0;
#X connect 16 0 19 0;
#X connect 17 0 35 0;
#X connect 17 1 15 0;
#X connect 17 2 28 0;
#X connect 18 0 11 0;
#X connect 20 0 23 0;
#X connect 21 0 11 0;
#X connect 22 0 11 0;
#X connect 23 0 22 0;
#X connect 23 1 30 0;
#X connect 23 2 18 0;
#X connect 23 3 21 0;
#X connect 24 0 27 0;
#X connect 27 0 28 0;
#X connect 28 0 16 0;
#X connect 32 0 17 0;
#X connect 33 0 23 0;
#X connect 35 0 3 0;
#X restore 87 84 pd presets;
#X obj 1320 302 bng 20 250 50 0 \$0-save.s \$0-save.r save 21 7 0 10
-261234 -1 -1;
#X obj 1320 277 bng 20 250 50 0 \$0-load.s \$0-load.r load 21 7 0 10
-204786 -1 -1;
#X obj 87 110 presetloader;
#X obj 12 249 s resetpoly;
#X obj 12 227 bng 15 250 50 0 empty empty empty 17 7 0 10 -262144 -1
-1;
#X msg 6 182 \; pd dsp 1;
#X msg 8 131 \; pd dsp 0;
#N canvas 353 302 1567 712 engine 0;
#X obj 171 50 inlet;
#X floatatom 154 162 5 0 0 0 - - -, f 5;
#X floatatom 195 163 5 0 0 0 - - -, f 5;
#X floatatom 237 162 5 0 0 0 - - -, f 5;
#X obj 159 185 pack 0 0 0;
#X msg 110 392 4095;
#X msg 281 88 clear;
#X msg 236 87 stop;
#X obj 117 473 voice1;
#X obj 205 474 voice2;
#X obj 298 471 voice3;
#X obj 391 470 voice4;
#X obj 102 355 loadbang;
#X obj 318 168 +;
#X obj 235 27 r resetpoly;
#X obj 121 229 bng 15 250 50 0 empty empty empty 17 7 0 10 -262144
-1 -1;
#X obj 167 229 bng 15 250 50 0 empty empty empty 17 7 0 10 -262144
-1 -1;
#X obj 217 229 bng 15 250 50 0 empty empty empty 17 7 0 10 -262144
-1 -1;
#X obj 259 229 bng 15 250 50 0 empty empty empty 17 7 0 10 -262144
-1 -1;
#X obj 124 96 notein;
#X obj 299 229 bng 15 250 50 0 empty empty empty 17 7 0 10 -262144
-1 -1;
#X obj 345 229 bng 15 250 50 0 empty empty empty 17 7 0 10 -262144
-1 -1;
#X obj 178 196 route 1 2 3 4 5 6;
#X obj 164 126 poly 6 1;
#X obj 494 469 voice5;
#X obj 595 470 voice6;
#X obj 254 50 t b b;
#X obj 319 144 r transpose;
#X obj 787 269 *~;
#X floatatom 819 263 5 0 0 0 - - -, f 5;
#X obj 784 224 osc~ 0.03;
#X obj 859 81 s osc2pitch;
#X obj 1121 60 s porta;
#X floatatom 864 59 5 0 0 0 - - -, f 5;
#X floatatom 475 56 5 0 0 0 - - -, f 5;
#X obj 475 34 r \$0-6stage1Op16.s;
#X obj 474 79 s osc1vel;
#X floatatom 603 56 5 0 0 0 - - -, f 5;
#X obj 603 34 r \$0-6stage2Op16.s;
#X obj 602 79 s osc2vel;
#X floatatom 734 61 5 0 0 0 - - -, f 5;
#X obj 734 80 s osc1pitch;
#X obj 744 -24 loadbang;
#X msg 743 -5 2;
#X floatatom 1050 41 5 0 0 0 - - -, f 5;
#X obj 1403 40 s mastervol;
#X floatatom 1402 64 5 0 0 0 - - -, f 5;
#X obj 992 18 r \$0-6stagefilt16.s;
#X obj 991 62 * 4095;
#X obj 1248 131 s valuedisp;
#X floatatom 1250 42 5 0 0 0 - - -, f 5;
#X obj 1254 16 r \$0-transpose0.s;
#X obj 1249 107 s transpose;
#X obj 1252 60 * 24;
#X floatatom 1250 85 5 0 0 0 - - -, f 5;
#X obj 862 19 r \$0-osc2pitch1.s;
#X obj 734 17 r \$0-osc1pitch1.s;
#X obj 734 39 * 24;
#X obj 862 41 * 24;
#X obj 1402 18 r \$0-outlev1.s;
#X obj 1121 16 r \$0-portamento1.s;
#X obj 1121 38 * 3000;
#X floatatom 1122 85 5 0 0 0 - - -, f 5;
#X floatatom 785 195 5 0 0 0 - - -, f 5;
#X obj 851 301 line 0 5;
#X obj 787 303 *~;
#X obj 772 341 +~;
#X obj 785 173 r \$1-lfo11.s;
#X obj 109 259 2op \$0;
#X obj 168 259 2op \$0;
#X obj 218 259 2op \$0;
#X obj 262 259 2op \$0;
#X obj 311 260 2op \$0;
#X obj 364 260 2op \$0;
#X obj 197 589 print res;
#X obj 989 92 s resonance;
#X obj 182 351 r resonance;
#X obj 190 383 change;
#X obj 1000 144 f;
#X obj 1036 133 t b;
#X obj 1036 155 delay 1000;
#X connect 0 0 23 0;
#X connect 4 0 22 0;
#X connect 5 0 8 0;
#X connect 5 0 11 0;
#X connect 5 0 9 0;
#X connect 5 0 10 0;
#X connect 5 0 24 0;
#X connect 5 0 25 0;
#X connect 6 0 23 0;
#X connect 7 0 23 0;
#X connect 13 0 4 1;
#X connect 13 0 2 0;
#X connect 14 0 26 0;
#X connect 19 0 23 0;
#X connect 19 1 23 1;
#X connect 22 0 15 0;
#X connect 22 0 68 0;
#X connect 22 1 16 0;
#X connect 22 1 69 0;
#X connect 22 2 17 0;
#X connect 22 2 70 0;
#X connect 22 3 18 0;
#X connect 22 3 71 0;
#X connect 22 4 20 0;
#X connect 22 4 72 0;
#X connect 22 5 21 0;
#X connect 22 5 73 0;
#X connect 23 0 1 0;
#X connect 23 0 4 0;
#X connect 23 1 13 0;
#X connect 23 2 3 0;
#X connect 23 2 4 2;
#X connect 26 0 6 0;
#X connect 26 1 7 0;
#X connect 27 0 13 1;
#X connect 28 0 65 0;
#X connect 29 0 28 1;
#X connect 30 0 28 0;
#X connect 35 0 34 0;
#X connect 35 0 36 0;
#X connect 38 0 37 0;
#X connect 38 0 39 0;
#X connect 42 0 43 0;
#X connect 43 0 41 0;
#X connect 43 0 31 0;
#X connect 47 0 44 0;
#X connect 47 0 78 1;
#X connect 47 0 79 0;
#X connect 48 0 75 0;
#X connect 50 0 53 0;
#X connect 51 0 50 0;
#X connect 53 0 54 0;
#X connect 53 0 52 0;
#X connect 53 0 49 0;
#X connect 55 0 58 0;
#X connect 56 0 57 0;
#X connect 57 0 41 0;
#X connect 57 0 40 0;
#X connect 58 0 33 0;
#X connect 58 0 31 0;
#X connect 59 0 45 0;
#X connect 59 0 46 0;
#X connect 60 0 61 0;
#X connect 61 0 32 0;
#X connect 61 0 62 0;
#X connect 64 0 65 1;
#X connect 65 0 66 1;
#X connect 67 0 63 0;
#X connect 67 0 30 0;
#X connect 68 0 8 3;
#X connect 68 1 8 2;
#X connect 68 2 8 0;
#X connect 69 0 9 3;
#X connect 69 1 9 2;
#X connect 69 2 9 0;
#X connect 70 0 10 3;
#X connect 70 1 10 2;
#X connect 70 2 10 0;
#X connect 71 0 11 3;
#X connect 71 1 11 2;
#X connect 71 2 11 0;
#X connect 72 0 24 3;
#X connect 72 1 24 2;
#X connect 72 2 24 0;
#X connect 73 0 25 3;
#X connect 73 1 25 2;
#X connect 73 2 25 0;
#X connect 76 0 77 0;
#X connect 77 0 8 1;
#X connect 77 0 10 1;
#X connect 77 0 9 1;
#X connect 77 0 24 1;
#X connect 77 0 25 1;
#X connect 77 0 11 1;
#X connect 77 0 74 0;
#X connect 78 0 48 0;
#X connect 79 0 80 0;
#X connect 80 0 78 0;
#X restore 13 97 pd engine;
#X obj 15 73 inlet;
#N canvas 702 355 944 611 routing 0;
#X obj 238 -200 ctlin 2 1;
#X obj 240 -160 line;
#X msg 240 -184 \$1 10;
#X obj 301 -196 ctlin 19 1;
#X obj 305 -160 line;
#X msg 304 -179 \$1 10;
#X obj 376 -205 ctlin 74 1;
#X obj 80 -187 ctlin 80 1;
#X obj 88 -162 ctlin 16 1;
#X obj 373 -181 s \$0-osc2pitch.r;
#X obj 87 -140 s \$0-porta.r;
#X floatatom -1 -139 5 0 0 0 - - -, f 5;
#X obj 2 -187 ctlin 71 1;
#X obj 1 -161 s osc1pitch;
#X obj 206 -132 table system 20;
#X connect 0 0 2 0;
#X connect 2 0 1 0;
#X connect 3 0 5 0;
#X connect 5 0 4 0;
#X connect 6 0 9 0;
#X connect 8 0 10 0;
#X connect 12 0 11 0;
#X connect 12 0 13 0;
#X restore 7 278 pd routing;
#X obj 788 -2 Envelope6Brain F 6stagefilt \$0 10 11;
#X text -2 315 \$1name \$2pageno \$3encoderno \$4min \$5max \$6tablepname
\$7tableno \$0 \$9pagelink \$10encoderlink, f 13;
#X obj 793 207 lfosy77 lfo1 lfo1 \$0 30 30;
#X obj 1087 206 mastercontrols master master \$0;
#X obj 188 207 Envelope6Brain C 6stage1Op \$0 0 1;
#X obj 188 -2 Envelope6Brain M 6stage2Op \$0 2 3;
#X connect 5 0 4 0;
#X connect 9 0 8 0;
#X coords 0 -1 1 1 1202 423 1 185 -6;
