#N canvas 230 130 1582 836 10;
#X obj 815 111 vsl 15 128 0 2 0 0 \$0-outlev.s \$0-outlev.r empty 0
-9 0 10 -261078 -1 -1 4850 1;
#X obj 913 360 vsl 15 128 0 1e+07 0 0 \$0-lfo1rate.s \$0-lfo1rate.r
empty 0 -9 0 10 -187648 -1 -1 0 1;
#X obj 947 360 vsl 15 128 0 20000 0 0 \$0-lfo1amt.s \$0-lfo1amt.r empty
0 -9 0 10 -187648 -1 -1 0 1;
#X floatatom 947 334 10 0 0 0 - #0-lfo1amt.r #0-lfo1amt.s, f 10;
#X floatatom 878 334 10 0 0 0 - #0-lfo1rate.r #0-lfo1rate.s, f 10
;
#X obj 1032 359 vsl 15 128 0 1e+07 0 0 empty empty empty 0 -9 0 10
-187968 -1 -1 0 1;
#X obj 1066 359 vsl 15 128 -64 1000 0 0 empty empty empty 0 -9 0 10
-187968 -1 -1 0 1;
#X floatatom 1070 334 5 0 0 0 - - -, f 5;
#X floatatom 1031 334 5 0 0 0 - - -, f 5;
#X obj 1100 359 vsl 15 128 0 1e+07 0 0 empty empty empty 0 -9 0 10
-188096 -1 -1 0 1;
#X obj 1134 359 vsl 15 128 0 20000 0 0 empty empty empty 0 -9 0 10
-188096 -1 -1 0 1;
#X floatatom 1138 334 5 0 0 0 - - -, f 5;
#X floatatom 1102 334 5 0 0 0 - - -, f 5;
#X obj 1044 515 s lfo2rate;
#X obj 1114 515 s lfo3rate;
#X obj 921 580 *~;
#X obj 922 612 send~ pitchlfo;
#X floatatom 989 589 5 0 0 0 - - -, f 5;
#X obj 969 556 * 0.2;
#X obj 907 555 osc~ 10;
#X floatatom 743 159 5 0 0 0 - #0-osc2pitch.r #0-osc2pitch.s, f 5
;
#X obj 1060 567 s lfo2amt;
#X obj 1127 567 s lfo3amt;
#X floatatom 742 199 5 0 0 0 - #0-porta.r #0-porta.s, f 5;
#X obj 1381 264 s resonance;
#X obj 1383 97 vsl 19 155 0 4095 0 0 \$0-resonance.s \$0-resonance.r
empty 0 -9 0 10 -262144 -1 -1 13655 1;
#N canvas 321 208 1209 800 presets 0;
#X obj 8 -297 cnv 15 320 180 empty empty empty 20 12 0 14 -261234 -66577
0;
#X obj 8 -107 cnv 15 320 350 empty empty empty 20 12 0 14 -204786 -66577
0;
#X obj 18 123 textfile;
#X obj 18 33 until;
#X msg 18 203 \; \$1-\$2.r \$3 \;;
#X obj 18 -97 r \$0-load.s;
#X obj 18 163 list prepend \$0;
#X obj 18 183 list trim;
#X obj 18 -287 r \$0-save.s;
#X obj 18 -77 openpanel;
#X obj 18 60 s \$0-to.textfile;
#X obj 18 -157 s \$0-to.textfile;
#X obj 63 143 s \$0-stop.loop;
#X obj 45 13 r \$0-stop.loop;
#X obj 18 103 r \$0-to.textfile;
#X msg 37 -37 read \$1 \, rewind;
#X msg 148 -20 label \$1;
#X obj 18 -57 t b s s;
#X msg 52 -227 clear;
#X obj 148 0 s \$0-preset.name.r;
#X obj 18 -267 savepanel;
#X msg 158 -230 write \$1;
#X msg 18 -187 write \$1;
#X obj 18 -247 t s b b s;
#X obj 148 -80 loadbang;
#X text 517 -198 SEND: \$0-<parameter_name>.s;
#X text 517 -178 RECEIVE: \$0-<parameter_name>.r;
#X obj 148 -60 symbol no_preset_loaded;
#X obj 148 -40 makefilename PRESET_FILE:%s;
#X text 517 -288 In order for a parameter that is in the parent patch
to be saved in the preset file \, here there needs to be a 'save.param'
abstraction with the name of that parameter as the second argument
(whilst the first argument is always \$0). The send and receive symbols
for each parameter must be formated in this way:;
#X obj 35 -207 s \$0-get.values;
#X text 517 -148 With this method you still have to create a new 'save.param'
abstraction for every parameter to be saved in the presets \, but at
least there is no need to patch all the send and receives.;
#X obj 348 -287 save.param \$0 6stage1Op0;
#X obj 349 -267 save.param \$0 6stage1Op1;
#X obj 348 -247 save.param \$0 6stage1Op2;
#X obj 349 -227 save.param \$0 6stage1Op3;
#X obj 347 -207 save.param \$0 6stage1Op4;
#X obj 347 -187 save.param \$0 6stage1Op5;
#X obj 347 -167 save.param \$0 6stage1Op6;
#X obj 347 -147 save.param \$0 6stage1Op7;
#X obj 347 -127 save.param \$0 6stage1Op8;
#X obj 347 -107 save.param \$0 6stage1Op9;
#X obj 347 -87 save.param \$0 6stage1Op10;
#X obj 347 -67 save.param \$0 6stage1Op11;
#X obj 346 -47 save.param \$0 6stage1Op12;
#X obj 348 -26 save.param \$0 6stage1Op13;
#X obj 346 -7 save.param \$0 6stage1Op14;
#X obj 346 13 save.param \$0 6stage1Op15;
#X obj 346 33 save.param \$0 6stage1Op16;
#X obj 348 59 save.param \$0 6stage2Op0;
#X obj 349 79 save.param \$0 6stage2Op1;
#X obj 348 99 save.param \$0 6stage2Op2;
#X obj 349 119 save.param \$0 6stage2Op3;
#X obj 347 139 save.param \$0 6stage2Op4;
#X obj 347 159 save.param \$0 6stage2Op5;
#X obj 347 179 save.param \$0 6stage2Op6;
#X obj 347 199 save.param \$0 6stage2Op7;
#X obj 347 219 save.param \$0 6stage2Op8;
#X obj 347 239 save.param \$0 6stage2Op9;
#X obj 347 259 save.param \$0 6stage2Op10;
#X obj 347 279 save.param \$0 6stage2Op11;
#X obj 346 299 save.param \$0 6stage2Op12;
#X obj 348 320 save.param \$0 6stage2Op13;
#X obj 346 339 save.param \$0 6stage2Op14;
#X obj 346 359 save.param \$0 6stage2Op15;
#X obj 346 379 save.param \$0 6stage2Op16;
#X obj 527 -70 save.param \$0 6stagefilt0;
#X obj 528 -50 save.param \$0 6stagefilt1;
#X obj 527 -30 save.param \$0 6stagefilt2;
#X obj 528 -10 save.param \$0 6stagefilt3;
#X obj 526 10 save.param \$0 6stagefilt4;
#X obj 526 30 save.param \$0 6stagefilt5;
#X obj 526 50 save.param \$0 6stagefilt6;
#X obj 526 70 save.param \$0 6stagefilt7;
#X obj 526 90 save.param \$0 6stagefilt8;
#X obj 526 110 save.param \$0 6stagefilt9;
#X obj 526 130 save.param \$0 6stagefilt10;
#X obj 526 150 save.param \$0 6stagefilt11;
#X obj 525 170 save.param \$0 6stagefilt12;
#X obj 527 191 save.param \$0 6stagefilt13;
#X obj 525 210 save.param \$0 6stagefilt14;
#X obj 525 230 save.param \$0 6stagefilt15;
#X obj 525 250 save.param \$0 6stagefilt16;
#X obj 726 -69 save.param \$0 osc2pitch;
#X obj 730 -29 save.param \$0 porta;
#X obj 728 -10 save.param \$0 lfo1amt;
#X obj 728 10 save.param \$0 lfo1rate;
#X obj 729 75 save.param \$0 resonance;
#X obj 96 -100 r loadpreset;
#X obj 95 -287 r savepreset;
#X obj 209 110 print file;
#X obj 720 -96 save.param \$0 osc1pitch;
#X obj 727 123 save.param \$0 transpose;
#X obj 731 148 save.param \$0 outlev;
#X obj 18 -9 delay 2;
#X connect 2 0 6 0;
#X connect 2 1 12 0;
#X connect 3 0 10 0;
#X connect 5 0 9 0;
#X connect 6 0 7 0;
#X connect 7 0 4 0;
#X connect 8 0 20 0;
#X connect 9 0 17 0;
#X connect 9 0 90 0;
#X connect 13 0 3 1;
#X connect 14 0 2 0;
#X connect 15 0 10 0;
#X connect 16 0 19 0;
#X connect 17 0 94 0;
#X connect 17 1 15 0;
#X connect 17 2 28 0;
#X connect 18 0 11 0;
#X connect 20 0 23 0;
#X connect 21 0 11 0;
#X connect 22 0 11 0;
#X connect 23 0 22 0;
#X connect 23 1 30 0;
#X connect 23 2 18 0;
#X connect 23 3 21 0;
#X connect 24 0 27 0;
#X connect 27 0 28 0;
#X connect 28 0 16 0;
#X connect 88 0 17 0;
#X connect 89 0 23 0;
#X connect 94 0 3 0;
#X restore 33 86 pd presets;
#X obj 62 58 bng 20 250 50 0 \$0-save.s \$0-save.r save 35 7 0 10 -261234
-1 -1;
#X obj 12 58 bng 20 250 50 0 \$0-load.s \$0-load.r load 22 7 0 10 -204786
-1 -1;
#X obj 265 94 vsl 21 155 0 1 0 0 \$0-6stage1Op0.s \$0-6stage1Op0.r
empty 0 0 0 4 -260033 -262144 -262144 15400 0;
#X obj 291 95 vsl 21 155 0 1 0 0 \$0-6stage1Op1.s \$0-6stage1Op1.r
empty 0 0 0 4 -63617 -1 -262144 3900 0;
#X obj 317 94 vsl 21 155 0 1 0 0 \$0-6stage1Op2.s \$0-6stage1Op2.r
empty 0 0 0 4 -183361 -262144 -262144 15400 0;
#X obj 344 94 vsl 21 155 0 1 0 0 \$0-6stage1Op3.s \$0-6stage1Op3.r
empty 0 0 0 4 -63617 -1 -262144 4100 0;
#X obj 370 94 vsl 21 155 0 1 0 0 \$0-6stage1Op4.s \$0-6stage1Op4.r
empty 0 0 0 4 -183361 -262144 -262144 15400 0;
#X obj 397 94 vsl 21 155 0 1 0 0 \$0-6stage1Op5.s \$0-6stage1Op5.r
empty 0 0 0 4 -63617 -1 -262144 2100 0;
#X obj 423 94 vsl 21 155 0 1 0 0 \$0-6stage1Op6.s \$0-6stage1Op6.r
empty 0 0 0 4 -183361 -262144 -262144 15400 0;
#X obj 450 94 vsl 21 155 0 1 0 0 \$0-6stage1Op7.s \$0-6stage1Op7.r
empty 0 0 0 4 -63617 -1 -262144 0 0;
#X obj 476 94 vsl 21 155 0 1 0 0 \$0-6stage1Op8.s \$0-6stage1Op8.r
empty 0 0 0 4 -183361 -262144 -262144 15400 0;
#X obj 503 94 vsl 21 155 0 1 0 0 \$0-6stage1Op9.s \$0-6stage1Op9.r
empty 0 0 0 4 -63617 -1 -262144 4400 0;
#X obj 529 94 vsl 21 155 0 1 0 0 \$0-6stage1Op10.s \$0-6stage1Op10.r
empty 0 0 0 4 -183361 -262144 -262144 15400 0;
#X obj 556 94 vsl 21 155 0 1 0 0 \$0-6stage1Op11.s \$0-6stage1Op11.r
empty 0 0 0 4 -63617 -1 -262144 3700 0;
#X obj 582 94 vsl 21 155 0 1 0 0 \$0-6stage1Op12.s \$0-6stage1Op12.r
empty 0 0 0 4 -183361 -262144 -262144 15400 0;
#X obj 609 94 vsl 21 155 0 1 0 0 \$0-6stage1Op13.s \$0-6stage1Op13.r
empty 0 0 0 4 -63617 -1 -262144 400 0;
#X obj 635 94 vsl 21 155 0 1 0 0 \$0-6stage1Op14.s \$0-6stage1Op14.r
empty 0 0 0 4 -262144 -1 -262144 0 0;
#X obj 662 94 vsl 21 155 0 1 0 0 \$0-6stage1Op15.s \$0-6stage1Op15.r
empty 0 0 0 4 -262144 -1 -262144 13500 0;
#X obj 688 94 vsl 21 155 0 1 0 0 \$0-6stage1Op16.s \$0-6stage1Op16.r
empty 0 0 0 4 -262081 -262144 -262144 0 0;
#X obj 264 334 vsl 21 155 0 1 0 0 \$0-6stage2Op0.s \$0-6stage2Op0.r
empty 0 0 0 4 -260033 -262144 -262144 3200 0;
#X obj 290 334 vsl 21 155 0 1 0 0 \$0-6stage2Op1.s \$0-6stage2Op1.r
empty 0 0 0 4 -63617 -1 -262144 3000 0;
#X obj 316 334 vsl 21 155 0 1 0 0 \$0-6stage2Op2.s \$0-6stage2Op2.r
empty 0 0 0 4 -183361 -262144 -262144 1000 0;
#X obj 343 334 vsl 21 155 0 1 0 0 \$0-6stage2Op3.s \$0-6stage2Op3.r
empty 0 0 0 4 -63617 -1 -262144 2800 0;
#X obj 369 334 vsl 21 155 0 1 0 0 \$0-6stage2Op4.s \$0-6stage2Op4.r
empty 0 0 0 4 -183361 -262144 -262144 0 0;
#X obj 396 334 vsl 21 155 0 1 0 0 \$0-6stage2Op5.s \$0-6stage2Op5.r
empty 0 0 0 4 -63617 -1 -262144 0 0;
#X obj 422 334 vsl 21 155 0 1 0 0 \$0-6stage2Op6.s \$0-6stage2Op6.r
empty 0 0 0 4 -183361 -262144 -262144 1300 0;
#X obj 449 334 vsl 21 155 0 1 0 0 \$0-6stage2Op7.s \$0-6stage2Op7.r
empty 0 0 0 4 -63617 -1 -262144 2800 0;
#X obj 475 334 vsl 21 155 0 1 0 0 \$0-6stage2Op8.s \$0-6stage2Op8.r
empty 0 0 0 4 -183361 -262144 -262144 1400 0;
#X obj 502 334 vsl 21 155 0 1 0 0 \$0-6stage2Op9.s \$0-6stage2Op9.r
empty 0 0 0 4 -63617 -1 -262144 2600 0;
#X obj 528 334 vsl 21 155 0 1 0 0 \$0-6stage2Op10.s \$0-6stage2Op10.r
empty 0 0 0 4 -183361 -262144 -262144 0 0;
#X obj 555 334 vsl 21 155 0 1 0 0 \$0-6stage2Op11.s \$0-6stage2Op11.r
empty 0 0 0 4 -63617 -1 -262144 0 0;
#X obj 581 334 vsl 21 155 0 1 0 0 \$0-6stage2Op12.s \$0-6stage2Op12.r
empty 0 0 0 4 -183361 -262144 -262144 8900 0;
#X obj 608 334 vsl 21 155 0 1 0 0 \$0-6stage2Op13.s \$0-6stage2Op13.r
empty 0 0 0 4 -63617 -1 -262144 5400 0;
#X obj 634 334 vsl 21 155 0 1 0 0 \$0-6stage2Op14.s \$0-6stage2Op14.r
empty 0 0 0 4 -262144 -1 -262144 0 0;
#X obj 661 334 vsl 21 155 0 1 0 0 \$0-6stage2Op15.s \$0-6stage2Op15.r
empty 0 0 0 4 -262144 -1 -262144 4200 0;
#X obj 687 333 vsl 21 155 0 1 0 0 \$0-6stage2Op16.s \$0-6stage2Op16.r
empty 0 0 0 4 -262081 -262144 -262144 1595 0;
#X text 266 253 init;
#X text 296 253 T1;
#X text 398 253 T3;
#X text 449 253 T4;
#X text 504 253 T5;
#X text 560 253 T6;
#X text 323 253 L1;
#X text 372 253 L2;
#X text 348 253 T2;
#X text 477 253 L4;
#X text 529 253 L5;
#X text 583 253 L6;
#X text 614 253 R;
#X text 632 253 strt;
#X text 663 253 end;
#X text 687 253 vel;
#X text 424 253 L3;
#X obj 905 97 vsl 21 155 0 1 0 0 \$0-6stagefilt0.s \$0-6stagefilt0.r
empty 0 0 0 4 -216599 -1 -1 10105 0;
#X obj 931 97 vsl 21 155 0 1 0 0 \$0-6stagefilt1.s \$0-6stagefilt1.r
empty 0 0 0 4 -166658 -1 -1 11599 0;
#X obj 957 97 vsl 21 155 0 1 0 0 \$0-6stagefilt2.s \$0-6stagefilt2.r
empty 0 0 0 4 -216599 -1 -1 4600 0;
#X obj 984 97 vsl 21 155 0 1 0 0 \$0-6stagefilt3.s \$0-6stagefilt3.r
empty 0 0 0 4 -166660 -1 -1 2800 0;
#X obj 1010 97 vsl 21 155 0 1 0 0 \$0-6stagefilt4.s \$0-6stagefilt4.r
empty 0 0 0 4 -216599 -1 -1 15100 0;
#X obj 1037 97 vsl 21 155 0 1 0 0 \$0-6stagefilt5.s \$0-6stagefilt5.r
empty 0 0 0 4 -166662 -1 -1 1600 0;
#X obj 1063 97 vsl 21 155 0 1 0 0 \$0-6stagefilt6.s \$0-6stagefilt6.r
empty 0 0 0 4 -216599 -1 -1 0 0;
#X obj 1090 97 vsl 21 155 0 1 0 0 \$0-6stagefilt7.s \$0-6stagefilt7.r
empty 0 0 0 4 -166664 -1 -1 0 0;
#X obj 1116 97 vsl 21 155 0 1 0 0 \$0-6stagefilt8.s \$0-6stagefilt8.r
empty 0 0 0 4 -216599 -1 -1 12400 0;
#X obj 1143 97 vsl 21 155 0 1 0 0 \$0-6stagefilt9.s \$0-6stagefilt9.r
empty 0 0 0 4 -166666 -1 -1 2200 0;
#X obj 1169 97 vsl 21 155 0 1 0 0 \$0-6stagefilt10.s \$0-6stagefilt10.r
empty 0 0 0 4 -216599 -1 -1 3400 0;
#X obj 1196 97 vsl 21 155 0 1 0 0 \$0-6stagefilt11.s \$0-6stagefilt11.r
empty 0 0 0 4 -166668 -1 -1 3400 0;
#X obj 1222 97 vsl 21 155 0 1 0 0 \$0-6stagefilt12.s \$0-6stagefilt12.r
empty 0 0 0 4 -216599 -1 -1 13600 0;
#X obj 1249 97 vsl 21 155 0 1 0 0 \$0-6stagefilt13.s \$0-6stagefilt13.r
empty 0 0 0 4 -108358 -1 -1 3 0;
#X obj 1275 97 vsl 21 155 0 1 0 0 \$0-6stagefilt14.s \$0-6stagefilt14.r
empty 0 0 0 4 -166671 -1 -1 600 0;
#X obj 1302 97 vsl 21 155 0 1 0 0 \$0-6stagefilt15.s \$0-6stagefilt15.r
empty 0 0 0 4 -166672 -1 -1 15400 0;
#X obj 1328 97 vsl 21 155 0 1 0 0 \$0-6stagefilt16.s \$0-6stagefilt16.r
empty 0 0 0 4 -166673 -1 -1 10800 0;
#N canvas 0 49 1920 1002 6stage2Op 0;
#X obj 866 -791 r \$0-6stage2Op5.s;
#X obj 892 -768 r \$0-6stage2Op6.s;
#X obj 920 -748 r \$0-6stage2Op7.s;
#X obj 940 -720 r \$0-6stage2Op8.s;
#X obj 964 -697 r \$0-6stage2Op9.s;
#X obj 984 -674 r \$0-6stage2Op10.s;
#X obj 1006 -650 r \$0-6stage2Op11.s;
#X obj 1035 -626 r \$0-6stage2Op12.s;
#X obj 1055 -604 r \$0-6stage2Op13.s;
#X obj 1103 -555 r \$0-6stage2Op15.s;
#X obj 1124 -527 r \$0-6stage2Op16.s;
#X obj 1079 -580 r \$0-6stage2Op14.s;
#N canvas 0 22 450 300 (subpatch) 0;
#X array 6stageOp2 17 float 23 #91fcbe black;
#A 0 0.207792 0.194805 0.0649351 0.181818 0 0 0.0844156 0.181818 0.0909091
0.168831 0 0 0.577922 0.350649 0 0.272727 0.1036;
#X coords 0 1 17 0 442 145 1;
#X restore 188 -808 graph;
#X text 187 -804 init;
#X text 221 -803 T1;
#X text 326 -803 T3;
#X text 379 -803 T4;
#X text 430 -803 T5;
#X text 479 -803 T6;
#X text 248 -803 L1;
#X text 300 -803 L2;
#X text 273 -803 T2;
#X text 404 -803 L4;
#X text 456 -803 L5;
#X text 506 -803 L6;
#X text 537 -803 R;
#X text 552 -803 strt;
#X text 584 -803 end;
#X text 608 -803 vel;
#X text 567 -813 loop;
#X text 353 -803 L3;
#X obj 761 -909 r \$0-6stage2Op0.s;
#X obj 781 -887 r \$0-6stage2Op1.s;
#X obj 805 -863 r \$0-6stage2Op2.s;
#X obj 828 -839 r \$0-6stage2Op3.s;
#X obj 845 -815 r \$0-6stage2Op4.s;
#X msg 791 -772 1;
#X msg 821 -726 2;
#X msg 845 -682 3;
#X msg 849 -634 4;
#X msg 860 -587 5;
#X msg 876 -537 6;
#X msg 901 -492 7;
#X msg 951 -436 8;
#X msg 953 -380 9;
#X msg 973 -323 10;
#X msg 1006 -268 11;
#X msg 1037 -214 12;
#X msg 1049 -158 13;
#X msg 1099 -114 14;
#X msg 1093 -49 15;
#X msg 1138 24 16;
#X obj 744 -837 t f b;
#X floatatom 814 -192 5 0 0 0 - - -, f 5;
#X floatatom 748 -187 5 0 0 0 - - -, f 5;
#X msg 773 -814 0;
#X obj 765 -792 t f b;
#X obj 793 -747 t f b;
#X obj 820 -703 t f b;
#X obj 825 -660 t f b;
#X obj 861 -614 t f b;
#X obj 875 -563 t f b;
#X obj 908 -515 t f b;
#X obj 925 -465 t f b;
#X obj 960 -411 t f b;
#X obj 978 -354 t f b;
#X obj 989 -298 t f b;
#X obj 1020 -239 t f b;
#X obj 1058 -185 t f b;
#X obj 1087 -137 t f b;
#X obj 1102 -83 t f b;
#X obj 1115 0 t f b;
#X obj 755 -139 t b f;
#X obj 809 64 f;
#X obj 904 0 * 5000;
#X obj 972 -6 * 2000;
#X floatatom 904 22 5 0 0 0 - - -, f 5;
#X floatatom 969 21 5 0 0 0 - - -, f 5;
#X obj 881 56 clip 0 5000;
#X obj 973 52 clip 0 2000;
#X obj 760 -85 tabwrite 6stageOp2;
#X connect 0 0 60 0;
#X connect 1 0 61 0;
#X connect 2 0 62 0;
#X connect 3 0 63 0;
#X connect 4 0 64 0;
#X connect 5 0 65 0;
#X connect 6 0 66 0;
#X connect 7 0 67 0;
#X connect 8 0 68 0;
#X connect 9 0 70 0;
#X connect 10 0 71 0;
#X connect 11 0 69 0;
#X connect 31 0 52 0;
#X connect 32 0 56 0;
#X connect 33 0 57 0;
#X connect 34 0 58 0;
#X connect 35 0 59 0;
#X connect 36 0 53 0;
#X connect 37 0 53 0;
#X connect 38 0 53 0;
#X connect 39 0 53 0;
#X connect 40 0 53 0;
#X connect 41 0 53 0;
#X connect 42 0 53 0;
#X connect 43 0 53 0;
#X connect 44 0 53 0;
#X connect 45 0 53 0;
#X connect 46 0 53 0;
#X connect 47 0 53 0;
#X connect 48 0 53 0;
#X connect 49 0 53 0;
#X connect 50 0 53 0;
#X connect 51 0 53 0;
#X connect 52 0 54 0;
#X connect 52 0 74 0;
#X connect 52 1 55 0;
#X connect 53 0 73 1;
#X connect 53 0 80 1;
#X connect 54 0 72 0;
#X connect 55 0 53 0;
#X connect 56 0 54 0;
#X connect 56 0 75 0;
#X connect 56 1 36 0;
#X connect 57 0 54 0;
#X connect 57 0 74 0;
#X connect 57 1 37 0;
#X connect 58 0 54 0;
#X connect 58 0 75 0;
#X connect 58 1 38 0;
#X connect 59 0 54 0;
#X connect 59 0 74 0;
#X connect 59 1 39 0;
#X connect 60 0 54 0;
#X connect 60 0 75 0;
#X connect 60 1 40 0;
#X connect 61 0 54 0;
#X connect 61 0 74 0;
#X connect 61 1 41 0;
#X connect 62 0 54 0;
#X connect 62 0 75 0;
#X connect 62 1 42 0;
#X connect 63 0 54 0;
#X connect 63 0 74 0;
#X connect 63 1 43 0;
#X connect 64 0 54 0;
#X connect 64 0 75 0;
#X connect 64 1 44 0;
#X connect 65 0 54 0;
#X connect 65 0 74 0;
#X connect 65 1 45 0;
#X connect 66 0 54 0;
#X connect 66 0 75 0;
#X connect 66 1 46 0;
#X connect 67 0 54 0;
#X connect 67 0 74 0;
#X connect 67 1 47 0;
#X connect 68 0 54 0;
#X connect 68 0 75 0;
#X connect 68 1 48 0;
#X connect 69 0 54 0;
#X connect 69 0 74 0;
#X connect 69 1 49 0;
#X connect 70 0 54 0;
#X connect 70 0 75 0;
#X connect 70 1 50 0;
#X connect 71 0 54 0;
#X connect 71 0 74 0;
#X connect 71 1 51 0;
#X connect 72 1 80 0;
#X connect 74 0 76 0;
#X connect 74 0 78 0;
#X connect 75 0 77 0;
#X connect 75 0 79 0;
#X coords 0 0 1 1 510 160 0;
#X restore 33 238 pd 6stage2Op;
#N canvas 0 48 1920 1031 6stagefilt 0;
#X obj 625 -496 s \$0-6stage1Op0;
#X text 549 -528 30 param offset for each op/filter/lfo section;
#X obj 694 -581 table mastersy77 240;
#X obj 675 -411 tabread mastersy77;
#X floatatom 691 -454 5 0 0 0 - - -, f 5;
#X floatatom 678 -367 5 0 0 0 - - -, f 5;
#X msg 557 -587 \; mastersy77 \$1 \$2;
#X obj 89 -567 r \$0-6stagefilt1.s;
#X obj 113 -543 r \$0-6stagefilt2.s;
#X obj 135 -519 r \$0-6stagefilt3.s;
#X obj 153 -495 r \$0-6stagefilt4.s;
#X obj 174 -471 r \$0-6stagefilt5.s;
#X obj 200 -448 r \$0-6stagefilt6.s;
#X obj 228 -428 r \$0-6stagefilt7.s;
#X obj 248 -400 r \$0-6stagefilt8.s;
#X obj 272 -377 r \$0-6stagefilt9.s;
#X obj 292 -354 r \$0-6stagefilt10.s;
#X obj 314 -330 r \$0-6stagefilt11.s;
#X obj 343 -306 r \$0-6stagefilt12.s;
#X obj 363 -284 r \$0-6stagefilt13.s;
#X obj 411 -235 r \$0-6stagefilt15.s;
#X obj 432 -207 r \$0-6stagefilt16.s;
#X msg 116 -473 1;
#X msg 146 -427 2;
#X msg 170 -383 3;
#X msg 174 -335 4;
#X msg 185 -288 5;
#X msg 201 -238 6;
#X msg 226 -193 7;
#X msg 276 -137 8;
#X msg 278 -81 9;
#X msg 298 -24 10;
#X msg 331 31 11;
#X msg 362 85 12;
#X msg 374 141 13;
#X msg 424 185 14;
#X msg 418 250 15;
#X msg 463 323 16;
#X obj 69 -538 t f b;
#X floatatom 139 107 5 0 0 0 - - -, f 5;
#X floatatom 71 99 5 0 0 0 - - -, f 5;
#X msg 98 -515 0;
#X obj 90 -493 t f b;
#X obj 118 -448 t f b;
#X obj 145 -404 t f b;
#X obj 150 -361 t f b;
#X obj 186 -315 t f b;
#X obj 200 -264 t f b;
#X obj 233 -216 t f b;
#X obj 250 -166 t f b;
#X obj 285 -112 t f b;
#X obj 303 -55 t f b;
#X obj 314 1 t f b;
#X obj 345 60 t f b;
#X obj 390 114 t f b;
#X obj 412 162 t f b;
#X obj 440 226 t f b;
#X obj 440 299 t f b;
#N canvas 0 22 450 300 (subpatch) 0;
#X array 6stagefilt 17 float 23 #91fcbe black;
#A 0 0.656166 1 -1 1 -1 1 -1 1 -1 0.142857 0.220779 0.220779 0.883117
0.0002 0.038961 1 0.701299;
#X coords 0 1 17 0 300 100 1;
#X restore 496 -113 graph;
#X text 779 -230 init;
#X text 792 -230 T1;
#X text 897 -230 T3;
#X text 950 -230 T4;
#X text 1001 -230 T5;
#X text 1050 -230 T6;
#X text 819 -230 L1;
#X text 871 -230 L2;
#X text 844 -230 T2;
#X text 975 -230 L4;
#X text 1027 -230 L5;
#X text 1077 -230 L6;
#X text 1108 -230 R;
#X text 1123 -230 strt;
#X text 1155 -230 end;
#X text 1179 -230 vel;
#X text 1138 -240 loop;
#X obj 1559 -313 tgl 15 0 empty empty empty 17 7 0 10 -262144 -1 -1
0 1;
#X obj 1559 -293 sel 0 1;
#X obj 1661 196 line, f 6;
#X obj 1657 -206 tabread 6stageOp1;
#X obj 1580 -260 t b b;
#X msg 1657 -229 0, f 4;
#X floatatom 1657 -184 5 0 0 0 - - -, f 5;
#X msg 1657 -163 \$1 0;
#X obj 1594 -27 tabread 6stageOp1;
#X floatatom 1610 223 8 0 0 0 - - -, f 8;
#X msg 1566 128 \$1 \$2;
#X obj 1555 -48 tabread 6stageOp1;
#X floatatom 1571 223 5 0 0 0 - - -, f 5;
#X obj 1565 103 pack;
#X obj 1515 15 delay;
#X obj 1544 -192 f;
#X obj 1580 -186 + 2;
#X obj 1549 -214 bng 15 250 50 0 empty empty empty 17 7 0 10 -262144
-1 -1;
#X floatatom 1535 223 5 0 0 0 - - -, f 5;
#X obj 1541 -158 sel 11;
#X obj 1553 -75 + 1;
#X obj 1549 -100 t f f;
#X obj 1518 -8 t b;
#X obj 1496 43 switch;
#X floatatom 1662 223 5 0 0 0 - - -, f 5;
#X obj 1370 135 tabread 6stageOp1;
#X floatatom 1427 154 5 0 0 0 - - -, f 5;
#X msg 1370 112 13;
#X msg 1368 181 0 \$1;
#X obj 1368 157 * 10000;
#X obj 869 -33 tabwrite 6stageOp1;
#X floatatom 868 -56 5 0 0 0 - - -, f 5;
#X floatatom 994 -46 5 0 0 0 - - -, f 5;
#X obj 1106 -361 bng 15 250 50 0 empty empty empty 0 -6 0 8 -262144
-1 -1;
#X obj 1106 -343 savepanel;
#X msg 1105 -321 \; array99 write \$1;
#X text 943 -351 read a text file;
#X msg 942 -331 \; array99 read 15.file.txt;
#X text 766 36 renaming an array:;
#X text 765 93 setting the bounds rectangle:;
#X text 764 147 adding x and y labels: give a point to put a tick \,
the interval between ticks \, and the number of ticks overall per large
tick.;
#X text 760 225 adding labels. Give a y value and a bunch of x values
or vice versa:;
#X text 761 291 You can also change x and y range and size in the "properties"
dialog. Note that information about size and ranges is saved \, but
ticks \, labels \, and the actual data are lost between Pd sessions.
;
#X msg 766 56 \; 6stageOp1 rename george;
#X msg 767 112 \; 6stageOp1 bounds 0 -2 10 2;
#X msg 940 56 \; george rename 6stageOp1;
#X msg 1066 6 \; 6stageOp1 3 -0.5 0.5;
#X msg 1238 262 \; 6stageOp1 xlabel clear;
#X msg 997 114 \; 6stageOp1 bounds 0 1 5 0;
#X msg 1009 256 \; 6stageOp1 ylabel clear;
#X msg 771 189 \; 6stageOp1 xticks 1 2 1;
#X text 924 -230 L3;
#X msg 957 187 \; 6stageOp1 yticks 0 0.05 1;
#X obj 1691 -103 tabread 6stageOp1;
#X floatatom 1691 -81 5 0 0 0 - - -, f 5;
#X obj 1605 -123 f, f 2;
#X msg 1603 -148 1;
#X msg 1691 -126 14, f 4;
#X obj 1740 4 i;
#X floatatom 1744 86 5 0 0 0 - - -, f 5;
#X obj 1740 -16 * 5;
#X obj 1653 -336 tabread 6stageOp1;
#X floatatom 1653 -314 5 0 0 0 - - -, f 5;
#X obj 1704 -297 i;
#X floatatom 1710 -227 5 0 0 0 - - -, f 5;
#X obj 1704 -317 * 5;
#X msg 1653 -359 15, f 4;
#X obj 1707 -249 + 1;
#X obj 1707 -276 * 2;
#X obj 1742 60 + 1;
#X obj 1742 33 * 2;
#X obj 1592 -5 * 2000;
#X obj 1414 -155 tgl 15 0 empty empty empty 17 7 0 10 -262144 -1 -1
0 1;
#X obj 1427 -101 gate;
#X obj 1381 -101 gate;
#X msg 1382 -77 0;
#X obj 1380 -125 inv;
#X obj 1729 -56 sel 0;
#X obj 1774 -73 > 0;
#X obj 69 -589 r \$0-6stagefilt0.s;
#X obj 99 141 tabwrite 6stagefilt;
#X obj 387 -260 r \$0-6stagefilt14.s;
#X text 1793 79 loop start;
#X text 1766 -235 loop end;
#X obj 605 -283 tabread;
#X msg 1073 -48 \; 6stagefilt 0 -1 1 -1 1 -1 1 -1 1 -1;
#X obj 308 -562 s 6stagefilt;
#X msg 366 -611 \; 6stagefilt 0 \$1;
#X connect 3 0 5 0;
#X connect 4 0 3 0;
#X connect 7 0 42 0;
#X connect 8 0 43 0;
#X connect 9 0 44 0;
#X connect 10 0 45 0;
#X connect 11 0 46 0;
#X connect 12 0 47 0;
#X connect 13 0 48 0;
#X connect 14 0 49 0;
#X connect 15 0 50 0;
#X connect 16 0 51 0;
#X connect 17 0 52 0;
#X connect 18 0 53 0;
#X connect 19 0 54 0;
#X connect 20 0 56 0;
#X connect 21 0 57 0;
#X connect 22 0 39 0;
#X connect 23 0 39 0;
#X connect 24 0 39 0;
#X connect 25 0 39 0;
#X connect 26 0 39 0;
#X connect 27 0 39 0;
#X connect 28 0 39 0;
#X connect 29 0 39 0;
#X connect 30 0 39 0;
#X connect 31 0 39 0;
#X connect 32 0 39 0;
#X connect 33 0 39 0;
#X connect 34 0 39 0;
#X connect 35 0 39 0;
#X connect 36 0 39 0;
#X connect 37 0 39 0;
#X connect 38 0 40 0;
#X connect 38 1 41 0;
#X connect 39 0 156 1;
#X connect 40 0 156 0;
#X connect 41 0 39 0;
#X connect 42 0 40 0;
#X connect 42 1 22 0;
#X connect 43 0 40 0;
#X connect 43 1 23 0;
#X connect 44 0 40 0;
#X connect 44 1 24 0;
#X connect 45 0 40 0;
#X connect 45 1 25 0;
#X connect 46 0 40 0;
#X connect 46 1 26 0;
#X connect 47 0 40 0;
#X connect 47 1 27 0;
#X connect 48 0 40 0;
#X connect 48 1 28 0;
#X connect 49 0 40 0;
#X connect 49 1 29 0;
#X connect 50 0 40 0;
#X connect 50 1 30 0;
#X connect 51 0 40 0;
#X connect 51 1 31 0;
#X connect 52 0 40 0;
#X connect 52 1 32 0;
#X connect 53 0 40 0;
#X connect 53 1 33 0;
#X connect 54 0 40 0;
#X connect 54 1 34 0;
#X connect 55 0 40 0;
#X connect 55 1 35 0;
#X connect 56 0 40 0;
#X connect 56 1 36 0;
#X connect 57 0 40 0;
#X connect 57 1 37 0;
#X connect 76 0 77 0;
#X connect 76 0 99 0;
#X connect 77 0 103 0;
#X connect 77 1 80 0;
#X connect 78 0 100 0;
#X connect 79 0 82 0;
#X connect 79 0 83 0;
#X connect 80 0 93 0;
#X connect 80 0 133 0;
#X connect 80 1 81 0;
#X connect 80 1 132 0;
#X connect 80 1 142 0;
#X connect 81 0 79 0;
#X connect 83 0 78 0;
#X connect 84 0 147 0;
#X connect 86 0 78 0;
#X connect 87 0 88 0;
#X connect 87 0 89 0;
#X connect 89 0 86 0;
#X connect 90 0 99 1;
#X connect 91 0 92 0;
#X connect 91 0 94 0;
#X connect 91 0 95 0;
#X connect 91 0 97 0;
#X connect 92 0 91 1;
#X connect 93 0 91 0;
#X connect 95 0 149 1;
#X connect 95 0 150 1;
#X connect 96 0 87 0;
#X connect 97 0 96 0;
#X connect 97 0 98 0;
#X connect 97 1 84 0;
#X connect 98 0 90 0;
#X connect 99 0 93 0;
#X connect 101 0 105 0;
#X connect 103 0 101 0;
#X connect 104 0 78 0;
#X connect 105 0 104 0;
#X connect 105 0 102 0;
#X connect 105 0 85 0;
#X connect 107 0 106 0;
#X connect 108 0 106 1;
#X connect 109 0 110 0;
#X connect 110 0 111 0;
#X connect 129 0 130 0;
#X connect 129 0 153 0;
#X connect 129 0 154 0;
#X connect 131 0 91 1;
#X connect 132 0 131 0;
#X connect 133 0 129 0;
#X connect 134 0 146 0;
#X connect 136 0 134 0;
#X connect 137 0 138 0;
#X connect 137 0 141 0;
#X connect 139 0 144 0;
#X connect 141 0 139 0;
#X connect 142 0 137 0;
#X connect 143 0 140 0;
#X connect 143 0 95 1;
#X connect 144 0 143 0;
#X connect 145 0 135 0;
#X connect 145 0 131 1;
#X connect 146 0 145 0;
#X connect 147 0 90 1;
#X connect 147 0 89 1;
#X connect 147 0 85 0;
#X connect 148 0 149 0;
#X connect 148 0 152 0;
#X connect 149 0 131 0;
#X connect 150 0 151 0;
#X connect 151 0 99 0;
#X connect 152 0 150 0;
#X connect 153 1 136 0;
#X connect 154 0 148 0;
#X connect 155 0 163 0;
#X connect 157 0 55 0;
#X connect 163 0 162 0;
#X restore 33 186 pd 6stagefilt;
#N canvas 379 85 1161 974 6stage1Op 0;
#X obj 128 -930 r \$0-6stage1Op5.s;
#X obj 154 -907 r \$0-6stage1Op6.s;
#X obj 182 -887 r \$0-6stage1Op7.s;
#X obj 202 -859 r \$0-6stage1Op8.s;
#X obj 226 -836 r \$0-6stage1Op9.s;
#X obj 246 -813 r \$0-6stage1Op10.s;
#X obj 268 -789 r \$0-6stage1Op11.s;
#X obj 297 -765 r \$0-6stage1Op12.s;
#X obj 317 -743 r \$0-6stage1Op13.s;
#X obj 365 -694 r \$0-6stage1Op15.s;
#X obj 386 -666 r \$0-6stage1Op16.s;
#X msg 70 -932 1;
#X msg 100 -886 2;
#X msg 124 -842 3;
#X msg 128 -794 4;
#X msg 139 -747 5;
#X msg 155 -697 6;
#X msg 180 -652 7;
#X msg 230 -596 8;
#X msg 232 -540 9;
#X msg 252 -483 10;
#X msg 285 -428 11;
#X msg 316 -374 12;
#X msg 328 -318 13;
#X msg 378 -274 14;
#X msg 372 -209 15;
#X msg 417 -136 16;
#X obj 23 -997 t f b;
#X floatatom 93 -352 5 0 0 0 - - -, f 5;
#X floatatom 27 -347 5 0 0 0 - - -, f 5;
#X msg 52 -974 0;
#X obj 44 -952 t f b;
#X obj 72 -907 t f b;
#X obj 99 -863 t f b;
#X obj 104 -820 t f b;
#X obj 140 -774 t f b;
#X obj 154 -723 t f b;
#X obj 187 -675 t f b;
#X obj 204 -625 t f b;
#X obj 239 -571 t f b;
#X obj 257 -514 t f b;
#X obj 268 -458 t f b;
#X obj 299 -399 t f b;
#X obj 337 -345 t f b;
#X obj 366 -297 t f b;
#X obj 394 -233 t f b;
#X obj 394 -160 t f b;
#X obj 341 -719 r \$0-6stage1Op14.s;
#X obj 39 -245 tabwrite 6stageOp1;
#X obj 23 -1048 r \$0-6stage1Op0.s;
#X obj 43 -1026 r \$0-6stage1Op1.s;
#X obj 70 -999 r \$0-6stage1Op2.s;
#X obj 90 -978 r \$0-6stage1Op3.s;
#X obj 108 -954 r \$0-6stage1Op4.s;
#X obj 34 -299 t b f;
#X obj 685 -174 6stageOp1int;
#N canvas 0 22 450 300 (subpatch) 0;
#X array 6stageOp1 17 float 23 #91fcbe black;
#A 0 -1 1 -1 1 -1 1 -1 1 -1 0.285714 1 0.24026 1 0.025974 0 0.876623
0;
#X coords 0 1 17 0 442 145 1;
#X restore 667 -429 graph;
#X obj 139 14 pack;
#X obj 88 -96 f;
#X obj 183 -160 * 5000;
#X obj 251 -166 * 2000;
#X floatatom 183 -138 5 0 0 0 - - -, f 5;
#X floatatom 248 -139 5 0 0 0 - - -, f 5;
#X obj 160 -104 clip 0 5000;
#X obj 252 -108 clip 0 2000;
#X obj 179 -42 t b f b;
#X connect 0 0 35 0;
#X connect 1 0 36 0;
#X connect 2 0 37 0;
#X connect 3 0 38 0;
#X connect 4 0 39 0;
#X connect 5 0 40 0;
#X connect 6 0 41 0;
#X connect 7 0 42 0;
#X connect 8 0 43 0;
#X connect 9 0 45 0;
#X connect 10 0 46 0;
#X connect 11 0 28 0;
#X connect 12 0 28 0;
#X connect 13 0 28 0;
#X connect 14 0 28 0;
#X connect 15 0 28 0;
#X connect 16 0 28 0;
#X connect 17 0 28 0;
#X connect 18 0 28 0;
#X connect 19 0 28 0;
#X connect 20 0 28 0;
#X connect 21 0 28 0;
#X connect 22 0 28 0;
#X connect 23 0 28 0;
#X connect 24 0 28 0;
#X connect 25 0 28 0;
#X connect 26 0 28 0;
#X connect 27 0 29 0;
#X connect 27 0 59 0;
#X connect 27 1 30 0;
#X connect 28 0 48 1;
#X connect 28 0 58 1;
#X connect 29 0 54 0;
#X connect 30 0 28 0;
#X connect 31 0 29 0;
#X connect 31 0 60 0;
#X connect 31 1 11 0;
#X connect 32 0 29 0;
#X connect 32 0 59 0;
#X connect 32 1 12 0;
#X connect 33 0 29 0;
#X connect 33 0 60 0;
#X connect 33 1 13 0;
#X connect 34 0 29 0;
#X connect 34 0 59 0;
#X connect 34 1 14 0;
#X connect 35 0 29 0;
#X connect 35 0 60 0;
#X connect 35 1 15 0;
#X connect 36 0 29 0;
#X connect 36 0 59 0;
#X connect 36 1 16 0;
#X connect 37 0 29 0;
#X connect 37 0 60 0;
#X connect 37 1 17 0;
#X connect 38 0 29 0;
#X connect 38 0 59 0;
#X connect 38 1 18 0;
#X connect 39 0 29 0;
#X connect 39 0 60 0;
#X connect 39 1 19 0;
#X connect 40 0 29 0;
#X connect 40 0 59 0;
#X connect 40 1 20 0;
#X connect 41 0 29 0;
#X connect 41 0 60 0;
#X connect 41 1 21 0;
#X connect 42 0 29 0;
#X connect 42 0 59 0;
#X connect 42 1 22 0;
#X connect 43 0 29 0;
#X connect 43 0 60 0;
#X connect 43 1 23 0;
#X connect 44 0 29 0;
#X connect 44 0 59 0;
#X connect 44 1 24 0;
#X connect 45 0 29 0;
#X connect 45 0 60 0;
#X connect 45 1 25 0;
#X connect 46 0 29 0;
#X connect 46 0 59 0;
#X connect 46 1 26 0;
#X connect 47 0 44 0;
#X connect 49 0 27 0;
#X connect 50 0 31 0;
#X connect 51 0 32 0;
#X connect 52 0 33 0;
#X connect 53 0 34 0;
#X connect 54 1 48 0;
#X connect 58 0 57 0;
#X connect 59 0 61 0;
#X connect 59 0 63 0;
#X connect 60 0 62 0;
#X connect 60 0 64 0;
#X connect 63 0 65 0;
#X connect 64 0 65 0;
#X connect 65 0 58 0;
#X connect 65 1 57 1;
#X coords 0 0 1 1 510 160 0;
#X restore 33 215 pd 6stage1Op;
#X floatatom 813 86 5 0 0 0 - - -, f 5;
#X text 738 219 portamento;
#X text 736 174 osc2partial;
#N canvas 717 362 1013 668 engine 1;
#X obj 171 50 inlet;
#X obj 134 258 2op;
#X floatatom 154 162 5 0 0 0 - - -, f 5;
#X floatatom 195 163 5 0 0 0 - - -, f 5;
#X floatatom 237 162 5 0 0 0 - - -, f 5;
#X obj 151 209 route 1 2 3 4;
#X obj 159 185 pack 0 0 0;
#X obj 168 258 2op;
#X obj 204 261 2op;
#X obj 165 406 r resonance;
#X msg 54 436 4095;
#X msg 281 87 clear;
#X msg 236 87 stop;
#X obj 244 267 2op;
#X obj 117 473 voice1;
#X obj 205 474 voice2;
#X obj 298 471 voice3;
#X obj 391 470 voice4;
#X obj 53 402 loadbang;
#X msg 59 509 4095;
#X obj 158 563 print;
#X obj 165 428 + 0;
#X obj 117 107 +;
#X obj 114 74 r \$0-transpose.s;
#X obj 232 55 r resetpoly;
#X obj 164 126 poly 3 1;
#X obj 516 107 bng 15 250 50 0 empty empty empty 17 7 0 10 -262144
-1 -1;
#X floatatom 437 101 5 0 0 0 - - -, f 5;
#X floatatom 543 106 5 0 100 0 - - -, f 5;
#X text 542 131 probrep;
#X floatatom 593 108 5 0 100 0 - - -, f 5;
#X floatatom 647 107 5 0 100 0 - - -, f 5;
#X text 593 129 probzero;
#X text 646 128 probslide;
#X text 432 82 length;
#X floatatom 377 129 5 0 100 0 - - -, f 5;
#X text 373 151 transpose;
#X msg 437 123 15;
#X obj 492 74 - 127, f 6;
#X obj 475 160 303seq;
#X obj 480 266 pack;
#X obj 480 218 t f b;
#X obj 544 203 sel 0;
#X msg 543 230 0;
#X obj 527 252 f;
#X obj 697 306 bng 15 250 50 0 empty empty empty 17 7 0 10 -262144
-1 -1;
#X floatatom 618 300 5 0 0 0 - - -, f 5;
#X floatatom 727 299 5 0 100 0 - - -, f 5;
#X text 723 330 probrep;
#X floatatom 774 307 5 0 100 0 - - -, f 5;
#X floatatom 827 306 5 0 100 0 - - -, f 5;
#X text 774 328 probzero;
#X text 827 327 probslide;
#X text 613 281 length;
#X floatatom 557 328 5 0 100 0 - - -, f 5;
#X text 554 350 transpose;
#X msg 618 322 15;
#X obj 673 273 - 127, f 6;
#X obj 656 359 303seq;
#X obj 661 465 pack;
#X obj 661 417 t f b;
#X obj 725 402 sel 0;
#X msg 724 429 0;
#X obj 708 451 f;
#X obj 541 368 loadbang;
#X obj 790 163 r gridbuts;
#X obj 790 185 route 40;
#X obj 790 207 sel 3 7;
#X obj 370 73 loadbang;
#X msg 373 94 24;
#X msg 572 393 48;
#X obj 864 107 notein;
#X obj 865 219 pack;
#X floatatom 857 198 5 0 0 0 - - -, f 5;
#X obj 868 173 +;
#X floatatom 884 151 5 0 0 0 - - -, f 5;
#X obj 895 36 sel 40;
#X obj 925 87 t f b;
#X obj 866 128 spigot;
#X obj 892 15 r page;
#X msg 892 86 1;
#X msg 951 109 0;
#X obj 917 332 + 24;
#X obj 917 295 - 36;
#X connect 0 0 25 0;
#X connect 1 0 14 3;
#X connect 1 1 14 1;
#X connect 5 0 1 0;
#X connect 5 1 7 0;
#X connect 5 2 8 0;
#X connect 5 3 13 0;
#X connect 6 0 5 0;
#X connect 7 0 15 3;
#X connect 7 1 15 1;
#X connect 8 0 16 3;
#X connect 8 1 16 1;
#X connect 9 0 21 0;
#X connect 10 0 14 0;
#X connect 10 0 17 0;
#X connect 10 0 16 0;
#X connect 10 0 15 0;
#X connect 11 0 25 0;
#X connect 12 0 25 0;
#X connect 13 0 17 3;
#X connect 13 1 17 1;
#X connect 18 0 10 0;
#X connect 19 0 14 1;
#X connect 19 0 17 1;
#X connect 19 0 16 1;
#X connect 19 0 15 1;
#X connect 21 0 14 2;
#X connect 21 0 17 2;
#X connect 21 0 16 2;
#X connect 21 0 15 2;
#X connect 22 0 6 1;
#X connect 22 0 3 0;
#X connect 23 0 22 1;
#X connect 24 0 11 0;
#X connect 24 0 12 0;
#X connect 25 0 2 0;
#X connect 25 0 6 0;
#X connect 25 1 22 0;
#X connect 25 2 4 0;
#X connect 25 2 6 2;
#X connect 26 0 39 5;
#X connect 27 0 39 1;
#X connect 28 0 39 3;
#X connect 30 0 39 4;
#X connect 31 0 39 6;
#X connect 35 0 39 0;
#X connect 38 0 39 2;
#X connect 39 0 42 0;
#X connect 39 1 41 0;
#X connect 40 0 1 0;
#X connect 41 0 40 0;
#X connect 41 1 44 0;
#X connect 42 0 43 0;
#X connect 42 1 44 1;
#X connect 43 0 44 1;
#X connect 44 0 40 1;
#X connect 45 0 58 5;
#X connect 46 0 58 1;
#X connect 47 0 58 3;
#X connect 49 0 58 4;
#X connect 50 0 58 6;
#X connect 54 0 58 0;
#X connect 57 0 58 2;
#X connect 58 0 61 0;
#X connect 58 1 60 0;
#X connect 59 0 7 0;
#X connect 60 0 59 0;
#X connect 60 1 63 0;
#X connect 61 0 62 0;
#X connect 61 1 63 1;
#X connect 62 0 63 1;
#X connect 63 0 59 1;
#X connect 64 0 70 0;
#X connect 65 0 66 0;
#X connect 66 0 67 0;
#X connect 67 0 45 0;
#X connect 67 0 26 0;
#X connect 67 1 45 0;
#X connect 67 1 26 0;
#X connect 68 0 69 0;
#X connect 69 0 35 0;
#X connect 70 0 54 0;
#X connect 71 0 78 0;
#X connect 71 1 72 1;
#X connect 74 0 72 0;
#X connect 74 0 73 0;
#X connect 75 0 74 1;
#X connect 76 0 80 0;
#X connect 76 1 77 0;
#X connect 77 1 81 0;
#X connect 78 0 74 0;
#X connect 78 0 83 0;
#X connect 79 0 76 0;
#X connect 80 0 78 1;
#X connect 81 0 78 1;
#X connect 82 0 58 0;
#X connect 83 0 39 0;
#X connect 83 0 82 0;
#X restore 140 102 pd engine;
#X text 264 494 init;
#X text 294 494 T1;
#X text 396 494 T3;
#X text 447 494 T4;
#X text 502 494 T5;
#X text 558 494 T6;
#X text 321 494 L1;
#X text 370 494 L2;
#X text 346 494 T2;
#X text 475 494 L4;
#X text 527 494 L5;
#X text 581 494 L6;
#X text 612 494 R;
#X text 630 494 strt;
#X text 661 494 end;
#X text 685 494 vel;
#X text 422 494 L3;
#X floatatom 743 112 5 0 0 0 - #0-osc1pitch.r #0-osc1pitch.s, f 5
;
#X text 729 129 osc1partial;
#X obj 33 112 presetloader;
#N canvas 186 363 1121 650 controller 0;
#X obj 996 219 s paramdisp;
#X obj 91 452 s valuedisp;
#X obj 192 -80 unpack;
#X floatatom 187 -56 5 0 0 0 - - -, f 5;
#X floatatom 234 -57 5 0 0 0 - - -, f 5;
#X obj 166 -160 r encoders;
#X obj 973 -121 change;
#X obj 973 -100 sel 1 2 3 4 5 6 7 8 9 10 11 12;
#X obj 135 -26 route 1 2 3 4 5 6 7 8 9 10 11 12;
#X obj 164 -109 t l l;
#X msg 1077 173 Resonance;
#X msg 954 -62 FilterInit;
#X msg 960 -37 FilterT1;
#X msg 970 -17 FilterL1;
#X msg 981 10 FilterT2;
#X msg 991 30 FilterL2;
#X msg 1011 54 FilterT3;
#X msg 1021 74 FilterL3;
#X obj 28 47 f;
#X obj 3 1 t b f;
#X obj 6 47 +;
#X obj 29 25 / 4;
#X obj 8 89 i;
#X obj 8 111 change;
#X obj 50 361 outlet;
#X obj 109 399 outlet;
#X obj 187 400 outlet;
#X obj 271 404 outlet;
#X obj 354 409 outlet;
#X obj 434 415 outlet;
#X obj 502 417 outlet;
#X obj 583 422 outlet;
#X obj 667 427 outlet;
#X obj 753 433 outlet;
#X obj 835 441 outlet;
#X obj 920 460 outlet;
#X obj 118 45 f;
#X obj 84 1 t b f;
#X obj 87 47 +;
#X obj 119 23 / 4;
#X obj 89 89 i;
#X obj 89 113 change;
#X obj 87 68 clip 1 5000;
#X obj 188 48 f;
#X obj 163 2 t b f;
#X obj 166 48 +;
#X obj 189 26 / 4;
#X obj 168 90 i;
#X obj 168 112 change;
#X obj 274 47 f;
#X obj 249 1 t b f;
#X obj 252 47 +;
#X obj 275 25 / 4;
#X obj 254 89 i;
#X obj 254 111 change;
#X obj 252 68 clip 1 5000;
#X obj 355 47 f;
#X obj 330 1 t b f;
#X obj 333 47 +;
#X obj 356 25 / 4;
#X obj 335 89 i;
#X obj 335 111 change;
#X obj 434 48 f;
#X obj 409 2 t b f;
#X obj 412 48 +;
#X obj 435 26 / 4;
#X obj 414 90 i;
#X obj 415 113 change;
#X obj 412 69 clip 1 5000;
#X obj 512 44 f;
#X obj 487 -2 t b f;
#X obj 490 44 +;
#X obj 513 22 / 4;
#X obj 492 86 i;
#X obj 492 108 change;
#X obj 593 44 f;
#X obj 568 -2 t b f;
#X obj 571 44 +;
#X obj 594 22 / 4;
#X obj 573 86 i;
#X obj 573 108 change;
#X obj 571 65 clip 1 5000;
#X obj 672 45 f;
#X obj 647 -1 t b f;
#X obj 650 45 +;
#X obj 673 23 / 4;
#X obj 652 87 i;
#X obj 652 109 change;
#X obj 758 44 f;
#X obj 733 -2 t b f;
#X obj 736 44 +;
#X obj 759 22 / 4;
#X obj 738 86 i;
#X obj 737 110 change;
#X obj 839 44 f;
#X obj 814 -2 t b f;
#X obj 817 44 +;
#X obj 840 22 / 4;
#X obj 819 86 i;
#X obj 814 110 change;
#X obj 918 45 f;
#X obj 893 -1 t b f;
#X obj 896 45 +;
#X obj 919 23 / 4;
#X obj 898 87 i;
#X obj 898 109 change;
#X obj 896 66 clip 1 5000;
#X obj 817 65 clip 0 4095;
#X obj 16 259 i;
#X obj 15 162 t f f f;
#X obj 6 68 clip 0 4095;
#X obj 56 290 / 4095;
#X obj 39 193 mod 34.125;
#X obj 14 235 / 409.5;
#X obj 38 214 / 34.125;
#X obj 18 282 +;
#X obj 162 260 i;
#X obj 161 163 t f f f;
#X obj 202 291 / 4095;
#X obj 185 194 mod 34.125;
#X obj 160 236 / 409.5;
#X obj 184 215 / 34.125;
#X obj 154 290 +;
#X obj 332 261 i;
#X obj 331 164 t f f f;
#X obj 391 294 / 4095;
#X obj 355 195 mod 34.125;
#X obj 330 237 / 409.5;
#X obj 354 216 / 34.125;
#X obj 334 284 +;
#X obj 492 261 i;
#X obj 491 164 t f f f;
#X obj 532 292 / 4095;
#X obj 515 195 mod 34.125;
#X obj 490 237 / 409.5;
#X obj 514 216 / 34.125;
#X obj 494 284 +;
#X obj 166 69 clip 0 4095;
#X obj 333 68 clip 0 4095;
#X obj 491 65 clip 0 4095;
#X floatatom 154 312 5 0 0 0 - - -, f 5;
#X obj 108 144 / 5000;
#X obj 266 145 / 5000;
#X obj 430 146 / 5000;
#X obj 591 149 / 5000;
#X msg 1035 97 Release;
#X msg 1046 117 LoopStart;
#X msg 1058 141 LoopEnd;
#X obj 733 135 / 6;
#X obj 737 65 clip 1 6;
#X obj 650 65 clip 0 5;
#X obj 661 149 / 5;
#X obj 181 -139 route 10;
#X obj 278 -109 s filtchange;
#X connect 2 0 3 0;
#X connect 2 0 6 0;
#X connect 2 1 4 0;
#X connect 5 0 152 0;
#X connect 6 0 7 0;
#X connect 7 0 11 0;
#X connect 7 1 12 0;
#X connect 7 2 13 0;
#X connect 7 3 14 0;
#X connect 7 4 15 0;
#X connect 7 5 16 0;
#X connect 7 6 17 0;
#X connect 7 7 145 0;
#X connect 7 8 146 0;
#X connect 7 9 147 0;
#X connect 7 10 10 0;
#X connect 8 0 19 0;
#X connect 8 1 37 0;
#X connect 8 2 44 0;
#X connect 8 3 50 0;
#X connect 8 4 57 0;
#X connect 8 5 63 0;
#X connect 8 6 70 0;
#X connect 8 7 76 0;
#X connect 8 8 83 0;
#X connect 8 9 89 0;
#X connect 8 10 95 0;
#X connect 8 11 101 0;
#X connect 9 0 8 0;
#X connect 9 1 2 0;
#X connect 10 0 0 0;
#X connect 11 0 0 0;
#X connect 12 0 0 0;
#X connect 13 0 0 0;
#X connect 14 0 0 0;
#X connect 15 0 0 0;
#X connect 16 0 0 0;
#X connect 17 0 0 0;
#X connect 18 0 20 0;
#X connect 19 0 18 0;
#X connect 19 1 21 0;
#X connect 20 0 110 0;
#X connect 21 0 20 1;
#X connect 22 0 23 0;
#X connect 23 0 109 0;
#X connect 36 0 38 0;
#X connect 37 0 36 0;
#X connect 37 1 39 0;
#X connect 38 0 42 0;
#X connect 39 0 38 1;
#X connect 40 0 41 0;
#X connect 41 0 1 0;
#X connect 41 0 141 0;
#X connect 42 0 36 1;
#X connect 42 0 40 0;
#X connect 43 0 45 0;
#X connect 44 0 43 0;
#X connect 44 1 46 0;
#X connect 45 0 137 0;
#X connect 46 0 45 1;
#X connect 47 0 48 0;
#X connect 48 0 117 0;
#X connect 49 0 51 0;
#X connect 50 0 49 0;
#X connect 50 1 52 0;
#X connect 51 0 55 0;
#X connect 52 0 51 1;
#X connect 53 0 54 0;
#X connect 54 0 1 0;
#X connect 54 0 142 0;
#X connect 55 0 49 1;
#X connect 55 0 53 0;
#X connect 56 0 58 0;
#X connect 57 0 56 0;
#X connect 57 1 59 0;
#X connect 58 0 138 0;
#X connect 59 0 58 1;
#X connect 60 0 61 0;
#X connect 61 0 124 0;
#X connect 62 0 64 0;
#X connect 63 0 62 0;
#X connect 63 1 65 0;
#X connect 64 0 68 0;
#X connect 65 0 64 1;
#X connect 66 0 67 0;
#X connect 67 0 1 0;
#X connect 67 0 143 0;
#X connect 68 0 62 1;
#X connect 68 0 66 0;
#X connect 69 0 71 0;
#X connect 70 0 69 0;
#X connect 70 1 72 0;
#X connect 71 0 139 0;
#X connect 72 0 71 1;
#X connect 73 0 74 0;
#X connect 74 0 131 0;
#X connect 75 0 77 0;
#X connect 76 0 75 0;
#X connect 76 1 78 0;
#X connect 77 0 81 0;
#X connect 78 0 77 1;
#X connect 79 0 80 0;
#X connect 80 0 1 0;
#X connect 80 0 144 0;
#X connect 81 0 75 1;
#X connect 81 0 79 0;
#X connect 82 0 84 0;
#X connect 83 0 82 0;
#X connect 83 1 85 0;
#X connect 84 0 150 0;
#X connect 85 0 84 1;
#X connect 86 0 87 0;
#X connect 87 0 1 0;
#X connect 87 0 151 0;
#X connect 88 0 90 0;
#X connect 89 0 88 0;
#X connect 89 1 91 0;
#X connect 90 0 149 0;
#X connect 91 0 90 1;
#X connect 92 0 93 0;
#X connect 93 0 148 0;
#X connect 93 0 1 0;
#X connect 94 0 96 0;
#X connect 95 0 94 0;
#X connect 95 1 97 0;
#X connect 96 0 107 0;
#X connect 97 0 96 1;
#X connect 98 0 99 0;
#X connect 99 0 34 0;
#X connect 99 0 1 0;
#X connect 100 0 102 0;
#X connect 101 0 100 0;
#X connect 101 1 103 0;
#X connect 102 0 106 0;
#X connect 103 0 102 1;
#X connect 104 0 105 0;
#X connect 105 0 1 0;
#X connect 105 0 35 0;
#X connect 106 0 100 1;
#X connect 106 0 104 0;
#X connect 107 0 94 1;
#X connect 107 0 98 0;
#X connect 108 0 115 0;
#X connect 109 0 113 0;
#X connect 109 1 112 0;
#X connect 109 2 111 0;
#X connect 110 0 18 1;
#X connect 110 0 22 0;
#X connect 111 0 24 0;
#X connect 112 0 114 0;
#X connect 113 0 108 0;
#X connect 114 0 115 1;
#X connect 115 0 1 0;
#X connect 116 0 122 0;
#X connect 117 0 120 0;
#X connect 117 1 119 0;
#X connect 117 2 118 0;
#X connect 118 0 26 0;
#X connect 119 0 121 0;
#X connect 120 0 116 0;
#X connect 121 0 122 1;
#X connect 122 0 1 0;
#X connect 122 0 140 0;
#X connect 123 0 129 0;
#X connect 124 0 127 0;
#X connect 124 1 126 0;
#X connect 124 2 125 0;
#X connect 125 0 28 0;
#X connect 126 0 128 0;
#X connect 127 0 123 0;
#X connect 128 0 129 1;
#X connect 129 0 1 0;
#X connect 130 0 136 0;
#X connect 131 0 134 0;
#X connect 131 1 133 0;
#X connect 131 2 132 0;
#X connect 132 0 30 0;
#X connect 133 0 135 0;
#X connect 134 0 130 0;
#X connect 135 0 136 1;
#X connect 136 0 1 0;
#X connect 137 0 43 1;
#X connect 137 0 47 0;
#X connect 138 0 56 1;
#X connect 138 0 60 0;
#X connect 139 0 69 1;
#X connect 139 0 73 0;
#X connect 141 0 25 0;
#X connect 142 0 27 0;
#X connect 143 0 29 0;
#X connect 144 0 31 0;
#X connect 145 0 0 0;
#X connect 146 0 0 0;
#X connect 147 0 0 0;
#X connect 148 0 33 0;
#X connect 149 0 88 1;
#X connect 149 0 92 0;
#X connect 150 0 82 1;
#X connect 150 0 86 0;
#X connect 151 0 32 0;
#X connect 152 0 9 0;
#X connect 152 0 153 0;
#X restore 937 64 pd controller;
#X text 906 258 init;
#X text 936 258 T1;
#X text 1038 258 T3;
#X text 1089 258 T4;
#X text 1144 258 T5;
#X text 1200 258 T6;
#X text 963 258 L1;
#X text 1012 258 L2;
#X text 988 258 T2;
#X text 1117 258 L4;
#X text 1169 258 L5;
#X text 1223 258 L6;
#X text 1254 258 R;
#X text 1272 258 strt;
#X text 1303 258 end;
#X text 1327 258 vel;
#X text 1064 258 L3;
#N canvas 226 384 1129 682 controller 0;
#X obj 996 219 s paramdisp;
#X obj 91 452 s valuedisp;
#X obj 192 -80 unpack;
#X floatatom 187 -56 5 0 0 0 - - -, f 5;
#X floatatom 234 -57 5 0 0 0 - - -, f 5;
#X obj 166 -160 r encoders;
#X obj 973 -121 change;
#X obj 973 -100 sel 1 2 3 4 5 6 7 8 9 10 11 12;
#X obj 135 -26 route 1 2 3 4 5 6 7 8 9 10 11 12;
#X obj 164 -109 t l l;
#X msg 1077 173 Resonance;
#X msg 954 -62 FilterInit;
#X obj 28 47 f;
#X obj 3 1 t b f;
#X obj 6 47 +;
#X obj 29 25 / 4;
#X obj 8 89 i;
#X obj 8 111 change;
#X obj 50 361 outlet;
#X obj 109 399 outlet;
#X obj 187 400 outlet;
#X obj 271 404 outlet;
#X obj 354 409 outlet;
#X obj 434 415 outlet;
#X obj 502 417 outlet;
#X obj 583 422 outlet;
#X obj 667 427 outlet;
#X obj 753 433 outlet;
#X obj 835 441 outlet;
#X obj 920 460 outlet;
#X obj 109 47 f;
#X obj 84 1 t b f;
#X obj 87 47 +;
#X obj 110 25 / 4;
#X obj 89 89 i;
#X obj 89 113 change;
#X obj 87 68 clip 1 5000;
#X obj 188 48 f;
#X obj 163 2 t b f;
#X obj 166 48 +;
#X obj 189 26 / 4;
#X obj 168 90 i;
#X obj 168 112 change;
#X obj 274 47 f;
#X obj 249 1 t b f;
#X obj 252 47 +;
#X obj 275 25 / 4;
#X obj 254 89 i;
#X obj 254 111 change;
#X obj 252 68 clip 1 5000;
#X obj 355 47 f;
#X obj 330 1 t b f;
#X obj 333 47 +;
#X obj 356 25 / 4;
#X obj 335 89 i;
#X obj 335 111 change;
#X obj 434 48 f;
#X obj 409 2 t b f;
#X obj 412 48 +;
#X obj 435 26 / 4;
#X obj 414 90 i;
#X obj 415 113 change;
#X obj 412 69 clip 1 5000;
#X obj 512 44 f;
#X obj 487 -2 t b f;
#X obj 490 44 +;
#X obj 513 22 / 4;
#X obj 492 86 i;
#X obj 492 108 change;
#X obj 593 44 f;
#X obj 568 -2 t b f;
#X obj 571 44 +;
#X obj 594 22 / 4;
#X obj 573 86 i;
#X obj 573 108 change;
#X obj 571 65 clip 1 5000;
#X obj 672 45 f;
#X obj 647 -1 t b f;
#X obj 650 45 +;
#X obj 673 23 / 4;
#X obj 652 87 i;
#X obj 652 109 change;
#X obj 758 44 f;
#X obj 733 -2 t b f;
#X obj 736 44 +;
#X obj 759 22 / 4;
#X obj 738 86 i;
#X obj 738 108 change;
#X obj 839 44 f;
#X obj 814 -2 t b f;
#X obj 817 44 +;
#X obj 840 22 / 4;
#X obj 819 86 i;
#X obj 814 110 change;
#X obj 918 45 f;
#X obj 893 -1 t b f;
#X obj 896 45 +;
#X obj 919 23 / 4;
#X obj 898 87 i;
#X obj 898 109 change;
#X obj 896 66 clip 1 5000;
#X obj 817 65 clip 0 4095;
#X obj 16 259 i;
#X obj 15 162 t f f f;
#X obj 6 68 clip 0 4095;
#X obj 56 290 / 4095;
#X obj 39 193 mod 34.125;
#X obj 14 235 / 409.5;
#X obj 38 214 / 34.125;
#X obj 18 282 +;
#X obj 162 260 i;
#X obj 161 163 t f f f;
#X obj 202 291 / 4095;
#X obj 185 194 mod 34.125;
#X obj 160 236 / 409.5;
#X obj 184 215 / 34.125;
#X obj 154 290 +;
#X obj 332 261 i;
#X obj 331 164 t f f f;
#X obj 391 294 / 4095;
#X obj 355 195 mod 34.125;
#X obj 330 237 / 409.5;
#X obj 354 216 / 34.125;
#X obj 334 284 +;
#X obj 492 261 i;
#X obj 491 164 t f f f;
#X obj 532 292 / 4095;
#X obj 515 195 mod 34.125;
#X obj 490 237 / 409.5;
#X obj 514 216 / 34.125;
#X obj 494 284 +;
#X obj 166 69 clip 0 4095;
#X obj 333 68 clip 0 4095;
#X obj 491 65 clip 0 4095;
#X floatatom 154 312 5 0 0 0 - - -, f 5;
#X obj 108 144 / 5000;
#X obj 266 145 / 5000;
#X obj 430 146 / 5000;
#X obj 591 149 / 5000;
#X obj 650 66 clip 0 5;
#X obj 736 65 clip 1 6;
#X obj 657 146 / 5;
#X obj 719 136 / 6;
#X msg 960 -37 FilterT4;
#X msg 971 -17 FilterL4;
#X msg 981 10 FilterT5;
#X msg 991 30 FilterL5;
#X msg 1011 54 FilterT6;
#X msg 1021 74 FilterL6;
#X msg 1035 97 Release;
#X msg 1046 117 LoopStart;
#X msg 1058 141 LoopEnd;
#X obj 161 -139 route 11;
#X obj 333 -110 s filtchange;
#X connect 2 0 3 0;
#X connect 2 0 6 0;
#X connect 2 1 4 0;
#X connect 5 0 152 0;
#X connect 6 0 7 0;
#X connect 7 0 11 0;
#X connect 7 1 143 0;
#X connect 7 2 144 0;
#X connect 7 3 145 0;
#X connect 7 4 146 0;
#X connect 7 5 147 0;
#X connect 7 6 148 0;
#X connect 7 7 149 0;
#X connect 7 8 150 0;
#X connect 7 9 151 0;
#X connect 7 10 10 0;
#X connect 8 0 13 0;
#X connect 8 1 31 0;
#X connect 8 2 38 0;
#X connect 8 3 44 0;
#X connect 8 4 51 0;
#X connect 8 5 57 0;
#X connect 8 6 64 0;
#X connect 8 7 70 0;
#X connect 8 8 77 0;
#X connect 8 9 83 0;
#X connect 8 10 89 0;
#X connect 8 11 95 0;
#X connect 9 0 8 0;
#X connect 9 1 2 0;
#X connect 10 0 0 0;
#X connect 11 0 0 0;
#X connect 12 0 14 0;
#X connect 13 0 12 0;
#X connect 13 1 15 0;
#X connect 14 0 104 0;
#X connect 15 0 14 1;
#X connect 16 0 17 0;
#X connect 17 0 103 0;
#X connect 30 0 32 0;
#X connect 31 0 30 0;
#X connect 31 1 33 0;
#X connect 32 0 36 0;
#X connect 33 0 32 1;
#X connect 34 0 35 0;
#X connect 35 0 1 0;
#X connect 35 0 135 0;
#X connect 36 0 30 1;
#X connect 36 0 34 0;
#X connect 37 0 39 0;
#X connect 38 0 37 0;
#X connect 38 1 40 0;
#X connect 39 0 131 0;
#X connect 40 0 39 1;
#X connect 41 0 42 0;
#X connect 42 0 111 0;
#X connect 43 0 45 0;
#X connect 44 0 43 0;
#X connect 44 1 46 0;
#X connect 45 0 49 0;
#X connect 46 0 45 1;
#X connect 47 0 48 0;
#X connect 48 0 1 0;
#X connect 48 0 136 0;
#X connect 49 0 43 1;
#X connect 49 0 47 0;
#X connect 50 0 52 0;
#X connect 51 0 50 0;
#X connect 51 1 53 0;
#X connect 52 0 132 0;
#X connect 53 0 52 1;
#X connect 54 0 55 0;
#X connect 55 0 118 0;
#X connect 56 0 58 0;
#X connect 57 0 56 0;
#X connect 57 1 59 0;
#X connect 58 0 62 0;
#X connect 59 0 58 1;
#X connect 60 0 61 0;
#X connect 61 0 1 0;
#X connect 61 0 137 0;
#X connect 62 0 56 1;
#X connect 62 0 60 0;
#X connect 63 0 65 0;
#X connect 64 0 63 0;
#X connect 64 1 66 0;
#X connect 65 0 133 0;
#X connect 66 0 65 1;
#X connect 67 0 68 0;
#X connect 68 0 125 0;
#X connect 69 0 71 0;
#X connect 70 0 69 0;
#X connect 70 1 72 0;
#X connect 71 0 75 0;
#X connect 72 0 71 1;
#X connect 73 0 74 0;
#X connect 74 0 1 0;
#X connect 74 0 138 0;
#X connect 75 0 69 1;
#X connect 75 0 73 0;
#X connect 76 0 78 0;
#X connect 77 0 76 0;
#X connect 77 1 79 0;
#X connect 78 0 139 0;
#X connect 79 0 78 1;
#X connect 80 0 81 0;
#X connect 81 0 141 0;
#X connect 81 0 1 0;
#X connect 82 0 84 0;
#X connect 83 0 82 0;
#X connect 83 1 85 0;
#X connect 84 0 140 0;
#X connect 85 0 84 1;
#X connect 86 0 87 0;
#X connect 87 0 142 0;
#X connect 87 0 1 0;
#X connect 88 0 90 0;
#X connect 89 0 88 0;
#X connect 89 1 91 0;
#X connect 90 0 101 0;
#X connect 91 0 90 1;
#X connect 92 0 93 0;
#X connect 93 0 28 0;
#X connect 93 0 1 0;
#X connect 94 0 96 0;
#X connect 95 0 94 0;
#X connect 95 1 97 0;
#X connect 96 0 100 0;
#X connect 97 0 96 1;
#X connect 98 0 99 0;
#X connect 99 0 1 0;
#X connect 99 0 29 0;
#X connect 100 0 94 1;
#X connect 100 0 98 0;
#X connect 101 0 88 1;
#X connect 101 0 92 0;
#X connect 102 0 109 0;
#X connect 103 0 107 0;
#X connect 103 1 106 0;
#X connect 103 2 105 0;
#X connect 104 0 12 1;
#X connect 104 0 16 0;
#X connect 105 0 18 0;
#X connect 106 0 108 0;
#X connect 107 0 102 0;
#X connect 108 0 109 1;
#X connect 109 0 1 0;
#X connect 110 0 116 0;
#X connect 111 0 114 0;
#X connect 111 1 113 0;
#X connect 111 2 112 0;
#X connect 112 0 20 0;
#X connect 113 0 115 0;
#X connect 114 0 110 0;
#X connect 115 0 116 1;
#X connect 116 0 1 0;
#X connect 116 0 134 0;
#X connect 117 0 123 0;
#X connect 118 0 121 0;
#X connect 118 1 120 0;
#X connect 118 2 119 0;
#X connect 119 0 22 0;
#X connect 120 0 122 0;
#X connect 121 0 117 0;
#X connect 122 0 123 1;
#X connect 123 0 1 0;
#X connect 124 0 130 0;
#X connect 125 0 128 0;
#X connect 125 1 127 0;
#X connect 125 2 126 0;
#X connect 126 0 24 0;
#X connect 127 0 129 0;
#X connect 128 0 124 0;
#X connect 129 0 130 1;
#X connect 130 0 1 0;
#X connect 131 0 37 1;
#X connect 131 0 41 0;
#X connect 132 0 50 1;
#X connect 132 0 54 0;
#X connect 133 0 63 1;
#X connect 133 0 67 0;
#X connect 135 0 19 0;
#X connect 136 0 21 0;
#X connect 137 0 23 0;
#X connect 138 0 25 0;
#X connect 139 0 76 1;
#X connect 139 0 80 0;
#X connect 140 0 82 1;
#X connect 140 0 86 0;
#X connect 141 0 26 0;
#X connect 142 0 27 0;
#X connect 143 0 0 0;
#X connect 144 0 0 0;
#X connect 145 0 0 0;
#X connect 146 0 0 0;
#X connect 147 0 0 0;
#X connect 148 0 0 0;
#X connect 149 0 0 0;
#X connect 150 0 0 0;
#X connect 151 0 0 0;
#X connect 152 0 9 0;
#X connect 152 0 153 0;
#X restore 1119 63 pd controller;
#N canvas 186 399 1121 627 controller 0;
#X obj 996 219 s paramdisp;
#X obj 91 452 s valuedisp;
#X obj 192 -80 unpack;
#X floatatom 187 -56 5 0 0 0 - - -, f 5;
#X floatatom 234 -57 5 0 0 0 - - -, f 5;
#X obj 166 -160 r encoders;
#X obj 973 -121 change;
#X obj 973 -100 sel 1 2 3 4 5 6 7 8 9 10 11 12;
#X obj 135 -26 route 1 2 3 4 5 6 7 8 9 10 11 12;
#X obj 164 -109 t l l;
#X obj 28 47 f;
#X obj 3 1 t b f;
#X obj 6 47 +;
#X obj 29 25 / 4;
#X obj 8 89 i;
#X obj 8 111 change;
#X obj 50 361 outlet;
#X obj 109 399 outlet;
#X obj 187 400 outlet;
#X obj 271 404 outlet;
#X obj 354 409 outlet;
#X obj 434 415 outlet;
#X obj 502 417 outlet;
#X obj 583 422 outlet;
#X obj 667 427 outlet;
#X obj 753 433 outlet;
#X obj 835 441 outlet;
#X obj 920 460 outlet;
#X obj 109 47 f;
#X obj 84 1 t b f;
#X obj 87 47 +;
#X obj 110 25 / 4;
#X obj 89 89 i;
#X obj 89 113 change;
#X obj 87 68 clip 1 5000;
#X obj 188 48 f;
#X obj 163 2 t b f;
#X obj 166 48 +;
#X obj 189 26 / 4;
#X obj 168 90 i;
#X obj 168 112 change;
#X obj 274 47 f;
#X obj 249 1 t b f;
#X obj 252 47 +;
#X obj 275 25 / 4;
#X obj 254 89 i;
#X obj 254 111 change;
#X obj 252 68 clip 1 5000;
#X obj 355 47 f;
#X obj 330 1 t b f;
#X obj 333 47 +;
#X obj 356 25 / 4;
#X obj 335 89 i;
#X obj 335 111 change;
#X obj 434 48 f;
#X obj 409 2 t b f;
#X obj 412 48 +;
#X obj 435 26 / 4;
#X obj 414 90 i;
#X obj 415 113 change;
#X obj 412 69 clip 1 5000;
#X obj 512 44 f;
#X obj 487 -2 t b f;
#X obj 490 44 +;
#X obj 513 22 / 4;
#X obj 492 86 i;
#X obj 492 108 change;
#X obj 593 44 f;
#X obj 568 -2 t b f;
#X obj 571 44 +;
#X obj 594 22 / 4;
#X obj 573 86 i;
#X obj 573 108 change;
#X obj 571 65 clip 1 5000;
#X obj 672 45 f;
#X obj 647 -1 t b f;
#X obj 650 45 +;
#X obj 673 23 / 4;
#X obj 652 87 i;
#X obj 652 109 change;
#X obj 758 44 f;
#X obj 733 -2 t b f;
#X obj 736 44 +;
#X obj 759 22 / 4;
#X obj 738 86 i;
#X obj 737 110 change;
#X obj 839 44 f;
#X obj 814 -2 t b f;
#X obj 817 44 +;
#X obj 840 22 / 4;
#X obj 819 86 i;
#X obj 814 110 change;
#X obj 918 45 f;
#X obj 893 -1 t b f;
#X obj 896 45 +;
#X obj 919 23 / 4;
#X obj 898 87 i;
#X obj 899 108 change;
#X obj 896 66 clip 1 5000;
#X obj 817 65 clip 0 4095;
#X obj 16 259 i;
#X obj 15 162 t f f f;
#X obj 6 68 clip 0 4095;
#X obj 56 290 / 4095;
#X obj 39 193 mod 34.125;
#X obj 14 235 / 409.5;
#X obj 38 214 / 34.125;
#X obj 18 282 +;
#X obj 162 260 i;
#X obj 161 163 t f f f;
#X obj 202 291 / 4095;
#X obj 185 194 mod 34.125;
#X obj 160 236 / 409.5;
#X obj 184 215 / 34.125;
#X obj 154 290 +;
#X obj 332 261 i;
#X obj 331 164 t f f f;
#X obj 391 294 / 4095;
#X obj 355 195 mod 34.125;
#X obj 330 237 / 409.5;
#X obj 354 216 / 34.125;
#X obj 334 284 +;
#X obj 492 261 i;
#X obj 491 164 t f f f;
#X obj 532 292 / 4095;
#X obj 515 195 mod 34.125;
#X obj 490 237 / 409.5;
#X obj 514 216 / 34.125;
#X obj 494 284 +;
#X obj 166 69 clip 0 4095;
#X obj 333 68 clip 0 4095;
#X obj 491 65 clip 0 4095;
#X floatatom 154 312 5 0 0 0 - - -, f 5;
#X obj 108 144 / 5000;
#X obj 266 145 / 5000;
#X obj 430 146 / 5000;
#X obj 591 149 / 5000;
#X obj 733 135 / 6;
#X obj 737 65 clip 1 6;
#X obj 650 65 clip 0 5;
#X obj 661 149 / 5;
#X obj 161 -139 route 0;
#X msg 954 -62 CarrierInit;
#X msg 960 -37 CarrierT1;
#X msg 970 -17 CarrierL1;
#X msg 981 10 CarrierT2;
#X msg 991 30 CarrierL2;
#X msg 1011 54 CarrierT3;
#X msg 1021 74 CarrierL3;
#X msg 1035 97 CarrierRelease;
#X msg 1046 117 CarrierLoopStart;
#X msg 1056 142 CarrierLoopEnd;
#X msg 1077 173 CarrierVelocity;
#X obj 885 178 / 5000;
#X obj 817 196 / 5000;
#X obj 288 -122 s Op1change;
#X connect 2 0 3 0;
#X connect 2 0 6 0;
#X connect 2 1 4 0;
#X connect 5 0 141 0;
#X connect 6 0 7 0;
#X connect 7 0 142 0;
#X connect 7 1 143 0;
#X connect 7 2 144 0;
#X connect 7 3 145 0;
#X connect 7 4 146 0;
#X connect 7 5 147 0;
#X connect 7 6 148 0;
#X connect 7 7 149 0;
#X connect 7 8 150 0;
#X connect 7 9 151 0;
#X connect 7 10 152 0;
#X connect 8 0 11 0;
#X connect 8 1 29 0;
#X connect 8 2 36 0;
#X connect 8 3 42 0;
#X connect 8 4 49 0;
#X connect 8 5 55 0;
#X connect 8 6 62 0;
#X connect 8 7 68 0;
#X connect 8 8 75 0;
#X connect 8 9 81 0;
#X connect 8 10 87 0;
#X connect 8 11 93 0;
#X connect 9 0 8 0;
#X connect 9 1 2 0;
#X connect 10 0 12 0;
#X connect 11 0 10 0;
#X connect 11 1 13 0;
#X connect 12 0 102 0;
#X connect 13 0 12 1;
#X connect 14 0 15 0;
#X connect 15 0 101 0;
#X connect 28 0 30 0;
#X connect 29 0 28 0;
#X connect 29 1 31 0;
#X connect 30 0 34 0;
#X connect 31 0 30 1;
#X connect 32 0 33 0;
#X connect 33 0 1 0;
#X connect 33 0 133 0;
#X connect 34 0 28 1;
#X connect 34 0 32 0;
#X connect 35 0 37 0;
#X connect 36 0 35 0;
#X connect 36 1 38 0;
#X connect 37 0 129 0;
#X connect 38 0 37 1;
#X connect 39 0 40 0;
#X connect 40 0 109 0;
#X connect 41 0 43 0;
#X connect 42 0 41 0;
#X connect 42 1 44 0;
#X connect 43 0 47 0;
#X connect 44 0 43 1;
#X connect 45 0 46 0;
#X connect 46 0 1 0;
#X connect 46 0 134 0;
#X connect 47 0 41 1;
#X connect 47 0 45 0;
#X connect 48 0 50 0;
#X connect 49 0 48 0;
#X connect 49 1 51 0;
#X connect 50 0 130 0;
#X connect 51 0 50 1;
#X connect 52 0 53 0;
#X connect 53 0 116 0;
#X connect 54 0 56 0;
#X connect 55 0 54 0;
#X connect 55 1 57 0;
#X connect 56 0 60 0;
#X connect 57 0 56 1;
#X connect 58 0 59 0;
#X connect 59 0 1 0;
#X connect 59 0 135 0;
#X connect 60 0 54 1;
#X connect 60 0 58 0;
#X connect 61 0 63 0;
#X connect 62 0 61 0;
#X connect 62 1 64 0;
#X connect 63 0 131 0;
#X connect 64 0 63 1;
#X connect 65 0 66 0;
#X connect 66 0 123 0;
#X connect 67 0 69 0;
#X connect 68 0 67 0;
#X connect 68 1 70 0;
#X connect 69 0 73 0;
#X connect 70 0 69 1;
#X connect 71 0 72 0;
#X connect 72 0 1 0;
#X connect 72 0 136 0;
#X connect 73 0 67 1;
#X connect 73 0 71 0;
#X connect 74 0 76 0;
#X connect 75 0 74 0;
#X connect 75 1 77 0;
#X connect 76 0 139 0;
#X connect 77 0 76 1;
#X connect 78 0 79 0;
#X connect 79 0 1 0;
#X connect 79 0 140 0;
#X connect 80 0 82 0;
#X connect 81 0 80 0;
#X connect 81 1 83 0;
#X connect 82 0 138 0;
#X connect 83 0 82 1;
#X connect 84 0 85 0;
#X connect 85 0 137 0;
#X connect 85 0 1 0;
#X connect 86 0 88 0;
#X connect 87 0 86 0;
#X connect 87 1 89 0;
#X connect 88 0 99 0;
#X connect 89 0 88 1;
#X connect 90 0 91 0;
#X connect 91 0 1 0;
#X connect 91 0 154 0;
#X connect 92 0 94 0;
#X connect 93 0 92 0;
#X connect 93 1 95 0;
#X connect 94 0 98 0;
#X connect 95 0 94 1;
#X connect 96 0 97 0;
#X connect 97 0 1 0;
#X connect 97 0 153 0;
#X connect 98 0 92 1;
#X connect 98 0 96 0;
#X connect 99 0 86 1;
#X connect 99 0 90 0;
#X connect 100 0 107 0;
#X connect 101 0 105 0;
#X connect 101 1 104 0;
#X connect 101 2 103 0;
#X connect 102 0 10 1;
#X connect 102 0 14 0;
#X connect 103 0 16 0;
#X connect 104 0 106 0;
#X connect 105 0 100 0;
#X connect 106 0 107 1;
#X connect 107 0 1 0;
#X connect 108 0 114 0;
#X connect 109 0 112 0;
#X connect 109 1 111 0;
#X connect 109 2 110 0;
#X connect 110 0 18 0;
#X connect 111 0 113 0;
#X connect 112 0 108 0;
#X connect 113 0 114 1;
#X connect 114 0 1 0;
#X connect 114 0 132 0;
#X connect 115 0 121 0;
#X connect 116 0 119 0;
#X connect 116 1 118 0;
#X connect 116 2 117 0;
#X connect 117 0 20 0;
#X connect 118 0 120 0;
#X connect 119 0 115 0;
#X connect 120 0 121 1;
#X connect 121 0 1 0;
#X connect 122 0 128 0;
#X connect 123 0 126 0;
#X connect 123 1 125 0;
#X connect 123 2 124 0;
#X connect 124 0 22 0;
#X connect 125 0 127 0;
#X connect 126 0 122 0;
#X connect 127 0 128 1;
#X connect 128 0 1 0;
#X connect 129 0 35 1;
#X connect 129 0 39 0;
#X connect 130 0 48 1;
#X connect 130 0 52 0;
#X connect 131 0 61 1;
#X connect 131 0 65 0;
#X connect 133 0 17 0;
#X connect 134 0 19 0;
#X connect 135 0 21 0;
#X connect 136 0 23 0;
#X connect 137 0 25 0;
#X connect 138 0 80 1;
#X connect 138 0 84 0;
#X connect 139 0 74 1;
#X connect 139 0 78 0;
#X connect 140 0 24 0;
#X connect 141 0 9 0;
#X connect 141 0 155 0;
#X connect 142 0 0 0;
#X connect 143 0 0 0;
#X connect 144 0 0 0;
#X connect 145 0 0 0;
#X connect 146 0 0 0;
#X connect 147 0 0 0;
#X connect 148 0 0 0;
#X connect 149 0 0 0;
#X connect 150 0 0 0;
#X connect 151 0 0 0;
#X connect 152 0 0 0;
#X connect 153 0 27 0;
#X connect 154 0 26 0;
#X restore 269 58 pd controller;
#N canvas 203 366 1121 627 controller 0;
#X obj 996 219 s paramdisp;
#X obj 91 452 s valuedisp;
#X obj 192 -80 unpack;
#X floatatom 187 -56 5 0 0 0 - - -, f 5;
#X floatatom 234 -57 5 0 0 0 - - -, f 5;
#X obj 166 -160 r encoders;
#X obj 973 -121 change;
#X obj 973 -100 sel 1 2 3 4 5 6 7 8 9 10 11 12;
#X obj 135 -26 route 1 2 3 4 5 6 7 8 9 10 11 12;
#X obj 164 -109 t l l;
#X obj 28 47 f;
#X obj 3 1 t b f;
#X obj 6 47 +;
#X obj 29 25 / 4;
#X obj 8 89 i;
#X obj 8 111 change;
#X obj 50 361 outlet;
#X obj 109 399 outlet;
#X obj 187 400 outlet;
#X obj 271 404 outlet;
#X obj 354 409 outlet;
#X obj 434 415 outlet;
#X obj 502 417 outlet;
#X obj 583 422 outlet;
#X obj 667 427 outlet;
#X obj 753 433 outlet;
#X obj 835 441 outlet;
#X obj 920 460 outlet;
#X obj 109 47 f;
#X obj 84 1 t b f;
#X obj 87 47 +;
#X obj 110 25 / 4;
#X obj 89 89 i;
#X obj 89 113 change;
#X obj 87 68 clip 1 5000;
#X obj 188 48 f;
#X obj 163 2 t b f;
#X obj 166 48 +;
#X obj 189 26 / 4;
#X obj 168 90 i;
#X obj 168 112 change;
#X obj 274 47 f;
#X obj 249 1 t b f;
#X obj 252 47 +;
#X obj 275 25 / 4;
#X obj 254 89 i;
#X obj 254 111 change;
#X obj 252 68 clip 1 5000;
#X obj 355 47 f;
#X obj 330 1 t b f;
#X obj 333 47 +;
#X obj 356 25 / 4;
#X obj 335 89 i;
#X obj 335 111 change;
#X obj 434 48 f;
#X obj 409 2 t b f;
#X obj 412 48 +;
#X obj 435 26 / 4;
#X obj 414 90 i;
#X obj 415 113 change;
#X obj 412 69 clip 1 5000;
#X obj 512 44 f;
#X obj 487 -2 t b f;
#X obj 490 44 +;
#X obj 513 22 / 4;
#X obj 492 86 i;
#X obj 492 108 change;
#X obj 593 44 f;
#X obj 568 -2 t b f;
#X obj 571 44 +;
#X obj 594 22 / 4;
#X obj 573 86 i;
#X obj 573 108 change;
#X obj 571 65 clip 1 5000;
#X obj 672 45 f;
#X obj 647 -1 t b f;
#X obj 650 45 +;
#X obj 673 23 / 4;
#X obj 652 87 i;
#X obj 652 109 change;
#X obj 758 44 f;
#X obj 733 -2 t b f;
#X obj 736 44 +;
#X obj 759 22 / 4;
#X obj 738 86 i;
#X obj 737 110 change;
#X obj 839 44 f;
#X obj 814 -2 t b f;
#X obj 817 44 +;
#X obj 840 22 / 4;
#X obj 819 86 i;
#X obj 814 110 change;
#X obj 918 45 f;
#X obj 893 -1 t b f;
#X obj 896 45 +;
#X obj 919 23 / 4;
#X obj 898 87 i;
#X obj 898 109 change;
#X obj 896 66 clip 1 5000;
#X obj 817 65 clip 0 4095;
#X obj 16 259 i;
#X obj 15 162 t f f f;
#X obj 6 68 clip 0 4095;
#X obj 56 290 / 4095;
#X obj 39 193 mod 34.125;
#X obj 14 235 / 409.5;
#X obj 38 214 / 34.125;
#X obj 18 282 +;
#X obj 162 260 i;
#X obj 161 163 t f f f;
#X obj 202 291 / 4095;
#X obj 185 194 mod 34.125;
#X obj 160 236 / 409.5;
#X obj 184 215 / 34.125;
#X obj 154 290 +;
#X obj 332 261 i;
#X obj 331 164 t f f f;
#X obj 391 294 / 4095;
#X obj 355 195 mod 34.125;
#X obj 330 237 / 409.5;
#X obj 354 216 / 34.125;
#X obj 334 284 +;
#X obj 492 261 i;
#X obj 491 164 t f f f;
#X obj 532 292 / 4095;
#X obj 515 195 mod 34.125;
#X obj 490 237 / 409.5;
#X obj 514 216 / 34.125;
#X obj 494 284 +;
#X obj 166 69 clip 0 4095;
#X obj 333 68 clip 0 4095;
#X obj 491 65 clip 0 4095;
#X floatatom 154 312 5 0 0 0 - - -, f 5;
#X obj 108 144 / 5000;
#X obj 266 145 / 5000;
#X obj 430 146 / 5000;
#X obj 591 149 / 5000;
#X obj 733 135 / 6;
#X obj 737 65 clip 1 6;
#X obj 650 65 clip 0 5;
#X obj 661 149 / 5;
#X msg 954 -62 CarrierInit;
#X msg 1035 97 CarrierRelease;
#X msg 1046 117 CarrierLoopStart;
#X msg 1056 142 CarrierLoopEnd;
#X msg 1077 173 CarrierVelocity;
#X obj 161 -139 route 1;
#X msg 960 -37 CarrierT4;
#X msg 970 -17 CarrierL4;
#X msg 981 10 CarrierT5;
#X msg 991 30 CarrierL5;
#X msg 1011 54 CarrierT6;
#X msg 1021 74 CarrierL6;
#X obj 813 195 / 5000;
#X obj 274 -123 s Op1change;
#X connect 2 0 3 0;
#X connect 2 0 6 0;
#X connect 2 1 4 0;
#X connect 5 0 146 0;
#X connect 6 0 7 0;
#X connect 7 0 141 0;
#X connect 7 1 147 0;
#X connect 7 2 148 0;
#X connect 7 3 149 0;
#X connect 7 4 150 0;
#X connect 7 5 151 0;
#X connect 7 6 152 0;
#X connect 7 7 142 0;
#X connect 7 8 143 0;
#X connect 7 9 144 0;
#X connect 7 10 145 0;
#X connect 8 0 11 0;
#X connect 8 1 29 0;
#X connect 8 2 36 0;
#X connect 8 3 42 0;
#X connect 8 4 49 0;
#X connect 8 5 55 0;
#X connect 8 6 62 0;
#X connect 8 7 68 0;
#X connect 8 8 75 0;
#X connect 8 9 81 0;
#X connect 8 10 87 0;
#X connect 8 11 93 0;
#X connect 9 0 8 0;
#X connect 9 1 2 0;
#X connect 10 0 12 0;
#X connect 11 0 10 0;
#X connect 11 1 13 0;
#X connect 12 0 102 0;
#X connect 13 0 12 1;
#X connect 14 0 15 0;
#X connect 15 0 101 0;
#X connect 28 0 30 0;
#X connect 29 0 28 0;
#X connect 29 1 31 0;
#X connect 30 0 34 0;
#X connect 31 0 30 1;
#X connect 32 0 33 0;
#X connect 33 0 1 0;
#X connect 33 0 133 0;
#X connect 34 0 28 1;
#X connect 34 0 32 0;
#X connect 35 0 37 0;
#X connect 36 0 35 0;
#X connect 36 1 38 0;
#X connect 37 0 129 0;
#X connect 38 0 37 1;
#X connect 39 0 40 0;
#X connect 40 0 109 0;
#X connect 41 0 43 0;
#X connect 42 0 41 0;
#X connect 42 1 44 0;
#X connect 43 0 47 0;
#X connect 44 0 43 1;
#X connect 45 0 46 0;
#X connect 46 0 1 0;
#X connect 46 0 134 0;
#X connect 47 0 41 1;
#X connect 47 0 45 0;
#X connect 48 0 50 0;
#X connect 49 0 48 0;
#X connect 49 1 51 0;
#X connect 50 0 130 0;
#X connect 51 0 50 1;
#X connect 52 0 53 0;
#X connect 53 0 116 0;
#X connect 54 0 56 0;
#X connect 55 0 54 0;
#X connect 55 1 57 0;
#X connect 56 0 60 0;
#X connect 57 0 56 1;
#X connect 58 0 59 0;
#X connect 59 0 1 0;
#X connect 59 0 135 0;
#X connect 60 0 54 1;
#X connect 60 0 58 0;
#X connect 61 0 63 0;
#X connect 62 0 61 0;
#X connect 62 1 64 0;
#X connect 63 0 131 0;
#X connect 64 0 63 1;
#X connect 65 0 66 0;
#X connect 66 0 123 0;
#X connect 67 0 69 0;
#X connect 68 0 67 0;
#X connect 68 1 70 0;
#X connect 69 0 73 0;
#X connect 70 0 69 1;
#X connect 71 0 72 0;
#X connect 72 0 1 0;
#X connect 72 0 136 0;
#X connect 73 0 67 1;
#X connect 73 0 71 0;
#X connect 74 0 76 0;
#X connect 75 0 74 0;
#X connect 75 1 77 0;
#X connect 76 0 139 0;
#X connect 77 0 76 1;
#X connect 78 0 79 0;
#X connect 79 0 1 0;
#X connect 79 0 140 0;
#X connect 80 0 82 0;
#X connect 81 0 80 0;
#X connect 81 1 83 0;
#X connect 82 0 138 0;
#X connect 83 0 82 1;
#X connect 84 0 85 0;
#X connect 85 0 137 0;
#X connect 85 0 1 0;
#X connect 86 0 88 0;
#X connect 87 0 86 0;
#X connect 87 1 89 0;
#X connect 88 0 99 0;
#X connect 89 0 88 1;
#X connect 90 0 91 0;
#X connect 91 0 1 0;
#X connect 91 0 153 0;
#X connect 92 0 94 0;
#X connect 93 0 92 0;
#X connect 93 1 95 0;
#X connect 94 0 98 0;
#X connect 95 0 94 1;
#X connect 96 0 97 0;
#X connect 97 0 1 0;
#X connect 98 0 92 1;
#X connect 98 0 96 0;
#X connect 99 0 86 1;
#X connect 99 0 90 0;
#X connect 100 0 107 0;
#X connect 101 0 105 0;
#X connect 101 1 104 0;
#X connect 101 2 103 0;
#X connect 102 0 10 1;
#X connect 102 0 14 0;
#X connect 103 0 16 0;
#X connect 104 0 106 0;
#X connect 105 0 100 0;
#X connect 106 0 107 1;
#X connect 107 0 1 0;
#X connect 108 0 114 0;
#X connect 109 0 112 0;
#X connect 109 1 111 0;
#X connect 109 2 110 0;
#X connect 110 0 18 0;
#X connect 111 0 113 0;
#X connect 112 0 108 0;
#X connect 113 0 114 1;
#X connect 114 0 1 0;
#X connect 114 0 132 0;
#X connect 115 0 121 0;
#X connect 116 0 119 0;
#X connect 116 1 118 0;
#X connect 116 2 117 0;
#X connect 117 0 20 0;
#X connect 118 0 120 0;
#X connect 119 0 115 0;
#X connect 120 0 121 1;
#X connect 121 0 1 0;
#X connect 122 0 128 0;
#X connect 123 0 126 0;
#X connect 123 1 125 0;
#X connect 123 2 124 0;
#X connect 124 0 22 0;
#X connect 125 0 127 0;
#X connect 126 0 122 0;
#X connect 127 0 128 1;
#X connect 128 0 1 0;
#X connect 129 0 35 1;
#X connect 129 0 39 0;
#X connect 130 0 48 1;
#X connect 130 0 52 0;
#X connect 131 0 61 1;
#X connect 131 0 65 0;
#X connect 133 0 17 0;
#X connect 134 0 19 0;
#X connect 135 0 21 0;
#X connect 136 0 23 0;
#X connect 137 0 25 0;
#X connect 138 0 80 1;
#X connect 138 0 84 0;
#X connect 139 0 74 1;
#X connect 139 0 78 0;
#X connect 140 0 24 0;
#X connect 141 0 0 0;
#X connect 142 0 0 0;
#X connect 143 0 0 0;
#X connect 144 0 0 0;
#X connect 145 0 0 0;
#X connect 146 0 9 0;
#X connect 146 0 154 0;
#X connect 147 0 0 0;
#X connect 148 0 0 0;
#X connect 149 0 0 0;
#X connect 150 0 0 0;
#X connect 151 0 0 0;
#X connect 152 0 0 0;
#X connect 153 0 26 0;
#X restore 481 58 pd controller;
#N canvas 186 399 1121 627 controller 0;
#X obj 996 219 s paramdisp;
#X obj 91 452 s valuedisp;
#X obj 192 -80 unpack;
#X floatatom 187 -56 5 0 0 0 - - -, f 5;
#X floatatom 234 -57 5 0 0 0 - - -, f 5;
#X obj 166 -160 r encoders;
#X obj 973 -121 change;
#X obj 973 -100 sel 1 2 3 4 5 6 7 8 9 10 11 12;
#X obj 135 -26 route 1 2 3 4 5 6 7 8 9 10 11 12;
#X obj 164 -109 t l l;
#X obj 28 47 f;
#X obj 3 1 t b f;
#X obj 6 47 +;
#X obj 29 25 / 4;
#X obj 8 89 i;
#X obj 8 111 change;
#X obj 50 361 outlet;
#X obj 109 399 outlet;
#X obj 187 400 outlet;
#X obj 271 404 outlet;
#X obj 354 409 outlet;
#X obj 434 415 outlet;
#X obj 502 417 outlet;
#X obj 583 422 outlet;
#X obj 667 427 outlet;
#X obj 753 433 outlet;
#X obj 835 441 outlet;
#X obj 920 460 outlet;
#X obj 109 47 f;
#X obj 84 1 t b f;
#X obj 87 47 +;
#X obj 110 25 / 4;
#X obj 89 89 i;
#X obj 89 113 change;
#X obj 87 68 clip 1 5000;
#X obj 188 48 f;
#X obj 163 2 t b f;
#X obj 166 48 +;
#X obj 189 26 / 4;
#X obj 168 90 i;
#X obj 168 112 change;
#X obj 274 47 f;
#X obj 249 1 t b f;
#X obj 252 47 +;
#X obj 275 25 / 4;
#X obj 254 89 i;
#X obj 254 111 change;
#X obj 252 68 clip 1 5000;
#X obj 355 47 f;
#X obj 330 1 t b f;
#X obj 333 47 +;
#X obj 356 25 / 4;
#X obj 335 89 i;
#X obj 335 111 change;
#X obj 434 48 f;
#X obj 409 2 t b f;
#X obj 412 48 +;
#X obj 435 26 / 4;
#X obj 414 90 i;
#X obj 415 113 change;
#X obj 412 69 clip 1 5000;
#X obj 512 44 f;
#X obj 487 -2 t b f;
#X obj 490 44 +;
#X obj 513 22 / 4;
#X obj 492 86 i;
#X obj 492 108 change;
#X obj 593 44 f;
#X obj 568 -2 t b f;
#X obj 571 44 +;
#X obj 594 22 / 4;
#X obj 573 86 i;
#X obj 573 108 change;
#X obj 571 65 clip 1 5000;
#X obj 672 45 f;
#X obj 647 -1 t b f;
#X obj 650 45 +;
#X obj 673 23 / 4;
#X obj 652 87 i;
#X obj 652 109 change;
#X obj 758 44 f;
#X obj 733 -2 t b f;
#X obj 736 44 +;
#X obj 759 22 / 4;
#X obj 738 86 i;
#X obj 737 110 change;
#X obj 839 44 f;
#X obj 814 -2 t b f;
#X obj 817 44 +;
#X obj 840 22 / 4;
#X obj 819 86 i;
#X obj 814 110 change;
#X obj 918 45 f;
#X obj 893 -1 t b f;
#X obj 896 45 +;
#X obj 919 23 / 4;
#X obj 898 87 i;
#X obj 898 109 change;
#X obj 896 66 clip 1 5000;
#X obj 817 65 clip 0 4095;
#X obj 16 259 i;
#X obj 15 162 t f f f;
#X obj 6 68 clip 0 4095;
#X obj 56 290 / 4095;
#X obj 39 193 mod 34.125;
#X obj 14 235 / 409.5;
#X obj 38 214 / 34.125;
#X obj 18 282 +;
#X obj 162 260 i;
#X obj 161 163 t f f f;
#X obj 202 291 / 4095;
#X obj 185 194 mod 34.125;
#X obj 160 236 / 409.5;
#X obj 184 215 / 34.125;
#X obj 154 290 +;
#X obj 332 261 i;
#X obj 331 164 t f f f;
#X obj 391 294 / 4095;
#X obj 355 195 mod 34.125;
#X obj 330 237 / 409.5;
#X obj 354 216 / 34.125;
#X obj 334 284 +;
#X obj 492 261 i;
#X obj 491 164 t f f f;
#X obj 532 292 / 4095;
#X obj 515 195 mod 34.125;
#X obj 490 237 / 409.5;
#X obj 514 216 / 34.125;
#X obj 494 284 +;
#X obj 166 69 clip 0 4095;
#X obj 333 68 clip 0 4095;
#X obj 491 65 clip 0 4095;
#X floatatom 154 312 5 0 0 0 - - -, f 5;
#X obj 108 144 / 5000;
#X obj 266 145 / 5000;
#X obj 430 146 / 5000;
#X obj 591 149 / 5000;
#X obj 733 135 / 6;
#X obj 737 65 clip 1 6;
#X obj 650 65 clip 0 5;
#X obj 661 149 / 5;
#X msg 954 -62 ModulatorInit;
#X msg 960 -37 ModulatorT1;
#X msg 970 -17 ModulatorL1;
#X msg 981 9 ModulatorT2;
#X msg 991 30 ModulatorL2;
#X msg 1011 54 ModulatorT3;
#X msg 1021 74 ModulatorL3;
#X msg 1035 97 ModulatorRelease;
#X msg 1046 117 ModulatorLoopStart;
#X msg 1056 142 ModulatorLoopEnd;
#X msg 1077 173 ModulatorVelocity;
#X obj 161 -139 route 2;
#X obj 919 173 / 5000;
#X obj 823 219 / 5000;
#X obj 247 -119 s Op2change;
#X connect 2 0 3 0;
#X connect 2 0 6 0;
#X connect 2 1 4 0;
#X connect 5 0 152 0;
#X connect 6 0 7 0;
#X connect 7 0 141 0;
#X connect 7 1 142 0;
#X connect 7 2 143 0;
#X connect 7 3 144 0;
#X connect 7 4 145 0;
#X connect 7 5 146 0;
#X connect 7 6 147 0;
#X connect 7 7 148 0;
#X connect 7 8 149 0;
#X connect 7 9 150 0;
#X connect 7 10 151 0;
#X connect 8 0 11 0;
#X connect 8 1 29 0;
#X connect 8 2 36 0;
#X connect 8 3 42 0;
#X connect 8 4 49 0;
#X connect 8 5 55 0;
#X connect 8 6 62 0;
#X connect 8 7 68 0;
#X connect 8 8 75 0;
#X connect 8 9 81 0;
#X connect 8 10 87 0;
#X connect 8 11 93 0;
#X connect 9 0 8 0;
#X connect 9 1 2 0;
#X connect 10 0 12 0;
#X connect 11 0 10 0;
#X connect 11 1 13 0;
#X connect 12 0 102 0;
#X connect 13 0 12 1;
#X connect 14 0 15 0;
#X connect 15 0 101 0;
#X connect 28 0 30 0;
#X connect 29 0 28 0;
#X connect 29 1 31 0;
#X connect 30 0 34 0;
#X connect 31 0 30 1;
#X connect 32 0 33 0;
#X connect 33 0 1 0;
#X connect 33 0 133 0;
#X connect 34 0 28 1;
#X connect 34 0 32 0;
#X connect 35 0 37 0;
#X connect 36 0 35 0;
#X connect 36 1 38 0;
#X connect 37 0 129 0;
#X connect 38 0 37 1;
#X connect 39 0 40 0;
#X connect 40 0 109 0;
#X connect 41 0 43 0;
#X connect 42 0 41 0;
#X connect 42 1 44 0;
#X connect 43 0 47 0;
#X connect 44 0 43 1;
#X connect 45 0 46 0;
#X connect 46 0 1 0;
#X connect 46 0 134 0;
#X connect 47 0 41 1;
#X connect 47 0 45 0;
#X connect 48 0 50 0;
#X connect 49 0 48 0;
#X connect 49 1 51 0;
#X connect 50 0 130 0;
#X connect 51 0 50 1;
#X connect 52 0 53 0;
#X connect 53 0 116 0;
#X connect 54 0 56 0;
#X connect 55 0 54 0;
#X connect 55 1 57 0;
#X connect 56 0 60 0;
#X connect 57 0 56 1;
#X connect 58 0 59 0;
#X connect 59 0 1 0;
#X connect 59 0 135 0;
#X connect 60 0 54 1;
#X connect 60 0 58 0;
#X connect 61 0 63 0;
#X connect 62 0 61 0;
#X connect 62 1 64 0;
#X connect 63 0 131 0;
#X connect 64 0 63 1;
#X connect 65 0 66 0;
#X connect 66 0 123 0;
#X connect 67 0 69 0;
#X connect 68 0 67 0;
#X connect 68 1 70 0;
#X connect 69 0 73 0;
#X connect 70 0 69 1;
#X connect 71 0 72 0;
#X connect 72 0 1 0;
#X connect 72 0 136 0;
#X connect 73 0 67 1;
#X connect 73 0 71 0;
#X connect 74 0 76 0;
#X connect 75 0 74 0;
#X connect 75 1 77 0;
#X connect 76 0 139 0;
#X connect 77 0 76 1;
#X connect 78 0 79 0;
#X connect 79 0 1 0;
#X connect 79 0 140 0;
#X connect 80 0 82 0;
#X connect 81 0 80 0;
#X connect 81 1 83 0;
#X connect 82 0 138 0;
#X connect 83 0 82 1;
#X connect 84 0 85 0;
#X connect 85 0 137 0;
#X connect 85 0 1 0;
#X connect 86 0 88 0;
#X connect 87 0 86 0;
#X connect 87 1 89 0;
#X connect 88 0 99 0;
#X connect 89 0 88 1;
#X connect 90 0 91 0;
#X connect 91 0 1 0;
#X connect 91 0 154 0;
#X connect 92 0 94 0;
#X connect 93 0 92 0;
#X connect 93 1 95 0;
#X connect 94 0 98 0;
#X connect 95 0 94 1;
#X connect 96 0 97 0;
#X connect 97 0 1 0;
#X connect 97 0 153 0;
#X connect 98 0 92 1;
#X connect 98 0 96 0;
#X connect 99 0 86 1;
#X connect 99 0 90 0;
#X connect 100 0 107 0;
#X connect 101 0 105 0;
#X connect 101 1 104 0;
#X connect 101 2 103 0;
#X connect 102 0 10 1;
#X connect 102 0 14 0;
#X connect 103 0 16 0;
#X connect 104 0 106 0;
#X connect 105 0 100 0;
#X connect 106 0 107 1;
#X connect 107 0 1 0;
#X connect 108 0 114 0;
#X connect 109 0 112 0;
#X connect 109 1 111 0;
#X connect 109 2 110 0;
#X connect 110 0 18 0;
#X connect 111 0 113 0;
#X connect 112 0 108 0;
#X connect 113 0 114 1;
#X connect 114 0 1 0;
#X connect 114 0 132 0;
#X connect 115 0 121 0;
#X connect 116 0 119 0;
#X connect 116 1 118 0;
#X connect 116 2 117 0;
#X connect 117 0 20 0;
#X connect 118 0 120 0;
#X connect 119 0 115 0;
#X connect 120 0 121 1;
#X connect 121 0 1 0;
#X connect 122 0 128 0;
#X connect 123 0 126 0;
#X connect 123 1 125 0;
#X connect 123 2 124 0;
#X connect 124 0 22 0;
#X connect 125 0 127 0;
#X connect 126 0 122 0;
#X connect 127 0 128 1;
#X connect 128 0 1 0;
#X connect 129 0 35 1;
#X connect 129 0 39 0;
#X connect 130 0 48 1;
#X connect 130 0 52 0;
#X connect 131 0 61 1;
#X connect 131 0 65 0;
#X connect 133 0 17 0;
#X connect 134 0 19 0;
#X connect 135 0 21 0;
#X connect 136 0 23 0;
#X connect 137 0 25 0;
#X connect 138 0 80 1;
#X connect 138 0 84 0;
#X connect 139 0 74 1;
#X connect 139 0 78 0;
#X connect 140 0 24 0;
#X connect 141 0 0 0;
#X connect 142 0 0 0;
#X connect 143 0 0 0;
#X connect 144 0 0 0;
#X connect 145 0 0 0;
#X connect 146 0 0 0;
#X connect 147 0 0 0;
#X connect 148 0 0 0;
#X connect 149 0 0 0;
#X connect 150 0 0 0;
#X connect 151 0 0 0;
#X connect 152 0 9 0;
#X connect 152 0 155 0;
#X connect 153 0 27 0;
#X connect 154 0 26 0;
#X restore 270 299 pd controller;
#N canvas 186 421 1121 627 controller 0;
#X obj 996 219 s paramdisp;
#X obj 91 452 s valuedisp;
#X obj 192 -80 unpack;
#X floatatom 187 -56 5 0 0 0 - - -, f 5;
#X floatatom 234 -57 5 0 0 0 - - -, f 5;
#X obj 166 -160 r encoders;
#X obj 973 -121 change;
#X obj 973 -100 sel 1 2 3 4 5 6 7 8 9 10 11 12;
#X obj 135 -26 route 1 2 3 4 5 6 7 8 9 10 11 12;
#X obj 164 -109 t l l;
#X obj 28 47 f;
#X obj 3 1 t b f;
#X obj 6 47 +;
#X obj 29 25 / 4;
#X obj 8 89 i;
#X obj 8 111 change;
#X obj 50 361 outlet;
#X obj 109 399 outlet;
#X obj 187 400 outlet;
#X obj 271 404 outlet;
#X obj 354 409 outlet;
#X obj 434 415 outlet;
#X obj 502 417 outlet;
#X obj 583 422 outlet;
#X obj 667 427 outlet;
#X obj 753 433 outlet;
#X obj 835 441 outlet;
#X obj 920 460 outlet;
#X obj 109 47 f;
#X obj 84 1 t b f;
#X obj 87 47 +;
#X obj 110 25 / 4;
#X obj 89 89 i;
#X obj 89 113 change;
#X obj 87 68 clip 1 5000;
#X obj 188 48 f;
#X obj 163 2 t b f;
#X obj 166 48 +;
#X obj 189 26 / 4;
#X obj 168 90 i;
#X obj 168 112 change;
#X obj 274 47 f;
#X obj 249 1 t b f;
#X obj 252 47 +;
#X obj 275 25 / 4;
#X obj 254 89 i;
#X obj 254 111 change;
#X obj 252 68 clip 1 5000;
#X obj 355 47 f;
#X obj 330 1 t b f;
#X obj 333 47 +;
#X obj 356 25 / 4;
#X obj 335 89 i;
#X obj 335 111 change;
#X obj 434 48 f;
#X obj 409 2 t b f;
#X obj 412 48 +;
#X obj 435 26 / 4;
#X obj 414 90 i;
#X obj 415 113 change;
#X obj 412 69 clip 1 5000;
#X obj 512 44 f;
#X obj 487 -2 t b f;
#X obj 490 44 +;
#X obj 513 22 / 4;
#X obj 492 86 i;
#X obj 492 108 change;
#X obj 593 44 f;
#X obj 568 -2 t b f;
#X obj 571 44 +;
#X obj 594 22 / 4;
#X obj 573 86 i;
#X obj 573 108 change;
#X obj 571 65 clip 1 5000;
#X obj 672 45 f;
#X obj 647 -1 t b f;
#X obj 650 45 +;
#X obj 673 23 / 4;
#X obj 652 87 i;
#X obj 652 109 change;
#X obj 758 44 f;
#X obj 733 -2 t b f;
#X obj 736 44 +;
#X obj 759 22 / 4;
#X obj 738 86 i;
#X obj 737 110 change;
#X obj 839 44 f;
#X obj 814 -2 t b f;
#X obj 817 44 +;
#X obj 840 22 / 4;
#X obj 819 86 i;
#X obj 819 120 change;
#X obj 918 45 f;
#X obj 893 -1 t b f;
#X obj 896 45 +;
#X obj 919 23 / 4;
#X obj 898 87 i;
#X obj 898 109 change;
#X obj 896 66 clip 1 5000;
#X obj 817 65 clip 0 4095;
#X obj 16 259 i;
#X obj 15 162 t f f f;
#X obj 6 68 clip 0 4095;
#X obj 56 290 / 4095;
#X obj 39 193 mod 34.125;
#X obj 14 235 / 409.5;
#X obj 38 214 / 34.125;
#X obj 18 282 +;
#X obj 162 260 i;
#X obj 161 163 t f f f;
#X obj 202 291 / 4095;
#X obj 185 194 mod 34.125;
#X obj 160 236 / 409.5;
#X obj 184 215 / 34.125;
#X obj 154 290 +;
#X obj 332 261 i;
#X obj 331 164 t f f f;
#X obj 391 294 / 4095;
#X obj 355 195 mod 34.125;
#X obj 330 237 / 409.5;
#X obj 354 216 / 34.125;
#X obj 334 284 +;
#X obj 492 261 i;
#X obj 491 164 t f f f;
#X obj 532 292 / 4095;
#X obj 515 195 mod 34.125;
#X obj 490 237 / 409.5;
#X obj 514 216 / 34.125;
#X obj 494 284 +;
#X obj 166 69 clip 0 4095;
#X obj 333 68 clip 0 4095;
#X obj 491 65 clip 0 4095;
#X floatatom 154 312 5 0 0 0 - - -, f 5;
#X obj 108 144 / 5000;
#X obj 266 145 / 5000;
#X obj 430 146 / 5000;
#X obj 591 149 / 5000;
#X obj 733 135 / 6;
#X obj 737 65 clip 1 6;
#X obj 650 65 clip 0 5;
#X obj 661 149 / 5;
#X obj 161 -139 route 3;
#X msg 954 -62 ModulatorInit;
#X msg 961 -37 ModulatorT4;
#X msg 970 -17 ModulatorL4;
#X msg 981 10 ModulatorT5;
#X msg 991 30 ModulatorL5;
#X msg 1011 54 ModulatorT6;
#X msg 1021 74 ModulatorL6;
#X msg 1035 97 ModulatorRelease;
#X msg 1046 118 ModulatorLoopStart;
#X msg 1056 142 ModulatorLoopEnd;
#X msg 1077 173 ModulatorVelocity;
#X obj 899 223 / 5000;
#X obj 818 230 / 5000;
#X obj 288 -109 s Op2change;
#X connect 2 0 3 0;
#X connect 2 0 6 0;
#X connect 2 1 4 0;
#X connect 5 0 141 0;
#X connect 6 0 7 0;
#X connect 7 0 142 0;
#X connect 7 1 143 0;
#X connect 7 2 144 0;
#X connect 7 3 145 0;
#X connect 7 4 146 0;
#X connect 7 5 147 0;
#X connect 7 6 148 0;
#X connect 7 7 149 0;
#X connect 7 8 150 0;
#X connect 7 9 151 0;
#X connect 7 10 152 0;
#X connect 8 0 11 0;
#X connect 8 1 29 0;
#X connect 8 2 36 0;
#X connect 8 3 42 0;
#X connect 8 4 49 0;
#X connect 8 5 55 0;
#X connect 8 6 62 0;
#X connect 8 7 68 0;
#X connect 8 8 75 0;
#X connect 8 9 81 0;
#X connect 8 10 87 0;
#X connect 8 11 93 0;
#X connect 9 0 8 0;
#X connect 9 1 2 0;
#X connect 10 0 12 0;
#X connect 11 0 10 0;
#X connect 11 1 13 0;
#X connect 12 0 102 0;
#X connect 13 0 12 1;
#X connect 14 0 15 0;
#X connect 15 0 101 0;
#X connect 28 0 30 0;
#X connect 29 0 28 0;
#X connect 29 1 31 0;
#X connect 30 0 34 0;
#X connect 31 0 30 1;
#X connect 32 0 33 0;
#X connect 33 0 1 0;
#X connect 33 0 133 0;
#X connect 34 0 28 1;
#X connect 34 0 32 0;
#X connect 35 0 37 0;
#X connect 36 0 35 0;
#X connect 36 1 38 0;
#X connect 37 0 129 0;
#X connect 38 0 37 1;
#X connect 39 0 40 0;
#X connect 40 0 109 0;
#X connect 41 0 43 0;
#X connect 42 0 41 0;
#X connect 42 1 44 0;
#X connect 43 0 47 0;
#X connect 44 0 43 1;
#X connect 45 0 46 0;
#X connect 46 0 1 0;
#X connect 46 0 134 0;
#X connect 47 0 41 1;
#X connect 47 0 45 0;
#X connect 48 0 50 0;
#X connect 49 0 48 0;
#X connect 49 1 51 0;
#X connect 50 0 130 0;
#X connect 51 0 50 1;
#X connect 52 0 53 0;
#X connect 53 0 116 0;
#X connect 54 0 56 0;
#X connect 55 0 54 0;
#X connect 55 1 57 0;
#X connect 56 0 60 0;
#X connect 57 0 56 1;
#X connect 58 0 59 0;
#X connect 59 0 1 0;
#X connect 59 0 135 0;
#X connect 60 0 54 1;
#X connect 60 0 58 0;
#X connect 61 0 63 0;
#X connect 62 0 61 0;
#X connect 62 1 64 0;
#X connect 63 0 131 0;
#X connect 64 0 63 1;
#X connect 65 0 66 0;
#X connect 66 0 123 0;
#X connect 67 0 69 0;
#X connect 68 0 67 0;
#X connect 68 1 70 0;
#X connect 69 0 73 0;
#X connect 70 0 69 1;
#X connect 71 0 72 0;
#X connect 72 0 1 0;
#X connect 72 0 136 0;
#X connect 73 0 67 1;
#X connect 73 0 71 0;
#X connect 74 0 76 0;
#X connect 75 0 74 0;
#X connect 75 1 77 0;
#X connect 76 0 139 0;
#X connect 77 0 76 1;
#X connect 78 0 79 0;
#X connect 79 0 1 0;
#X connect 79 0 140 0;
#X connect 80 0 82 0;
#X connect 81 0 80 0;
#X connect 81 1 83 0;
#X connect 82 0 138 0;
#X connect 83 0 82 1;
#X connect 84 0 85 0;
#X connect 85 0 137 0;
#X connect 85 0 1 0;
#X connect 86 0 88 0;
#X connect 87 0 86 0;
#X connect 87 1 89 0;
#X connect 88 0 99 0;
#X connect 89 0 88 1;
#X connect 90 0 91 0;
#X connect 91 0 1 0;
#X connect 91 0 154 0;
#X connect 92 0 94 0;
#X connect 93 0 92 0;
#X connect 93 1 95 0;
#X connect 94 0 98 0;
#X connect 95 0 94 1;
#X connect 96 0 97 0;
#X connect 97 0 1 0;
#X connect 97 0 153 0;
#X connect 98 0 92 1;
#X connect 98 0 96 0;
#X connect 99 0 86 1;
#X connect 99 0 90 0;
#X connect 100 0 107 0;
#X connect 101 0 105 0;
#X connect 101 1 104 0;
#X connect 101 2 103 0;
#X connect 102 0 10 1;
#X connect 102 0 14 0;
#X connect 103 0 16 0;
#X connect 104 0 106 0;
#X connect 105 0 100 0;
#X connect 106 0 107 1;
#X connect 107 0 1 0;
#X connect 108 0 114 0;
#X connect 109 0 112 0;
#X connect 109 1 111 0;
#X connect 109 2 110 0;
#X connect 110 0 18 0;
#X connect 111 0 113 0;
#X connect 112 0 108 0;
#X connect 113 0 114 1;
#X connect 114 0 1 0;
#X connect 114 0 132 0;
#X connect 115 0 121 0;
#X connect 116 0 119 0;
#X connect 116 1 118 0;
#X connect 116 2 117 0;
#X connect 117 0 20 0;
#X connect 118 0 120 0;
#X connect 119 0 115 0;
#X connect 120 0 121 1;
#X connect 121 0 1 0;
#X connect 122 0 128 0;
#X connect 123 0 126 0;
#X connect 123 1 125 0;
#X connect 123 2 124 0;
#X connect 124 0 22 0;
#X connect 125 0 127 0;
#X connect 126 0 122 0;
#X connect 127 0 128 1;
#X connect 128 0 1 0;
#X connect 129 0 35 1;
#X connect 129 0 39 0;
#X connect 130 0 48 1;
#X connect 130 0 52 0;
#X connect 131 0 61 1;
#X connect 131 0 65 0;
#X connect 133 0 17 0;
#X connect 134 0 19 0;
#X connect 135 0 21 0;
#X connect 136 0 23 0;
#X connect 137 0 25 0;
#X connect 138 0 80 1;
#X connect 138 0 84 0;
#X connect 139 0 74 1;
#X connect 139 0 78 0;
#X connect 140 0 24 0;
#X connect 141 0 9 0;
#X connect 141 0 155 0;
#X connect 142 0 0 0;
#X connect 143 0 0 0;
#X connect 144 0 0 0;
#X connect 145 0 0 0;
#X connect 146 0 0 0;
#X connect 147 0 0 0;
#X connect 148 0 0 0;
#X connect 149 0 0 0;
#X connect 150 0 0 0;
#X connect 151 0 0 0;
#X connect 152 0 0 0;
#X connect 153 0 27 0;
#X connect 154 0 26 0;
#X restore 448 298 pd controller;
#X obj 142 79 inlet;
#X floatatom 737 57 5 -36 36 0 - #0-transpose.r #0-transpose.s, f
5;
#X text 736 78 transpose;
#N canvas 735 400 450 300 routing 0;
#X obj 238 -200 ctlin 2 1;
#X obj 236 -129 line;
#X msg 242 -156 \$1 10;
#X obj 301 -196 ctlin 19 1;
#X obj 272 -123 line;
#X msg 278 -150 \$1 10;
#X obj 147 64 s osc2pitch;
#X obj 261 21 ctlin 74 1;
#X obj 102 -133 ctlin 80 1;
#X obj 83 -186 loadbang;
#X msg 83 -163 0.5;
#X msg 147 -154 1;
#X obj 82 139 s porta;
#X obj 191 101 ctlin 16 1;
#X obj 88 116 * 10;
#X floatatom 163 44 5 0 0 0 - - -, f 5;
#X obj 148 21 r \$0-osc2pitch.s;
#X floatatom 55 -36 5 0 0 0 - - -, f 5;
#X obj 55 -58 r \$0-6stage1Op16.s;
#X obj 54 -13 s osc1vel;
#X floatatom 213 -39 5 0 0 0 - - -, f 5;
#X obj 213 -61 r \$0-6stage2Op16.s;
#X obj 212 -16 s osc2vel;
#X obj 258 45 s \$0-osc2pitch.r;
#X obj 89 88 r \$0-porta.s;
#X obj 190 123 s \$0-porta.r;
#X floatatom 154 224 5 0 0 0 - - -, f 5;
#X obj 157 176 ctlin 71 1;
#X obj 181 266 s osc1pitch;
#X floatatom 69 183 5 0 0 0 - - -, f 5;
#X obj 68 204 s osc1pitch;
#X obj 69 161 r \$0-osc1pitch.s;
#X obj 88 30 loadbang;
#X msg 88 52 2;
#X obj 377 -92 s 6stagefiltamt;
#X obj 390 -145 r \$0-filtamt.s;
#X floatatom 390 -123 5 0 0 0 - - -, f 5;
#X obj 519 -168 r \$0-resonance.s;
#X floatatom 563 -118 5 0 0 0 - - -, f 5;
#X obj 536 -61 s \$0-resonance.r;
#X obj 373 -14 s mastervol;
#X floatatom 379 29 5 0 0 0 - - -, f 5;
#X obj 383 -40 r \$0-outlev.s;
#X connect 0 0 2 0;
#X connect 2 0 1 0;
#X connect 3 0 5 0;
#X connect 5 0 4 0;
#X connect 7 0 23 0;
#X connect 9 0 10 0;
#X connect 9 0 11 0;
#X connect 13 0 25 0;
#X connect 14 0 12 0;
#X connect 16 0 15 0;
#X connect 16 0 6 0;
#X connect 18 0 17 0;
#X connect 18 0 19 0;
#X connect 21 0 20 0;
#X connect 21 0 22 0;
#X connect 24 0 14 0;
#X connect 27 0 26 0;
#X connect 27 0 28 0;
#X connect 31 0 29 0;
#X connect 31 0 30 0;
#X connect 32 0 33 0;
#X connect 33 0 6 0;
#X connect 33 0 29 0;
#X connect 35 0 36 0;
#X connect 35 0 34 0;
#X connect 37 0 38 0;
#X connect 42 0 40 0;
#X connect 42 0 41 0;
#X restore 35 265 pd routing;
#X floatatom 793 370 5 0 0 0 - #0-filtamt.r #0-filtamt.s, f 5;
#X connect 1 0 19 0;
#X connect 2 0 18 0;
#X connect 5 0 13 0;
#X connect 6 0 21 0;
#X connect 7 0 6 0;
#X connect 8 0 5 0;
#X connect 9 0 14 0;
#X connect 10 0 22 0;
#X connect 11 0 10 0;
#X connect 12 0 9 0;
#X connect 15 0 16 0;
#X connect 18 0 15 1;
#X connect 18 0 17 0;
#X connect 19 0 15 0;
#X connect 25 0 24 0;
#X connect 124 0 80 0;
#X connect 124 1 81 0;
#X connect 124 2 82 0;
#X connect 124 3 83 0;
#X connect 124 4 84 0;
#X connect 124 5 85 0;
#X connect 124 6 86 0;
#X connect 124 7 93 0;
#X connect 124 8 94 0;
#X connect 124 9 95 0;
#X connect 124 10 25 0;
#X connect 142 0 80 0;
#X connect 142 1 87 0;
#X connect 142 2 88 0;
#X connect 142 3 89 0;
#X connect 142 4 90 0;
#X connect 142 5 91 0;
#X connect 142 6 92 0;
#X connect 142 7 93 0;
#X connect 142 8 94 0;
#X connect 142 9 95 0;
#X connect 142 10 25 0;
#X connect 143 0 29 0;
#X connect 143 1 30 0;
#X connect 143 2 31 0;
#X connect 143 3 32 0;
#X connect 143 4 33 0;
#X connect 143 5 34 0;
#X connect 143 6 35 0;
#X connect 143 7 42 0;
#X connect 143 8 43 0;
#X connect 143 9 44 0;
#X connect 143 10 45 0;
#X connect 144 0 29 0;
#X connect 144 1 36 0;
#X connect 144 2 37 0;
#X connect 144 3 38 0;
#X connect 144 4 39 0;
#X connect 144 5 40 0;
#X connect 144 6 41 0;
#X connect 144 7 42 0;
#X connect 144 8 43 0;
#X connect 144 9 44 0;
#X connect 144 10 45 0;
#X connect 145 0 46 0;
#X connect 145 1 47 0;
#X connect 145 2 48 0;
#X connect 145 3 49 0;
#X connect 145 4 50 0;
#X connect 145 5 51 0;
#X connect 145 6 52 0;
#X connect 145 7 59 0;
#X connect 145 8 60 0;
#X connect 145 9 61 0;
#X connect 145 10 62 0;
#X connect 146 0 46 0;
#X connect 146 1 53 0;
#X connect 146 2 54 0;
#X connect 146 3 55 0;
#X connect 146 4 56 0;
#X connect 146 5 57 0;
#X connect 146 6 58 0;
#X connect 146 7 59 0;
#X connect 146 8 60 0;
#X connect 146 9 61 0;
#X connect 146 10 62 0;
#X connect 147 0 103 0;
#X coords 0 0 1 1 1600 1000 0;
