#N struct plot-help-array2-template float x float y;
#N struct plot-help-template float x float y array array2 plot-help-array2-template
;
#N struct envelopedisplay-template float x float y array array2 plot-help-array2-template
;
#N struct structure_02 float x0 float y0 float x1 float y1 float x2
float y2 float x3 float y3 float x4 float y4 float x5 float y5 float
x6 float y6 float x7 float y7;
#N struct structure_01 float x0 float y0 float x1 float y1 float x2
float y2 float x3 float y3 float x4 float y4 float x5 float y5 float
x6 float y6 float x7 float y7;
#N canvas 296 43 1709 961 10;
#X obj 1795 480 vsl 15 128 0 30 0 0 empty empty empty 0 -9 0 10 -261078
-1 -1 696 1;
#X floatatom 1781 457 5 0 0 0 - #0-outlev.r #0-outlev.s, f 5;
#X obj 927 748 vsl 15 128 0 1e+07 0 0 empty empty empty 0 -9 0 10 -187648
-1 -1 0 1;
#X obj 962 748 vsl 15 128 0 20000 0 0 empty empty empty 0 -9 0 10 -187648
-1 -1 0 1;
#X floatatom 961 722 10 0 0 0 - #0-lfo1amt.r #0-lfo1amt.s, f 10;
#X floatatom 892 722 10 0 0 0 - #0-lfo1rate.r #0-lfo1rate.s, f 10
;
#X obj 1047 748 vsl 15 128 0 1e+07 0 0 empty empty empty 0 -9 0 10
-187968 -1 -1 0 1;
#X obj 1081 748 vsl 15 128 -64 1000 0 0 empty empty empty 0 -9 0 10
-187968 -1 -1 0 1;
#X floatatom 1084 730 5 0 0 0 - - -, f 5;
#X floatatom 1045 733 5 0 0 0 - - -, f 5;
#X obj 1116 748 vsl 15 128 0 1e+07 0 0 empty empty empty 0 -9 0 10
-188096 -1 -1 0 1;
#X obj 1151 748 vsl 15 128 0 20000 0 0 empty empty empty 0 -9 0 10
-188096 -1 -1 0 1;
#X floatatom 1152 730 5 0 0 0 - - -, f 5;
#X floatatom 1116 730 5 0 0 0 - - -, f 5;
#X obj 1177 877 s lfo2rate;
#X obj 1247 877 s lfo3rate;
#X obj 126 271 ctlin 2 1;
#X obj 124 342 line;
#X msg 130 315 \$1 10;
#X obj 1067 918 *~;
#X obj 1068 950 send~ pitchlfo;
#X floatatom 1135 927 5 0 0 0 - - -, f 5;
#X obj 1115 894 * 0.2;
#X obj 1056 888 osc~ 10;
#X obj 189 275 ctlin 19 1;
#X obj 160 348 line;
#X msg 166 321 \$1 10;
#X obj 35 535 s osc2pitch;
#X floatatom 762 674 5 0 0 0 - #0-osc2pitch.r #0-osc2pitch.s, f 5
;
#X obj 141 494 ctlin 74 1;
#X obj -10 338 ctlin 80 1;
#X obj -29 285 loadbang;
#X msg -29 308 0.5;
#X obj 1864 626 s mastervol;
#X msg 35 317 1;
#X obj 1193 929 s lfo2amt;
#X obj 1260 929 s lfo3amt;
#X obj 1800 846 outlet~;
#X obj -23 613 s porta;
#X floatatom 1782 379 5 0 0 0 - #0-porta.r #0-porta.s, f 5;
#X obj 79 572 ctlin 16 1;
#X obj -24 587 * 10;
#X obj 1764 990 s resonance;
#X obj 1760 710 vsl 19 155 0 100 0 0 empty empty empty 0 -9 0 10 -262144
-1 -1 0 1;
#X obj 1654 990 s 6stagefiltamt;
#X obj 1727 709 vsl 19 157 0 4095 0 0 empty empty empty 0 -9 0 10 -262144
-1 -1 0 1;
#N canvas 1867 25 1209 777 presets 0;
#X obj 8 -297 cnv 15 320 180 empty empty empty 20 12 0 14 -261234 -66577
0;
#X obj 8 -107 cnv 15 320 350 empty empty empty 20 12 0 14 -204786 -66577
0;
#X obj 18 123 textfile;
#X obj 18 33 until;
#X msg 18 203 \; \$1-\$2.r \$3 \;;
#X obj 18 -97 r \$0-load.s;
#X obj 18 163 list prepend \$0;
#X obj 18 183 list trim;
#X obj 18 -287 r \$0-save.s;
#X obj 18 -77 openpanel;
#X obj 18 60 s \$0-to.textfile;
#X obj 18 -157 s \$0-to.textfile;
#X obj 63 143 s \$0-stop.loop;
#X obj 45 13 r \$0-stop.loop;
#X obj 18 103 r \$0-to.textfile;
#X msg 37 -37 read \$1 \, rewind;
#X msg 148 -20 label \$1;
#X obj 18 -57 t b s s;
#X msg 52 -227 clear;
#X obj 148 0 s \$0-preset.name.r;
#X obj 18 -267 savepanel;
#X msg 158 -230 write \$1;
#X msg 18 -187 write \$1;
#X obj 18 -247 t s b b s;
#X obj 148 -80 loadbang;
#X text 517 -198 SEND: \$0-<parameter_name>.s;
#X text 517 -178 RECEIVE: \$0-<parameter_name>.r;
#X obj 148 -60 symbol no_preset_loaded;
#X obj 148 -40 makefilename PRESET_FILE:%s;
#X text 517 -288 In order for a parameter that is in the parent patch
to be saved in the preset file \, here there needs to be a 'save.param'
abstraction with the name of that parameter as the second argument
(whilst the first argument is always \$0). The send and receive symbols
for each parameter must be formated in this way:;
#X obj 35 -207 s \$0-get.values;
#X text 517 -148 With this method you still have to create a new 'save.param'
abstraction for every parameter to be saved in the presets \, but at
least there is no need to patch all the send and receives.;
#X obj 348 -287 save.param \$0 6stage1Op0;
#X obj 349 -267 save.param \$0 6stage1Op1;
#X obj 348 -247 save.param \$0 6stage1Op2;
#X obj 349 -227 save.param \$0 6stage1Op3;
#X obj 347 -207 save.param \$0 6stage1Op4;
#X obj 347 -187 save.param \$0 6stage1Op5;
#X obj 347 -167 save.param \$0 6stage1Op6;
#X obj 347 -147 save.param \$0 6stage1Op7;
#X obj 347 -127 save.param \$0 6stage1Op8;
#X obj 347 -107 save.param \$0 6stage1Op9;
#X obj 347 -87 save.param \$0 6stage1Op10;
#X obj 347 -67 save.param \$0 6stage1Op11;
#X obj 346 -47 save.param \$0 6stage1Op12;
#X obj 348 -26 save.param \$0 6stage1Op13;
#X obj 346 -7 save.param \$0 6stage1Op14;
#X obj 346 13 save.param \$0 6stage1Op15;
#X obj 346 33 save.param \$0 6stage1Op16;
#X obj 348 59 save.param \$0 6stage2Op0;
#X obj 349 79 save.param \$0 6stage2Op1;
#X obj 348 99 save.param \$0 6stage2Op2;
#X obj 349 119 save.param \$0 6stage2Op3;
#X obj 347 139 save.param \$0 6stage2Op4;
#X obj 347 159 save.param \$0 6stage2Op5;
#X obj 347 179 save.param \$0 6stage2Op6;
#X obj 347 199 save.param \$0 6stage2Op7;
#X obj 347 219 save.param \$0 6stage2Op8;
#X obj 347 239 save.param \$0 6stage2Op9;
#X obj 347 259 save.param \$0 6stage2Op10;
#X obj 347 279 save.param \$0 6stage2Op11;
#X obj 346 299 save.param \$0 6stage2Op12;
#X obj 348 320 save.param \$0 6stage2Op13;
#X obj 346 339 save.param \$0 6stage2Op14;
#X obj 346 359 save.param \$0 6stage2Op15;
#X obj 346 379 save.param \$0 6stage2Op16;
#X obj 527 -70 save.param \$0 6stagefilt0;
#X obj 528 -50 save.param \$0 6stagefilt1;
#X obj 527 -30 save.param \$0 6stagefilt2;
#X obj 528 -10 save.param \$0 6stagefilt3;
#X obj 526 10 save.param \$0 6stagefilt4;
#X obj 526 30 save.param \$0 6stagefilt5;
#X obj 526 50 save.param \$0 6stagefilt6;
#X obj 526 70 save.param \$0 6stagefilt7;
#X obj 526 90 save.param \$0 6stagefilt8;
#X obj 526 110 save.param \$0 6stagefilt9;
#X obj 526 130 save.param \$0 6stagefilt10;
#X obj 526 150 save.param \$0 6stagefilt11;
#X obj 525 170 save.param \$0 6stagefilt12;
#X obj 527 191 save.param \$0 6stagefilt13;
#X obj 525 210 save.param \$0 6stagefilt14;
#X obj 525 230 save.param \$0 6stagefilt15;
#X obj 525 250 save.param \$0 6stagefilt16;
#X obj 726 -69 save.param \$0 osc2pitch;
#X obj 730 -29 save.param \$0 porta;
#X obj 728 -10 save.param \$0 lfo1amt;
#X obj 728 10 save.param \$0 lfo1rate;
#X obj 729 75 save.param \$0 resonance;
#X obj 733 104 save.param \$0 outlev;
#X obj 728 30 save.param \$0 filtamt;
#X connect 2 0 6 0;
#X connect 2 1 12 0;
#X connect 3 0 10 0;
#X connect 5 0 9 0;
#X connect 6 0 7 0;
#X connect 7 0 4 0;
#X connect 8 0 20 0;
#X connect 9 0 17 0;
#X connect 13 0 3 1;
#X connect 14 0 2 0;
#X connect 15 0 10 0;
#X connect 16 0 19 0;
#X connect 17 0 3 0;
#X connect 17 1 15 0;
#X connect 17 2 28 0;
#X connect 18 0 11 0;
#X connect 20 0 23 0;
#X connect 21 0 11 0;
#X connect 22 0 11 0;
#X connect 23 0 22 0;
#X connect 23 1 30 0;
#X connect 23 2 18 0;
#X connect 23 3 21 0;
#X connect 24 0 27 0;
#X connect 27 0 28 0;
#X connect 28 0 16 0;
#X restore 1854 343 pd presets;
#X obj 1794 322 bng 20 250 50 0 \$0-save.s \$0-save.r save 22 7 0 10
-261234 -1 -1;
#X obj 1744 322 bng 20 250 50 0 \$0-load.s \$0-load.r load 22 7 0 10
-204786 -1 -1;
#X obj 303 302 vsl 21 155 0 1 0 0 \$0-6stage1Op0.s \$0-6stage1Op0.r
empty 0 0 0 4 -260033 -262144 -262144 13400 0;
#X obj 329 302 vsl 21 155 0 1 0 0 \$0-6stage1Op1.s \$0-6stage1Op1.r
empty 0 0 0 4 -63617 -1 -262144 14000 0;
#X obj 355 302 vsl 21 155 0 1 0 0 \$0-6stage1Op2.s \$0-6stage1Op2.r
empty 0 0 0 4 -183361 -262144 -262144 8600 0;
#X obj 382 302 vsl 21 155 0 1 0 0 \$0-6stage1Op3.s \$0-6stage1Op3.r
empty 0 0 0 4 -63617 -1 -262144 7400 0;
#X obj 408 302 vsl 21 155 0 1 0 0 \$0-6stage1Op4.s \$0-6stage1Op4.r
empty 0 0 0 4 -183361 -262144 -262144 3100 0;
#X obj 435 302 vsl 21 155 0 1 0 0 \$0-6stage1Op5.s \$0-6stage1Op5.r
empty 0 0 0 4 -63617 -1 -262144 15400 0;
#X obj 461 302 vsl 21 155 0 1 0 0 \$0-6stage1Op6.s \$0-6stage1Op6.r
empty 0 0 0 4 -183361 -262144 -262144 11000 0;
#X obj 488 302 vsl 21 155 0 1 0 0 \$0-6stage1Op7.s \$0-6stage1Op7.r
empty 0 0 0 4 -63617 -1 -262144 11000 0;
#X obj 514 302 vsl 21 155 0 1 0 0 \$0-6stage1Op8.s \$0-6stage1Op8.r
empty 0 0 0 4 -183361 -262144 -262144 0 0;
#X obj 541 302 vsl 21 155 0 1 0 0 \$0-6stage1Op9.s \$0-6stage1Op9.r
empty 0 0 0 4 -63617 -1 -262144 9000 0;
#X obj 567 302 vsl 21 155 0 1 0 0 \$0-6stage1Op10.s \$0-6stage1Op10.r
empty 0 0 0 4 -183361 -262144 -262144 15400 0;
#X obj 594 302 vsl 21 155 0 1 0 0 \$0-6stage1Op11.s \$0-6stage1Op11.r
empty 0 0 0 4 -63617 -1 -262144 1200 0;
#X obj 620 302 vsl 21 155 0 1 0 0 \$0-6stage1Op12.s \$0-6stage1Op12.r
empty 0 0 0 4 -183361 -262144 -262144 12300 0;
#X obj 647 302 vsl 21 155 0 1 0 0 \$0-6stage1Op13.s \$0-6stage1Op13.r
empty 0 0 0 4 -63617 -1 -262144 700 0;
#X obj 673 302 vsl 21 155 0 1 0 0 \$0-6stage1Op14.s \$0-6stage1Op14.r
empty 0 0 0 4 -262144 -1 -262144 800 0;
#X obj 700 302 vsl 21 155 0 1 0 0 \$0-6stage1Op15.s \$0-6stage1Op15.r
empty 0 0 0 4 -262144 -1 -262144 13400 0;
#X obj 726 302 vsl 21 155 0 1 0 0 \$0-6stage1Op16.s \$0-6stage1Op16.r
empty 0 0 0 4 -262081 -262144 -262144 500 0;
#X obj 308 667 vsl 21 155 0 1 0 0 \$0-6stage2Op0.s \$0-6stage2Op0.r
empty 0 0 0 4 -260033 -262144 -262144 12900 0;
#X obj 334 667 vsl 21 155 0 1 0 0 \$0-6stage2Op1.s \$0-6stage2Op1.r
empty 0 0 0 4 -63617 -1 -262144 7100 0;
#X obj 360 667 vsl 21 155 0 1 0 0 \$0-6stage2Op2.s \$0-6stage2Op2.r
empty 0 0 0 4 -183361 -262144 -262144 4600 0;
#X obj 387 667 vsl 21 155 0 1 0 0 \$0-6stage2Op3.s \$0-6stage2Op3.r
empty 0 0 0 4 -63617 -1 -262144 4100 0;
#X obj 413 667 vsl 21 155 0 1 0 0 \$0-6stage2Op4.s \$0-6stage2Op4.r
empty 0 0 0 4 -183361 -262144 -262144 6700 0;
#X obj 440 667 vsl 21 155 0 1 0 0 \$0-6stage2Op5.s \$0-6stage2Op5.r
empty 0 0 0 4 -63617 -1 -262144 8000 0;
#X obj 466 667 vsl 21 155 0 1 0 0 \$0-6stage2Op6.s \$0-6stage2Op6.r
empty 0 0 0 4 -183361 -262144 -262144 11500 0;
#X obj 493 667 vsl 21 155 0 1 0 0 \$0-6stage2Op7.s \$0-6stage2Op7.r
empty 0 0 0 4 -63617 -1 -262144 13400 0;
#X obj 519 667 vsl 21 155 0 1 0 0 \$0-6stage2Op8.s \$0-6stage2Op8.r
empty 0 0 0 4 -183361 -262144 -262144 6800 0;
#X obj 546 667 vsl 21 155 0 1 0 0 \$0-6stage2Op9.s \$0-6stage2Op9.r
empty 0 0 0 4 -63617 -1 -262144 14900 0;
#X obj 572 667 vsl 21 155 0 1 0 0 \$0-6stage2Op10.s \$0-6stage2Op10.r
empty 0 0 0 4 -183361 -262144 -262144 3000 0;
#X obj 599 667 vsl 21 155 0 1 0 0 \$0-6stage2Op11.s \$0-6stage2Op11.r
empty 0 0 0 4 -63617 -1 -262144 3000 0;
#X obj 625 667 vsl 21 155 0 1 0 0 \$0-6stage2Op12.s \$0-6stage2Op12.r
empty 0 0 0 4 -183361 -262144 -262144 9200 0;
#X obj 652 667 vsl 21 155 0 1 0 0 \$0-6stage2Op13.s \$0-6stage2Op13.r
empty 0 0 0 4 -63617 -1 -262144 0 0;
#X obj 678 667 vsl 21 155 0 1 0 0 \$0-6stage2Op14.s \$0-6stage2Op14.r
empty 0 0 0 4 -262144 -1 -262144 2900 0;
#X obj 705 667 vsl 21 155 0 1 0 0 \$0-6stage2Op15.s \$0-6stage2Op15.r
empty 0 0 0 4 -262144 -1 -262144 13600 0;
#X obj 733 663 vsl 21 155 0 1 0 0 \$0-6stage2Op16.s \$0-6stage2Op16.r
empty 0 0 0 4 -262081 -262144 -262144 5600 0;
#X text 304 461 init;
#X text 334 461 T1;
#X text 436 461 T3;
#X text 487 461 T4;
#X text 542 461 T5;
#X text 598 461 T6;
#X text 361 461 L1;
#X text 410 461 L2;
#X text 386 461 T2;
#X text 515 461 L4;
#X text 567 461 L5;
#X text 621 461 L6;
#X text 652 461 R;
#X text 670 461 strt;
#X text 701 461 end;
#X text 725 461 vel;
#X text 462 461 L3;
#X obj 1248 711 vsl 21 155 0 1 0 0 \$0-6stagefilt0.s \$0-6stagefilt0.r
empty 0 0 0 4 -166657 -1 -1 10100 0;
#X obj 1274 711 vsl 21 155 0 1 0 0 \$0-6stagefilt1.s \$0-6stagefilt1.r
empty 0 0 0 4 -166658 -1 -1 2800 0;
#X obj 1300 711 vsl 21 155 0 1 0 0 \$0-6stagefilt2.s \$0-6stagefilt2.r
empty 0 0 0 4 -166659 -1 -1 0 0;
#X obj 1327 711 vsl 21 155 0 1 0 0 \$0-6stagefilt3.s \$0-6stagefilt3.r
empty 0 0 0 4 -166660 -1 -1 4200 0;
#X obj 1353 711 vsl 21 155 0 1 0 0 \$0-6stagefilt4.s \$0-6stagefilt4.r
empty 0 0 0 4 -166661 -1 -1 4700 0;
#X obj 1380 711 vsl 21 155 0 1 0 0 \$0-6stagefilt5.s \$0-6stagefilt5.r
empty 0 0 0 4 -166662 -1 -1 5400 0;
#X obj 1406 711 vsl 21 155 0 1 0 0 \$0-6stagefilt6.s \$0-6stagefilt6.r
empty 0 0 0 4 -166663 -1 -1 7500 0;
#X obj 1433 711 vsl 21 155 0 1 0 0 \$0-6stagefilt7.s \$0-6stagefilt7.r
empty 0 0 0 4 -166664 -1 -1 9700 0;
#X obj 1459 711 vsl 21 155 0 1 0 0 \$0-6stagefilt8.s \$0-6stagefilt8.r
empty 0 0 0 4 -166665 -1 -1 6700 0;
#X obj 1486 711 vsl 21 155 0 1 0 0 \$0-6stagefilt9.s \$0-6stagefilt9.r
empty 0 0 0 4 -166666 -1 -1 6100 0;
#X obj 1512 711 vsl 21 155 0 1 0 0 \$0-6stagefilt10.s \$0-6stagefilt10.r
empty 0 0 0 4 -166667 -1 -1 6900 0;
#X obj 1539 711 vsl 21 155 0 1 0 0 \$0-6stagefilt11.s \$0-6stagefilt11.r
empty 0 0 0 4 -166668 -1 -1 8500 0;
#X obj 1565 711 vsl 21 155 0 1 0 0 \$0-6stagefilt12.s \$0-6stagefilt12.r
empty 0 0 0 4 -166669 -1 -1 13600 0;
#X obj 1592 711 vsl 21 155 0 1 0 0 \$0-6stagefilt13.s \$0-6stagefilt13.r
empty 0 0 0 4 -166670 -1 -1 11500 0;
#X obj 1618 711 vsl 21 155 0 1 0 0 \$0-6stagefilt14.s \$0-6stagefilt14.r
empty 0 0 0 4 -166671 -1 -1 3600 0;
#X obj 1645 711 vsl 21 155 0 1 0 0 \$0-6stagefilt15.s \$0-6stagefilt15.r
empty 0 0 0 4 -166672 -1 -1 15400 0;
#X obj 1671 711 vsl 21 155 0 1 0 0 \$0-6stagefilt16.s \$0-6stagefilt16.r
empty 0 0 0 4 -166673 -1 -1 0 0;
#N canvas 0 28 1920 979 6stage2Op 0;
#X obj 1265 -765 r \$0-6stage2Op5.s;
#X obj 1291 -742 r \$0-6stage2Op6.s;
#X obj 1319 -722 r \$0-6stage2Op7.s;
#X obj 1339 -694 r \$0-6stage2Op8.s;
#X obj 1363 -671 r \$0-6stage2Op9.s;
#X obj 1383 -648 r \$0-6stage2Op10.s;
#X obj 1405 -624 r \$0-6stage2Op11.s;
#X obj 1434 -600 r \$0-6stage2Op12.s;
#X obj 1454 -578 r \$0-6stage2Op13.s;
#X obj 1502 -529 r \$0-6stage2Op15.s;
#X obj 1523 -501 r \$0-6stage2Op16.s;
#X obj 1478 -554 r \$0-6stage2Op14.s;
#N canvas 0 22 450 300 (subpatch) 0;
#X array 6stageOp2 17 float 23 #91fcbe black;
#A 0 1 0.820688 0.786205 0.454545 0.512987 0.383117 0 0.0779221 0.844156
0.142857 0 0.11039 0.831169 0.474026 0 0.142857 0.577922;
#X coords 0 1 17 0 442 145 1;
#X restore 587 -782 graph;
#X text 586 -778 init;
#X text 620 -777 T1;
#X text 725 -777 T3;
#X text 778 -777 T4;
#X text 829 -777 T5;
#X text 878 -777 T6;
#X text 647 -777 L1;
#X text 699 -777 L2;
#X text 672 -777 T2;
#X text 803 -777 L4;
#X text 855 -777 L5;
#X text 905 -777 L6;
#X text 936 -777 R;
#X text 951 -777 strt;
#X text 983 -777 end;
#X text 1007 -777 vel;
#X text 966 -787 loop;
#X text 752 -777 L3;
#X obj 1160 -883 r \$0-6stage2Op0.s;
#X obj 1180 -861 r \$0-6stage2Op1.s;
#X obj 1204 -837 r \$0-6stage2Op2.s;
#X obj 1227 -813 r \$0-6stage2Op3.s;
#X obj 1244 -789 r \$0-6stage2Op4.s;
#X msg 1190 -746 1;
#X msg 1220 -700 2;
#X msg 1244 -656 3;
#X msg 1248 -608 4;
#X msg 1259 -561 5;
#X msg 1275 -511 6;
#X msg 1300 -466 7;
#X msg 1350 -410 8;
#X msg 1352 -354 9;
#X msg 1372 -297 10;
#X msg 1405 -242 11;
#X msg 1436 -188 12;
#X msg 1448 -132 13;
#X msg 1498 -88 14;
#X msg 1492 -23 15;
#X msg 1537 50 16;
#X obj 1143 -811 t f b;
#X floatatom 1213 -166 5 0 0 0 - - -, f 5;
#X floatatom 1147 -161 5 0 0 0 - - -, f 5;
#X msg 1172 -788 0;
#X obj 1164 -766 t f b;
#X obj 1192 -721 t f b;
#X obj 1219 -677 t f b;
#X obj 1224 -634 t f b;
#X obj 1260 -588 t f b;
#X obj 1274 -537 t f b;
#X obj 1307 -489 t f b;
#X obj 1324 -439 t f b;
#X obj 1359 -385 t f b;
#X obj 1377 -328 t f b;
#X obj 1388 -272 t f b;
#X obj 1419 -213 t f b;
#X obj 1457 -159 t f b;
#X obj 1486 -111 t f b;
#X obj 1501 -57 t f b;
#X obj 1514 26 t f b;
#X obj 1159 -59 tabwrite 6stageOp1;
#X text 2240 -338 end;
#X text 2264 -338 vel;
#X text 2222 -353 loop;
#X obj 1154 -113 t b f;
#N canvas 0 23 1920 1031 plot-help-array2-template 0;
#X obj 0 0 cnv 15 425 20 empty \$0-pddp.cnv.subheading empty 3 12 0
14 -204280 -1 0;
#X text 7 1 [plot] Element of "array2" in "plot-help-template";
#X obj 525 507 struct plot-help-array2-template float x float y;
#X text 500 413 This data structure is defined as an element for "array2"
in "plot-help-template". No drawing instructions are associated with
this [struct]. The only graphic visible in the "plot-help-data" subwindow
is the trace itself. The thickness and color of the line are defined
solely using the 2nd [plot] object in the "plot-help-template" subwindow.
;
#X restore 2187 -184 pd plot-help-array2-template;
#X text 2377 -175 explanation is in here-->;
#X scalar plot-help-template 2208 -57 \; 154 43 \; 125 -6 \; 70 4 \;
52 37 \; 26 9 \; -18 42 \; -64 64 \; \;;
#N canvas 479 213 428 449 envelopedisplay-data 0;
#X obj 0 0 cnv 15 425 20 empty \$0-pddp.cnv.subheading empty 3 12 0
14 -204280 -1 0;
#X text 19 206 Above is a scalar defined by "plot-help-template". It
contains three arrays \, each of which has an associated [plot] object
that determines how they will be displayed.;
#X text 7 1 [plot] Window to Display Data Structures;
#X text 19 256 You can click and drag control points that correspond
to the elements of an array.;
#X text 19 286 If the [struct] that defines the array elements has
a "y" field but no "x" field \, then you can click on one control point
\, then drag horizontally to change multiple elements in one swipe
(as you can with the "Put" menu array).;
#X text 19 345 To see/edit the data itself \, select "properties" for
the scalar by right clicking on the purple square.;
#X coords 0 0 1 1 106 60 0;
#X restore 2546 -199 pd envelopedisplay-data;
#N canvas 96 163 428 436 envelopedisplay-template 0;
#X text 19 228 If a "w" variable is present in the template as for
array3 \, it is added to the line width.;
#X obj 22 127 plot curve array2 70 3 100 0;
#X obj 0 0 cnv 15 425 20 empty \$0-pddp.cnv.subheading empty 3 12 0
14 -204280 -1 0;
#X text 7 1 [plot] plot-help-template;
#X text 19 269 Here is the [struct] for all this:;
#X text 19 149 This is the green spiral (color 70 \, line width 3 \,
location (100 \, 0). Since the template for array2 contains an "x"
variable \, play ignores x spacing requests and takes x from the data
itself.;
#X obj 22 292 struct envelopedisplay-template float x float y array
array2 plot-help-array2-template;
#X restore 2538 -258 pd envelopedisplay-template;
#X obj 2702 -320 set structure_01 x0 y0 x1 y1 x2 y2 x3 y3 x4 y4 x5
y5 x6 y6 x7 y7;
#X obj 3104 -325 r pointer;
#X obj 2718 -413 bng 15 250 50 0 empty empty empty 17 7 0 10 -262144
-1 -1;
#X floatatom 2712 -442 5 0 0 0 - - -, f 5;
#X floatatom 2754 -422 5 0 0 0 - - -, f 5;
#X obj 2748 -474 * 2000;
#X obj 2740 -502 * 300;
#X floatatom 2767 -442 5 0 0 0 - - -, f 5;
#X floatatom 2795 -422 5 0 0 0 - - -, f 5;
#X obj 2796 -481 * 2000;
#X obj 2781 -502 * 300;
#X floatatom 2812 -442 5 0 0 0 - - -, f 5;
#X floatatom 2839 -422 5 0 0 0 - - -, f 5;
#X obj 2840 -482 * 2000;
#X obj 2825 -503 * 300;
#X floatatom 2856 -442 5 0 0 0 - - -, f 5;
#X floatatom 2884 -422 5 0 0 0 - - -, f 5;
#X obj 2885 -482 * 2000;
#X obj 2870 -503 * 300;
#X floatatom 2898 -442 5 0 0 0 - - -, f 5;
#X floatatom 2925 -422 5 0 0 0 - - -, f 5;
#X obj 2930 -483 * 2000;
#X obj 2915 -504 * 300;
#X floatatom 2943 -442 5 0 0 0 - - -, f 5;
#X floatatom 2975 -422 5 0 0 0 - - -, f 5;
#X obj 2980 -485 * 2000;
#X obj 2965 -506 * 300;
#X floatatom 2985 -442 5 0 0 0 - - -, f 5;
#X floatatom 3020 -422 5 0 0 0 - - -, f 5;
#X obj 3025 -487 * 2000;
#X obj 3010 -508 * 300;
#X floatatom 3028 -442 5 0 0 0 - - -, f 5;
#X floatatom 3065 -422 5 0 0 0 - - -, f 5;
#X obj 3065 -487 * 2000;
#X obj 3050 -508 * 300;
#X msg 2736 -394 0;
#X floatatom 2672 -530 5 0 0 0 - - -, f 5;
#X floatatom 2677 -497 5 0 0 0 - - -, f 5;
#X obj 2800 -354 +;
#X obj 2846 -352 +;
#X obj 2892 -354 +;
#X obj 2933 -355 +;
#X obj 2976 -352 +;
#X obj 3023 -356 +;
#X obj 3070 -355 +;
#N canvas 1979 366 450 392 template 0;
#X obj 55 326 drawpolygon 900 3 x0 y0 x1 y1 x2 y2 x3 y3 x4 y4 x5 y5
x6 y6 x7 y7;
#X obj 128 210 print;
#X floatatom 363 195 5 0 0 0 - - -, f 5;
#X symbolatom 242 187 10 0 0 0 - - -, f 10;
#X obj 278 155 unpack s p f;
#X obj 242 232 bng 15 250 50 0 empty empty empty 17 7 0 10 -262144
-1 -1;
#X obj 243 210 sel click change;
#X obj 280 234 bng 15 250 50 0 empty empty empty 17 7 0 10 -262144
-1 -1;
#X obj 299 183 s pointer;
#X obj 41 60 struct structure_02 float x0 float y0 float x1 float y1
float x2 float y2 float x3 float y3 float x4 float y4 float x5 float
y5 float x6 float y6 float x7 float y7;
#X obj 147 287 s beingclicked2;
#X obj 281 281 s beingedited2;
#X connect 3 0 6 0;
#X connect 4 0 3 0;
#X connect 4 1 8 0;
#X connect 4 2 2 0;
#X connect 6 0 5 0;
#X connect 6 0 10 0;
#X connect 6 1 7 0;
#X connect 6 1 11 0;
#X connect 9 0 1 0;
#X connect 9 0 4 0;
#X restore 1766 0 pd template;
#X obj 2384 292 pointer;
#X msg 2408 254 next;
#X floatatom 2265 591 5 0 0 0 - - -, f 5;
#X floatatom 2311 590 5 0 0 0 - - -, f 5;
#X floatatom 2355 591 5 0 0 0 - - -, f 5;
#X obj 2334 493 pointer;
#X floatatom 2331 304 5 1 1000 0 - - -, f 5;
#X obj 2331 344 t b f b;
#X obj 2340 390 until;
#X msg 2340 412 next;
#X obj 2400 507 print scalar_out_of_range;
#X obj 2279 513 pointer;
#X obj 1704 -251 set structure_01 x y k;
#X floatatom 1702 -280 5 0 0 0 - - -, f 5;
#X floatatom 1747 -279 5 0 0 0 - - -, f 5;
#X floatatom 1738 -294 5 0 0 0 - - -, f 5;
#X obj 1790 -301 pointer;
#X msg 1813 -334 next;
#X msg 1790 -361 traverse pd-datawindow_01 \, next;
#X msg 1682 -374 100 100 100;
#X floatatom 1951 172 5 0 0 0 - - -, f 5;
#X floatatom 1993 192 5 0 0 0 - - -, f 5;
#X obj 1987 140 * 2000;
#X obj 1972 109 * 300;
#X floatatom 2006 172 5 0 0 0 - - -, f 5;
#X floatatom 2034 192 5 0 0 0 - - -, f 5;
#X obj 2035 133 * 2000;
#X obj 2020 112 * 300;
#X floatatom 2051 172 5 0 0 0 - - -, f 5;
#X floatatom 2078 192 5 0 0 0 - - -, f 5;
#X obj 2079 132 * 2000;
#X obj 2064 111 * 300;
#X floatatom 2095 172 5 0 0 0 - - -, f 5;
#X floatatom 2123 192 5 0 0 0 - - -, f 5;
#X obj 2124 132 * 2000;
#X obj 2109 111 * 300;
#X floatatom 2137 172 5 0 0 0 - - -, f 5;
#X floatatom 2164 192 5 0 0 0 - - -, f 5;
#X obj 2169 131 * 2000;
#X obj 2154 110 * 300;
#X floatatom 2182 172 5 0 0 0 - - -, f 5;
#X floatatom 2214 192 5 0 0 0 - - -, f 5;
#X obj 2219 129 * 2000;
#X obj 2204 108 * 300;
#X floatatom 2224 172 5 0 0 0 - - -, f 5;
#X floatatom 2259 192 5 0 0 0 - - -, f 5;
#X obj 2264 127 * 2000;
#X obj 2249 106 * 300;
#X floatatom 2267 172 5 0 0 0 - - -, f 5;
#X floatatom 2304 192 5 0 0 0 - - -, f 5;
#X obj 2304 127 * 2000;
#X obj 2289 106 * 300;
#X msg 1945 250 0;
#X obj 1988 72 route 0 1 2 3 4 5 6 7 8 9 10 11 12 13 14 15 16;
#X floatatom 1911 84 5 0 0 0 - - -, f 5;
#X floatatom 1916 117 5 0 0 0 - - -, f 5;
#X obj 2039 260 +;
#X obj 2085 262 +;
#X obj 2131 260 +;
#X obj 2172 259 +;
#X obj 2215 262 +;
#X obj 2262 258 +;
#X obj 2307 254 +;
#X floatatom 2508 289 5 0 0 0 - - -, f 5;
#X floatatom 2397 591 5 0 0 0 - - -, f 5;
#X floatatom 2438 591 5 0 0 0 - - -, f 5;
#X floatatom 2484 591 5 0 0 0 - - -, f 5;
#X floatatom 2531 590 5 0 0 0 - - -, f 5;
#X floatatom 2573 591 5 0 0 0 - - -, f 5;
#X floatatom 2610 592 5 0 0 0 - - -, f 5;
#X floatatom 2772 598 5 0 0 0 - - -, f 5;
#X floatatom 2648 593 5 0 0 0 - - -, f 5;
#X floatatom 2694 591 5 0 0 0 - - -, f 5;
#X floatatom 2735 592 5 0 0 0 - - -, f 5;
#X floatatom 2840 591 5 0 0 0 - - -, f 5;
#X obj 2515 322 set structure_01 y4;
#X msg 2364 320 1;
#X floatatom 2806 592 5 0 0 0 - - -, f 5;
#X obj 2673 365 s pointer;
#X obj 2115 530 r pointer;
#X obj 2018 -90 t b b;
#X obj 2006 -137 bng 15 250 50 0 empty empty empty 17 7 0 10 -262144
-1 -1;
#X obj 1259 200 pack;
#X obj 1208 90 f;
#X obj 2106 -77 f;
#X obj 2157 -76 + 1;
#X obj 2067 -165 tgl 15 0 empty empty empty 17 7 0 10 -262144 -1 -1
0 1;
#X obj 2105 -111 metro 10;
#X obj 2138 -45 t f f;
#X obj 2163 7 pack;
#X msg 2228 -74 0;
#X obj 2174 -138 sel 1;
#X obj 2082 -138 t f f;
#X obj 2190 -106 t b b;
#X obj 1769 394 route 0 1 2 3 4 5 6 7 8 9 10 11 12 13 14 15 16;
#X msg 1742 358 0;
#X obj 1303 26 * 5000;
#X obj 1371 20 * 2000;
#X floatatom 1303 48 5 0 0 0 - - -, f 5;
#X floatatom 1368 47 5 0 0 0 - - -, f 5;
#X obj 1809 503 +;
#X obj 1851 506 +;
#X obj 1897 504 +;
#X obj 1938 503 +;
#X obj 1981 506 +;
#X obj 2023 500 +;
#X obj 2083 480 +;
#X obj 2227 -24 tabread 6stageOp1;
#X obj 1280 82 clip 0 5000;
#X obj 1372 78 clip 0 2000;
#X obj 2061 -24 sel 16;
#X floatatom 2110 504 5 0 0 0 - - -, f 5;
#X floatatom 2038 534 5 0 0 0 - - -, f 5;
#X obj 2319 43 t b b;
#X obj 2230 409 r beingedited;
#X obj 2230 431 bng 15 250 50 0 empty empty empty 17 7 0 10 -262144
-1 -1;
#X msg 2163 656 0;
#X obj 2872 730 r pointer;
#X obj 2196 451 t b b b;
#X obj 2401 634 f;
#X obj 2504 635 f;
#X obj 2349 632 f;
#X obj 2462 635 f;
#X obj 2549 633 f;
#X obj 2608 634 f;
#X obj 2659 636 f;
#X obj 2709 634 f;
#X msg 2848 655 0;
#X obj 2846 620 t b;
#X obj 1829 266 unpack;
#X floatatom 1829 290 5 0 0 0 - - -, f 5;
#X floatatom 1866 291 5 0 0 0 - - -, f 5;
#X floatatom 1871 358 5 0 0 0 - - -, f 5;
#X obj 1844 337 mod 2;
#X obj 1817 356 spigot;
#X obj 1825 313 t f f;
#X floatatom 1822 376 5 0 0 0 - - -, f 5;
#X obj 1774 215 sel 1 3 5 7 9 11 13;
#X obj 2082 512 t b;
#X msg 2080 554 0;
#X floatatom 1804 531 5 0 0 0 - - -, f 5;
#X floatatom 1731 501 5 0 0 0 - - -, f 5;
#X obj 1824 478 + 1;
#X obj 1869 478 + 1;
#X obj 1912 475 + 1;
#X obj 1953 475 + 1;
#X obj 1992 474 + 1;
#X obj 2037 475 + 1;
#X floatatom 1857 535 5 0 0 0 - - -, f 5;
#X floatatom 1899 536 5 0 0 0 - - -, f 5;
#X floatatom 1942 533 5 0 0 0 - - -, f 5;
#X floatatom 1981 535 5 0 0 0 - - -, f 5;
#X obj 1751 93 t b b b b b b b b b b;
#X obj 2100 437 + 1;
#X obj 2067 435 f;
#X obj 2015 431 f;
#X obj 1969 437 f;
#X obj 1912 435 f;
#X obj 1872 434 f;
#X obj 1829 433 f;
#X obj 1793 437 f;
#X obj 1750 440 f;
#X obj 1697 209 t b b a;
#X obj 2176 484 t b b b b b b b b b b;
#X floatatom 2044 576 5 0 0 0 - - -, f 5;
#X obj 2153 382 r beingclicked;
#X obj 2153 404 bng 15 250 50 0 empty empty empty 17 7 0 10 -262144
-1 -1;
#X obj 2284 632 change;
#X obj 2341 671 -;
#X obj 2281 661 t f b;
#X floatatom 2341 693 5 0 0 0 - - -, f 5;
#X floatatom 2239 651 5 0 0 0 - - -, f 5;
#N canvas 384 605 720 274 datawindow_02 0;
#X scalar structure_02 0 4188.31 922.078 1493.5 1455.55 2175.32 2495.51
3733.76 4236.77 2207.79 6172.83 974.025 6563.44 2987.01 6564.44 941.56
\;;
#X coords 0 5000 14000 0 500 150 2 0 0;
#X restore 105 105 pd datawindow_02;
#X msg 2441 247 traverse pd-datawindow_02 \, bang;
#X msg 1809 -164 \; pd-datawindow_02 clear;
#X msg 2384 390 traverse pd-datawindow_02 \, next;
#X obj 2332 539 get structure_02 x0 y0 x1 y1 x2 y2 x3 y3 x4 y4 x5 y5
x6 y6 x7 y7, f 59;
#X obj 2487 742 set structure_02 x0 y0 x1 y1 x2 y2 x3 y3 x4 y4 x5 y5
x6 y6 x7 y7;
#X obj 1725 630 set structure_02 x0 y0 x1 y1 x2 y2 x3 y3 x4 y4 x5 y5
x6 y6 x7 y7;
#X obj 1961 311 append structure_02 x0 y0 x1 y1 x2 y2 x3 y3 x4 y4 x5
y5 x6 y6 x7 y7;
#X obj 1299 144 t b f b;
#X connect 0 0 60 0;
#X connect 1 0 61 0;
#X connect 2 0 62 0;
#X connect 3 0 63 0;
#X connect 4 0 64 0;
#X connect 5 0 65 0;
#X connect 6 0 66 0;
#X connect 7 0 67 0;
#X connect 8 0 68 0;
#X connect 9 0 70 0;
#X connect 10 0 71 0;
#X connect 11 0 69 0;
#X connect 31 0 52 0;
#X connect 32 0 56 0;
#X connect 33 0 57 0;
#X connect 34 0 58 0;
#X connect 35 0 59 0;
#X connect 36 0 53 0;
#X connect 37 0 53 0;
#X connect 38 0 53 0;
#X connect 39 0 53 0;
#X connect 40 0 53 0;
#X connect 41 0 53 0;
#X connect 42 0 53 0;
#X connect 43 0 53 0;
#X connect 44 0 53 0;
#X connect 45 0 53 0;
#X connect 46 0 53 0;
#X connect 47 0 53 0;
#X connect 48 0 53 0;
#X connect 49 0 53 0;
#X connect 50 0 53 0;
#X connect 51 0 53 0;
#X connect 52 0 54 0;
#X connect 52 0 224 0;
#X connect 52 1 55 0;
#X connect 53 0 72 1;
#X connect 53 0 211 1;
#X connect 54 0 76 0;
#X connect 55 0 53 0;
#X connect 56 0 54 0;
#X connect 56 0 225 0;
#X connect 56 1 36 0;
#X connect 57 0 54 0;
#X connect 57 0 224 0;
#X connect 57 1 37 0;
#X connect 58 0 54 0;
#X connect 58 0 225 0;
#X connect 58 1 38 0;
#X connect 59 0 54 0;
#X connect 59 0 224 0;
#X connect 59 1 39 0;
#X connect 60 0 54 0;
#X connect 60 0 225 0;
#X connect 60 1 40 0;
#X connect 61 0 54 0;
#X connect 61 0 224 0;
#X connect 61 1 41 0;
#X connect 62 0 54 0;
#X connect 62 0 225 0;
#X connect 62 1 42 0;
#X connect 63 0 54 0;
#X connect 63 0 224 0;
#X connect 63 1 43 0;
#X connect 64 0 54 0;
#X connect 64 0 225 0;
#X connect 64 1 44 0;
#X connect 65 0 54 0;
#X connect 65 0 224 0;
#X connect 65 1 45 0;
#X connect 66 0 54 0;
#X connect 66 0 225 0;
#X connect 66 1 46 0;
#X connect 67 0 54 0;
#X connect 67 0 224 0;
#X connect 67 1 47 0;
#X connect 68 0 54 0;
#X connect 68 0 225 0;
#X connect 68 1 48 0;
#X connect 69 0 54 0;
#X connect 69 0 224 0;
#X connect 69 1 49 0;
#X connect 70 0 54 0;
#X connect 70 0 225 0;
#X connect 70 1 50 0;
#X connect 71 0 54 0;
#X connect 71 0 224 0;
#X connect 71 1 51 0;
#X connect 76 1 72 0;
#X connect 83 0 82 16;
#X connect 84 0 82 0;
#X connect 87 0 86 0;
#X connect 87 0 120 1;
#X connect 88 0 85 0;
#X connect 91 0 90 0;
#X connect 91 0 120 0;
#X connect 92 0 89 0;
#X connect 95 0 94 0;
#X connect 95 0 121 0;
#X connect 96 0 93 0;
#X connect 99 0 98 0;
#X connect 99 0 122 0;
#X connect 100 0 97 0;
#X connect 103 0 102 0;
#X connect 103 0 123 0;
#X connect 104 0 101 0;
#X connect 107 0 106 0;
#X connect 107 0 124 0;
#X connect 108 0 105 0;
#X connect 111 0 110 0;
#X connect 111 0 125 0;
#X connect 112 0 109 0;
#X connect 115 0 114 0;
#X connect 115 0 126 0;
#X connect 116 0 113 0;
#X connect 118 0 88 1;
#X connect 118 0 116 1;
#X connect 118 0 112 1;
#X connect 118 0 108 1;
#X connect 118 0 104 1;
#X connect 118 0 100 1;
#X connect 118 0 96 1;
#X connect 118 0 92 1;
#X connect 119 0 87 1;
#X connect 119 0 115 1;
#X connect 119 0 111 1;
#X connect 119 0 107 1;
#X connect 119 0 103 1;
#X connect 119 0 99 1;
#X connect 119 0 95 1;
#X connect 119 0 91 1;
#X connect 120 0 121 1;
#X connect 121 0 122 1;
#X connect 122 0 123 1;
#X connect 123 0 124 1;
#X connect 124 0 125 1;
#X connect 125 0 126 1;
#X connect 128 0 203 1;
#X connect 128 0 206 0;
#X connect 128 0 307 16;
#X connect 129 0 128 0;
#X connect 133 0 139 1;
#X connect 134 0 135 0;
#X connect 135 0 139 0;
#X connect 135 1 136 0;
#X connect 135 2 303 0;
#X connect 136 0 137 0;
#X connect 137 0 133 0;
#X connect 139 0 304 0;
#X connect 141 0 140 0;
#X connect 142 0 140 1;
#X connect 143 0 140 2;
#X connect 144 0 140 3;
#X connect 145 0 144 0;
#X connect 146 0 144 0;
#X connect 147 0 140 0;
#X connect 150 0 149 0;
#X connect 150 0 184 1;
#X connect 150 0 307 2;
#X connect 151 0 148 0;
#X connect 151 0 307 1;
#X connect 154 0 153 0;
#X connect 154 0 184 0;
#X connect 155 0 152 0;
#X connect 155 0 307 3;
#X connect 158 0 157 0;
#X connect 158 0 185 0;
#X connect 159 0 156 0;
#X connect 159 0 307 5;
#X connect 162 0 161 0;
#X connect 162 0 186 0;
#X connect 163 0 160 0;
#X connect 163 0 307 7;
#X connect 166 0 165 0;
#X connect 166 0 187 0;
#X connect 167 0 164 0;
#X connect 167 0 307 9;
#X connect 170 0 169 0;
#X connect 170 0 188 0;
#X connect 171 0 168 0;
#X connect 171 0 307 11;
#X connect 174 0 173 0;
#X connect 174 0 189 0;
#X connect 175 0 172 0;
#X connect 175 0 307 13;
#X connect 178 0 177 0;
#X connect 178 0 190 0;
#X connect 179 0 176 0;
#X connect 179 0 307 15;
#X connect 180 0 307 0;
#X connect 181 0 151 0;
#X connect 181 1 150 0;
#X connect 181 2 155 0;
#X connect 181 3 154 0;
#X connect 181 4 159 0;
#X connect 181 5 158 0;
#X connect 181 6 163 0;
#X connect 181 7 162 0;
#X connect 181 8 167 0;
#X connect 181 9 166 0;
#X connect 181 10 171 0;
#X connect 181 11 170 0;
#X connect 181 12 175 0;
#X connect 181 13 174 0;
#X connect 181 14 179 0;
#X connect 181 15 178 0;
#X connect 182 0 151 1;
#X connect 182 0 179 1;
#X connect 182 0 175 1;
#X connect 182 0 171 1;
#X connect 182 0 167 1;
#X connect 182 0 163 1;
#X connect 182 0 159 1;
#X connect 182 0 155 1;
#X connect 183 0 150 1;
#X connect 183 0 178 1;
#X connect 183 0 174 1;
#X connect 183 0 170 1;
#X connect 183 0 166 1;
#X connect 183 0 162 1;
#X connect 183 0 158 1;
#X connect 183 0 154 1;
#X connect 184 0 185 1;
#X connect 184 0 307 4;
#X connect 185 0 186 1;
#X connect 185 0 307 6;
#X connect 186 0 187 1;
#X connect 186 0 307 8;
#X connect 187 0 188 1;
#X connect 187 0 307 10;
#X connect 188 0 189 1;
#X connect 188 0 307 12;
#X connect 189 0 190 1;
#X connect 189 0 307 14;
#X connect 190 0 307 16;
#X connect 191 0 203 0;
#X connect 204 0 135 0;
#X connect 207 0 306 16;
#X connect 209 0 208 0;
#X connect 210 0 290 0;
#X connect 211 0 210 0;
#X connect 212 0 213 0;
#X connect 212 0 216 0;
#X connect 213 0 212 1;
#X connect 214 0 220 0;
#X connect 215 0 212 0;
#X connect 216 0 217 0;
#X connect 216 0 238 0;
#X connect 216 1 235 0;
#X connect 217 0 181 0;
#X connect 218 0 212 1;
#X connect 219 0 221 0;
#X connect 220 0 215 0;
#X connect 220 1 219 0;
#X connect 221 1 302 0;
#X connect 222 0 306 1;
#X connect 222 1 269 0;
#X connect 222 1 270 0;
#X connect 222 1 289 1;
#X connect 222 1 306 2;
#X connect 222 2 306 3;
#X connect 222 3 228 0;
#X connect 222 3 288 1;
#X connect 222 4 306 5;
#X connect 222 5 229 0;
#X connect 222 5 287 1;
#X connect 222 6 306 7;
#X connect 222 7 230 0;
#X connect 222 7 286 1;
#X connect 222 8 306 9;
#X connect 222 9 231 0;
#X connect 222 9 285 1;
#X connect 222 10 306 11;
#X connect 222 11 232 0;
#X connect 222 11 284 1;
#X connect 222 12 306 13;
#X connect 222 13 233 0;
#X connect 222 13 283 1;
#X connect 222 14 292 0;
#X connect 222 14 306 15;
#X connect 222 15 234 0;
#X connect 222 15 282 1;
#X connect 223 0 306 0;
#X connect 224 0 226 0;
#X connect 224 0 236 0;
#X connect 225 0 227 0;
#X connect 225 0 237 0;
#X connect 228 0 268 0;
#X connect 228 0 271 0;
#X connect 228 0 306 4;
#X connect 229 0 272 0;
#X connect 229 0 276 0;
#X connect 229 0 306 6;
#X connect 230 0 273 0;
#X connect 230 0 277 0;
#X connect 230 0 306 8;
#X connect 231 0 274 0;
#X connect 231 0 278 0;
#X connect 231 0 306 10;
#X connect 232 0 275 0;
#X connect 232 0 279 0;
#X connect 232 0 306 12;
#X connect 233 0 240 0;
#X connect 233 0 281 0;
#X connect 233 0 306 14;
#X connect 234 0 239 0;
#X connect 234 0 266 0;
#X connect 235 0 217 1;
#X connect 236 0 308 0;
#X connect 237 0 308 0;
#X connect 238 0 214 0;
#X connect 238 0 218 0;
#X connect 238 0 180 0;
#X connect 238 0 241 0;
#X connect 241 0 129 0;
#X connect 241 1 301 0;
#X connect 242 0 243 0;
#X connect 242 0 246 0;
#X connect 244 0 305 0;
#X connect 245 0 305 16;
#X connect 246 1 291 0;
#X connect 246 2 204 0;
#X connect 249 0 296 1;
#X connect 256 0 255 0;
#X connect 257 0 258 0;
#X connect 257 0 263 0;
#X connect 257 1 259 0;
#X connect 261 0 260 0;
#X connect 261 0 262 1;
#X connect 262 0 264 0;
#X connect 263 0 262 0;
#X connect 263 1 261 0;
#X connect 266 0 267 0;
#X connect 267 0 306 16;
#X connect 270 0 228 1;
#X connect 271 0 229 1;
#X connect 272 0 230 1;
#X connect 273 0 231 1;
#X connect 274 0 232 1;
#X connect 275 0 233 1;
#X connect 280 2 282 0;
#X connect 280 3 283 0;
#X connect 280 4 284 0;
#X connect 280 5 285 0;
#X connect 280 6 286 0;
#X connect 280 7 287 0;
#X connect 280 8 288 0;
#X connect 280 9 289 0;
#X connect 281 0 234 1;
#X connect 282 0 234 0;
#X connect 283 0 233 0;
#X connect 284 0 232 0;
#X connect 285 0 231 0;
#X connect 286 0 230 0;
#X connect 287 0 229 0;
#X connect 288 0 228 0;
#X connect 289 0 270 0;
#X connect 290 0 223 0;
#X connect 290 1 280 0;
#X connect 290 2 222 0;
#X connect 290 2 257 0;
#X connect 293 0 294 0;
#X connect 293 0 204 0;
#X connect 295 0 297 0;
#X connect 295 0 299 0;
#X connect 296 0 298 0;
#X connect 297 0 296 0;
#X connect 297 1 249 0;
#X connect 301 0 128 0;
#X connect 303 0 133 0;
#X connect 304 0 130 0;
#X connect 304 1 131 0;
#X connect 304 2 132 0;
#X connect 304 2 295 0;
#X connect 304 2 249 1;
#X connect 304 3 192 0;
#X connect 304 3 247 1;
#X connect 304 4 193 0;
#X connect 304 5 194 0;
#X connect 304 5 250 1;
#X connect 304 6 195 0;
#X connect 304 7 196 0;
#X connect 304 7 248 1;
#X connect 304 8 197 0;
#X connect 304 9 198 0;
#X connect 304 9 251 1;
#X connect 304 10 199 0;
#X connect 304 11 200 0;
#X connect 304 11 252 1;
#X connect 304 12 201 0;
#X connect 304 13 202 0;
#X connect 304 13 253 1;
#X connect 304 14 205 0;
#X connect 304 15 256 0;
#X connect 304 15 254 1;
#X connect 308 0 211 0;
#X connect 308 1 210 1;
#X connect 308 2 241 0;
#X coords 0 -1 1 1 510 160 2 100 100;
#X restore 304 844 pd 6stage2Op;
#N canvas 0 23 1920 1008 6stagefilt 0;
#X obj 625 -496 s \$0-6stage1Op0;
#X text 549 -528 30 param offset for each op/filter/lfo section;
#X obj 694 -581 table mastersy77 240;
#X obj 675 -411 tabread mastersy77;
#X floatatom 691 -454 5 0 0 0 - - -, f 5;
#X floatatom 678 -367 5 0 0 0 - - -, f 5;
#X msg 557 -587 \; mastersy77 \$1 \$2;
#X obj 89 -567 r \$0-6stagefilt1.s;
#X obj 113 -543 r \$0-6stagefilt2.s;
#X obj 135 -519 r \$0-6stagefilt3.s;
#X obj 153 -495 r \$0-6stagefilt4.s;
#X obj 174 -471 r \$0-6stagefilt5.s;
#X obj 200 -448 r \$0-6stagefilt6.s;
#X obj 228 -428 r \$0-6stagefilt7.s;
#X obj 248 -400 r \$0-6stagefilt8.s;
#X obj 272 -377 r \$0-6stagefilt9.s;
#X obj 292 -354 r \$0-6stagefilt10.s;
#X obj 314 -330 r \$0-6stagefilt11.s;
#X obj 343 -306 r \$0-6stagefilt12.s;
#X obj 363 -284 r \$0-6stagefilt13.s;
#X obj 411 -235 r \$0-6stagefilt15.s;
#X obj 432 -207 r \$0-6stagefilt16.s;
#X msg 116 -473 1;
#X msg 146 -427 2;
#X msg 170 -383 3;
#X msg 174 -335 4;
#X msg 185 -288 5;
#X msg 201 -238 6;
#X msg 226 -193 7;
#X msg 276 -137 8;
#X msg 278 -81 9;
#X msg 298 -24 10;
#X msg 331 31 11;
#X msg 362 85 12;
#X msg 374 141 13;
#X msg 424 185 14;
#X msg 418 250 15;
#X msg 463 323 16;
#X obj 69 -538 t f b;
#X floatatom 139 107 5 0 0 0 - - -, f 5;
#X floatatom 71 99 5 0 0 0 - - -, f 5;
#X msg 98 -515 0;
#X obj 90 -493 t f b;
#X obj 118 -448 t f b;
#X obj 145 -404 t f b;
#X obj 150 -361 t f b;
#X obj 186 -315 t f b;
#X obj 200 -264 t f b;
#X obj 233 -216 t f b;
#X obj 250 -166 t f b;
#X obj 285 -112 t f b;
#X obj 303 -55 t f b;
#X obj 314 1 t f b;
#X obj 345 60 t f b;
#X obj 390 114 t f b;
#X obj 412 162 t f b;
#X obj 440 226 t f b;
#X obj 440 299 t f b;
#N canvas 0 22 450 300 (subpatch) 0;
#X array 6stagefilt 17 float 23 #91fcbe black;
#A 0 0.655844 0.181818 0 0.272727 0.305195 0.350649 0.487013 0.62987
0.435065 0.396104 0.448052 0.551948 0.883117 0.746753 0.233766 1 0
;
#X coords 0 1 17 0 300 100 1;
#X restore 496 -113 graph;
#X text 779 -230 init;
#X text 792 -230 T1;
#X text 897 -230 T3;
#X text 950 -230 T4;
#X text 1001 -230 T5;
#X text 1050 -230 T6;
#X text 819 -230 L1;
#X text 871 -230 L2;
#X text 844 -230 T2;
#X text 975 -230 L4;
#X text 1027 -230 L5;
#X text 1077 -230 L6;
#X text 1108 -230 R;
#X text 1123 -230 strt;
#X text 1155 -230 end;
#X text 1179 -230 vel;
#X text 1138 -240 loop;
#X obj 1559 -313 tgl 15 0 empty empty empty 17 7 0 10 -262144 -1 -1
0 1;
#X obj 1559 -293 sel 0 1;
#X obj 1661 196 line, f 6;
#X obj 1657 -206 tabread 6stageOp1;
#X obj 1580 -260 t b b;
#X msg 1657 -229 0, f 4;
#X floatatom 1657 -184 5 0 0 0 - - -, f 5;
#X msg 1657 -163 \$1 0;
#X obj 1594 -27 tabread 6stageOp1;
#X floatatom 1610 223 8 0 0 0 - - -, f 8;
#X msg 1566 128 \$1 \$2;
#X obj 1555 -48 tabread 6stageOp1;
#X floatatom 1571 223 5 0 0 0 - - -, f 5;
#X obj 1565 103 pack;
#X obj 1515 15 delay;
#X obj 1544 -192 f;
#X obj 1580 -186 + 2;
#X obj 1549 -214 bng 15 250 50 0 empty empty empty 17 7 0 10 -262144
-1 -1;
#X floatatom 1535 223 5 0 0 0 - - -, f 5;
#X obj 1541 -158 sel 11;
#X obj 1553 -75 + 1;
#X obj 1549 -100 t f f;
#X obj 1518 -8 t b;
#X obj 1496 43 switch;
#X floatatom 1662 223 5 0 0 0 - - -, f 5;
#X obj 1370 135 tabread 6stageOp1;
#X floatatom 1427 154 5 0 0 0 - - -, f 5;
#X msg 1370 112 13;
#X msg 1368 181 0 \$1;
#X obj 1368 157 * 10000;
#X obj 869 -33 tabwrite 6stageOp1;
#X floatatom 868 -56 5 0 0 0 - - -, f 5;
#X floatatom 994 -46 5 0 0 0 - - -, f 5;
#X obj 1106 -361 bng 15 250 50 0 empty empty empty 0 -6 0 8 -262144
-1 -1;
#X obj 1106 -343 savepanel;
#X msg 1105 -321 \; array99 write \$1;
#X text 943 -351 read a text file;
#X msg 942 -331 \; array99 read 15.file.txt;
#X text 766 36 renaming an array:;
#X text 765 93 setting the bounds rectangle:;
#X text 764 147 adding x and y labels: give a point to put a tick \,
the interval between ticks \, and the number of ticks overall per large
tick.;
#X text 760 225 adding labels. Give a y value and a bunch of x values
or vice versa:;
#X text 761 291 You can also change x and y range and size in the "properties"
dialog. Note that information about size and ranges is saved \, but
ticks \, labels \, and the actual data are lost between Pd sessions.
;
#X msg 1073 -48 \; 6stageOp1 0 -1 1 -1 1 -1 1 -1 1 -1;
#X msg 766 56 \; 6stageOp1 rename george;
#X msg 767 112 \; 6stageOp1 bounds 0 -2 10 2;
#X msg 940 56 \; george rename 6stageOp1;
#X msg 1066 6 \; 6stageOp1 3 -0.5 0.5;
#X msg 1238 262 \; 6stageOp1 xlabel clear;
#X msg 997 114 \; 6stageOp1 bounds 0 1 5 0;
#X msg 1009 256 \; 6stageOp1 ylabel clear;
#X msg 771 189 \; 6stageOp1 xticks 1 2 1;
#X text 924 -230 L3;
#X msg 957 187 \; 6stageOp1 yticks 0 0.05 1;
#X obj 1691 -103 tabread 6stageOp1;
#X floatatom 1691 -81 5 0 0 0 - - -, f 5;
#X obj 1605 -123 f, f 2;
#X msg 1603 -148 1;
#X msg 1691 -126 14, f 4;
#X obj 1740 4 i;
#X floatatom 1744 86 5 0 0 0 - - -, f 5;
#X obj 1740 -16 * 5;
#X obj 1653 -336 tabread 6stageOp1;
#X floatatom 1653 -314 5 0 0 0 - - -, f 5;
#X obj 1704 -297 i;
#X floatatom 1710 -227 5 0 0 0 - - -, f 5;
#X obj 1704 -317 * 5;
#X msg 1653 -359 15, f 4;
#X obj 1707 -249 + 1;
#X obj 1707 -276 * 2;
#X obj 1742 60 + 1;
#X obj 1742 33 * 2;
#X obj 1592 -5 * 2000;
#X obj 1414 -155 tgl 15 0 empty empty empty 17 7 0 10 -262144 -1 -1
0 1;
#X obj 1427 -101 gate;
#X obj 1381 -101 gate;
#X msg 1382 -77 0;
#X obj 1380 -125 inv;
#X obj 1729 -56 sel 0;
#X obj 1774 -73 > 0;
#X obj 69 -589 r \$0-6stagefilt0.s;
#X obj 99 141 tabwrite 6stagefilt;
#X obj 387 -260 r \$0-6stagefilt14.s;
#X connect 3 0 5 0;
#X connect 4 0 3 0;
#X connect 7 0 42 0;
#X connect 8 0 43 0;
#X connect 9 0 44 0;
#X connect 10 0 45 0;
#X connect 11 0 46 0;
#X connect 12 0 47 0;
#X connect 13 0 48 0;
#X connect 14 0 49 0;
#X connect 15 0 50 0;
#X connect 16 0 51 0;
#X connect 17 0 52 0;
#X connect 18 0 53 0;
#X connect 19 0 54 0;
#X connect 20 0 56 0;
#X connect 21 0 57 0;
#X connect 22 0 39 0;
#X connect 23 0 39 0;
#X connect 24 0 39 0;
#X connect 25 0 39 0;
#X connect 26 0 39 0;
#X connect 27 0 39 0;
#X connect 28 0 39 0;
#X connect 29 0 39 0;
#X connect 30 0 39 0;
#X connect 31 0 39 0;
#X connect 32 0 39 0;
#X connect 33 0 39 0;
#X connect 34 0 39 0;
#X connect 35 0 39 0;
#X connect 36 0 39 0;
#X connect 37 0 39 0;
#X connect 38 0 40 0;
#X connect 38 1 41 0;
#X connect 39 0 157 1;
#X connect 40 0 157 0;
#X connect 41 0 39 0;
#X connect 42 0 40 0;
#X connect 42 1 22 0;
#X connect 43 0 40 0;
#X connect 43 1 23 0;
#X connect 44 0 40 0;
#X connect 44 1 24 0;
#X connect 45 0 40 0;
#X connect 45 1 25 0;
#X connect 46 0 40 0;
#X connect 46 1 26 0;
#X connect 47 0 40 0;
#X connect 47 1 27 0;
#X connect 48 0 40 0;
#X connect 48 1 28 0;
#X connect 49 0 40 0;
#X connect 49 1 29 0;
#X connect 50 0 40 0;
#X connect 50 1 30 0;
#X connect 51 0 40 0;
#X connect 51 1 31 0;
#X connect 52 0 40 0;
#X connect 52 1 32 0;
#X connect 53 0 40 0;
#X connect 53 1 33 0;
#X connect 54 0 40 0;
#X connect 54 1 34 0;
#X connect 55 0 40 0;
#X connect 55 1 35 0;
#X connect 56 0 40 0;
#X connect 56 1 36 0;
#X connect 57 0 40 0;
#X connect 57 1 37 0;
#X connect 76 0 77 0;
#X connect 76 0 99 0;
#X connect 77 0 103 0;
#X connect 77 1 80 0;
#X connect 78 0 100 0;
#X connect 79 0 82 0;
#X connect 79 0 83 0;
#X connect 80 0 93 0;
#X connect 80 0 134 0;
#X connect 80 1 81 0;
#X connect 80 1 133 0;
#X connect 80 1 143 0;
#X connect 81 0 79 0;
#X connect 83 0 78 0;
#X connect 84 0 148 0;
#X connect 86 0 78 0;
#X connect 87 0 88 0;
#X connect 87 0 89 0;
#X connect 89 0 86 0;
#X connect 90 0 99 1;
#X connect 91 0 92 0;
#X connect 91 0 94 0;
#X connect 91 0 95 0;
#X connect 91 0 97 0;
#X connect 92 0 91 1;
#X connect 93 0 91 0;
#X connect 95 0 150 1;
#X connect 95 0 151 1;
#X connect 96 0 87 0;
#X connect 97 0 96 0;
#X connect 97 0 98 0;
#X connect 97 1 84 0;
#X connect 98 0 90 0;
#X connect 99 0 93 0;
#X connect 101 0 105 0;
#X connect 103 0 101 0;
#X connect 104 0 78 0;
#X connect 105 0 104 0;
#X connect 105 0 102 0;
#X connect 105 0 85 0;
#X connect 107 0 106 0;
#X connect 108 0 106 1;
#X connect 109 0 110 0;
#X connect 110 0 111 0;
#X connect 130 0 131 0;
#X connect 130 0 154 0;
#X connect 130 0 155 0;
#X connect 132 0 91 1;
#X connect 133 0 132 0;
#X connect 134 0 130 0;
#X connect 135 0 147 0;
#X connect 137 0 135 0;
#X connect 138 0 139 0;
#X connect 138 0 142 0;
#X connect 140 0 145 0;
#X connect 142 0 140 0;
#X connect 143 0 138 0;
#X connect 144 0 141 0;
#X connect 144 0 95 1;
#X connect 145 0 144 0;
#X connect 146 0 136 0;
#X connect 146 0 132 1;
#X connect 147 0 146 0;
#X connect 148 0 90 1;
#X connect 148 0 89 1;
#X connect 148 0 85 0;
#X connect 149 0 150 0;
#X connect 149 0 153 0;
#X connect 150 0 132 0;
#X connect 151 0 152 0;
#X connect 152 0 99 0;
#X connect 153 0 151 0;
#X connect 154 1 137 0;
#X connect 155 0 149 0;
#X connect 156 0 38 0;
#X connect 158 0 55 0;
#X restore 111 708 pd 6stagefilt;
#N canvas 0 23 1920 1002 6stage1Op 0;
#X obj 128 -930 r \$0-6stage1Op5.s;
#X obj 154 -907 r \$0-6stage1Op6.s;
#X obj 182 -887 r \$0-6stage1Op7.s;
#X obj 202 -859 r \$0-6stage1Op8.s;
#X obj 226 -836 r \$0-6stage1Op9.s;
#X obj 246 -813 r \$0-6stage1Op10.s;
#X obj 268 -789 r \$0-6stage1Op11.s;
#X obj 297 -765 r \$0-6stage1Op12.s;
#X obj 317 -743 r \$0-6stage1Op13.s;
#X obj 365 -694 r \$0-6stage1Op15.s;
#X obj 386 -666 r \$0-6stage1Op16.s;
#X msg 70 -932 1;
#X msg 100 -886 2;
#X msg 124 -842 3;
#X msg 128 -794 4;
#X msg 139 -747 5;
#X msg 155 -697 6;
#X msg 180 -652 7;
#X msg 230 -596 8;
#X msg 232 -540 9;
#X msg 252 -483 10;
#X msg 285 -428 11;
#X msg 316 -374 12;
#X msg 328 -318 13;
#X msg 378 -274 14;
#X msg 372 -209 15;
#X msg 417 -136 16;
#X obj 23 -997 t f b;
#X floatatom 93 -352 5 0 0 0 - - -, f 5;
#X floatatom 27 -347 5 0 0 0 - - -, f 5;
#X msg 52 -974 0;
#X obj 44 -952 t f b;
#X obj 72 -907 t f b;
#X obj 99 -863 t f b;
#X obj 104 -820 t f b;
#X obj 140 -774 t f b;
#X obj 154 -723 t f b;
#X obj 187 -675 t f b;
#X obj 204 -625 t f b;
#X obj 239 -571 t f b;
#X obj 257 -514 t f b;
#X obj 268 -458 t f b;
#X obj 299 -399 t f b;
#X obj 337 -345 t f b;
#X obj 366 -297 t f b;
#X obj 394 -233 t f b;
#X obj 394 -160 t f b;
#X obj 341 -719 r \$0-6stage1Op14.s;
#X obj 39 -245 tabwrite 6stageOp1;
#X text 1120 -524 end;
#X text 1144 -524 vel;
#X text 1102 -539 loop;
#X obj 23 -1048 r \$0-6stage1Op0.s;
#X obj 43 -1026 r \$0-6stage1Op1.s;
#X obj 70 -999 r \$0-6stage1Op2.s;
#X obj 90 -978 r \$0-6stage1Op3.s;
#X obj 108 -954 r \$0-6stage1Op4.s;
#X obj 34 -299 t b f;
#N canvas 0 23 1920 1031 plot-help-array2-template 0;
#X obj 0 0 cnv 15 425 20 empty \$0-pddp.cnv.subheading empty 3 12 0
14 -204280 -1 0;
#X text 7 1 [plot] Element of "array2" in "plot-help-template";
#X obj 525 507 struct plot-help-array2-template float x float y;
#X text 500 413 This data structure is defined as an element for "array2"
in "plot-help-template". No drawing instructions are associated with
this [struct]. The only graphic visible in the "plot-help-data" subwindow
is the trace itself. The thickness and color of the line are defined
solely using the 2nd [plot] object in the "plot-help-template" subwindow.
;
#X restore 1067 -370 pd plot-help-array2-template;
#X text 1257 -361 explanation is in here-->;
#X scalar plot-help-template 1088 -243 \; 154 43 \; 125 -6 \; 70 4
\; 52 37 \; 26 9 \; -18 42 \; -64 64 \; \;;
#N canvas 479 213 428 449 envelopedisplay-data 0;
#X obj 0 0 cnv 15 425 20 empty \$0-pddp.cnv.subheading empty 3 12 0
14 -204280 -1 0;
#X text 19 206 Above is a scalar defined by "plot-help-template". It
contains three arrays \, each of which has an associated [plot] object
that determines how they will be displayed.;
#X text 7 1 [plot] Window to Display Data Structures;
#X text 19 256 You can click and drag control points that correspond
to the elements of an array.;
#X text 19 286 If the [struct] that defines the array elements has
a "y" field but no "x" field \, then you can click on one control point
\, then drag horizontally to change multiple elements in one swipe
(as you can with the "Put" menu array).;
#X text 19 345 To see/edit the data itself \, select "properties" for
the scalar by right clicking on the purple square.;
#X coords 0 0 1 1 106 60 0;
#X restore 1426 -385 pd envelopedisplay-data;
#N canvas 96 163 428 436 envelopedisplay-template 0;
#X text 19 228 If a "w" variable is present in the template as for
array3 \, it is added to the line width.;
#X obj 22 127 plot curve array2 70 3 100 0;
#X obj 0 0 cnv 15 425 20 empty \$0-pddp.cnv.subheading empty 3 12 0
14 -204280 -1 0;
#X text 7 1 [plot] plot-help-template;
#X text 19 269 Here is the [struct] for all this:;
#X text 19 149 This is the green spiral (color 70 \, line width 3 \,
location (100 \, 0). Since the template for array2 contains an "x"
variable \, play ignores x spacing requests and takes x from the data
itself.;
#X obj 22 292 struct envelopedisplay-template float x float y array
array2 plot-help-array2-template;
#X restore 1418 -444 pd envelopedisplay-template;
#X obj 1582 -506 set structure_01 x0 y0 x1 y1 x2 y2 x3 y3 x4 y4 x5
y5 x6 y6 x7 y7;
#X obj 1984 -511 r pointer;
#X obj 1598 -599 bng 15 250 50 0 empty empty empty 17 7 0 10 -262144
-1 -1;
#X floatatom 1592 -628 5 0 0 0 - - -, f 5;
#X floatatom 1634 -608 5 0 0 0 - - -, f 5;
#X obj 1628 -660 * 2000;
#X obj 1620 -688 * 300;
#X floatatom 1647 -628 5 0 0 0 - - -, f 5;
#X floatatom 1675 -608 5 0 0 0 - - -, f 5;
#X obj 1676 -667 * 2000;
#X obj 1661 -688 * 300;
#X floatatom 1692 -628 5 0 0 0 - - -, f 5;
#X floatatom 1719 -608 5 0 0 0 - - -, f 5;
#X obj 1720 -668 * 2000;
#X obj 1705 -689 * 300;
#X floatatom 1736 -628 5 0 0 0 - - -, f 5;
#X floatatom 1764 -608 5 0 0 0 - - -, f 5;
#X obj 1765 -668 * 2000;
#X obj 1750 -689 * 300;
#X floatatom 1778 -628 5 0 0 0 - - -, f 5;
#X floatatom 1805 -608 5 0 0 0 - - -, f 5;
#X obj 1810 -669 * 2000;
#X obj 1795 -690 * 300;
#X floatatom 1823 -628 5 0 0 0 - - -, f 5;
#X floatatom 1855 -608 5 0 0 0 - - -, f 5;
#X obj 1860 -671 * 2000;
#X obj 1845 -692 * 300;
#X floatatom 1865 -628 5 0 0 0 - - -, f 5;
#X floatatom 1900 -608 5 0 0 0 - - -, f 5;
#X obj 1905 -673 * 2000;
#X obj 1890 -694 * 300;
#X floatatom 1908 -628 5 0 0 0 - - -, f 5;
#X floatatom 1945 -608 5 0 0 0 - - -, f 5;
#X obj 1945 -673 * 2000;
#X obj 1930 -694 * 300;
#X msg 1616 -580 0;
#X floatatom 1552 -716 5 0 0 0 - - -, f 5;
#X floatatom 1557 -683 5 0 0 0 - - -, f 5;
#X obj 1680 -540 +;
#X obj 1726 -538 +;
#X obj 1772 -540 +;
#X obj 1813 -541 +;
#X obj 1856 -538 +;
#X obj 1903 -542 +;
#X obj 1950 -541 +;
#N canvas 1979 366 450 392 template 0;
#X obj 41 60 struct structure_01 float x0 float y0 float x1 float y1
float x2 float y2 float x3 float y3 float x4 float y4 float x5 float
y5 float x6 float y6 float x7 float y7;
#X obj 55 326 drawpolygon 900 3 x0 y0 x1 y1 x2 y2 x3 y3 x4 y4 x5 y5
x6 y6 x7 y7;
#X obj 281 281 s beingedited;
#X obj 128 210 print;
#X floatatom 363 195 5 0 0 0 - - -, f 5;
#X symbolatom 242 187 10 0 0 0 - - -, f 10;
#X obj 278 155 unpack s p f;
#X obj 242 232 bng 15 250 50 0 empty empty empty 17 7 0 10 -262144
-1 -1;
#X obj 243 210 sel click change;
#X obj 280 234 bng 15 250 50 0 empty empty empty 17 7 0 10 -262144
-1 -1;
#X obj 299 183 s pointer;
#X obj 147 287 s beingclicked;
#X connect 0 0 3 0;
#X connect 0 0 6 0;
#X connect 5 0 8 0;
#X connect 6 0 5 0;
#X connect 6 1 10 0;
#X connect 6 2 4 0;
#X connect 8 0 7 0;
#X connect 8 0 11 0;
#X connect 8 1 9 0;
#X connect 8 1 2 0;
#X restore 740 -14 pd template;
#N canvas 384 605 720 274 datawindow_01 0;
#X scalar structure_01 0 4350.65 1818.18 2792.21 2780.22 1006.49 4781.22
3571.43 6210.79 0 7380.62 5000 7537.47 3993.5 7629.38 259.741 \;;
#X coords 0 5000 14000 0 500 150 2 0 0;
#X restore 105 104 pd datawindow_01;
#X obj 1264 106 pointer;
#X msg 1288 68 next;
#X msg 1321 61 traverse pd-datawindow_01 \, bang;
#X floatatom 1145 405 5 0 0 0 - - -, f 5;
#X floatatom 1191 404 5 0 0 0 - - -, f 5;
#X floatatom 1235 405 5 0 0 0 - - -, f 5;
#X obj 1214 307 pointer;
#X floatatom 1211 118 5 1 1000 0 - - -, f 5;
#X obj 1211 158 t b f b;
#X obj 1220 204 until;
#X msg 1220 226 next;
#X obj 1280 321 print scalar_out_of_range;
#X obj 1159 327 pointer;
#X obj 584 -437 set structure_01 x y k;
#X floatatom 582 -466 5 0 0 0 - - -, f 5;
#X floatatom 627 -465 5 0 0 0 - - -, f 5;
#X floatatom 618 -480 5 0 0 0 - - -, f 5;
#X obj 670 -487 pointer;
#X msg 693 -520 next;
#X msg 670 -547 traverse pd-datawindow_01 \, next;
#X msg 1264 204 traverse pd-datawindow_01 \, next;
#X msg 562 -560 100 100 100;
#X msg 689 -350 \; pd-datawindow_01 clear;
#X obj 685 -174 6stageOp1int;
#X floatatom 831 -14 5 0 0 0 - - -, f 5;
#X floatatom 873 6 5 0 0 0 - - -, f 5;
#X obj 867 -46 * 2000;
#X obj 852 -77 * 300;
#X floatatom 886 -14 5 0 0 0 - - -, f 5;
#X floatatom 914 6 5 0 0 0 - - -, f 5;
#X obj 915 -53 * 2000;
#X obj 900 -74 * 300;
#X floatatom 931 -14 5 0 0 0 - - -, f 5;
#X floatatom 958 6 5 0 0 0 - - -, f 5;
#X obj 959 -54 * 2000;
#X obj 944 -75 * 300;
#X floatatom 975 -14 5 0 0 0 - - -, f 5;
#X floatatom 1003 6 5 0 0 0 - - -, f 5;
#X obj 1004 -54 * 2000;
#X obj 989 -75 * 300;
#X floatatom 1017 -14 5 0 0 0 - - -, f 5;
#X floatatom 1044 6 5 0 0 0 - - -, f 5;
#X obj 1049 -55 * 2000;
#X obj 1034 -76 * 300;
#X floatatom 1062 -14 5 0 0 0 - - -, f 5;
#X floatatom 1094 6 5 0 0 0 - - -, f 5;
#X obj 1099 -57 * 2000;
#X obj 1084 -78 * 300;
#X floatatom 1104 -14 5 0 0 0 - - -, f 5;
#X floatatom 1139 6 5 0 0 0 - - -, f 5;
#X obj 1144 -59 * 2000;
#X obj 1129 -80 * 300;
#X floatatom 1147 -14 5 0 0 0 - - -, f 5;
#X floatatom 1184 6 5 0 0 0 - - -, f 5;
#X obj 1184 -59 * 2000;
#X obj 1169 -80 * 300;
#X msg 825 64 0;
#X obj 868 -114 route 0 1 2 3 4 5 6 7 8 9 10 11 12 13 14 15 16;
#X obj 843 127 append structure_01 x0 y0 x1 y1 x2 y2 x3 y3 x4 y4 x5
y5 x6 y6 x7 y7;
#X floatatom 791 -102 5 0 0 0 - - -, f 5;
#X floatatom 796 -69 5 0 0 0 - - -, f 5;
#X obj 919 74 +;
#X obj 965 76 +;
#X obj 1011 74 +;
#X obj 1052 73 +;
#X obj 1095 76 +;
#X obj 1142 72 +;
#X obj 1187 68 +;
#N canvas 0 22 450 300 (subpatch) 0;
#X array 6stageOp1 17 float 23 #91fcbe black;
#A 0 0.87013 0.909091 0.558442 0.480519 0.201299 1 0.714286 0.87013
0 0.584416 1 0.194805 0.597403 0.0454545 0.0519481 0.87013 0.363636
;
#X coords 0 1 17 0 442 145 1;
#X restore 1273 -268 graph;
#X floatatom 1388 103 5 0 0 0 - - -, f 5;
#X floatatom 1277 405 5 0 0 0 - - -, f 5;
#X floatatom 1318 405 5 0 0 0 - - -, f 5;
#X floatatom 1364 405 5 0 0 0 - - -, f 5;
#X floatatom 1411 404 5 0 0 0 - - -, f 5;
#X floatatom 1453 405 5 0 0 0 - - -, f 5;
#X floatatom 1490 406 5 0 0 0 - - -, f 5;
#X floatatom 1652 412 5 0 0 0 - - -, f 5;
#X floatatom 1528 407 5 0 0 0 - - -, f 5;
#X floatatom 1574 405 5 0 0 0 - - -, f 5;
#X floatatom 1615 406 5 0 0 0 - - -, f 5;
#X floatatom 1720 405 5 0 0 0 - - -, f 5;
#X obj 1395 136 set structure_01 y4;
#X msg 1244 134 1;
#X obj 1212 353 get structure_01 x0 y0 x1 y1 x2 y2 x3 y3 x4 y4 x5 y5
x6 y6 x7 y7, f 59;
#X floatatom 1686 406 5 0 0 0 - - -, f 5;
#X obj 1553 179 s pointer;
#X obj 995 344 r pointer;
#X obj 898 -276 t b b;
#X obj 886 -323 bng 15 250 50 0 empty empty empty 17 7 0 10 -262144
-1 -1;
#X obj 139 14 pack;
#X obj 88 -96 f;
#X obj 986 -263 f;
#X obj 1037 -262 + 1;
#X obj 947 -351 tgl 15 0 empty empty empty 17 7 0 10 -262144 -1 -1
0 1;
#X obj 985 -297 metro 10;
#X obj 1018 -231 t f f;
#X obj 1043 -179 pack;
#X msg 1108 -260 0;
#X obj 1054 -324 sel 1;
#X obj 962 -324 t f f;
#X obj 1070 -292 t b b;
#X obj 649 208 route 0 1 2 3 4 5 6 7 8 9 10 11 12 13 14 15 16;
#X msg 622 172 0;
#X obj 183 -160 * 5000;
#X obj 251 -166 * 2000;
#X floatatom 183 -138 5 0 0 0 - - -, f 5;
#X floatatom 248 -139 5 0 0 0 - - -, f 5;
#X obj 689 317 +;
#X obj 731 320 +;
#X obj 777 318 +;
#X obj 818 317 +;
#X obj 861 320 +;
#X obj 903 314 +;
#X obj 963 294 +;
#X obj 1107 -210 tabread 6stageOp1;
#X obj 605 444 set structure_01 x0 y0 x1 y1 x2 y2 x3 y3 x4 y4 x5 y5
x6 y6 x7 y7;
#X obj 160 -104 clip 0 5000;
#X obj 252 -108 clip 0 2000;
#X obj 941 -210 sel 16;
#X floatatom 990 318 5 0 0 0 - - -, f 5;
#X floatatom 918 348 5 0 0 0 - - -, f 5;
#X obj 1199 -143 t b b;
#X obj 1110 223 r beingedited;
#X obj 1110 245 bng 15 250 50 0 empty empty empty 17 7 0 10 -262144
-1 -1;
#X msg 1043 470 0;
#X obj 1752 544 r pointer;
#X obj 1367 556 set structure_01 x0 y0 x1 y1 x2 y2 x3 y3 x4 y4 x5 y5
x6 y6 x7 y7;
#X obj 1076 265 t b b b;
#X obj 1281 448 f;
#X obj 1384 449 f;
#X obj 1229 446 f;
#X obj 1342 449 f;
#X obj 1429 447 f;
#X obj 1488 448 f;
#X obj 1539 450 f;
#X obj 1589 448 f;
#X msg 1728 469 0;
#X obj 1726 434 t b;
#X obj 709 80 unpack;
#X floatatom 709 104 5 0 0 0 - - -, f 5;
#X floatatom 746 105 5 0 0 0 - - -, f 5;
#X floatatom 751 172 5 0 0 0 - - -, f 5;
#X obj 724 151 mod 2;
#X obj 697 170 spigot;
#X obj 705 127 t f f;
#X floatatom 702 190 5 0 0 0 - - -, f 5;
#X obj 654 29 sel 1 3 5 7 9 11 13;
#X obj 962 326 t b;
#X msg 960 368 0;
#X floatatom 684 345 5 0 0 0 - - -, f 5;
#X floatatom 611 315 5 0 0 0 - - -, f 5;
#X obj 704 292 + 1;
#X obj 749 292 + 1;
#X obj 792 289 + 1;
#X obj 833 289 + 1;
#X obj 872 288 + 1;
#X obj 917 289 + 1;
#X floatatom 737 349 5 0 0 0 - - -, f 5;
#X floatatom 779 350 5 0 0 0 - - -, f 5;
#X floatatom 822 347 5 0 0 0 - - -, f 5;
#X floatatom 861 349 5 0 0 0 - - -, f 5;
#X obj 631 -93 t b b b b b b b b b b;
#X obj 980 251 + 1;
#X obj 947 249 f;
#X obj 895 245 f;
#X obj 849 251 f;
#X obj 792 249 f;
#X obj 752 248 f;
#X obj 709 247 f;
#X obj 673 251 f;
#X obj 630 254 f;
#X obj 577 23 t b b a;
#X obj 1056 298 t b b b b b b b b b b;
#X floatatom 924 390 5 0 0 0 - - -, f 5;
#X obj 1033 196 r beingclicked;
#X obj 1033 218 bng 15 250 50 0 empty empty empty 17 7 0 10 -262144
-1 -1;
#X obj 1164 446 change;
#X obj 1221 485 -;
#X obj 1161 475 t f b;
#X floatatom 1221 507 5 0 0 0 - - -, f 5;
#X floatatom 1119 465 5 0 0 0 - - -, f 5;
#X obj 179 -42 t b f b;
#X connect 0 0 35 0;
#X connect 1 0 36 0;
#X connect 2 0 37 0;
#X connect 3 0 38 0;
#X connect 4 0 39 0;
#X connect 5 0 40 0;
#X connect 6 0 41 0;
#X connect 7 0 42 0;
#X connect 8 0 43 0;
#X connect 9 0 45 0;
#X connect 10 0 46 0;
#X connect 11 0 28 0;
#X connect 12 0 28 0;
#X connect 13 0 28 0;
#X connect 14 0 28 0;
#X connect 15 0 28 0;
#X connect 16 0 28 0;
#X connect 17 0 28 0;
#X connect 18 0 28 0;
#X connect 19 0 28 0;
#X connect 20 0 28 0;
#X connect 21 0 28 0;
#X connect 22 0 28 0;
#X connect 23 0 28 0;
#X connect 24 0 28 0;
#X connect 25 0 28 0;
#X connect 26 0 28 0;
#X connect 27 0 29 0;
#X connect 27 0 213 0;
#X connect 27 1 30 0;
#X connect 28 0 48 1;
#X connect 28 0 200 1;
#X connect 29 0 57 0;
#X connect 30 0 28 0;
#X connect 31 0 29 0;
#X connect 31 0 214 0;
#X connect 31 1 11 0;
#X connect 32 0 29 0;
#X connect 32 0 213 0;
#X connect 32 1 12 0;
#X connect 33 0 29 0;
#X connect 33 0 214 0;
#X connect 33 1 13 0;
#X connect 34 0 29 0;
#X connect 34 0 213 0;
#X connect 34 1 14 0;
#X connect 35 0 29 0;
#X connect 35 0 214 0;
#X connect 35 1 15 0;
#X connect 36 0 29 0;
#X connect 36 0 213 0;
#X connect 36 1 16 0;
#X connect 37 0 29 0;
#X connect 37 0 214 0;
#X connect 37 1 17 0;
#X connect 38 0 29 0;
#X connect 38 0 213 0;
#X connect 38 1 18 0;
#X connect 39 0 29 0;
#X connect 39 0 214 0;
#X connect 39 1 19 0;
#X connect 40 0 29 0;
#X connect 40 0 213 0;
#X connect 40 1 20 0;
#X connect 41 0 29 0;
#X connect 41 0 214 0;
#X connect 41 1 21 0;
#X connect 42 0 29 0;
#X connect 42 0 213 0;
#X connect 42 1 22 0;
#X connect 43 0 29 0;
#X connect 43 0 214 0;
#X connect 43 1 23 0;
#X connect 44 0 29 0;
#X connect 44 0 213 0;
#X connect 44 1 24 0;
#X connect 45 0 29 0;
#X connect 45 0 214 0;
#X connect 45 1 25 0;
#X connect 46 0 29 0;
#X connect 46 0 213 0;
#X connect 46 1 26 0;
#X connect 47 0 44 0;
#X connect 52 0 27 0;
#X connect 53 0 31 0;
#X connect 54 0 32 0;
#X connect 55 0 33 0;
#X connect 56 0 34 0;
#X connect 57 1 48 0;
#X connect 64 0 63 16;
#X connect 65 0 63 0;
#X connect 68 0 67 0;
#X connect 68 0 101 1;
#X connect 69 0 66 0;
#X connect 72 0 71 0;
#X connect 72 0 101 0;
#X connect 73 0 70 0;
#X connect 76 0 75 0;
#X connect 76 0 102 0;
#X connect 77 0 74 0;
#X connect 80 0 79 0;
#X connect 80 0 103 0;
#X connect 81 0 78 0;
#X connect 84 0 83 0;
#X connect 84 0 104 0;
#X connect 85 0 82 0;
#X connect 88 0 87 0;
#X connect 88 0 105 0;
#X connect 89 0 86 0;
#X connect 92 0 91 0;
#X connect 92 0 106 0;
#X connect 93 0 90 0;
#X connect 96 0 95 0;
#X connect 96 0 107 0;
#X connect 97 0 94 0;
#X connect 99 0 69 1;
#X connect 99 0 97 1;
#X connect 99 0 93 1;
#X connect 99 0 89 1;
#X connect 99 0 85 1;
#X connect 99 0 81 1;
#X connect 99 0 77 1;
#X connect 99 0 73 1;
#X connect 100 0 68 1;
#X connect 100 0 96 1;
#X connect 100 0 92 1;
#X connect 100 0 88 1;
#X connect 100 0 84 1;
#X connect 100 0 80 1;
#X connect 100 0 76 1;
#X connect 100 0 72 1;
#X connect 101 0 102 1;
#X connect 102 0 103 1;
#X connect 103 0 104 1;
#X connect 104 0 105 1;
#X connect 105 0 106 1;
#X connect 106 0 107 1;
#X connect 110 0 168 16;
#X connect 110 0 191 1;
#X connect 110 0 195 0;
#X connect 111 0 110 0;
#X connect 112 0 110 0;
#X connect 116 0 122 1;
#X connect 117 0 118 0;
#X connect 118 0 122 0;
#X connect 118 1 119 0;
#X connect 118 2 130 0;
#X connect 119 0 120 0;
#X connect 120 0 116 0;
#X connect 122 0 193 0;
#X connect 124 0 123 0;
#X connect 125 0 123 1;
#X connect 126 0 123 2;
#X connect 127 0 123 3;
#X connect 128 0 127 0;
#X connect 129 0 127 0;
#X connect 130 0 116 0;
#X connect 131 0 123 0;
#X connect 136 0 135 0;
#X connect 136 0 168 2;
#X connect 136 0 171 1;
#X connect 137 0 134 0;
#X connect 137 0 168 1;
#X connect 140 0 139 0;
#X connect 140 0 171 0;
#X connect 141 0 138 0;
#X connect 141 0 168 3;
#X connect 144 0 143 0;
#X connect 144 0 172 0;
#X connect 145 0 142 0;
#X connect 145 0 168 5;
#X connect 148 0 147 0;
#X connect 148 0 173 0;
#X connect 149 0 146 0;
#X connect 149 0 168 7;
#X connect 152 0 151 0;
#X connect 152 0 174 0;
#X connect 153 0 150 0;
#X connect 153 0 168 9;
#X connect 156 0 155 0;
#X connect 156 0 175 0;
#X connect 157 0 154 0;
#X connect 157 0 168 11;
#X connect 160 0 159 0;
#X connect 160 0 176 0;
#X connect 161 0 158 0;
#X connect 161 0 168 13;
#X connect 164 0 163 0;
#X connect 164 0 177 0;
#X connect 165 0 162 0;
#X connect 165 0 168 15;
#X connect 166 0 168 0;
#X connect 167 0 137 0;
#X connect 167 1 136 0;
#X connect 167 2 141 0;
#X connect 167 3 140 0;
#X connect 167 4 145 0;
#X connect 167 5 144 0;
#X connect 167 6 149 0;
#X connect 167 7 148 0;
#X connect 167 8 153 0;
#X connect 167 9 152 0;
#X connect 167 10 157 0;
#X connect 167 11 156 0;
#X connect 167 12 161 0;
#X connect 167 13 160 0;
#X connect 167 14 165 0;
#X connect 167 15 164 0;
#X connect 169 0 137 1;
#X connect 169 0 165 1;
#X connect 169 0 161 1;
#X connect 169 0 157 1;
#X connect 169 0 153 1;
#X connect 169 0 149 1;
#X connect 169 0 145 1;
#X connect 169 0 141 1;
#X connect 170 0 136 1;
#X connect 170 0 164 1;
#X connect 170 0 160 1;
#X connect 170 0 156 1;
#X connect 170 0 152 1;
#X connect 170 0 148 1;
#X connect 170 0 144 1;
#X connect 170 0 140 1;
#X connect 171 0 168 4;
#X connect 171 0 172 1;
#X connect 172 0 168 6;
#X connect 172 0 173 1;
#X connect 173 0 168 8;
#X connect 173 0 174 1;
#X connect 174 0 168 10;
#X connect 174 0 175 1;
#X connect 175 0 168 12;
#X connect 175 0 176 1;
#X connect 176 0 168 14;
#X connect 176 0 177 1;
#X connect 177 0 168 16;
#X connect 179 0 191 0;
#X connect 192 0 118 0;
#X connect 193 0 113 0;
#X connect 193 1 114 0;
#X connect 193 2 115 0;
#X connect 193 2 286 0;
#X connect 193 2 240 1;
#X connect 193 3 180 0;
#X connect 193 3 238 1;
#X connect 193 4 181 0;
#X connect 193 5 182 0;
#X connect 193 5 241 1;
#X connect 193 6 183 0;
#X connect 193 7 184 0;
#X connect 193 7 239 1;
#X connect 193 8 185 0;
#X connect 193 9 186 0;
#X connect 193 9 242 1;
#X connect 193 10 187 0;
#X connect 193 11 188 0;
#X connect 193 11 243 1;
#X connect 193 12 189 0;
#X connect 193 13 190 0;
#X connect 193 13 244 1;
#X connect 193 14 194 0;
#X connect 193 15 247 0;
#X connect 193 15 245 1;
#X connect 196 0 225 16;
#X connect 198 0 197 0;
#X connect 199 0 281 0;
#X connect 200 0 199 0;
#X connect 201 0 202 0;
#X connect 201 0 205 0;
#X connect 202 0 201 1;
#X connect 203 0 209 0;
#X connect 204 0 201 0;
#X connect 205 0 206 0;
#X connect 205 0 228 0;
#X connect 205 1 224 0;
#X connect 206 0 167 0;
#X connect 207 0 201 1;
#X connect 208 0 210 0;
#X connect 209 0 204 0;
#X connect 209 1 208 0;
#X connect 210 1 132 0;
#X connect 211 0 225 1;
#X connect 211 1 225 2;
#X connect 211 1 260 0;
#X connect 211 1 261 0;
#X connect 211 1 280 1;
#X connect 211 2 225 3;
#X connect 211 3 217 0;
#X connect 211 3 279 1;
#X connect 211 4 225 5;
#X connect 211 5 218 0;
#X connect 211 5 278 1;
#X connect 211 6 225 7;
#X connect 211 7 219 0;
#X connect 211 7 277 1;
#X connect 211 8 225 9;
#X connect 211 9 220 0;
#X connect 211 9 276 1;
#X connect 211 10 225 11;
#X connect 211 11 221 0;
#X connect 211 11 275 1;
#X connect 211 12 225 13;
#X connect 211 13 222 0;
#X connect 211 13 274 1;
#X connect 211 14 225 15;
#X connect 211 14 283 0;
#X connect 211 15 223 0;
#X connect 211 15 273 1;
#X connect 212 0 225 0;
#X connect 213 0 215 0;
#X connect 213 0 226 0;
#X connect 214 0 216 0;
#X connect 214 0 227 0;
#X connect 217 0 225 4;
#X connect 217 0 259 0;
#X connect 217 0 262 0;
#X connect 218 0 225 6;
#X connect 218 0 263 0;
#X connect 218 0 267 0;
#X connect 219 0 225 8;
#X connect 219 0 264 0;
#X connect 219 0 268 0;
#X connect 220 0 225 10;
#X connect 220 0 265 0;
#X connect 220 0 269 0;
#X connect 221 0 225 12;
#X connect 221 0 266 0;
#X connect 221 0 270 0;
#X connect 222 0 225 14;
#X connect 222 0 230 0;
#X connect 222 0 272 0;
#X connect 223 0 229 0;
#X connect 223 0 257 0;
#X connect 224 0 206 1;
#X connect 226 0 291 0;
#X connect 227 0 291 0;
#X connect 228 0 203 0;
#X connect 228 0 207 0;
#X connect 228 0 166 0;
#X connect 228 0 231 0;
#X connect 231 0 111 0;
#X connect 231 1 112 0;
#X connect 232 0 233 0;
#X connect 232 0 237 0;
#X connect 234 0 236 0;
#X connect 235 0 236 16;
#X connect 237 1 282 0;
#X connect 237 2 192 0;
#X connect 240 0 287 1;
#X connect 247 0 246 0;
#X connect 248 0 249 0;
#X connect 248 0 254 0;
#X connect 248 1 250 0;
#X connect 252 0 251 0;
#X connect 252 0 253 1;
#X connect 253 0 255 0;
#X connect 254 0 253 0;
#X connect 254 1 252 0;
#X connect 257 0 258 0;
#X connect 258 0 225 16;
#X connect 261 0 217 1;
#X connect 262 0 218 1;
#X connect 263 0 219 1;
#X connect 264 0 220 1;
#X connect 265 0 221 1;
#X connect 266 0 222 1;
#X connect 271 2 273 0;
#X connect 271 3 274 0;
#X connect 271 4 275 0;
#X connect 271 5 276 0;
#X connect 271 6 277 0;
#X connect 271 7 278 0;
#X connect 271 8 279 0;
#X connect 271 9 280 0;
#X connect 272 0 223 1;
#X connect 273 0 223 0;
#X connect 274 0 222 0;
#X connect 275 0 221 0;
#X connect 276 0 220 0;
#X connect 277 0 219 0;
#X connect 278 0 218 0;
#X connect 279 0 217 0;
#X connect 280 0 261 0;
#X connect 281 0 212 0;
#X connect 281 1 271 0;
#X connect 281 2 211 0;
#X connect 281 2 248 0;
#X connect 284 0 285 0;
#X connect 284 0 192 0;
#X connect 286 0 288 0;
#X connect 286 0 290 0;
#X connect 287 0 289 0;
#X connect 288 0 287 0;
#X connect 288 1 240 0;
#X connect 291 0 200 0;
#X connect 291 1 199 1;
#X connect 291 2 231 0;
#X coords 0 -1 1 1 510 160 2 100 100;
#X restore 302 484 pd 6stage1Op;
#X floatatom 36 514 5 0 0 0 - - -, f 5;
#X obj 36 492 r \$0-osc2pitch.s;
#X floatatom -57 435 5 0 0 0 - - -, f 5;
#X obj -57 413 r \$0-6stage1Op16.s;
#X obj -58 458 s osc1vel;
#X floatatom 101 432 5 0 0 0 - - -, f 5;
#X obj 101 410 r \$0-6stage2Op16.s;
#X obj 100 455 s osc2vel;
#X obj 146 516 s \$0-osc2pitch.r;
#X obj -23 559 r \$0-porta.s;
#X obj 72 607 s \$0-porta.r;
#X obj 932 895 s \$0-lfo1rate.r;
#X obj 938 925 s \$0-lfo1amt.r;
#X obj 901 664 r \$0-lfo1rate.s;
#X obj 999 662 r \$0-lfo1amt.s;
#X floatatom 1842 495 5 0 0 0 - - -, f 5;
#X obj 1842 472 r \$0-outlev.s;
#X obj 1784 627 s \$0-outlev.r;
#X text 1778 399 portamento;
#X text 755 689 osc2partial;
#X msg 245 351 0.5;
#X msg 245 375 1;
#X msg 245 397 2;
#X msg 245 419 3;
#X msg 245 446 4;
#X msg 245 470 5;
#X floatatom 1759 684 5 0 0 0 - #0-resonance.r #0-resonance.s, f 5
;
#X floatatom 1715 680 5 0 0 0 - #0-filtamt.r #0-filtamt.s, f 5;
#X obj 1667 937 r \$0-filtamt.s;
#X floatatom 1667 959 5 0 0 0 - - -, f 5;
#X obj 1788 936 r \$0-resonance.s;
#X floatatom 1788 958 5 0 0 0 - - -, f 5;
#X obj 1693 1022 s \$0-filtamt.r;
#X obj 1813 1021 s \$0-resonance.r;
#X obj 820 303 vsl 21 155 0 1 0 0 \$0-6stage3Op0.s \$0-6stage3Op0.r
empty 0 0 0 4 -260033 -262144 -262144 0 0;
#X obj 846 303 vsl 21 155 0 1 0 0 \$0-6stage3Op1.s \$0-6stage3Op1.r
empty 0 0 0 4 -63617 -1 -262144 0 0;
#X obj 872 303 vsl 21 155 0 1 0 0 \$0-6stage3Op2.s \$0-6stage3Op2.r
empty 0 0 0 4 -183361 -262144 -262144 0 0;
#X obj 899 303 vsl 21 155 0 1 0 0 \$0-6stage3Op3.s \$0-6stage3Op3.r
empty 0 0 0 4 -63617 -1 -262144 0 0;
#X obj 925 303 vsl 21 155 0 1 0 0 \$0-6stage3Op4.s \$0-6stage3Op4.r
empty 0 0 0 4 -183361 -262144 -262144 0 0;
#X obj 952 303 vsl 21 155 0 1 0 0 \$0-6stage3Op5.s \$0-6stage3Op5.r
empty 0 0 0 4 -63617 -1 -262144 0 0;
#X obj 978 303 vsl 21 155 0 1 0 0 \$0-6stage3Op6.s \$0-6stage3Op6.r
empty 0 0 0 4 -183361 -262144 -262144 0 0;
#X obj 1005 303 vsl 21 155 0 1 0 0 \$0-6stage3Op7.s \$0-6stage3Op7.r
empty 0 0 0 4 -63617 -1 -262144 0 0;
#X obj 1031 303 vsl 21 155 0 1 0 0 \$0-6stage3Op8.s \$0-6stage3Op8.r
empty 0 0 0 4 -183361 -262144 -262144 0 0;
#X obj 1058 303 vsl 21 155 0 1 0 0 \$0-6stage3Op9.s \$0-6stage3Op9.r
empty 0 0 0 4 -63617 -1 -262144 0 0;
#X obj 1084 303 vsl 21 155 0 1 0 0 \$0-6stage3Op10.s \$0-6stage3Op10.r
empty 0 0 0 4 -183361 -262144 -262144 0 0;
#X obj 1111 303 vsl 21 155 0 1 0 0 \$0-6stage3Op11.s \$0-6stage3Op11.r
empty 0 0 0 4 -63617 -1 -262144 0 0;
#X obj 1137 303 vsl 21 155 0 1 0 0 \$0-6stage3Op12.s \$0-6stage3Op12.r
empty 0 0 0 4 -183361 -262144 -262144 0 0;
#X obj 1164 303 vsl 21 155 0 1 0 0 \$0-6stage3Op13.s \$0-6stage3Op13.r
empty 0 0 0 4 -63617 -1 -262144 0 0;
#X obj 1190 303 vsl 21 155 0 1 0 0 \$0-6stage3Op14.s \$0-6stage3Op14.r
empty 0 0 0 4 -262144 -1 -262144 0 0;
#X obj 1217 303 vsl 21 155 0 1 0 0 \$0-6stage3Op15.s \$0-6stage3Op15.r
empty 0 0 0 4 -262144 -1 -262144 0 0;
#X obj 1243 303 vsl 21 155 0 1 0 0 \$0-6stage3Op16.s \$0-6stage3Op16.r
empty 0 0 0 4 -262081 -262144 -262144 0 0;
#X obj 820 479 vsl 21 155 0 1 0 0 \$0-6stage4Op0.s \$0-6stage4Op0.r
empty 0 0 0 4 -260033 -262144 -262144 0 0;
#X obj 846 479 vsl 21 155 0 1 0 0 \$0-6stage4Op1.s \$0-6stage4Op1.r
empty 0 0 0 4 -63617 -1 -262144 0 0;
#X obj 872 479 vsl 21 155 0 1 0 0 \$0-6stage4Op2.s \$0-6stage4Op2.r
empty 0 0 0 4 -183361 -262144 -262144 0 0;
#X obj 899 479 vsl 21 155 0 1 0 0 \$0-6stage4Op3.s \$0-6stage4Op3.r
empty 0 0 0 4 -63617 -1 -262144 0 0;
#X obj 925 479 vsl 21 155 0 1 0 0 \$0-6stage4Op4.s \$0-6stage4Op4.r
empty 0 0 0 4 -183361 -262144 -262144 0 0;
#X obj 952 479 vsl 21 155 0 1 0 0 \$0-6stage4Op5.s \$0-6stage4Op5.r
empty 0 0 0 4 -63617 -1 -262144 0 0;
#X obj 978 479 vsl 21 155 0 1 0 0 \$0-6stage4Op6.s \$0-6stage4Op6.r
empty 0 0 0 4 -183361 -262144 -262144 0 0;
#X obj 1005 479 vsl 21 155 0 1 0 0 \$0-6stage4Op7.s \$0-6stage4Op7.r
empty 0 0 0 4 -63617 -1 -262144 0 0;
#X obj 1031 479 vsl 21 155 0 1 0 0 \$0-6stage4Op8.s \$0-6stage4Op8.r
empty 0 0 0 4 -183361 -262144 -262144 0 0;
#X obj 1058 479 vsl 21 155 0 1 0 0 \$0-6stage4Op9.s \$0-6stage4Op9.r
empty 0 0 0 4 -63617 -1 -262144 0 0;
#X obj 1084 479 vsl 21 155 0 1 0 0 \$0-6stage4Op10.s \$0-6stage4Op10.r
empty 0 0 0 4 -183361 -262144 -262144 0 0;
#X obj 1111 479 vsl 21 155 0 1 0 0 \$0-6stage4Op11.s \$0-6stage4Op11.r
empty 0 0 0 4 -63617 -1 -262144 0 0;
#X obj 1137 479 vsl 21 155 0 1 0 0 \$0-6stage4Op12.s \$0-6stage4Op12.r
empty 0 0 0 4 -183361 -262144 -262144 0 0;
#X obj 1164 479 vsl 21 155 0 1 0 0 \$0-6stage4Op13.s \$0-6stage4Op13.r
empty 0 0 0 4 -63617 -1 -262144 0 0;
#X obj 1190 479 vsl 21 155 0 1 0 0 \$0-6stage4Op14.s \$0-6stage4Op14.r
empty 0 0 0 4 -262144 -1 -262144 0 0;
#X obj 1217 479 vsl 21 155 0 1 0 0 \$0-6stage4Op15.s \$0-6stage4Op15.r
empty 0 0 0 4 -262144 -1 -262144 0 0;
#X obj 1243 479 vsl 21 155 0 1 0 0 \$0-6stage4Op16.s \$0-6stage4Op16.r
empty 0 0 0 4 -262081 -262144 -262144 0 0;
#X text 819 462 init;
#X text 849 462 T1;
#X text 951 462 T3;
#X text 1002 462 T4;
#X text 1057 462 T5;
#X text 1113 462 T6;
#X text 876 462 L1;
#X text 925 462 L2;
#X text 901 462 T2;
#X text 1030 462 L4;
#X text 1082 462 L5;
#X text 1136 462 L6;
#X text 1167 462 R;
#X text 1185 462 strt;
#X text 1216 462 end;
#X text 1240 462 vel;
#X text 977 462 L3;
#X obj 1287 303 vsl 21 155 0 1 0 0 \$0-6stage5Op0.s \$0-6stage5Op0.r
empty 0 0 0 4 -260033 -262144 -262144 0 0;
#X obj 1313 303 vsl 21 155 0 1 0 0 \$0-6stage5Op1.s \$0-6stage5Op1.r
empty 0 0 0 4 -63617 -1 -262144 0 0;
#X obj 1339 303 vsl 21 155 0 1 0 0 \$0-6stage5Op2.s \$0-6stage5Op2.r
empty 0 0 0 4 -183361 -262144 -262144 0 0;
#X obj 1366 303 vsl 21 155 0 1 0 0 \$0-6stage5Op3.s \$0-6stage5Op3.r
empty 0 0 0 4 -63617 -1 -262144 0 0;
#X obj 1392 303 vsl 21 155 0 1 0 0 \$0-6stage5Op4.s \$0-6stage5Op4.r
empty 0 0 0 4 -183361 -262144 -262144 0 0;
#X obj 1419 303 vsl 21 155 0 1 0 0 \$0-6stage5Op5.s \$0-6stage5Op5.r
empty 0 0 0 4 -63617 -1 -262144 0 0;
#X obj 1445 303 vsl 21 155 0 1 0 0 \$0-6stage5Op6.s \$0-6stage5Op6.r
empty 0 0 0 4 -183361 -262144 -262144 0 0;
#X obj 1472 303 vsl 21 155 0 1 0 0 \$0-6stage5Op7.s \$0-6stage5Op7.r
empty 0 0 0 4 -63617 -1 -262144 0 0;
#X obj 1498 303 vsl 21 155 0 1 0 0 \$0-6stage5Op8.s \$0-6stage5Op8.r
empty 0 0 0 4 -183361 -262144 -262144 0 0;
#X obj 1525 303 vsl 21 155 0 1 0 0 \$0-6stage5Op9.s \$0-6stage5Op9.r
empty 0 0 0 4 -63617 -1 -262144 0 0;
#X obj 1551 303 vsl 21 155 0 1 0 0 \$0-6stage5Op10.s \$0-6stage5Op10.r
empty 0 0 0 4 -183361 -262144 -262144 0 0;
#X obj 1578 303 vsl 21 155 0 1 0 0 \$0-6stage5Op11.s \$0-6stage5Op11.r
empty 0 0 0 4 -63617 -1 -262144 0 0;
#X obj 1604 303 vsl 21 155 0 1 0 0 \$0-6stage5Op12.s \$0-6stage5Op12.r
empty 0 0 0 4 -183361 -262144 -262144 0 0;
#X obj 1631 303 vsl 21 155 0 1 0 0 \$0-6stage5Op13.s \$0-6stage5Op13.r
empty 0 0 0 4 -63617 -1 -262144 0 0;
#X obj 1657 303 vsl 21 155 0 1 0 0 \$0-6stage5Op14.s \$0-6stage5Op14.r
empty 0 0 0 4 -262144 -1 -262144 0 0;
#X obj 1684 303 vsl 21 155 0 1 0 0 \$0-6stage5Op15.s \$0-6stage5Op15.r
empty 0 0 0 4 -262144 -1 -262144 0 0;
#X obj 1710 303 vsl 21 155 0 1 0 0 \$0-6stage5Op16.s \$0-6stage5Op16.r
empty 0 0 0 4 -262081 -262144 -262144 0 0;
#X obj 1287 479 vsl 21 155 0 1 0 0 \$0-6stage6Op0.s \$0-6stage6Op0.r
empty 0 0 0 4 -260033 -262144 -262144 0 0;
#X obj 1313 479 vsl 21 155 0 1 0 0 \$0-6stage6Op1.s \$0-6stage6Op1.r
empty 0 0 0 4 -63617 -1 -262144 0 0;
#X obj 1339 479 vsl 21 155 0 1 0 0 \$0-6stage6Op2.s \$0-6stage6Op2.r
empty 0 0 0 4 -183361 -262144 -262144 0 0;
#X obj 1366 479 vsl 21 155 0 1 0 0 \$0-6stage6Op3.s \$0-6stage6Op3.r
empty 0 0 0 4 -63617 -1 -262144 0 0;
#X obj 1392 479 vsl 21 155 0 1 0 0 \$0-6stage6Op4.s \$0-6stage6Op4.r
empty 0 0 0 4 -183361 -262144 -262144 0 0;
#X obj 1419 479 vsl 21 155 0 1 0 0 \$0-6stage6Op5.s \$0-6stage6Op5.r
empty 0 0 0 4 -63617 -1 -262144 0 0;
#X obj 1445 479 vsl 21 155 0 1 0 0 \$0-6stage6Op6.s \$0-6stage6Op6.r
empty 0 0 0 4 -183361 -262144 -262144 0 0;
#X obj 1472 479 vsl 21 155 0 1 0 0 \$0-6stage6Op7.s \$0-6stage6Op7.r
empty 0 0 0 4 -63617 -1 -262144 0 0;
#X obj 1498 479 vsl 21 155 0 1 0 0 \$0-6stage6Op8.s \$0-6stage6Op8.r
empty 0 0 0 4 -183361 -262144 -262144 0 0;
#X obj 1525 479 vsl 21 155 0 1 0 0 \$0-6stage6Op9.s \$0-6stage6Op9.r
empty 0 0 0 4 -63617 -1 -262144 0 0;
#X obj 1551 479 vsl 21 155 0 1 0 0 \$0-6stage6Op10.s \$0-6stage6Op10.r
empty 0 0 0 4 -183361 -262144 -262144 0 0;
#X obj 1578 479 vsl 21 155 0 1 0 0 \$0-6stage6Op11.s \$0-6stage6Op11.r
empty 0 0 0 4 -63617 -1 -262144 0 0;
#X obj 1604 479 vsl 21 155 0 1 0 0 \$0-6stage6Op12.s \$0-6stage6Op12.r
empty 0 0 0 4 -183361 -262144 -262144 0 0;
#X obj 1631 479 vsl 21 155 0 1 0 0 \$0-6stage6Op13.s \$0-6stage6Op13.r
empty 0 0 0 4 -63617 -1 -262144 0 0;
#X obj 1657 479 vsl 21 155 0 1 0 0 \$0-6stage6Op14.s \$0-6stage6Op14.r
empty 0 0 0 4 -262144 -1 -262144 0 0;
#X obj 1684 479 vsl 21 155 0 1 0 0 \$0-6stage6Op15.s \$0-6stage6Op15.r
empty 0 0 0 4 -262144 -1 -262144 0 0;
#X obj 1710 479 vsl 21 155 0 1 0 0 \$0-6stage6Op16.s \$0-6stage6Op16.r
empty 0 0 0 4 -262081 -262144 -262144 0 0;
#X text 1286 462 init;
#X text 1316 462 T1;
#X text 1418 462 T3;
#X text 1469 462 T4;
#X text 1524 462 T5;
#X text 1580 462 T6;
#X text 1343 462 L1;
#X text 1392 462 L2;
#X text 1368 462 T2;
#X text 1497 462 L4;
#X text 1549 462 L5;
#X text 1603 462 L6;
#X text 1634 462 R;
#X text 1652 462 strt;
#X text 1683 462 end;
#X text 1707 462 vel;
#X text 1444 462 L3;
#N canvas 2017 114 626 728 engine 1;
#X obj 101 -189 pack 0 0 0;
#X obj 101 -160 route 1 2 3 4 5 6 7 8;
#X obj 419 -140 osc~ 300;
#X obj 267 -3 *~ 0.8;
#X obj 100 -379 makenote;
#X msg 132 -415 127;
#X obj 68 -432 bng 15 250 50 0 empty empty empty 17 7 0 10 -262144
-1 -1;
#X floatatom 64 -403 5 0 0 0 - - -, f 5;
#X msg 165 -415 10000;
#X obj 309 -224 wiringPi;
#X obj 309 -275 loadbang;
#X msg 411 -168 0.1;
#X msg 442 -169 0;
#X obj 328 -16 r mastervol;
#X obj 422 -112 *~ 0;
#X obj 161 -297 inlet;
#X obj 159 -263 unpack 0 0;
#X obj 102 -229 poly 8 1;
#X obj 97 -120 2op;
#X obj 109 -96 2op;
#X obj 123 -72 2op;
#X obj 135 -48 2op;
#X obj 181 -122 2op;
#X obj 193 -98 2op;
#X obj 207 -74 2op;
#X obj 219 -50 2op;
#X obj 105 -28 2op;
#X obj 275 71 outlet~;
#X obj 290 36 *~ 0.7;
#X msg 325 -249 spi_init 0 1.04858e+06;
#X obj 256 -367 6stagefiltint;
#X obj 312 -319 * 2000;
#X msg 309 -296 spi_write 0 1 \$1;
#X msg 457 -353 spi_write 0 2 2000;
#X obj 485 -408 loadbang;
#X floatatom 514 -247 5 0 0 0 - - -, f 5;
#X msg 481 -200 spi_write 0 2 \$1;
#X msg 465 -321 spi_write 0 3 1500;
#X connect 0 0 1 0;
#X connect 1 0 18 0;
#X connect 1 1 19 0;
#X connect 1 2 20 0;
#X connect 1 3 21 0;
#X connect 1 4 22 0;
#X connect 1 5 23 0;
#X connect 1 6 24 0;
#X connect 1 7 25 0;
#X connect 2 0 14 0;
#X connect 3 0 28 0;
#X connect 4 0 17 0;
#X connect 4 1 17 1;
#X connect 5 0 4 1;
#X connect 6 0 5 0;
#X connect 6 0 8 0;
#X connect 6 0 7 0;
#X connect 7 0 4 0;
#X connect 8 0 4 2;
#X connect 10 0 29 0;
#X connect 11 0 14 1;
#X connect 12 0 14 1;
#X connect 13 0 3 1;
#X connect 15 0 16 0;
#X connect 16 0 17 0;
#X connect 16 1 17 1;
#X connect 16 1 30 0;
#X connect 17 0 0 0;
#X connect 17 1 0 1;
#X connect 17 2 0 2;
#X connect 18 0 3 0;
#X connect 19 0 3 0;
#X connect 20 0 3 0;
#X connect 21 0 3 0;
#X connect 22 0 3 0;
#X connect 23 0 3 0;
#X connect 24 0 3 0;
#X connect 25 0 3 0;
#X connect 28 0 27 0;
#X connect 29 0 9 0;
#X connect 30 0 31 0;
#X connect 31 0 32 0;
#X connect 32 0 9 0;
#X connect 33 0 9 0;
#X connect 34 0 33 0;
#X connect 34 0 37 0;
#X connect 35 0 36 0;
#X connect 36 0 9 0;
#X connect 37 0 9 0;
#X restore 1336 60 pd engine;
#X text 1665 445 comment;
#X text 113 896 RGB-colors;
#X msg 342 221 color \$1 \$2 \$3;
#N canvas 0 22 306 317 flash-time 0;
#X obj 96 521 outlet;
#X obj 162 230 t b f;
#X obj 96 268 +;
#X obj 96 293 t b f;
#X obj 96 324 +;
#X obj 19 208 * -65536;
#X obj 96 208 * -256;
#X obj 162 208 * -1;
#X obj 96 355 - 1;
#X obj 96 385 list prepend 0;
#X obj 96 410 route 0 1 2;
#X obj 96 497 pack 0 0 0;
#X obj 115 456 t b a;
#X obj 168 455 t b a;
#X obj 104 124 vradio 15 1 0 3 empty empty empty 0 -8 0 10 -262144
-1 -1 0;
#X text 120 120 1.bg;
#X text 120 137 2.front;
#X text 120 153 3.label;
#X obj 103 105 nbx 3 14 0 255 0 0 \$0-dummy \$0-r empty 0 -8 0 10 -262144
-258113 -1 0 256 0;
#X obj 133 105 nbx 3 14 0 255 0 0 \$0-dummy \$0-g empty 0 -8 0 10 -262144
-13381 -1 0 256 0;
#X obj 163 105 nbx 3 14 0 255 0 0 \$0-dummy \$0-b empty 0 -8 0 10 -262144
-4160 -1 0 256 0;
#X connect 1 0 2 0;
#X connect 1 1 2 1;
#X connect 2 0 3 0;
#X connect 3 0 4 0;
#X connect 3 1 4 1;
#X connect 4 0 8 0;
#X connect 5 0 4 0;
#X connect 6 0 2 0;
#X connect 7 0 1 0;
#X connect 8 0 9 0;
#X connect 9 0 10 0;
#X connect 10 0 11 0;
#X connect 10 1 12 0;
#X connect 10 2 13 0;
#X connect 11 0 0 0;
#X connect 12 0 11 0;
#X connect 12 1 11 1;
#X connect 13 0 11 0;
#X connect 13 1 11 2;
#X connect 14 0 9 1;
#X connect 18 0 5 0;
#X connect 19 0 6 0;
#X connect 20 0 7 0;
#X coords 0 -1 1 1 102 74 2 100 100;
#X restore 355 37 pd flash-time;
#X msg 644 217 color \$1 \$2 \$3;
#X text 353 188 time color;
#X text 665 190 loopcolor;
#X msg 446 221 color \$1 \$2 \$3;
#X text 458 190 level color;
#X msg 755 214 color \$1 \$2 \$3;
#X text 776 188 velcolor;
#X msg 548 218 color \$1 \$2 \$3;
#X text 550 195 release color;
#X msg 243 224 color \$1 \$2 \$3;
#X text 254 191 init color;
#X obj 1347 115 outlet~;
#X obj 1260 41 inlet;
#X text 308 827 init;
#X text 338 827 T1;
#X text 440 827 T3;
#X text 491 827 T4;
#X text 546 827 T5;
#X text 602 827 T6;
#X text 365 827 L1;
#X text 414 827 L2;
#X text 390 827 T2;
#X text 519 827 L4;
#X text 571 827 L5;
#X text 625 827 L6;
#X text 656 827 R;
#X text 674 827 strt;
#X text 705 827 end;
#X text 729 827 vel;
#X text 466 827 L3;
#X floatatom 42 695 5 0 0 0 - - -, f 5;
#X floatatom 70 670 5 0 0 0 - - -, f 5;
#X floatatom 135 664 5 0 0 0 - - -, f 5;
#X obj 45 647 ctlin 71 1;
#X obj 69 737 s osc1pitch;
#X floatatom 779 722 5 0 0 0 - #0-osc1pitch.r #0-osc1pitch.s, f 5
;
#X floatatom 180 610 5 0 0 0 - - -, f 5;
#X obj 179 631 s osc1pitch;
#X obj 180 588 r \$0-osc1pitch.s;
#X text 771 739 osc1partial;
#X obj 1339 150 dac~ 1 2 3 4 5 6 7 8;
#X connect 0 0 33 0;
#X connect 0 0 137 0;
#X connect 2 0 23 0;
#X connect 2 0 131 0;
#X connect 3 0 22 0;
#X connect 3 0 132 0;
#X connect 6 0 14 0;
#X connect 7 0 35 0;
#X connect 8 0 7 0;
#X connect 9 0 6 0;
#X connect 10 0 15 0;
#X connect 11 0 36 0;
#X connect 12 0 11 0;
#X connect 13 0 10 0;
#X connect 16 0 18 0;
#X connect 18 0 17 0;
#X connect 19 0 20 0;
#X connect 22 0 19 1;
#X connect 22 0 21 0;
#X connect 23 0 19 0;
#X connect 24 0 26 0;
#X connect 26 0 25 0;
#X connect 29 0 128 0;
#X connect 31 0 32 0;
#X connect 31 0 34 0;
#X connect 40 0 130 0;
#X connect 41 0 38 0;
#X connect 43 0 153 0;
#X connect 45 0 152 0;
#X connect 121 0 120 0;
#X connect 121 0 27 0;
#X connect 123 0 122 0;
#X connect 123 0 124 0;
#X connect 126 0 125 0;
#X connect 126 0 127 0;
#X connect 129 0 41 0;
#X connect 133 0 2 0;
#X connect 134 0 3 0;
#X connect 136 0 135 0;
#X connect 136 0 0 0;
#X connect 140 0 128 0;
#X connect 141 0 128 0;
#X connect 142 0 128 0;
#X connect 143 0 128 0;
#X connect 144 0 128 0;
#X connect 145 0 128 0;
#X connect 148 0 149 0;
#X connect 148 0 45 0;
#X connect 148 0 44 0;
#X connect 150 0 151 0;
#X connect 150 0 43 0;
#X connect 150 0 42 0;
#X connect 256 0 272 0;
#X connect 256 0 301 0;
#X connect 256 0 301 1;
#X connect 256 0 301 2;
#X connect 256 0 301 3;
#X connect 256 0 301 4;
#X connect 256 0 301 5;
#X connect 256 0 301 6;
#X connect 256 0 301 7;
#X connect 259 0 67 0;
#X connect 259 0 235 0;
#X connect 259 0 233 0;
#X connect 259 0 231 0;
#X connect 259 0 229 0;
#X connect 259 0 227 0;
#X connect 259 0 225 0;
#X connect 259 0 223 0;
#X connect 259 0 218 0;
#X connect 259 0 216 0;
#X connect 259 0 214 0;
#X connect 259 0 212 0;
#X connect 259 0 210 0;
#X connect 259 0 208 0;
#X connect 259 0 206 0;
#X connect 259 0 167 0;
#X connect 259 0 165 0;
#X connect 259 0 163 0;
#X connect 259 0 161 0;
#X connect 259 0 159 0;
#X connect 259 0 157 0;
#X connect 259 0 155 0;
#X connect 259 0 184 0;
#X connect 259 0 182 0;
#X connect 259 0 180 0;
#X connect 259 0 178 0;
#X connect 259 0 176 0;
#X connect 259 0 174 0;
#X connect 259 0 172 0;
#X connect 259 0 79 0;
#X connect 259 0 77 0;
#X connect 259 0 75 0;
#X connect 259 0 73 0;
#X connect 259 0 71 0;
#X connect 259 0 69 0;
#X connect 259 0 62 0;
#X connect 259 0 60 0;
#X connect 259 0 58 0;
#X connect 259 0 56 0;
#X connect 259 0 54 0;
#X connect 259 0 52 0;
#X connect 259 0 50 0;
#X connect 261 0 80 0;
#X connect 261 0 220 0;
#X connect 261 0 219 0;
#X connect 261 0 237 0;
#X connect 261 0 236 0;
#X connect 261 0 186 0;
#X connect 261 0 185 0;
#X connect 261 0 169 0;
#X connect 261 0 168 0;
#X connect 261 0 64 0;
#X connect 261 0 63 0;
#X connect 261 0 81 0;
#X connect 264 0 51 0;
#X connect 264 0 234 0;
#X connect 264 0 232 0;
#X connect 264 0 230 0;
#X connect 264 0 228 0;
#X connect 264 0 226 0;
#X connect 264 0 224 0;
#X connect 264 0 217 0;
#X connect 264 0 215 0;
#X connect 264 0 213 0;
#X connect 264 0 211 0;
#X connect 264 0 209 0;
#X connect 264 0 207 0;
#X connect 264 0 183 0;
#X connect 264 0 181 0;
#X connect 264 0 179 0;
#X connect 264 0 177 0;
#X connect 264 0 175 0;
#X connect 264 0 166 0;
#X connect 264 0 164 0;
#X connect 264 0 162 0;
#X connect 264 0 160 0;
#X connect 264 0 158 0;
#X connect 264 0 156 0;
#X connect 264 0 173 0;
#X connect 264 0 78 0;
#X connect 264 0 76 0;
#X connect 264 0 74 0;
#X connect 264 0 72 0;
#X connect 264 0 70 0;
#X connect 264 0 68 0;
#X connect 264 0 61 0;
#X connect 264 0 59 0;
#X connect 264 0 57 0;
#X connect 264 0 55 0;
#X connect 264 0 53 0;
#X connect 266 0 65 0;
#X connect 266 0 238 0;
#X connect 266 0 221 0;
#X connect 266 0 187 0;
#X connect 266 0 170 0;
#X connect 266 0 82 0;
#X connect 268 0 62 0;
#X connect 268 0 235 0;
#X connect 268 0 218 0;
#X connect 268 0 167 0;
#X connect 268 0 184 0;
#X connect 268 0 79 0;
#X connect 270 0 49 0;
#X connect 270 0 205 0;
#X connect 270 0 222 0;
#X connect 270 0 171 0;
#X connect 270 0 154 0;
#X connect 270 0 66 0;
#X connect 273 0 256 0;
#X connect 294 0 291 0;
#X connect 294 0 295 0;
#X connect 299 0 297 0;
#X connect 299 0 298 0;
#X coords 0 0 1 1 1600 1000 0;
