#N struct plot-help-array2-template float x float y;
#N struct plot-help-template float x float y array array2 plot-help-array2-template
;
#N struct envelopedisplay-template float x float y array array2 plot-help-array2-template
;
#N struct structure_02 float x0 float y0 float x1 float y1 float x2
float y2 float x3 float y3 float x4 float y4 float x5 float y5 float
x6 float y6 float x7 float y7;
#N struct structure_01 float x0 float y0 float x1 float y1 float x2
float y2 float x3 float y3 float x4 float y4 float x5 float y5 float
x6 float y6 float x7 float y7;
#N canvas 307 37 1920 1008 10;
#X obj 75 -63 sy77;
#X obj 10 39 notein;
#X obj 10 61 pack;
#X floatatom 9 105 5 0 0 0 - - -, f 5;
#X msg 255 -159 30 127;
#X msg 357 -136 30 0;
#X obj 61 935;
#X obj 550 -200 counter 16;
#X obj 550 -178 tabread seq;
#X msg 625 -131 127;
#X obj 490 -170 t f b;
#X obj 479 -225 tgl 15 0 empty empty empty 17 7 0 10 -262144 -1 -1
1 1;
#X floatatom 61 935 5 0 0 0 - - -, f 5;
#X obj 465 -123 makenote;
#X obj 403 -94 pack;
#X obj 545 -228 metro 300;
#X obj 746 -176 table seq;
#X obj 461 -148 + 36;
#X msg 822 -190 \; seq 1 1 13 4 5 8 3 6 4 4 2 10 13 23;
#X floatatom 646 -163 5 0 0 0 - - -, f 5;
#X msg 815 -130 \; seq 12 12 24 12 36 12 24 12 24 36 24 48 36 12 36
24 36 48;
#X msg 686 -132 100;
#X floatatom 654 -222 5 0 0 0 - - -, f 5;
#X connect 1 0 2 0;
#X connect 1 0 3 0;
#X connect 1 1 2 1;
#X connect 2 0 0 0;
#X connect 4 0 0 0;
#X connect 5 0 0 0;
#X connect 7 0 8 0;
#X connect 8 0 10 0;
#X connect 9 0 13 1;
#X connect 10 0 17 0;
#X connect 10 1 9 0;
#X connect 10 1 21 0;
#X connect 11 0 15 0;
#X connect 13 0 14 0;
#X connect 13 1 14 1;
#X connect 14 0 0 0;
#X connect 15 0 7 0;
#X connect 17 0 13 0;
#X connect 17 0 19 0;
#X connect 21 0 13 2;
#X connect 22 0 15 1;
