#N canvas 76 343 445 515 10;
#X msg 42 -10 text size colour x y;
#X obj 248 162 pack;
#X text 235 13 text size colour x y;
#X obj 154 420 s toDisplay;
#X msg 186 276 print /14/\$1/;
#X msg 223 236 print /12/\$1/;
#X msg 257 199 print /11/\$1/\$2/;
#X msg 147 379 print /17/\$1/;
#X obj 236 307 prepend set;
#X msg 220 329 print /11/120/90/;
#X obj 153 331 symbol;
#X obj 156 305 t b b s;
#X obj 167 133 unpack s f f f f b;
#X msg 217 45 hello 7 10000 120 90;
#X obj 88 38 inlet;
#X connect 1 0 6 0;
#X connect 4 0 3 0;
#X connect 5 0 3 0;
#X connect 6 0 8 0;
#X connect 7 0 3 0;
#X connect 8 0 9 0;
#X connect 9 0 3 0;
#X connect 10 0 7 0;
#X connect 11 0 10 0;
#X connect 11 1 9 0;
#X connect 11 2 10 1;
#X connect 12 0 11 0;
#X connect 12 1 4 0;
#X connect 12 2 5 0;
#X connect 12 3 1 0;
#X connect 12 4 1 1;
#X connect 13 0 12 0;
#X connect 14 0 12 0;
#X coords 0 -1 1 1 157 31 1 215 0;
