#N canvas 597 410 543 368 10;
#X obj 32 176 inlet;
#X text 103 119 vca;
#X obj 168 188 inlet;
#X obj 280 204 inlet;
#X obj 403 265 inlet~;
#X obj 140 317 s tocv;
#X text 128 120 Fc;
#X text 150 120 Fr;
#X text 172 120 ~;
#X obj 385 301 throw~ channel4;
#X msg 8 211 spi_write 0 9 \$1;
#X msg 139 240 spi_write 0 12 \$1;
#X msg 271 252 spi_write 0 15 \$1;
#X connect 0 0 10 0;
#X connect 2 0 11 0;
#X connect 3 0 12 0;
#X connect 4 0 9 0;
#X connect 10 0 5 0;
#X connect 11 0 5 0;
#X connect 12 0 5 0;
#X coords 0 -1 1 1 85 40 1 100 100;
