#N canvas 621 499 543 368 10;
#X obj 25 181 inlet;
#X text 102 117 vca;
#X obj 159 210 inlet;
#X obj 266 224 inlet;
#X obj 398 249 inlet~;
#X obj 156 314 s tocv;
#X text 127 118 Fc;
#X text 149 118 Fr;
#X text 171 118 ~;
#X msg 16 269 spi_write 0 2 \$1;
#X obj 395 280 throw~ channel3;
#X msg 156 267 spi_write 0 5 \$1;
#X msg 269 267 spi_write 0 8 \$1;
#X connect 0 0 9 0;
#X connect 2 0 11 0;
#X connect 3 0 12 0;
#X connect 4 0 10 0;
#X connect 9 0 5 0;
#X connect 11 0 5 0;
#X connect 12 0 5 0;
#X coords 0 -1 1 1 85 40 1 100 100;
