#N canvas 621 499 543 368 10;
#X obj 23 180 inlet;
#X text 101 116 vca;
#X obj 159 210 inlet;
#X obj 246 225 inlet;
#X obj 397 271 inlet~;
#X obj 156 314 s tocv;
#X text 126 117 Fc;
#X text 148 117 Fr;
#X text 170 117 ~;
#X msg 16 269 spi_write 0 1 \$1;
#X obj 387 296 throw~ channel2;
#X msg 156 267 spi_write 0 4 \$1;
#X msg 269 268 spi_write 0 7 \$1;
#X connect 0 0 9 0;
#X connect 2 0 11 0;
#X connect 3 0 12 0;
#X connect 4 0 10 0;
#X connect 9 0 5 0;
#X connect 11 0 5 0;
#X connect 12 0 5 0;
#X coords 0 -1 1 1 85 40 1 100 100;
