#N canvas 598 435 543 368 10;
#X obj 24 166 inlet;
#X text 103 119 vca;
#X obj 159 210 inlet;
#X obj 258 238 inlet;
#X obj 397 286 inlet~;
#X obj 156 314 s tocv;
#X text 128 120 Fc;
#X text 150 120 Fr;
#X text 172 120 ~;
#X obj 393 317 throw~ channel5;
#X msg 17 269 spi_write 0 10 \$1;
#X msg 156 267 spi_write 0 13 \$1;
#X msg 269 267 spi_write 0 16 \$1;
#X connect 0 0 10 0;
#X connect 2 0 11 0;
#X connect 3 0 12 0;
#X connect 4 0 9 0;
#X connect 10 0 5 0;
#X connect 11 0 5 0;
#X connect 12 0 5 0;
#X coords 0 -1 1 1 85 40 1 100 100;
