#N canvas 586 394 593 445 10;
#X obj 22 177 inlet;
#X text 101 118 vca;
#X obj 94 192 inlet;
#X obj 152 209 inlet;
#X obj 372 218 inlet~;
#X msg 16 269 spi_write 0 0 \$1;
#X obj 156 314 s tocv;
#X text 126 119 Fc;
#X text 148 119 Fr;
#X text 170 119 ~;
#X obj 355 241 throw~ channel1;
#X msg 156 267 spi_write 0 3 \$1;
#X msg 269 267 spi_write 0 6 \$1;
#X connect 0 0 5 0;
#X connect 2 0 11 0;
#X connect 3 0 12 0;
#X connect 4 0 10 0;
#X connect 5 0 6 0;
#X connect 11 0 6 0;
#X connect 12 0 6 0;
#X coords 0 -1 1 1 85 40 1 100 100;
