#N canvas 570 326 543 368 10;
#X obj 29 179 inlet;
#X text 103 119 vca;
#X obj 159 210 inlet;
#X obj 261 223 inlet;
#X obj 417 290 inlet~;
#X obj 156 314 s tocv;
#X text 128 120 Fc;
#X text 150 120 Fr;
#X text 172 120 ~;
#X msg 36 261 spi_write 0 11 \$1;
#X msg 153 253 spi_write 0 14 \$1;
#X msg 276 259 spi_write 0 17 \$1;
#X obj 413 321 throw~ channel6;
#X connect 0 0 9 0;
#X connect 2 0 10 0;
#X connect 3 0 11 0;
#X connect 4 0 12 0;
#X connect 9 0 5 0;
#X connect 10 0 5 0;
#X connect 11 0 5 0;
#X coords 0 -1 1 1 85 40 1 100 100;
