#N canvas 482 238 842 590 10;
#X obj 321 296 tabosc4~ array1;
#X obj 308 195 mtof;
#X obj 286 100 notein;
#X floatatom 286 122 5 0 0 0 - - -, f 5;
#X obj 276 238 sig~;
#X floatatom 211 231 5 0 0 0 - - -, f 5;
#N canvas 0 22 450 278 (subpatch) 0;
#X array array1 515 float 2;
#X coords 0 1 515 -1 200 140 1;
#X restore 570 162 graph;
#X obj 514 84 soundfiler;
#X msg 529 11 read -resize Desktop/wavetables/test1.wav array1;
#X obj 322 356 dac~;
#X msg 398 424 \; array1 sinesum 512 0.5 0.5 0.5 0.5 \;;
#X connect 0 0 9 0;
#X connect 0 0 9 1;
#X connect 1 0 4 0;
#X connect 1 0 5 0;
#X connect 2 0 3 0;
#X connect 3 0 1 0;
#X connect 4 0 0 0;
#X connect 8 0 7 0;
