#N canvas 64 132 1376 811 10;
#X obj 98 20 loadbang;
#X obj 98 72 t b b;
#X obj 92 124 s toshell;
#X obj 180 167 r fromshell;
#X obj 180 189 t b a;
#X obj 169 212 counter;
#X msg 142 188 0;
#X msg 130 233 clear;
#X obj 180 233 list append;
#X msg 301 205 next;
#X msg 357 202 prev;
#X obj 180 277 symbol;
#X obj 180 299 t b a b;
#X msg 220 326 stop;
#X obj 177 796 s toDisplay;
#X obj 436 351 symbol;
#X obj 833 339 symbol;
#X obj 560 429 s loadpreset;
#X obj 828 414 s savepreset;
#X obj 549 406 symbol;
#X obj 885 335 f;
#X obj 830 367 pack s f;
#X obj 824 266 t b b b b;
#X obj 474 284 t b b b;
#X msg 589 519 \; pd dsp 0;
#X msg 643 528 \; pd dsp 1;
#X msg 438 493 print /11/0/0/;
#X obj 525 316 delay 20;
#X msg 1002 460 \; pd dsp 0;
#X msg 1074 459 \; pd dsp 1;
#X msg 1035 395 1;
#X msg 915 430 print /11/0/0/;
#X obj 922 281 delay 20;
#X obj 824 441 s resetpoly;
#X obj 833 290 delay 2000;
#N canvas 331 216 1129 705 controller 0;
#X obj 996 219 s paramdisp;
#X obj 91 452 s valuedisp;
#X obj 192 -80 unpack;
#X floatatom 187 -56 5 0 0 0 - - -, f 5;
#X floatatom 234 -57 5 0 0 0 - - -, f 5;
#X obj 166 -160 r encoders;
#X obj 973 -121 change;
#X obj 973 -100 sel 1 2 3 4 5 6 7 8 9 10 11 12;
#X obj 135 -26 route 1 2 3 4 5 6 7 8 9 10 11 12;
#X obj 164 -109 t l l;
#X msg 1077 173 Resonance;
#X msg 954 -62 FilterInit;
#X obj 28 47 f;
#X obj 3 1 t b f;
#X obj 6 47 +;
#X obj 29 25 / 4;
#X obj 8 89 i;
#X obj 8 111 change;
#X obj 50 361 outlet;
#X obj 109 399 outlet;
#X obj 187 400 outlet;
#X obj 271 404 outlet;
#X obj 354 409 outlet;
#X obj 434 415 outlet;
#X obj 502 417 outlet;
#X obj 583 422 outlet;
#X obj 667 427 outlet;
#X obj 753 433 outlet;
#X obj 835 441 outlet;
#X obj 920 460 outlet;
#X obj 109 47 f;
#X obj 84 1 t b f;
#X obj 87 47 +;
#X obj 110 25 / 4;
#X obj 89 89 i;
#X obj 89 113 change;
#X obj 87 68 clip 1 5000;
#X obj 188 48 f;
#X obj 163 2 t b f;
#X obj 166 48 +;
#X obj 189 26 / 4;
#X obj 168 90 i;
#X obj 168 112 change;
#X obj 274 47 f;
#X obj 249 1 t b f;
#X obj 252 47 +;
#X obj 275 25 / 4;
#X obj 254 89 i;
#X obj 254 111 change;
#X obj 252 68 clip 1 5000;
#X obj 355 47 f;
#X obj 330 1 t b f;
#X obj 333 47 +;
#X obj 356 25 / 4;
#X obj 335 89 i;
#X obj 335 111 change;
#X obj 434 48 f;
#X obj 409 2 t b f;
#X obj 412 48 +;
#X obj 435 26 / 4;
#X obj 414 90 i;
#X obj 415 113 change;
#X obj 412 69 clip 1 5000;
#X obj 512 44 f;
#X obj 487 -2 t b f;
#X obj 490 44 +;
#X obj 513 22 / 4;
#X obj 492 86 i;
#X obj 492 108 change;
#X obj 593 44 f;
#X obj 568 -2 t b f;
#X obj 571 44 +;
#X obj 594 22 / 4;
#X obj 573 86 i;
#X obj 573 108 change;
#X obj 571 65 clip 1 5000;
#X obj 672 45 f;
#X obj 647 -1 t b f;
#X obj 650 45 +;
#X obj 673 23 / 4;
#X obj 652 87 i;
#X obj 652 109 change;
#X obj 758 44 f;
#X obj 733 -2 t b f;
#X obj 736 44 +;
#X obj 759 22 / 4;
#X obj 738 86 i;
#X obj 738 108 change;
#X obj 839 44 f;
#X obj 814 -2 t b f;
#X obj 817 44 +;
#X obj 840 22 / 4;
#X obj 819 86 i;
#X obj 814 110 change;
#X obj 918 45 f;
#X obj 893 -1 t b f;
#X obj 896 45 +;
#X obj 919 23 / 4;
#X obj 898 87 i;
#X obj 898 109 change;
#X obj 896 66 clip 1 5000;
#X obj 817 65 clip 0 4095;
#X obj 6 68 clip 0 4095;
#X obj 162 260 i;
#X obj 161 163 t f f f;
#X obj 202 291 / 4095;
#X obj 185 194 mod 34.125;
#X obj 160 236 / 409.5;
#X obj 184 215 / 34.125;
#X obj 154 290 +;
#X obj 332 261 i;
#X obj 331 164 t f f f;
#X obj 391 294 / 4095;
#X obj 355 195 mod 34.125;
#X obj 330 237 / 409.5;
#X obj 354 216 / 34.125;
#X obj 334 284 +;
#X obj 492 261 i;
#X obj 491 164 t f f f;
#X obj 532 292 / 4095;
#X obj 515 195 mod 34.125;
#X obj 490 237 / 409.5;
#X obj 514 216 / 34.125;
#X obj 494 284 +;
#X obj 166 69 clip 0 4095;
#X obj 333 68 clip 0 4095;
#X obj 491 65 clip 0 4095;
#X floatatom 154 312 5 0 0 0 - - -, f 5;
#X obj 108 144 / 5000;
#X obj 266 145 / 5000;
#X obj 430 146 / 5000;
#X obj 591 149 / 5000;
#X obj 650 66 clip 0 5;
#X obj 736 65 clip 1 6;
#X obj 657 146 / 5;
#X obj 719 136 / 6;
#X msg 960 -37 FilterT4;
#X msg 971 -17 FilterL4;
#X msg 981 10 FilterT5;
#X msg 991 30 FilterL5;
#X msg 1011 54 FilterT6;
#X msg 1021 74 FilterL6;
#X msg 1035 97 Release;
#X msg 1046 117 LoopStart;
#X msg 1058 141 LoopEnd;
#X obj 42 -56 r filecount;
#X floatatom 38 152 5 0 0 0 - - -, f 5;
#X floatatom 56 -32 5 0 0 0 - - -, f 5;
#X obj 161 -139 route 70;
#X connect 2 0 3 0;
#X connect 2 1 4 0;
#X connect 5 0 148 0;
#X connect 6 0 7 0;
#X connect 7 0 11 0;
#X connect 7 1 136 0;
#X connect 7 2 137 0;
#X connect 7 3 138 0;
#X connect 7 4 139 0;
#X connect 7 5 140 0;
#X connect 7 6 141 0;
#X connect 7 7 142 0;
#X connect 7 8 143 0;
#X connect 7 9 144 0;
#X connect 7 10 10 0;
#X connect 8 0 13 0;
#X connect 8 1 31 0;
#X connect 8 2 38 0;
#X connect 8 3 44 0;
#X connect 8 4 51 0;
#X connect 8 5 57 0;
#X connect 8 6 64 0;
#X connect 8 7 70 0;
#X connect 8 8 77 0;
#X connect 8 9 83 0;
#X connect 8 10 89 0;
#X connect 8 11 95 0;
#X connect 9 0 8 0;
#X connect 9 1 2 0;
#X connect 10 0 0 0;
#X connect 11 0 0 0;
#X connect 12 0 14 0;
#X connect 13 0 12 0;
#X connect 13 1 15 0;
#X connect 14 0 102 0;
#X connect 15 0 14 1;
#X connect 16 0 17 0;
#X connect 17 0 18 0;
#X connect 17 0 146 0;
#X connect 30 0 32 0;
#X connect 31 0 30 0;
#X connect 31 1 33 0;
#X connect 32 0 36 0;
#X connect 33 0 32 1;
#X connect 34 0 35 0;
#X connect 35 0 128 0;
#X connect 36 0 30 1;
#X connect 36 0 34 0;
#X connect 37 0 39 0;
#X connect 38 0 37 0;
#X connect 38 1 40 0;
#X connect 39 0 124 0;
#X connect 40 0 39 1;
#X connect 41 0 42 0;
#X connect 42 0 104 0;
#X connect 43 0 45 0;
#X connect 44 0 43 0;
#X connect 44 1 46 0;
#X connect 45 0 49 0;
#X connect 46 0 45 1;
#X connect 47 0 48 0;
#X connect 48 0 129 0;
#X connect 49 0 43 1;
#X connect 49 0 47 0;
#X connect 50 0 52 0;
#X connect 51 0 50 0;
#X connect 51 1 53 0;
#X connect 52 0 125 0;
#X connect 53 0 52 1;
#X connect 54 0 55 0;
#X connect 55 0 111 0;
#X connect 56 0 58 0;
#X connect 57 0 56 0;
#X connect 57 1 59 0;
#X connect 58 0 62 0;
#X connect 59 0 58 1;
#X connect 60 0 61 0;
#X connect 61 0 130 0;
#X connect 62 0 56 1;
#X connect 62 0 60 0;
#X connect 63 0 65 0;
#X connect 64 0 63 0;
#X connect 64 1 66 0;
#X connect 65 0 126 0;
#X connect 66 0 65 1;
#X connect 67 0 68 0;
#X connect 68 0 118 0;
#X connect 69 0 71 0;
#X connect 70 0 69 0;
#X connect 70 1 72 0;
#X connect 71 0 75 0;
#X connect 72 0 71 1;
#X connect 73 0 74 0;
#X connect 74 0 131 0;
#X connect 75 0 69 1;
#X connect 75 0 73 0;
#X connect 76 0 78 0;
#X connect 77 0 76 0;
#X connect 77 1 79 0;
#X connect 78 0 132 0;
#X connect 79 0 78 1;
#X connect 80 0 81 0;
#X connect 81 0 134 0;
#X connect 82 0 84 0;
#X connect 83 0 82 0;
#X connect 83 1 85 0;
#X connect 84 0 133 0;
#X connect 85 0 84 1;
#X connect 86 0 87 0;
#X connect 87 0 135 0;
#X connect 88 0 90 0;
#X connect 89 0 88 0;
#X connect 89 1 91 0;
#X connect 90 0 101 0;
#X connect 91 0 90 1;
#X connect 92 0 93 0;
#X connect 93 0 28 0;
#X connect 94 0 96 0;
#X connect 95 0 94 0;
#X connect 95 1 97 0;
#X connect 96 0 100 0;
#X connect 97 0 96 1;
#X connect 98 0 99 0;
#X connect 99 0 29 0;
#X connect 100 0 94 1;
#X connect 100 0 98 0;
#X connect 101 0 88 1;
#X connect 101 0 92 0;
#X connect 102 0 12 1;
#X connect 102 0 16 0;
#X connect 103 0 109 0;
#X connect 104 0 107 0;
#X connect 104 1 106 0;
#X connect 104 2 105 0;
#X connect 105 0 20 0;
#X connect 106 0 108 0;
#X connect 107 0 103 0;
#X connect 108 0 109 1;
#X connect 109 0 127 0;
#X connect 110 0 116 0;
#X connect 111 0 114 0;
#X connect 111 1 113 0;
#X connect 111 2 112 0;
#X connect 112 0 22 0;
#X connect 113 0 115 0;
#X connect 114 0 110 0;
#X connect 115 0 116 1;
#X connect 117 0 123 0;
#X connect 118 0 121 0;
#X connect 118 1 120 0;
#X connect 118 2 119 0;
#X connect 119 0 24 0;
#X connect 120 0 122 0;
#X connect 121 0 117 0;
#X connect 122 0 123 1;
#X connect 124 0 37 1;
#X connect 124 0 41 0;
#X connect 125 0 50 1;
#X connect 125 0 54 0;
#X connect 126 0 63 1;
#X connect 126 0 67 0;
#X connect 128 0 19 0;
#X connect 129 0 21 0;
#X connect 130 0 23 0;
#X connect 131 0 25 0;
#X connect 132 0 76 1;
#X connect 132 0 80 0;
#X connect 133 0 82 1;
#X connect 133 0 86 0;
#X connect 134 0 26 0;
#X connect 135 0 27 0;
#X connect 136 0 0 0;
#X connect 137 0 0 0;
#X connect 138 0 0 0;
#X connect 139 0 0 0;
#X connect 140 0 0 0;
#X connect 141 0 0 0;
#X connect 142 0 0 0;
#X connect 143 0 0 0;
#X connect 144 0 0 0;
#X connect 145 0 102 2;
#X connect 145 0 147 0;
#X connect 148 0 9 0;
#X restore 803 67 pd controller;
#X obj 82 377 s filecount;
#X text 867 243 save;
#X text 482 253 load;
#X obj 472 664 s toDisplay;
#X obj 964 560 s toDisplay;
#X obj 655 30 route 70;
#X obj 1043 73 r encoders;
#X floatatom 1039 147 5 0 0 0 - - -, f 5;
#X floatatom 1083 147 5 0 0 0 - - -, f 5;
#X floatatom 1124 147 5 0 0 0 - - -, f 5;
#X obj 874 220 gate 12;
#X obj 1042 118 unpack 0 0;
#X obj 1043 95 route 70;
#X msg 865 189 0;
#X obj 1005 370 delay 50;
#X obj 799 220 bng 15 250 50 0 empty empty empty 17 7 0 10 -262144
-1 -1;
#X obj 1175 113 bng 15 250 50 0 empty empty empty 17 7 0 10 -262144
-1 -1;
#X obj 779 118 t b;
#X obj 186 32 delay 4000;
#X msg 212 444 print /3/0/0/320/30/1/;
#X msg 490 566 LOADINGLOADINGLOA;
#X msg 868 482 SAVINGSAVINGSAVING;
#X obj 517 627 symbol;
#X obj 246 635 s totext;
#X obj 192 376 delay 50;
#X obj 196 412 t b b;
#X obj 233 498 symbol;
#X obj 238 572 pack s 3 300291 0 0;
#X obj 412 435 delay 500;
#X obj 180 255 coll 1;
#C restore;
#X obj 475 411 delay 500;
#X msg 612 605 0 8;
#X obj 1088 183 t b;
#X msg 1087 206 1;
#X obj 593 9 r gridbuts;
#X obj 611 90 sel 8 9 10 11 12 13 14 15 0;
#X obj 603 485 s resetpoly;
#X obj 412 457 delay 100;
#X obj 612 627 s gridbuts;
#X obj 394 602 s toshell;
#X msg 378 531 aconnect 20:0 128:0;
#X obj 429 213 loadbang 5000;
#X obj 429 235 t b b;
#X obj 714 447 print loadname;
#X obj 622 330 symbol;
#X msg 654 263 test;
#X msg 97 95 ls /home/pi/Documents/pd_modularorig/models/wtpresets
;
#X msg 472 377 /home/pi/Documents/pd_modularorig/models/wtpresets/\$1
;
#X msg 829 390 /home/pi/Documents/pd_modularorig/models/wtpresets/\$2::\$1
;
#X connect 0 0 54 0;
#X connect 1 0 82 0;
#X connect 1 1 6 0;
#X connect 1 1 7 0;
#X connect 3 0 4 0;
#X connect 4 0 5 0;
#X connect 4 1 8 1;
#X connect 5 0 8 0;
#X connect 5 0 20 1;
#X connect 5 0 36 0;
#X connect 6 0 5 3;
#X connect 7 0 65 0;
#X connect 8 0 65 0;
#X connect 9 0 65 0;
#X connect 10 0 65 0;
#X connect 11 0 12 0;
#X connect 12 0 60 0;
#X connect 12 1 62 1;
#X connect 12 2 13 0;
#X connect 13 0 60 0;
#X connect 15 0 83 0;
#X connect 15 0 11 1;
#X connect 16 0 21 0;
#X connect 19 0 17 0;
#X connect 20 0 21 1;
#X connect 21 0 84 0;
#X connect 22 0 34 0;
#X connect 22 2 16 0;
#X connect 22 3 20 0;
#X connect 22 3 32 0;
#X connect 22 3 31 0;
#X connect 23 0 66 0;
#X connect 23 0 49 0;
#X connect 23 1 15 0;
#X connect 23 2 26 0;
#X connect 23 2 27 0;
#X connect 26 0 39 0;
#X connect 27 0 56 0;
#X connect 31 0 40 0;
#X connect 32 0 57 0;
#X connect 34 0 1 0;
#X connect 34 0 33 0;
#X connect 34 0 50 0;
#X connect 35 0 65 0;
#X connect 41 0 71 0;
#X connect 42 0 48 0;
#X connect 46 0 51 0;
#X connect 46 0 23 0;
#X connect 47 0 43 0;
#X connect 47 1 44 0;
#X connect 47 1 52 0;
#X connect 47 1 68 0;
#X connect 48 0 47 0;
#X connect 49 0 46 0;
#X connect 50 0 30 0;
#X connect 50 0 11 0;
#X connect 53 0 46 1;
#X connect 54 0 1 0;
#X connect 55 0 14 0;
#X connect 56 0 58 0;
#X connect 57 0 58 0;
#X connect 58 0 12 0;
#X connect 60 0 61 0;
#X connect 61 0 62 0;
#X connect 61 1 55 0;
#X connect 62 0 63 0;
#X connect 63 0 59 0;
#X connect 64 0 11 0;
#X connect 64 0 73 0;
#X connect 64 0 72 0;
#X connect 65 0 11 0;
#X connect 65 0 15 1;
#X connect 66 0 64 0;
#X connect 66 0 67 0;
#X connect 67 0 74 0;
#X connect 68 0 69 0;
#X connect 69 0 46 0;
#X connect 70 0 41 0;
#X connect 71 8 53 0;
#X connect 73 0 76 0;
#X connect 73 0 1 0;
#X connect 77 0 78 0;
#X connect 78 0 23 0;
#X connect 78 1 81 0;
#X connect 80 0 15 1;
#X connect 80 0 62 1;
#X connect 81 0 11 0;
#X connect 81 0 80 0;
#X connect 82 0 2 0;
#X connect 83 0 19 0;
#X connect 83 0 79 0;
#X connect 84 0 18 0;
