#N canvas 463 44 1243 1013 10;
#X obj 568 -47 inlet;
#X obj 558 892 outlet~;
#X obj 568 4 mtof;
#X obj 554 117 line~, f 8;
#X msg 557 89 \$1 \$2;
#X obj 557 69 pack;
#X obj 577 47 r porta;
#X obj 567 -22 unpack 0 0;
#X obj 559 862 *~ 0.1;
#X obj 677 912 outlet;
#X obj 678 886 i;
#X obj 604 69 r resetpoly;
#X msg 604 91 stop;
#X obj 676 861 Envelope6 6stagefilt 5000 4095 2;
#X obj 885 879 Envelope6 6stage1Op 5000 1 2;
#X floatatom 770 127 5 0 0 0 - - -, f 5;
#X obj 757 107 r osc2pitch;
#X obj 882 107 r osc1pitch;
#X obj 893 934 outlet;
#X obj 886 902 * 4095;
#X obj 119 346 phasor~;
#X obj 60 469 tabread4~ wavetable;
#X obj 359 479 tabread4~ wavetable;
#X obj 116 322 +~, f 4;
#X obj 119 373 *~ 2048;
#X obj 41 444 +~;
#X obj 361 451 +~;
#X obj 376 409 +~ 1;
#X obj 167 351 r cyclesize;
#X obj 272 158 r wtenvdepth;
#X obj 423 290 wrap~;
#X obj 55 421 *~ 2048;
#X obj 375 431 *~ 2048;
#X obj 384 233 r wtstart;
#X obj 139 244 r~ pitchlfo;
#X obj 379 90 r lfo2rate;
#X obj 400 139 r lfo2amt;
#X obj 378 114 osc~ 0.02;
#X obj 378 156 *~;
#X obj 353 339 -~, f 5;
#X obj 352 296 wrap~;
#X obj 57 530 *~;
#X obj 340 546 *~;
#X obj 356 503 *~ 2048;
#X obj 59 496 tabread~ hanning;
#X obj 356 523 tabread~ hanning50;
#X obj 421 397 r cyclesize;
#X obj 342 660 *~ 1;
#X obj 351 251 +~ 0;
#X obj 352 274 /~ 127;
#X obj 352 318 *~ 127;
#X obj 352 226 *~ 1;
#X obj 365 187 Envelope6~ wtshape 5000 4095 2;
#X obj 584 781 r mastervol;
#X obj 592 822 * 4;
#X connect 0 0 7 0;
#X connect 2 0 5 0;
#X connect 3 0 23 0;
#X connect 4 0 3 0;
#X connect 5 0 4 0;
#X connect 6 0 5 1;
#X connect 7 0 2 0;
#X connect 7 1 52 0;
#X connect 7 1 13 0;
#X connect 7 1 14 0;
#X connect 8 0 1 0;
#X connect 10 0 9 0;
#X connect 11 0 12 0;
#X connect 12 0 3 0;
#X connect 13 0 10 0;
#X connect 14 0 19 0;
#X connect 16 0 15 0;
#X connect 19 0 18 0;
#X connect 20 0 24 0;
#X connect 21 0 41 0;
#X connect 22 0 42 0;
#X connect 23 0 20 0;
#X connect 24 0 26 0;
#X connect 24 0 25 0;
#X connect 25 0 21 0;
#X connect 26 0 22 0;
#X connect 27 0 32 0;
#X connect 28 0 24 1;
#X connect 28 0 31 1;
#X connect 29 0 51 1;
#X connect 30 0 39 1;
#X connect 30 0 43 0;
#X connect 31 0 25 1;
#X connect 32 0 26 1;
#X connect 33 0 48 1;
#X connect 35 0 37 0;
#X connect 36 0 38 1;
#X connect 37 0 38 0;
#X connect 38 0 48 0;
#X connect 39 0 27 0;
#X connect 39 0 31 0;
#X connect 40 0 50 0;
#X connect 41 0 47 0;
#X connect 42 0 47 0;
#X connect 43 0 44 0;
#X connect 43 0 45 0;
#X connect 44 0 41 1;
#X connect 45 0 42 1;
#X connect 46 0 32 1;
#X connect 46 0 43 1;
#X connect 47 0 8 0;
#X connect 48 0 30 0;
#X connect 48 0 49 0;
#X connect 49 0 40 0;
#X connect 50 0 39 0;
#X connect 51 0 48 0;
#X connect 52 0 51 0;
#X connect 53 0 54 0;
#X connect 54 0 8 1;
#X coords 0 0 1 1 64 180 0;
