#N canvas 821 482 1274 581 10;
#X obj 418 300 voice1;
#X floatatom 462 232 5 0 0 0 - - -, f 5;
#X floatatom 513 239 5 0 0 0 - - -, f 5;
#X obj 285 40 sampleplayer;
#X obj 646 -154 sampleplayer;
#X obj 885 71 voice2;
#X obj 719 179 loadbang;
#X msg 724 202 4095;
#X msg 828 188 0;
#X connect 1 0 0 1;
#X connect 2 0 0 2;
#X connect 3 0 0 3;
#X connect 3 2 2 0;
#X connect 4 0 5 3;
#X connect 4 2 5 2;
#X connect 6 0 7 0;
#X connect 6 0 8 0;
#X connect 7 0 0 0;
#X connect 7 0 5 0;
#X connect 8 0 5 1;
