#N canvas 32 462 794 538 10;
#N canvas 2 34 798 423 basic 0;
#X floatatom 267 181 5 0 0 0 - - -, f 5;
#X floatatom 362 181 5 0 0 0 - - -, f 5;
#X floatatom 407 871 5 0 0 0 - - -, f 5;
#X obj 224 244 notein 1;
#X obj 536 569 pack 0 0 0;
#X floatatom 344 336 5 0 0 0 - - -, f 5;
#X obj 735 203 s decA;
#X obj 797 203 s decF;
#X floatatom 742 181 5 0 0 0 - - -, f 5;
#X floatatom 803 181 5 0 0 0 - - -, f 5;
#X obj 860 203 s depthF;
#X floatatom 864 181 5 0 0 0 - - -, f 5;
#X obj 147 292 +;
#X floatatom 183 267 5 0 0 0 - - -, f 5;
#X obj 159 -82 r fromCtlr;
#X obj 504 203 s transpose2;
#X obj 522 286 - 36;
#X msg 158 661 clear;
#X obj 268 410 arpeggiator-plugin;
#X obj 250 323 pack;
#X obj 309 556 unpack;
#X obj 397 103 tgl 36 0 empty empty empty 17 7 0 10 -262144 -1 -1 0
1;
#X obj 155 562 spigot;
#X obj 134 532 inv;
#X obj 202 558 spigot;
#X obj 181 528 inv;
#X msg 161 619 stop;
#X obj 154 423 s tocv;
#X floatatom 666 181 5 0 0 0 - - -, f 5;
#X obj 97 818 r gridbuts;
#X obj 159 -60 mrpeach/routeOSC /pot1 /pot2 /pot3 /pot4 /pot5 /pot6
/pot7 /pot8 /pot9 /pot10 /pot11 /pot12;
#X obj 97 840 sel 0;
#X obj 494 636 bng 15 250 50 0 empty empty empty 17 7 0 10 -262144
-1 -1;
#X obj 521 636 bng 15 250 50 0 empty empty empty 17 7 0 10 -262144
-1 -1;
#X obj 559 636 bng 15 250 50 0 empty empty empty 17 7 0 10 -262144
-1 -1;
#X obj 586 636 bng 15 250 50 0 empty empty empty 17 7 0 10 -262144
-1 -1;
#X obj 400 900 voice1;
#X obj 496 907 voice2;
#X obj 585 902 voice3;
#X obj 677 906 voice4;
#X obj 397 150 loadbang;
#X obj 426 203 s resonance;
#X obj 411 836 r resonance;
#X obj 611 203 s speed;
#X obj 427 401 r speed;
#X obj 742 133 loadbang;
#X obj 764 904 voice5;
#X obj 513 596 route 1 2 3 4 5 6;
#X obj 615 634 bng 15 250 50 0 empty empty empty 17 7 0 10 -262144
-1 -1;
#X obj 642 634 bng 15 250 50 0 empty empty empty 17 7 0 10 -262144
-1 -1;
#X obj 661 203 s vol;
#X obj 864 907 voice6;
#X obj 336 844 loadbang;
#X msg 336 866 2048;
#X floatatom 506 819 5 0 0 0 - - -, f 5;
#X floatatom 582 821 5 0 0 0 - - -, f 5;
#X floatatom 644 819 5 0 0 0 - - -, f 5;
#X obj 200 790 phasor~ 200;
#X msg 700 181 1024;
#X obj 355 203 s detune2;
#X floatatom 249 742 5 0 0 0 - - -, f 5;
#X floatatom 302 280 5 0 0 0 - - -, f 5;
#X obj 264 669 print;
#X obj 490 692 basicsynthvoice;
#X obj 370 695 basicsynthvoice;
#X obj 557 718 basicsynthvoice;
#X obj 651 743 basicsynthvoice;
#X obj 748 771 basicsynthvoice;
#X obj 860 794 basicsynthvoice;
#X msg 432 181 3848;
#X msg 520 181 0;
#X floatatom 466 181 5 0 0 0 - - -, f 5;
#X msg 547 181 7;
#X msg 614 181 40;
#X floatatom 484 225 5 0 0 0 - - -, f 5;
#X obj 76 444 loadbang;
#X msg 97 482 0;
#X msg 740 155 3000;
#X msg 792 155 3000;
#X msg 853 155 3000;
#X msg 402 181 1;
#X text 586 -69 \$1name \$2pageno \$3encoderno \$4min \$5max \$6tablepname
\$7tableno \$0 \$9pagelink \$10encoderlink;
#X obj 608 48 table synthparams 32;
#X obj 236 38 parameternumber transpose2 0 2 -48 48 synthparams 1 \$0
;
#X obj 305 38 parameternumber filterdepth 0 3 0 4095 synthparams 2
\$0;
#X obj 374 38 parameternumber resonance 0 4 0 4095 synthparams 3 \$0
;
#X obj 443 38 parameternumber filterdecay 0 5 0 10000 synthparams 4
\$0;
#X obj 168 98 parameternumber ampdecay 0 6 0 10000 synthparams 5 \$0
;
#X obj 237 98 parameternumber volume 0 7 0 4095 synthparams 6 \$0;
#X obj 306 98 parameternumber arpspeed 0 8 25 10000 synthparams 7 \$0
;
#X obj 541 537 poly 6 1;
#X obj 627 281 tabread synthparams;
#X floatatom 636 240 5 0 0 0 - - -, f 5;
#X floatatom 627 303 5 0 0 0 - - -, f 5;
#X floatatom 98 -36 5 0 0 0 - - -, f 5;
#X obj 167 38 parameternumber detune2 0 1 0 1000 synthparams 0 $;
#X obj 115 -5 s \$0-synthparams0.r;
#X connect 1 0 59 0;
#X connect 2 0 36 1;
#X connect 2 0 46 1;
#X connect 2 0 39 1;
#X connect 2 0 38 1;
#X connect 2 0 37 1;
#X connect 2 0 51 1;
#X connect 3 0 5 0;
#X connect 3 0 12 0;
#X connect 3 1 61 0;
#X connect 3 1 19 1;
#X connect 4 0 47 0;
#X connect 8 0 6 0;
#X connect 9 0 7 0;
#X connect 11 0 10 0;
#X connect 12 0 19 0;
#X connect 13 0 12 1;
#X connect 14 0 30 0;
#X connect 16 0 12 1;
#X connect 17 0 90 0;
#X connect 18 0 20 0;
#X connect 18 0 90 0;
#X connect 19 0 18 0;
#X connect 19 0 90 0;
#X connect 21 0 18 1;
#X connect 21 0 23 0;
#X connect 21 0 25 0;
#X connect 23 0 22 1;
#X connect 25 0 24 1;
#X connect 26 0 90 0;
#X connect 28 0 50 0;
#X connect 29 0 31 0;
#X connect 31 0 21 0;
#X connect 40 0 70 0;
#X connect 40 0 73 0;
#X connect 40 0 69 0;
#X connect 40 0 80 0;
#X connect 42 0 2 0;
#X connect 44 0 18 3;
#X connect 45 0 77 0;
#X connect 45 0 79 0;
#X connect 45 0 78 0;
#X connect 45 0 58 0;
#X connect 47 0 32 0;
#X connect 47 0 62 0;
#X connect 47 0 64 0;
#X connect 47 1 33 0;
#X connect 47 1 63 0;
#X connect 47 2 34 0;
#X connect 47 2 65 0;
#X connect 47 3 35 0;
#X connect 47 3 66 0;
#X connect 47 4 48 0;
#X connect 47 4 67 0;
#X connect 47 5 49 0;
#X connect 47 5 68 0;
#X connect 52 0 53 0;
#X connect 53 0 36 0;
#X connect 53 0 51 0;
#X connect 53 0 46 0;
#X connect 53 0 39 0;
#X connect 53 0 38 0;
#X connect 53 0 37 0;
#X connect 54 0 36 0;
#X connect 54 0 51 0;
#X connect 54 0 46 0;
#X connect 54 0 39 0;
#X connect 54 0 38 0;
#X connect 54 0 37 0;
#X connect 55 0 36 1;
#X connect 55 0 51 1;
#X connect 55 0 46 1;
#X connect 55 0 39 1;
#X connect 55 0 38 1;
#X connect 55 0 37 1;
#X connect 56 0 38 2;
#X connect 56 0 51 2;
#X connect 56 0 46 2;
#X connect 56 0 39 2;
#X connect 56 0 37 2;
#X connect 56 0 36 2;
#X connect 58 0 28 0;
#X connect 60 0 57 0;
#X connect 63 0 37 3;
#X connect 63 1 37 0;
#X connect 63 2 37 2;
#X connect 64 0 36 3;
#X connect 64 1 36 0;
#X connect 64 2 36 2;
#X connect 65 0 38 3;
#X connect 65 1 38 0;
#X connect 65 2 38 2;
#X connect 66 0 39 3;
#X connect 66 1 39 0;
#X connect 66 2 39 2;
#X connect 67 0 46 3;
#X connect 67 1 46 0;
#X connect 67 2 46 2;
#X connect 68 0 51 3;
#X connect 68 1 51 0;
#X connect 68 2 51 2;
#X connect 69 0 41 0;
#X connect 70 0 15 0;
#X connect 71 0 41 0;
#X connect 72 0 15 0;
#X connect 73 0 43 0;
#X connect 75 0 76 0;
#X connect 76 0 21 0;
#X connect 77 0 8 0;
#X connect 78 0 9 0;
#X connect 79 0 11 0;
#X connect 80 0 1 0;
#X connect 83 0 15 0;
#X connect 84 0 10 0;
#X connect 85 0 41 0;
#X connect 86 0 7 0;
#X connect 87 0 6 0;
#X connect 88 0 50 0;
#X connect 89 0 43 0;
#X connect 90 0 4 0;
#X connect 90 1 4 1;
#X connect 90 2 4 2;
#X connect 91 0 93 0;
#X connect 92 0 91 0;
#X connect 94 0 96 0;
#X connect 95 0 0 0;
#X connect 95 0 59 0;
#X coords 0 -1 1 1 350 140 1 150 21;
#X restore -86 38 pd basic;
