#N canvas 537 112 1241 480 10;
#X obj 110 418 voice1;
#X text 285 65 \$1name \$2pageno \$3encoderno \$4min \$5max \$6tablepname
\$7tableno \$0 \$9pagelink \$10encoderlink;
#X obj 202 133 parameter osc1 0 1 0 10000 osc 1 \$0;
#X floatatom 202 342 5 0 0 0 - - -, f 5;
#X obj 119 61 table osc;
#X floatatom 237 364 5 0 0 0 - - -, f 5;
#X obj 275 134 parameter fc 0 3 0 4095 osc 3 \$0;
#X obj 238 133 parameter vol1 0 2 0 4095 osc 2 \$0;
#X obj 314 133 parameter res1 0 4 0 4095 osc 4 \$0;
#X obj 105 289 phasor~;
#X obj 262 407 line 0 2;
#X msg 272 383 \$1 10;
#X obj 325 409 line 0 2;
#X msg 335 385 \$1 10;
#X obj 57 386 line 0 2;
#X msg 67 362 \$1 10;
#X obj 118 324 *~ 1;
#X floatatom 39 316 5 0 0 0 - - -, f 5;
#X obj 236 342 / 1;
#X connect 2 0 3 0;
#X connect 2 0 9 0;
#X connect 5 0 15 0;
#X connect 6 0 11 0;
#X connect 7 0 18 0;
#X connect 8 0 13 0;
#X connect 9 0 16 0;
#X connect 10 0 0 2;
#X connect 11 0 10 0;
#X connect 12 0 0 1;
#X connect 13 0 12 0;
#X connect 14 0 0 0;
#X connect 15 0 14 0;
#X connect 16 0 0 3;
#X connect 17 0 16 1;
#X connect 18 0 5 0;
