#N canvas 429 49 491 312 10;
#X obj 47 -211 notein;
#X obj 48 -99 pack;
#X floatatom 40 -120 5 0 0 0 - - -, f 5;
#X obj 52 -72 sy77mono;
#X obj 51 -145 +;
#X floatatom 67 -167 5 0 0 0 - - -, f 5;
#X obj 181 -155 s resetpoly;
#X obj 194 -194 bng 15 250 50 0 empty empty empty 17 7 0 10 -262144
-1 -1;
#X msg 171 -45 \; pd dsp 1;
#X msg 173 -96 \; pd dsp 0;
#X obj 265 -155 s redraw;
#X msg 265 -191 1;
#X obj 75 -253 sel 40;
#X obj 108 -231 t f b;
#X msg 134 -209 1;
#X msg 73 -229 0;
#X obj 49 -190 spigot;
#X obj 72 -274 r page;
#X connect 0 0 16 0;
#X connect 0 1 1 1;
#X connect 1 0 3 0;
#X connect 4 0 1 0;
#X connect 4 0 2 0;
#X connect 5 0 4 1;
#X connect 7 0 6 0;
#X connect 11 0 10 0;
#X connect 12 0 15 0;
#X connect 12 1 13 0;
#X connect 13 1 14 0;
#X connect 14 0 16 1;
#X connect 15 0 16 1;
#X connect 16 0 4 0;
#X connect 17 0 12 0;
