#N canvas 878 150 769 225 10;
#X obj 17 -202 notein;
#X obj 89 -101 pack;
#X floatatom 89 -126 5 0 0 0 - - -, f 5;
#X obj 256 -155 tabread seq;
#X msg 264 -120 127;
#X obj 196 -147 t f b;
#X obj 171 -100 makenote;
#X obj 166 -77 pack;
#X obj 167 -125 + 36;
#X obj 397 -71 table seq 16;
#X msg 409 -128 \; seq 0 12 12 24 12 36 12 24 12 24 36 24 48 36 12
36 24;
#X msg 412 -190 \; seq 0 1 1 13 11 1 4 1 4 6 6 8 6 4 4 8 4;
#X obj 256 -177 counter 15;
#X floatatom 158 -165 5 0 0 0 - - -, f 5;
#X obj 90 -148 +;
#X floatatom 109 -175 5 0 0 0 - - -, f 5;
#X obj 297 -106 s max;
#X obj 302 -131 t b;
#N canvas 237 303 1121 673 controller 0;
#X obj 996 219 s paramdisp;
#X obj 91 452 s valuedisp;
#X obj 192 -80 unpack;
#X floatatom 187 -56 5 0 0 0 - - -, f 5;
#X floatatom 234 -57 5 0 0 0 - - -, f 5;
#X obj 166 -160 r encoders;
#X obj 973 -121 change;
#X obj 973 -100 sel 1 2 3 4 5 6 7 8 9 10 11 12;
#X obj 135 -26 route 1 2 3 4 5 6 7 8 9 10 11 12;
#X obj 164 -109 t l l;
#X msg 1077 173 Resonance;
#X msg 970 -17 FilterL1;
#X msg 981 10 FilterT2;
#X msg 991 30 FilterL2;
#X msg 1011 54 FilterT3;
#X msg 1021 74 FilterL3;
#X obj 28 47 f;
#X obj 3 1 t b f;
#X obj 6 47 +;
#X obj 29 25 / 4;
#X obj 8 89 i;
#X obj 8 111 change;
#X obj 50 361 outlet;
#X obj 109 399 outlet;
#X obj 187 400 outlet;
#X obj 271 404 outlet;
#X obj 354 409 outlet;
#X obj 434 415 outlet;
#X obj 502 417 outlet;
#X obj 583 422 outlet;
#X obj 667 427 outlet;
#X obj 753 433 outlet;
#X obj 835 441 outlet;
#X obj 920 460 outlet;
#X obj 118 45 f;
#X obj 84 1 t b f;
#X obj 87 47 +;
#X obj 119 23 / 4;
#X obj 89 89 i;
#X obj 89 113 change;
#X obj 188 48 f;
#X obj 163 2 t b f;
#X obj 166 48 +;
#X obj 189 26 / 4;
#X obj 168 90 i;
#X obj 168 112 change;
#X obj 274 47 f;
#X obj 249 1 t b f;
#X obj 252 47 +;
#X obj 275 25 / 4;
#X obj 254 89 i;
#X obj 254 111 change;
#X obj 252 68 clip 1 5000;
#X obj 355 47 f;
#X obj 330 1 t b f;
#X obj 333 47 +;
#X obj 356 25 / 4;
#X obj 335 89 i;
#X obj 335 111 change;
#X obj 434 48 f;
#X obj 409 2 t b f;
#X obj 412 48 +;
#X obj 435 26 / 4;
#X obj 414 90 i;
#X obj 415 113 change;
#X obj 412 69 clip 1 5000;
#X obj 512 44 f;
#X obj 487 -2 t b f;
#X obj 490 44 +;
#X obj 513 22 / 4;
#X obj 492 86 i;
#X obj 492 108 change;
#X obj 593 44 f;
#X obj 568 -2 t b f;
#X obj 571 44 +;
#X obj 594 22 / 4;
#X obj 573 86 i;
#X obj 573 108 change;
#X obj 571 65 clip 1 5000;
#X obj 672 45 f;
#X obj 647 -1 t b f;
#X obj 650 45 +;
#X obj 673 23 / 4;
#X obj 652 87 i;
#X obj 652 109 change;
#X obj 758 44 f;
#X obj 733 -2 t b f;
#X obj 736 44 +;
#X obj 759 22 / 4;
#X obj 738 86 i;
#X obj 737 110 change;
#X obj 839 44 f;
#X obj 814 -2 t b f;
#X obj 817 44 +;
#X obj 840 22 / 4;
#X obj 819 86 i;
#X obj 814 110 change;
#X obj 918 45 f;
#X obj 893 -1 t b f;
#X obj 896 45 +;
#X obj 919 23 / 4;
#X obj 898 87 i;
#X obj 898 109 change;
#X obj 896 66 clip 1 5000;
#X obj 817 65 clip 0 4095;
#X obj 162 260 i;
#X obj 161 163 t f f f;
#X obj 202 291 / 4095;
#X obj 185 194 mod 34.125;
#X obj 160 236 / 409.5;
#X obj 184 215 / 34.125;
#X obj 154 290 +;
#X obj 332 261 i;
#X obj 331 164 t f f f;
#X obj 391 294 / 4095;
#X obj 355 195 mod 34.125;
#X obj 330 237 / 409.5;
#X obj 354 216 / 34.125;
#X obj 334 284 +;
#X obj 492 261 i;
#X obj 491 164 t f f f;
#X obj 532 292 / 4095;
#X obj 515 195 mod 34.125;
#X obj 490 237 / 409.5;
#X obj 514 216 / 34.125;
#X obj 494 284 +;
#X obj 166 69 clip 0 4095;
#X obj 333 68 clip 0 4095;
#X obj 491 65 clip 0 4095;
#X floatatom 154 312 5 0 0 0 - - -, f 5;
#X obj 266 145 / 5000;
#X obj 430 146 / 5000;
#X obj 591 149 / 5000;
#X msg 1035 97 Release;
#X msg 1046 117 LoopStart;
#X msg 1058 141 LoopEnd;
#X obj 733 135 / 6;
#X obj 737 65 clip 1 6;
#X obj 650 65 clip 0 5;
#X obj 661 149 / 5;
#X obj 181 -139 route 40;
#X msg 954 -62 tempo;
#X obj 6 68 clip 30 300;
#X msg 960 -37 sequence;
#X obj 87 68 clip 1 255;
#X obj 33 165 s tempo;
#X connect 2 0 3 0;
#X connect 2 0 6 0;
#X connect 2 1 4 0;
#X connect 5 0 140 0;
#X connect 6 0 7 0;
#X connect 7 0 141 0;
#X connect 7 1 143 0;
#X connect 7 2 11 0;
#X connect 7 3 12 0;
#X connect 7 4 13 0;
#X connect 7 5 14 0;
#X connect 7 6 15 0;
#X connect 7 7 133 0;
#X connect 7 8 134 0;
#X connect 7 9 135 0;
#X connect 7 10 10 0;
#X connect 8 0 17 0;
#X connect 8 1 35 0;
#X connect 8 2 41 0;
#X connect 8 3 47 0;
#X connect 8 4 54 0;
#X connect 8 5 60 0;
#X connect 8 6 67 0;
#X connect 8 7 73 0;
#X connect 8 8 80 0;
#X connect 8 9 86 0;
#X connect 8 10 92 0;
#X connect 8 11 98 0;
#X connect 9 0 8 0;
#X connect 9 1 2 0;
#X connect 10 0 0 0;
#X connect 11 0 0 0;
#X connect 12 0 0 0;
#X connect 13 0 0 0;
#X connect 14 0 0 0;
#X connect 15 0 0 0;
#X connect 16 0 18 0;
#X connect 17 0 16 0;
#X connect 17 1 19 0;
#X connect 18 0 142 0;
#X connect 19 0 18 1;
#X connect 20 0 21 0;
#X connect 21 0 1 0;
#X connect 21 0 22 0;
#X connect 21 0 145 0;
#X connect 34 0 36 0;
#X connect 35 0 34 0;
#X connect 35 1 37 0;
#X connect 36 0 144 0;
#X connect 37 0 36 1;
#X connect 38 0 39 0;
#X connect 39 0 23 0;
#X connect 39 0 1 0;
#X connect 40 0 42 0;
#X connect 41 0 40 0;
#X connect 41 1 43 0;
#X connect 42 0 126 0;
#X connect 43 0 42 1;
#X connect 44 0 45 0;
#X connect 45 0 106 0;
#X connect 46 0 48 0;
#X connect 47 0 46 0;
#X connect 47 1 49 0;
#X connect 48 0 52 0;
#X connect 49 0 48 1;
#X connect 50 0 51 0;
#X connect 51 0 1 0;
#X connect 51 0 130 0;
#X connect 52 0 46 1;
#X connect 52 0 50 0;
#X connect 53 0 55 0;
#X connect 54 0 53 0;
#X connect 54 1 56 0;
#X connect 55 0 127 0;
#X connect 56 0 55 1;
#X connect 57 0 58 0;
#X connect 58 0 113 0;
#X connect 59 0 61 0;
#X connect 60 0 59 0;
#X connect 60 1 62 0;
#X connect 61 0 65 0;
#X connect 62 0 61 1;
#X connect 63 0 64 0;
#X connect 64 0 1 0;
#X connect 64 0 131 0;
#X connect 65 0 59 1;
#X connect 65 0 63 0;
#X connect 66 0 68 0;
#X connect 67 0 66 0;
#X connect 67 1 69 0;
#X connect 68 0 128 0;
#X connect 69 0 68 1;
#X connect 70 0 71 0;
#X connect 71 0 120 0;
#X connect 72 0 74 0;
#X connect 73 0 72 0;
#X connect 73 1 75 0;
#X connect 74 0 78 0;
#X connect 75 0 74 1;
#X connect 76 0 77 0;
#X connect 77 0 1 0;
#X connect 77 0 132 0;
#X connect 78 0 72 1;
#X connect 78 0 76 0;
#X connect 79 0 81 0;
#X connect 80 0 79 0;
#X connect 80 1 82 0;
#X connect 81 0 138 0;
#X connect 82 0 81 1;
#X connect 83 0 84 0;
#X connect 84 0 1 0;
#X connect 84 0 139 0;
#X connect 85 0 87 0;
#X connect 86 0 85 0;
#X connect 86 1 88 0;
#X connect 87 0 137 0;
#X connect 88 0 87 1;
#X connect 89 0 90 0;
#X connect 90 0 136 0;
#X connect 90 0 1 0;
#X connect 91 0 93 0;
#X connect 92 0 91 0;
#X connect 92 1 94 0;
#X connect 93 0 104 0;
#X connect 94 0 93 1;
#X connect 95 0 96 0;
#X connect 96 0 32 0;
#X connect 96 0 1 0;
#X connect 97 0 99 0;
#X connect 98 0 97 0;
#X connect 98 1 100 0;
#X connect 99 0 103 0;
#X connect 100 0 99 1;
#X connect 101 0 102 0;
#X connect 102 0 1 0;
#X connect 102 0 33 0;
#X connect 103 0 97 1;
#X connect 103 0 101 0;
#X connect 104 0 91 1;
#X connect 104 0 95 0;
#X connect 105 0 111 0;
#X connect 106 0 109 0;
#X connect 106 1 108 0;
#X connect 106 2 107 0;
#X connect 107 0 24 0;
#X connect 108 0 110 0;
#X connect 109 0 105 0;
#X connect 110 0 111 1;
#X connect 111 0 1 0;
#X connect 111 0 129 0;
#X connect 112 0 118 0;
#X connect 113 0 116 0;
#X connect 113 1 115 0;
#X connect 113 2 114 0;
#X connect 114 0 26 0;
#X connect 115 0 117 0;
#X connect 116 0 112 0;
#X connect 117 0 118 1;
#X connect 118 0 1 0;
#X connect 119 0 125 0;
#X connect 120 0 123 0;
#X connect 120 1 122 0;
#X connect 120 2 121 0;
#X connect 121 0 28 0;
#X connect 122 0 124 0;
#X connect 123 0 119 0;
#X connect 124 0 125 1;
#X connect 125 0 1 0;
#X connect 126 0 40 1;
#X connect 126 0 44 0;
#X connect 127 0 53 1;
#X connect 127 0 57 0;
#X connect 128 0 66 1;
#X connect 128 0 70 0;
#X connect 130 0 25 0;
#X connect 131 0 27 0;
#X connect 132 0 29 0;
#X connect 133 0 0 0;
#X connect 134 0 0 0;
#X connect 135 0 0 0;
#X connect 136 0 31 0;
#X connect 137 0 85 1;
#X connect 137 0 89 0;
#X connect 138 0 79 1;
#X connect 138 0 83 0;
#X connect 139 0 30 0;
#X connect 140 0 9 0;
#X connect 141 0 0 0;
#X connect 142 0 16 1;
#X connect 142 0 20 0;
#X connect 143 0 0 0;
#X connect 144 0 34 1;
#X connect 144 0 38 0;
#X restore 420 -228 pd controller;
#X obj 266 -221 r dclock;
#X obj 92 -74 sy778vnofilt;
#X connect 0 0 14 0;
#X connect 0 1 1 1;
#X connect 1 0 20 0;
#X connect 3 0 5 0;
#X connect 4 0 6 1;
#X connect 5 0 8 0;
#X connect 5 1 4 0;
#X connect 6 0 7 0;
#X connect 6 1 7 1;
#X connect 7 0 20 0;
#X connect 8 0 6 0;
#X connect 12 0 3 0;
#X connect 12 2 17 0;
#X connect 13 0 8 1;
#X connect 14 0 1 0;
#X connect 14 0 2 0;
#X connect 15 0 14 1;
#X connect 17 0 16 0;
#X connect 19 0 12 0;
