#N canvas 322 198 1494 596 10;
#X obj 89 -109 pack;
#X obj 87 -73 wtparams;
#N canvas 1393 329 450 300 (subpatch) 0;
#X array wavetable 262144 float 2 black black;
#X coords 0 1 262144 -1 868 207 1;
#X restore 420 372 graph;
#X obj 103 380 loadbang;
#X obj 38 579 soundfiler;
#X obj 19 389 openpanel;
#X obj 41 608 print;
#X obj 105 400 delay 2000;
#X msg 13 417 read -resize \$1 wavetable;
#X obj 259 422 s cyclesize;
#X msg 257 386 512;
#X msg 313 386 2048;
#X obj 29 359 bng 15 250 50 0 empty empty empty 17 7 0 10 -262144 -1
-1;
#X msg 33 546 read -resize ENTEST.WAV wavetable;
#X msg 55 465 read -resize wttest3.wav wavetable;
#X msg 63 492 read -resize wttest.wav wavetable;
#X msg 75 514 read -resize wttest2.wav wavetable;
#X connect 3 0 7 0;
#X connect 4 0 6 0;
#X connect 5 0 8 0;
#X connect 7 0 13 0;
#X connect 7 0 10 0;
#X connect 8 0 4 0;
#X connect 10 0 9 0;
#X connect 11 0 9 0;
#X connect 12 0 5 0;
#X connect 13 0 4 0;
#X connect 14 0 4 0;
#X connect 15 0 4 0;
#X connect 16 0 4 0;
